<svg width="20" height="20" viewBox="0 0 20 20" fill="none" xmlns="http://www.w3.org/2000/svg">
<path d="M9.99999 1.66663C14.6 1.66663 18.3333 5.39996 18.3333 9.99996C18.3333 14.6 14.6 18.3333 9.99999 18.3333C5.39999 18.3333 1.66666 14.6 1.66666 9.99996C1.66666 5.39996 5.39999 1.66663 9.99999 1.66663ZM9.99999 16.6666C13.6833 16.6666 16.6667 13.6833 16.6667 9.99996C16.6667 6.31663 13.6833 3.33329 9.99999 3.33329C6.31666 3.33329 3.33332 6.31663 3.33332 9.99996C3.33332 13.6833 6.31666 16.6666 9.99999 16.6666ZM9.99999 9.16662H13.3333V10.8333H9.99999V13.3333L6.66666 9.99996L9.99999 6.66663V9.16662Z" fill="#E3E3E3"/>
</svg>
