<svg width="20" height="20" viewBox="0 0 20 20" fill="none" xmlns="http://www.w3.org/2000/svg">
<path d="M10.7158 1.66663H9.28426C7.60602 1.66663 6.70604 1.89869 5.89123 2.33446C5.07642 2.77023 4.43694 3.4097 4.00118 4.22451C3.56541 5.03933 3.33334 5.9393 3.33334 7.61755V12.3824C3.33334 14.0606 3.56541 14.9606 4.00118 15.7754C4.43694 16.5902 5.07642 17.2297 5.89123 17.6655C6.70604 18.1012 7.60602 18.3333 9.28426 18.3333H10.7158C12.394 18.3333 13.294 18.1012 14.1088 17.6655C14.9236 17.2297 15.5631 16.5902 15.9988 15.7754C16.4346 14.9606 16.6667 14.0606 16.6667 12.3824V7.61755C16.6667 5.9393 16.4346 5.03933 15.9988 4.22451C15.5631 3.4097 14.9236 2.77023 14.1088 2.33446C13.294 1.89869 12.394 1.66663 10.7158 1.66663ZM9.16668 9.16662V4.99996H10.8333V9.16662H9.16668ZM6.46485 11.465L7.64337 10.2865L10.0004 12.6435L12.3574 10.2865L13.5359 11.465L10.0004 15.0005L6.46485 11.465Z" fill="#E3E3E3"/>
</svg>
