<svg width="20" height="20" viewBox="0 0 20 20" fill="none" xmlns="http://www.w3.org/2000/svg">
<path d="M10 1.66663C14.6 1.66663 18.3333 5.39996 18.3333 9.99996C18.3333 14.6 14.6 18.3333 10 18.3333C5.4 18.3333 1.66667 14.6 1.66667 9.99996C1.66667 5.39996 5.4 1.66663 10 1.66663ZM10 16.6666C13.6833 16.6666 16.6667 13.6833 16.6667 9.99996C16.6667 6.31663 13.6833 3.33329 10 3.33329C6.31667 3.33329 3.33334 6.31663 3.33334 9.99996C3.33334 13.6833 6.31667 16.6666 10 16.6666ZM10.8333 9.99996H13.3333L10 13.3333L6.66667 9.99996H9.16667V6.66663H10.8333V9.99996Z" fill="#E3E3E3"/>
</svg>
