<svg width="20" height="20" viewBox="0 0 20 20" fill="none" xmlns="http://www.w3.org/2000/svg">
<path d="M6.67723 3.80414C7.29468 3.47393 7.96559 3.33329 9.28426 3.33329H10.7158C12.0344 3.33329 12.7053 3.47393 13.3228 3.80414C13.8472 4.08458 14.2488 4.48614 14.5292 5.01051C14.8593 5.62797 15 6.29888 15 7.61755V12.3824C15 13.701 14.8593 14.372 14.5292 14.9894C14.2488 15.5138 13.8472 15.9154 13.3228 16.1958C12.7053 16.526 12.0344 16.6666 10.7158 16.6666H9.28426C7.96559 16.6666 7.29468 16.526 6.67723 16.1958C6.15286 15.9154 5.7513 15.5138 5.47086 14.9894C5.14064 14.372 5.00001 13.701 5.00001 12.3824V7.61755C5.00001 6.29888 5.14064 5.62797 5.47086 5.01051C5.7513 4.48614 6.15286 4.08458 6.67723 3.80414ZM10.7158 1.66663H9.28426C7.60602 1.66663 6.70604 1.89869 5.89123 2.33446C5.07641 2.77023 4.43694 3.40969 4.00118 4.22451C3.56541 5.03933 3.33334 5.9393 3.33334 7.61755V12.3824C3.33334 14.0606 3.56541 14.9606 4.00118 15.7754C4.43694 16.5902 5.07641 17.2297 5.89123 17.6655C6.70604 18.1012 7.60602 18.3333 9.28426 18.3333H10.7158C12.394 18.3333 13.294 18.1012 14.1088 17.6655C14.9236 17.2297 15.5631 16.5902 15.9988 15.7754C16.4346 14.9606 16.6667 14.0606 16.6667 12.3824V7.61755C16.6667 5.9393 16.4346 5.03933 15.9988 4.22451C15.5631 3.40969 14.9236 2.77023 14.1088 2.33446C13.294 1.89869 12.394 1.66663 10.7158 1.66663ZM10.8333 4.99996H9.16668V9.16662H10.8333V4.99996ZM6.46485 11.465L10.0004 15.0005L13.5359 11.465L12.3574 10.2865L10.0004 12.6435L7.64337 10.2865L6.46485 11.465Z" fill="#E3E3E3"/>
</svg>
