<svg width="20" height="20" viewBox="0 0 20 20" fill="none" xmlns="http://www.w3.org/2000/svg">
<path d="M9.16666 9.16662V4.85698L7.64296 6.38067L6.46446 5.20216L9.99999 1.66663L13.5355 5.20216L12.357 6.38067L10.8333 4.85698V9.16662H15.143L13.6192 7.64293L14.7978 6.46443L18.3333 9.99996L14.7978 13.5355L13.6192 12.357L15.143 10.8333H10.8333V15.143L12.357 13.6192L13.5355 14.7978L9.99999 18.3333L6.46446 14.7978L7.64296 13.6192L9.16666 15.143V10.8333H4.85701L6.3807 12.357L5.20219 13.5355L1.66666 9.99996L5.20219 6.46443L6.3807 7.64293L4.85701 9.16662H9.16666Z" fill="#E3E3E3"/>
</svg>
