<svg width="20" height="20" viewBox="0 0 20 20" fill="none" xmlns="http://www.w3.org/2000/svg">
<path d="M17.5 16.6666C17.5 17.1269 17.1269 17.5 16.6667 17.5H3.33333C2.8731 17.5 2.5 17.1269 2.5 16.6666V7.76157C2.5 7.50642 2.61689 7.26534 2.81721 7.10731L9.48392 1.84826C9.7865 1.6095 10.2135 1.6095 10.5161 1.84826L17.1828 7.10731C17.3831 7.26534 17.5 7.50642 17.5 7.76157V16.6666ZM5.83333 9.99998C5.83333 12.3011 7.69882 14.1666 10 14.1666C12.3012 14.1666 14.1667 12.3011 14.1667 9.99998H12.5C12.5 11.3807 11.3807 12.5 10 12.5C8.61925 12.5 7.5 11.3807 7.5 9.99998H5.83333Z" fill="#E3E3E3"/>
</svg>
