<svg width="20" height="20" viewBox="0 0 20 20" fill="none" xmlns="http://www.w3.org/2000/svg">
<path d="M18.3334 16.6666V18.3333H1.66671V16.6666H2.50004V11.0351C1.49505 10.3625 0.833374 9.21679 0.833374 7.91663C0.833374 7.22734 1.0204 6.56347 1.36106 5.99784L3.62112 2.08329C3.76998 1.82546 4.04509 1.66663 4.34281 1.66663H15.6573C15.955 1.66663 16.2301 1.82546 16.379 2.08329L18.6313 5.98472C18.9797 6.56347 19.1667 7.22734 19.1667 7.91663C19.1667 9.21679 18.505 10.3625 17.5 11.0351V16.6666H18.3334ZM4.82392 3.33329L2.79669 6.8443C2.60345 7.16532 2.50004 7.53237 2.50004 7.91663C2.50004 9.06721 3.43278 9.99996 4.58337 9.99996C5.44251 9.99996 6.20393 9.47521 6.5182 8.69121C6.79787 7.99348 7.78554 7.99348 8.06522 8.69121C8.37946 9.47521 9.14087 9.99996 10 9.99996C10.8592 9.99996 11.6206 9.47521 11.9349 8.69121C12.2145 7.99348 13.2022 7.99348 13.4819 8.69121C13.7961 9.47521 14.5575 9.99996 15.4167 9.99996C16.5673 9.99996 17.5 9.06721 17.5 7.91663C17.5 7.53237 17.3966 7.16532 17.1956 6.83118L15.1761 3.33329H4.82392Z" fill="#E3E3E3"/>
</svg>
