<svg width="20" height="20" viewBox="0 0 20 20" fill="none" xmlns="http://www.w3.org/2000/svg">
<path d="M18.3334 17.5H1.66669V15.8333H2.50002V3.33333C2.50002 2.8731 2.87312 2.5 3.33335 2.5H15C15.4603 2.5 15.8334 2.8731 15.8334 3.33333V7.5H17.5V15.8333H18.3334V17.5ZM14.1667 15.8333H15.8334V9.16667H10.8334V15.8333H12.5V10.8333H14.1667V15.8333ZM14.1667 7.5V4.16667H4.16669V15.8333H9.16669V7.5H14.1667ZM5.83335 9.16667H7.50002V10.8333H5.83335V9.16667ZM5.83335 12.5H7.50002V14.1667H5.83335V12.5ZM5.83335 5.83333H7.50002V7.5H5.83335V5.83333Z" fill="#E3E3E3"/>
</svg>
