<svg width="20" height="20" viewBox="0 0 20 20" fill="none" xmlns="http://www.w3.org/2000/svg">
<path d="M17.5 9.70479V17.5C17.5 17.9602 17.1269 18.3333 16.6667 18.3333H3.33335C2.87312 18.3333 2.50002 17.9602 2.50002 17.5V9.70479C1.98139 9.11721 1.66669 8.34529 1.66669 7.49996V2.49996C1.66669 2.03973 2.03979 1.66663 2.50002 1.66663H17.5C17.9603 1.66663 18.3334 2.03973 18.3334 2.49996V7.49996C18.3334 8.34529 18.0187 9.11721 17.5 9.70479ZM11.6667 7.49996C11.6667 7.03973 12.0398 6.66663 12.5 6.66663C12.9603 6.66663 13.3334 7.03973 13.3334 7.49996C13.3334 8.42046 14.0795 9.16662 15 9.16662C15.9205 9.16662 16.6667 8.42046 16.6667 7.49996V3.33329H3.33335V7.49996C3.33335 8.42046 4.07955 9.16662 5.00002 9.16662C5.92049 9.16662 6.66669 8.42046 6.66669 7.49996C6.66669 7.03973 7.03979 6.66663 7.50002 6.66663C7.96025 6.66663 8.33335 7.03973 8.33335 7.49996C8.33335 8.42046 9.07952 9.16662 10 9.16662C10.9205 9.16662 11.6667 8.42046 11.6667 7.49996Z" fill="#E3E3E3"/>
</svg>
