<svg width="20" height="20" viewBox="0 0 20 20" fill="none" xmlns="http://www.w3.org/2000/svg">
<path d="M17.5 16.6666H19.1666V18.3333H0.833313V16.6666H2.49998V2.49996C2.49998 2.03973 2.87308 1.66663 3.33331 1.66663H16.6666C17.1269 1.66663 17.5 2.03973 17.5 2.49996V16.6666ZM15.8333 16.6666V3.33329H4.16665V16.6666H15.8333ZM6.66665 9.16662H9.16665V10.8333H6.66665V9.16662ZM6.66665 5.83329H9.16665V7.49996H6.66665V5.83329ZM6.66665 12.5H9.16665V14.1666H6.66665V12.5ZM10.8333 12.5H13.3333V14.1666H10.8333V12.5ZM10.8333 9.16662H13.3333V10.8333H10.8333V9.16662ZM10.8333 5.83329H13.3333V7.49996H10.8333V5.83329Z" fill="#E3E3E3"/>
</svg>
