<svg width="20" height="20" viewBox="0 0 20 20" fill="none" xmlns="http://www.w3.org/2000/svg">
<path d="M5.8034 2.5H14.1966C14.4036 3.935 15.6335 5 17.0833 5C17.3601 5 17.6355 4.96059 17.9012 4.88297C17.7476 6.36988 16.4948 7.5 15 7.5H4.99998C3.50516 7.5 2.25231 6.36988 2.09875 4.88297C2.36445 4.96059 2.63984 5 2.91665 5C4.36652 5 5.59627 3.935 5.8034 2.5ZM19.1488 9.2595C18.7851 9.46592 18.3646 9.58375 17.9166 9.58375C16.9913 9.58375 16.1834 9.081 15.7511 8.33375H4.24886C3.8166 9.081 3.00866 9.58375 2.08331 9.58375C1.63529 9.58375 1.2148 9.46592 0.85113 9.2595C0.839355 9.36592 0.833313 9.47417 0.833313 9.58375C0.833313 10.7472 1.51459 11.7516 2.49998 12.2197V17.5H7.49998V15.8333C7.49998 14.4526 8.61931 13.3333 9.99998 13.3333C11.3807 13.3333 12.5 14.4526 12.5 15.8333V17.5H17.5V12.2197C18.4854 11.7516 19.1666 10.7472 19.1666 9.58375C19.1666 9.47417 19.1606 9.36592 19.1488 9.2595Z" fill="#E3E3E3"/>
</svg>
