<svg width="20" height="20" viewBox="0 0 20 20" fill="none" xmlns="http://www.w3.org/2000/svg">
<path d="M7.49996 15.8333H9.99996V10.7847L6.66663 7.87835L3.33329 10.7847V15.8333H5.83329V12.5H7.49996V15.8333ZM17.5 17.5H2.49996C2.03973 17.5 1.66663 17.1269 1.66663 16.6667V10.4057C1.66663 10.1648 1.7708 9.93575 1.95231 9.7775L4.99996 7.12029V3.33333C4.99996 2.8731 5.37306 2.5 5.83329 2.5H17.5C17.9602 2.5 18.3333 2.8731 18.3333 3.33333V16.6667C18.3333 17.1269 17.9602 17.5 17.5 17.5ZM13.3333 9.16667V10.8333H15V9.16667H13.3333ZM13.3333 12.5V14.1667H15V12.5H13.3333ZM13.3333 5.83333V7.5H15V5.83333H13.3333ZM9.99996 5.83333V7.5H11.6666V5.83333H9.99996Z" fill="#E3E3E3"/>
</svg>
