<svg width="20" height="20" viewBox="0 0 20 20" fill="none" xmlns="http://www.w3.org/2000/svg">
<path d="M0.833374 4.16671C0.833374 3.70647 1.20647 3.33337 1.66671 3.33337H18.3334C18.7936 3.33337 19.1667 3.70647 19.1667 4.16671V15.8334C19.1667 16.2936 18.7936 16.6667 18.3334 16.6667H1.66671C1.20647 16.6667 0.833374 16.2936 0.833374 15.8334V4.16671ZM10.8334 6.66671V8.33337H15.8334V6.66671H10.8334ZM15 10H10.8334V11.6667H15V10ZM8.75004 8.33337C8.75004 7.18278 7.8173 6.25004 6.66671 6.25004C5.51612 6.25004 4.58337 7.18278 4.58337 8.33337C4.58337 9.48396 5.51612 10.4167 6.66671 10.4167C7.8173 10.4167 8.75004 9.48396 8.75004 8.33337ZM6.66671 11.25C5.05587 11.25 3.75004 12.5559 3.75004 14.1667H9.58337C9.58337 12.5559 8.27754 11.25 6.66671 11.25Z" fill="#E3E3E3"/>
</svg>
