<svg width="20" height="20" viewBox="0 0 20 20" fill="none" xmlns="http://www.w3.org/2000/svg">
<path d="M16.0761 4.99999H16.6668C17.127 4.99999 17.5001 5.37309 17.5001 5.83332V11.6666C17.5001 12.1269 17.127 12.5 16.6668 12.5H15.0001L11.5265 7.63693C11.112 7.05668 10.3744 6.80439 9.69137 7.00928L7.62033 7.63061C7.03305 7.80679 6.39646 7.6463 5.9629 7.21274L5.71893 6.96876C5.34708 6.59692 5.40838 5.97784 5.84593 5.68614L10.3468 2.68556C10.896 2.31948 11.6093 2.31189 12.1661 2.66621L15.6288 4.86971C15.7625 4.9548 15.9177 4.99999 16.0761 4.99999ZM4.18919 11.9123L2.84273 13.0905C2.44988 13.4341 2.46617 14.0503 2.87663 14.3729L7.1606 17.7388C7.56066 18.0531 8.14656 17.9387 8.39896 17.497L8.98554 16.4705C9.34387 15.8434 9.25754 15.0569 8.77171 14.5225L6.51993 12.0455C5.90905 11.3735 4.87264 11.3143 4.18919 11.9123ZM5.87127 4.16671H2.49996C2.03973 4.16671 1.66663 4.53981 1.66663 5.00004V11.2632C1.66663 11.6035 1.77058 11.9311 1.95845 12.2054C1.97838 12.1865 1.99876 12.168 2.0196 12.1497L3.36607 10.9715C4.5621 9.92504 6.37582 10.0286 7.44486 11.2046L9.69671 13.6816C10.5469 14.6168 10.698 15.9932 10.0709 17.0906L9.52563 18.0449C9.99471 18.2226 10.5291 18.1825 10.9741 17.9155L14.6485 15.711C15.0655 15.4607 15.1805 14.908 14.898 14.5122L10.509 8.36346C10.4054 8.21841 10.221 8.15534 10.0502 8.20656L7.97917 8.82787C6.95143 9.13621 5.83739 8.85537 5.07868 8.09662L4.8347 7.85265C3.90508 6.92303 4.05833 5.37533 5.15222 4.64607L5.87127 4.16671Z" fill="#E3E3E3"/>
</svg>
