<svg width="20" height="20" viewBox="0 0 20 20" fill="none" xmlns="http://www.w3.org/2000/svg">
<path d="M4.16663 2.5C3.77604 2.5 3.43787 2.77128 3.35313 3.15256L1.68647 10.6526C1.67328 10.7119 1.66663 10.7725 1.66663 10.8333V16.6667C1.66663 17.1269 2.03973 17.5 2.49996 17.5H17.5C17.9602 17.5 18.3333 17.1269 18.3333 16.6667V10.8333C18.3333 10.7725 18.3266 10.7119 18.3135 10.6526L16.6468 3.15256C16.562 2.77128 16.2239 2.5 15.8333 2.5H4.16663ZM16.4611 10H12.5C12.5 11.3807 11.3807 12.5 9.99996 12.5C8.61921 12.5 7.49996 11.3807 7.49996 10H3.53881L4.8351 4.16667H15.1648L16.4611 10Z" fill="#E3E3E3"/>
</svg>
