<svg width="20" height="20" viewBox="0 0 20 20" fill="none" xmlns="http://www.w3.org/2000/svg">
<path d="M6.66667 3.33329C6.66667 4.25377 5.92048 4.99996 5 4.99996C4.07952 4.99996 3.33333 4.25377 3.33333 3.33329C3.33333 2.41282 4.07952 1.66663 5 1.66663C5.92048 1.66663 6.66667 2.41282 6.66667 3.33329ZM4.16667 13.3333V18.3333H2.5V8.33329C2.5 6.95258 3.61929 5.83329 5 5.83329C5.68383 5.83329 6.30352 6.10784 6.75488 6.55273L8.73358 8.42137L10.6609 6.49403L11.8394 7.67255L8.76675 10.7452L7.5 9.54887V18.3333H5.83333V13.3333H4.16667ZM8.33333 4.16663H15.8333V11.6666H8.33333V13.3333H11.9712L14.3241 18.3333H16.1661L13.8132 13.3333H16.6667C17.1269 13.3333 17.5 12.9602 17.5 12.5V3.33329C17.5 2.87306 17.1269 2.49996 16.6667 2.49996H8.33333V4.16663Z" fill="#E3E3E3"/>
</svg>
