<svg width="20" height="20" viewBox="0 0 20 20" fill="none" xmlns="http://www.w3.org/2000/svg">
<path d="M18.3333 11.1178C17.812 10.9336 17.251 10.8333 16.6666 10.8333C13.9052 10.8333 11.6666 13.0719 11.6666 15.8333C11.6666 16.4177 11.7669 16.9787 11.9511 17.5H2.49996C2.03973 17.5 1.66663 17.1269 1.66663 16.6667V3.33333C1.66663 2.8731 2.03973 2.5 2.49996 2.5H17.5C17.9602 2.5 18.3333 2.8731 18.3333 3.33333V11.1178ZM10.0505 9.73575L4.70598 5.19808L3.62728 6.46858L10.0609 11.9309L16.3786 6.46347L15.288 5.2032L10.0505 9.73575ZM17.5 15H20V16.6667H17.5V19.1667H15.8333V16.6667H13.3333V15H15.8333V12.5H17.5V15Z" fill="#E3E3E3"/>
</svg>
