<svg width="20" height="20" viewBox="0 0 20 20" fill="none" xmlns="http://www.w3.org/2000/svg">
<path d="M16.736 12.6665L17.7378 13.2676C17.935 13.386 17.999 13.6419 17.8807 13.8392C17.8455 13.8979 17.7964 13.947 17.7378 13.9821L10.4286 18.3676C10.1647 18.526 9.83504 18.526 9.57113 18.3676L2.26205 13.9821C2.06473 13.8637 2.00074 13.6078 2.11914 13.4105C2.15432 13.3518 2.2034 13.3027 2.26205 13.2676L3.26379 12.6665L9.99988 16.7081L16.736 12.6665ZM16.736 8.74981L17.7378 9.3509C17.935 9.46931 17.999 9.72523 17.8807 9.92256C17.8455 9.98123 17.7964 10.0303 17.7378 10.0655L9.99988 14.7081L2.26205 10.0655C2.06473 9.94706 2.00074 9.69115 2.11914 9.49381C2.15432 9.43515 2.2034 9.38606 2.26205 9.3509L3.26379 8.74981L9.99988 12.7915L16.736 8.74981ZM10.4286 1.09043L17.7378 5.4759C17.935 5.59429 17.999 5.85023 17.8807 6.04756C17.8455 6.10621 17.7964 6.15529 17.7378 6.19047L9.99988 10.8331L2.26205 6.19047C2.06473 6.07208 2.00074 5.81614 2.11914 5.61881C2.15432 5.56016 2.2034 5.51109 2.26205 5.4759L9.57113 1.09043C9.83504 0.932096 10.1647 0.932096 10.4286 1.09043ZM9.99988 2.77684L4.90599 5.83319L9.99988 8.88956L15.0938 5.83319L9.99988 2.77684Z" fill="#E3E3E3"/>
</svg>
