<svg width="20" height="20" viewBox="0 0 20 20" fill="none" xmlns="http://www.w3.org/2000/svg">
<path d="M2.50004 15H17.5V5.00004H2.50004V15ZM0.833374 4.16671C0.833374 3.70647 1.20647 3.33337 1.66671 3.33337H18.3334C18.7936 3.33337 19.1667 3.70647 19.1667 4.16671V15.8334C19.1667 16.2936 18.7936 16.6667 18.3334 16.6667H1.66671C1.20647 16.6667 0.833374 16.2936 0.833374 15.8334V4.16671ZM7.50004 8.33337C7.50004 7.87314 7.12694 7.50004 6.66671 7.50004C6.20647 7.50004 5.83337 7.87314 5.83337 8.33337C5.83337 8.79362 6.20647 9.16671 6.66671 9.16671C7.12694 9.16671 7.50004 8.79362 7.50004 8.33337ZM9.16671 8.33337C9.16671 9.71412 8.04742 10.8334 6.66671 10.8334C5.286 10.8334 4.16671 9.71412 4.16671 8.33337C4.16671 6.95267 5.286 5.83337 6.66671 5.83337C8.04742 5.83337 9.16671 6.95267 9.16671 8.33337ZM6.66821 13.3334C5.86257 13.3334 5.13454 13.659 4.60582 14.1876L3.42731 13.0091C4.25582 12.1806 5.40279 11.6667 6.66821 11.6667C7.93363 11.6667 9.08062 12.1806 9.90912 13.0091L8.73062 14.1876C8.20188 13.659 7.47386 13.3334 6.66821 13.3334ZM14.8275 7.32745L13.3334 8.82154L11.8393 7.32745L10.6608 8.50596L12.1549 10L10.6608 11.4941L11.8393 12.6726L13.3334 11.1785L14.8275 12.6726L16.006 11.4941L14.5119 10L16.006 8.50596L14.8275 7.32745Z" fill="#E3E3E3"/>
</svg>
