<svg width="20" height="20" viewBox="0 0 20 20" fill="none" xmlns="http://www.w3.org/2000/svg">
<path d="M14.1666 1.66663C14.6269 1.66663 15 2.03972 15 2.49996V5.83329H17.5C17.9602 5.83329 18.3333 6.20639 18.3333 6.66663V11.1035C18.1837 10.897 18.014 10.6989 17.8242 10.509C17.4678 10.1526 17.0819 9.86712 16.6666 9.65263V7.49996H3.33329V14.1666H4.99996V13.3333C4.99996 12.873 5.37306 12.5 5.83329 12.5H10.1615C10.1402 12.5777 10.1211 12.6564 10.104 12.7358C9.74571 12.9729 9.42829 13.2712 9.15196 13.6308C9.01896 13.8039 8.90221 13.9825 8.80163 14.1666H6.66663V16.6666H8.37838C8.46896 17.2765 8.69596 17.832 9.05954 18.3333H5.83329C5.37306 18.3333 4.99996 17.9602 4.99996 17.5V15.8333H2.49996C2.03972 15.8333 1.66663 15.4602 1.66663 15V6.66663C1.66663 6.20639 2.03972 5.83329 2.49996 5.83329H4.99996V2.49996C4.99996 2.03972 5.37306 1.66663 5.83329 1.66663H14.1666ZM13.3333 3.33329H6.66663V5.83329H13.3333V3.33329ZM6.66663 8.33329V9.99996H4.16663V8.33329H6.66663ZM17.5 13.75C17.5 12.1391 16.1941 10.8333 14.5833 10.8333C12.9725 10.8333 11.6666 12.1391 11.6666 13.75L11.6695 13.8354C10.7061 14.1065 9.99996 14.9916 9.99996 16.0416C9.99996 17.2604 10.9514 18.257 12.152 18.3291L12.2916 18.3333H16.875L17.0145 18.3291C18.2152 18.257 19.1666 17.2604 19.1666 16.0416C19.1666 14.9919 18.4609 14.107 17.4987 13.836L17.5 13.75ZM13.339 13.6295C13.3996 12.9957 13.9335 12.5 14.5833 12.5C15.233 12.5 15.767 12.9957 15.8275 13.6295L15.8333 13.75V15.1C16.4133 15.2657 16.8145 15.3784 17.0367 15.438C17.3701 15.5273 17.568 15.87 17.4786 16.2034C17.4042 16.4812 17.1538 16.665 16.8795 16.6668H12.2871C12.0128 16.665 11.7624 16.4812 11.688 16.2034C11.5985 15.87 11.7965 15.5273 12.1299 15.438C12.3275 15.385 12.6664 15.2901 13.1465 15.1532L13.3333 15.1V13.75L13.339 13.6295Z" fill="#E3E3E3"/>
</svg>
