<svg width="20" height="20" viewBox="0 0 20 20" fill="none" xmlns="http://www.w3.org/2000/svg">
<path d="M13.5732 7.8564C12.8442 6.64455 11.5163 5.83329 10.0001 5.83329C7.70007 5.83329 5.83341 7.69995 5.83341 9.99996C5.83341 12.3 7.70007 14.1666 10.0001 14.1666C11.5163 14.1666 12.8442 13.3554 13.5732 12.1435L12.1442 11.2868C11.707 12.0138 10.9107 12.5 10.0001 12.5C8.61883 12.5 7.50008 11.3812 7.50008 9.99996C7.50008 8.61871 8.61883 7.49996 10.0001 7.49996C10.9109 7.49996 11.7077 7.98651 12.1447 8.71396L13.5732 7.8564ZM18.3334 9.99996C18.3334 5.39994 14.6001 1.66663 10.0001 1.66663C5.40006 1.66663 1.66675 5.39994 1.66675 9.99996C1.66675 14.6 5.40006 18.3333 10.0001 18.3333C14.6001 18.3333 18.3334 14.6 18.3334 9.99996ZM3.33341 9.99996C3.33341 6.31659 6.31671 3.33329 10.0001 3.33329C13.6834 3.33329 16.6667 6.31659 16.6667 9.99996C16.6667 13.6833 13.6834 16.6666 10.0001 16.6666C6.31671 16.6666 3.33341 13.6833 3.33341 9.99996Z" fill="#E3E3E3"/>
</svg>
