<svg width="20" height="20" viewBox="0 0 20 20" fill="none" xmlns="http://www.w3.org/2000/svg">
<path d="M5.83329 0.833374V2.50004H2.49996C2.03973 2.50004 1.66663 2.87314 1.66663 3.33337V16.6667C1.66663 17.127 2.03973 17.5 2.49996 17.5H8.96213C8.04723 16.3587 7.49996 14.91 7.49996 13.3334C7.49996 9.65146 10.4847 6.66671 14.1666 6.66671C15.7432 6.66671 17.192 7.21397 18.3333 8.1289V3.33337C18.3333 2.87314 17.9602 2.50004 17.5 2.50004H14.1666V0.833374H12.5V2.50004H7.49996V0.833374H5.83329ZM19.1666 13.3334C19.1666 16.0948 16.928 18.3334 14.1666 18.3334C11.4052 18.3334 9.16663 16.0948 9.16663 13.3334C9.16663 10.572 11.4052 8.33337 14.1666 8.33337C16.928 8.33337 19.1666 10.572 19.1666 13.3334ZM13.3333 10V13.6785L15.244 15.5893L16.4225 14.4108L15 12.9882V10H13.3333Z" fill="#E3E3E3"/>
</svg>
