<svg width="20" height="20" viewBox="0 0 20 20" fill="none" xmlns="http://www.w3.org/2000/svg">
<path d="M2.49996 2.5H17.5C17.9602 2.5 18.3333 2.8731 18.3333 3.33333V16.6667C18.3333 17.1269 17.9602 17.5 17.5 17.5H2.49996C2.03973 17.5 1.66663 17.1269 1.66663 16.6667V3.33333C1.66663 2.8731 2.03973 2.5 2.49996 2.5ZM9.27163 10H3.33329V15.8333H16.6666V10H15.7283C15.3582 11.4377 14.0531 12.5 12.5 12.5C10.9468 12.5 9.64171 11.4377 9.27163 10ZM9.27163 8.33333C9.64171 6.89564 10.9468 5.83333 12.5 5.83333C14.0531 5.83333 15.3582 6.89564 15.7283 8.33333H16.6666V4.16667H3.33329V8.33333H9.27163ZM12.5 10.8333C13.4205 10.8333 14.1666 10.0872 14.1666 9.16667C14.1666 8.24619 13.4205 7.5 12.5 7.5C11.5795 7.5 10.8333 8.24619 10.8333 9.16667C10.8333 10.0872 11.5795 10.8333 12.5 10.8333ZM4.99996 12.5H6.66663V14.1667H4.99996V12.5Z" fill="#E3E3E3"/>
</svg>
