<svg width="20" height="20" viewBox="0 0 20 20" fill="none" xmlns="http://www.w3.org/2000/svg">
<g clip-path="url(#clip0_1503_1079)">
<path d="M17.4999 6.66671C18.4204 6.66671 19.1666 7.4129 19.1666 8.33337V11.6667C19.1666 12.5872 18.4204 13.3334 17.4999 13.3334H16.615C16.2049 16.622 13.3996 19.1667 9.99992 19.1667V17.5C12.7613 17.5 14.9999 15.2615 14.9999 12.5V7.50004C14.9999 4.73862 12.7613 2.50004 9.99992 2.50004C7.23849 2.50004 4.99992 4.73862 4.99992 7.50004V13.3334H2.49992C1.57944 13.3334 0.833252 12.5872 0.833252 11.6667V8.33337C0.833252 7.4129 1.57944 6.66671 2.49992 6.66671H3.38483C3.79491 3.37812 6.60024 0.833374 9.99992 0.833374C13.3996 0.833374 16.2049 3.37812 16.615 6.66671H17.4999ZM6.46612 13.1541L7.34957 11.7406C8.11793 12.2219 9.02642 12.5 9.99992 12.5C10.9734 12.5 11.8819 12.2219 12.6503 11.7406L13.5338 13.1541C12.5093 13.7958 11.2979 14.1667 9.99992 14.1667C8.70192 14.1667 7.4906 13.7958 6.46612 13.1541Z" fill="#E3E3E3"/>
</g>
<defs>
<clipPath id="clip0_1503_1079">
<rect width="20" height="20" fill="white"/>
</clipPath>
</defs>
</svg>
