<svg width="20" height="20" viewBox="0 0 20 20" fill="none" xmlns="http://www.w3.org/2000/svg">
<path d="M18.3333 11.1178C17.812 10.9336 17.251 10.8333 16.6666 10.8333C13.9052 10.8333 11.6666 13.0719 11.6666 15.8333C11.6666 16.4177 11.7669 16.9787 11.9511 17.5H2.49996C2.03973 17.5 1.66663 17.1269 1.66663 16.6667V3.33333C1.66663 2.8731 2.03973 2.5 2.49996 2.5H17.5C17.9602 2.5 18.3333 2.8731 18.3333 3.33333V11.1178ZM10.0505 9.73575L4.70598 5.19808L3.62728 6.46858L10.0609 11.9309L16.3786 6.46347L15.288 5.2032L10.0505 9.73575ZM14.2083 16.2904C14.181 16.1422 14.1666 15.9894 14.1666 15.8333C14.1666 15.6772 14.181 15.5245 14.2083 15.3762L13.3632 14.8883L14.1965 13.445L15.042 13.9331C15.2731 13.7353 15.5407 13.579 15.8333 13.4756V12.5H17.5V13.4756C17.7925 13.579 18.0601 13.7353 18.2912 13.9331L19.1367 13.445L19.97 14.8883L19.125 15.3762C19.1523 15.5245 19.1666 15.6772 19.1666 15.8333C19.1666 15.9894 19.1523 16.1422 19.125 16.2904L19.97 16.7783L19.1367 18.2217L18.2912 17.7336C18.0601 17.9313 17.7925 18.0877 17.5 18.1911V19.1667H15.8333V18.1911C15.5407 18.0877 15.2731 17.9313 15.042 17.7336L14.1965 18.2217L13.3632 16.7783L14.2083 16.2904ZM16.6666 16.6667C17.1269 16.6667 17.5 16.2936 17.5 15.8333C17.5 15.3731 17.1269 15 16.6666 15C16.2064 15 15.8333 15.3731 15.8333 15.8333C15.8333 16.2936 16.2064 16.6667 16.6666 16.6667Z" fill="#E3E3E3"/>
</svg>
