<svg width="20" height="20" viewBox="0 0 20 20" fill="none" xmlns="http://www.w3.org/2000/svg">
<path d="M6.66667 3.33329C6.66667 4.25377 5.92048 4.99996 5 4.99996C4.07952 4.99996 3.33333 4.25377 3.33333 3.33329C3.33333 2.41282 4.07952 1.66663 5 1.66663C5.92048 1.66663 6.66667 2.41282 6.66667 3.33329ZM4.16667 13.3333V18.3333H2.5V8.33329C2.5 6.95258 3.61929 5.83329 5 5.83329C5.68383 5.83329 6.30352 6.10784 6.75488 6.55273L8.73358 8.42137L10.6609 6.49403L11.8394 7.67255L8.76675 10.7452L7.5 9.54887V18.3333H5.83333V13.3333H4.16667ZM5 7.49996C4.53977 7.49996 4.16667 7.87306 4.16667 8.33329V11.6666H5.83333V8.33329C5.83333 7.87306 5.46023 7.49996 5 7.49996ZM15.8333 4.16663H8.33333V2.49996H16.6667C17.1269 2.49996 17.5 2.87306 17.5 3.33329V12.5C17.5 12.9602 17.1269 13.3333 16.6667 13.3333H13.8132L16.1661 18.3333H14.3241L11.9712 13.3333H8.33333V11.6666H15.8333V4.16663Z" fill="#E3E3E3"/>
</svg>
