<svg width="20" height="20" viewBox="0 0 20 20" fill="none" xmlns="http://www.w3.org/2000/svg">
<path d="M2.63423 3.72396C4.65419 1.704 7.87259 1.61292 10.0006 3.45071C12.1273 1.61292 15.3457 1.704 17.3656 3.72396C19.382 5.7403 19.4763 8.95083 17.6487 11.0789L11.1785 17.5715C10.5571 18.1928 9.56737 18.221 8.91262 17.6562L8.82146 17.5715L2.35113 11.0789C0.523528 8.95083 0.617895 5.7403 2.63423 3.72396ZM3.81274 4.90247C2.39012 6.32509 2.34948 8.60633 3.69081 10.0781L3.81274 10.2058L9.99996 16.3929L14.4188 11.9729L11.473 9.02725L10.5892 9.91117C9.61287 10.8874 8.02996 10.8874 7.05365 9.91117C6.07734 8.93483 6.07734 7.35192 7.05365 6.37561L8.80463 4.62353C7.37739 3.48094 5.30893 3.53327 3.94046 4.78052L3.81274 4.90247ZM10.8838 7.25949C11.2092 6.93405 11.7369 6.93405 12.0623 7.25949L15.5973 10.7944L16.1871 10.2058C17.6515 8.74133 17.6515 6.36693 16.1871 4.90247C14.7645 3.47984 12.4832 3.4392 11.0115 4.78052L10.8838 4.90247L8.23216 7.55412C7.92997 7.85631 7.90838 8.33285 8.16741 8.65992L8.23216 8.73267C8.53437 9.03483 9.01087 9.05642 9.33796 8.79742L9.41071 8.73267L10.8838 7.25949Z" fill="#E3E3E3"/>
</svg>
