<svg width="20" height="20" viewBox="0 0 20 20" fill="none" xmlns="http://www.w3.org/2000/svg">
<path d="M17.2611 6.77347L17.0556 7.24487C16.9053 7.58997 16.428 7.58997 16.2775 7.24487L16.0721 6.77347C15.7059 5.93293 15.0462 5.26372 14.223 4.89761L13.59 4.61606C13.2477 4.46382 13.2477 3.96572 13.59 3.81347L14.1876 3.54766C15.032 3.17213 15.7035 2.47815 16.0634 1.60907L16.2744 1.09965C16.4215 0.744615 16.9118 0.744615 17.0588 1.09965L17.2698 1.60907C17.6298 2.47815 18.3013 3.17213 19.1456 3.54766L19.7432 3.81347C20.0855 3.96572 20.0855 4.46382 19.7432 4.61606L19.1102 4.89761C18.287 5.26372 17.6274 5.93293 17.2611 6.77347ZM1.66663 3.33337C1.66663 2.87314 2.03973 2.50004 2.49996 2.50004H11.6666V4.16671H3.33329V15.8334H16.6666V9.16671H18.3333V16.6667C18.3333 17.127 17.9602 17.5 17.5 17.5H2.49996C2.03973 17.5 1.66663 17.127 1.66663 16.6667V3.33337ZM5.83329 10.8334H7.49996V14.1667H5.83329V10.8334ZM9.16663 5.83337H10.8333V14.1667H9.16663V5.83337ZM12.5 8.33337H14.1666V14.1667H12.5V8.33337Z" fill="#E3E3E3"/>
</svg>
