<svg width="20" height="20" viewBox="0 0 20 20" fill="none" xmlns="http://www.w3.org/2000/svg">
<path d="M9.99996 18.3333C5.39758 18.3333 1.66663 14.6023 1.66663 9.99996C1.66663 5.39758 5.39758 1.66663 9.99996 1.66663C14.6023 1.66663 18.3333 5.39758 18.3333 9.99996C18.3333 14.6023 14.6023 18.3333 9.99996 18.3333ZM16.6666 9.99996C16.6666 6.31806 13.6819 3.33329 9.99996 3.33329C6.31806 3.33329 3.33329 6.31806 3.33329 9.99996C3.33329 13.6819 6.31806 16.6666 9.99996 16.6666C11.2251 16.6666 12.3731 16.3361 13.3596 15.7595L12.5197 14.3195C11.7799 14.7521 10.9189 15 9.99996 15C7.23853 15 4.99996 12.7614 4.99996 9.99996C4.99996 7.23853 7.23853 4.99996 9.99996 4.99996C12.7614 4.99996 15 7.23853 15 9.99996V10.8333C15 11.2935 14.6269 11.6666 14.1666 11.6666C13.7064 11.6666 13.3333 11.2935 13.3333 10.8333V7.49996H12.2048C11.6172 6.98133 10.8453 6.66663 9.99996 6.66663C8.15901 6.66663 6.66663 8.15901 6.66663 9.99996C6.66663 11.8409 8.15901 13.3333 9.99996 13.3333C10.872 13.3333 11.6659 12.9985 12.2599 12.4503C12.7185 12.9905 13.4025 13.3333 14.1666 13.3333C15.5474 13.3333 16.6666 12.214 16.6666 10.8333V9.99996ZM9.99996 8.33329C10.9205 8.33329 11.6666 9.07946 11.6666 9.99996C11.6666 10.9205 10.9205 11.6666 9.99996 11.6666C9.07946 11.6666 8.33329 10.9205 8.33329 9.99996C8.33329 9.07946 9.07946 8.33329 9.99996 8.33329Z" fill="#E3E3E3"/>
</svg>
