<svg width="20" height="20" viewBox="0 0 20 20" fill="none" xmlns="http://www.w3.org/2000/svg">
<path d="M14.1667 12.7045V18.4308C14.1667 18.6609 13.9801 18.8475 13.75 18.8475C13.6745 18.8475 13.6005 18.827 13.5357 18.7881L10 16.6667L6.46442 18.7881C6.26709 18.9065 6.01115 18.8425 5.89275 18.6452C5.8539 18.5804 5.83337 18.5063 5.83337 18.4308V12.7045C4.30927 11.4828 3.33337 9.60537 3.33337 7.50004C3.33337 3.81814 6.31814 0.833374 10 0.833374C13.682 0.833374 16.6667 3.81814 16.6667 7.50004C16.6667 9.60537 15.6908 11.4828 14.1667 12.7045ZM7.50004 13.6821V16.223L10 14.723L12.5 16.223V13.6821C11.728 13.9946 10.8841 14.1667 10 14.1667C9.11596 14.1667 8.27207 13.9946 7.50004 13.6821ZM10 12.5C12.7615 12.5 15 10.2615 15 7.50004C15 4.73862 12.7615 2.50004 10 2.50004C7.23862 2.50004 5.00004 4.73862 5.00004 7.50004C5.00004 10.2615 7.23862 12.5 10 12.5Z" fill="#E3E3E3"/>
</svg>
