<svg width="20" height="20" viewBox="0 0 20 20" fill="none" xmlns="http://www.w3.org/2000/svg">
<path d="M17.4975 2.49313L17.4998 17.5068C17.4998 17.9539 17.1293 18.3333 16.6722 18.3333H3.32783C2.87079 18.3333 2.5 17.9633 2.5 17.5068V2.49313C2.5 2.04605 2.87057 1.66663 3.32768 1.66663H16.6697C17.1266 1.66663 17.4974 2.03667 17.4975 2.49313ZM7.5 10.8333V7.49996C7.5 7.03973 7.8731 6.66663 8.33333 6.66663C8.79358 6.66663 9.16667 7.03973 9.16667 7.49996V10.8333C9.16667 11.2935 9.53975 11.6666 10 11.6666C10.4602 11.6666 10.8333 11.2935 10.8333 10.8333V7.49996C10.8333 6.11925 9.71408 4.99996 8.33333 4.99996C6.95262 4.99996 5.83333 6.11925 5.83333 7.49996V10.8333C5.83333 13.1345 7.69882 15 10 15C12.3012 15 14.1667 13.1345 14.1667 10.8333V6.66663H12.5V10.8333C12.5 12.214 11.3807 13.3333 10 13.3333C8.61925 13.3333 7.5 12.214 7.5 10.8333Z" fill="#E3E3E3"/>
</svg>
