<svg width="20" height="20" viewBox="0 0 20 20" fill="none" xmlns="http://www.w3.org/2000/svg">
<path d="M5.83341 4.16671V1.66671C5.83341 1.20647 6.20651 0.833374 6.66675 0.833374H13.3334C13.7937 0.833374 14.1667 1.20647 14.1667 1.66671V4.16671H17.5001C17.9603 4.16671 18.3334 4.53981 18.3334 5.00004V16.6667C18.3334 17.127 17.9603 17.5 17.5001 17.5H2.50008C2.03985 17.5 1.66675 17.127 1.66675 16.6667V5.00004C1.66675 4.53981 2.03985 4.16671 2.50008 4.16671H5.83341ZM5.00008 10.8334V5.83337H3.33341V10.8334H5.00008ZM6.66675 5.83337V10.8334H9.16675V9.16671H10.8334V10.8334H13.3334V5.83337H6.66675ZM15.0001 10.8334H16.6667V5.83337H15.0001V10.8334ZM7.50008 2.50004V4.16671H12.5001V2.50004H7.50008Z" fill="#E3E3E3"/>
</svg>
