<svg width="20" height="20" viewBox="0 0 20 20" fill="none" xmlns="http://www.w3.org/2000/svg">
<path d="M6.80901 2.50004C7.1522 1.52905 8.07823 0.833374 9.16675 0.833374H10.8334C11.9219 0.833374 12.848 1.52905 13.1912 2.50004H17.5001C17.9603 2.50004 18.3334 2.87314 18.3334 3.33337V16.6667C18.3334 17.127 17.9603 17.5 17.5001 17.5H2.50008C2.03985 17.5 1.66675 17.127 1.66675 16.6667V3.33337C1.66675 2.87314 2.03985 2.50004 2.50008 2.50004H6.80901ZM8.33341 7.50004V12.5L12.5001 10L8.33341 7.50004ZM9.16675 2.50004C8.7065 2.50004 8.33341 2.87314 8.33341 3.33337C8.33341 3.79361 8.7065 4.16671 9.16675 4.16671H10.8334C11.2937 4.16671 11.6667 3.79361 11.6667 3.33337C11.6667 2.87314 11.2937 2.50004 10.8334 2.50004H9.16675Z" fill="#E3E3E3"/>
</svg>
