<svg width="20" height="20" viewBox="0 0 20 20" fill="none" xmlns="http://www.w3.org/2000/svg">
<path d="M9.16654 1.70776L9.16663 4.22568C6.33971 4.63005 4.16663 7.06121 4.16663 9.99995C4.16663 13.2216 6.7783 15.8333 9.99996 15.8333C11.3102 15.8333 12.5196 15.4013 13.4935 14.6719L15.274 16.4523C13.8375 17.6279 12.0011 18.3333 9.99996 18.3333C5.39758 18.3333 1.66663 14.6023 1.66663 9.99995C1.66663 5.67885 4.95548 2.12591 9.16654 1.70776ZM18.2921 10.8334C18.1257 12.5092 17.4629 14.0389 16.4527 15.2735L14.672 13.4934C15.2438 12.7299 15.6329 11.8215 15.7742 10.8333L18.2921 10.8334ZM10.8342 1.70785C14.7708 2.09913 17.9012 5.22985 18.2921 9.16653L15.7742 9.16645C15.4087 6.61205 13.3884 4.59155 10.8341 4.22581L10.8342 1.70785Z" fill="#E3E3E3"/>
</svg>
