<svg width="20" height="20" viewBox="0 0 20 20" fill="none" xmlns="http://www.w3.org/2000/svg">
<path d="M9.99996 1.66663C14.6 1.66663 18.3333 5.39996 18.3333 9.99996C18.3333 14.6 14.6 18.3333 9.99996 18.3333C5.39996 18.3333 1.66663 14.6 1.66663 9.99996C1.66663 5.39996 5.39996 1.66663 9.99996 1.66663ZM9.99996 4.99996C7.69877 4.99996 5.83329 7.23853 5.83329 9.99996C5.83329 12.7614 7.69877 15 9.99996 15C12.3011 15 14.1666 12.7614 14.1666 9.99996C14.1666 7.23853 12.3011 4.99996 9.99996 4.99996ZM11.9377 7.89361C12.2891 8.46779 12.5 9.20104 12.5 9.99996C12.5 11.8409 11.3807 13.3333 9.99996 13.3333C9.63237 13.3333 9.28337 13.2275 8.96904 13.0376L11.9377 7.89361ZM9.99996 6.66663C10.3675 6.66663 10.7165 6.77238 11.0309 6.96232L8.06224 12.1063C7.71076 11.5321 7.49996 10.7989 7.49996 9.99996C7.49996 8.15901 8.61921 6.66663 9.99996 6.66663Z" fill="#E3E3E3"/>
</svg>
