<svg width="20" height="20" viewBox="0 0 20 20" fill="none" xmlns="http://www.w3.org/2000/svg">
<path d="M1.66671 3.33337C1.20647 3.33337 0.833374 3.70647 0.833374 4.16671V15.8334C0.833374 16.2936 1.20647 16.6667 1.66671 16.6667H18.3334C18.7936 16.6667 19.1667 16.2936 19.1667 15.8334V4.16671C19.1667 3.70647 18.7936 3.33337 18.3334 3.33337H1.66671ZM7.50011 8.33337C7.50011 7.87314 7.12701 7.50004 6.66677 7.50004C6.20653 7.50004 5.83344 7.87314 5.83344 8.33337C5.83344 8.79362 6.20653 9.16671 6.66677 9.16671C7.12701 9.16671 7.50011 8.79362 7.50011 8.33337ZM9.16679 8.33337C9.16679 9.71412 8.04748 10.8334 6.66677 10.8334C5.28606 10.8334 4.16677 9.71412 4.16677 8.33337C4.16677 6.95267 5.28606 5.83337 6.66677 5.83337C8.04748 5.83337 9.16679 6.95267 9.16679 8.33337ZM4.60608 14.1876L3.42757 13.0091C4.25608 12.1806 5.40306 11.6667 6.66847 11.6667C7.9339 11.6667 9.08088 12.1806 9.90938 13.0091L8.73088 14.1876C8.20215 13.659 7.47412 13.3334 6.66847 13.3334C5.86283 13.3334 5.13481 13.659 4.60608 14.1876ZM10.8334 12.5V7.50004H12.5V12.5H10.8334ZM14.1667 12.5V7.50004H15.8334V12.5H14.1667Z" fill="#E3E3E3"/>
</svg>
