<svg width="20" height="20" viewBox="0 0 20 20" fill="none" xmlns="http://www.w3.org/2000/svg">
<path d="M14.1667 9.99996C14.1667 7.23852 12.3013 4.99996 10.0001 4.99996C7.69886 4.99996 5.83341 7.23852 5.83341 9.99996C5.83341 12.7614 7.69886 15 10.0001 15C12.3013 15 14.1667 12.7614 14.1667 9.99996ZM8.96916 13.0375L11.9378 7.89363C12.2893 8.46779 12.5001 9.20104 12.5001 9.99996C12.5001 11.8409 11.3808 13.3333 10.0001 13.3333C9.63258 13.3333 9.2835 13.2275 8.96916 13.0375ZM7.50008 9.99996C7.50008 8.15903 8.61933 6.66663 10.0001 6.66663C10.3676 6.66663 10.7167 6.77242 11.031 6.96234L8.06231 12.1063C7.71086 11.5321 7.50008 10.7989 7.50008 9.99996ZM10.0001 1.66663C7.69997 1.66663 5.61562 2.60108 4.10846 4.10833C2.6012 5.6155 1.66675 7.69985 1.66675 9.99996C1.66675 12.3 2.6012 14.3845 4.10846 15.8915C5.61562 17.3989 7.69997 18.3333 10.0001 18.3333C12.3002 18.3333 14.3846 17.3989 15.8917 15.8915C17.399 14.3845 18.3334 12.3 18.3334 9.99996C18.3334 7.69985 17.399 5.6155 15.8917 4.10833C14.3846 2.60108 12.3002 1.66663 10.0001 1.66663ZM5.28695 5.28683C6.49473 4.07904 8.16028 3.33329 10.0001 3.33329C11.8399 3.33329 13.5054 4.07904 14.7132 5.28683C15.921 6.49461 16.6667 8.16016 16.6667 9.99996C16.6667 11.8398 15.921 13.5053 14.7132 14.7131C13.5054 15.9209 11.8399 16.6666 10.0001 16.6666C8.16028 16.6666 6.49473 15.9209 5.28695 14.7131C4.07916 13.5053 3.33341 11.8398 3.33341 9.99996C3.33341 8.16016 4.07916 6.49461 5.28695 5.28683Z" fill="#E3E3E3"/>
</svg>
