<svg width="20" height="20" viewBox="0 0 20 20" fill="none" xmlns="http://www.w3.org/2000/svg">
<path d="M6.29327 10.8333L6.9991 9.071L7.70328 10.8333H6.29327ZM13.3333 10H14.1666V11.6667H13.3333C12.873 11.6667 12.5 11.2936 12.5 10.8333C12.5 10.3731 12.873 10 13.3333 10ZM17.5 2.5H2.49996C2.03973 2.5 1.66663 2.8731 1.66663 3.33333V16.6667C1.66663 17.1269 2.03973 17.5 2.49996 17.5H17.5C17.9602 17.5 18.3333 17.1269 18.3333 16.6667V3.33333C18.3333 2.8731 17.9602 2.5 17.5 2.5ZM10.4983 13.3333H8.70246L8.36912 12.5H5.62743L5.2941 13.3333H3.4991L4.49827 10.835L4.4991 10.8333L6.16577 6.66667H7.83243L10.4983 13.3333ZM14.1666 6.66667H15.8333V13.3333H13.3333C11.9525 13.3333 10.8333 12.2141 10.8333 10.8333C10.8333 9.45258 11.9525 8.33333 13.3333 8.33333H14.1666V6.66667Z" fill="#E3E3E3"/>
</svg>
