<svg width="20" height="20" viewBox="0 0 20 20" fill="none" xmlns="http://www.w3.org/2000/svg">
<path d="M11.7677 8.73267C11.4423 8.40717 10.9146 8.40717 10.5892 8.73267L9.99996 9.32192C9.34904 9.97275 8.29379 9.97275 7.64291 9.32192C6.99204 8.671 6.99204 7.61573 7.64291 6.96486L12.3351 2.2714C14.0884 1.87478 16.0006 2.35896 17.3656 3.72396C19.3818 5.74009 19.4763 8.95017 17.6493 11.0782L15.8925 12.8574L11.7677 8.73267ZM2.63423 3.72396C4.44539 1.9128 7.22005 1.65236 9.30829 2.94263L6.46439 5.78635C5.16265 7.0881 5.16265 9.19867 6.46439 10.5004C7.7267 11.7627 9.74954 11.8009 11.0579 10.6152L11.1785 10.5004L14.714 14.0359L11.1785 17.5715C10.5275 18.2223 9.47229 18.2223 8.82146 17.5715L2.63423 11.3843C0.518894 9.26892 0.518894 5.83929 2.63423 3.72396Z" fill="#E3E3E3"/>
</svg>
