<svg width="20" height="20" viewBox="0 0 20 20" fill="none" xmlns="http://www.w3.org/2000/svg">
<path d="M2.49992 15H17.4999V5.00004H2.49992V15ZM0.833252 4.16671C0.833252 3.70647 1.20635 3.33337 1.66659 3.33337H18.3333C18.7935 3.33337 19.1666 3.70647 19.1666 4.16671V15.8334C19.1666 16.2936 18.7935 16.6667 18.3333 16.6667H1.66659C1.20635 16.6667 0.833252 16.2936 0.833252 15.8334V4.16671ZM7.49992 8.33337C7.49992 7.87314 7.12682 7.50004 6.66659 7.50004C6.20635 7.50004 5.83325 7.87314 5.83325 8.33337C5.83325 8.79362 6.20635 9.16671 6.66659 9.16671C7.12682 9.16671 7.49992 8.79362 7.49992 8.33337ZM9.16659 8.33337C9.16659 9.71412 8.04729 10.8334 6.66659 10.8334C5.28588 10.8334 4.16659 9.71412 4.16659 8.33337C4.16659 6.95267 5.28588 5.83337 6.66659 5.83337C8.04729 5.83337 9.16659 6.95267 9.16659 8.33337ZM6.66809 13.3334C5.86244 13.3334 5.13442 13.659 4.60569 14.1876L3.42719 13.0091C4.25569 12.1806 5.40267 11.6667 6.66809 11.6667C7.93351 11.6667 9.0805 12.1806 9.909 13.0091L8.7305 14.1876C8.20176 13.659 7.47374 13.3334 6.66809 13.3334ZM10.8333 7.50004V12.5H12.4999V7.50004H10.8333ZM14.1666 7.50004V12.5H15.8333V7.50004H14.1666Z" fill="#E3E3E3"/>
</svg>
