<svg width="20" height="20" viewBox="0 0 20 20" fill="none" xmlns="http://www.w3.org/2000/svg">
<path d="M10 1.66663C13.2217 1.66663 15.8334 4.2783 15.8334 7.49996C15.8334 7.59455 15.8311 7.68862 15.8267 7.7821C17.7721 8.46663 19.1667 10.3205 19.1667 12.5C19.1667 15.2614 16.9281 17.5 14.1667 17.5H5.83337C3.07195 17.5 0.833374 15.2614 0.833374 12.5C0.833374 10.3205 2.22792 8.46663 4.17341 7.7821C4.16896 7.68862 4.16671 7.59455 4.16671 7.49996C4.16671 4.2783 6.77838 1.66663 10 1.66663ZM10 3.33329C7.69886 3.33329 5.83337 5.19878 5.83337 7.49996C5.83337 7.56785 5.83498 7.63548 5.83819 7.70283L5.89722 8.94238L4.72657 9.35429C3.40371 9.81971 2.50004 11.074 2.50004 12.5C2.50004 14.3409 3.99242 15.8333 5.83337 15.8333H14.1667C16.0076 15.8333 17.5 14.3409 17.5 12.5C17.5 10.6583 16.0084 9.16663 14.1667 9.16663C12.6942 9.16663 11.4448 10.1214 11.0035 11.4455L9.42204 10.9184C10.0838 8.93204 11.9584 7.49996 14.1667 7.49996C14.1667 5.19878 12.3012 3.33329 10 3.33329Z" fill="#E3E3E3"/>
</svg>
