<svg width="20" height="20" viewBox="0 0 20 20" fill="none" xmlns="http://www.w3.org/2000/svg">
<path d="M2.92897 1.75038L18.8389 17.6603L17.6604 18.8388L15.9819 17.1603C15.4192 17.3796 14.807 17.5 14.1667 17.5H5.83337C3.07195 17.5 0.833374 15.2614 0.833374 12.5C0.833374 10.3205 2.22792 8.46663 4.17341 7.7821C4.16896 7.68862 4.16671 7.59455 4.16671 7.49996C4.16671 6.85186 4.2724 6.22844 4.46749 5.64602L1.75047 2.92889L2.92897 1.75038ZM5.83337 7.49996C5.83337 7.56785 5.83498 7.63548 5.83819 7.70283L5.89722 8.94238L4.72657 9.35429C3.40371 9.81971 2.50004 11.074 2.50004 12.5C2.50004 14.3409 3.99242 15.8333 5.83337 15.8333H14.1667C14.3215 15.8333 14.474 15.8227 14.6232 15.8023L5.85873 7.03762C5.84197 7.18943 5.83337 7.34368 5.83337 7.49996ZM10 1.66663C13.2217 1.66663 15.8334 4.2783 15.8334 7.49996C15.8334 7.59455 15.8311 7.68862 15.8267 7.7821C17.7721 8.46663 19.1667 10.3205 19.1667 12.5C19.1667 13.4069 18.9253 14.2574 18.5031 14.9907L17.2593 13.7462C17.4145 13.3612 17.5 12.9405 17.5 12.5C17.5 10.6583 16.0084 9.16663 14.1667 9.16663C13.726 9.16663 13.3051 9.25221 12.92 9.40763L11.676 8.16363C12.4094 7.74144 13.2599 7.49996 14.1667 7.49996C14.1667 5.19878 12.3012 3.33329 10 3.33329C9.10796 3.33329 8.28142 3.61362 7.60361 4.09098L6.41186 2.90043C7.40145 2.12733 8.64696 1.66663 10 1.66663Z" fill="#E3E3E3"/>
</svg>
