<svg width="20" height="20" viewBox="0 0 20 20" fill="none" xmlns="http://www.w3.org/2000/svg">
<path d="M7.49996 0.833374V2.50004H12.5V0.833374H14.1666V2.50004H17.5C17.9602 2.50004 18.3333 2.87314 18.3333 3.33337V16.6667C18.3333 17.127 17.9602 17.5 17.5 17.5H2.49996C2.03973 17.5 1.66663 17.127 1.66663 16.6667V3.33337C1.66663 2.87314 2.03973 2.50004 2.49996 2.50004H5.83329V0.833374H7.49996ZM16.6666 8.33337H3.33329V15.8334H16.6666V8.33337ZM12.5295 9.28004L13.708 10.4586L9.58329 14.5834L6.63702 11.6371L7.81553 10.4586L9.58329 12.2264L12.5295 9.28004ZM5.83329 4.16671H3.33329V6.66671H16.6666V4.16671H14.1666V5.00004H12.5V4.16671H7.49996V5.00004H5.83329V4.16671Z" fill="#E3E3E3"/>
</svg>
