<svg width="20" height="20" viewBox="0 0 20 20" fill="none" xmlns="http://www.w3.org/2000/svg">
<path d="M14.1666 2.50004H17.5C17.9602 2.50004 18.3333 2.87314 18.3333 3.33337V16.6667C18.3333 17.127 17.9602 17.5 17.5 17.5H2.49996C2.03973 17.5 1.66663 17.127 1.66663 16.6667V3.33337C1.66663 2.87314 2.03973 2.50004 2.49996 2.50004H5.83329V0.833374H7.49996V2.50004H12.5V0.833374H14.1666V2.50004ZM3.33329 7.50004V15.8334H16.6666V7.50004H3.33329ZM4.99996 9.16671H6.66663V10.8334H4.99996V9.16671ZM9.16662 9.16671H10.8333V10.8334H9.16662V9.16671ZM13.3333 9.16671H15V10.8334H13.3333V9.16671Z" fill="#E3E3E3"/>
</svg>
