<svg width="20" height="20" viewBox="0 0 20 20" fill="none" xmlns="http://www.w3.org/2000/svg">
<path d="M17.5 2.5C17.9602 2.5 18.3333 2.8731 18.3333 3.33333V16.6667C18.3333 17.1269 17.9602 17.5 17.5 17.5H2.49996C2.03973 17.5 1.66663 17.1269 1.66663 16.6667V3.33333C1.66663 2.8731 2.03973 2.5 2.49996 2.5H17.5ZM6.17999 11.6667H3.33329V15.8333H16.6666V11.6667H13.82C13.177 13.1382 11.7085 14.1667 9.99996 14.1667C8.29136 14.1667 6.82296 13.1382 6.17999 11.6667ZM16.6666 4.16667H3.33329V10H7.49996C7.49996 11.3807 8.61921 12.5 9.99996 12.5C11.3807 12.5 12.5 11.3807 12.5 10H16.6666V4.16667Z" fill="#E3E3E3"/>
</svg>
