<svg width="20" height="20" viewBox="0 0 20 20" fill="none" xmlns="http://www.w3.org/2000/svg">
<path d="M10 5.83327C13.682 5.83327 16.6667 8.81803 16.6667 12.4999C16.6667 16.1819 13.682 19.1666 10 19.1666C6.31814 19.1666 3.33337 16.1819 3.33337 12.4999C3.33337 8.81803 6.31814 5.83327 10 5.83327ZM10 7.49994C7.23862 7.49994 5.00004 9.73853 5.00004 12.4999C5.00004 15.2614 7.23862 17.4999 10 17.4999C12.7615 17.4999 15 15.2614 15 12.4999C15 9.73853 12.7615 7.49994 10 7.49994ZM10 8.74995L11.1021 10.983L13.5665 11.3411L11.7833 13.0794L12.2042 15.5338L10 14.3749L7.79585 15.5338L8.21681 13.0794L6.43358 11.3411L8.89796 10.983L10 8.74995ZM15 1.6666V4.1666L13.8639 5.11457C12.9421 4.63136 11.9188 4.31565 10.8343 4.20785L10.8334 1.66577L15 1.6666ZM9.16671 1.66577L9.16646 4.20777C8.08204 4.31547 7.05876 4.63107 6.13705 5.11414L5.00004 4.1666V1.6666L9.16671 1.66577Z" fill="#E3E3E3"/>
</svg>
