<svg width="20" height="20" viewBox="0 0 20 20" fill="none" xmlns="http://www.w3.org/2000/svg">
<path d="M18.3334 15.8333V17.5H16.6667V15.8333H3.33337V17.5H1.66671V15.8333C1.20647 15.8333 0.833374 15.4602 0.833374 15V5C0.833374 4.53977 1.20647 4.16667 1.66671 4.16667H10.4399C11.3554 3.14375 12.6859 2.5 14.1667 2.5C15.6475 2.5 16.978 3.14375 17.8935 4.16667H18.3334C18.7936 4.16667 19.1667 4.53977 19.1667 5V15C19.1667 15.4602 18.7936 15.8333 18.3334 15.8333ZM9.45121 5.83333H2.50004V14.1667H17.5V11.2268C16.6155 12.0186 15.4473 12.5 14.1667 12.5C11.4053 12.5 9.16671 10.2614 9.16671 7.5C9.16671 6.91561 9.26696 6.35463 9.45121 5.83333ZM14.1667 10.8333C16.0076 10.8333 17.5 9.34092 17.5 7.5C17.5 5.65905 16.0076 4.16667 14.1667 4.16667C12.3258 4.16667 10.8334 5.65905 10.8334 7.5C10.8334 9.34092 12.3258 10.8333 14.1667 10.8333ZM4.16671 10.8333H5.83337V12.5H4.16671V10.8333ZM6.66671 10.8333H8.33337V12.5H6.66671V10.8333Z" fill="#E3E3E3"/>
</svg>
