<svg width="20" height="20" viewBox="0 0 20 20" fill="none" xmlns="http://www.w3.org/2000/svg">
<path d="M10.0001 1.66663C14.6001 1.66663 18.3334 5.39996 18.3334 9.99996C18.3334 14.6 14.6001 18.3333 10.0001 18.3333C5.40008 18.3333 1.66675 14.6 1.66675 9.99996C1.66675 5.39996 5.40008 1.66663 10.0001 1.66663ZM10.0001 5.83329C7.70008 5.83329 5.83341 7.69996 5.83341 9.99996C5.83341 12.3 7.70008 14.1666 10.0001 14.1666C11.5163 14.1666 12.8442 13.3554 13.5732 12.1435L12.1442 11.2868C11.7071 12.0138 10.9106 12.5 10.0001 12.5C8.61883 12.5 7.50008 11.3812 7.50008 9.99996C7.50008 8.61871 8.61883 7.49996 10.0001 7.49996C10.911 7.49996 11.7077 7.98648 12.1447 8.71396L13.5732 7.85638C12.8442 6.64454 11.5163 5.83329 10.0001 5.83329Z" fill="#E3E3E3"/>
</svg>
