<svg width="20" height="20" viewBox="0 0 20 20" fill="none" xmlns="http://www.w3.org/2000/svg">
<path d="M9.99996 0.416626C15.2927 0.416626 19.5833 4.70723 19.5833 9.99996C19.5833 10.2807 19.5712 10.5586 19.5475 10.8333H18.2921C17.874 15.0444 14.321 18.3333 9.99996 18.3333C5.39758 18.3333 1.66663 14.6023 1.66663 9.99996C1.66663 5.67883 4.95553 2.12588 9.16662 1.70778V0.452356C9.44129 0.428699 9.71921 0.416626 9.99996 0.416626ZM9.16662 3.38487C5.87803 3.79495 3.33329 6.60028 3.33329 9.99996C3.33329 13.6819 6.31806 16.6666 9.99996 16.6666C13.3996 16.6666 16.205 14.1219 16.615 10.8333H9.16662V3.38487ZM10.8333 2.12663V9.16662H17.8733C17.4855 5.45993 14.54 2.51439 10.8333 2.12663Z" fill="#E3E3E3"/>
</svg>
