<svg width="20" height="20" viewBox="0 0 20 20" fill="none" xmlns="http://www.w3.org/2000/svg">
<path d="M16.6666 6.0316L10.0598 11.9483L3.33329 6.01328V15.8333H9.22571C9.30988 16.4217 9.48188 16.9819 9.72796 17.5H2.49996C2.03973 17.5 1.66663 17.1269 1.66663 16.6667V3.33333C1.66663 2.8731 2.03973 2.5 2.49996 2.5H17.5C17.9602 2.5 18.3333 2.8731 18.3333 3.33333V10.2122C17.83 9.86117 17.2686 9.58742 16.6666 9.40825V6.0316ZM16.2508 4.16667H3.75951L10.0515 9.71833L16.2508 4.16667ZM13.9221 17.2563C14.2485 17.4125 14.614 17.5 15 17.5C16.3807 17.5 17.5 16.3807 17.5 15C17.5 14.6141 17.4125 14.2485 17.2563 13.9222L13.9221 17.2563ZM12.7436 16.0778L16.0778 12.7437C15.7515 12.5875 15.3859 12.5 15 12.5C13.6192 12.5 12.5 13.6192 12.5 15C12.5 15.3859 12.5875 15.7515 12.7436 16.0778ZM15 19.1667C12.6988 19.1667 10.8333 17.3012 10.8333 15C10.8333 12.6988 12.6988 10.8333 15 10.8333C17.3011 10.8333 19.1666 12.6988 19.1666 15C19.1666 17.3012 17.3011 19.1667 15 19.1667Z" fill="#E3E3E3"/>
</svg>
