<svg width="20" height="20" viewBox="0 0 20 20" fill="none" xmlns="http://www.w3.org/2000/svg">
<path d="M18.3333 11.6667H16.6666V6.0316L10.0598 11.9483L3.33329 6.01328V15.8333H12.5V17.5H2.49996C2.03973 17.5 1.66663 17.1269 1.66663 16.6667V3.33333C1.66663 2.8731 2.03973 2.5 2.49996 2.5H17.5C17.9602 2.5 18.3333 2.8731 18.3333 3.33333V11.6667ZM3.75951 4.16667L10.0515 9.71833L16.2508 4.16667H3.75951ZM17.8451 15.8333L19.6129 17.6011L18.4344 18.7796L16.6666 17.0118L14.8989 18.7796L13.7204 17.6011L15.4881 15.8333L13.7204 14.0656L14.8989 12.8871L16.6666 14.6548L18.4344 12.8871L19.6129 14.0656L17.8451 15.8333Z" fill="#E3E3E3"/>
</svg>
