<svg width="20" height="20" viewBox="0 0 20 20" fill="none" xmlns="http://www.w3.org/2000/svg">
<path d="M10.4983 13.3333L7.8324 6.66667H6.16573L4.49907 10.8333L4.49825 10.835L3.4991 13.3333H5.29415L5.6274 12.5H8.36912L8.70246 13.3333H10.4983ZM6.29329 10.8333L6.99907 9.07092L7.70331 10.8333H6.29329ZM14.1666 6.66667H15.8333V13.3333H13.3333C11.9525 13.3333 10.8333 12.2141 10.8333 10.8333C10.8333 9.45258 11.9525 8.33333 13.3333 8.33333H14.1666V6.66667ZM13.3333 10C12.8731 10 12.5 10.3732 12.5 10.8333C12.5 11.2935 12.8731 11.6667 13.3333 11.6667H14.1666V10H13.3333ZM17.5 2.5H2.49996C2.03975 2.5 1.66663 2.87312 1.66663 3.33333V16.6667C1.66663 17.1268 2.03975 17.5 2.49996 17.5H17.5C17.9601 17.5 18.3333 17.1268 18.3333 16.6667V3.33333C18.3333 2.87312 17.9601 2.5 17.5 2.5ZM3.33329 15.8333V4.16667H16.6666V15.8333H3.33329Z" fill="#E3E3E3"/>
</svg>
