<svg width="20" height="20" viewBox="0 0 20 20" fill="none" xmlns="http://www.w3.org/2000/svg">
<path d="M7.50008 2.50004V0.833374H5.83341V2.50004H2.50008C2.03985 2.50004 1.66675 2.87314 1.66675 3.33337V16.6667C1.66675 17.127 2.03985 17.5 2.50008 17.5H17.5001C17.9603 17.5 18.3334 17.127 18.3334 16.6667V3.33337C18.3334 2.87314 17.9603 2.50004 17.5001 2.50004H14.1667V0.833374H12.5001V2.50004H7.50008ZM3.33341 8.33337H16.6667V15.8334H3.33341V8.33337ZM3.33341 4.16671H5.83341V5.00004H7.50008V4.16671H12.5001V5.00004H14.1667V4.16671H16.6667V6.66671H3.33341V4.16671ZM8.23226 9.13704L10.0001 10.9049L11.7677 9.13704L12.9463 10.3155L11.1786 12.0835L12.9462 13.851L11.7678 15.0295L10.0001 13.262L8.2322 15.0295L7.05376 13.851L8.8215 12.0835L7.05371 10.3155L8.23226 9.13704Z" fill="#E3E3E3"/>
</svg>
