<svg width="20" height="20" viewBox="0 0 20 20" fill="none" xmlns="http://www.w3.org/2000/svg">
<path d="M11.6666 5.83329C11.6666 6.7538 10.9205 7.49996 9.99996 7.49996C9.07946 7.49996 8.33329 6.7538 8.33329 5.83329C8.33329 4.91278 9.07946 4.16663 9.99996 4.16663C10.9205 4.16663 11.6666 4.91278 11.6666 5.83329ZM12.5 9.16662C12.5 8.70646 12.1268 8.33329 11.6666 8.33329H8.33329C7.87308 8.33329 7.49996 8.70646 7.49996 9.16662V12.5H8.74996V15.8333H11.25V12.5H12.5V9.16662ZM9.99996 1.66663C5.3976 1.66663 1.66663 5.3976 1.66663 9.99996C1.66663 14.6023 5.3976 18.3333 9.99996 18.3333C14.6023 18.3333 18.3333 14.6023 18.3333 9.99996C18.3333 5.3976 14.6023 1.66663 9.99996 1.66663ZM3.33329 9.99996C3.33329 6.31802 6.31802 3.33329 9.99996 3.33329C13.6819 3.33329 16.6666 6.31802 16.6666 9.99996C16.6666 13.6819 13.6819 16.6666 9.99996 16.6666C6.31802 16.6666 3.33329 13.6819 3.33329 9.99996Z" fill="#E3E3E3"/>
</svg>
