<svg width="20" height="20" viewBox="0 0 20 20" fill="none" xmlns="http://www.w3.org/2000/svg">
<path d="M9.88421 1.99214C10.7079 1.44303 11.778 1.43164 12.6131 1.96311L16.0758 4.16662H17.4998C17.96 4.16662 18.3331 4.53972 18.3331 4.99995V12.4999C18.3331 12.9602 17.96 13.3332 17.4998 13.3332H16.2334C16.283 14.1227 15.911 14.9252 15.1629 15.3741L10.9184 17.9208C10.3825 18.2422 9.71738 18.2347 9.19279 17.9145C8.60921 18.4306 7.71088 18.4874 7.05916 17.9753L2.77519 14.6093C2.13652 14.1076 1.97501 13.2502 2.30478 12.5706C1.90203 12.2547 1.66663 11.7712 1.66663 11.2591V5C1.66663 4.53977 2.03973 4.16667 2.49996 4.16667H6.6224L9.88421 1.99214ZM3.47716 11.371L4.05385 10.8664C5.07903 9.96933 6.63364 10.0582 7.54997 11.0662L9.80179 13.5432C10.5264 14.3402 10.6585 15.5112 10.1315 16.4492L14.3054 13.9449C14.5399 13.8042 14.6247 13.523 14.5373 13.2861L10.848 8.12126C10.6408 7.83113 10.272 7.70498 9.93046 7.80743L7.85942 8.42875C6.9785 8.693 6.02361 8.45225 5.37328 7.80196L5.12931 7.55798C4.65597 7.08464 4.53356 6.41098 4.73275 5.83333H3.33329V11.2591L3.47716 11.371ZM11.7184 3.36922C11.44 3.19206 11.0833 3.19585 10.8087 3.37889L6.30782 6.37948L6.55179 6.62345C6.76857 6.84023 7.08687 6.92047 7.38051 6.83238L9.45154 6.21106C10.476 5.90371 11.5826 6.28216 12.2043 7.15252L15.4286 11.6666H16.6665V5.83328H16.0758C15.7588 5.83328 15.4484 5.7429 15.181 5.57273L11.7184 3.36922ZM5.15136 12.1207L3.8049 13.2988L8.08887 16.6648L8.67546 15.6382C8.85463 15.3247 8.81146 14.9315 8.56854 14.6642L6.31673 12.1872C6.01129 11.8512 5.49308 11.8217 5.15136 12.1207Z" fill="#E3E3E3"/>
</svg>
