<svg width="20" height="20" viewBox="0 0 20 20" fill="none" xmlns="http://www.w3.org/2000/svg">
<path d="M17.2611 6.77347L17.0556 7.24487C16.9053 7.58997 16.428 7.58997 16.2775 7.24487L16.0721 6.77347C15.7059 5.93293 15.0462 5.26372 14.223 4.89761L13.59 4.61606C13.2477 4.46382 13.2477 3.96572 13.59 3.81347L14.1876 3.54766C15.032 3.17213 15.7035 2.47815 16.0634 1.60907L16.2744 1.09965C16.4215 0.744615 16.9118 0.744615 17.0588 1.09965L17.2698 1.60907C17.6298 2.47815 18.3013 3.17213 19.1456 3.54766L19.7432 3.81347C20.0855 3.96572 20.0855 4.46382 19.7432 4.61606L19.1102 4.89761C18.287 5.26372 17.6274 5.93293 17.2611 6.77347ZM18.3333 16.6667V8.88221C17.812 9.06646 17.251 9.16671 16.6666 9.16671C15.7559 9.16671 14.902 8.92321 14.1666 8.49779V14.1667H12.5V8.33337H13.9018C12.5545 7.43761 11.6666 5.90585 11.6666 4.16671C11.6666 3.58232 11.7669 3.02134 11.9511 2.50004H2.49996C2.03973 2.50004 1.66663 2.87314 1.66663 3.33337V16.6667C1.66663 17.127 2.03973 17.5 2.49996 17.5H17.5C17.9602 17.5 18.3333 17.127 18.3333 16.6667ZM5.83329 10.8334H7.49996V14.1667H5.83329V10.8334ZM9.16663 5.83337H10.8333V14.1667H9.16663V5.83337Z" fill="#E3E3E3"/>
</svg>
