<svg width="20" height="20" viewBox="0 0 20 20" fill="none" xmlns="http://www.w3.org/2000/svg">
<path d="M5.83329 2.50004V0.833374H7.49996V2.50004H12.5V0.833374H14.1666V2.50004H17.5C17.9602 2.50004 18.3333 2.87314 18.3333 3.33337V7.50004H16.6666V4.16671H14.1666V5.83337H12.5V4.16671H7.49996V5.83337H5.83329V4.16671H3.33329V15.8334H8.33329V17.5H2.49996C2.03973 17.5 1.66663 17.127 1.66663 16.6667V3.33337C1.66663 2.87314 2.03973 2.50004 2.49996 2.50004H5.83329ZM14.1666 10C12.3257 10 10.8333 11.4925 10.8333 13.3334C10.8333 15.1743 12.3257 16.6667 14.1666 16.6667C16.0075 16.6667 17.5 15.1743 17.5 13.3334C17.5 11.4925 16.0075 10 14.1666 10ZM9.16663 13.3334C9.16663 10.572 11.4052 8.33337 14.1666 8.33337C16.928 8.33337 19.1666 10.572 19.1666 13.3334C19.1666 16.0948 16.928 18.3334 14.1666 18.3334C11.4052 18.3334 9.16663 16.0948 9.16663 13.3334ZM13.3333 10.8334V13.6785L15.244 15.5893L16.4225 14.4108L15 12.9882V10.8334H13.3333Z" fill="#E3E3E3"/>
</svg>
