<svg width="20" height="20" viewBox="0 0 20 20" fill="none" xmlns="http://www.w3.org/2000/svg">
<path d="M1.66675 18.3333L6.07606 17.3535C7.24541 17.9788 8.58133 18.3333 10.0001 18.3333C14.6024 18.3333 18.3334 14.6023 18.3334 9.99996C18.3334 5.39758 14.6024 1.66663 10.0001 1.66663C5.39771 1.66663 1.66675 5.39758 1.66675 9.99996C1.66675 11.4187 2.02128 12.7546 2.64659 13.924L1.66675 18.3333ZM6.86198 15.8837L6.31737 15.5925L3.86188 16.1381L4.40755 13.6826L4.11632 13.138C3.60466 12.1812 3.33341 11.112 3.33341 9.99996C3.33341 6.31806 6.31818 3.33329 10.0001 3.33329C13.682 3.33329 16.6667 6.31806 16.6667 9.99996C16.6667 13.6819 13.682 16.6666 10.0001 16.6666C8.888 16.6666 7.81881 16.3954 6.86198 15.8837ZM12.874 5.83329H11.201L11.0552 7.50016H9.38208L9.52791 5.83329H7.85489L7.70905 7.50016H5.83341V9.16679H7.56325L7.41743 10.8335H5.83341V12.5001H7.27161L7.12582 14.1666H8.79883L8.94466 12.5001H10.6177L10.4719 14.1666H12.1449L12.2907 12.5001H14.1667V10.8335H12.4365L12.5823 9.16679H14.1667V7.50016H12.7282L12.874 5.83329ZM9.23625 9.16679H10.9093L10.7635 10.8335H9.0905L9.23625 9.16679Z" fill="#E3E3E3"/>
</svg>
