<svg width="20" height="20" viewBox="0 0 20 20" fill="none" xmlns="http://www.w3.org/2000/svg">
<g clip-path="url(#clip0_1503_1350)">
<path d="M17.2612 6.77347L17.0558 7.24487C16.9054 7.58997 16.4281 7.58997 16.2777 7.24487L16.0722 6.77347C15.706 5.93293 15.0463 5.26372 14.2232 4.89761L13.5901 4.61606C13.2478 4.46382 13.2478 3.96572 13.5901 3.81347L14.1877 3.54766C15.0321 3.17213 15.7036 2.47815 16.0635 1.60907L16.2745 1.09965C16.4216 0.744615 16.9119 0.744615 17.0589 1.09965L17.2699 1.60907C17.6299 2.47815 18.3014 3.17213 19.1458 3.54766L19.7433 3.81347C20.0857 3.96572 20.0857 4.46382 19.7433 4.61606L19.1103 4.89761C18.2872 5.26372 17.6275 5.93293 17.2612 6.77347ZM16.6667 9.16671C17.2247 9.16671 17.7612 9.07529 18.2623 8.90671C18.3092 9.26454 18.3334 9.62946 18.3334 10C18.3334 14.6024 14.6024 18.3334 10.0001 18.3334C8.58133 18.3334 7.24542 17.9789 6.07606 17.3535L1.66675 18.3334L2.64659 13.924C2.02128 12.7547 1.66675 11.4188 1.66675 10C1.66675 5.39767 5.39771 1.66671 10.0001 1.66671C10.7547 1.66671 11.486 1.76703 12.1812 1.95507C11.8518 2.62185 11.6667 3.37267 11.6667 4.16671C11.6667 6.92813 13.9053 9.16671 16.6667 9.16671ZM5.83342 10C5.83342 12.3012 7.6989 14.1667 10.0001 14.1667C12.3012 14.1667 14.1667 12.3012 14.1667 10H12.5001C12.5001 11.3808 11.3808 12.5 10.0001 12.5C8.61933 12.5 7.50008 11.3808 7.50008 10H5.83342Z" fill="#E3E3E3"/>
</g>
<defs>
<clipPath id="clip0_1503_1350">
<rect width="20" height="20" fill="white"/>
</clipPath>
</defs>
</svg>
