<svg width="20" height="20" viewBox="0 0 20 20" fill="none" xmlns="http://www.w3.org/2000/svg">
<path d="M12.0417 15.8333L10.0001 18.75L7.95841 15.8333H2.50008C2.27906 15.8333 2.06711 15.7455 1.91082 15.5892C1.75455 15.433 1.66675 15.221 1.66675 15V3.33333C1.66675 3.11232 1.75455 2.90036 1.91082 2.74408C2.06711 2.5878 2.27906 2.5 2.50008 2.5H17.5001C17.7211 2.5 17.9331 2.5878 18.0893 2.74408C18.2456 2.90036 18.3334 3.11232 18.3334 3.33333V15C18.3334 15.221 18.2456 15.433 18.0893 15.5892C17.9331 15.7455 17.7211 15.8333 17.5001 15.8333H12.0417ZM11.1742 14.1667H16.6667V4.16667H3.33341V14.1667H8.82591L10.0001 15.8433L11.1742 14.1667Z" fill="#E3E3E3"/>
</svg>
