<svg width="20" height="20" viewBox="0 0 20 20" fill="none" xmlns="http://www.w3.org/2000/svg">
<path d="M1.66675 7.49478C1.66675 4.73624 3.8972 2.5 6.6673 2.5H13.3328C16.0946 2.5 18.3334 4.74565 18.3334 7.49478V17.5H6.6673C3.90557 17.5 1.66675 15.2543 1.66675 12.5052V7.49478ZM16.6667 15.8333V7.49478C16.6667 5.66283 15.1708 4.16667 13.3328 4.16667H6.6673C4.82056 4.16667 3.33341 5.65382 3.33341 7.49478V12.5052C3.33341 14.3372 4.82935 15.8333 6.6673 15.8333H16.6667ZM11.6667 9.16667H13.3334V10.8333H11.6667V9.16667ZM6.66675 9.16667H8.33341V10.8333H6.66675V9.16667Z" fill="#E3E3E3"/>
</svg>
