<svg width="20" height="20" viewBox="0 0 20 20" fill="none" xmlns="http://www.w3.org/2000/svg">
<g clip-path="url(#clip0_1503_1358)">
<path d="M17.5001 5.83337C18.8808 5.83337 20.0001 4.71408 20.0001 3.33337C20.0001 1.95267 18.8808 0.833374 17.5001 0.833374C16.1193 0.833374 15.0001 1.95267 15.0001 3.33337C15.0001 4.71408 16.1193 5.83337 17.5001 5.83337ZM18.3334 15V7.41669C18.0642 7.47135 17.7855 7.50004 17.5001 7.50004C17.2147 7.50004 16.936 7.47135 16.6667 7.41669V14.1667H4.80243L3.33341 15.321V4.16671H13.4167C13.3621 3.89745 13.3334 3.61877 13.3334 3.33337C13.3334 3.04798 13.3621 2.7693 13.4167 2.50004H2.50008C2.03985 2.50004 1.66675 2.87314 1.66675 3.33337V18.75L5.37887 15.8334H17.5001C17.9603 15.8334 18.3334 15.4603 18.3334 15Z" fill="#E3E3E3"/>
</g>
<defs>
<clipPath id="clip0_1503_1358">
<rect width="20" height="20" fill="white"/>
</clipPath>
</defs>
</svg>
