<svg width="20" height="20" viewBox="0 0 20 20" fill="none" xmlns="http://www.w3.org/2000/svg">
<path d="M7.49992 1.66663C10.8895 1.66663 13.6883 4.19631 14.1113 7.47074L15.9868 10.4197C16.1103 10.6139 16.0853 10.9039 15.7993 11.0264L14.1666 11.7258V14.1666C14.1666 15.0871 13.4204 15.8333 12.4999 15.8333H10.8341L10.8333 18.3333H3.33325L3.33346 15.255C3.33353 14.271 2.96951 13.3405 2.29617 12.5009C1.38081 11.3594 0.833252 9.91029 0.833252 8.33329C0.833252 4.65139 3.81802 1.66663 7.49992 1.66663ZM17.6278 15.0853L16.241 14.1607C17.0363 12.9701 17.4999 11.5392 17.4999 10C17.4999 8.46079 17.0363 7.02987 16.241 5.83931L17.6278 4.91472C18.5999 6.36984 19.1666 8.11874 19.1666 10C19.1666 11.8813 18.5999 13.6301 17.6278 15.0853Z" fill="#E3E3E3"/>
</svg>
