<svg width="20" height="20" viewBox="0 0 20 20" fill="none" xmlns="http://www.w3.org/2000/svg">
<path d="M4.80243 14.1667H10.9026C10.8571 14.4377 10.8334 14.7161 10.8334 15C10.8334 15.2839 10.8571 15.5623 10.9026 15.8333H5.37887L1.66675 18.75V3.33333C1.66675 2.8731 2.03985 2.5 2.50008 2.5H17.5001C17.9603 2.5 18.3334 2.8731 18.3334 3.33333V10.6689C17.8272 10.3761 17.265 10.1695 16.6667 10.0692V4.16667H3.33341V15.3209L4.80243 14.1667ZM19.9582 17.9462L18.7052 16.6933C18.9985 16.1971 19.1667 15.6182 19.1667 15C19.1667 13.1591 17.6743 11.6667 15.8334 11.6667C13.9925 11.6667 12.5001 13.1591 12.5001 15C12.5001 16.8409 13.9925 18.3333 15.8334 18.3333C16.4516 18.3333 17.0305 18.1651 17.5267 17.8718L18.7797 19.1247L19.9582 17.9462ZM17.5001 15C17.5001 15.9205 16.7539 16.6667 15.8334 16.6667C14.9129 16.6667 14.1667 15.9205 14.1667 15C14.1667 14.0795 14.9129 13.3333 15.8334 13.3333C16.7539 13.3333 17.5001 14.0795 17.5001 15Z" fill="#E3E3E3"/>
</svg>
