<svg width="20" height="20" viewBox="0 0 20 20" fill="none" xmlns="http://www.w3.org/2000/svg">
<path d="M5.37887 15.8333L1.66675 18.75V3.33333C1.66675 2.8731 2.03985 2.5 2.50008 2.5H17.5001C17.9603 2.5 18.3334 2.8731 18.3334 3.33333V15C18.3334 15.4602 17.9603 15.8333 17.5001 15.8333H5.37887ZM4.80243 14.1667H16.6667V4.16667H3.33341V15.3209L4.80243 14.1667ZM5.83341 8.33333H7.50008C7.50008 9.71408 8.61933 10.8333 10.0001 10.8333C11.3808 10.8333 12.5001 9.71408 12.5001 8.33333H14.1667C14.1667 10.6345 12.3012 12.5 10.0001 12.5C7.6989 12.5 5.83341 10.6345 5.83341 8.33333Z" fill="#E3E3E3"/>
</svg>
