<svg width="20" height="20" viewBox="0 0 20 20" fill="none" xmlns="http://www.w3.org/2000/svg">
<path d="M5.37887 15.8333L1.66675 18.75V3.33333C1.66675 2.8731 2.03985 2.5 2.50008 2.5H17.5001C17.9603 2.5 18.3334 2.8731 18.3334 3.33333V15C18.3334 15.4602 17.9603 15.8333 17.5001 15.8333H5.37887ZM9.16675 11.6667V13.3333H10.8334V11.6667H9.16675ZM7.13951 7.34455L8.77408 7.67147C8.88808 7.09852 9.39366 6.66667 10.0001 6.66667C10.6904 6.66667 11.2501 7.22631 11.2501 7.91667C11.2501 8.607 10.6904 9.16667 10.0001 9.16667H9.16675V10.8333H10.0001C11.6109 10.8333 12.9167 9.5275 12.9167 7.91667C12.9167 6.30583 11.6109 5 10.0001 5C8.58508 5 7.40539 6.00766 7.13951 7.34455Z" fill="#E3E3E3"/>
</svg>
