<svg width="20" height="20" viewBox="0 0 20 20" fill="none" xmlns="http://www.w3.org/2000/svg">
<path d="M17.5001 2.5C17.9603 2.5 18.3334 2.8731 18.3334 3.33333V15C18.3334 15.4602 17.9603 15.8333 17.5001 15.8333H5.37925L1.66675 18.75V3.33333C1.66675 2.8731 2.03985 2.5 2.50008 2.5H17.5001ZM16.6667 4.16667H3.33341V15.3208L4.80286 14.1667H16.6667V4.16667ZM8.76283 6.17633L9.13475 6.75033C7.7451 7.50225 7.76939 8.70992 7.76939 8.97042C7.89864 8.95258 8.03431 8.95025 8.16871 8.96275C8.9205 9.03242 9.51308 9.64958 9.51308 10.4167C9.51308 11.2221 8.86016 11.875 8.05473 11.875C7.60762 11.875 7.18006 11.6707 6.90984 11.3837C6.48056 10.9281 6.25008 10.4167 6.25008 9.58767C6.25008 8.12953 7.27362 6.82237 8.76283 6.17633ZM12.9295 6.17633L13.3014 6.75033C11.9117 7.50225 11.9361 8.70992 11.9361 8.97042C12.0653 8.95258 12.201 8.95025 12.3354 8.96275C13.0872 9.03242 13.6797 9.64958 13.6797 10.4167C13.6797 11.2221 13.0268 11.875 12.2214 11.875C11.7743 11.875 11.3467 11.6707 11.0765 11.3837C10.6472 10.9281 10.4167 10.4167 10.4167 9.58767C10.4167 8.12953 11.4403 6.82237 12.9295 6.17633Z" fill="#E3E3E3"/>
</svg>
