<svg width="20" height="20" viewBox="0 0 20 20" fill="none" xmlns="http://www.w3.org/2000/svg">
<path d="M10.0001 1.66663C14.6024 1.66663 18.3334 5.39758 18.3334 9.99996C18.3334 14.6023 14.6024 18.3333 10.0001 18.3333C8.58175 18.3333 7.24612 17.979 6.07699 17.354L1.66675 18.3333L2.64699 13.9247C2.02143 12.7552 1.66675 11.419 1.66675 9.99996C1.66675 5.39758 5.39771 1.66663 10.0001 1.66663ZM10.0001 5.83329C8.66866 5.83329 7.50008 6.94996 7.50008 8.33329V9.16662H6.66675V13.3333H13.3334V9.16662H12.5001V8.33329C12.5001 6.95258 11.3808 5.83329 10.0001 5.83329ZM11.6667 10.8333V11.6666H8.33341V10.8333H11.6667ZM10.0001 7.49996C10.3969 7.49996 10.8334 7.90829 10.8334 8.33329V9.16662H9.16675V8.33329C9.16675 7.90829 9.57275 7.49996 10.0001 7.49996Z" fill="#E3E3E3"/>
</svg>
