<svg width="20" height="20" viewBox="0 0 20 20" fill="none" xmlns="http://www.w3.org/2000/svg">
<path d="M1.66675 9.99996C1.66675 5.39758 5.39771 1.66663 10.0001 1.66663C14.6024 1.66663 18.3334 5.39758 18.3334 9.99996C18.3334 14.6023 14.6024 18.3333 10.0001 18.3333H1.66675L4.10752 15.8925C2.59949 14.3845 1.66675 12.3011 1.66675 9.99996ZM5.69044 16.6666H10.0001C13.682 16.6666 16.6667 13.6819 16.6667 9.99996C16.6667 6.31806 13.682 3.33329 10.0001 3.33329C6.31818 3.33329 3.33341 6.31806 3.33341 9.99996C3.33341 11.7936 4.04278 13.4707 5.28604 14.714L6.46455 15.8925L5.69044 16.6666ZM9.16675 4.99996H10.8334V15H9.16675V4.99996ZM5.83341 7.49996H7.50008V12.5H5.83341V7.49996ZM12.5001 7.49996H14.1667V12.5H12.5001V7.49996Z" fill="#E3E3E3"/>
</svg>
