<svg width="20" height="20" viewBox="0 0 20 20" fill="none" xmlns="http://www.w3.org/2000/svg">
<path d="M18.3334 10H16.6667V4.16667H3.33341V15.3209L4.80243 14.1667H10.0001V15.8333H5.37887L1.66675 18.75V3.33333C1.66675 2.8731 2.03985 2.5 2.50008 2.5H17.5001C17.9603 2.5 18.3334 2.8731 18.3334 3.33333V10ZM11.7876 15.8925C11.7088 15.6084 11.6667 15.3092 11.6667 15C11.6667 14.6908 11.7088 14.3916 11.7876 14.1075L10.975 13.6383L11.8083 12.195L12.6217 12.6646C13.0397 12.2389 13.571 11.925 14.1667 11.7717V10.8333H15.8334V11.7717C16.4292 11.925 16.9605 12.2389 17.3785 12.6646L18.1918 12.195L19.0252 13.6383L18.2126 14.1075C18.2913 14.3916 18.3334 14.6908 18.3334 15C18.3334 15.3092 18.2913 15.6084 18.2126 15.8925L19.0252 16.3617L18.1918 17.805L17.3785 17.3354C16.9605 17.7611 16.4292 18.075 15.8334 18.2283V19.1667H14.1667V18.2283C13.571 18.075 13.0397 17.7611 12.6217 17.3354L11.8083 17.805L10.975 16.3617L11.7876 15.8925ZM15.0001 16.6667C15.9206 16.6667 16.6667 15.9205 16.6667 15C16.6667 14.0795 15.9206 13.3333 15.0001 13.3333C14.0796 13.3333 13.3334 14.0795 13.3334 15C13.3334 15.9205 14.0796 16.6667 15.0001 16.6667Z" fill="#E3E3E3"/>
</svg>
