<svg width="20" height="20" viewBox="0 0 20 20" fill="none" xmlns="http://www.w3.org/2000/svg">
<path d="M11.6666 18.75L9.33325 15.8333H4.99992C4.53969 15.8333 4.16659 15.4602 4.16659 15V5.91876C4.16659 5.45853 4.53969 5.08543 4.99992 5.08543H18.3333C18.7935 5.08543 19.1666 5.45853 19.1666 5.91876V15C19.1666 15.4602 18.7935 15.8333 18.3333 15.8333H13.9999L11.6666 18.75ZM13.1988 14.1666H17.4999V6.75209H5.83325V14.1666H9.33325H10.1343L11.6666 16.082L13.1988 14.1666ZM1.66659 1.66663H15.8333V3.33329H2.49992V12.5H0.833252V2.49996C0.833252 2.03973 1.20635 1.66663 1.66659 1.66663Z" fill="#E3E3E3"/>
</svg>
