<svg width="20" height="20" viewBox="0 0 20 20" fill="none" xmlns="http://www.w3.org/2000/svg">
<path d="M4.80243 14.1667H16.6667V4.16667H3.33341V15.3209L4.80243 14.1667ZM5.37887 15.8333L1.66675 18.75V3.33333C1.66675 2.8731 2.03985 2.5 2.50008 2.5H17.5001C17.9603 2.5 18.3334 2.8731 18.3334 3.33333V15C18.3334 15.4602 17.9603 15.8333 17.5001 15.8333H5.37887ZM9.16675 11.6667H10.8334V13.3333H9.16675V11.6667ZM7.13951 7.34455C7.40539 6.00766 8.58508 5 10.0001 5C11.6109 5 12.9167 6.30583 12.9167 7.91667C12.9167 9.5275 11.6109 10.8333 10.0001 10.8333H9.16675V9.16667H10.0001C10.6904 9.16667 11.2501 8.607 11.2501 7.91667C11.2501 7.22631 10.6904 6.66667 10.0001 6.66667C9.39366 6.66667 8.88808 7.09852 8.77408 7.67147L7.13951 7.34455Z" fill="#E3E3E3"/>
</svg>
