<svg width="20" height="20" viewBox="0 0 20 20" fill="none" xmlns="http://www.w3.org/2000/svg">
<path d="M17.5001 2.5C17.9603 2.5 18.3334 2.8731 18.3334 3.33333V15C18.3334 15.4602 17.9603 15.8333 17.5001 15.8333H5.37925L1.66675 18.75V3.33333C1.66675 2.8731 2.03985 2.5 2.50008 2.5H17.5001ZM16.6667 4.16667H3.33341V15.3208L4.80286 14.1667H16.6667V4.16667ZM14.1667 5.83333V12.5H12.5001V5.83333H14.1667ZM9.16675 6.66667V8.3325L10.8334 8.33333V10L9.16675 9.99917V11.6667H7.50008V9.99917L5.83341 10V8.33333L7.50008 8.3325V6.66667H9.16675Z" fill="#E3E3E3"/>
</svg>
