<svg width="20" height="20" viewBox="0 0 20 20" fill="none" xmlns="http://www.w3.org/2000/svg">
<path d="M14.1113 7.47074C13.6883 4.19631 10.8895 1.66663 7.49992 1.66663C3.81802 1.66663 0.833252 4.65139 0.833252 8.33329C0.833252 9.91029 1.38081 11.3594 2.29617 12.5009C2.96951 13.3405 3.33353 14.271 3.33346 15.255L3.33325 18.3333H10.8333L10.8341 15.8333H12.4999C13.4204 15.8333 14.1666 15.0871 14.1666 14.1666V11.7258L15.7993 11.0264C16.0853 10.9039 16.1103 10.6139 15.9868 10.4197L14.1113 7.47074ZM2.49992 8.33329C2.49992 5.57187 4.73849 3.33329 7.49992 3.33329C10.0202 3.33329 12.1387 5.20947 12.4583 7.68428L12.5059 8.05214L13.7913 10.0734L12.4999 10.6265V14.1666H9.168L9.16717 16.6666H5.00003L5.00013 15.2552C5.00022 13.8893 4.50796 12.595 3.5964 11.4582C2.89007 10.5774 2.49992 9.48737 2.49992 8.33329ZM17.6278 15.0853L16.241 14.1607C17.0363 12.9701 17.4999 11.5392 17.4999 10C17.4999 8.46079 17.0363 7.02987 16.241 5.83931L17.6278 4.91472C18.5999 6.36984 19.1666 8.11874 19.1666 10C19.1666 11.8813 18.5999 13.6301 17.6278 15.0853Z" fill="#E3E3E3"/>
</svg>
