<svg width="20" height="20" viewBox="0 0 20 20" fill="none" xmlns="http://www.w3.org/2000/svg">
<path d="M17.2611 5.94009L17.0556 6.41149C16.9053 6.7566 16.4279 6.7566 16.2775 6.41149L16.0721 5.94009C15.7058 5.09956 15.0462 4.43034 14.223 4.06423L13.5899 3.78268C13.2477 3.63044 13.2477 3.13234 13.5899 2.9801L14.1876 2.71428C15.0319 2.33876 15.7034 1.64477 16.0633 0.77569L16.2743 0.266278C16.4214 -0.0887594 16.9117 -0.0887594 17.0588 0.266278L17.2698 0.77569C17.6297 1.64477 18.3012 2.33876 19.1456 2.71428L19.7432 2.9801C20.0855 3.13234 20.0855 3.63044 19.7432 3.78268L19.1102 4.06423C18.287 4.43034 17.6273 5.09956 17.2611 5.94009ZM7.49992 1.66667C10.8895 1.66667 13.6883 4.19635 14.1113 7.47078L15.9867 10.4198C16.1102 10.6139 16.0853 10.9039 15.7993 11.0264L14.1666 11.7258V14.1667C14.1666 15.0872 13.4204 15.8333 12.4999 15.8333H10.8341L10.8333 18.3333H3.33325L3.33346 15.2551C3.33353 14.271 2.96951 13.3406 2.29617 12.5009C1.38081 11.3594 0.833252 9.91033 0.833252 8.33333C0.833252 4.65143 3.81802 1.66667 7.49992 1.66667ZM17.6278 15.0853L16.241 14.1608C17.0362 12.9702 17.4999 11.5393 17.4999 10.0001C17.4999 9.57417 17.4644 9.1565 17.3962 8.75L19.0154 8.33333C19.1147 8.87383 19.1666 9.43083 19.1666 10.0001C19.1666 11.8813 18.5999 13.6302 17.6278 15.0853Z" fill="#E3E3E3"/>
</svg>
