<svg width="20" height="20" viewBox="0 0 20 20" fill="none" xmlns="http://www.w3.org/2000/svg">
<g clip-path="url(#clip0_1503_1364)">
<path d="M17.2612 6.77347L17.0558 7.24487C16.9054 7.58997 16.4281 7.58997 16.2777 7.24487L16.0722 6.77347C15.706 5.93293 15.0463 5.26372 14.2232 4.89761L13.5901 4.61606C13.2478 4.46382 13.2478 3.96572 13.5901 3.81347L14.1877 3.54766C15.0321 3.17213 15.7036 2.47815 16.0635 1.60907L16.2745 1.09965C16.4216 0.744615 16.9119 0.744615 17.0589 1.09965L17.2699 1.60907C17.6299 2.47815 18.3014 3.17213 19.1458 3.54766L19.7433 3.81347C20.0857 3.96572 20.0857 4.46382 19.7433 4.61606L19.1103 4.89761C18.2872 5.26372 17.6275 5.93293 17.2612 6.77347ZM10.0001 1.66671C5.39771 1.66671 1.66675 5.39767 1.66675 10C1.66675 12.3012 2.59949 14.3845 4.10752 15.8926L1.66675 18.3334H10.0001C14.6024 18.3334 18.3334 14.6024 18.3334 10C18.3334 9.66462 18.3136 9.33354 18.2749 9.00787L16.6198 9.20438C16.6508 9.46496 16.6667 9.73046 16.6667 10C16.6667 13.682 13.682 16.6667 10.0001 16.6667H5.69044L6.46455 15.8926L5.28604 14.7141C4.04278 13.4708 3.33341 11.7937 3.33341 10C3.33341 6.31814 6.31818 3.33337 10.0001 3.33337C10.5767 3.33337 11.1349 3.40637 11.6667 3.5432L12.082 1.9291C11.4157 1.75766 10.7179 1.66671 10.0001 1.66671ZM7.50008 7.50004H5.83342V12.5H7.50008V7.50004ZM14.1667 7.50004H12.5001V12.5H14.1667V7.50004ZM10.8334 5.00004H9.16675V15H10.8334V5.00004Z" fill="#E3E3E3"/>
</g>
<defs>
<clipPath id="clip0_1503_1364">
<rect width="20" height="20" fill="white"/>
</clipPath>
</defs>
</svg>
