<svg width="20" height="20" viewBox="0 0 20 20" fill="none" xmlns="http://www.w3.org/2000/svg">
<path d="M5.37887 15.8333L1.66675 18.75V3.33333C1.66675 2.8731 2.03985 2.5 2.50008 2.5H17.5001C17.9603 2.5 18.3334 2.8731 18.3334 3.33333V15C18.3334 15.4602 17.9603 15.8333 17.5001 15.8333H5.37887ZM6.78757 10.0592L5.97497 10.5283L6.80831 11.9717L7.62166 11.5021C8.03963 11.9277 8.571 12.2417 9.16675 12.395V13.3333H10.8334V12.395C11.4292 12.2417 11.9605 11.9277 12.3785 11.5021L13.1918 11.9717L14.0252 10.5283L13.2126 10.0592C13.2913 9.77508 13.3334 9.47583 13.3334 9.16667C13.3334 8.8575 13.2913 8.55825 13.2126 8.27418L14.0252 7.80502L13.1918 6.36164L12.3785 6.83123C11.9605 6.40562 11.4292 6.09169 10.8334 5.93835V5H9.16675V5.93835C8.571 6.09169 8.03963 6.40562 7.62166 6.83123L6.80831 6.36164L5.97497 7.80502L6.78757 8.27418C6.70883 8.55825 6.66675 8.8575 6.66675 9.16667C6.66675 9.47583 6.70883 9.77508 6.78757 10.0592ZM10.0001 10.8333C9.07958 10.8333 8.33341 10.0872 8.33341 9.16667C8.33341 8.24619 9.07958 7.5 10.0001 7.5C10.9206 7.5 11.6667 8.24619 11.6667 9.16667C11.6667 10.0872 10.9206 10.8333 10.0001 10.8333Z" fill="#E3E3E3"/>
</svg>
