<svg width="20" height="20" viewBox="0 0 20 20" fill="none" xmlns="http://www.w3.org/2000/svg">
<path d="M6.66675 16.6639V12.4973H8.33341V16.6639H15.8334V10.8306H4.16675V16.6639H6.66675ZM3.33341 9.16394H16.6667V6.66394H11.6667V3.33061H8.33341V6.66394H3.33341V9.16394ZM2.50008 17.4973V10.8306H1.66675V5.83061C1.66675 5.37037 2.03985 4.99727 2.50008 4.99727H6.66675V2.49727C6.66675 2.03704 7.03985 1.66394 7.50008 1.66394H12.5001C12.9603 1.66394 13.3334 2.03704 13.3334 2.49727V4.99727H17.5001C17.9603 4.99727 18.3334 5.37037 18.3334 5.83061V10.8306H17.5001V17.4973C17.5001 17.9575 17.127 18.3306 16.6667 18.3306H3.33341C2.87318 18.3306 2.50008 17.9575 2.50008 17.4973Z" fill="#E3E3E3"/>
</svg>
