<svg width="20" height="20" viewBox="0 0 20 20" fill="none" xmlns="http://www.w3.org/2000/svg">
<path d="M7.50008 15V5.00004H5.00008V15H7.50008ZM4.16675 16.6667C3.70651 16.6667 3.33341 16.2936 3.33341 15.8334V10.8334H1.66675V9.16671H3.33341V4.16671C3.33341 3.70647 3.70651 3.33337 4.16675 3.33337H8.33341C8.79366 3.33337 9.16675 3.70647 9.16675 4.16671V9.16671H10.8334V5.83337C10.8334 5.37313 11.2065 5.00004 11.6667 5.00004H15.8334C16.2937 5.00004 16.6667 5.37314 16.6667 5.83337V9.16671H18.3334V10.8334H16.6667V14.1667C16.6667 14.627 16.2937 15 15.8334 15H11.6667C11.2065 15 10.8334 14.627 10.8334 14.1667V10.8334H9.16675V15.8334C9.16675 16.2936 8.79366 16.6667 8.33341 16.6667H4.16675ZM12.5001 13.3334H15.0001V6.66671H12.5001V13.3334Z" fill="#E3E3E3"/>
</svg>
