<svg width="20" height="20" viewBox="0 0 20 20" fill="none" xmlns="http://www.w3.org/2000/svg">
<g clip-path="url(#clip0_1503_1490)">
<path d="M5.00611 6.08109C5.0021 5.99901 5.00007 5.91642 5.00007 5.83337C5.00007 3.07195 7.23864 0.833375 10.0001 0.833375C11.1248 0.833375 12.1648 1.20568 13.0006 1.83343L11.9996 3.16604C11.4426 2.74764 10.7514 2.50004 10.0001 2.50004C9.77 2.50004 9.54525 2.52336 9.32825 2.56777C7.80935 2.87859 6.66675 4.22255 6.66675 5.83337C6.66675 7.52761 7.93074 8.92662 9.56717 9.13887C10.42 7.96543 11.7126 7.2574 13.0801 7.11092C13.6498 7.0499 14.2328 7.08656 14.803 7.22711C15.2506 7.33738 15.6901 7.51174 16.1084 7.75329C18.4999 9.13404 19.3193 12.192 17.9386 14.5834C16.5578 16.9749 13.4999 17.7943 11.1084 16.4135C10.6901 16.172 10.3194 15.8786 10.0001 15.5462C9.68083 15.8786 9.31008 16.172 8.89167 16.4136C6.50024 17.7943 3.44229 16.975 2.06157 14.5835C0.680866 12.192 1.50024 9.13404 3.89171 7.75335C4.31002 7.51184 4.74941 7.33749 5.19694 7.22722C5.09407 6.87209 5.02951 6.5007 5.00804 6.11779L5.00611 6.08109ZM5.95824 8.77737C5.53641 8.83246 5.1179 8.96987 4.72504 9.19671C3.13073 10.1172 2.58448 12.1559 3.50496 13.7501C4.42543 15.3445 6.46407 15.8907 8.05837 14.9702C8.58517 14.6661 8.99583 14.2417 9.27817 13.752C9.78583 12.8715 9.87775 11.7826 9.47083 10.8058C9.15067 10.772 8.83942 10.7081 8.54017 10.6169C8.50242 10.6054 8.46483 10.5934 8.42742 10.581C7.42707 10.2498 6.56673 9.61129 5.95824 8.77737ZM10.962 14.112C11.2207 14.4497 11.5489 14.7434 11.9418 14.9702C13.5361 15.8906 15.5747 15.3444 16.4952 13.75C16.9114 13.0292 17.0278 12.2175 16.8828 11.4593C16.7074 10.5407 16.1485 9.70079 15.2751 9.19646C14.7483 8.89237 14.1754 8.74887 13.6103 8.74921C12.5938 8.74987 11.605 9.21471 10.9624 10.0555C11.0552 10.2638 11.1324 10.4756 11.1948 10.6898C11.2313 10.8155 11.2627 10.9419 11.289 11.0688C11.3003 11.1232 11.3106 11.1776 11.32 11.2322C11.4893 12.214 11.3582 13.2176 10.962 14.112ZM15.4813 5.83337C15.7218 6.11172 15.9218 6.42813 16.0723 6.77347L16.2777 7.24487C16.4281 7.58997 16.9054 7.58997 17.0558 7.24487L17.2613 6.77347C17.6275 5.93293 18.2872 5.26372 19.1103 4.89761L19.7433 4.61606C20.0857 4.46382 20.0857 3.96572 19.7433 3.81347L19.1458 3.54766C18.3014 3.17213 17.6299 2.47815 17.2699 1.60907L17.0589 1.09965C16.9119 0.744615 16.4216 0.744615 16.2745 1.09965L16.0635 1.60907C15.9972 1.76937 15.9202 1.92371 15.8334 2.07119C15.45 2.72332 14.8763 3.2414 14.1878 3.54766L13.5901 3.81347C13.2478 3.96572 13.2478 4.46382 13.5901 4.61606L14.2232 4.89761C14.7081 5.1133 15.1363 5.43421 15.4813 5.83337Z" fill="#E3E3E3"/>
</g>
<defs>
<clipPath id="clip0_1503_1490">
<rect width="20" height="20" fill="white"/>
</clipPath>
</defs>
</svg>
