<svg width="20" height="20" viewBox="0 0 20 20" fill="none" xmlns="http://www.w3.org/2000/svg">
<path d="M8.8215 3.33331L7.2978 1.80962L8.47633 0.631104L12.0118 4.16664L8.47633 7.70218L7.2978 6.52366L8.8215 4.99998H6.66667C5.28596 4.99998 4.16667 6.11926 4.16667 7.49998V10.8333H2.5V7.49998C2.5 5.19878 4.36548 3.33331 6.66667 3.33331H8.8215ZM7.5 9.16667C7.5 8.70642 7.8731 8.33331 8.33333 8.33331H16.6667C17.1269 8.33331 17.5 8.70642 17.5 9.16667V17.5C17.5 17.9602 17.1269 18.3333 16.6667 18.3333H8.33333C7.8731 18.3333 7.5 17.9602 7.5 17.5V9.16667ZM9.16667 10V16.6667H15.8333V10H9.16667Z" fill="#E3E3E3"/>
</svg>
