<svg width="20" height="20" viewBox="0 0 20 20" fill="none" xmlns="http://www.w3.org/2000/svg">
<path d="M15.8333 17.5V2.5H17.5V17.5H15.8333ZM5.83333 11.6667C5.83333 11.2064 6.20643 10.8333 6.66667 10.8333H13.3333C13.7936 10.8333 14.1667 11.2064 14.1667 11.6667V15.8333C14.1667 16.2936 13.7936 16.6667 13.3333 16.6667H6.66667C6.20643 16.6667 5.83333 16.2936 5.83333 15.8333V11.6667ZM3.33333 3.33333C2.8731 3.33333 2.5 3.70643 2.5 4.16667V8.33333C2.5 8.79358 2.8731 9.16667 3.33333 9.16667H13.3333C13.7936 9.16667 14.1667 8.79358 14.1667 8.33333V4.16667C14.1667 3.70643 13.7936 3.33333 13.3333 3.33333H3.33333Z" fill="#E3E3E3"/>
</svg>
