<svg width="20" height="20" viewBox="0 0 20 20" fill="none" xmlns="http://www.w3.org/2000/svg">
<path d="M10.0001 18.3306C5.39771 18.3306 1.66675 14.5997 1.66675 9.99727C1.66675 5.39491 5.39771 1.66394 10.0001 1.66394C14.6024 1.66394 18.3334 5.39491 18.3334 9.99727C18.3334 14.5997 14.6024 18.3306 10.0001 18.3306ZM10.0001 16.6639C13.682 16.6639 16.6667 13.6792 16.6667 9.99727C16.6667 6.31538 13.682 3.33061 10.0001 3.33061C6.31818 3.33061 3.33341 6.31538 3.33341 9.99727C3.33341 13.6792 6.31818 16.6639 10.0001 16.6639ZM5.83371 12.7634C7.56671 12.6372 9.26425 11.9116 10.5893 10.5865C11.9144 9.26144 12.64 7.56391 12.7662 5.83091C13.0379 6.01176 13.2959 6.22204 13.5356 6.46174C15.4882 8.41436 15.4882 11.5802 13.5356 13.5328C11.583 15.4854 8.41716 15.4854 6.46455 13.5328C6.22484 13.2931 6.01456 13.0351 5.83371 12.7634Z" fill="#E3E3E3"/>
</svg>
