<svg width="20" height="20" viewBox="0 0 20 20" fill="none" xmlns="http://www.w3.org/2000/svg">
<path d="M16.6666 1.66663C17.1268 1.66663 17.4999 2.03973 17.4999 2.49996V6.66663C17.4999 7.12686 17.1268 7.49996 16.6666 7.49996H12.4999V18.3333C12.4999 18.7935 12.1268 19.1666 11.6666 19.1666H8.33325C7.87302 19.1666 7.49992 18.7935 7.49992 18.3333V7.49996H2.91659C2.45635 7.49996 2.08325 7.12686 2.08325 6.66663V4.68165C2.08325 4.36601 2.26159 4.07746 2.54391 3.9363L7.08325 1.66663H16.6666ZM12.4999 3.33329H7.4767L3.74992 5.19668V5.83329H9.16658V17.5H10.8333V5.83329H12.4999V3.33329ZM15.8333 3.33329H14.1666V5.83329H15.8333V3.33329Z" fill="#E3E3E3"/>
</svg>
