<svg width="20" height="20" viewBox="0 0 20 20" fill="none" xmlns="http://www.w3.org/2000/svg">
<path d="M4.44119 2.72628C5.46877 2.36096 6.66025 2.58953 7.48273 3.41201C8.30543 4.23472 8.53392 5.42664 8.16815 6.45442L17.2054 15.4918L15.4377 17.2595L6.39947 8.22253C5.37189 8.58788 4.18041 8.35929 3.35793 7.5368C2.53523 6.71409 2.30675 5.52217 2.67251 4.49439L4.53644 6.35829C5.0246 6.84644 5.81606 6.84644 6.30421 6.35829C6.79237 5.87013 6.79237 5.07868 6.30421 4.59052L4.44119 2.72628ZM13.0807 4.29589L15.7323 2.82276L16.9108 4.00127L15.4377 6.65292L13.9645 6.94754L12.1968 8.71529L11.0183 7.5368L12.786 5.76903L13.0807 4.29589ZM7.1881 10.7777L8.95583 12.5455L4.83108 16.6703C4.34292 17.1585 3.55146 17.1585 3.06331 16.6703C2.60387 16.2108 2.57684 15.4827 2.98223 14.9916L3.06331 14.9025L7.1881 10.7777Z" fill="#E3E3E3"/>
</svg>
