<svg width="20" height="20" viewBox="0 0 20 20" fill="none" xmlns="http://www.w3.org/2000/svg">
<path d="M13.3333 7.49719L16.9762 8.95428C17.2925 9.08087 17.5 9.38728 17.5 9.72803V17.4972C17.5 17.9574 17.1269 18.3305 16.6667 18.3305H3.33333C2.8731 18.3305 2.5 17.9574 2.5 17.4972V9.72803C2.5 9.38728 2.70746 9.08087 3.02384 8.95428L6.66667 7.49719H13.3333ZM16.6667 11.6639H6.66667V15.8305H16.6667V11.6639ZM13.3333 2.49719C13.7936 2.49719 14.1667 2.87028 14.1667 3.33053V6.66386H5.83333V3.33053C5.83333 2.87028 6.20643 2.49719 6.66667 2.49719H13.3333Z" fill="#E3E3E3"/>
</svg>
