<svg width="20" height="20" viewBox="0 0 20 20" fill="none" xmlns="http://www.w3.org/2000/svg">
<path d="M5.87519 11.7678L4.10742 13.5356L6.46444 15.8926L15.8925 6.46448L13.5355 4.10746L11.7677 5.87523L12.9462 7.05374L11.7677 8.23225L10.5892 7.05374L9.41075 8.23225L10.5892 9.41076L9.41075 10.5893L8.23221 9.41076L7.0537 10.5893L8.23221 11.7678L7.0537 12.9463L5.87519 11.7678ZM14.1247 2.33969L17.6603 5.87523C17.9857 6.20067 17.9857 6.7283 17.6603 7.05374L7.0537 17.6603C6.72826 17.9858 6.20063 17.9858 5.87519 17.6603L2.33965 14.1248C2.01422 13.7993 2.01422 13.2718 2.33965 12.9463L12.9462 2.33969C13.2717 2.01426 13.7993 2.01426 14.1247 2.33969ZM11.7677 15.3029L12.9462 14.1244L14.815 15.9932H15.9935V14.8147L14.1247 12.9459L15.3032 11.7673L17.4997 13.9638V17.4999H13.9647L11.7677 15.3029ZM4.69656 8.23173L2.33953 5.8747C2.0141 5.54927 2.0141 5.02163 2.33953 4.69619L4.69656 2.33917C5.02199 2.01373 5.54963 2.01373 5.87507 2.33917L8.23209 4.69619L7.05358 5.8747L5.28582 4.10693L4.1073 5.28545L5.87507 7.05322L4.69656 8.23173Z" fill="#E3E3E3"/>
</svg>
