<svg width="20" height="20" viewBox="0 0 20 20" fill="none" xmlns="http://www.w3.org/2000/svg">
<path d="M3.92783 5.94009L3.72235 6.41149C3.57197 6.7566 3.09464 6.7566 2.94427 6.41149L2.7388 5.94009C2.37255 5.09956 1.71287 4.43034 0.889725 4.06423L0.256706 3.78268C-0.0855685 3.63044 -0.0855685 3.13234 0.256706 2.9801L0.854333 2.71428C1.69865 2.33876 2.37014 1.64477 2.7301 0.77569L2.9411 0.266278C3.08815 -0.0887594 3.57847 -0.0887594 3.72552 0.266278L3.93652 0.77569C4.29647 1.64477 4.96798 2.33876 5.81233 2.71428L6.4099 2.9801C6.75226 3.13234 6.75226 3.63044 6.4099 3.78268L5.7769 4.06423C4.95376 4.43034 4.29407 5.09956 3.92783 5.94009ZM5.27851 13.1795C5.42527 12.6942 5.58933 12.2135 5.7826 11.6939C7.4957 7.08863 10.3497 4.23477 15.0107 3.51232C14.5833 4.46532 14.1792 5.12751 13.8215 5.48531C13.5434 5.76336 13.2654 6.04161 12.9873 6.32006L11.8101 7.49898L13.0232 8.71125C12.0813 10.4487 10.221 11.8316 8.12661 12.0933C7.02953 12.2305 6.07787 12.599 5.27851 13.1795ZM15 8.33048L14.1667 7.49773C14.4443 7.21977 14.7218 6.94199 15.0023 6.66159C15.8348 5.82752 16.6674 4.1616 17.5 1.66382C5.25921 1.66382 3.40712 12.8517 2.55301 18.011C2.53492 18.1203 2.51728 18.2268 2.5 18.3305H4.1652C4.72017 15.5529 6.10955 14.0251 8.33333 13.7472C11.6667 13.3305 14.1667 10.8305 15 8.33048Z" fill="#E3E3E3"/>
</svg>
