<svg width="20" height="20" viewBox="0 0 20 20" fill="none" xmlns="http://www.w3.org/2000/svg">
<path d="M10.0001 16.6666C13.682 16.6666 16.6667 13.6819 16.6667 9.99996C16.6667 6.31806 13.682 3.33329 10.0001 3.33329C6.31818 3.33329 3.33341 6.31806 3.33341 9.99996C3.33341 13.6819 6.31818 16.6666 10.0001 16.6666ZM10.0001 18.3333C5.39771 18.3333 1.66675 14.6023 1.66675 9.99996C1.66675 5.39758 5.39771 1.66663 10.0001 1.66663C14.6024 1.66663 18.3334 5.39758 18.3334 9.99996C18.3334 14.6023 14.6024 18.3333 10.0001 18.3333ZM10.0001 13.3333C11.841 13.3333 13.3334 11.8409 13.3334 9.99996C13.3334 8.15901 11.841 6.66663 10.0001 6.66663C8.15913 6.66663 6.66675 8.15901 6.66675 9.99996C6.66675 11.8409 8.15913 13.3333 10.0001 13.3333ZM10.0001 15C7.23866 15 5.00008 12.7614 5.00008 9.99996C5.00008 7.23853 7.23866 4.99996 10.0001 4.99996C12.7615 4.99996 15.0001 7.23853 15.0001 9.99996C15.0001 12.7614 12.7615 15 10.0001 15ZM10.0001 11.6666C9.07958 11.6666 8.33341 10.9205 8.33341 9.99996C8.33341 9.07946 9.07958 8.33329 10.0001 8.33329C10.9206 8.33329 11.6667 9.07946 11.6667 9.99996C11.6667 10.9205 10.9206 11.6666 10.0001 11.6666Z" fill="#E3E3E3"/>
</svg>
