<svg width="20" height="20" viewBox="0 0 20 20" fill="none" xmlns="http://www.w3.org/2000/svg">
<g clip-path="url(#clip0_1503_1562)">
<path d="M10.8333 0.833374L10.8341 3.38505C13.8493 3.76142 16.239 6.1514 16.615 9.16671H19.1666V10.8334L16.6149 10.8342C16.2386 13.8491 13.849 16.2387 10.8341 16.615L10.8333 19.1667H9.16659V16.6151C6.15128 16.2391 3.76129 13.8494 3.38493 10.8342L0.833252 10.8334V9.16671H3.38483C3.76085 6.15112 6.15099 3.76097 9.16659 3.38495V0.833374H10.8333ZM9.99992 5.00004C7.23849 5.00004 4.99992 7.23862 4.99992 10C4.99992 12.7615 7.23849 15 9.99992 15C12.7613 15 14.9999 12.7615 14.9999 10C14.9999 7.23862 12.7613 5.00004 9.99992 5.00004ZM9.99992 8.33337C10.9204 8.33337 11.6666 9.07954 11.6666 10C11.6666 10.9205 10.9204 11.6667 9.99992 11.6667C9.07942 11.6667 8.33325 10.9205 8.33325 10C8.33325 9.07954 9.07942 8.33337 9.99992 8.33337Z" fill="#E3E3E3"/>
</g>
<defs>
<clipPath id="clip0_1503_1562">
<rect width="20" height="20" fill="white"/>
</clipPath>
</defs>
</svg>
