<svg width="20" height="20" viewBox="0 0 20 20" fill="none" xmlns="http://www.w3.org/2000/svg">
<path d="M9.16658 3.43562V1.66394H10.8332V3.43562C12.2709 3.80566 13.3332 5.11074 13.3332 6.66394C13.3332 7.59535 12.9512 8.43752 12.3353 9.04236L17.3882 17.7943L15.9449 18.6276L10.8924 9.87644C10.6083 9.95519 10.3091 9.99727 9.99991 9.99727C9.69083 9.99727 9.3915 9.95519 9.10741 9.87644L4.05495 18.6276L2.61157 17.7943L7.6645 9.04236C7.04861 8.43752 6.66659 7.59535 6.66659 6.66394C6.66659 5.11074 7.72891 3.80566 9.16658 3.43562ZM9.99991 7.49727C10.4602 7.49727 10.8332 7.12418 10.8332 6.66394C10.8332 6.20371 10.4602 5.83061 9.99991 5.83061C9.53966 5.83061 9.16658 6.20371 9.16658 6.66394C9.16658 7.12418 9.53966 7.49727 9.99991 7.49727Z" fill="#E3E3E3"/>
</svg>
