<svg width="20" height="20" viewBox="0 0 20 20" fill="none" xmlns="http://www.w3.org/2000/svg">
<path d="M9.99984 1.66663C14.6017 1.66663 18.3332 4.98144 18.3332 9.07404C18.3332 11.6296 16.2591 13.7036 13.7035 13.7036H12.0647C11.2962 13.7036 10.6758 14.324 10.6758 15.0925C10.6758 15.4444 10.8147 15.7685 11.0276 16.0092C11.2498 16.2592 11.3888 16.5833 11.3888 16.9444C11.3888 17.713 10.7498 18.3333 9.99984 18.3333C5.39799 18.3333 1.6665 14.6018 1.6665 9.99996C1.6665 5.39811 5.39799 1.66663 9.99984 1.66663ZM9.00909 15.0925C9.00909 13.4035 10.3757 12.037 12.0647 12.037H13.7035C15.3386 12.037 16.6665 10.7091 16.6665 9.07404C16.6665 5.94929 13.7229 3.33329 9.99984 3.33329C6.31846 3.33329 3.33317 6.31858 3.33317 9.99996C3.33317 13.4916 6.01867 16.357 9.4365 16.6431C9.16217 16.1806 9.00909 15.6467 9.00909 15.0925ZM6.24984 9.99996C5.55948 9.99996 4.99984 9.44029 4.99984 8.74996C4.99984 8.0596 5.55948 7.49996 6.24984 7.49996C6.94019 7.49996 7.49984 8.0596 7.49984 8.74996C7.49984 9.44029 6.94019 9.99996 6.24984 9.99996ZM13.7498 9.99996C13.0595 9.99996 12.4998 9.44029 12.4998 8.74996C12.4998 8.0596 13.0595 7.49996 13.7498 7.49996C14.4402 7.49996 14.9998 8.0596 14.9998 8.74996C14.9998 9.44029 14.4402 9.99996 13.7498 9.99996ZM9.99984 7.49996C9.3095 7.49996 8.74984 6.94032 8.74984 6.24996C8.74984 5.5596 9.3095 4.99996 9.99984 4.99996C10.6902 4.99996 11.2498 5.5596 11.2498 6.24996C11.2498 6.94032 10.6902 7.49996 9.99984 7.49996Z" fill="#E3E3E3"/>
</svg>
