<svg width="20" height="20" viewBox="0 0 20 20" fill="none" xmlns="http://www.w3.org/2000/svg">
<path d="M4.69668 10.5893L6.22037 12.1129L7.39888 10.9344L5.87519 9.41076L7.0537 8.23225L8.57742 9.75593L9.75592 8.57743L8.23221 7.05374L9.41075 5.87523L10.9344 7.39892L12.1129 6.22041L10.5892 4.69672L12.9462 2.33969C13.2717 2.01426 13.7993 2.01426 14.1247 2.33969L17.6603 5.87523C17.9857 6.20067 17.9857 6.7283 17.6603 7.05374L7.0537 17.6603C6.72826 17.9858 6.20063 17.9858 5.87519 17.6603L2.33965 14.1248C2.01422 13.7993 2.01422 13.2718 2.33965 12.9463L4.69668 10.5893ZM11.7677 15.3029L15.3032 11.7673L17.4997 13.9638V17.4999H13.9647L11.7677 15.3029ZM4.69656 8.23173L2.33953 5.8747C2.0141 5.54927 2.0141 5.02163 2.33953 4.69619L4.69656 2.33917C5.02199 2.01373 5.54963 2.01373 5.87507 2.33917L8.23209 4.69619L4.69656 8.23173Z" fill="#E3E3E3"/>
</svg>
