<svg width="20" height="20" viewBox="0 0 20 20" fill="none" xmlns="http://www.w3.org/2000/svg">
<path d="M15.1282 16.3039C12.188 19.0619 7.56809 19.0052 4.69692 16.134C1.82574 13.2629 1.76912 8.64294 4.52708 5.70277L1.16138 2.33706L2.33989 1.15855L18.8391 17.6577L17.6605 18.8362L15.1282 16.3039ZM5.70639 6.88207C3.59884 9.17052 3.65519 12.7353 5.87543 14.9555C8.09567 17.1758 11.6604 17.2321 13.9488 15.1245L5.70639 6.88207ZM17.0121 13.4974L15.6798 12.165C16.1241 10.2656 15.6058 8.18675 14.125 6.70594L10.0003 2.58115L8.04801 4.53335L6.8695 3.35484L10.0003 0.224121L15.3035 5.52742C17.4583 7.68222 18.0278 10.8219 17.0121 13.4974Z" fill="#E3E3E3"/>
</svg>
