<svg width="20" height="20" viewBox="0 0 20 20" fill="none" xmlns="http://www.w3.org/2000/svg">
<path d="M13.6088 11.2475C14.9637 10.1793 15.8336 8.52319 15.8336 6.66394H17.5002C17.5002 9.14061 16.2998 11.3369 14.449 12.7027L16.5553 16.3509C17.0155 17.148 16.7424 18.1674 15.9452 18.6276L13.0063 13.5373C12.086 13.9403 11.0692 14.1639 10.0002 14.1639C8.93124 14.1639 7.91451 13.9403 6.99423 13.5373L4.05529 18.6276C3.25814 18.1674 2.98501 17.148 3.44525 16.3509L7.66483 9.04236C7.04894 8.43752 6.66693 7.59535 6.66693 6.66394C6.66693 5.11074 7.72924 3.80566 9.16691 3.43562V1.66394H10.8336V3.43562C12.2713 3.80566 13.3336 5.11074 13.3336 6.66394C13.3336 7.59535 12.9516 8.43752 12.3357 9.04236L13.6088 11.2475ZM12.1661 12.0819L10.8927 9.87644C10.6087 9.95519 10.3094 9.99727 10.0002 9.99727C9.69116 9.99727 9.39183 9.95519 9.10774 9.87644L7.83442 12.0819C8.50408 12.3499 9.23499 12.4973 10.0002 12.4973C10.7656 12.4973 11.4965 12.3499 12.1661 12.0819ZM10.0002 8.33061C10.9207 8.33061 11.6669 7.58442 11.6669 6.66394C11.6669 5.74347 10.9207 4.99727 10.0002 4.99727C9.07983 4.99727 8.33358 5.74347 8.33358 6.66394C8.33358 7.58442 9.07983 8.33061 10.0002 8.33061Z" fill="#E3E3E3"/>
</svg>
