<svg width="20" height="20" viewBox="0 0 20 20" fill="none" xmlns="http://www.w3.org/2000/svg">
<path d="M7.8719 6.69058L10.0001 8.81877L15.6067 3.21216C16.2576 2.56129 17.3128 2.56129 17.9637 3.21216L7.8719 13.3039C8.16514 13.8003 8.33341 14.3791 8.33341 14.9973C8.33341 16.8382 6.84103 18.3306 5.00008 18.3306C3.15913 18.3306 1.66675 16.8382 1.66675 14.9973C1.66675 13.1564 3.15913 11.6639 5.00008 11.6639C5.61826 11.6639 6.19712 11.8322 6.69339 12.1254L8.82158 9.99727L6.69339 7.8691C6.19712 8.16234 5.61826 8.33061 5.00008 8.33061C3.15913 8.33061 1.66675 6.83822 1.66675 4.99727C1.66675 3.15632 3.15913 1.66394 5.00008 1.66394C6.84103 1.66394 8.33341 3.15632 8.33341 4.99727C8.33341 5.61545 8.16514 6.19432 7.8719 6.69058ZM12.3547 11.1734L17.9637 16.7824C17.3128 17.4333 16.2576 17.4333 15.6067 16.7824L11.1762 12.3519L12.3547 11.1734ZM6.17859 13.8188C5.87698 13.5172 5.46031 13.3306 5.00008 13.3306C4.07961 13.3306 3.33341 14.0768 3.33341 14.9973C3.33341 15.9178 4.07961 16.6639 5.00008 16.6639C5.92056 16.6639 6.66675 15.9178 6.66675 14.9973C6.66675 14.537 6.4802 14.1204 6.17859 13.8188ZM6.17859 6.17579C6.4802 5.87418 6.66675 5.45751 6.66675 4.99727C6.66675 4.0768 5.92056 3.33061 5.00008 3.33061C4.07961 3.33061 3.33341 4.0768 3.33341 4.99727C3.33341 5.91775 4.07961 6.66394 5.00008 6.66394C5.46031 6.66394 5.87698 6.4774 6.17859 6.17579Z" fill="#E3E3E3"/>
</svg>
