<svg width="20" height="20" viewBox="0 0 20 20" fill="none" xmlns="http://www.w3.org/2000/svg">
<path d="M13.8303 0.863791L19.1191 6.15263C19.2818 6.31535 19.2818 6.57917 19.1191 6.74188C19.0567 6.80431 18.9761 6.84529 18.8888 6.85892L17.6604 7.05097L12.9464 2.33693L13.1232 1.09949C13.1558 0.871691 13.3668 0.713397 13.5946 0.74594C13.6838 0.75869 13.7665 0.800042 13.8303 0.863791ZM3.82914 16.7899C6.93113 14.0136 10.4917 13.1834 14.365 12.1894L14.737 8.84162L11.1558 5.26037L7.80788 5.63237C6.81403 9.5057 5.98373 13.0663 3.20747 16.1682L2.04517 15.0059C4.40219 12.256 5.28607 9.21162 6.46458 4.1047L11.7679 3.51544L16.482 8.22952L15.8927 13.5328C10.7858 14.7113 7.74131 15.5952 4.99145 17.9522L3.82914 16.7899ZM8.23235 11.765C7.58148 11.1141 7.58148 10.0589 8.23235 9.40803C8.88325 8.75712 9.9385 8.75712 10.5893 9.40803C11.2403 10.0589 11.2403 11.1141 10.5893 11.765C9.9385 12.4159 8.88325 12.4159 8.23235 11.765Z" fill="#E3E3E3"/>
</svg>
