<svg width="20" height="20" viewBox="0 0 20 20" fill="none" xmlns="http://www.w3.org/2000/svg">
<path d="M8.06964 6.29906L10.0001 8.22951L15.3121 2.91754C15.9629 2.26667 17.0182 2.26667 17.6691 2.91754L18.2583 3.50679L8.06964 13.6955C8.23947 14.0954 8.33342 14.5354 8.33342 14.9973C8.33342 16.8382 6.84103 18.3306 5.00008 18.3306C3.15913 18.3306 1.66675 16.8382 1.66675 14.9973C1.66675 13.1564 3.15913 11.6639 5.00008 11.6639C5.46197 11.6639 5.90193 11.7579 6.30187 11.9277L8.23232 9.99727L6.30187 8.06683C5.90193 8.23666 5.46197 8.33061 5.00008 8.33061C3.15913 8.33061 1.66675 6.83822 1.66675 4.99727C1.66675 3.15632 3.15913 1.66394 5.00008 1.66394C6.84103 1.66394 8.33342 3.15632 8.33342 4.99727C8.33342 5.45917 8.23947 5.89912 8.06964 6.29906ZM5.00008 6.66394C5.92056 6.66394 6.66675 5.91775 6.66675 4.99727C6.66675 4.0768 5.92056 3.33061 5.00008 3.33061C4.07961 3.33061 3.33342 4.0768 3.33342 4.99727C3.33342 5.91775 4.07961 6.66394 5.00008 6.66394ZM5.00008 16.6639C5.92056 16.6639 6.66675 15.9178 6.66675 14.9973C6.66675 14.0768 5.92056 13.3306 5.00008 13.3306C4.07961 13.3306 3.33342 14.0768 3.33342 14.9973C3.33342 15.9178 4.07961 16.6639 5.00008 16.6639ZM12.9456 11.175L18.2583 16.4878L17.6691 17.077C17.0182 17.7279 15.9629 17.7279 15.3121 17.077L11.1778 12.9428L12.9456 11.175Z" fill="#E3E3E3"/>
</svg>
