<svg width="20" height="20" viewBox="0 0 20 20" fill="none" xmlns="http://www.w3.org/2000/svg">
<path d="M13.3334 10.8333L19.1368 14.2185L16.6595 14.9274L18.4301 17.9944L16.9867 18.8277L15.2161 15.7607L13.3633 17.5518L13.3334 10.8333ZM11.6667 4.99996H13.3334V6.66663H17.5001C17.9603 6.66663 18.3334 7.03973 18.3334 7.49996V10.8333H16.6667V8.33329H8.33341V16.6666H11.6667V18.3333H7.50008C7.03985 18.3333 6.66675 17.9602 6.66675 17.5V13.3333H5.00008V11.6666H6.66675V7.49996C6.66675 7.03973 7.03985 6.66663 7.50008 6.66663H11.6667V4.99996ZM3.33341 11.6666V13.3333H1.66675V11.6666H3.33341ZM3.33341 8.33329V9.99996H1.66675V8.33329H3.33341ZM3.33341 4.99996V6.66663H1.66675V4.99996H3.33341ZM3.33341 1.66663V3.33329H1.66675V1.66663H3.33341ZM6.66675 1.66663V3.33329H5.00008V1.66663H6.66675ZM10.0001 1.66663V3.33329H8.33341V1.66663H10.0001ZM13.3334 1.66663V3.33329H11.6667V1.66663H13.3334Z" fill="#E3E3E3"/>
</svg>
