<svg width="20" height="20" viewBox="0 0 20 20" fill="none" xmlns="http://www.w3.org/2000/svg">
<path d="M12.7022 3.75953L7.08781 9.37387L6.49855 11.1416L5.63109 12.0091L7.98811 14.3661L8.85559 13.4987L10.6233 12.9094L16.2377 7.29506L12.7022 3.75953ZM18.0054 6.7058C18.3309 7.03125 18.3309 7.55888 18.0054 7.88432L11.5237 14.3661L9.75584 14.9554L8.57734 16.1339C8.25193 16.4594 7.72429 16.4594 7.39885 16.1339L3.86332 12.5984C3.53789 12.273 3.53789 11.7453 3.86332 11.4199L5.04184 10.2414L5.63109 8.47354L12.1129 1.99176C12.4383 1.66632 12.966 1.66632 13.2914 1.99176L18.0054 6.7058ZM12.7022 6.11655L13.8807 7.29506L9.75584 11.4199L8.57734 10.2414L12.7022 6.11655ZM3.56869 14.0715L5.92572 16.4285L4.7472 17.607L1.21167 16.4285L3.56869 14.0715Z" fill="#E3E3E3"/>
</svg>
