<svg width="20" height="20" viewBox="0 0 20 20" fill="none" xmlns="http://www.w3.org/2000/svg">
<path d="M10 2.58115L5.87521 6.70593C3.59715 8.98402 3.59715 12.6774 5.87521 14.9555C8.15327 17.2336 11.8467 17.2336 14.1247 14.9555C16.4028 12.6774 16.4028 8.98402 14.1247 6.70594L10 2.58115ZM10 0.224121L15.3033 5.52742C18.2322 8.45636 18.2322 13.2051 15.3033 16.134C12.3743 19.0629 7.62563 19.0629 4.6967 16.134C1.76777 13.2051 1.76777 8.45636 4.6967 5.52742L10 0.224121ZM5.83333 10.8307H14.1667C14.1667 13.1319 12.3012 14.9974 10 14.9974C7.69882 14.9974 5.83333 13.1319 5.83333 10.8307Z" fill="#E3E3E3"/>
</svg>
