<svg width="20" height="20" viewBox="0 0 20 20" fill="none" xmlns="http://www.w3.org/2000/svg">
<path d="M4.16675 6.66663C2.78604 6.66663 1.66675 5.54733 1.66675 4.16663C1.66675 2.78592 2.78604 1.66663 4.16675 1.66663C5.54746 1.66663 6.66675 2.78592 6.66675 4.16663C6.66675 5.54733 5.54746 6.66663 4.16675 6.66663ZM15.8334 6.66663C14.4527 6.66663 13.3334 5.54733 13.3334 4.16663C13.3334 2.78592 14.4527 1.66663 15.8334 1.66663C17.2142 1.66663 18.3334 2.78592 18.3334 4.16663C18.3334 5.54733 17.2142 6.66663 15.8334 6.66663ZM15.8334 18.3333C14.4527 18.3333 13.3334 17.214 13.3334 15.8333C13.3334 14.4525 14.4527 13.3333 15.8334 13.3333C17.2142 13.3333 18.3334 14.4525 18.3334 15.8333C18.3334 17.214 17.2142 18.3333 15.8334 18.3333ZM4.16675 18.3333C2.78604 18.3333 1.66675 17.214 1.66675 15.8333C1.66675 14.4525 2.78604 13.3333 4.16675 13.3333C5.54746 13.3333 6.66675 14.4525 6.66675 15.8333C6.66675 17.214 5.54746 18.3333 4.16675 18.3333ZM7.50008 3.33329H12.5001V4.99996H7.50008V3.33329ZM7.50008 15H12.5001V16.6666H7.50008V15ZM3.33341 7.49996H5.00008V12.5H3.33341V7.49996ZM15.0001 7.49996H16.6667V12.5H15.0001V7.49996Z" fill="#E3E3E3"/>
</svg>
