<svg width="20" height="20" viewBox="0 0 20 20" fill="none" xmlns="http://www.w3.org/2000/svg">
<path d="M4.44119 2.72628C5.46877 2.36096 6.66025 2.58953 7.48273 3.41201C8.41683 4.3461 8.58492 5.75613 7.98692 6.8615L16.9108 15.7864L15.7323 16.9649L6.80818 8.04058C5.70271 8.63904 4.29224 8.47113 3.35793 7.5368C2.53523 6.71409 2.30675 5.52217 2.67251 4.49439L4.53644 6.35829C5.0246 6.84644 5.81606 6.84644 6.30421 6.35829C6.79237 5.87013 6.79237 5.07868 6.30421 4.59053L4.44119 2.72628ZM13.0807 4.29589L15.7323 2.82276L16.9108 4.00127L15.4377 6.65292L13.9645 6.94754L12.1968 8.71529L11.0183 7.5368L12.786 5.76903L13.0807 4.29589ZM7.48273 11.0723L8.66125 12.2509L4.24182 16.6703C3.91638 16.9957 3.38874 16.9957 3.06331 16.6703C2.76112 16.368 2.73953 15.8915 2.99855 15.5645L3.06331 15.4918L7.48273 11.0723Z" fill="#E3E3E3"/>
</svg>
