<svg width="20" height="20" viewBox="0 0 20 20" fill="none" xmlns="http://www.w3.org/2000/svg">
<path d="M10.0001 18.3306C5.39771 18.3306 1.66675 14.5996 1.66675 9.99728C1.66675 5.3949 5.39771 1.66394 10.0001 1.66394C14.6024 1.66394 18.3334 5.3949 18.3334 9.99728C18.3334 14.5996 14.6024 18.3306 10.0001 18.3306ZM14.2092 15.1674L13.4912 12.2952C13.3985 11.9242 13.0652 11.6639 12.6827 11.6639H7.3174C6.93501 11.6639 6.60169 11.9242 6.50894 12.2952L5.79089 15.1674C6.93866 16.1029 8.40383 16.6639 10.0001 16.6639C11.5963 16.6639 13.0615 16.1029 14.2092 15.1674ZM8.33341 9.99728H11.6667V8.74728L10.8013 5.71838C10.7222 5.44154 10.5058 5.22515 10.229 5.14605C9.7865 5.01962 9.32525 5.27586 9.19883 5.71838L8.33341 8.74728V9.99728Z" fill="#E3E3E3"/>
</svg>
