<svg width="20" height="20" viewBox="0 0 20 20" fill="none" xmlns="http://www.w3.org/2000/svg">
<path d="M13.7798 13.2887L15.5476 11.521L12.8959 8.86931L15.8422 5.92305L14.0744 4.15528L11.1282 7.10155L8.4765 4.44991L6.70876 6.21767L13.7798 13.2887ZM11.1282 4.74453L13.4852 2.38751C13.8107 2.06207 14.3382 2.06207 14.6637 2.38751L17.61 5.33379C17.9354 5.65922 17.9354 6.18686 17.61 6.5123L15.253 8.86931L17.3153 10.9317C17.6408 11.2571 17.6408 11.7848 17.3153 12.1102L10.8336 18.5921C10.5081 18.9175 9.9805 18.9175 9.655 18.5921L1.40546 10.3425C1.08002 10.0171 1.08002 9.4894 1.40546 9.16398L7.88727 2.68214C8.21271 2.35671 8.74033 2.35671 9.06575 2.68214L11.1282 4.74453Z" fill="#E3E3E3"/>
</svg>
