<svg width="20" height="20" viewBox="0 0 20 20" fill="none" xmlns="http://www.w3.org/2000/svg">
<path d="M10.0001 18.3306C5.39771 18.3306 1.66675 14.5997 1.66675 9.99727C1.66675 5.39491 5.39771 1.66394 10.0001 1.66394C14.6024 1.66394 18.3334 5.39491 18.3334 9.99727C18.3334 14.5997 14.6024 18.3306 10.0001 18.3306ZM4.44082 13.685C5.63656 15.4729 7.67398 16.6503 9.98641 16.6503C13.6682 16.6503 16.6531 13.6654 16.6531 9.98361C16.6531 7.67111 15.4757 5.63364 13.6877 4.43791C14.3922 6.96106 13.7522 9.78077 11.7678 11.7651C9.7835 13.7494 6.96391 14.3894 4.44082 13.685Z" fill="#E3E3E3"/>
</svg>
