<svg width="20" height="20" viewBox="0 0 20 20" fill="none" xmlns="http://www.w3.org/2000/svg">
<path d="M12.6864 12.9232L10.8425 16.7984C10.7238 17.0477 10.4255 17.1536 10.1762 17.0349C10.1206 17.0085 10.0703 16.972 10.028 16.9274L7.07682 13.8117C6.99782 13.7283 6.89252 13.6746 6.77863 13.6598L2.52338 13.1035C2.24957 13.0678 2.05662 12.8168 2.09241 12.5429C2.10038 12.4819 2.11958 12.4229 2.149 12.3688L4.20018 8.59927C4.25508 8.49836 4.27358 8.38161 4.25253 8.26872L3.46658 4.04986C3.41601 3.77839 3.59508 3.51732 3.86656 3.46675C3.92708 3.45547 3.98917 3.45547 4.0497 3.46675L8.26856 4.2527C8.3815 4.27373 8.49825 4.25525 8.59908 4.20034L12.3686 2.14916C12.6112 2.01717 12.9148 2.10681 13.0468 2.34936C13.0763 2.40345 13.0954 2.4625 13.1033 2.52355L13.6596 6.77879C13.6745 6.89269 13.7282 6.99799 13.8115 7.07698L16.9272 10.0281C17.1277 10.218 17.1362 10.5345 16.9463 10.735C16.904 10.7797 16.8537 10.8162 16.7982 10.8426L12.9231 12.6866C12.8193 12.7359 12.7357 12.8195 12.6864 12.9232ZM13.3504 14.5291L14.5289 13.3506L18.0645 16.8861L16.886 18.0646L13.3504 14.5291Z" fill="#E3E3E3"/>
</svg>
