<svg width="20" height="20" viewBox="0 0 20 20" fill="none" xmlns="http://www.w3.org/2000/svg">
<path d="M3.33333 3.33333C3.33333 2.8731 3.70643 2.5 4.16667 2.5H8.33333C8.79358 2.5 9.16667 2.8731 9.16667 3.33333V13.3333C9.16667 13.7936 8.79358 14.1667 8.33333 14.1667H4.16667C3.70643 14.1667 3.33333 13.7936 3.33333 13.3333V3.33333ZM11.6667 5.83333C11.2064 5.83333 10.8333 6.20643 10.8333 6.66667V13.3333C10.8333 13.7936 11.2064 14.1667 11.6667 14.1667H15.8333C16.2936 14.1667 16.6667 13.7936 16.6667 13.3333V6.66667C16.6667 6.20643 16.2936 5.83333 15.8333 5.83333H11.6667ZM17.5 15.8333H2.5V17.5H17.5V15.8333Z" fill="#E3E3E3"/>
</svg>
