<svg width="20" height="20" viewBox="0 0 20 20" fill="none" xmlns="http://www.w3.org/2000/svg">
<path d="M11.0738 5.17753L15.1897 1.9762C15.5215 1.71819 15.9934 1.74757 16.2906 2.04474L18.7857 4.53991C19.083 4.83709 19.1123 5.30904 18.8543 5.64078L15.6538 9.75569C15.8981 10.7459 15.9029 11.8101 15.6202 12.8649C14.8718 15.6581 12.3451 17.4989 9.58458 17.4989C6.66658 17.4989 2.91658 16.2473 0.833252 14.9973C4.14973 12.4973 3.3726 10.9888 3.74992 9.5806C4.63194 6.28884 7.78512 4.36614 11.0738 5.17753ZM13.9178 6.74303C13.9727 6.7959 14.0265 6.84972 14.0793 6.90446L15.0247 7.84989L17.0871 5.19824L15.6323 3.74344L12.9807 5.80584L13.9178 6.74303Z" fill="#E3E3E3"/>
</svg>
