<svg width="20" height="20" viewBox="0 0 20 20" fill="none" xmlns="http://www.w3.org/2000/svg">
<path d="M4.80392 6.66664L4.55795 6.05786C4.38554 5.63113 4.59171 5.14544 5.01843 4.97303L12.745 1.85131C13.1717 1.6789 13.6574 1.88506 13.8297 2.31179L18.5123 13.9016C18.6847 14.3283 18.4786 14.814 18.0519 14.9864L10.3253 18.1082C9.89867 18.2806 9.41292 18.0744 9.2405 17.6477L9.16692 17.4655V17.5H5.83359C5.37335 17.5 5.00026 17.1269 5.00026 16.6667V16.4419L2.20888 15.3142C1.78216 15.1417 1.57599 14.6561 1.7484 14.2293L4.80392 6.66664ZM6.66692 15.8333H8.5075L6.66692 11.2777V15.8333ZM5.00026 10.6298L3.60588 14.081L5.00026 14.6737V10.6298ZM6.41543 6.20616L10.4737 16.2507L16.6549 13.7532L12.5967 3.70878L6.41543 6.20616ZM8.89725 7.89977C8.4705 8.07218 7.98483 7.86602 7.81243 7.4393C7.64002 7.01257 7.84618 6.52688 8.27291 6.35447C8.69967 6.18206 9.18533 6.38822 9.35775 6.81495C9.53017 7.24167 9.324 7.72737 8.89725 7.89977Z" fill="#E3E3E3"/>
</svg>
