<svg width="20" height="20" viewBox="0 0 20 20" fill="none" xmlns="http://www.w3.org/2000/svg">
<path d="M5 8.33337V16.6667H15.8333V8.33337H5ZM15 6.66671H16.6667C17.1269 6.66671 17.5 7.03981 17.5 7.50004V17.5C17.5 17.9603 17.1269 18.3334 16.6667 18.3334H3.33333C2.8731 18.3334 2.5 17.9603 2.5 17.5V7.50004C2.5 7.03981 2.8731 6.66671 3.33333 6.66671H5V5.83337C5 3.07195 7.23857 0.833374 10 0.833374C12.7614 0.833374 15 3.07195 15 5.83337V6.66671ZM13.3333 6.66671V5.83337C13.3333 3.99242 11.8409 2.50004 10 2.50004C8.15905 2.50004 6.66667 3.99242 6.66667 5.83337V6.66671H13.3333ZM5.83333 9.16671H7.5V10.8334H5.83333V9.16671ZM5.83333 11.6667H7.5V13.3334H5.83333V11.6667ZM5.83333 14.1667H7.5V15.8334H5.83333V14.1667Z" fill="#E3E3E3"/>
</svg>
