<svg width="20" height="20" viewBox="0 0 20 20" fill="none" xmlns="http://www.w3.org/2000/svg">
<path d="M13.2283 10.8333C12.8582 12.271 11.5532 13.3333 10 13.3333C8.44683 13.3333 7.14172 12.271 6.77168 10.8333H2.5V9.16663H6.77168C7.14172 7.72893 8.44683 6.66663 10 6.66663C11.5532 6.66663 12.8582 7.72893 13.2283 9.16663H17.5V10.8333H13.2283ZM10 11.6666C10.9205 11.6666 11.6667 10.9205 11.6667 9.99996C11.6667 9.07946 10.9205 8.33329 10 8.33329C9.0795 8.33329 8.33333 9.07946 8.33333 9.99996C8.33333 10.9205 9.0795 11.6666 10 11.6666Z" fill="#E3E3E3"/>
</svg>
