<svg width="20" height="20" viewBox="0 0 20 20" fill="none" xmlns="http://www.w3.org/2000/svg">
<path d="M12.5 4.16663H14.1667C15.0872 4.16663 15.8333 4.91282 15.8333 5.83329V12.6422C16.8043 12.9854 17.5 13.9115 17.5 15C17.5 16.3807 16.3807 17.5 15 17.5C13.6192 17.5 12.5 16.3807 12.5 15C12.5 13.9115 13.1957 12.9854 14.1667 12.6422V5.83329H12.5V8.33329L8.75 4.99996L12.5 1.66663V4.16663ZM4.16667 7.3577C3.19568 7.01451 2.5 6.08848 2.5 4.99996C2.5 3.61925 3.61929 2.49996 5 2.49996C6.38071 2.49996 7.5 3.61925 7.5 4.99996C7.5 6.08848 6.80433 7.01451 5.83333 7.3577V12.6422C6.80433 12.9854 7.5 13.9115 7.5 15C7.5 16.3807 6.38071 17.5 5 17.5C3.61929 17.5 2.5 16.3807 2.5 15C2.5 13.9115 3.19568 12.9854 4.16667 12.6422V7.3577Z" fill="#E3E3E3"/>
</svg>
