<svg width="20" height="20" viewBox="0 0 20 20" fill="none" xmlns="http://www.w3.org/2000/svg">
<path d="M5 4.16667C4.53977 4.16667 4.16667 4.53977 4.16667 5C4.16667 5.46023 4.53977 5.83333 5 5.83333C5.46023 5.83333 5.83333 5.46023 5.83333 5C5.83333 4.53977 5.46023 4.16667 5 4.16667ZM2.5 5C2.5 3.61929 3.61929 2.5 5 2.5C6.38071 2.5 7.5 3.61929 7.5 5C7.5 6.08852 6.80433 7.01455 5.83333 7.35774V12.6423C6.80433 12.9854 7.5 13.9115 7.5 15C7.5 16.3807 6.38071 17.5 5 17.5C3.61929 17.5 2.5 16.3807 2.5 15C2.5 13.9115 3.19568 12.9854 4.16667 12.6423V7.35774C3.19568 7.01455 2.5 6.08852 2.5 5ZM12.7441 2.74408C13.0695 2.41864 13.5972 2.41864 13.9226 2.74408L15 3.82149L16.0774 2.74408C16.4028 2.41864 16.9305 2.41864 17.2559 2.74408C17.5813 3.06952 17.5813 3.59715 17.2559 3.92259L16.1785 5L17.2559 6.07741C17.5813 6.40285 17.5813 6.93048 17.2559 7.25593C16.9305 7.58136 16.4028 7.58136 16.0774 7.25593L15 6.17851L13.9226 7.25593C13.5972 7.58136 13.0695 7.58136 12.7441 7.25593C12.4187 6.93048 12.4187 6.40285 12.7441 6.07741L13.8215 5L12.7441 3.92259C12.4187 3.59715 12.4187 3.06952 12.7441 2.74408ZM15 8.33333C15.4602 8.33333 15.8333 8.70642 15.8333 9.16667V12.6423C16.8043 12.9854 17.5 13.9115 17.5 15C17.5 16.3807 16.3807 17.5 15 17.5C13.6192 17.5 12.5 16.3807 12.5 15C12.5 13.9115 13.1957 12.9854 14.1667 12.6423V9.16667C14.1667 8.70642 14.5398 8.33333 15 8.33333ZM5 14.1667C4.53977 14.1667 4.16667 14.5398 4.16667 15C4.16667 15.4602 4.53977 15.8333 5 15.8333C5.46023 15.8333 5.83333 15.4602 5.83333 15C5.83333 14.5398 5.46023 14.1667 5 14.1667ZM15 14.1667C14.5398 14.1667 14.1667 14.5398 14.1667 15C14.1667 15.4602 14.5398 15.8333 15 15.8333C15.4602 15.8333 15.8333 15.4602 15.8333 15C15.8333 14.5398 15.4602 14.1667 15 14.1667Z" fill="#E3E3E3"/>
</svg>
