<svg width="20" height="20" viewBox="0 0 20 20" fill="none" xmlns="http://www.w3.org/2000/svg">
<path d="M15 13.3333V11.6666H15.8333V3.33329H5V11.6961C5.13608 11.6767 5.2752 11.6666 5.41667 11.6666H6.66667V13.3333H5.41667C4.72631 13.3333 4.16667 13.893 4.16667 14.5833C4.16667 15.2736 4.72631 15.8333 5.41667 15.8333H8.33333V17.5H5.41667C3.80583 17.5 2.5 16.1941 2.5 14.5833V4.16663C2.5 2.78592 3.61929 1.66663 5 1.66663H16.6667C17.1269 1.66663 17.5 2.03973 17.5 2.49996V16.6666C17.5 17.1269 17.1269 17.5 16.6667 17.5H13.3333V15.8333H15.8333V13.3333H15ZM5.83333 4.16663H7.5V5.83329H5.83333V4.16663ZM5.83333 6.66663H7.5V8.33329H5.83333V6.66663ZM11.6667 14.1666V19.1666H10V14.1666H7.5L10.8333 9.99996L14.1667 14.1666H11.6667Z" fill="#E3E3E3"/>
</svg>
