<svg width="20" height="20" viewBox="0 0 20 20" fill="none" xmlns="http://www.w3.org/2000/svg">
<path d="M2.49984 2.5H17.4998C17.9601 2.5 18.3332 2.8731 18.3332 3.33333V16.6667C18.3332 17.1269 17.9601 17.5 17.4998 17.5H2.49984C2.0396 17.5 1.6665 17.1269 1.6665 16.6667V3.33333C1.6665 2.8731 2.0396 2.5 2.49984 2.5ZM3.33317 4.16667V15.8333H16.6665V4.16667H3.33317ZM16.6665 10L13.7203 12.9462L12.5418 11.7677L14.3095 10L12.5418 8.23223L13.7203 7.05372L16.6665 10ZM5.6902 10L7.45796 11.7677L6.27944 12.9462L3.33317 10L6.27944 7.05372L7.45796 8.23223L5.6902 10ZM9.37009 14.1667H7.59648L10.6296 5.83333H12.4032L9.37009 14.1667Z" fill="#E3E3E3"/>
</svg>
