<svg width="20" height="20" viewBox="0 0 20 20" fill="none" xmlns="http://www.w3.org/2000/svg">
<path d="M4.16667 5C4.16667 4.53977 4.53977 4.16667 5 4.16667C5.46023 4.16667 5.83333 4.53977 5.83333 5C5.83333 5.46023 5.46023 5.83333 5 5.83333C4.53977 5.83333 4.16667 5.46023 4.16667 5ZM5 2.5C3.61929 2.5 2.5 3.61929 2.5 5C2.5 6.08852 3.19568 7.01455 4.16667 7.35774V12.6423C3.19568 12.9854 2.5 13.9115 2.5 15C2.5 16.3807 3.61929 17.5 5 17.5C6.38071 17.5 7.5 16.3807 7.5 15C7.5 13.9115 6.80433 12.9854 5.83333 12.6423V7.35774C6.80433 7.01455 7.5 6.08852 7.5 5C7.5 3.61929 6.38071 2.5 5 2.5ZM4.16667 15C4.16667 14.5398 4.53977 14.1667 5 14.1667C5.46023 14.1667 5.83333 14.5398 5.83333 15C5.83333 15.4602 5.46023 15.8333 5 15.8333C4.53977 15.8333 4.16667 15.4602 4.16667 15ZM15 14.1667C14.5398 14.1667 14.1667 14.5398 14.1667 15C14.1667 15.4602 14.5398 15.8333 15 15.8333C15.4602 15.8333 15.8333 15.4602 15.8333 15C15.8333 14.5398 15.4602 14.1667 15 14.1667ZM12.5 15C12.5 13.6192 13.6192 12.5 15 12.5C16.3807 12.5 17.5 13.6192 17.5 15C17.5 16.3807 16.3807 17.5 15 17.5C13.6192 17.5 12.5 16.3807 12.5 15ZM15 6.25C15.6903 6.25 16.25 5.69036 16.25 5C16.25 4.30964 15.6903 3.75 15 3.75C14.3097 3.75 13.75 4.30964 13.75 5C13.75 5.69036 14.3097 6.25 15 6.25ZM16.25 9.58333C16.25 10.2737 15.6903 10.8333 15 10.8333C14.3097 10.8333 13.75 10.2737 13.75 9.58333C13.75 8.893 14.3097 8.33333 15 8.33333C15.6903 8.33333 16.25 8.893 16.25 9.58333Z" fill="#E3E3E3"/>
</svg>
