<svg width="20" height="20" viewBox="0 0 20 20" fill="none" xmlns="http://www.w3.org/2000/svg">
<path d="M5 2.5C3.61929 2.5 2.5 3.61929 2.5 5V15C2.5 16.3807 3.61929 17.5 5 17.5H15C16.3807 17.5 17.5 16.3807 17.5 15V5C17.5 3.61929 16.3807 2.5 15 2.5H5ZM11.112 13.3792C11.7109 13.8619 12.3097 14.1003 12.9087 14.0942C13.2753 14.0942 13.5564 14.0269 13.752 13.8925C13.9414 13.7642 14.0362 13.5808 14.0362 13.3425C14.0362 13.0981 13.9414 12.8902 13.752 12.7192C13.5564 12.5481 13.1867 12.3769 12.6428 12.2058C11.9889 12.0164 11.4847 11.7719 11.1303 11.4725C10.782 11.1731 10.6047 10.7544 10.5987 10.2167C10.5987 9.70942 10.8187 9.28475 11.2587 8.9425C11.6864 8.60025 12.2334 8.42917 12.8995 8.42917C13.8284 8.42917 14.5739 8.65525 15.1362 9.1075L14.4945 10.1067C14.2684 9.92942 14.0087 9.80108 13.7153 9.72167C13.422 9.63 13.1592 9.58417 12.927 9.58417C12.6092 9.58417 12.3556 9.64225 12.1662 9.75833C11.9767 9.87442 11.882 10.0272 11.882 10.2167C11.882 10.4244 11.9981 10.6017 12.2303 10.7483C12.4626 10.8889 12.8597 11.0447 13.422 11.2158C14.1003 11.4175 14.5831 11.6864 14.8703 12.0225C15.1576 12.3586 15.3012 12.7864 15.3012 13.3058C15.3012 13.8375 15.0964 14.2958 14.687 14.6808C14.2837 15.0598 13.697 15.2583 12.927 15.2767C11.9187 15.2767 11.0753 14.9742 10.397 14.3692L11.112 13.3792ZM6.50338 13.9108C6.69893 14.0331 6.93421 14.0942 7.20921 14.0942C7.49643 14.0942 7.73477 14.0117 7.92421 13.8467C8.11366 13.6756 8.20837 13.3792 8.20837 12.9575V8.53917H9.44592V13.1958C9.42758 13.9169 9.21975 14.4364 8.82258 14.7542C8.59642 14.9436 8.34892 15.0781 8.08004 15.1575C7.81116 15.2369 7.55143 15.2767 7.30088 15.2767C6.84254 15.2767 6.43616 15.1972 6.08171 15.0383C5.70282 14.8672 5.38504 14.5648 5.12837 14.1308L5.99004 13.425C6.14893 13.6389 6.32004 13.8008 6.50338 13.9108Z" fill="#E3E3E3"/>
</svg>
