<svg width="20" height="20" viewBox="0 0 20 20" fill="none" xmlns="http://www.w3.org/2000/svg">
<path d="M4.10933 7.88305H2.99488L2.3869 11.0092H3.3762C4.03259 11.0092 4.52134 10.8852 4.84245 10.6384C5.16356 10.3905 5.3796 9.97853 5.49175 9.40003C5.60036 8.84519 5.55079 8.45328 5.34537 8.2254C5.13877 7.99755 4.72794 7.88305 4.10933 7.88305ZM6.15169 11.3444C5.84356 11.6396 5.47287 11.8615 5.06912 11.9949C4.67245 12.1224 4.166 12.1885 3.5521 12.1885H2.15786L1.77183 14.173H0.14502L1.5971 6.70485H4.72557C5.66648 6.70485 6.35238 6.95159 6.78446 7.44624C7.21655 7.93971 7.3464 8.62919 7.17405 9.51461C7.10803 9.86494 6.98647 10.2025 6.81398 10.5145C6.64515 10.8155 6.4244 11.0929 6.15169 11.3444ZM10.9022 12.1885L11.5432 8.8842C11.6177 8.50878 11.5893 8.25138 11.463 8.11561C11.3367 7.97867 11.0663 7.9102 10.652 7.9102H9.36283L8.53166 12.1897H6.91669L8.36875 4.72034H9.98258L9.59658 6.70603H11.0345C11.9399 6.70603 12.5632 6.86422 12.9068 7.17943C13.2503 7.49464 13.3531 8.00582 13.2173 8.71294L12.542 12.1885H10.9022ZM19.8709 9.51461C19.806 9.86519 19.6843 10.2029 19.5108 10.5145C19.342 10.8155 19.1212 11.0929 18.8486 11.3444C18.5402 11.6387 18.1705 11.8609 17.766 11.9949C17.3693 12.1224 16.8628 12.1885 16.2478 12.1885H14.8547L14.4687 14.1742H12.8419L14.294 6.70603H17.4212C18.3622 6.70603 19.0481 6.95276 19.4802 7.44742C19.9122 7.93971 20.0432 8.62919 19.8709 9.51461ZM16.8074 7.88305H15.6941L15.0849 11.0092H16.0742C16.7318 11.0092 17.2206 10.8852 17.5405 10.6384C17.8616 10.3905 18.0777 9.97853 18.191 9.40003C18.2996 8.84519 18.2488 8.45328 18.0434 8.2254C17.838 7.99755 17.4248 7.88305 16.8074 7.88305Z" fill="#E3E3E3"/>
</svg>
