<svg width="20" height="20" viewBox="0 0 20 20" fill="none" xmlns="http://www.w3.org/2000/svg">
<path d="M8.45809 4.62488L7.02703 11.987H8.69367L9.40926 8.30599H10.6593C11.1195 8.30599 11.4213 8.67221 11.3336 9.12405L10.777 11.987H12.4437L13.0003 9.12405C13.2637 7.76866 12.3579 6.66994 10.9773 6.66994H9.72725L10.1248 4.62488H8.45809ZM1.81046 6.66998H4.93546C6.43123 6.66998 7.41243 7.86026 7.12702 9.32855C6.84161 10.7969 5.39768 11.9871 3.90191 11.9871H2.44358L2.04606 14.0322H0.379395L1.81046 6.66998ZM2.7616 10.351H4.21993C4.79522 10.351 5.35058 9.89329 5.46036 9.32855C5.57012 8.76379 5.19275 8.30602 4.61745 8.30602H3.15911L2.7616 10.351ZM14.3104 6.66998H17.4354C18.9313 6.66998 19.9124 7.86026 19.627 9.32855C19.3416 10.7969 17.8977 11.9871 16.4019 11.9871H14.9436L14.5461 14.0322H12.8794L14.3104 6.66998ZM15.2616 10.351H16.7199C17.2953 10.351 17.8506 9.89329 17.9603 9.32855C18.0701 8.76379 17.6928 8.30602 17.1174 8.30602H15.6591L15.2616 10.351Z" fill="#E3E3E3"/>
</svg>
