<svg width="20" height="20" viewBox="0 0 20 20" fill="none" xmlns="http://www.w3.org/2000/svg">
<path d="M6.66667 3.33337C6.66667 1.95267 7.78596 0.833374 9.16667 0.833374C10.5474 0.833374 11.6667 1.95267 11.6667 3.33337C11.6667 3.62557 11.6165 3.90606 11.5244 4.16671H16.6667C17.1269 4.16671 17.5 4.53981 17.5 5.00004V7.60506C17.5 7.86268 17.3808 8.10582 17.1772 8.26366C16.9736 8.42154 16.7084 8.47629 16.4589 8.41212C16.2599 8.36087 16.0504 8.33337 15.8333 8.33337C14.4526 8.33337 13.3333 9.45262 13.3333 10.8334C13.3333 12.2141 14.4526 13.3334 15.8333 13.3334C16.0504 13.3334 16.2599 13.3059 16.4589 13.2546C16.7084 13.1905 16.9736 13.2452 17.1772 13.403C17.3808 13.561 17.5 13.804 17.5 14.0617V16.6667C17.5 17.127 17.1269 17.5 16.6667 17.5H3.33333C2.8731 17.5 2.5 17.127 2.5 16.6667V5.00004C2.5 4.53981 2.8731 4.16671 3.33333 4.16671H6.80892C6.71679 3.90606 6.66667 3.62557 6.66667 3.33337Z" fill="#E3E3E3"/>
</svg>
