<svg width="20" height="20" viewBox="0 0 20 20" fill="none" xmlns="http://www.w3.org/2000/svg">
<path d="M5.00016 3.33329V16.6666H15.0002V6.52365L11.8098 3.33329H5.00016ZM4.16683 1.66663H12.5002L16.4227 5.58922C16.579 5.74549 16.6668 5.95746 16.6668 6.17847V17.5C16.6668 17.9602 16.2937 18.3333 15.8335 18.3333H4.16683C3.7066 18.3333 3.3335 17.9602 3.3335 17.5V2.49996C3.3335 2.03973 3.7066 1.66663 4.16683 1.66663ZM10.8335 8.33329V15H9.16683V9.99996H6.66683V8.33329H10.8335ZM6.66683 10.8333H8.3335V12.5H6.66683V10.8333ZM11.6668 10.8333H13.3335V12.5H11.6668V10.8333ZM11.6668 8.33329H13.3335V9.99996H11.6668V8.33329ZM6.66683 13.3333H8.3335V15H6.66683V13.3333ZM11.6668 13.3333H13.3335V15H11.6668V13.3333Z" fill="#E3E3E3"/>
</svg>
