<svg width="20" height="20" viewBox="0 0 20 20" fill="none" xmlns="http://www.w3.org/2000/svg">
<path d="M9.99984 0.833374L12.4998 5.00004H10.8332V11.1509L13.3332 9.90171L13.3323 9.16671H12.4998V5.83337H15.8332V9.16671H14.999L14.9998 10.9317L10.8332 13.015L10.8339 14.3092C11.8045 14.6526 12.4998 15.5785 12.4998 16.6667C12.4998 18.0475 11.3806 19.1667 9.99984 19.1667C8.61909 19.1667 7.49984 18.0475 7.49984 16.6667C7.49984 15.6775 8.07429 14.8226 8.90775 14.4172L4.99984 11.6667L4.99894 9.77654C4.50127 9.48821 4.1665 8.94987 4.1665 8.33337C4.1665 7.4129 4.9127 6.66671 5.83317 6.66671C6.75365 6.66671 7.49984 7.4129 7.49984 8.33337C7.49984 8.95029 7.1647 9.48888 6.66656 9.77704L6.6665 10.8334L9.1665 12.5717V5.00004H7.49984L9.99984 0.833374Z" fill="#E3E3E3"/>
</svg>
