<svg width="20" height="20" viewBox="0 0 20 20" fill="none" xmlns="http://www.w3.org/2000/svg">
<path d="M14.9998 1.66663C15.4601 1.66663 15.8332 2.03973 15.8332 2.49996V8.33329H14.1665V3.33329H5.83317V16.6666H9.99984V18.3333H4.99984C4.5396 18.3333 4.1665 17.9602 4.1665 17.5V2.49996C4.1665 2.03973 4.5396 1.66663 4.99984 1.66663H14.9998ZM14.9998 9.99996C16.3806 9.99996 17.4998 11.1192 17.4998 12.5V13.3333H18.3332V17.5C18.3332 17.9602 17.9601 18.3333 17.4998 18.3333H12.4998C12.0396 18.3333 11.6665 17.9602 11.6665 17.5V13.3333H12.4998V12.5C12.4998 11.1192 13.6191 9.99996 14.9998 9.99996ZM16.6665 15H13.3332V16.6666H16.6665V15ZM14.9998 11.6666C14.5764 11.6666 14.1665 12.0416 14.1665 12.5V13.3333H15.8332V12.5C15.8332 12.0397 15.4601 11.6666 14.9998 11.6666Z" fill="#E3E3E3"/>
</svg>
