<svg width="20" height="20" viewBox="0 0 20 20" fill="none" xmlns="http://www.w3.org/2000/svg">
<path d="M9.28441 3.33329C7.96575 3.33329 7.29484 3.47393 6.67738 3.80414C6.15301 4.08458 5.75145 4.48614 5.47101 5.01051C5.1408 5.62797 5.00016 6.29888 5.00016 7.61755V12.3824C5.00016 13.701 5.1408 14.372 5.47101 14.9894C5.75145 15.5138 6.15301 15.9154 6.67738 16.1958C7.29484 16.526 7.96575 16.6666 9.28441 16.6666H10.7159C12.0346 16.6666 12.7055 16.526 13.3229 16.1958C13.8473 15.9154 14.2489 15.5138 14.5293 14.9894C14.8595 14.372 15.0002 13.701 15.0002 12.3824V7.61755C15.0002 6.29888 14.8595 5.62797 14.5293 5.01051C14.2489 4.48614 13.8473 4.08458 13.3229 3.80414C12.7055 3.47393 12.0346 3.33329 10.7159 3.33329H9.28441ZM9.28441 1.66663H10.7159C12.3942 1.66663 13.2942 1.89869 14.1089 2.33446C14.9237 2.77023 15.5632 3.4097 15.999 4.22451C16.4347 5.03933 16.6668 5.9393 16.6668 7.61755V12.3824C16.6668 14.0606 16.4347 14.9606 15.999 15.7754C15.5632 16.5902 14.9237 17.2297 14.1089 17.6655C13.2942 18.1012 12.3942 18.3333 10.7159 18.3333H9.28441C7.60617 18.3333 6.7062 18.1012 5.89138 17.6655C5.07657 17.2297 4.4371 16.5902 4.00133 15.7754C3.56556 14.9606 3.3335 14.0606 3.3335 12.3824V7.61755C3.3335 5.9393 3.56556 5.03933 4.00133 4.22451C4.4371 3.4097 5.07657 2.77023 5.89138 2.33446C6.7062 1.89869 7.60617 1.66663 9.28441 1.66663ZM9.16683 4.99996H10.8335V9.16662H9.16683V4.99996Z" fill="#E3E3E3"/>
</svg>
