<svg width="20" height="20" viewBox="0 0 20 20" fill="none" xmlns="http://www.w3.org/2000/svg">
<path d="M9.99984 1.66663C14.6022 1.66663 18.3332 5.39758 18.3332 9.99996C18.3332 14.6023 14.6022 18.3333 9.99984 18.3333C5.39746 18.3333 1.6665 14.6023 1.6665 9.99996C1.6665 5.39758 5.39746 1.66663 9.99984 1.66663ZM13.83 6.1698C13.6595 5.99934 13.3913 5.97603 13.1939 6.11453C10.7863 7.80453 9.427 8.80504 9.11592 9.11604C8.62784 9.60421 8.62784 10.3957 9.11592 10.8839C9.60409 11.372 10.3956 11.372 10.8838 10.8839C11.0662 10.7014 12.0657 9.34121 13.8821 6.80344C14.0221 6.60792 14 6.33983 13.83 6.1698ZM14.5832 9.16662C14.1229 9.16662 13.7498 9.53971 13.7498 9.99996C13.7498 10.4602 14.1229 10.8333 14.5832 10.8333C15.0434 10.8333 15.4165 10.4602 15.4165 9.99996C15.4165 9.53971 15.0434 9.16662 14.5832 9.16662ZM5.4165 9.16662C4.95627 9.16662 4.58317 9.53971 4.58317 9.99996C4.58317 10.4602 4.95627 10.8333 5.4165 10.8333C5.87674 10.8333 6.24984 10.4602 6.24984 9.99996C6.24984 9.53971 5.87674 9.16662 5.4165 9.16662ZM7.34819 6.1698C7.02275 5.84436 6.49511 5.84436 6.16968 6.1698C5.84424 6.49523 5.84424 7.02287 6.16968 7.34831C6.49511 7.67374 7.02275 7.67374 7.34819 7.34831C7.67362 7.02287 7.67362 6.49523 7.34819 6.1698ZM9.99984 4.58329C9.53959 4.58329 9.1665 4.95639 9.1665 5.41663C9.1665 5.87686 9.53959 6.24996 9.99984 6.24996C10.4601 6.24996 10.8332 5.87686 10.8332 5.41663C10.8332 4.95639 10.4601 4.58329 9.99984 4.58329Z" fill="#E3E3E3"/>
</svg>
