<svg width="20" height="20" viewBox="0 0 20 20" fill="none" xmlns="http://www.w3.org/2000/svg">
<path d="M9.99984 4.99996C9.99984 3.71937 10.4813 2.55122 11.273 1.66663H4.99984C4.5396 1.66663 4.1665 2.03973 4.1665 2.49996V17.5C4.1665 17.9602 4.5396 18.3333 4.99984 18.3333H14.9998C15.4601 18.3333 15.8332 17.9602 15.8332 17.5V9.93079C15.5622 9.97629 15.2838 9.99996 14.9998 9.99996C12.2384 9.99996 9.99984 7.76138 9.99984 4.99996ZM9.99984 14.1666C10.4601 14.1666 10.8332 14.5397 10.8332 15C10.8332 15.4602 10.4601 15.8333 9.99984 15.8333C9.53959 15.8333 9.1665 15.4602 9.1665 15C9.1665 14.5397 9.53959 14.1666 9.99984 14.1666ZM18.3332 4.99996H15.8332V1.66663H14.1665V4.99996H11.6665L14.9998 8.33329L18.3332 4.99996Z" fill="#E3E3E3"/>
</svg>
