<svg width="20" height="20" viewBox="0 0 20 20" fill="none" xmlns="http://www.w3.org/2000/svg">
<path d="M10.0002 2.5C13.5705 2.5 16.8494 3.74736 19.4251 5.83006L10.0002 17.5L0.574707 5.83059C3.15041 3.74757 6.42961 2.5 10.0002 2.5ZM10.0002 12.5C9.42242 12.5 8.86067 12.5978 8.33326 12.7841L10.0002 14.8474L11.6663 12.7833C11.1418 12.6 10.578 12.5 10.0002 12.5ZM10.0002 4.16667C7.47722 4.16667 5.06466 4.86821 2.98306 6.15982L7.24047 11.4296C8.08142 11.0467 9.01592 10.8333 10.0002 10.8333C10.9846 10.8333 11.9191 11.0467 12.76 11.4296L17.0168 6.15943C14.9353 4.86806 12.5229 4.16667 10.0002 4.16667Z" fill="#E3E3E3"/>
</svg>
