<svg width="20" height="20" viewBox="0 0 20 20" fill="none" xmlns="http://www.w3.org/2000/svg">
<path d="M4.72589 3.5475L11.1783 9.99996L9.99984 11.1785L4.73329 5.91193C3.85574 7.04082 3.33317 8.45937 3.33317 9.99996C3.33317 13.6819 6.31794 16.6666 9.99984 16.6666C13.6818 16.6666 16.6665 13.6819 16.6665 9.99996C16.6665 6.31806 13.6818 3.33329 9.99984 3.33329C9.23717 3.33329 8.50434 3.46137 7.82184 3.69718L6.54084 2.41618C7.59445 1.93485 8.76584 1.66663 9.99984 1.66663C14.6022 1.66663 18.3332 5.39758 18.3332 9.99996C18.3332 14.6023 14.6022 18.3333 9.99984 18.3333C5.39746 18.3333 1.6665 14.6023 1.6665 9.99996C1.6665 7.39864 2.85841 5.07572 4.72589 3.5475Z" fill="#E3E3E3"/>
</svg>
