<svg width="20" height="20" viewBox="0 0 20 20" fill="none" xmlns="http://www.w3.org/2000/svg">
<path d="M5.94295 17.2809C3.3917 15.8562 1.6665 13.1295 1.6665 9.99996C1.6665 5.39758 5.39746 1.66663 9.99984 1.66663C14.6022 1.66663 18.3332 5.39758 18.3332 9.99996C18.3332 13.1295 16.608 15.8562 14.0568 17.2809L13.3102 15.788C15.3155 14.6386 16.6665 12.477 16.6665 9.99996C16.6665 6.31806 13.6818 3.33329 9.99984 3.33329C6.31794 3.33329 3.33317 6.31806 3.33317 9.99996C3.33317 12.477 4.68416 14.6386 6.68953 15.788L5.94295 17.2809ZM7.43673 14.294C5.97709 13.4208 4.99984 11.8245 4.99984 9.99996C4.99984 7.23853 7.23841 4.99996 9.99984 4.99996C12.7613 4.99996 14.9998 7.23853 14.9998 9.99996C14.9998 11.8245 14.0226 13.4208 12.5629 14.294L11.8142 12.7967C12.7285 12.2024 13.3332 11.1718 13.3332 9.99996C13.3332 8.15901 11.8408 6.66663 9.99984 6.66663C8.15889 6.66663 6.6665 8.15901 6.6665 9.99996C6.6665 11.1718 7.27116 12.2024 8.18549 12.7967L7.43673 14.294ZM9.99984 13.3333L12.4998 18.3333H7.49984L9.99984 13.3333Z" fill="#E3E3E3"/>
</svg>
