<svg width="20" height="20" viewBox="0 0 20 20" fill="none" xmlns="http://www.w3.org/2000/svg">
<path d="M11.6255 1.66663H16.6667C17.1269 1.66663 17.5 2.03973 17.5 2.49996V17.5C17.5 17.9602 17.1269 18.3333 16.6667 18.3333H3.33333C2.8731 18.3333 2.5 17.9602 2.5 17.5V10.7921C2.77409 10.8194 3.05208 10.8333 3.33333 10.8333C7.93571 10.8333 11.6667 7.10233 11.6667 2.49996C11.6667 2.21871 11.6527 1.94072 11.6255 1.66663ZM12.5 13.3333V15H14.1667V13.3333H12.5ZM9.94842 1.66663C9.9825 1.93962 10 2.21774 10 2.49996C10 6.18186 7.01523 9.16662 3.33333 9.16662C3.05112 9.16662 2.77299 9.14912 2.5 9.11504V2.49996C2.5 2.03973 2.8731 1.66663 3.33333 1.66663H9.94842Z" fill="#E3E3E3"/>
</svg>
