<svg width="20" height="20" viewBox="0 0 20 20" fill="none" xmlns="http://www.w3.org/2000/svg">
<path d="M9.16675 11.6666V9.16662H10.8334V11.6666H15.0001C15.4603 11.6666 15.8334 12.0397 15.8334 12.5V17.5C15.8334 17.9602 15.4603 18.3333 15.0001 18.3333H5.00013C4.53989 18.3333 4.16679 17.9602 4.16679 17.5V12.5C4.16679 12.0397 4.53989 11.6666 5.00013 11.6666H9.16675ZM2.09229 7.36401C3.19527 4.05349 6.31896 1.66663 10.0001 1.66663C13.6813 1.66663 16.805 4.05349 17.908 7.36401L16.3264 7.8912C15.444 5.24278 12.9451 3.33329 10.0001 3.33329C7.05519 3.33329 4.55624 5.24278 3.67385 7.8912L2.09229 7.36401ZM5.25542 8.41838C5.91721 6.43208 7.79143 4.99996 10.0001 4.99996C12.2088 4.99996 14.083 6.43208 14.7448 8.41838L13.1633 8.94554C12.7221 7.62138 11.4726 6.66663 10.0001 6.66663C8.52767 6.66663 7.27818 7.62138 6.83699 8.94554L5.25542 8.41838ZM5.83346 13.3333V16.6666H14.1668V13.3333H5.83346Z" fill="#E3E3E3"/>
</svg>
