<svg width="20" height="20" viewBox="0 0 20 20" fill="none" xmlns="http://www.w3.org/2000/svg">
<path d="M1.66683 4.16663C1.2066 4.16663 0.833496 4.53973 0.833496 4.99996V12.5C0.833496 12.9602 1.2066 13.3333 1.66683 13.3333V15C1.66683 15.4602 2.03993 15.8333 2.50016 15.8333H8.67866L9.512 15H10.4883L11.3217 15.8333H17.5002C17.9604 15.8333 18.3335 15.4602 18.3335 15V13.3333C18.7937 13.3333 19.1668 12.9602 19.1668 12.5V4.99996C19.1668 4.53973 18.7937 4.16663 18.3335 4.16663H1.66683ZM16.6668 13.3333V14.1666H12.012L11.1787 13.3333H16.6668ZM8.82166 13.3333L7.98832 14.1666H3.3335V13.3333H8.82166ZM2.50016 11.6666V5.83329H17.5002V11.6666H2.50016ZM4.16683 7.49996H5.8335V9.99996H4.16683V7.49996ZM9.16683 7.49996H7.50016V9.99996H9.16683V7.49996ZM10.8335 7.49996H12.5002V9.99996H10.8335V7.49996ZM15.8335 7.49996H14.1668V9.99996H15.8335V7.49996Z" fill="#E3E3E3"/>
</svg>
