<svg width="20" height="20" viewBox="0 0 20 20" fill="none" xmlns="http://www.w3.org/2000/svg">
<path d="M15.8333 6.66663H17.5C17.9603 6.66663 18.3333 7.03973 18.3333 7.49996V17.5C18.3333 17.9602 17.9603 18.3333 17.5 18.3333H10.8333C10.3731 18.3333 10 17.9602 10 17.5V16.6666H3.33333C2.8731 16.6666 2.5 16.2935 2.5 15.8333V2.49996C2.5 2.03973 2.8731 1.66663 3.33333 1.66663H15C15.4603 1.66663 15.8333 2.03973 15.8333 2.49996V6.66663ZM14.1667 6.66663V3.33329H4.16667V15H10V7.49996C10 7.03973 10.3731 6.66663 10.8333 6.66663H14.1667ZM11.6667 8.33329V16.6666H16.6667V8.33329H11.6667Z" fill="#E3E3E3"/>
</svg>
