<svg width="20" height="20" viewBox="0 0 20 20" fill="none" xmlns="http://www.w3.org/2000/svg">
<path d="M3.27422 4.1073L4.45279 5.28586C3.24635 6.49229 2.50016 8.15896 2.50016 9.99994C2.50016 11.8409 3.24635 13.5075 4.45279 14.7139L3.27422 15.8925C1.7662 14.3845 0.833496 12.3012 0.833496 9.99994C0.833496 7.69866 1.7662 5.61532 3.27422 4.1073ZM16.7261 4.1073C18.2342 5.61532 19.1668 7.69866 19.1668 9.99994C19.1668 12.3012 18.2342 14.3845 16.7261 15.8925L15.5476 14.7139C16.754 13.5075 17.5002 11.8409 17.5002 9.99994C17.5002 8.15938 16.7543 6.49306 15.5484 5.28669L16.7261 4.1073ZM10.8335 4.16657V9.16661H13.3335L9.16683 15.8333V10.8333H6.66683L10.8335 4.16657ZM5.6313 6.46437L6.8098 7.64288C6.20659 8.2461 5.8335 9.07944 5.8335 9.99994C5.8335 10.9204 6.20659 11.7537 6.8098 12.3569L5.6313 13.5354C4.72647 12.6306 4.16683 11.3806 4.16683 9.99994C4.16683 8.61919 4.72647 7.36919 5.6313 6.46437ZM14.3698 6.46519C15.2742 7.36995 15.8335 8.61961 15.8335 9.99994C15.8335 11.3806 15.2738 12.6306 14.369 13.5354L13.1905 12.3569C13.7937 11.7537 14.1668 10.9204 14.1668 9.99994C14.1668 9.07986 13.7941 8.24687 13.1913 7.64372L14.3698 6.46519Z" fill="#E3E3E3"/>
</svg>
