<svg width="20" height="20" viewBox="0 0 20 20" fill="none" xmlns="http://www.w3.org/2000/svg">
<path d="M9.99984 18.3333C5.39746 18.3333 1.6665 14.6023 1.6665 9.99996C1.6665 5.39758 5.39746 1.66663 9.99984 1.66663C14.6022 1.66663 18.3332 5.39758 18.3332 9.99996C18.3332 14.6023 14.6022 18.3333 9.99984 18.3333ZM14.0166 14.23C15.1355 13.1672 15.8332 11.665 15.8332 9.99996C15.8332 6.7783 13.2215 4.16663 9.99984 4.16663C6.77818 4.16663 4.1665 6.7783 4.1665 9.99996C4.1665 13.2216 6.77818 15.8333 9.99984 15.8333C10.8839 15.8333 11.722 15.6366 12.4728 15.2847L11.6605 13.8225C11.1518 14.0439 10.5901 14.1666 9.99984 14.1666C7.69865 14.1666 5.83317 12.3011 5.83317 9.99996C5.83317 7.69877 7.69865 5.83329 9.99984 5.83329C12.301 5.83329 14.1665 7.69877 14.1665 9.99996H11.6665L14.0166 14.23Z" fill="#E3E3E3"/>
</svg>
