<svg width="20" height="20" viewBox="0 0 20 20" fill="none" xmlns="http://www.w3.org/2000/svg">
<path d="M4.99984 15H14.9998V4.99996H4.99984V15ZM11.6665 16.6666H8.33317V18.3333H6.6665V16.6666H4.1665C3.70627 16.6666 3.33317 16.2935 3.33317 15.8333V13.3333H1.6665V11.6666H3.33317V8.33329H1.6665V6.66663H3.33317V4.16663C3.33317 3.70639 3.70627 3.33329 4.1665 3.33329H6.6665V1.66663H8.33317V3.33329H11.6665V1.66663H13.3332V3.33329H15.8332C16.2934 3.33329 16.6665 3.70639 16.6665 4.16663V6.66663H18.3332V8.33329H16.6665V11.6666H18.3332V13.3333H16.6665V15.8333C16.6665 16.2935 16.2934 16.6666 15.8332 16.6666H13.3332V18.3333H11.6665V16.6666ZM6.6665 6.66663H13.3332V13.3333H6.6665V6.66663Z" fill="#E3E3E3"/>
</svg>
