<svg width="20" height="20" viewBox="0 0 20 20" fill="none" xmlns="http://www.w3.org/2000/svg">
<path d="M9.28441 1.66663H10.7159C12.3942 1.66663 13.2942 1.89869 14.1089 2.33446C14.9237 2.77023 15.5632 3.4097 15.999 4.22451C16.4347 5.03933 16.6668 5.9393 16.6668 7.61755V12.3824C16.6668 14.0606 16.4347 14.9606 15.999 15.7754C15.5632 16.5902 14.9237 17.2297 14.1089 17.6655C13.2942 18.1012 12.3942 18.3333 10.7159 18.3333H9.28441C7.60617 18.3333 6.7062 18.1012 5.89138 17.6655C5.07657 17.2297 4.4371 16.5902 4.00133 15.7754C3.56556 14.9606 3.3335 14.0606 3.3335 12.3824V7.61755C3.3335 5.9393 3.56556 5.03933 4.00133 4.22451C4.4371 3.4097 5.07657 2.77023 5.89138 2.33446C6.7062 1.89869 7.60617 1.66663 9.28441 1.66663ZM9.16683 4.99996V9.16662H10.8335V4.99996H9.16683Z" fill="#E3E3E3"/>
</svg>
