<svg width="20" height="20" viewBox="0 0 20 20" fill="none" xmlns="http://www.w3.org/2000/svg">
<path d="M10 0.833374C14.1422 0.833374 17.5 4.19124 17.5 8.33337V11.6667C17.5 14.1986 16.2454 16.4375 14.3239 17.7955C14.7637 16.3863 15 14.8875 15 13.3334L14.9997 11.6659H13.333L13.3333 13.3334L13.3308 13.5958C13.2946 15.4703 12.8716 17.25 12.1381 18.8587C11.4597 19.0588 10.7424 19.1667 10 19.1667C9.71558 19.1667 9.43483 19.1509 9.15858 19.12C10.2197 17.4462 10.8333 15.4615 10.8333 13.3334V7.50004H9.16667V13.3334L9.16358 13.5737C9.11425 15.491 8.47617 17.2619 7.42321 18.7123C6.62133 18.419 5.88323 17.9925 5.23599 17.4596C6.1323 16.3244 6.66667 14.8913 6.66667 13.3334V8.33337L6.67075 8.16701C6.69806 7.61129 6.86147 7.09135 7.12833 6.63982L5.92446 5.43614C5.34236 6.25352 5 7.25347 5 8.33337V13.3334L4.99655 13.5208C4.95913 14.5364 4.61882 15.4745 4.06277 16.2478C3.08219 14.9802 2.5 13.3915 2.5 11.6667V8.33337C2.5 4.19124 5.85787 0.833374 10 0.833374ZM10 3.33337C8.92017 3.33337 7.92028 3.67568 7.10294 4.25772L8.30707 5.46134C8.80325 5.16823 9.382 5.00004 10 5.00004C11.8409 5.00004 13.3333 6.49242 13.3333 8.33337V10H15V8.33337C15 5.57195 12.7614 3.33337 10 3.33337Z" fill="#E3E3E3"/>
</svg>
