<svg width="20" height="20" viewBox="0 0 20 20" fill="none" xmlns="http://www.w3.org/2000/svg">
<path d="M15.8333 9.99996H4.16667V16.6666H15.8333V9.99996ZM4.16667 8.33329V1.66663H15.8333V8.33329H16.6667C17.1269 8.33329 17.5 8.70637 17.5 9.16662V17.5C17.5 17.9602 17.1269 18.3333 16.6667 18.3333H3.33333C2.8731 18.3333 2.5 17.9602 2.5 17.5V9.16662C2.5 8.70637 2.8731 8.33329 3.33333 8.33329H4.16667ZM5.83333 8.33329H14.1667V3.33329H5.83333V8.33329ZM7.5 4.99996H9.16667V6.66663H7.5V4.99996ZM10.8333 4.99996H12.5V6.66663H10.8333V4.99996Z" fill="#E3E3E3"/>
</svg>
