<svg width="20" height="20" viewBox="0 0 20 20" fill="none" xmlns="http://www.w3.org/2000/svg">
<path d="M6.66683 3.33329V8.16108C6.66683 8.71246 6.44823 9.24137 6.05893 9.63196L5.00016 10.694V16.6666H15.0002V3.33329H6.66683ZM5.8335 1.66663H15.8335C16.2937 1.66663 16.6668 2.03973 16.6668 2.49996V17.5C16.6668 17.9602 16.2937 18.3333 15.8335 18.3333H4.16683C3.7066 18.3333 3.3335 17.9602 3.3335 17.5V10.3496C3.3335 10.129 3.42094 9.91746 3.57665 9.76121L4.87858 8.45529C4.95645 8.37713 5.00016 8.27137 5.00016 8.16108V2.49996C5.00016 2.03973 5.37326 1.66663 5.8335 1.66663ZM12.5002 4.16663H14.1668V7.49996H12.5002V4.16663ZM10.0002 4.16663H11.6668V7.49996H10.0002V4.16663ZM7.50016 4.16663H9.16683V7.49996H7.50016V4.16663Z" fill="#E3E3E3"/>
</svg>
