<svg width="20" height="20" viewBox="0 0 20 20" fill="none" xmlns="http://www.w3.org/2000/svg">
<path d="M14.9998 1.66663C15.4601 1.66663 15.8332 2.03973 15.8332 2.49996V17.5C15.8332 17.9602 15.4601 18.3333 14.9998 18.3333H4.99984C4.5396 18.3333 4.1665 17.9602 4.1665 17.5V2.49996C4.1665 2.03973 4.5396 1.66663 4.99984 1.66663H14.9998ZM12.4998 12.5H10.8332V14.1666H12.4998V12.5ZM9.1665 12.5H7.49984V14.1666H9.1665V12.5ZM10.8332 4.99996H9.1665V6.66663H7.49984V8.33329H9.16567L9.1665 9.99996H10.8332L10.8323 8.33329H12.4998V6.66663H10.8332V4.99996Z" fill="#E3E3E3"/>
</svg>
