<svg width="20" height="20" viewBox="0 0 20 20" fill="none" xmlns="http://www.w3.org/2000/svg">
<path d="M7.5 1.66663V3.33329H4.16667L4.16583 11.6666H15.8325L15.8333 3.33329H12.5V1.66663H16.6667C17.1269 1.66663 17.5 2.03973 17.5 2.49996V17.5C17.5 17.9602 17.1269 18.3333 16.6667 18.3333H3.33333C2.8731 18.3333 2.5 17.9602 2.5 17.5V2.49996C2.5 2.03973 2.8731 1.66663 3.33333 1.66663H7.5ZM15.8325 13.3333H4.16583L4.16667 16.6666H15.8333L15.8325 13.3333ZM14.1667 14.1666V15.8333H12.5V14.1666H14.1667ZM10.8333 1.66663V5.83329H13.3333L10 9.16662L6.66667 5.83329H9.16667V1.66663H10.8333Z" fill="#E3E3E3"/>
</svg>
