<svg width="20" height="20" viewBox="0 0 20 20" fill="none" xmlns="http://www.w3.org/2000/svg">
<path d="M15.8335 1.66663C16.2937 1.66663 16.6668 2.03973 16.6668 2.49996V17.5C16.6668 17.9602 16.2937 18.3333 15.8335 18.3333H4.16683C3.7066 18.3333 3.3335 17.9602 3.3335 17.5V2.49996C3.3335 2.03973 3.7066 1.66663 4.16683 1.66663H15.8335ZM15.0002 3.33329H5.00016V16.6666H15.0002V3.33329ZM10.0002 5.83329C12.3013 5.83329 14.1668 7.69877 14.1668 9.99996C14.1668 11.4977 13.3766 12.8109 12.1903 13.5453L10.4168 9.99996H12.5002C12.5002 8.61921 11.3809 7.49996 10.0002 7.49996C8.61941 7.49996 7.50016 8.61921 7.50016 9.99996C7.50016 11.3807 8.61941 12.5 10.0002 12.5L10.7962 14.0907C10.5385 14.1405 10.2724 14.1666 10.0002 14.1666C7.69898 14.1666 5.8335 12.3011 5.8335 9.99996C5.8335 7.69877 7.69898 5.83329 10.0002 5.83329Z" fill="#E3E3E3"/>
</svg>
