<svg width="20" height="20" viewBox="0 0 20 20" fill="none" xmlns="http://www.w3.org/2000/svg">
<path d="M0.574707 5.83049C3.15039 3.74753 6.42955 2.5 10.0001 2.5C13.5706 2.5 16.8497 3.74753 19.4255 5.83049L18.3782 7.1271C16.0887 5.27558 13.1739 4.16667 10.0001 4.16667C6.82627 4.16667 3.91146 5.27558 1.62197 7.1271L0.574707 5.83049ZM3.19286 9.072C5.05308 7.56766 7.42136 6.66667 10.0001 6.66667C12.5788 6.66667 14.9471 7.56766 16.8073 9.072L15.76 10.3687C14.186 9.09575 12.1821 8.33333 10.0001 8.33333C7.81809 8.33333 5.81415 9.09575 4.24013 10.3687L3.19286 9.072ZM5.81103 12.3136C6.95577 11.3878 8.41316 10.8333 10.0001 10.8333C11.587 10.8333 13.0444 11.3878 14.1892 12.3136L13.1419 13.6102C12.2833 12.9158 11.1902 12.5 10.0001 12.5C8.80991 12.5 7.71685 12.9158 6.85829 13.6102L5.81103 12.3136ZM8.42916 15.5551C8.8585 15.2079 9.405 15 10.0001 15C10.5952 15 11.1417 15.2079 11.571 15.5551L10.0001 17.5L8.42916 15.5551Z" fill="#E3E3E3"/>
</svg>
