<svg width="20" height="20" viewBox="0 0 20 20" fill="none" xmlns="http://www.w3.org/2000/svg">
<path d="M14.1668 3.33337C16.9282 3.33337 19.1668 5.57195 19.1668 8.33337V11.6667C19.1668 14.4281 16.9282 16.6667 14.1668 16.6667H5.8335C3.07207 16.6667 0.833496 14.4281 0.833496 11.6667V8.33337C0.833496 5.57195 3.07207 3.33337 5.8335 3.33337H14.1668ZM14.1668 5.00004H5.8335C4.04833 5.00004 2.59093 6.40335 2.50425 8.16701L2.50016 8.33337V11.6667C2.50016 13.4519 3.90347 14.9093 5.66713 14.996L5.8335 15H14.1668C15.952 15 17.4094 13.5967 17.4961 11.833L17.5002 11.6667V8.33337C17.5002 6.54821 16.0968 5.09081 14.3332 5.00412L14.1668 5.00004ZM8.3335 7.50004V9.16671H10.0002V10.8334H8.33266L8.3335 12.5H6.66683L6.666 10.8334H5.00016V9.16671H6.66683V7.50004H8.3335ZM15.0002 10.8334V12.5H13.3335V10.8334H15.0002ZM13.3335 7.50004V9.16671H11.6668V7.50004H13.3335Z" fill="#E3E3E3"/>
</svg>
