<svg width="20" height="20" viewBox="0 0 20 20" fill="none" xmlns="http://www.w3.org/2000/svg">
<path d="M2.49984 2.5H17.4998C17.9601 2.5 18.3332 2.8731 18.3332 3.33333V16.6667C18.3332 17.1269 17.9601 17.5 17.4998 17.5H12.4998C12.4998 16.9332 12.4563 16.3766 12.3724 15.8333H16.6665V4.16667H3.33317V6.79408C2.78989 6.71019 2.23328 6.66667 1.6665 6.66667V3.33333C1.6665 2.8731 2.0396 2.5 2.49984 2.5ZM10.8332 17.5H9.1665C9.1665 13.3578 5.80864 10 1.6665 10V8.33333C6.72911 8.33333 10.8332 12.4374 10.8332 17.5ZM7.49984 17.5H5.83317C5.83317 15.1988 3.96769 13.3333 1.6665 13.3333V11.6667C4.88816 11.6667 7.49984 14.2783 7.49984 17.5ZM4.1665 17.5H1.6665V15C3.04721 15 4.1665 16.1192 4.1665 17.5ZM11.9773 14.1667C10.9107 10.8647 8.30184 8.25587 4.99984 7.18917V5.83333H14.9998V14.1667H11.9773Z" fill="#E3E3E3"/>
</svg>
