<svg width="20" height="20" viewBox="0 0 20 20" fill="none" xmlns="http://www.w3.org/2000/svg">
<path d="M1.66683 4.16663H18.3335C18.7937 4.16663 19.1668 4.53973 19.1668 4.99996V12.5C19.1668 12.9602 18.7937 13.3333 18.3335 13.3333V15C18.3335 15.4602 17.9604 15.8333 17.5002 15.8333H11.3217L10.4883 15H9.512L8.67866 15.8333H2.50016C2.03993 15.8333 1.66683 15.4602 1.66683 15V13.3333C1.2066 13.3333 0.833496 12.9602 0.833496 12.5V4.99996C0.833496 4.53972 1.2066 4.16663 1.66683 4.16663ZM3.3335 13.3333V14.1666H7.98832L8.82166 13.3333H3.3335ZM11.1787 13.3333L12.012 14.1666H16.6668V13.3333H11.1787ZM5.8335 7.49996H4.16683V9.99996H5.8335V7.49996ZM7.50016 7.49996V9.99996H9.16683V7.49996H7.50016ZM12.5002 7.49996H10.8335V9.99996H12.5002V7.49996ZM14.1668 7.49996V9.99996H15.8335V7.49996H14.1668Z" fill="#E3E3E3"/>
</svg>
