<svg width="20" height="20" viewBox="0 0 20 20" fill="none" xmlns="http://www.w3.org/2000/svg">
<path d="M9.99984 18.3333C5.39746 18.3333 1.6665 14.6023 1.6665 9.99996C1.6665 5.39758 5.39746 1.66663 9.99984 1.66663C14.6022 1.66663 18.3332 5.39758 18.3332 9.99996C18.3332 14.6023 14.6022 18.3333 9.99984 18.3333ZM6.77152 9.16662H3.38475C3.3507 9.43962 3.33317 9.71771 3.33317 9.99996C3.33317 10.2822 3.3507 10.5603 3.38475 10.8333H6.77152C6.70296 10.567 6.6665 10.2877 6.6665 9.99996C6.6665 9.71221 6.70296 9.43296 6.77152 9.16662ZM13.2282 9.16662C13.2967 9.43296 13.3332 9.71221 13.3332 9.99996C13.3332 10.2877 13.2967 10.567 13.2282 10.8333H16.6149C16.649 10.5603 16.6665 10.2822 16.6665 9.99996C16.6665 9.71771 16.649 9.43962 16.6149 9.16662H13.2282ZM9.99984 11.6666C10.9203 11.6666 11.6665 10.9205 11.6665 9.99996C11.6665 9.07946 10.9203 8.33329 9.99984 8.33329C9.07934 8.33329 8.33317 9.07946 8.33317 9.99996C8.33317 10.9205 9.07934 11.6666 9.99984 11.6666Z" fill="#E3E3E3"/>
</svg>
