<svg width="20" height="20" viewBox="0 0 20 20" fill="none" xmlns="http://www.w3.org/2000/svg">
<path d="M12.5002 1.66663L16.4227 5.58922C16.579 5.74549 16.6668 5.95746 16.6668 6.17847V17.5C16.6668 17.9602 16.2937 18.3333 15.8335 18.3333H4.16683C3.7066 18.3333 3.3335 17.9602 3.3335 17.5V2.49996C3.3335 2.03973 3.7066 1.66663 4.16683 1.66663H12.5002ZM10.0002 6.24996C8.66875 6.24996 7.58045 7.29073 7.5044 8.60304L7.50016 8.74996H9.16683C9.16683 8.28972 9.53991 7.91663 10.0002 7.91663C10.4604 7.91663 10.8335 8.28972 10.8335 8.74996C10.8335 8.96062 10.7553 9.15296 10.6263 9.29979L10.5577 9.36921L7.49955 12.1225L7.50016 13.3333H12.5002V11.6666H10.4962L11.673 10.6078L11.6679 10.6L11.6743 10.6066C12.1814 10.1491 12.5002 9.48671 12.5002 8.74996C12.5002 7.36925 11.3809 6.24996 10.0002 6.24996Z" fill="#E3E3E3"/>
</svg>
