<svg width="20" height="20" viewBox="0 0 20 20" fill="none" xmlns="http://www.w3.org/2000/svg">
<path d="M9.99984 1.66663C14.6022 1.66663 18.3332 5.39758 18.3332 9.99996C18.3332 14.6023 14.6022 18.3333 9.99984 18.3333C5.39746 18.3333 1.6665 14.6023 1.6665 9.99996C1.6665 5.39758 5.39746 1.66663 9.99984 1.66663ZM9.99984 4.16663C6.77818 4.16663 4.1665 6.7783 4.1665 9.99996C4.1665 11.5437 4.76615 12.9473 5.74521 13.9907L5.87504 14.1247L7.05356 12.9462C6.29954 12.1922 5.83317 11.1505 5.83317 9.99996C5.83317 7.69877 7.69865 5.83329 9.99984 5.83329C10.3732 5.83329 10.735 5.88239 11.0793 5.97449L12.3814 4.67334C11.6542 4.34772 10.8482 4.16663 9.99984 4.16663ZM15.3268 7.61923L14.0253 8.92046C14.1174 9.26479 14.1665 9.62662 14.1665 9.99996C14.1665 11.1505 13.7002 12.1922 12.9461 12.9462L14.1246 14.1247C15.1803 13.0691 15.8332 11.6108 15.8332 9.99996C15.8332 9.15196 15.6523 8.34621 15.3268 7.61923ZM13.5353 5.28592L10.4307 8.38954C10.2933 8.35287 10.1488 8.33329 9.99984 8.33329C9.07934 8.33329 8.33317 9.07946 8.33317 9.99996C8.33317 10.9205 9.07934 11.6666 9.99984 11.6666C10.9203 11.6666 11.6665 10.9205 11.6665 9.99996C11.6665 9.85096 11.6469 9.70654 11.6103 9.56912L14.7139 6.46443L13.5353 5.28592Z" fill="#E3E3E3"/>
</svg>
