<svg width="20" height="20" viewBox="0 0 20 20" fill="none" xmlns="http://www.w3.org/2000/svg">
<path d="M11.6665 1.66663C12.1268 1.66663 12.4998 2.03973 12.4998 2.49996V3.33329H14.9998C15.4601 3.33329 15.8332 3.70639 15.8332 4.16663V5.83329H14.1665V4.99996H10.8332V3.33329H9.1665V4.99996H5.83317V16.6666H14.1665V14.1666H15.8332V17.5C15.8332 17.9602 15.4601 18.3333 14.9998 18.3333H4.99984C4.5396 18.3333 4.1665 17.9602 4.1665 17.5V4.16663C4.1665 3.70639 4.5396 3.33329 4.99984 3.33329H7.49984V2.49996C7.49984 2.03973 7.87294 1.66663 8.33317 1.66663H11.6665ZM12.4998 6.66663L16.6665 9.99996L12.4998 13.3333V10.8333H11.6665C10.7878 10.8333 9.99984 11.625 9.99984 12.5V15H8.33317V12.5C8.33317 10.659 9.82559 9.16662 11.6665 9.16662H12.4998V6.66663Z" fill="#E3E3E3"/>
</svg>
