<svg width="20" height="20" viewBox="0 0 20 20" fill="none" xmlns="http://www.w3.org/2000/svg">
<path d="M9.1665 15.8333V7.5H3.33317V15.8333H9.1665ZM9.1665 5.83333V3.33333C9.1665 2.8731 9.53959 2.5 9.99984 2.5H17.4998C17.9601 2.5 18.3332 2.8731 18.3332 3.33333V16.6667C18.3332 17.1269 17.9601 17.5 17.4998 17.5H2.49984C2.0396 17.5 1.6665 17.1269 1.6665 16.6667V6.66667C1.6665 6.20643 2.0396 5.83333 2.49984 5.83333H9.1665ZM10.8332 4.16667V15.8333H16.6665V4.16667H10.8332ZM4.1665 13.3333H8.33317V15H4.1665V13.3333ZM11.6665 13.3333H15.8332V15H11.6665V13.3333ZM11.6665 10.8333H15.8332V12.5H11.6665V10.8333ZM11.6665 8.33333H15.8332V10H11.6665V8.33333ZM4.1665 10.8333H8.33317V12.5H4.1665V10.8333Z" fill="#E3E3E3"/>
</svg>
