<svg width="20" height="20" viewBox="0 0 20 20" fill="none" xmlns="http://www.w3.org/2000/svg">
<path d="M14.1669 9.99996C14.6272 9.99996 15.0002 10.373 15.0002 10.8333V18.3333H13.3336V11.6666H6.66696V18.3333H5.00029V10.8333C5.00029 10.373 5.37338 9.99996 5.83362 9.99996H14.1669ZM10.0002 13.3333V15H8.33358V13.3333H10.0002ZM10.0002 4.99996C11.9577 4.99996 13.6524 6.12478 14.4733 7.76331L12.9824 8.50896C12.4352 7.41655 11.3053 6.66663 10.0002 6.66663C8.69525 6.66663 7.56544 7.41655 7.01819 8.50896L5.52722 7.76331C6.34812 6.12478 8.04285 4.99996 10.0002 4.99996ZM10.0002 1.66663C13.2629 1.66663 16.0876 3.54155 17.4557 6.27271L15.9648 7.01864C14.8704 4.83345 12.6106 3.33329 10.0002 3.33329C7.39002 3.33329 5.13013 4.83345 4.03576 7.01864L2.54492 6.27271C3.91301 3.54155 6.73769 1.66663 10.0002 1.66663Z" fill="#E3E3E3"/>
</svg>
