<svg width="20" height="20" viewBox="0 0 20 20" fill="none" xmlns="http://www.w3.org/2000/svg">
<path d="M10.0002 10.8333L15.0002 18.3333H5.00017L10.0002 10.8333ZM9.11625 8.8005C8.62817 8.31239 8.62817 7.52093 9.11625 7.03278C9.60442 6.54462 10.3959 6.54462 10.8841 7.03278C11.3722 7.52093 11.3722 8.31239 10.8841 8.8005C10.3959 9.28867 9.60442 9.28867 9.11625 8.8005ZM4.40224 2.31873L5.58075 3.49723C3.13997 5.93802 3.13997 9.89534 5.58075 12.3361L4.40224 13.5146C1.31058 10.4229 1.31058 5.41038 4.40224 2.31873ZM15.5981 2.31873C18.6898 5.41038 18.6898 10.4229 15.5981 13.5146L14.4196 12.3361C16.8603 9.89534 16.8603 5.93802 14.4196 3.49723L15.5981 2.31873ZM6.75926 4.67575L7.93777 5.85426C6.79874 6.99329 6.79874 8.84 7.93777 9.97909L6.75926 11.1576C4.96936 9.36767 4.96936 6.46565 6.75926 4.67575ZM13.2411 4.67575C15.031 6.46565 15.031 9.36767 13.2411 11.1576L12.0626 9.97909C13.2016 8.84 13.2016 6.99329 12.0626 5.85426L13.2411 4.67575Z" fill="#E3E3E3"/>
</svg>
