<svg width="20" height="20" viewBox="0 0 20 20" fill="none" xmlns="http://www.w3.org/2000/svg">
<path d="M5.00016 3.33329V16.6666H15.0002V3.33329H5.00016ZM4.16683 1.66663H15.8335C16.2937 1.66663 16.6668 2.03973 16.6668 2.49996V17.5C16.6668 17.9602 16.2937 18.3333 15.8335 18.3333H4.16683C3.7066 18.3333 3.3335 17.9602 3.3335 17.5V2.49996C3.3335 2.03973 3.7066 1.66663 4.16683 1.66663ZM10.0002 14.1666C10.4604 14.1666 10.8335 14.5397 10.8335 15C10.8335 15.4602 10.4604 15.8333 10.0002 15.8333C9.53991 15.8333 9.16683 15.4602 9.16683 15C9.16683 14.5397 9.53991 14.1666 10.0002 14.1666Z" fill="#E3E3E3"/>
</svg>
