<svg width="20" height="20" viewBox="0 0 20 20" fill="none" xmlns="http://www.w3.org/2000/svg">
<path d="M10.0002 15C10.5955 15 11.1422 15.208 11.5715 15.5554L10.0002 17.5L8.42891 15.5554C8.85825 15.208 9.40491 15 10.0002 15ZM2.33988 1.16113L17.0712 15.8925L15.8927 17.071L12.8247 14.0036L12.6189 14.2589C11.9033 13.68 10.9922 13.3333 10.0002 13.3333C9.0085 13.3333 8.09776 13.6797 7.38235 14.2582L5.81152 12.3132C6.87484 11.4535 8.20787 10.914 9.66383 10.8416L8.18623 9.36462C6.91086 9.64771 5.74549 10.2231 4.76398 11.0168L3.19265 9.07229C4.08305 8.35212 5.08985 7.77026 6.18044 7.35926L4.90424 6.08249C3.90918 6.52729 2.98291 7.09835 2.14582 7.7753L0.574707 5.83056C1.33648 5.2145 2.1598 4.67151 3.03398 4.21227L1.16137 2.33964L2.33988 1.16113ZM13.4038 9.89112L10.1806 6.66863L10.0002 6.66663C12.5792 6.66663 14.9476 7.56778 16.8079 9.07237L15.2368 11.0171C14.6804 10.5671 14.0649 10.1873 13.4038 9.89112ZM10.0002 2.49997C13.5709 2.49997 16.8502 3.7476 19.4259 5.8307L17.8547 7.77533C15.7082 6.03956 12.9757 4.99997 10.0002 4.99997C9.52383 4.99997 9.05366 5.02662 8.59108 5.07851L6.43729 2.92567C7.57931 2.64745 8.7725 2.49997 10.0002 2.49997Z" fill="#E3E3E3"/>
</svg>
