<svg width="20" height="20" viewBox="0 0 20 20" fill="none" xmlns="http://www.w3.org/2000/svg">
<path d="M9.99984 13.3333L12.4998 18.3333H7.49984L9.99984 13.3333ZM7.81032 13.5456C6.62369 12.8114 5.83317 11.498 5.83317 9.99996C5.83317 7.69877 7.69865 5.83329 9.99984 5.83329C12.301 5.83329 14.1665 7.69877 14.1665 9.99996C14.1665 11.498 13.376 12.8114 12.1893 13.5456L11.0597 11.2863C11.4303 10.9806 11.6665 10.5179 11.6665 9.99996C11.6665 9.07946 10.9203 8.33329 9.99984 8.33329C9.07934 8.33329 8.33317 9.07946 8.33317 9.99996C8.33317 10.5179 8.56942 10.9806 8.94 11.2863L7.81032 13.5456ZM5.94278 17.2807C3.39162 15.8561 1.6665 13.1295 1.6665 9.99996C1.6665 5.39758 5.39746 1.66663 9.99984 1.66663C14.6022 1.66663 18.3332 5.39758 18.3332 9.99996C18.3332 13.1295 16.6081 15.8561 14.0569 17.2807L12.937 15.041C14.6693 14.0295 15.8332 12.1506 15.8332 9.99996C15.8332 6.7783 13.2215 4.16663 9.99984 4.16663C6.77818 4.16663 4.1665 6.7783 4.1665 9.99996C4.1665 12.1506 5.33039 14.0295 7.06266 15.041L5.94278 17.2807Z" fill="#E3E3E3"/>
</svg>
