<svg width="20" height="20" viewBox="0 0 20 20" fill="none" xmlns="http://www.w3.org/2000/svg">
<path d="M12.5002 1.66663L16.4227 5.58922C16.579 5.74549 16.6668 5.95746 16.6668 6.17847V17.5C16.6668 17.9602 16.2937 18.3333 15.8335 18.3333H4.16683C3.7066 18.3333 3.3335 17.9602 3.3335 17.5V2.49996C3.3335 2.03973 3.7066 1.66663 4.16683 1.66663H12.5002ZM11.8093 3.33329H5.00016V16.6666H15.0002V6.52413L11.8093 3.33329ZM10.0002 6.24996C11.3809 6.24996 12.5002 7.36925 12.5002 8.74996C12.5002 9.48671 12.1814 10.1491 11.6743 10.6066L11.6679 10.6L11.673 10.6078L10.4962 11.6666H12.5002V13.3333H7.50016L7.49955 12.1225L10.5577 9.36921C10.7271 9.21662 10.8335 8.99571 10.8335 8.74996C10.8335 8.28972 10.4604 7.91663 10.0002 7.91663C9.53991 7.91663 9.16683 8.28972 9.16683 8.74996H7.50016C7.50016 7.36925 8.61941 6.24996 10.0002 6.24996Z" fill="#E3E3E3"/>
</svg>
