<svg width="20" height="20" viewBox="0 0 20 20" fill="none" xmlns="http://www.w3.org/2000/svg">
<path d="M17.5 5.83329V17.4937C17.5 17.9592 17.1293 18.3333 16.6722 18.3333H3.32783C2.87079 18.3333 2.5 17.9633 2.5 17.5068V2.49313C2.5 2.04605 2.87245 1.66663 3.33188 1.66663H13.3307L17.5 5.83329ZM6.66667 6.66663V11.3335C6.66667 12.0413 7.038 12.7022 7.65623 13.0948L10 14.5833L12.3438 13.0948C12.962 12.7022 13.3333 12.0413 13.3333 11.3335V6.66663H6.66667ZM8.33333 8.33329H11.6667V11.3335C11.6667 11.4649 11.5919 11.598 11.4502 11.6879L10 12.609L8.54975 11.6879C8.40808 11.598 8.33333 11.4649 8.33333 11.3335V8.33329Z" fill="#E3E3E3"/>
</svg>
