<svg width="20" height="20" viewBox="0 0 20 20" fill="none" xmlns="http://www.w3.org/2000/svg">
<path d="M10.345 4.16667H17.4998C17.9601 4.16667 18.3332 4.53977 18.3332 5V16.6667C18.3332 17.1269 17.9601 17.5 17.4998 17.5H2.49984C2.0396 17.5 1.6665 17.1269 1.6665 16.6667V3.33333C1.6665 2.8731 2.0396 2.5 2.49984 2.5H8.67834L10.345 4.16667ZM3.33317 4.16667V15.8333H16.6665V5.83333H9.65467L7.98799 4.16667H3.33317ZM12.4998 10.8333H13.3332V14.1667H6.6665V10.8333H7.49984V10C7.49984 8.61925 8.61909 7.5 9.99984 7.5C11.3806 7.5 12.4998 8.61925 12.4998 10V10.8333ZM10.8332 10.8333V10C10.8332 9.53975 10.4601 9.16667 9.99984 9.16667C9.53959 9.16667 9.1665 9.53975 9.1665 10V10.8333H10.8332Z" fill="#E3E3E3"/>
</svg>
