<svg width="20" height="20" viewBox="0 0 20 20" fill="none" xmlns="http://www.w3.org/2000/svg">
<path d="M16.6667 18.3333H3.33333C2.8731 18.3333 2.5 17.9602 2.5 17.5V2.49996C2.5 2.03973 2.8731 1.66663 3.33333 1.66663H16.6667C17.1269 1.66663 17.5 2.03973 17.5 2.49996V17.5C17.5 17.9602 17.1269 18.3333 16.6667 18.3333ZM15.8333 16.6666V3.33329H4.16667V16.6666H15.8333ZM11.6667 9.99996V14.1666H8.33333V11.6666H10V9.99996H11.6667ZM10 3.33329H11.6667V4.99996H10V3.33329ZM8.33333 4.99996H10V6.66663H8.33333V4.99996ZM10 6.66663H11.6667V8.33329H10V6.66663ZM8.33333 8.33329H10V9.99996H8.33333V8.33329Z" fill="#E3E3E3"/>
</svg>
