<svg width="20" height="20" viewBox="0 0 20 20" fill="none" xmlns="http://www.w3.org/2000/svg">
<path d="M3.33317 1.66663C2.87294 1.66663 2.49984 2.03973 2.49984 2.49996V4.16663H4.1665V5.83329H1.6665V7.49996H4.1665V9.16662H1.6665V10.8333H4.1665V12.5H1.6665V14.1666H4.1665V15.8333H2.49984V17.5C2.49984 17.9602 2.87294 18.3333 3.33317 18.3333H16.6665C17.1268 18.3333 17.4998 17.9602 17.4998 17.5V2.49996C17.4998 2.03973 17.1268 1.66663 16.6665 1.66663H3.33317ZM7.49984 13.3333C7.49984 11.9525 8.61909 10.8333 9.99984 10.8333C11.3806 10.8333 12.4998 11.9525 12.4998 13.3333H7.49984ZM9.99984 9.99996C9.07934 9.99996 8.33317 9.25379 8.33317 8.33329C8.33317 7.41282 9.07934 6.66663 9.99984 6.66663C10.9203 6.66663 11.6665 7.41282 11.6665 8.33329C11.6665 9.25379 10.9203 9.99996 9.99984 9.99996Z" fill="#E3E3E3"/>
</svg>
