<svg width="20" height="20" viewBox="0 0 20 20" fill="none" xmlns="http://www.w3.org/2000/svg">
<path d="M14.1665 2.49994H17.4998C17.9601 2.49994 18.3332 2.87304 18.3332 3.33327V16.6666C18.3332 17.1269 17.9601 17.5 17.4998 17.5H14.1665V2.49994ZM2.38199 2.39773L12.8576 0.901213C13.0854 0.868671 13.2964 1.02696 13.329 1.25477C13.3318 1.27429 13.3332 1.29398 13.3332 1.3137V18.6862C13.3332 18.9163 13.1466 19.1029 12.9165 19.1029C12.8968 19.1029 12.8771 19.1015 12.8576 19.0986L2.38199 17.6021C1.97145 17.5435 1.6665 17.1919 1.6665 16.7772V3.22269C1.6665 2.80798 1.97145 2.45638 2.38199 2.39773ZM4.1665 6.6666V13.3333H5.83317V11.6666H10.8332V6.6666H4.1665ZM5.83317 8.33328H9.1665V9.99996H5.83317V8.33328Z" fill="#E3E3E3"/>
</svg>
