<svg width="20" height="20" viewBox="0 0 20 20" fill="none" xmlns="http://www.w3.org/2000/svg">
<path d="M2.49984 2.5H17.4998C17.9601 2.5 18.3332 2.8731 18.3332 3.33333V16.6667C18.3332 17.1269 17.9601 17.5 17.4998 17.5H2.49984C2.0396 17.5 1.6665 17.1269 1.6665 16.6667V3.33333C1.6665 2.8731 2.0396 2.5 2.49984 2.5ZM3.33317 4.16667V15.8333H16.6665V4.16667H3.33317ZM5.83317 12.9167H4.1665V7.08333H5.83317L7.49984 8.75L9.1665 7.08333H10.8332V12.9167H9.1665V9.58333L7.49984 11.25L5.83317 9.58333V12.9167ZM14.9998 10.4167H16.6665L14.1665 12.9167L11.6665 10.4167H13.3332V7.08333H14.9998V10.4167Z" fill="#E3E3E3"/>
</svg>
