<svg width="20" height="20" viewBox="0 0 20 20" fill="none" xmlns="http://www.w3.org/2000/svg">
<path d="M8.67834 2.5L10.345 4.16667H17.4998C17.9601 4.16667 18.3332 4.53977 18.3332 5V16.6667C18.3332 17.1269 17.9601 17.5 17.4998 17.5H2.49984C2.0396 17.5 1.6665 17.1269 1.6665 16.6667V3.33333C1.6665 2.8731 2.0396 2.5 2.49984 2.5H8.67834ZM7.98799 4.16667H3.33317V15.8333H16.6665V5.83333H9.65467L7.98799 4.16667ZM9.99984 7.5C10.9203 7.5 11.6665 8.24619 11.6665 9.16667C11.6665 9.78317 11.3318 10.3215 10.8341 10.6098L10.8332 14.1667H9.1665L9.16642 10.6103C8.66834 10.3222 8.33317 9.78358 8.33317 9.16667C8.33317 8.24619 9.07934 7.5 9.99984 7.5Z" fill="#E3E3E3"/>
</svg>
