<svg width="20" height="20" viewBox="0 0 20 20" fill="none" xmlns="http://www.w3.org/2000/svg">
<path d="M10.345 4.16667H17.4998C17.9601 4.16667 18.3332 4.53977 18.3332 5V16.6667C18.3332 17.1269 17.9601 17.5 17.4998 17.5H2.49984C2.0396 17.5 1.6665 17.1269 1.6665 16.6667V3.33333C1.6665 2.8731 2.0396 2.5 2.49984 2.5H8.67834L10.345 4.16667ZM9.99984 10.8333C11.1504 10.8333 12.0832 9.90058 12.0832 8.75C12.0832 7.59941 11.1504 6.66667 9.99984 6.66667C8.84925 6.66667 7.9165 7.59941 7.9165 8.75C7.9165 9.90058 8.84925 10.8333 9.99984 10.8333ZM6.6665 15H13.3332C13.3332 13.1591 11.8408 11.6667 9.99984 11.6667C8.15889 11.6667 6.6665 13.1591 6.6665 15Z" fill="#E3E3E3"/>
</svg>
