<svg width="20" height="20" viewBox="0 0 20 20" fill="none" xmlns="http://www.w3.org/2000/svg">
<path d="M13.3333 1.66663L17.5 5.83329V17.5068C17.5 17.9633 17.1292 18.3333 16.6722 18.3333H3.32783C2.87063 18.3333 2.5 17.9539 2.5 17.5068V2.49313C2.5 2.03667 2.87079 1.66663 3.32783 1.66663H13.3333ZM10 13.3333C11.8409 13.3333 13.3333 11.8409 13.3333 9.99996C13.3333 8.15901 11.8409 6.66663 10 6.66663H6.66667V13.3333H10ZM8.33333 8.33329H10C10.9205 8.33329 11.6667 9.07946 11.6667 9.99996C11.6667 10.9205 10.9205 11.6666 10 11.6666H8.33333V8.33329Z" fill="#E3E3E3"/>
</svg>
