<svg width="20" height="20" viewBox="0 0 20 20" fill="none" xmlns="http://www.w3.org/2000/svg">
<path d="M18.3332 9.37892C17.3883 8.71983 16.2392 8.33333 14.9998 8.33333C11.7782 8.33333 9.1665 10.945 9.1665 14.1667C9.1665 15.406 9.553 16.5552 10.2121 17.5H2.49984C2.0396 17.5 1.6665 17.1269 1.6665 16.6667V3.33333C1.6665 2.8731 2.0396 2.5 2.49984 2.5H8.67834L10.345 4.16667H17.4998C17.9601 4.16667 18.3332 4.53977 18.3332 5V9.37892ZM14.9998 18.3333C12.6987 18.3333 10.8332 16.4678 10.8332 14.1667C10.8332 11.8655 12.6987 10 14.9998 10C17.301 10 19.1665 11.8655 19.1665 14.1667C19.1665 16.4678 17.301 18.3333 14.9998 18.3333ZM13.922 16.423C14.2483 16.5792 14.6139 16.6667 14.9998 16.6667C16.3806 16.6667 17.4998 15.5474 17.4998 14.1667C17.4998 13.7808 17.4123 13.4152 17.2562 13.0888L13.922 16.423ZM12.7435 15.2445L16.0777 11.9103C15.7513 11.7542 15.3858 11.6667 14.9998 11.6667C13.6191 11.6667 12.4998 12.7859 12.4998 14.1667C12.4998 14.5526 12.5873 14.9182 12.7435 15.2445Z" fill="#E3E3E3"/>
</svg>
