<svg width="20" height="20" viewBox="0 0 20 20" fill="none" xmlns="http://www.w3.org/2000/svg">
<path d="M16.6667 18.3333H5C3.61929 18.3333 2.5 17.214 2.5 15.8333V4.16663C2.5 2.78592 3.61929 1.66663 5 1.66663H16.6667C17.1269 1.66663 17.5 2.03973 17.5 2.49996V17.5C17.5 17.9602 17.1269 18.3333 16.6667 18.3333ZM15.8333 16.6666V15H5C4.53977 15 4.16667 15.373 4.16667 15.8333C4.16667 16.2935 4.53977 16.6666 5 16.6666H15.8333ZM4.16667 13.4755C4.42732 13.3835 4.7078 13.3333 5 13.3333H15.8333V3.33329H5C4.53977 3.33329 4.16667 3.70639 4.16667 4.16663V13.4755ZM10 8.33329C9.0795 8.33329 8.33333 7.5871 8.33333 6.66663C8.33333 5.74615 9.0795 4.99996 10 4.99996C10.9205 4.99996 11.6667 5.74615 11.6667 6.66663C11.6667 7.5871 10.9205 8.33329 10 8.33329ZM7.5 11.6666C7.5 10.2859 8.61925 9.16662 10 9.16662C11.3807 9.16662 12.5 10.2859 12.5 11.6666H7.5Z" fill="#E3E3E3"/>
</svg>
