<svg width="20" height="20" viewBox="0 0 20 20" fill="none" xmlns="http://www.w3.org/2000/svg">
<path d="M13.3333 1.66663L17.5 5.83329V17.5068C17.5 17.9633 17.1292 18.3333 16.6722 18.3333H3.32783C2.87063 18.3333 2.5 17.9539 2.5 17.5068V2.49313C2.5 2.03667 2.87079 1.66663 3.32783 1.66663H13.3333ZM7.16213 10.6762L6.33576 11.1533L7.16914 12.5967L7.9961 12.1192C8.3237 12.4291 8.72308 12.6639 9.16675 12.7959V13.75H10.8334V12.7958C11.2771 12.6638 11.6764 12.429 12.004 12.1191L12.831 12.5966L13.6643 11.1532L12.8379 10.6761C12.8894 10.4591 12.9167 10.2327 12.9167 9.99996C12.9167 9.76721 12.8894 9.54079 12.8378 9.32371L13.6643 8.84662L12.8309 7.40323L12.0039 7.88071C11.6763 7.57084 11.277 7.3361 10.8333 7.20408V6.24996H9.16667V7.20408C8.723 7.33611 8.32362 7.57086 7.99603 7.88074L7.16909 7.40331L6.33576 8.84671L7.16212 9.32379C7.1106 9.54079 7.08333 9.76721 7.08333 9.99996C7.08333 10.2328 7.11061 10.4592 7.16213 10.6762ZM10 11.25C9.30967 11.25 8.75 10.6903 8.75 9.99996C8.75 9.30962 9.30967 8.74996 10 8.74996C10.6903 8.74996 11.25 9.30962 11.25 9.99996C11.25 10.6903 10.6903 11.25 10 11.25Z" fill="#E3E3E3"/>
</svg>
