<svg width="20" height="20" viewBox="0 0 20 20" fill="none" xmlns="http://www.w3.org/2000/svg">
<path d="M17.5 9.72796C16.7422 9.36804 15.8947 9.16663 15 9.16663C11.7783 9.16663 9.16667 11.7783 9.16667 15C9.16667 16.2393 9.55317 17.3885 10.2122 18.3333H3.32783C2.87063 18.3333 2.5 17.9539 2.5 17.5068V2.49313C2.5 2.03667 2.87079 1.66663 3.32783 1.66663H13.3333L17.5 5.83329V9.72796ZM15 19.1666C12.6988 19.1666 10.8333 17.3011 10.8333 15C10.8333 12.6988 12.6988 10.8333 15 10.8333C17.3012 10.8333 19.1667 12.6988 19.1667 15C19.1667 17.3011 17.3012 19.1666 15 19.1666ZM13.9222 17.2563C14.2485 17.4125 14.6141 17.5 15 17.5C16.3807 17.5 17.5 16.3807 17.5 15C17.5 14.614 17.4125 14.2485 17.2563 13.9221L13.9222 17.2563ZM12.7437 16.0778L16.0778 12.7436C15.7515 12.5875 15.3859 12.5 15 12.5C13.6192 12.5 12.5 13.6192 12.5 15C12.5 15.3859 12.5875 15.7515 12.7437 16.0778Z" fill="#E3E3E3"/>
</svg>
