<svg width="20" height="20" viewBox="0 0 20 20" fill="none" xmlns="http://www.w3.org/2000/svg">
<path d="M3.33317 15.8333V4.16667H7.98799L9.65467 5.83333H16.6665V15.8333H3.33317ZM17.4998 4.16667H10.345L8.67834 2.5H2.49984C2.0396 2.5 1.6665 2.8731 1.6665 3.33333V16.6667C1.6665 17.1269 2.0396 17.5 2.49984 17.5H17.4998C17.9601 17.5 18.3332 17.1269 18.3332 16.6667V5C18.3332 4.53977 17.9601 4.16667 17.4998 4.16667ZM12.5005 10.5558L8.43475 7.84529C8.38 7.80878 8.31567 7.78931 8.24984 7.78931C8.06575 7.78931 7.9165 7.93854 7.9165 8.12264V13.5437C7.9165 13.6095 7.936 13.6738 7.9725 13.7286C8.07459 13.8818 8.28159 13.9232 8.43475 13.821L12.5005 11.1105C12.5371 11.0861 12.5685 11.0547 12.5929 11.0181C12.6951 10.8649 12.6537 10.6579 12.5005 10.5558Z" fill="#E3E3E3"/>
</svg>
