<svg width="20" height="20" viewBox="0 0 20 20" fill="none" xmlns="http://www.w3.org/2000/svg">
<path d="M15.8332 18.3333H4.1665C2.7858 18.3333 1.6665 17.214 1.6665 15.8333V2.49996C1.6665 2.03973 2.0396 1.66663 2.49984 1.66663H14.1665C14.6268 1.66663 14.9998 2.03973 14.9998 2.49996V8.33329H18.3332V15.8333C18.3332 17.214 17.2139 18.3333 15.8332 18.3333ZM14.9998 9.99996V15.8333C14.9998 16.2935 15.3729 16.6666 15.8332 16.6666C16.2934 16.6666 16.6665 16.2935 16.6665 15.8333V9.99996H14.9998ZM4.1665 4.99996V9.99996H9.1665V4.99996H4.1665ZM4.1665 10.8333V12.5H12.4998V10.8333H4.1665ZM4.1665 13.3333V15H12.4998V13.3333H4.1665ZM5.83317 6.66663H7.49984V8.33329H5.83317V6.66663Z" fill="#E3E3E3"/>
</svg>
