<svg width="20" height="20" viewBox="0 0 20 20" fill="none" xmlns="http://www.w3.org/2000/svg">
<path d="M7.5 3.33329L5 1.66663L2.5 3.33329V15.8333C2.5 17.214 3.61929 18.3333 5 18.3333H16.6667C18.0474 18.3333 19.1667 17.214 19.1667 15.8333V13.3333H17.5V3.33329L15 1.66663L12.5 3.33329L10 1.66663L7.5 3.33329ZM15.8333 13.3333H5.83333V15.8333C5.83333 16.2935 5.46023 16.6666 5 16.6666C4.53977 16.6666 4.16667 16.2935 4.16667 15.8333V4.22527L5 3.66971L7.5 5.33638L10 3.66971L12.5 5.33638L15 3.66971L15.8333 4.22527V13.3333ZM16.6667 16.6666H7.35774C7.44987 16.406 7.5 16.1255 7.5 15.8333V15H17.5V15.8333C17.5 16.2935 17.1269 16.6666 16.6667 16.6666Z" fill="#E3E3E3"/>
</svg>
