<svg width="20" height="20" viewBox="0 0 20 20" fill="none" xmlns="http://www.w3.org/2000/svg">
<path d="M13.3333 1.66663L17.5 5.83329V17.5068C17.5 17.9633 17.1292 18.3333 16.6722 18.3333H3.32783C2.87063 18.3333 2.5 17.9539 2.5 17.5068V2.49313C2.5 2.03667 2.87079 1.66663 3.32783 1.66663H13.3333ZM12.5007 9.72246L8.43492 7.01192C8.38017 6.97541 8.31583 6.95593 8.25 6.95593C8.06592 6.95593 7.91667 7.10517 7.91667 7.28927V12.7103C7.91667 12.7761 7.93617 12.8405 7.97267 12.8952C8.07475 13.0484 8.28175 13.0898 8.43492 12.9876L12.5007 10.2771C12.5372 10.2527 12.5687 10.2213 12.5931 10.1847C12.6952 10.0315 12.6538 9.82454 12.5007 9.72246Z" fill="#E3E3E3"/>
</svg>
