<svg width="20" height="20" viewBox="0 0 20 20" fill="none" xmlns="http://www.w3.org/2000/svg">
<path d="M10.345 4.16667H17.4998C17.9601 4.16667 18.3332 4.53977 18.3332 5V16.6667C18.3332 17.1269 17.9601 17.5 17.4998 17.5H2.49984C2.0396 17.5 1.6665 17.1269 1.6665 16.6667V3.33333C1.6665 2.8731 2.0396 2.5 2.49984 2.5H8.67834L10.345 4.16667ZM3.33317 4.16667V15.8333H16.6665V5.83333H9.65467L7.98799 4.16667H3.33317ZM9.1665 13.3333H10.8332V15H9.1665V13.3333ZM7.13926 9.01125C7.40514 7.67432 8.58484 6.66667 9.99984 6.66667C11.6107 6.66667 12.9165 7.9725 12.9165 9.58333C12.9165 11.1942 11.6107 12.5 9.99984 12.5H9.1665V10.8333H9.99984C10.6902 10.8333 11.2498 10.2737 11.2498 9.58333C11.2498 8.893 10.6902 8.33333 9.99984 8.33333C9.39342 8.33333 8.88784 8.76517 8.77384 9.33817L7.13926 9.01125Z" fill="#E3E3E3"/>
</svg>
