<svg width="20" height="20" viewBox="0 0 20 20" fill="none" xmlns="http://www.w3.org/2000/svg">
<path d="M10 13.3333H6.66667V6.66663H10C11.8409 6.66663 13.3333 8.15901 13.3333 9.99996C13.3333 11.8409 11.8409 13.3333 10 13.3333ZM8.33333 8.33329V11.6666H10C10.9205 11.6666 11.6667 10.9205 11.6667 9.99996C11.6667 9.07946 10.9205 8.33329 10 8.33329H8.33333ZM12.5 3.33329H4.16667V16.6666H15.8333V6.66663H12.5V3.33329ZM2.5 2.49313C2.5 2.03667 2.87291 1.66663 3.33208 1.66663H13.3333L17.4998 5.83329L17.5 17.4937C17.5 17.9574 17.1292 18.3333 16.6722 18.3333H3.32783C2.87063 18.3333 2.5 17.9539 2.5 17.5068V2.49313Z" fill="#E3E3E3"/>
</svg>
