<svg width="20" height="20" viewBox="0 0 20 20" fill="none" xmlns="http://www.w3.org/2000/svg">
<path d="M2.49984 2.5C2.0396 2.5 1.6665 2.8731 1.6665 3.33333V16.6667C1.6665 17.1269 2.0396 17.5 2.49984 17.5H17.4998C17.9601 17.5 18.3332 17.1269 18.3332 16.6667V3.33333C18.3332 2.8731 17.9601 2.5 17.4998 2.5H2.49984ZM4.99984 5.83333H9.99984V10.8333H4.99984V5.83333ZM6.6665 7.5V9.16667H8.33317V7.5H6.6665ZM14.9998 7.5H11.6665V5.83333H14.9998V7.5ZM11.6665 10.8333V9.16667H14.9998V10.8333H11.6665ZM4.99984 14.1667V12.5H14.9998V14.1667H4.99984Z" fill="#E3E3E3"/>
</svg>
