<svg width="20" height="20" viewBox="0 0 20 20" fill="none" xmlns="http://www.w3.org/2000/svg">
<path d="M12.5 3.33329H4.16667V16.6666H15.8333V6.66663H12.5V3.33329ZM2.5 2.49313C2.5 2.03667 2.87291 1.66663 3.33208 1.66663H13.3333L17.4998 5.83329L17.5 17.4937C17.5 17.9574 17.1292 18.3333 16.6722 18.3333H3.32783C2.87063 18.3333 2.5 17.9539 2.5 17.5068V2.49313ZM10 9.58329C8.84942 9.58329 7.91667 8.65054 7.91667 7.49996C7.91667 6.34937 8.84942 5.41663 10 5.41663C11.1506 5.41663 12.0833 6.34937 12.0833 7.49996C12.0833 8.65054 11.1506 9.58329 10 9.58329ZM6.27288 14.1666C6.48016 12.2916 8.06977 10.8333 10 10.8333C11.9303 10.8333 13.5198 12.2916 13.7271 14.1666H6.27288Z" fill="#E3E3E3"/>
</svg>
