<svg width="20" height="20" viewBox="0 0 20 20" fill="none" xmlns="http://www.w3.org/2000/svg">
<path d="M12.5 6.66663V3.33329H4.16667V16.6666H15.8333V6.66663H12.5ZM2.5 2.49313C2.5 2.03667 2.87291 1.66663 3.33208 1.66663H13.3333L17.4998 5.83329L17.5 17.4937C17.5 17.9574 17.1292 18.3333 16.6722 18.3333H3.32783C2.87063 18.3333 2.5 17.9539 2.5 17.5068V2.49313ZM9.16667 7.91663C9.16667 8.60696 8.607 9.16662 7.91667 9.16662C7.22631 9.16662 6.66667 8.60696 6.66667 7.91663C6.66667 7.22627 7.22631 6.66663 7.91667 6.66663C8.607 6.66663 9.16667 7.22627 9.16667 7.91663ZM14.5833 14.1666L11.25 8.33329L6.66667 14.1666H14.5833Z" fill="#E3E3E3"/>
</svg>
