<svg width="20" height="20" viewBox="0 0 20 20" fill="none" xmlns="http://www.w3.org/2000/svg">
<path d="M15 10.8333C15.9107 10.8333 16.7645 11.0768 17.4999 11.5021L17.4998 5.83329L13.3333 1.66663H3.33208C2.87291 1.66663 2.5 2.03667 2.5 2.49313V17.5068C2.5 17.9539 2.87063 18.3333 3.32783 18.3333H10.6689C10.2435 17.5979 10 16.744 10 15.8333C10 13.0719 12.2386 10.8333 15 10.8333ZM17.9463 17.601L16.1786 15.8332L17.9463 14.0655L16.7678 12.887L15.0001 14.6547L13.2323 12.887L12.0538 14.0655L13.8216 15.8332L12.0538 17.601L13.2323 18.7795L15.0001 17.0117L16.7678 18.7795L17.9463 17.601Z" fill="#E3E3E3"/>
</svg>
