<svg width="20" height="20" viewBox="0 0 20 20" fill="none" xmlns="http://www.w3.org/2000/svg">
<path d="M7.16213 10.6762C7.11061 10.4592 7.08333 10.2328 7.08333 9.99996C7.08333 9.76721 7.1106 9.54079 7.16212 9.32379L6.33576 8.84671L7.16909 7.40331L7.99603 7.88074C8.32362 7.57086 8.723 7.33611 9.16667 7.20408V6.24996H10.8333V7.20408C11.277 7.3361 11.6763 7.57084 12.0039 7.88071L12.8309 7.40323L13.6643 8.84662L12.8378 9.32371C12.8894 9.54079 12.9167 9.76721 12.9167 9.99996C12.9167 10.2327 12.8894 10.4591 12.8379 10.6761L13.6643 11.1532L12.831 12.5966L12.004 12.1191C11.6764 12.429 11.2771 12.6638 10.8334 12.7958V13.75H9.16675V12.7959C8.72308 12.6639 8.3237 12.4291 7.9961 12.1192L7.16914 12.5967L6.33576 11.1533L7.16213 10.6762ZM10 11.25C10.6903 11.25 11.25 10.6903 11.25 9.99996C11.25 9.30962 10.6903 8.74996 10 8.74996C9.30967 8.74996 8.75 9.30962 8.75 9.99996C8.75 10.6903 9.30967 11.25 10 11.25ZM12.5 3.33329H4.16667V16.6666H15.8333V6.66663H12.5V3.33329ZM2.5 2.49313C2.5 2.03667 2.87291 1.66663 3.33208 1.66663H13.3333L17.4998 5.83329L17.5 17.4937C17.5 17.9574 17.1292 18.3333 16.6722 18.3333H3.32783C2.87063 18.3333 2.5 17.9539 2.5 17.5068V2.49313Z" fill="#E3E3E3"/>
</svg>
