<svg width="20" height="20" viewBox="0 0 20 20" fill="none" xmlns="http://www.w3.org/2000/svg">
<path d="M10.345 4.16667H17.4998C17.9601 4.16667 18.3332 4.53977 18.3332 5V16.6667C18.3332 17.1269 17.9601 17.5 17.4998 17.5H2.49984C2.0396 17.5 1.6665 17.1269 1.6665 16.6667V3.33333C1.6665 2.8731 2.0396 2.5 2.49984 2.5H8.67834L10.345 4.16667ZM3.33317 4.16667V15.8333H16.6665V5.83333H9.65467L7.98799 4.16667H3.33317ZM6.6665 7.5H13.3332V11.5867C13.3332 12.3297 12.9618 13.0235 12.3436 13.4357L9.99984 14.9982L7.65606 13.4357C7.03784 13.0235 6.6665 12.3297 6.6665 11.5867V7.5ZM8.33317 11.5867C8.33317 11.7724 8.426 11.9458 8.58059 12.0489L9.99984 12.9951L11.4191 12.0489C11.5737 11.9458 11.6665 11.7724 11.6665 11.5867V9.16667H8.33317V11.5867Z" fill="#E3E3E3"/>
</svg>
