<svg width="20" height="20" viewBox="0 0 20 20" fill="none" xmlns="http://www.w3.org/2000/svg">
<path d="M10.345 4.16667H17.4998C17.9601 4.16667 18.3332 4.53977 18.3332 5V16.6667C18.3332 17.1269 17.9601 17.5 17.4998 17.5H2.49984C2.0396 17.5 1.6665 17.1269 1.6665 16.6667V3.33333C1.6665 2.8731 2.0396 2.5 2.49984 2.5H8.67834L10.345 4.16667ZM12.4998 10.8333V10C12.4998 8.61925 11.3806 7.5 9.99984 7.5C8.61909 7.5 7.49984 8.61925 7.49984 10V10.8333H6.6665V14.1667H13.3332V10.8333H12.4998ZM10.8332 10.8333H9.1665V10C9.1665 9.53975 9.53959 9.16667 9.99984 9.16667C10.4601 9.16667 10.8332 9.53975 10.8332 10V10.8333Z" fill="#E3E3E3"/>
</svg>
