<svg width="20" height="20" viewBox="0 0 20 20" fill="none" xmlns="http://www.w3.org/2000/svg">
<path d="M12.5 3.33329H4.16667V16.6666H15.8333V6.66663H12.5V3.33329ZM2.5 2.49313C2.5 2.03667 2.87291 1.66663 3.33208 1.66663H13.3333L17.4998 5.83329L17.5 17.4937C17.5 17.9574 17.1292 18.3333 16.6722 18.3333H3.32783C2.87063 18.3333 2.5 17.9539 2.5 17.5068V2.49313ZM12.5 9.16662H13.3333V13.3333H6.66667V9.16662H7.5V8.33329C7.5 6.95258 8.61925 5.83329 10 5.83329C11.3807 5.83329 12.5 6.95258 12.5 8.33329V9.16662ZM10.8333 9.16662V8.33329C10.8333 7.87306 10.4602 7.49996 10 7.49996C9.53975 7.49996 9.16667 7.87306 9.16667 8.33329V9.16662H10.8333Z" fill="#E3E3E3"/>
</svg>
