<svg width="20" height="20" viewBox="0 0 20 20" fill="none" xmlns="http://www.w3.org/2000/svg">
<path d="M13.3333 1.66663L17.4998 5.83329L17.5 17.4937C17.5 17.9574 17.1292 18.3333 16.6722 18.3333H3.32783C2.87063 18.3333 2.5 17.9539 2.5 17.5068V2.49313C2.5 2.03667 2.87291 1.66663 3.33208 1.66663H13.3333ZM10.8333 8.33329H10V12.5H10.8333V8.33329ZM9.16667 8.33329H7.5C6.57952 8.33329 5.83333 9.07946 5.83333 9.99996V10.8333C5.83333 11.7538 6.57952 12.5 7.5 12.5H8.33333C8.79358 12.5 9.16667 12.1269 9.16667 11.6666V9.99996H7.5V10.8333H8.33333V11.6666H7.5C7.03977 11.6666 6.66667 11.2935 6.66667 10.8333V9.99996C6.66667 9.53971 7.03977 9.16662 7.5 9.16662H9.16667V8.33329ZM14.1667 8.33329H11.6667V12.5H12.5V10.8333H14.1667V9.99996H12.5V9.16662H14.1667V8.33329Z" fill="#E3E3E3"/>
</svg>
