<svg width="20" height="20" viewBox="0 0 20 20" fill="none" xmlns="http://www.w3.org/2000/svg">
<path d="M2.5 1.66663H15.8374C16.7557 1.66663 17.5 2.41513 17.5 3.32563V16.6743C17.5 17.5905 16.7562 18.3333 15.8374 18.3333H2.5V1.66663ZM5.83333 3.33329H4.16667V16.6666H5.83333V3.33329ZM7.5 16.6666H15.8333V3.33329H7.5V16.6666ZM9.16667 13.3333C9.16667 11.9525 10.2859 10.8333 11.6667 10.8333C13.0474 10.8333 14.1667 11.9525 14.1667 13.3333H9.16667ZM11.6667 9.99996C10.7462 9.99996 10 9.25379 10 8.33329C10 7.41282 10.7462 6.66663 11.6667 6.66663C12.5872 6.66663 13.3333 7.41282 13.3333 8.33329C13.3333 9.25379 12.5872 9.99996 11.6667 9.99996ZM18.3333 4.99996H20V8.33329H18.3333V4.99996ZM18.3333 9.99996H20V13.3333H18.3333V9.99996Z" fill="#E3E3E3"/>
</svg>
