<svg width="20" height="20" viewBox="0 0 20 20" fill="none" xmlns="http://www.w3.org/2000/svg">
<path d="M15.8332 10C16.7439 10 17.5978 10.2435 18.3332 10.6689V5C18.3332 4.53977 17.9601 4.16667 17.4998 4.16667H10.345L8.67834 2.5H2.49984C2.0396 2.5 1.6665 2.8731 1.6665 3.33333V16.6667C1.6665 17.1269 2.0396 17.5 2.49984 17.5H11.5021C11.0767 16.7646 10.8332 15.9107 10.8332 15C10.8332 12.2386 13.0718 10 15.8332 10ZM17.0118 14.9999L18.7795 16.7677L17.601 17.9462L15.8333 16.1784L14.0655 17.9462L12.887 16.7677L14.6548 14.9999L12.887 13.2322L14.0655 12.0537L15.8333 13.8214L17.601 12.0537L18.7795 13.2322L17.0118 14.9999Z" fill="#E3E3E3"/>
</svg>
