<svg width="20" height="20" viewBox="0 0 20 20" fill="none" xmlns="http://www.w3.org/2000/svg">
<path d="M3.33208 1.66663C2.87291 1.66663 2.5 2.03667 2.5 2.49313V17.5068C2.5 17.9539 2.87063 18.3333 3.32783 18.3333H16.6722C17.1292 18.3333 17.5 17.9574 17.5 17.4937L17.4998 5.83329L13.3333 1.66663H3.33208ZM8.75 6.24996H10.4167C10.4167 8.32491 12.203 10.5503 14.4302 11.2927L14.0488 12.9083C11.4362 12.535 8.73508 13.6503 6.29558 15.2767L5.31275 13.9325C6.21791 13.2085 7.08577 11.9797 7.72916 10.5445C8.37025 9.11438 8.75 7.56453 8.75 6.24996ZM9.25 11.2263C9.47275 10.7293 9.67025 10.2135 9.83642 9.69037C10.2295 10.2942 10.7127 10.8485 11.2585 11.3294C10.4403 11.4759 9.63883 11.7163 8.86275 12.023C9 11.7619 9.12925 11.4956 9.25 11.2263Z" fill="#E3E3E3"/>
</svg>
