<svg width="20" height="20" viewBox="0 0 20 20" fill="none" xmlns="http://www.w3.org/2000/svg">
<path d="M1.6665 3.33333C1.6665 2.8731 2.0396 2.5 2.49984 2.5H17.4998C17.9601 2.5 18.3332 2.8731 18.3332 3.33333V16.6667C18.3332 17.1269 17.9601 17.5 17.4998 17.5H2.49984C2.0396 17.5 1.6665 17.1269 1.6665 16.6667V3.33333ZM3.33317 4.16667V15.8333H16.6665V4.16667H3.33317ZM4.99984 5.83333H9.99984V10.8333H4.99984V5.83333ZM6.6665 7.5V9.16667H8.33317V7.5H6.6665ZM11.6665 7.5H14.9998V5.83333H11.6665V7.5ZM14.9998 10.8333H11.6665V9.16667H14.9998V10.8333ZM4.99984 12.5V14.1667H14.9998V12.5H4.99984Z" fill="#E3E3E3"/>
</svg>
