<svg width="20" height="20" viewBox="0 0 20 20" fill="none" xmlns="http://www.w3.org/2000/svg">
<path d="M12.4973 1.66663L17.5 6.66663L17.501 10.2171C16.7084 9.56013 15.6918 9.16663 14.5833 9.16663L14.399 9.17029C12.32 9.25246 10.597 10.7195 10.1269 12.6744L10.1133 12.7358L10.089 12.752C9.01858 13.4695 8.33333 14.6879 8.33333 16.0416C8.33333 16.8941 8.6035 17.6859 9.06425 18.3338L3.32783 18.3333C2.90343 18.3333 2.55341 18.0142 2.50558 17.6032L2.5 17.5068V2.49313C2.5 2.07798 2.82241 1.72118 3.23777 1.67232L3.33517 1.66663H12.4973ZM14.5833 10.8333C16.1942 10.8333 17.5 12.1391 17.5 13.75L17.4987 13.836C18.4609 14.107 19.1667 14.9919 19.1667 16.0416C19.1667 17.2604 18.2152 18.257 17.0146 18.3291L16.875 18.3333H12.2917L12.1521 18.3291C10.9514 18.257 10 17.2604 10 16.0416C10 14.9916 10.7062 14.1065 11.6695 13.8354L11.6667 13.75C11.6667 12.1391 12.9725 10.8333 14.5833 10.8333Z" fill="#E3E3E3"/>
</svg>
