<svg width="20" height="20" viewBox="0 0 20 20" fill="none" xmlns="http://www.w3.org/2000/svg">
<path d="M11.6667 6.66663V3.33329H4.16667V16.6666H15.8333V7.49996H13.3333V11.3495C13.3333 12.0534 12.962 12.7107 12.3438 13.1012L10 14.5815L7.65623 13.1012C7.038 12.7107 6.66667 12.0534 6.66667 11.3495V6.66663H11.6667ZM17.5 6.66663V17.4943C17.5 17.9584 17.1293 18.3333 16.6722 18.3333H3.32783C2.87079 18.3333 2.5 17.9633 2.5 17.5068V2.49313C2.5 2.04605 2.87392 1.66663 3.33518 1.66663H12.4973L17.5 6.66663ZM8.33333 11.3495C8.33333 11.4748 8.406 11.6035 8.54617 11.692L10 12.6102L11.4538 11.692C11.594 11.6035 11.6667 11.4748 11.6667 11.3495V8.33329H8.33333V11.3495Z" fill="#E3E3E3"/>
</svg>
