<svg width="20" height="20" viewBox="0 0 20 20" fill="none" xmlns="http://www.w3.org/2000/svg">
<path d="M1.6665 3.33333C1.6665 2.8731 2.0396 2.5 2.49984 2.5H8.67834L10.345 4.16667H17.4998C17.9601 4.16667 18.3332 4.53977 18.3332 5V10.3003C17.5018 9.11733 16.1283 8.33333 14.5832 8.33333C12.4148 8.33333 10.5844 9.8775 10.116 11.9014C9.0425 12.6088 8.33317 13.8245 8.33317 15.2083C8.33317 16.0624 8.60367 16.8532 9.06367 17.5H2.49984C2.0396 17.5 1.6665 17.1269 1.6665 16.6667V3.33333ZM11.6678 13.0026C10.7053 13.2743 9.99984 14.1589 9.99984 15.2083C9.99984 16.474 11.0258 17.5 12.2915 17.5H16.8748C18.1405 17.5 19.1665 16.474 19.1665 15.2083C19.1665 14.1589 18.4611 13.2743 17.4986 13.0026C17.5455 11.3815 16.2063 10 14.5832 10C12.9601 10 11.6208 11.3815 11.6678 13.0026Z" fill="#E3E3E3"/>
</svg>
