<svg width="20" height="20" viewBox="0 0 20 20" fill="none" xmlns="http://www.w3.org/2000/svg">
<path d="M7.7786 9.58531L9.58693 9.58573C11.658 9.58573 13.3369 11.2646 13.3369 13.3357H7.50275L7.50358 14.1691L14.1703 14.1684V13.3357C14.1703 12.4337 13.9051 11.5831 13.4318 10.8351L15.8369 10.8357C17.4972 10.8357 18.9306 11.8068 19.6003 13.2119C17.6297 15.8124 14.4385 17.5024 10.8369 17.5024C8.53585 17.5024 6.58656 17.0102 5.00331 16.1484L5.00445 8.39489C6.04241 8.54356 6.9922 8.96548 7.7786 9.58531ZM4.17025 15.8357C4.17025 16.296 3.79716 16.6691 3.33691 16.6691H1.67025C1.21001 16.6691 0.836914 16.296 0.836914 15.8357V8.33573C0.836914 7.87549 1.21001 7.5024 1.67025 7.5024H3.33691C3.79716 7.5024 4.17025 7.87549 4.17025 8.33573V15.8357ZM15.0036 4.16907C16.3843 4.16907 17.5036 5.28835 17.5036 6.66907C17.5036 8.04978 16.3843 9.16906 15.0036 9.16906C13.6228 9.16906 12.5036 8.04978 12.5036 6.66907C12.5036 5.28835 13.6228 4.16907 15.0036 4.16907ZM9.17026 1.66907C10.5509 1.66907 11.6703 2.78835 11.6703 4.16907C11.6703 5.54978 10.5509 6.66907 9.17026 6.66907C7.78954 6.66907 6.67025 5.54978 6.67025 4.16907C6.67025 2.78835 7.78954 1.66907 9.17026 1.66907Z" fill="#E3E3E3"/>
</svg>
