<svg width="20" height="20" viewBox="0 0 20 20" fill="none" xmlns="http://www.w3.org/2000/svg">
<path d="M9.087 1.75024L17.3366 2.92875L18.5151 11.1784L10.8547 18.8386C10.5293 19.1641 10.0017 19.1641 9.67625 18.8386L1.4267 10.5891C1.10126 10.2636 1.10126 9.73604 1.4267 9.41054L9.087 1.75024ZM9.67625 3.51801L3.19447 9.99979L10.2655 17.0709L16.7473 10.5891L15.8635 4.40189L9.67625 3.51801ZM11.4441 8.82129C10.7932 8.17044 10.7932 7.11516 11.4441 6.46429C12.0949 5.81342 13.1502 5.81342 13.8011 6.46429C14.4519 7.11516 14.4519 8.17044 13.8011 8.82129C13.1502 9.4722 12.0949 9.4722 11.4441 8.82129Z" fill="#E3E3E3"/>
</svg>
