<svg width="20" height="20" viewBox="0 0 20 20" fill="none" xmlns="http://www.w3.org/2000/svg">
<path d="M18.3376 4.99988H12.5043C9.74283 4.99988 7.50423 7.23845 7.50423 9.99989C7.50423 12.7613 9.74283 14.9999 12.5043 14.9999H18.3376V16.6666C18.3376 17.1268 17.9645 17.4999 17.5043 17.4999H2.50423C2.044 17.4999 1.6709 17.1268 1.6709 16.6666V3.33321C1.6709 2.87297 2.044 2.49988 2.50423 2.49988H17.5043C17.9645 2.49988 18.3376 2.87297 18.3376 3.33321V4.99988ZM12.5043 6.66654H19.1709V13.3332H12.5043C10.6632 13.3332 9.17092 11.8408 9.17092 9.99989C9.17092 8.15893 10.6632 6.66654 12.5043 6.66654ZM12.5043 9.16655V10.8332H15.0043V9.16655H12.5043Z" fill="#E3E3E3"/>
</svg>
