<svg width="20" height="20" viewBox="0 0 20 20" fill="none" xmlns="http://www.w3.org/2000/svg">
<path d="M17.5039 11.6665V17.4998C17.5039 17.9601 17.1308 18.3332 16.6706 18.3332H3.33724C2.87701 18.3332 2.50391 17.9601 2.50391 17.4998V11.6665C3.42438 11.6665 4.17057 10.9203 4.17057 9.99984C4.17057 9.07935 3.42438 8.33317 2.50391 8.33317V2.49984C2.50391 2.0396 2.87701 1.6665 3.33724 1.6665H16.6706C17.1308 1.6665 17.5039 2.0396 17.5039 2.49984V8.33317C16.5834 8.33317 15.8373 9.07935 15.8373 9.99984C15.8373 10.9203 16.5834 11.6665 17.5039 11.6665ZM15.8373 12.8873C14.8409 12.3108 14.1706 11.2337 14.1706 9.99984C14.1706 8.76601 14.8409 7.68879 15.8373 7.11244V3.33317H4.17057V7.11244C5.16691 7.68879 5.83724 8.76601 5.83724 9.99984C5.83724 11.2337 5.16691 12.3108 4.17057 12.8873V16.6665H15.8373V12.8873ZM7.50391 4.99984H12.5039V6.6665H7.50391V4.99984ZM7.50391 13.3332H12.5039V14.9998H7.50391V13.3332Z" fill="#E3E3E3"/>
</svg>
