<svg width="20" height="20" viewBox="0 0 20 20" fill="none" xmlns="http://www.w3.org/2000/svg">
<path d="M9.99959 17.2409L8.32533 16.2715L8.32303 18.196L9.99968 19.1667L11.6759 18.1963L11.6736 16.2718L9.99959 17.2409ZM13.3391 15.3075L13.3414 17.232L17.9163 14.5834V9.28813L16.2497 10.2477V13.6225L13.3391 15.3075ZM16.2497 8.32454L17.9163 7.36495V5.41671L16.2531 4.45377L14.5898 5.41669L16.2497 6.37763V8.32454ZM12.9267 4.45377L14.5898 3.49086L9.99968 0.833374L5.40939 3.49091L7.07261 4.45382L9.99959 2.75924L12.9267 4.45377ZM5.40939 5.41674L3.74617 4.45382L2.08301 5.41671V7.36529L3.74962 8.32485V6.37766L5.40939 5.41674ZM2.08301 9.28846L3.74962 10.248V13.6225L6.65982 15.3073L6.65752 17.2318L2.08301 14.5834V9.28846ZM14.5829 7.33858L12.9266 6.37963L9.99959 8.07422L7.07266 6.37969L5.41634 7.33861V9.28446L8.33168 10.963L8.32763 14.347L9.99959 15.315L11.6713 14.3473L11.6673 10.9629L14.5829 9.28412V7.33858ZM6.66212 13.3829L6.66387 11.9259L5.41634 11.2076V12.6616L6.66212 13.3829ZM8.73584 5.41677L9.99959 6.14839L11.2633 5.41672L9.99968 4.6851L8.73584 5.41677ZM13.3351 11.9258L14.5829 11.2074V12.6615L13.3368 13.383L13.3351 11.9258Z" fill="#E3E3E3"/>
</svg>
