<svg width="20" height="20" viewBox="0 0 20 20" fill="none" xmlns="http://www.w3.org/2000/svg">
<path d="M10.0039 0.83313C12.3051 0.83313 14.1706 2.69861 14.1706 4.99979V6.66646H16.6706C17.1308 6.66646 17.5039 7.03956 17.5039 7.49979V17.4998C17.5039 17.9601 17.1308 18.3331 16.6706 18.3331H3.33724C2.87701 18.3331 2.50391 17.9601 2.50391 17.4998V7.49979C2.50391 7.03956 2.87701 6.66646 3.33724 6.66646H5.83724V4.99979C5.83724 2.69861 7.70272 0.83313 10.0039 0.83313ZM14.1706 9.16647H12.5039V9.9998C12.5039 10.4601 12.877 10.8331 13.3373 10.8331C13.7646 10.8331 14.1168 10.5115 14.165 10.097L14.1706 9.9998V9.16647ZM7.50391 9.16647H5.83724V9.9998C5.83724 10.4601 6.21034 10.8331 6.67057 10.8331C7.09794 10.8331 7.45017 10.5115 7.4983 10.097L7.50391 9.9998V9.16647ZM10.0039 2.49979C8.67251 2.49979 7.58419 3.54056 7.50816 4.8529L7.50391 4.99979V6.66646H12.5039V4.99979C12.5039 3.66839 11.4632 2.58008 10.1508 2.50404L10.0039 2.49979Z" fill="#E3E3E3"/>
</svg>
