<svg width="20" height="20" viewBox="0 0 20 20" fill="none" xmlns="http://www.w3.org/2000/svg">
<path d="M17.9163 7.50004C17.9163 9.75329 16.5405 11.6853 14.583 12.5015V12.5C14.583 8.58804 11.4117 5.41671 7.49968 5.41671H7.49815C8.31445 3.45925 10.2464 2.08337 12.4997 2.08337C15.4913 2.08337 17.9163 4.5085 17.9163 7.50004ZM5.83301 2.50004C3.99206 2.50004 2.49967 3.99242 2.49967 5.83337V7.08337H4.16634V5.83337C4.16634 4.9129 4.91253 4.16671 5.83301 4.16671H7.08301V2.50004H5.83301ZM15.833 12.9167V14.1667C15.833 15.0872 15.0868 15.8334 14.1663 15.8334H12.9163V17.5H14.1663C16.0073 17.5 17.4997 16.0076 17.4997 14.1667V12.9167H15.833ZM7.49968 17.9167C10.4913 17.9167 12.9163 15.4916 12.9163 12.5C12.9163 9.50846 10.4913 7.08337 7.49968 7.08337C4.50813 7.08337 2.08301 9.50846 2.08301 12.5C2.08301 15.4916 4.50813 17.9167 7.49968 17.9167ZM7.49968 10.4167L9.58301 12.5L7.49968 14.5834L5.41634 12.5L7.49968 10.4167Z" fill="#E3E3E3"/>
</svg>
