<svg width="20" height="20" viewBox="0 0 20 20" fill="none" xmlns="http://www.w3.org/2000/svg">
<path d="M10.0042 18.3356C5.40187 18.3356 1.6709 14.6047 1.6709 10.0022C1.6709 5.3999 5.40187 1.66895 10.0042 1.66895C14.6066 1.66895 18.3376 5.3999 18.3376 10.0022C18.3376 14.6047 14.6066 18.3356 10.0042 18.3356ZM10.0042 16.6689C13.6862 16.6689 16.6709 13.6842 16.6709 10.0022C16.6709 6.32038 13.6862 3.33561 10.0042 3.33561C6.32233 3.33561 3.33757 6.32038 3.33757 10.0022C3.33757 13.6842 6.32233 16.6689 10.0042 16.6689ZM7.50423 6.66894H12.5042L14.5876 9.58557L10.0036 14.1689L5.4209 9.58557L7.50423 6.66894ZM8.36258 8.33557L7.5959 9.41057L10.0036 11.8189L12.4126 9.41057L11.6459 8.33557H8.36258Z" fill="#E3E3E3"/>
</svg>
