<svg width="20" height="20" viewBox="0 0 20 20" fill="none" xmlns="http://www.w3.org/2000/svg">
<path d="M7.5 5.00004C7.5 3.61933 8.61925 2.50004 10 2.50004C11.3807 2.50004 12.5 3.61933 12.5 5.00004H7.5ZM5.83333 5.00004H3.33333C2.8731 5.00004 2.5 5.37314 2.5 5.83337V17.5C2.5 17.9603 2.8731 18.3334 3.33333 18.3334H16.6667C17.1269 18.3334 17.5 17.9603 17.5 17.5V5.83337C17.5 5.37314 17.1269 5.00004 16.6667 5.00004H14.1667C14.1667 2.69886 12.3012 0.833374 10 0.833374C7.69882 0.833374 5.83333 2.69886 5.83333 5.00004ZM7.5 8.33337C7.5 9.71412 8.61925 10.8334 10 10.8334C11.3807 10.8334 12.5 9.71412 12.5 8.33337H14.1667C14.1667 10.6345 12.3012 12.5 10 12.5C7.69882 12.5 5.83333 10.6345 5.83333 8.33337H7.5Z" fill="#E3E3E3"/>
</svg>
