<svg width="20" height="20" viewBox="0 0 20 20" fill="none" xmlns="http://www.w3.org/2000/svg">
<path d="M8.33758 17.4998H2.50423C2.044 17.4998 1.6709 17.1267 1.6709 16.6664V3.33309C1.6709 2.87286 2.044 2.49976 2.50423 2.49976H8.33758C8.33758 3.42023 9.08375 4.16642 10.0042 4.16642C10.9247 4.16642 11.6709 3.42023 11.6709 2.49976H17.5042C17.9645 2.49976 18.3376 2.87286 18.3376 3.33309V16.6664C18.3376 17.1267 17.9645 17.4998 17.5042 17.4998H11.6709C11.6709 16.5793 10.9247 15.8331 10.0042 15.8331C9.08375 15.8331 8.33758 16.5793 8.33758 17.4998ZM5.00423 6.66642V13.3331H6.6709V6.66642H5.00423ZM13.3376 6.66642V13.3331H15.0042V6.66642H13.3376Z" fill="#E3E3E3"/>
</svg>
