<svg width="20" height="20" viewBox="0 0 20 20" fill="none" xmlns="http://www.w3.org/2000/svg">
<path d="M17.5039 4.95029C16.0546 6.59235 14.0744 7.75478 11.832 8.16903C11.4781 7.52343 10.7921 7.08573 10.0039 7.08573C9.21576 7.08573 8.52976 7.52343 8.17584 8.16903C5.93338 7.75478 3.95321 6.59235 2.50391 4.95029V2.5024C2.50391 2.04216 2.87701 1.66907 3.33724 1.66907H16.6706C17.1308 1.66907 17.5039 2.04216 17.5039 2.5024V4.95029ZM17.5039 7.27259V17.5024C17.5039 17.9626 17.1308 18.3357 16.6706 18.3357H3.33724C2.87701 18.3357 2.50391 17.9626 2.50391 17.5024V7.27259C4.05401 8.57481 5.94781 9.48123 8.02963 9.83606C8.30773 10.6596 9.08659 11.2524 10.0039 11.2524C10.9213 11.2524 11.7001 10.6596 11.9782 9.83606C14.06 9.48123 15.9538 8.57481 17.5039 7.27259Z" fill="#E3E3E3"/>
</svg>
