<svg width="20" height="20" viewBox="0 0 20 20" fill="none" xmlns="http://www.w3.org/2000/svg">
<path d="M2.50423 2.50232H17.5042C17.9645 2.50232 18.3376 2.87541 18.3376 3.33565V16.6689C18.3376 17.1292 17.9645 17.5023 17.5042 17.5023H2.50423C2.044 17.5023 1.6709 17.1292 1.6709 16.6689V3.33565C1.6709 2.87541 2.044 2.50232 2.50423 2.50232ZM3.33757 4.16899V15.8356H16.6709V4.16899H3.33757ZM8.37925 9.16894H12.5042V10.8356H8.37925C8.57225 11.7866 9.413 12.5023 10.4209 12.5023C10.9336 12.5023 11.4029 12.3172 11.7658 12.01L13.1833 12.955C12.4979 13.7013 11.514 14.1689 10.4209 14.1689C8.49067 14.1689 6.90106 12.7106 6.69379 10.8356H5.83757V9.16894H6.69379C6.90106 7.294 8.49067 5.83565 10.4209 5.83565C11.514 5.83565 12.4979 6.30338 13.1833 7.04962L11.7659 7.99462C11.403 7.68749 10.9336 7.50232 10.4209 7.50232C9.413 7.50232 8.57225 8.21805 8.37925 9.16894Z" fill="#E3E3E3"/>
</svg>
