<svg width="20" height="20" viewBox="0 0 20 20" fill="none" xmlns="http://www.w3.org/2000/svg">
<path d="M10.0042 1.66663C12.7657 1.66663 15.0042 3.9052 15.0042 6.66663V7.49996H18.3376V9.16663H17.3651L16.7346 16.7358C16.6986 17.1677 16.3375 17.5 15.9041 17.5H4.10435C3.67094 17.5 3.30988 17.1677 3.27389 16.7358L2.64257 9.16663H1.6709V7.49996H5.00423V6.66663C5.00423 3.9052 7.24281 1.66663 10.0042 1.66663ZM15.6926 9.16663H4.31507L4.8709 15.8333H15.1367L15.6926 9.16663ZM10.8376 10.8333V14.1666H9.17092V10.8333H10.8376ZM7.50423 10.8333V14.1666H5.83757V10.8333H7.50423ZM14.1709 10.8333V14.1666H12.5042V10.8333H14.1709ZM10.0042 3.33329C8.21907 3.33329 6.76167 4.7366 6.67498 6.50026L6.6709 6.66663V7.49996H13.3376V6.66663C13.3376 4.88146 11.9342 3.42406 10.1706 3.33738L10.0042 3.33329Z" fill="#E3E3E3"/>
</svg>
