<svg width="20" height="20" viewBox="0 0 20 20" fill="none" xmlns="http://www.w3.org/2000/svg">
<path d="M10.0003 18.3333C14.6027 18.3333 18.3337 14.6023 18.3337 9.99996C18.3337 5.39758 14.6027 1.66663 10.0003 1.66663C5.39795 1.66663 1.66699 5.39758 1.66699 9.99996C1.66699 14.6023 5.39795 18.3333 10.0003 18.3333ZM11.2506 6.66663C11.5235 7.03001 11.7191 7.45482 11.8128 7.91663H13.3337V9.16662H11.8128C11.5232 10.593 10.2622 11.6666 8.75032 11.6666H8.59257L11.6922 14.7664L10.8084 15.6502L6.66699 11.5089V10.4166H8.75032C9.56674 10.4166 10.2612 9.89487 10.5187 9.16662H6.66699V7.91663H10.5187C10.2612 7.18838 9.56674 6.66663 8.75032 6.66663H6.66699V5.41663H13.3337V6.66663H11.2506Z" fill="#E3E3E3"/>
</svg>
