<svg width="20" height="20" viewBox="0 0 20 20" fill="none" xmlns="http://www.w3.org/2000/svg">
<path d="M7.49968 10C8.42018 10 9.16634 9.25387 9.16634 8.33337C9.16634 7.4129 8.42018 6.66671 7.49968 6.66671C6.5792 6.66671 5.83301 7.4129 5.83301 8.33337C5.83301 9.25387 6.5792 10 7.49968 10ZM17.9163 5.41671L9.99968 0.833374L2.08301 5.41671V14.5834L9.99968 19.1667L17.9163 14.5834V5.41671ZM9.99968 2.75921L16.2497 6.37763V12.1115L12.4479 9.83054L5.80525 14.8125L3.74967 13.6225V6.37763L9.99968 2.75921ZM9.99968 17.2409L7.37291 15.7201L12.5514 11.8362L15.8826 13.835L9.99968 17.2409Z" fill="#E3E3E3"/>
</svg>
