<svg width="20" height="20" viewBox="0 0 20 20" fill="none" xmlns="http://www.w3.org/2000/svg">
<path d="M10.0039 2.58603L5.87912 6.71081C3.60106 8.98885 3.60106 12.6824 5.87912 14.9604C8.15718 17.2384 11.8507 17.2384 14.1287 14.9604C16.4068 12.6824 16.4068 8.98885 14.1287 6.71082L10.0039 2.58603ZM10.0039 0.229004L15.3072 5.5323C18.2362 8.46127 18.2362 13.2099 15.3072 16.1389C12.3783 19.0679 7.62954 19.0679 4.70061 16.1389C1.77167 13.2099 1.77167 8.46127 4.70061 5.5323L10.0039 0.229004ZM10.8373 9.16894H12.9206L9.17059 14.5856V10.8356H7.08724L10.8373 5.41894V9.16894Z" fill="#E3E3E3"/>
</svg>
