<svg width="20" height="20" viewBox="0 0 20 20" fill="none" xmlns="http://www.w3.org/2000/svg">
<path d="M7.50043 2.41687C7.50043 2.03118 7.76587 1.6957 8.14101 1.60613C9.30416 1.33005 10.6954 1.33397 11.859 1.60593C12.2306 1.69427 12.5004 2.03474 12.5004 2.41687V4.19815C12.5004 4.44064 12.6407 4.66124 12.8602 4.76411L17.6052 6.98727C18.2262 7.27823 18.4968 8.01519 18.2117 8.63888L14.484 16.7932C14.2871 17.224 13.8569 17.5004 13.3832 17.5004H6.61768C6.144 17.5004 5.71386 17.224 5.51693 16.7932L1.78923 8.63888C1.50411 8.01519 1.77473 7.27824 2.39573 6.98727L7.1406 4.76412C7.36018 4.66124 7.50043 4.44064 7.50043 4.19816V2.41687ZM9.16708 3.15003V4.19799C9.16708 5.08709 8.65283 5.89594 7.84772 6.27317L7.0303 6.65616C7.61845 8.2411 8.80883 9.16663 10.0004 9.16663C11.1921 9.16663 12.3824 8.2411 12.9706 6.65617L12.1532 6.27317C11.348 5.89594 10.8337 5.08709 10.8337 4.19798V3.15002C10.614 3.1341 10.3369 3.12211 10.0004 3.12211C9.66391 3.12211 9.38683 3.1341 9.16708 3.15003ZM9.43275 10.7946C7.63948 10.5482 6.22935 9.14871 5.51932 7.36411L3.47662 8.32119L6.91083 15.8335H13.0901L16.5243 8.32119L14.4816 7.3641C13.7715 9.14871 12.3614 10.5482 10.5681 10.7946L11.8243 12.5533C11.9795 12.7706 11.9795 13.0625 11.8243 13.2799L10.17 15.5959C10.0869 15.7122 9.91399 15.7122 9.83091 15.5959L8.17659 13.2799C8.02136 13.0625 8.02136 12.7706 8.17659 12.5533L9.43275 10.7946Z" fill="#E3E3E3"/>
</svg>
