<svg width="20" height="20" viewBox="0 0 20 20" fill="none" xmlns="http://www.w3.org/2000/svg">
<path d="M11.6219 1.74505C10.6875 0.94875 9.31316 0.948758 8.37883 1.74504L7.25546 2.70234C7.12199 2.81608 6.95604 2.88482 6.78123 2.89877L5.30999 3.01617C4.08622 3.11383 3.11444 4.08561 3.01679 5.30937L2.89939 6.78061C2.88544 6.95541 2.81669 7.1214 2.70294 7.25487L1.74564 8.37821C0.949362 9.31262 0.94937 10.6869 1.74566 11.6212L2.70296 12.7446C2.81669 12.8781 2.88543 13.044 2.89938 13.2189L3.0168 14.69C3.11446 15.9138 4.08624 16.8855 5.31003 16.9832L6.78124 17.1007C6.95604 17.1146 7.12195 17.1834 7.25542 17.2971L8.37874 18.2544C9.31316 19.0506 10.6875 19.0507 11.6219 18.2544L12.7452 17.2971C12.8787 17.1834 13.0446 17.1146 13.2194 17.1006L14.6907 16.9832C15.9144 16.8856 16.8862 15.9139 16.9839 14.69L17.1012 13.2189C17.1152 13.044 17.184 12.878 17.2977 12.7445L18.255 11.6213C19.0513 10.6869 19.0513 9.31254 18.255 8.37821L17.2977 7.25483C17.1839 7.12136 17.1152 6.95541 17.1013 6.78062L16.9839 5.30938C16.8862 4.08562 15.9144 3.11382 14.6907 3.01617L13.2194 2.89876C13.0446 2.88481 12.8787 2.81608 12.7452 2.70234L11.6219 1.74505ZM12.3572 6.46427L13.5357 7.64279L7.64309 13.5354L6.46458 12.3568L12.3572 6.46427ZM8.52699 8.52662C8.03881 9.01479 7.24736 9.01479 6.7592 8.52662C6.27104 8.03854 6.27104 7.24706 6.7592 6.7589C7.24736 6.27074 8.03881 6.27074 8.52699 6.7589C9.01516 7.24706 9.01516 8.03854 8.52699 8.52662ZM11.4732 13.2407C10.9851 12.7525 10.9851 11.9611 11.4732 11.473C11.9614 10.9848 12.7528 10.9848 13.241 11.473C13.7292 11.9611 13.7292 12.7525 13.241 13.2407C12.7528 13.7289 11.9614 13.7289 11.4732 13.2407Z" fill="#E3E3E3"/>
</svg>
