<svg width="20" height="20" viewBox="0 0 20 20" fill="none" xmlns="http://www.w3.org/2000/svg">
<path d="M5.00039 4.92851L3.08964 6.83926L1.91113 5.66074L5.83373 1.73816L9.75633 5.66074L8.57783 6.83926L6.66706 4.92851L6.66705 9.16664H5.00039V4.92851ZM14.1671 7.91667C15.3177 7.91667 16.2504 6.98393 16.2504 5.83333C16.2504 4.68274 15.3177 3.75 14.1671 3.75C13.0165 3.75 12.0837 4.68274 12.0837 5.83333C12.0837 6.98393 13.0165 7.91667 14.1671 7.91667ZM14.1671 9.58331C12.096 9.58331 10.4171 7.9044 10.4171 5.83333C10.4171 3.76227 12.096 2.08333 14.1671 2.08333C16.2382 2.08333 17.9171 3.76227 17.9171 5.83333C17.9171 7.9044 16.2382 9.58331 14.1671 9.58331ZM18.0897 14.3392L16.9112 13.1607L15.0004 15.0715V10.8333H13.3337V15.0715L11.423 13.1607L10.2445 14.3392L14.1671 18.2618L18.0897 14.3392ZM4.16706 15.8333H7.50038L7.50039 12.5H4.16706V15.8333ZM8.33374 10.8333C8.79399 10.8333 9.16708 11.2064 9.16708 11.6666V16.6666C9.16708 17.1269 8.79399 17.5 8.33374 17.5H3.33372C2.87348 17.5 2.50038 17.1269 2.50039 16.6666V11.6666C2.50039 11.2064 2.87348 10.8333 3.33372 10.8333H8.33374Z" fill="#E3E3E3"/>
</svg>
