<svg width="20" height="20" viewBox="0 0 20 20" fill="none" xmlns="http://www.w3.org/2000/svg">
<path d="M5.83724 6.66634V4.99967C5.83724 2.69849 7.70272 0.833008 10.0039 0.833008C12.3051 0.833008 14.1706 2.69849 14.1706 4.99967V6.66634H16.6706C17.1308 6.66634 17.5039 7.03944 17.5039 7.49967V17.4997C17.5039 17.9599 17.1308 18.333 16.6706 18.333H3.33724C2.87701 18.333 2.50391 17.9599 2.50391 17.4997V7.49967C2.50391 7.03944 2.87701 6.66634 3.33724 6.66634H5.83724ZM5.83724 8.333H4.17057V16.6664H15.8373V8.333H14.1706V9.9997H12.5039V8.333H7.50391V9.9997H5.83724V8.333ZM7.50391 6.66634H12.5039V4.99967C12.5039 3.61896 11.3846 2.49967 10.0039 2.49967C8.62317 2.49967 7.50391 3.61896 7.50391 4.99967V6.66634Z" fill="#E3E3E3"/>
</svg>
