<svg width="20" height="20" viewBox="0 0 20 20" fill="none" xmlns="http://www.w3.org/2000/svg">
<path d="M10.0036 3.33569C15.0662 3.33569 19.1703 5.57427 19.1703 8.33569V11.669C19.1703 14.4304 15.0662 16.669 10.0036 16.669C5.03138 16.669 0.983797 14.5097 0.840822 11.8164L0.836914 11.669V8.33569C0.836914 5.57427 4.94097 3.33569 10.0036 3.33569ZM10.0036 13.3357C6.90321 13.3357 4.16232 12.4961 2.5034 11.2111L2.50358 11.669C2.50358 13.2375 5.73911 15.0024 10.0036 15.0024C14.1792 15.0024 17.3683 13.3103 17.4994 11.7673L17.5036 11.669L17.5046 11.2104C15.8458 12.4959 13.1045 13.3357 10.0036 13.3357ZM10.0036 5.00236C5.73911 5.00236 2.50358 6.76719 2.50358 8.33569C2.50358 9.90419 5.73911 11.669 10.0036 11.669C14.2681 11.669 17.5036 9.90419 17.5036 8.33569C17.5036 6.76719 14.2681 5.00236 10.0036 5.00236Z" fill="#E3E3E3"/>
</svg>
