<svg width="20" height="20" viewBox="0 0 20 20" fill="none" xmlns="http://www.w3.org/2000/svg">
<path d="M16.6667 4.16663C16.6667 5.54733 15.5474 6.66663 14.1667 6.66663C12.7859 6.66663 11.6667 5.54733 11.6667 4.16663C11.6667 2.78592 12.7859 1.66663 14.1667 1.66663C15.5474 1.66663 16.6667 2.78592 16.6667 4.16663ZM5.83333 2.49996C3.99238 2.49996 2.5 3.99234 2.5 5.83329V7.49996H4.16667V5.83329C4.16667 4.91282 4.91286 4.16663 5.83333 4.16663H8.33333V2.49996H5.83333ZM14.1667 17.5C16.0076 17.5 17.5 16.0075 17.5 14.1666V12.5H15.8333V14.1666C15.8333 15.0871 15.0872 15.8333 14.1667 15.8333H11.6667V17.5H14.1667ZM5.83333 13.3333C7.21404 13.3333 8.33333 12.214 8.33333 10.8333C8.33333 9.45254 7.21404 8.33329 5.83333 8.33329C4.45262 8.33329 3.33333 9.45254 3.33333 10.8333C3.33333 12.214 4.45262 13.3333 5.83333 13.3333ZM14.1667 7.49996C12.3257 7.49996 10.8333 8.99238 10.8333 10.8333H17.5C17.5 8.99238 16.0076 7.49996 14.1667 7.49996ZM2.5 17.5C2.5 15.659 3.99238 14.1666 5.83333 14.1666C7.67428 14.1666 9.16667 15.659 9.16667 17.5H2.5Z" fill="#E3E3E3"/>
</svg>
