<svg width="20" height="20" viewBox="0 0 20 20" fill="none" xmlns="http://www.w3.org/2000/svg">
<path d="M15.0042 16.6666H5.00423V18.3332H3.33757V16.6666H2.50423C2.044 16.6666 1.6709 16.2935 1.6709 15.8332V3.33321C1.6709 2.87297 2.044 2.49988 2.50423 2.49988H17.5042C17.9645 2.49988 18.3376 2.87297 18.3376 3.33321V15.8332C18.3376 16.2935 17.9645 16.6666 17.5042 16.6666H16.6709V18.3332H15.0042V16.6666ZM3.33757 14.9999H16.6709V4.16654H3.33757V14.9999ZM10.8376 11.5616V14.1666H9.17092V11.5616C7.73322 11.1915 6.6709 9.88639 6.6709 8.33321C6.6709 6.49226 8.16328 4.99988 10.0042 4.99988C11.8452 4.99988 13.3376 6.49226 13.3376 8.33321C13.3376 9.88639 12.2752 11.1915 10.8376 11.5616ZM10.0042 9.99989C10.9247 9.99989 11.6709 9.25372 11.6709 8.33321C11.6709 7.41274 10.9247 6.66654 10.0042 6.66654C9.08375 6.66654 8.33758 7.41274 8.33758 8.33321C8.33758 9.25372 9.08375 9.99989 10.0042 9.99989Z" fill="#E3E3E3"/>
</svg>
