<svg width="20" height="20" viewBox="0 0 20 20" fill="none" xmlns="http://www.w3.org/2000/svg">
<path d="M5.83301 17.9167C3.76194 17.9167 2.08301 16.2378 2.08301 14.1667C2.08301 12.0956 3.76194 10.4167 5.83301 10.4167C7.90408 10.4167 9.58301 12.0956 9.58301 14.1667C9.58301 16.2378 7.90408 17.9167 5.83301 17.9167ZM14.1663 9.58337C12.0953 9.58337 10.4163 7.90444 10.4163 5.83337C10.4163 3.76231 12.0953 2.08337 14.1663 2.08337C16.2374 2.08337 17.9163 3.76231 17.9163 5.83337C17.9163 7.90444 16.2374 9.58337 14.1663 9.58337ZM2.49967 6.66671C2.49967 4.36552 4.36516 2.50004 6.66634 2.50004H9.16634V4.16671H6.66634C5.28563 4.16671 4.16634 5.286 4.16634 6.66671V9.16671H2.49967V6.66671ZM15.833 10.8334V13.3334C15.833 14.7141 14.7138 15.8334 13.333 15.8334H10.833V17.5H13.333C15.6342 17.5 17.4997 15.6345 17.4997 13.3334V10.8334H15.833Z" fill="#E3E3E3"/>
</svg>
