<svg width="20" height="20" viewBox="0 0 20 20" fill="none" xmlns="http://www.w3.org/2000/svg">
<path d="M16.1487 12.588C17.4378 9.53503 16.2808 5.92854 13.3365 4.2287C11.2089 3.00033 8.68568 3.07799 6.69511 4.21295L5.86814 2.76561C8.35634 1.34694 11.5103 1.24987 14.1698 2.78533C17.9121 4.94589 19.3446 9.57062 17.6011 13.4266L18.7193 14.0722L15.2483 15.9173L15.1108 11.9889L16.1487 12.588ZM3.85768 7.41635C2.56853 10.4694 3.72564 14.0759 6.66985 15.7757C8.79743 17.004 11.3206 16.9264 13.3111 15.7915L14.1381 17.2389C11.6499 18.6574 8.49601 18.7545 5.83652 17.2191C2.09432 15.0585 0.661813 10.4338 2.40528 6.5778L1.28711 5.93223L4.758 4.08714L4.89555 8.01556L3.85768 7.41635ZM11.1817 12.3592L8.82468 10.0022L6.46765 12.3592L5.28914 11.1807L8.82468 7.64518L11.1817 10.0022L13.5388 7.64518L14.7173 8.8237L11.1817 12.3592Z" fill="#E3E3E3"/>
</svg>
