<svg width="20" height="20" viewBox="0 0 20 20" fill="none" xmlns="http://www.w3.org/2000/svg">
<path d="M2.50423 2.50232H17.5042C17.9645 2.50232 18.3376 2.87541 18.3376 3.33565V16.6689C18.3376 17.1292 17.9645 17.5023 17.5042 17.5023H2.50423C2.044 17.5023 1.6709 17.1292 1.6709 16.6689V3.33565C1.6709 2.87541 2.044 2.50232 2.50423 2.50232ZM7.08757 11.6689V13.3356H9.17092V15.0023H10.8376V13.3356H11.6709C12.8215 13.3356 13.7542 12.4029 13.7542 11.2523C13.7542 10.1017 12.8215 9.16894 11.6709 9.16894H8.33758C8.10745 9.16894 7.9209 8.98244 7.9209 8.75228C7.9209 8.52219 8.10745 8.33561 8.33758 8.33561H12.9209V6.66899H10.8376V5.00232H9.17092V6.66899H8.33758C7.18697 6.66899 6.25423 7.60172 6.25423 8.75228C6.25423 9.90294 7.18697 10.8356 8.33758 10.8356H11.6709C11.901 10.8356 12.0876 11.0222 12.0876 11.2523C12.0876 11.4824 11.901 11.6689 11.6709 11.6689H7.08757Z" fill="#E3E3E3"/>
</svg>
