<svg width="20" height="20" viewBox="0 0 20 20" fill="none" xmlns="http://www.w3.org/2000/svg">
<path d="M5.42057 1.66663H14.5873C14.8495 1.66663 15.0965 1.79012 15.2539 1.99996L17.5039 4.99996V17.5C17.5039 17.9602 17.1308 18.3333 16.6706 18.3333H3.33724C2.87701 18.3333 2.50391 17.9602 2.50391 17.5V4.99996L4.75391 1.99996C4.91129 1.79012 5.15828 1.66663 5.42057 1.66663ZM15.8373 6.66663H4.17057V16.6666H15.8373V6.66663ZM15.4206 4.99996L14.1706 3.33329H5.83724L4.58724 4.99996H15.4206ZM7.50391 8.33329V9.99996C7.50391 11.3807 8.62317 12.5 10.0039 12.5C11.3846 12.5 12.5039 11.3807 12.5039 9.99996V8.33329H14.1706V9.99996C14.1706 12.3011 12.3051 14.1666 10.0039 14.1666C7.70272 14.1666 5.83724 12.3011 5.83724 9.99996V8.33329H7.50391Z" fill="#E3E3E3"/>
</svg>
