<svg width="20" height="20" viewBox="0 0 20 20" fill="none" xmlns="http://www.w3.org/2000/svg">
<path d="M1.6709 15.8333H18.3376V17.5H1.6709V15.8333ZM9.17092 6.66667H10.8376V13.3333H9.17092V6.66667ZM6.64184 6.66667L5.0911 10.9272L3.54037 6.66667H1.76962L4.25777 13.3031H5.92443L8.41258 6.66667H6.64184ZM14.1709 11.6667V13.3333H12.5042V6.66667H15.8376C17.2182 6.66667 18.3376 7.78596 18.3376 9.16667C18.3376 10.5474 17.2182 11.6667 15.8376 11.6667H14.1709ZM14.1709 8.33333V10H15.8376C16.2978 10 16.6709 9.62692 16.6709 9.16667C16.6709 8.70642 16.2978 8.33333 15.8376 8.33333H14.1709ZM1.6709 2.5H18.3376V4.16667H1.6709V2.5Z" fill="#E3E3E3"/>
</svg>
