<svg width="20" height="20" viewBox="0 0 20 20" fill="none" xmlns="http://www.w3.org/2000/svg">
<path d="M4.48211 3.76111C5.95237 2.45926 7.88601 1.66895 10.0042 1.66895C14.6066 1.66895 18.3376 5.3999 18.3376 10.0022C18.3376 11.7731 17.7852 13.4148 16.8435 14.7647L14.5876 10.0022H16.6709C16.6709 6.32038 13.6862 3.33561 10.0042 3.33561C8.13398 3.33561 6.44361 4.10575 5.23293 5.34619L4.48211 3.76111ZM15.5263 16.2434C14.0561 17.5453 12.1225 18.3356 10.0042 18.3356C5.40187 18.3356 1.6709 14.6047 1.6709 10.0022C1.6709 8.23149 2.22322 6.5897 3.16498 5.23979L5.4209 10.0022H3.33757C3.33757 13.6842 6.32233 16.6689 10.0042 16.6689C11.8745 16.6689 13.5648 15.8988 14.7755 14.6583L15.5263 16.2434ZM7.08757 11.6689H11.6709C11.901 11.6689 12.0876 11.4824 12.0876 11.2522C12.0876 11.0222 11.901 10.8356 11.6709 10.8356H8.33758C7.18697 10.8356 6.25423 9.9029 6.25423 8.75224C6.25423 7.60168 7.18697 6.66894 8.33758 6.66894H9.17092V5.83561H10.8376V6.66894H12.9209V8.33557H8.33758C8.10745 8.33557 7.9209 8.52215 7.9209 8.75224C7.9209 8.9824 8.10745 9.1689 8.33758 9.1689H11.6709C12.8215 9.1689 13.7542 10.1017 13.7542 11.2522C13.7542 12.4029 12.8215 13.3356 11.6709 13.3356H10.8376V14.1689H9.17092V13.3356H7.08757V11.6689Z" fill="#E3E3E3"/>
</svg>
