<svg width="20" height="20" viewBox="0 0 20 20" fill="none" xmlns="http://www.w3.org/2000/svg">
<path d="M5.00039 4.92851L3.08964 6.83926L1.91113 5.66074L5.83373 1.73816L9.75633 5.66074L8.57783 6.83926L6.66706 4.92851L6.66705 9.16664H5.00039V4.92851ZM10.4171 5.83333C10.4171 7.9044 12.096 9.58331 14.1671 9.58331C16.2382 9.58331 17.9171 7.9044 17.9171 5.83333C17.9171 3.76227 16.2382 2.08333 14.1671 2.08333C12.096 2.08333 10.4171 3.76227 10.4171 5.83333ZM18.0897 14.3392L16.9112 13.1607L15.0004 15.0715V10.8333H13.3337V15.0715L11.423 13.1607L10.2445 14.3392L14.1671 18.2618L18.0897 14.3392ZM9.16708 11.6666C9.16708 11.2064 8.79399 10.8333 8.33374 10.8333H3.33372C2.87348 10.8333 2.50039 11.2064 2.50039 11.6666V16.6666C2.50038 17.1269 2.87348 17.5 3.33372 17.5H8.33374C8.79399 17.5 9.16708 17.1269 9.16708 16.6666V11.6666Z" fill="#E3E3E3"/>
</svg>
