<svg width="20" height="20" viewBox="0 0 20 20" fill="none" xmlns="http://www.w3.org/2000/svg">
<path d="M8.37883 1.74504C9.31316 0.948758 10.6875 0.94875 11.6219 1.74505L12.7452 2.70234C12.8787 2.81608 13.0446 2.88481 13.2194 2.89876L14.6907 3.01617C15.9144 3.11382 16.8862 4.08562 16.9839 5.30938L17.1013 6.78062C17.1152 6.95541 17.1839 7.12136 17.2977 7.25483L18.255 8.37821C19.0513 9.31254 19.0513 10.6869 18.255 11.6213L17.2977 12.7445C17.184 12.878 17.1152 13.044 17.1012 13.2189L16.9839 14.69C16.8862 15.9139 15.9144 16.8856 14.6907 16.9832L13.2194 17.1006C13.0446 17.1146 12.8787 17.1834 12.7452 17.2971L11.6219 18.2544C10.6875 19.0507 9.31316 19.0506 8.37874 18.2544L7.25542 17.2971C7.12195 17.1834 6.95604 17.1146 6.78124 17.1007L5.31003 16.9832C4.08624 16.8855 3.11446 15.9138 3.0168 14.69L2.89938 13.2189C2.88543 13.044 2.81669 12.8781 2.70296 12.7446L1.74566 11.6212C0.94937 10.6869 0.949362 9.31262 1.74564 8.37821L2.70294 7.25487C2.81669 7.1214 2.88544 6.95541 2.89939 6.78061L3.01679 5.30937C3.11444 4.08561 4.08622 3.11383 5.30999 3.01617L6.78124 2.89877C6.95604 2.88482 7.12199 2.81608 7.25546 2.70234L8.37883 1.74504ZM10.5408 3.01356C10.2294 2.74814 9.77124 2.74813 9.45983 3.01356L8.33649 3.97087C7.93608 4.31209 7.43823 4.5183 6.9138 4.56015L5.44258 4.67756C5.03465 4.71012 4.71073 5.03403 4.67818 5.44197L4.56076 6.91323C4.51891 7.43763 4.3127 7.93545 3.97149 8.33587L3.01419 9.45921C2.74876 9.77062 2.74875 10.2288 3.01419 10.5402L3.97149 11.6635C4.31271 12.064 4.51891 12.5619 4.56079 13.0862L4.67819 14.5575C4.71073 14.9654 5.03465 15.2894 5.44259 15.3219L6.91379 15.4393C7.43819 15.4811 7.93608 15.6874 8.33649 16.0286L9.45983 16.9859C9.77133 17.2513 10.2294 17.2513 10.5408 16.9859L11.6642 16.0285C12.0646 15.6874 12.5624 15.4811 13.0868 15.4393L14.5581 15.3219C14.966 15.2893 15.29 14.9654 15.3225 14.5575L15.4399 13.0862C15.4817 12.5618 15.6879 12.064 16.0292 11.6636L16.9865 10.5402C17.252 10.2288 17.2519 9.77071 16.9865 9.45921L16.0292 8.33587C15.6879 7.93545 15.4817 7.43762 15.4399 6.91321L15.3225 5.44197C15.29 5.03404 14.966 4.71012 14.5581 4.67756L13.0868 4.56016C12.5625 4.51832 12.0646 4.31208 11.6642 3.97086L10.5408 3.01356ZM12.3572 6.46427L13.5357 7.64279L7.64311 13.5354L6.4646 12.3568L12.3572 6.46427ZM8.52699 8.52662C8.03883 9.01479 7.24739 9.01479 6.75923 8.52662C6.27107 8.03854 6.27107 7.24706 6.75923 6.7589C7.24739 6.27074 8.03883 6.27074 8.52699 6.7589C9.01516 7.24706 9.01516 8.03854 8.52699 8.52662ZM11.4732 13.2407C11.9614 13.7289 12.7528 13.7289 13.241 13.2407C13.7292 12.7525 13.7292 11.9611 13.241 11.473C12.7528 10.9848 11.9614 10.9848 11.4732 11.473C10.9851 11.9611 10.9851 12.7525 11.4732 13.2407Z" fill="#E3E3E3"/>
</svg>
