<svg width="20" height="20" viewBox="0 0 20 20" fill="none" xmlns="http://www.w3.org/2000/svg">
<path d="M16.222 7.24487L16.4275 6.77347C16.7938 5.93293 17.4534 5.26372 18.2766 4.89761L18.9096 4.61606C19.2519 4.46382 19.2519 3.96572 18.9096 3.81347L18.312 3.54766C17.4677 3.17213 16.7962 2.47815 16.4362 1.60907L16.2252 1.09965C16.0782 0.744615 15.5878 0.744615 15.4408 1.09965L15.2298 1.60907C14.8698 2.47815 14.1983 3.17213 13.354 3.54766L12.7563 3.81347C12.4141 3.96572 12.4141 4.46382 12.7563 4.61606L13.3894 4.89761C14.2126 5.26372 14.8723 5.93293 15.2385 6.77347L15.4439 7.24487C15.5943 7.58997 16.0717 7.58997 16.222 7.24487ZM11.1554 5.28237C11.3838 5.64382 11.6961 5.91092 12.0923 6.08364L12.5633 6.28903C13.0385 6.49616 13.378 6.82901 13.5819 7.28758L13.8634 7.92062C14.4697 9.28471 16.2733 9.49946 17.2572 8.56562L17.333 8.66671C17.5719 8.98521 17.5521 9.42821 17.2858 9.72421L9.78576 18.0575C9.62776 18.2331 9.40259 18.3334 9.16634 18.3334C8.93009 18.3334 8.70501 18.2331 8.54693 18.0575L1.04693 9.72421C0.780586 9.42821 0.760789 8.98521 0.999675 8.66671L3.49968 5.33337C3.65706 5.12353 3.90405 5.00004 4.16634 5.00004H11.0049C11.0473 5.09646 11.0974 5.19057 11.1554 5.28237Z" fill="#E3E3E3"/>
</svg>
