<svg width="20" height="20" viewBox="0 0 20 20" fill="none" xmlns="http://www.w3.org/2000/svg">
<path d="M4.48211 3.76111C5.95237 2.45926 7.88601 1.66895 10.0042 1.66895C14.6066 1.66895 18.3376 5.3999 18.3376 10.0022C18.3376 11.7731 17.7852 13.4148 16.8435 14.7647L14.5876 10.0022H16.6709C16.6709 6.32038 13.6862 3.33561 10.0042 3.33561C8.13398 3.33561 6.44361 4.10575 5.23293 5.34619L4.48211 3.76111ZM15.5263 16.2434C14.0561 17.5453 12.1225 18.3356 10.0042 18.3356C5.40187 18.3356 1.6709 14.6047 1.6709 10.0022C1.6709 8.23149 2.22322 6.5897 3.16498 5.23979L5.4209 10.0022H3.33757C3.33757 13.6842 6.32233 16.6689 10.0042 16.6689C11.8745 16.6689 13.5648 15.8988 14.7755 14.6583L15.5263 16.2434ZM10.8376 11.2819H13.3376V12.9486H10.8376V14.6152H9.17092V12.9486H6.6709V11.2819H9.17092V10.4486H6.6709V8.7819H8.82575L7.05796 7.01412L8.23647 5.83561L10.0042 7.60338L11.772 5.83561L12.9505 7.01412L11.1827 8.7819H13.3376V10.4486H10.8376V11.2819Z" fill="#E3E3E3"/>
</svg>
