<svg width="20" height="20" viewBox="0 0 20 20" fill="none" xmlns="http://www.w3.org/2000/svg">
<path d="M10.0042 10.8357C11.3849 10.8357 12.5042 11.9551 12.5042 13.3357C12.5042 14.0433 12.2102 14.6823 11.7377 15.1371L10.146 16.6687L12.5042 16.6691V18.3357H7.50423L7.50348 16.8987L10.5821 13.9362C10.7397 13.7843 10.8376 13.5715 10.8376 13.3357C10.8376 12.8755 10.4645 12.5024 10.0042 12.5024C9.544 12.5024 9.17092 12.8755 9.17092 13.3357H7.50423C7.50423 11.9551 8.6235 10.8357 10.0042 10.8357ZM15.0042 10.8357V14.1691H16.6709V10.8357H18.3376V18.3357H16.6709V15.8357H13.3376V10.8357H15.0042ZM3.33757 10.0024C3.33757 12.1079 4.3136 13.9854 5.83789 15.2071L5.83758 17.2209C3.34673 15.78 1.6709 13.0869 1.6709 10.0024H3.33757ZM10.0042 1.66907C14.3253 1.66907 17.8782 4.95792 18.2964 9.16898L16.6193 9.16914C16.2093 5.88049 13.4039 3.33573 10.0042 3.33573C7.95102 3.33573 6.11459 4.26393 4.89167 5.72359L6.6709 7.5024H1.6709V2.5024L3.7097 4.54113C5.23759 2.78164 7.49098 1.66907 10.0042 1.66907Z" fill="#E3E3E3"/>
</svg>
