<svg width="20" height="20" viewBox="0 0 20 20" fill="none" xmlns="http://www.w3.org/2000/svg">
<path d="M12.8092 2.8667L15.4851 7.5017L18.3376 7.50185V9.16853L17.3651 9.16837L16.7346 16.7377C16.6986 17.1696 16.3375 17.5019 15.9041 17.5019H4.10435C3.67094 17.5019 3.30988 17.1696 3.27389 16.7377L2.64257 9.16837L1.6709 9.16853V7.50185L4.52257 7.5017L7.19922 2.8667L8.64258 3.70003L6.44757 7.5017H13.5601L11.3659 3.70003L12.8092 2.8667ZM10.8376 10.8352H9.17092V14.1685H10.8376V10.8352ZM7.50423 10.8352H5.83757V14.1685H7.50423V10.8352ZM14.1709 10.8352H12.5042V14.1685H14.1709V10.8352Z" fill="#E3E3E3"/>
</svg>
