<svg width="20" height="20" viewBox="0 0 20 20" fill="none" xmlns="http://www.w3.org/2000/svg">
<path d="M10.0042 18.3356C5.40187 18.3356 1.6709 14.6047 1.6709 10.0022C1.6709 5.3999 5.40187 1.66895 10.0042 1.66895C14.6066 1.66895 18.3376 5.3999 18.3376 10.0022C18.3376 14.6047 14.6066 18.3356 10.0042 18.3356ZM7.50423 10.8356V12.5022H6.6709V14.1689H13.3376V12.5022H9.17092V10.8356H11.6709V9.1689H9.17092V8.33557C9.17092 7.64525 9.73058 7.08561 10.4209 7.08561C10.8609 7.08561 11.2477 7.31293 11.4705 7.65654L13.1259 7.24269C12.6934 6.17335 11.6452 5.41894 10.4209 5.41894C8.81008 5.41894 7.50423 6.72478 7.50423 8.33557V9.1689H6.6709V10.8356H7.50423Z" fill="#E3E3E3"/>
</svg>
