<svg width="20" height="20" viewBox="0 0 20 20" fill="none" xmlns="http://www.w3.org/2000/svg">
<path d="M16.6709 16.9442V18.3332H15.0043V17.222L8.82275 18.2522C8.59575 18.2901 8.38108 18.1367 8.34325 17.9097C8.3395 17.8872 8.33758 17.8642 8.33758 17.8412V16.6665H5.00423V18.3332H3.33757V16.6665H2.50423C2.044 16.6665 1.6709 16.2933 1.6709 15.8332V3.33313C1.6709 2.87289 2.044 2.4998 2.50423 2.4998H8.33758V1.32499C8.33758 1.09487 8.52408 0.908325 8.75425 0.908325C8.77717 0.908325 8.80008 0.910217 8.82275 0.913992L17.6413 2.38374C18.0431 2.45071 18.3376 2.79837 18.3376 3.20573V4.9998H19.1709V6.66647H18.3376V12.4998H19.1709V14.1665H18.3376V15.9605C18.3376 16.3679 18.0431 16.7156 17.6413 16.7825L16.6709 16.9442ZM3.33757 4.16647V14.9998H8.33758V4.16647H3.33757ZM10.0043 16.3657L16.6709 15.2546V3.91167L10.0043 2.80057V16.3657ZM13.7543 11.6665C13.0639 11.6665 12.5043 10.7337 12.5043 9.58316C12.5043 8.43257 13.0639 7.4998 13.7543 7.4998C14.4446 7.4998 15.0043 8.43257 15.0043 9.58316C15.0043 10.7337 14.4446 11.6665 13.7543 11.6665Z" fill="#E3E3E3"/>
</svg>
