<svg width="20" height="20" viewBox="0 0 20 20" fill="none" xmlns="http://www.w3.org/2000/svg">
<path d="M3.33757 13.3333V3.33329H1.6709V1.66663H4.1709C4.63114 1.66663 5.00423 2.03973 5.00423 2.49996V12.5H15.3696L17.0363 5.83329H6.6709V4.16663H18.1036C18.5638 4.16663 18.9369 4.53973 18.9369 4.99996C18.9369 5.06809 18.9286 5.13598 18.912 5.20208L16.8287 13.5354C16.736 13.9064 16.4027 14.1666 16.0202 14.1666H4.1709C3.71067 14.1666 3.33757 13.7935 3.33757 13.3333ZM5.00423 19.1666C4.08376 19.1666 3.33757 18.4205 3.33757 17.5C3.33757 16.5795 4.08376 15.8333 5.00423 15.8333C5.92471 15.8333 6.6709 16.5795 6.6709 17.5C6.6709 18.4205 5.92471 19.1666 5.00423 19.1666ZM15.0042 19.1666C14.0837 19.1666 13.3376 18.4205 13.3376 17.5C13.3376 16.5795 14.0837 15.8333 15.0042 15.8333C15.9247 15.8333 16.6709 16.5795 16.6709 17.5C16.6709 18.4205 15.9247 19.1666 15.0042 19.1666Z" fill="#E3E3E3"/>
</svg>
