<svg width="20" height="20" viewBox="0 0 20 20" fill="none" xmlns="http://www.w3.org/2000/svg">
<path d="M16.1487 12.588C17.4378 9.53503 16.2808 5.92854 13.3365 4.2287C11.2089 3.00033 8.68568 3.07799 6.69511 4.21295L5.86814 2.76561C8.35634 1.34694 11.5103 1.24987 14.1698 2.78533C17.9121 4.94589 19.3446 9.57062 17.6011 13.4266L18.7193 14.0722L15.2483 15.9173L15.1108 11.9889L16.1487 12.588ZM3.85768 7.41635C2.56853 10.4694 3.72564 14.0759 6.66985 15.7757C8.79743 17.004 11.3206 16.9264 13.3111 15.7915L14.1381 17.2389C11.6499 18.6574 8.49601 18.7545 5.83652 17.2191C2.09432 15.0585 0.661813 10.4338 2.40528 6.5778L1.28711 5.93223L4.758 4.08714L4.89555 8.01556L3.85768 7.41635ZM7.08652 11.6689H11.6698C11.9 11.6689 12.0865 11.4823 12.0865 11.2522C12.0865 11.0221 11.9 10.8355 11.6698 10.8355H8.33651C7.18593 10.8355 6.25318 9.90278 6.25318 8.7522C6.25318 7.60162 7.18593 6.66888 8.33651 6.66888H9.16984V5.83554H10.8365V6.66888H12.9198V8.33553H8.33651C8.1064 8.33553 7.91985 8.52212 7.91985 8.7522C7.91985 8.98228 8.1064 9.16887 8.33651 9.16887H11.6698C12.8204 9.16887 13.7532 10.1016 13.7532 11.2522C13.7532 12.4028 12.8204 13.3355 11.6698 13.3355H10.8365V14.1689H9.16984V13.3355H7.08652V11.6689Z" fill="#E3E3E3"/>
</svg>
