<svg width="20" height="20" viewBox="0 0 20 20" fill="none" xmlns="http://www.w3.org/2000/svg">
<path d="M14.5873 17.5023C12.9764 17.5023 11.6706 16.1964 11.6706 14.5856C11.6706 12.9748 12.9764 11.6689 14.5873 11.6689C16.1981 11.6689 17.5039 12.9748 17.5039 14.5856C17.5039 16.1964 16.1981 17.5023 14.5873 17.5023ZM14.5873 15.8356C15.2776 15.8356 15.8373 15.276 15.8373 14.5856C15.8373 13.8953 15.2776 13.3356 14.5873 13.3356C13.8969 13.3356 13.3373 13.8953 13.3373 14.5856C13.3373 15.276 13.8969 15.8356 14.5873 15.8356ZM5.42057 8.33561C3.80975 8.33561 2.50391 7.02981 2.50391 5.41899C2.50391 3.80815 3.80975 2.50232 5.42057 2.50232C7.03141 2.50232 8.33726 3.80815 8.33726 5.41899C8.33726 7.02981 7.03141 8.33561 5.42057 8.33561ZM5.42057 6.66899C6.11093 6.66899 6.67057 6.10934 6.67057 5.41899C6.67057 4.72863 6.11093 4.16899 5.42057 4.16899C4.73022 4.16899 4.17057 4.72863 4.17057 5.41899C4.17057 6.10934 4.73022 6.66899 5.42057 6.66899ZM15.8965 2.93125L17.075 4.10976L4.11136 17.0734L2.93284 15.8949L15.8965 2.93125Z" fill="#E3E3E3"/>
</svg>
