<svg width="20" height="20" viewBox="0 0 20 20" fill="none" xmlns="http://www.w3.org/2000/svg">
<path d="M2.50423 2.50232H17.5042C17.9645 2.50232 18.3376 2.87541 18.3376 3.33565V16.6689C18.3376 17.1292 17.9645 17.5023 17.5042 17.5023H2.50423C2.044 17.5023 1.6709 17.1292 1.6709 16.6689V3.33565C1.6709 2.87541 2.044 2.50232 2.50423 2.50232ZM3.33757 4.16899V15.8356H16.6709V4.16899H3.33757ZM7.50423 10.8356H6.6709V9.16894H7.50423V8.33561C7.50423 6.72482 8.81008 5.41899 10.4209 5.41899C11.6452 5.41899 12.6934 6.17339 13.1259 7.24274L11.4705 7.65658C11.2477 7.31297 10.8609 7.08565 10.4209 7.08565C9.73058 7.08565 9.17092 7.64529 9.17092 8.33561V9.16894H11.6709V10.8356H9.17092V12.5023H13.3376V14.1689H6.6709V12.5023H7.50423V10.8356Z" fill="#E3E3E3"/>
</svg>
