<svg width="20" height="20" viewBox="0 0 20 20" fill="none" xmlns="http://www.w3.org/2000/svg">
<path d="M12.5 2.37255V4.05256C12.5 4.37632 12.6876 4.67079 12.9809 4.80771L13.3218 4.96673C13.2504 6.13615 12.8568 7.16303 12.2858 7.90534C11.6538 8.72687 10.8385 9.16662 10 9.16662C9.16151 9.16662 8.34617 8.72687 7.71427 7.90534C7.14327 7.16303 6.74961 6.13615 6.67832 4.96673L7.0191 4.80771C7.31249 4.67079 7.50002 4.37632 7.50002 4.05256V2.37255C7.50002 1.96518 7.79473 1.61842 8.19942 1.57171C9.40151 1.43296 10.5986 1.43296 11.8007 1.57171C12.2053 1.61842 12.5 1.96518 12.5 2.37255ZM5.0809 5.7122L2.37501 6.97495C1.75245 7.26547 1.48104 8.00396 1.76728 8.62846L5.49915 16.7708C5.7028 17.215 6.14672 17.5 6.63548 17.5H13.3646C13.8533 17.5 14.2973 17.215 14.5009 16.7708L18.2328 8.62846C18.519 8.00396 18.2476 7.26547 17.625 6.97495L14.9192 5.7122C14.7418 6.93537 14.2801 8.04631 13.6068 8.92154C12.8461 9.91046 11.7898 10.6234 10.5673 10.794L11.8238 12.5534C11.9791 12.7706 11.9791 13.0625 11.8238 13.2799L10.1696 15.596C10.0865 15.7123 9.91359 15.7123 9.83051 15.596L8.17617 13.2799C8.02096 13.0625 8.02096 12.7706 8.17617 12.5534L9.43284 10.794C8.21022 10.6234 7.15397 9.91046 6.39323 8.92154C5.71999 8.04631 5.25826 6.93537 5.0809 5.7122Z" fill="#E3E3E3"/>
</svg>
