<svg width="20" height="20" viewBox="0 0 20 20" fill="none" xmlns="http://www.w3.org/2000/svg">
<path d="M5.83301 17.9167C3.76194 17.9167 2.08301 16.2378 2.08301 14.1667C2.08301 12.0956 3.76194 10.4167 5.83301 10.4167C7.90408 10.4167 9.58301 12.0956 9.58301 14.1667C9.58301 16.2378 7.90408 17.9167 5.83301 17.9167ZM14.1663 9.58337C12.0953 9.58337 10.4163 7.90444 10.4163 5.83337C10.4163 3.76231 12.0953 2.08337 14.1663 2.08337C16.2374 2.08337 17.9163 3.76231 17.9163 5.83337C17.9163 7.90444 16.2374 9.58337 14.1663 9.58337ZM5.83301 16.25C6.9836 16.25 7.91634 15.3173 7.91634 14.1667C7.91634 13.0161 6.9836 12.0834 5.83301 12.0834C4.68242 12.0834 3.74967 13.0161 3.74967 14.1667C3.74967 15.3173 4.68242 16.25 5.83301 16.25ZM14.1663 7.91671C15.3169 7.91671 16.2497 6.98397 16.2497 5.83337C16.2497 4.68278 15.3169 3.75004 14.1663 3.75004C13.0158 3.75004 12.083 4.68278 12.083 5.83337C12.083 6.98397 13.0158 7.91671 14.1663 7.91671ZM2.49967 6.66671C2.49967 4.36552 4.36516 2.50004 6.66634 2.50004H9.16634V4.16671H6.66634C5.28563 4.16671 4.16634 5.286 4.16634 6.66671V9.16671H2.49967V6.66671ZM17.4997 10.8334H15.833V13.3334C15.833 14.7141 14.7138 15.8334 13.333 15.8334H10.833V17.5H13.333C15.6342 17.5 17.4997 15.6345 17.4997 13.3334V10.8334Z" fill="#E3E3E3"/>
</svg>
