<svg width="20" height="20" viewBox="0 0 20 20" fill="none" xmlns="http://www.w3.org/2000/svg">
<path d="M16.6706 18.3333H3.33724C2.87701 18.3333 2.50391 17.9602 2.50391 17.5V2.49996C2.50391 2.03973 2.87701 1.66663 3.33724 1.66663H16.6706C17.1308 1.66663 17.5039 2.03973 17.5039 2.49996V17.5C17.5039 17.9602 17.1308 18.3333 16.6706 18.3333ZM7.50391 4.99996H5.83724V6.66663C5.83724 8.96779 7.70272 10.8333 10.0039 10.8333C12.3051 10.8333 14.1706 8.96779 14.1706 6.66663V4.99996H12.5039V6.66663C12.5039 8.04733 11.3846 9.16662 10.0039 9.16662C8.62317 9.16662 7.50391 8.04733 7.50391 6.66663V4.99996Z" fill="#E3E3E3"/>
</svg>
