<svg width="20" height="20" viewBox="0 0 20 20" fill="none" xmlns="http://www.w3.org/2000/svg">
<path d="M2.50423 2.50232H17.5042C17.9645 2.50232 18.3376 2.87541 18.3376 3.33565V16.6689C18.3376 17.1292 17.9645 17.5023 17.5042 17.5023H2.50423C2.044 17.5023 1.6709 17.1292 1.6709 16.6689V3.33565C1.6709 2.87541 2.044 2.50232 2.50423 2.50232ZM8.37925 9.16894C8.57225 8.21805 9.413 7.50232 10.4209 7.50232C10.9336 7.50232 11.403 7.68749 11.7659 7.99462L13.1833 7.04962C12.4979 6.30338 11.514 5.83565 10.4209 5.83565C8.49067 5.83565 6.90106 7.294 6.69379 9.16894H5.83757V10.8356H6.69379C6.90106 12.7106 8.49067 14.1689 10.4209 14.1689C11.514 14.1689 12.4979 13.7013 13.1833 12.955L11.7658 12.01C11.4029 12.3172 10.9336 12.5023 10.4209 12.5023C9.413 12.5023 8.57225 11.7866 8.37925 10.8356H12.5042V9.16894H8.37925Z" fill="#E3E3E3"/>
</svg>
