<svg width="20" height="20" viewBox="0 0 20 20" fill="none" xmlns="http://www.w3.org/2000/svg">
<path d="M5.11146 1.66663L4.17592 8.21544C3.92423 9.97729 4.61074 11.4909 5.74313 12.5387C6.66383 13.3906 7.88339 13.9432 9.16757 14.1119V16.6666H5.00088V18.3333H15.0009V16.6666H10.8342V14.1119C12.1184 13.9432 13.3379 13.3906 14.2587 12.5387C15.391 11.4909 16.0775 9.97729 15.8258 8.21544L14.8903 1.66663H5.11146ZM5.82584 8.45113L6.55695 3.33329H13.4448L14.1759 8.45113C14.3409 9.60596 13.9082 10.5924 13.1267 11.3154C12.3312 12.0515 11.182 12.5 10.0009 12.5C8.81974 12.5 7.67059 12.0515 6.87505 11.3154C6.09363 10.5924 5.66086 9.60596 5.82584 8.45113Z" fill="#E3E3E3"/>
</svg>
