<svg width="20" height="20" viewBox="0 0 20 20" fill="none" xmlns="http://www.w3.org/2000/svg">
<path d="M6.66699 1.24996C6.66699 0.789722 6.29389 0.416626 5.83366 0.416626C5.37343 0.416626 5.00032 0.789722 5.00032 1.24996V2.08329C5.00032 2.08901 5.00068 2.094 5.001 2.09865C5.00353 2.1349 5.00463 2.15048 4.82773 2.32737L4.81097 2.34411C4.58865 2.56589 4.16699 2.98655 4.16699 3.74996V4.58329C4.16699 5.04353 4.54009 5.41663 5.00032 5.41663C5.46056 5.41663 5.83366 5.04353 5.83366 4.58329V3.74996C5.83366 3.74424 5.83331 3.73925 5.83298 3.7346C5.83045 3.69835 5.82936 3.68277 6.00625 3.50588L6.02302 3.48914C6.24533 3.26736 6.66699 2.8467 6.66699 2.08329V1.24996ZM1.66699 7.49996C1.66699 7.03972 2.04009 6.66663 2.50033 6.66663H17.5003C17.9606 6.66663 18.3337 7.03973 18.3337 7.49996V8.33329C18.3337 11.7505 16.2768 14.6873 13.3337 15.9732V16.6666C13.3337 17.1269 12.9606 17.5 12.5003 17.5H7.50032C7.04009 17.5 6.66699 17.1269 6.66699 16.6666V15.9732C3.72382 14.6873 1.66699 11.7505 1.66699 8.33329V7.49996ZM15.0003 0.416626C15.4606 0.416626 15.8337 0.789722 15.8337 1.24996V2.08329C15.8337 2.8467 15.412 3.26736 15.1897 3.48914L15.1729 3.50588C14.996 3.68277 14.9972 3.69835 14.9997 3.7346C15 3.73925 15.0003 3.74424 15.0003 3.74996V4.58329C15.0003 5.04353 14.6272 5.41663 14.167 5.41663C13.7067 5.41663 13.3337 5.04353 13.3337 4.58329V3.74996C13.3337 2.98655 13.7553 2.56589 13.9777 2.34411L13.9944 2.32737C14.1713 2.15048 14.1702 2.1349 14.1677 2.09865C14.1673 2.094 14.167 2.08901 14.167 2.08329V1.24996C14.167 0.789722 14.5401 0.416626 15.0003 0.416626ZM11.2503 1.24996C11.2503 0.789722 10.8772 0.416626 10.417 0.416626C9.95674 0.416626 9.58366 0.789722 9.58366 1.24996V2.08329C9.58366 2.08901 9.58399 2.094 9.58432 2.09865C9.58682 2.1349 9.58799 2.15048 9.41107 2.32737L9.39432 2.34411C9.17199 2.56589 8.75032 2.98655 8.75032 3.74996V4.58329C8.75032 5.04353 9.12341 5.41663 9.58366 5.41663C10.0439 5.41663 10.417 5.04353 10.417 4.58329V3.74996C10.417 3.74424 10.4167 3.73925 10.4163 3.7346C10.4138 3.69835 10.4127 3.68277 10.5896 3.50588L10.6063 3.48914C10.8287 3.26736 11.2503 2.8467 11.2503 2.08329V1.24996Z" fill="#E3E3E3"/>
</svg>
