<svg width="20" height="20" viewBox="0 0 20 20" fill="none" xmlns="http://www.w3.org/2000/svg">
<path d="M13.3337 10.8333V4.16667H5.00032V10.8333C5.00032 11.7538 5.74652 12.5 6.66699 12.5H11.667C12.5875 12.5 13.3337 11.7538 13.3337 10.8333ZM4.16699 2.5H16.667C17.5875 2.5 18.3337 3.24619 18.3337 4.16667V6.66667C18.3337 7.58714 17.5875 8.33333 16.667 8.33333H15.0003V10.8333C15.0003 12.6742 13.5079 14.1667 11.667 14.1667H6.66699C4.82604 14.1667 3.33366 12.6742 3.33366 10.8333V3.33333C3.33366 2.8731 3.70676 2.5 4.16699 2.5ZM15.0003 4.16667V6.66667H16.667V4.16667H15.0003ZM1.66699 15.8333H16.667V17.5H1.66699V15.8333Z" fill="#E3E3E3"/>
</svg>
