<svg width="20" height="20" viewBox="0 0 20 20" fill="none" xmlns="http://www.w3.org/2000/svg">
<path d="M3.61962 1.17346L18.6457 16.1995C19.1338 16.6876 19.1338 17.4791 18.6457 17.9672C18.1575 18.4554 17.366 18.4554 16.8778 17.9672L13.0477 14.1371L10.1014 17.0834L6.66782 13.6493L6.66807 15.8334C6.66807 16.2936 6.29497 16.6667 5.83473 16.6667C5.3745 16.6667 5.0014 16.2936 5.0014 15.8334V12.5C5.0014 12.0398 4.62831 11.6667 4.16807 11.6667C3.74071 11.6667 3.38847 11.9884 3.34034 12.4029L3.33473 12.5V13.3334C3.33473 13.7936 2.96164 14.1667 2.5014 14.1667C2.04116 14.1667 1.66806 13.7936 1.66806 13.3334L1.66814 6.01158C1.63701 4.32869 2.23931 2.63626 3.47502 1.32254L3.61962 1.17346Z" fill="#E3E3E3"/>
</svg>
