<svg width="20" height="20" viewBox="0 0 20 20" fill="none" xmlns="http://www.w3.org/2000/svg">
<path d="M6.66699 1.24996C6.66699 0.789722 6.29389 0.416626 5.83366 0.416626C5.37343 0.416626 5.00032 0.789722 5.00032 1.24996V2.08329C5.00032 2.08901 5.00068 2.094 5.001 2.09865C5.00353 2.1349 5.00463 2.15048 4.82773 2.32737L4.81097 2.34411C4.58865 2.56589 4.16699 2.98655 4.16699 3.74996V4.58329C4.16699 5.04353 4.54009 5.41663 5.00032 5.41663C5.46056 5.41663 5.83366 5.04353 5.83366 4.58329V3.74996C5.83366 3.74424 5.83331 3.73925 5.83298 3.7346C5.83045 3.69835 5.82936 3.68277 6.00625 3.50588L6.02302 3.48914C6.24533 3.26736 6.66699 2.8467 6.66699 2.08329V1.24996ZM15.8337 1.24996C15.8337 0.789722 15.4606 0.416626 15.0003 0.416626C14.5401 0.416626 14.167 0.789722 14.167 1.24996V2.08329C14.167 2.08901 14.1673 2.094 14.1677 2.09865C14.1702 2.1349 14.1713 2.15048 13.9944 2.32737L13.9777 2.34411C13.7553 2.56589 13.3337 2.98655 13.3337 3.74996V4.58329C13.3337 5.04353 13.7067 5.41663 14.167 5.41663C14.6272 5.41663 15.0003 5.04353 15.0003 4.58329V3.74996C15.0003 3.74424 15 3.73925 14.9997 3.7346C14.9972 3.69835 14.996 3.68277 15.1729 3.50588L15.1897 3.48914C15.412 3.26736 15.8337 2.8467 15.8337 2.08329V1.24996ZM10.417 0.416626C10.8772 0.416626 11.2503 0.789722 11.2503 1.24996V2.08329C11.2503 2.8467 10.8287 3.26736 10.6063 3.48914L10.5896 3.50588C10.4127 3.68277 10.4138 3.69835 10.4163 3.7346C10.4167 3.73925 10.417 3.74424 10.417 3.74996V4.58329C10.417 5.04353 10.0439 5.41663 9.58366 5.41663C9.12341 5.41663 8.75032 5.04353 8.75032 4.58329V3.74996C8.75032 2.98655 9.17199 2.56589 9.39432 2.34411L9.41107 2.32737C9.58799 2.15048 9.58682 2.1349 9.58432 2.09865C9.58399 2.094 9.58366 2.08901 9.58366 2.08329V1.24996C9.58366 0.789722 9.95674 0.416626 10.417 0.416626ZM3.33366 8.33329H16.667C16.667 12.0152 13.6822 15 10.0003 15C6.31842 15 3.33366 12.0152 3.33366 8.33329ZM2.50033 6.66663C2.04009 6.66663 1.66699 7.03972 1.66699 7.49996V8.33329C1.66699 11.7505 3.72382 14.6873 6.66699 15.9732V16.6666C6.66699 17.1269 7.04009 17.5 7.50032 17.5H12.5003C12.9606 17.5 13.3337 17.1269 13.3337 16.6666V15.9732C16.2768 14.6873 18.3337 11.7505 18.3337 8.33329V7.49996C18.3337 7.03973 17.9606 6.66663 17.5003 6.66663H2.50033Z" fill="#E3E3E3"/>
</svg>
