<svg width="20" height="20" viewBox="0 0 20 20" fill="none" xmlns="http://www.w3.org/2000/svg">
<path d="M5.11146 1.66663L4.17592 8.21544C3.92423 9.97729 4.61074 11.4909 5.74313 12.5387C6.66383 13.3906 7.88339 13.9432 9.16757 14.1119V16.6666H5.00088V18.3333H15.0009V16.6666H10.8342V14.1119C12.1184 13.9432 13.3379 13.3906 14.2587 12.5387C15.391 11.4909 16.0775 9.97729 15.8258 8.21544L14.8903 1.66663H5.11146ZM8.33407 5.83329C7.64162 5.8334 6.80247 6.03533 6.14317 6.22978L6.55695 3.33329H13.4448L13.8533 6.19279C13.1545 6.42238 12.4086 6.66663 11.6676 6.66663C10.5074 6.66663 9.52349 5.83311 8.33407 5.83329Z" fill="#E3E3E3"/>
</svg>
