<svg width="20" height="20" viewBox="0 0 20 20" fill="none" xmlns="http://www.w3.org/2000/svg">
<path d="M4.16634 2.5C2.32539 2.5 0.833008 3.99238 0.833008 5.83333C0.833008 7.06807 1.50401 8.14453 2.49967 8.7205V15.8333C2.49967 17.2141 3.61897 18.3333 4.99967 18.3333H14.9997C16.3804 18.3333 17.4997 17.2141 17.4997 15.8333V8.7205C18.4953 8.14453 19.1663 7.06807 19.1663 5.83333C19.1663 3.99238 17.6739 2.5 15.833 2.5H4.16634ZM5.83301 16.6667C5.37278 16.6667 4.99967 16.2936 4.99967 15.8333V7.60177L4.44405 7.40538C3.79559 7.17618 3.33301 6.55771 3.33301 5.83333C3.33301 4.91286 4.0792 4.16667 4.99967 4.16667H15.833C16.7535 4.16667 17.4997 4.91286 17.4997 5.83333C17.4997 6.55771 17.0371 7.17618 16.3887 7.40538L15.833 7.60177V15.8333C15.833 16.2936 15.4599 16.6667 14.9997 16.6667H5.83301Z" fill="#E3E3E3"/>
</svg>
