<svg width="20" height="20" viewBox="0 0 20 20" fill="none" xmlns="http://www.w3.org/2000/svg">
<path d="M0.833008 5.83333C0.833008 3.99238 2.32539 2.5 4.16634 2.5H5.83301C3.99206 2.5 2.49967 3.99238 2.49967 5.83333C2.49967 7.06807 3.17067 8.14453 4.16634 8.7205V15.8333C4.16634 17.2141 5.28563 18.3333 6.66634 18.3333H4.99967C3.61897 18.3333 2.49967 17.2141 2.49967 15.8333V8.7205C1.50401 8.14453 0.833008 7.06807 0.833008 5.83333ZM6.66634 18.3333V16.6667C6.20611 16.6667 5.83301 16.2936 5.83301 15.8333V7.60177L5.27738 7.40538C4.62892 7.17618 4.16634 6.55771 4.16634 5.83333C4.16634 4.91286 4.91253 4.16667 5.83301 4.16667V2.5H15.833C17.6739 2.5 19.1663 3.99238 19.1663 5.83333C19.1663 7.06807 18.4953 8.14453 17.4997 8.7205V15.8333C17.4997 17.2141 16.3804 18.3333 14.9997 18.3333H6.66634Z" fill="#E3E3E3"/>
</svg>
