<svg width="20" height="20" viewBox="0 0 20 20" fill="none" xmlns="http://www.w3.org/2000/svg">
<path d="M12.917 1.66663C14.5278 1.66663 15.8337 2.97246 15.8337 4.58329C15.8337 4.77228 15.8157 4.95708 15.7813 5.13606L15.7689 5.19113C17.2592 5.68722 18.3337 7.09311 18.3337 8.74996C18.3337 10.3117 17.379 11.6505 16.0214 12.2145L15.1164 17.637C15.0494 18.0388 14.7017 18.3333 14.2944 18.3333H5.70627C5.2989 18.3333 4.95124 18.0388 4.88427 17.637L4.02699 12.495C2.70776 12.4197 1.66699 11.3314 1.66699 9.99996C1.66699 8.91046 2.36388 7.98379 3.33621 7.64132L3.33366 7.49996C3.33366 4.73853 5.57223 2.49996 8.33366 2.49996C9.10132 2.49996 9.82866 2.67297 10.4787 2.98213C10.999 2.19037 11.8968 1.66663 12.917 1.66663ZM7.50032 12.5H5.71699L6.41199 16.6666H7.50032V12.5ZM10.8337 12.5H9.16699V16.6666H10.8337V12.5ZM14.2828 12.5H12.5003V16.6666H13.5878L14.2828 12.5ZM8.33366 4.16663C6.54849 4.16663 5.09109 5.56993 5.00416 7.30619L5.00005 7.46991L5.0026 7.61127C5.01474 8.28435 4.62144 8.89379 4.01416 9.16388L3.88991 9.21329C3.55967 9.32962 3.33366 9.64346 3.33366 9.99996C3.33366 10.4602 3.70676 10.8333 4.16699 10.8333H14.5837C15.7342 10.8333 16.667 9.90054 16.667 8.74996C16.667 7.59937 15.7342 6.66663 14.5837 6.66663C14.3039 6.66663 14.0351 6.72095 13.7872 6.82462L13.641 6.8927C12.8354 7.30772 11.8547 7.00133 11.4219 6.22259L11.3638 6.10816C10.8233 4.93419 9.64849 4.16663 8.33366 4.16663ZM12.917 3.33329C12.4617 3.33329 12.0632 3.57672 11.8447 3.94053C12.2723 4.36204 12.6237 4.85949 12.8777 5.41109C13.2475 5.22063 13.6535 5.09052 14.0827 5.03316C14.1374 4.89382 14.167 4.74201 14.167 4.58329C14.167 3.89293 13.6073 3.33329 12.917 3.33329Z" fill="#E3E3E3"/>
</svg>
