<svg width="20" height="20" viewBox="0 0 20 20" fill="none" xmlns="http://www.w3.org/2000/svg">
<path d="M11.667 1.66667H5.17112C4.67457 1.66667 4.24706 2.01714 4.14968 2.50404L3.48383 5.83333H1.66699V7.5H3.42428L4.56787 17.4111C4.62852 17.9367 5.07357 18.3333 5.60267 18.3333H14.398C14.9271 18.3333 15.3722 17.9367 15.4327 17.4111L16.5763 7.5H18.3337V5.83333H16.5168L15.851 2.50404C15.7536 2.01714 15.3261 1.66667 14.8295 1.66667H13.3337V0H11.667V1.66667ZM14.8172 5.83333H5.18349L5.68349 3.33333H14.3172L14.8172 5.83333ZM5.10201 7.5H14.8987L13.841 16.6667H6.1597L5.10201 7.5Z" fill="#E3E3E3"/>
</svg>
