<svg width="20" height="20" viewBox="0 0 20 20" fill="none" xmlns="http://www.w3.org/2000/svg">
<path d="M11.8899 10.1221L11.1786 10.8335L17.0712 16.726L15.8927 17.9045L10.0001 12.012L4.10756 17.9045L2.92905 16.726L10.7113 8.94362C10.2217 7.72953 10.7278 5.98092 12.0625 4.64624C13.6897 3.01906 15.9322 2.62333 17.0712 3.76236C18.2102 4.90139 17.8145 7.14385 16.1873 8.77104C14.8526 10.1057 13.104 10.6119 11.8899 10.1221ZM3.5183 3.1731L9.11626 8.77104L6.75921 11.128L3.5183 7.88715C2.21656 6.5854 2.21656 4.47485 3.5183 3.1731ZM15.0088 7.59252C16.0565 6.54484 16.2725 5.32069 15.8927 4.94087C15.5128 4.56105 14.2887 4.77707 13.241 5.82475C12.1933 6.87243 11.9773 8.09658 12.3572 8.47637C12.7369 8.85621 13.9611 8.64021 15.0088 7.59252Z" fill="#E3E3E3"/>
</svg>
