<svg width="20" height="20" viewBox="0 0 20 20" fill="none" xmlns="http://www.w3.org/2000/svg">
<path d="M7.50033 2.50004C8.42083 2.50004 9.16699 3.24623 9.16699 4.16671C9.16699 4.26228 9.15899 4.35537 9.14391 4.44549L10.7876 4.72126C10.818 4.54037 10.8337 4.35506 10.8337 4.16671C10.8337 3.96879 10.8164 3.77491 10.7833 3.58647C11.0397 3.42577 11.3422 3.33337 11.667 3.33337C12.5875 3.33337 13.3337 4.07957 13.3337 5.00004C13.3337 5.30373 13.2528 5.58813 13.1109 5.83337H4.16699C3.70676 5.83337 3.33366 5.46027 3.33366 5.00004C3.33366 4.53981 3.70676 4.16671 4.16699 4.16671C4.33373 4.16671 4.48668 4.21482 4.61575 4.29762C4.8436 4.44378 5.12827 4.47017 5.3791 4.36837C5.62994 4.26656 5.8157 4.04925 5.87723 3.78562C6.04929 3.04848 6.71178 2.50004 7.50033 2.50004ZM8.76399 1.08125C8.37441 0.921499 7.94777 0.833374 7.50033 0.833374C6.25105 0.833374 5.16343 1.52012 4.59256 2.53624C4.4541 2.51244 4.31188 2.50004 4.16699 2.50004C2.78628 2.50004 1.66699 3.61933 1.66699 5.00004C1.66699 5.74046 1.98887 6.4057 2.50033 6.86347V16.6667C2.50033 17.5872 3.24652 18.3334 4.16699 18.3334H12.5003C13.4208 18.3334 14.167 17.5872 14.167 16.6667H15.8337C16.7542 16.6667 17.5003 15.9205 17.5003 15V9.16671C17.5003 8.24623 16.7542 7.50004 15.8337 7.50004H14.167V7.20483C14.6849 6.61781 15.0003 5.84536 15.0003 5.00004C15.0003 3.15909 13.5079 1.66671 11.667 1.66671C11.0956 1.66671 10.5573 1.81088 10.0872 2.06434C9.73791 1.63505 9.28383 1.29437 8.76399 1.08125ZM14.167 9.16671H15.8337V15H14.167V9.16671ZM12.5003 7.50004V8.33337V15.8334V16.6667H4.16699V7.50004H12.5003ZM5.83366 9.16671V15H7.50033V9.16671H5.83366ZM10.8337 9.16671V15H9.16699V9.16671H10.8337Z" fill="#E3E3E3"/>
</svg>
