<svg width="20" height="20" viewBox="0 0 20 20" fill="none" xmlns="http://www.w3.org/2000/svg">
<path d="M17.5 1.66663V9.16662H14.9992L15 9.99996C15 11.8409 13.5076 13.3333 11.6667 13.3333H10.5175L10.007 15.926L10.766 17.027C11.0272 17.4059 10.9318 17.9248 10.5529 18.186C10.4138 18.282 10.2489 18.3333 10.0799 18.3333H2.5L4.42738 9.98012L2.5 9.16662L5.83333 1.66663H17.5ZM15.8333 3.33329H6.91646L4.71279 8.29154L6.36642 8.98946L4.59502 16.6666H8.49317L8.23602 16.2936L9.967 7.49996H15.8333V3.33329ZM13.3325 9.16662H11.3376L10.845 11.6666H11.6667C12.5872 11.6666 13.3333 10.9205 13.3333 9.99996L13.3325 9.16662Z" fill="#E3E3E3"/>
</svg>
