<svg width="20" height="20" viewBox="0 0 20 20" fill="none" xmlns="http://www.w3.org/2000/svg">
<path d="M9.16667 1.66663C12.5563 1.66663 15.355 4.19631 15.7781 7.47074L17.6535 10.4197C17.777 10.6139 17.7521 10.9039 17.4661 11.0264L15.8333 11.7258V14.1666C15.8333 15.0871 15.0872 15.8333 14.1667 15.8333H12.5008L12.5 18.3333H5L5.00021 15.255C5.00027 14.271 4.63626 13.3405 3.96292 12.5009C3.04756 11.3594 2.5 9.91029 2.5 8.33329C2.5 4.65139 5.48477 1.66663 9.16667 1.66663ZM8.72475 6.46876C8.15521 5.89925 7.23184 5.89925 6.66233 6.46876C6.09282 7.03827 6.09282 7.96164 6.66233 8.53113L9.16667 11.0355L11.671 8.53113C12.2405 7.96164 12.2405 7.03827 11.671 6.46876C11.1015 5.89925 10.1781 5.89925 9.60858 6.46876L9.16667 6.9107L8.72475 6.46876Z" fill="#E3E3E3"/>
</svg>
