<svg width="20" height="20" viewBox="0 0 20 20" fill="none" xmlns="http://www.w3.org/2000/svg">
<path d="M16.4823 3.5181C17.1332 4.16898 17.1332 5.22425 16.4823 5.87513L14.1253 8.23214L11.7682 5.87513L14.1253 3.5181C14.7762 2.86723 15.8314 2.86723 16.4823 3.5181ZM17.6608 2.33959C16.3591 1.03784 14.2485 1.03784 12.9467 2.33959L10.5897 4.69661L10.2951 4.40227C9.96965 4.07683 9.44207 4.07683 9.11657 4.40227C8.79115 4.7277 8.79115 5.25534 9.11657 5.58078L9.41124 5.87543L4.23233 11.0543C3.76699 11.5196 3.44981 12.1123 3.32074 12.7576L3.02839 14.2195C2.96386 14.5421 2.80527 14.8384 2.57259 15.0711L1.75091 15.8928C1.42548 16.2182 1.42548 16.7459 1.75091 17.0713L2.92942 18.2498C3.25486 18.5752 3.78249 18.5752 4.10794 18.2498L4.92962 17.4281C5.16229 17.1955 5.45862 17.0369 5.78127 16.9723L7.24307 16.68C7.88838 16.5509 8.48107 16.2337 8.9464 15.7684L14.1253 10.5895L14.4199 10.8841C14.7453 11.2095 15.273 11.2095 15.5984 10.8841C15.9238 10.5586 15.9238 10.031 15.5984 9.70556L15.3038 9.41098L17.6608 7.05364C18.9626 5.75188 18.9626 3.64134 17.6608 2.33959ZM10.5897 7.05394L12.9467 9.41098L7.76786 14.5899C7.5352 14.8226 7.23886 14.9811 6.91621 15.0456L5.45441 15.3381C4.80911 15.4671 4.21644 15.7843 3.75111 16.2496C4.21644 15.7843 4.53363 15.1916 4.66269 14.5463L4.95505 13.0845C5.01958 12.7619 5.17817 12.4656 5.41084 12.2329L10.5897 7.05394Z" fill="#E3E3E3"/>
</svg>
