<svg width="20" height="20" viewBox="0 0 20 20" fill="none" xmlns="http://www.w3.org/2000/svg">
<path d="M14.1663 1.66663V3.33329H13.333V15C13.333 16.8409 11.8406 18.3333 9.99967 18.3333C8.15872 18.3333 6.66634 16.8409 6.66634 15V3.33329H5.83301V1.66663H14.1663ZM11.6663 8.33329H8.33301V15C8.33301 15.9205 9.07917 16.6666 9.99967 16.6666C10.9202 16.6666 11.6663 15.9205 11.6663 15V8.33329ZM10.833 12.5C11.2933 12.5 11.6663 12.873 11.6663 13.3333C11.6663 13.7935 11.2933 14.1666 10.833 14.1666C10.3728 14.1666 9.99967 13.7935 9.99967 13.3333C9.99967 12.873 10.3728 12.5 10.833 12.5ZM9.16634 9.99996C9.62659 9.99996 9.99967 10.373 9.99967 10.8333C9.99967 11.2935 9.62659 11.6666 9.16634 11.6666C8.70609 11.6666 8.33301 11.2935 8.33301 10.8333C8.33301 10.373 8.70609 9.99996 9.16634 9.99996ZM11.6663 3.33329H8.33301V6.66663H11.6663V3.33329Z" fill="#E3E3E3"/>
</svg>
