<svg width="20" height="20" viewBox="0 0 20 20" fill="none" xmlns="http://www.w3.org/2000/svg">
<path d="M7.50032 3.33329C8.42082 3.33329 9.16699 4.07948 9.16699 4.99996V10.6892C8.42182 10.1144 7.47201 9.77538 6.38732 9.59462L6.11332 11.2386C7.26384 11.4304 7.99818 11.794 8.45049 12.284C8.89199 12.7622 9.16699 13.4725 9.16699 14.5833C9.16699 15.7339 8.23425 16.6666 7.08366 16.6666C5.93307 16.6666 5.00032 15.7339 5.00032 14.5833V14.291C5.35872 14.4105 5.73061 14.5082 6.11332 14.572L6.38732 12.928C5.76823 12.8248 5.14632 12.5953 4.52457 12.2999C3.8183 11.9644 3.33366 11.2491 3.33366 10.4166C3.33366 9.72104 3.50667 9.17371 3.79928 8.77137C4.08733 8.37529 4.53524 8.05854 5.20244 7.89174L5.83366 7.73394V4.99996C5.83366 4.07948 6.57985 3.33329 7.50032 3.33329ZM10.0003 2.79511C9.38957 2.10309 8.49591 1.66663 7.50032 1.66663C5.65937 1.66663 4.16699 3.15901 4.16699 4.99996V6.47848C3.45778 6.76366 2.87652 7.2065 2.45138 7.79107C1.91065 8.53454 1.66699 9.44554 1.66699 10.4166C1.66699 11.721 2.33003 12.8639 3.33366 13.5351V14.5833C3.33366 16.6544 5.01259 18.3333 7.08366 18.3333C8.26168 18.3333 9.31282 17.7901 10.0003 16.9405C10.6878 17.7901 11.739 18.3333 12.917 18.3333C14.9881 18.3333 16.667 16.6544 16.667 14.5833V13.5351C17.6707 12.8639 18.3337 11.721 18.3337 10.4166C18.3337 9.44554 18.09 8.53454 17.5492 7.79107C17.1242 7.2065 16.5429 6.76366 15.8337 6.47848V4.99996C15.8337 3.15901 14.3412 1.66663 12.5003 1.66663C11.5047 1.66663 10.6111 2.10309 10.0003 2.79511ZM15.0003 14.291V14.5833C15.0003 15.7339 14.0676 16.6666 12.917 16.6666C11.7664 16.6666 10.8337 15.7339 10.8337 14.5833C10.8337 13.4725 11.1087 12.7622 11.5502 12.284C12.0025 11.794 12.7368 11.4304 13.8873 11.2386L13.6133 9.59462C12.5287 9.77538 11.5788 10.1144 10.8337 10.6892V4.99996C10.8337 4.07948 11.5798 3.33329 12.5003 3.33329C13.4208 3.33329 14.167 4.07948 14.167 4.99996V7.73394L14.7982 7.89174C15.4654 8.05854 15.9133 8.37529 16.2014 8.77137C16.494 9.17371 16.667 9.72104 16.667 10.4166C16.667 11.2491 16.1823 11.9644 15.4761 12.2999C14.8543 12.5953 14.2324 12.8248 13.6133 12.928L13.8873 14.572C14.2701 14.5082 14.6419 14.4105 15.0003 14.291Z" fill="#E3E3E3"/>
</svg>
