<svg width="20" height="20" viewBox="0 0 20 20" fill="none" xmlns="http://www.w3.org/2000/svg">
<path d="M13.3328 1.66663V3.33329H12.4995V6.03572C12.4995 7.00038 12.7088 7.95356 13.1131 8.82946L16.6808 16.5595C16.9701 17.1863 16.6965 17.929 16.0697 18.2182C15.9054 18.294 15.7268 18.3333 15.5458 18.3333H4.45312C3.76277 18.3333 3.20312 17.7736 3.20312 17.0833C3.20312 16.9024 3.24238 16.7237 3.31818 16.5595L6.88588 8.82946C7.29013 7.95356 7.49949 7.00038 7.49949 6.03572V3.33329H6.66616V1.66663H13.3328ZM11.1561 8.33429H8.84292C8.756 8.63696 8.65192 8.93504 8.53092 9.22696L8.39917 9.52787L5.10366 16.6666H14.8945L11.5998 9.52787C11.4212 9.14087 11.273 8.74179 11.1561 8.33429ZM9.16617 6.03572C9.16617 6.24684 9.15817 6.45754 9.14217 6.66735H10.8568C10.8491 6.56647 10.8432 6.46539 10.8393 6.36416L10.8328 6.03572V3.33329H9.16617V6.03572Z" fill="#E3E3E3"/>
</svg>
