<svg width="20" height="20" viewBox="0 0 20 20" fill="none" xmlns="http://www.w3.org/2000/svg">
<path d="M14.4689 9.20442C15.6388 8.04297 17.5357 8.04297 18.7056 9.20442C19.8755 10.3658 19.8755 12.2489 18.7056 13.4103L14.1663 17.9167L9.62709 13.4103C8.45717 12.2489 8.45717 10.3658 9.62709 9.20442C10.797 8.04297 12.6938 8.04297 13.8638 9.20442L14.166 9.50425L14.4689 9.20442ZM16.0352 3.96447C16.8189 4.74981 17.2881 5.72877 17.4428 6.74571C16.3324 6.53957 15.1607 6.73786 14.1664 7.34C12.3739 6.2543 10.0043 6.48142 8.45292 8.02162C6.67712 9.7845 6.62779 12.6171 8.30491 14.4394L8.45292 14.5931L10.4705 16.5967L9.16626 17.9042L2.10082 10.8275C0.347215 8.86417 0.412763 5.84918 2.29747 3.96447C4.18432 2.07763 7.204 2.01406 9.16717 3.77378C11.1247 2.01667 14.1497 2.075 16.0352 3.96447Z" fill="#E3E3E3"/>
</svg>
