<svg width="20" height="20" viewBox="0 0 20 20" fill="none" xmlns="http://www.w3.org/2000/svg">
<path d="M6.66634 2.5V4.16667H4.99967V7.5C4.99967 9.34092 6.49206 10.8333 8.33301 10.8333C10.1739 10.8333 11.6663 9.34092 11.6663 7.5V4.16667H9.99967V2.5H12.4997C12.9599 2.5 13.333 2.8731 13.333 3.33333V7.5C13.333 9.97725 11.5314 12.0338 9.16701 12.4308L9.16634 13.75C9.16634 15.3608 10.4722 16.6667 12.083 16.6667C13.3308 16.6667 14.3955 15.8832 14.8121 14.7813C13.9399 14.3917 13.333 13.5168 13.333 12.5C13.333 11.1193 14.4523 10 15.833 10C17.2138 10 18.333 11.1193 18.333 12.5C18.333 13.6426 17.5665 14.6062 16.5197 14.9045C16.0082 16.8767 14.2157 18.3333 12.083 18.3333C9.55167 18.3333 7.49967 16.2813 7.49967 13.75L7.49983 12.4309C5.13499 12.0343 3.33301 9.97758 3.33301 7.5V3.33333C3.33301 2.8731 3.70611 2.5 4.16634 2.5H6.66634ZM15.833 11.6667C15.3728 11.6667 14.9997 12.0398 14.9997 12.5C14.9997 12.9603 15.3728 13.3333 15.833 13.3333C16.2933 13.3333 16.6663 12.9603 16.6663 12.5C16.6663 12.0398 16.2933 11.6667 15.833 11.6667Z" fill="#E3E3E3"/>
</svg>
