<svg width="20" height="20" viewBox="0 0 20 20" fill="none" xmlns="http://www.w3.org/2000/svg">
<path d="M14.1663 1.66663V3.33329H13.333V15C13.333 16.8409 11.8406 18.3333 9.99967 18.3333C8.15872 18.3333 6.66634 16.8409 6.66634 15V3.33329H5.83301V1.66663H14.1663ZM10.833 12.5C10.3728 12.5 9.99967 12.873 9.99967 13.3333C9.99967 13.7935 10.3728 14.1666 10.833 14.1666C11.2933 14.1666 11.6663 13.7935 11.6663 13.3333C11.6663 12.873 11.2933 12.5 10.833 12.5ZM9.16634 9.99996C8.70609 9.99996 8.33301 10.373 8.33301 10.8333C8.33301 11.2935 8.70609 11.6666 9.16634 11.6666C9.62659 11.6666 9.99967 11.2935 9.99967 10.8333C9.99967 10.373 9.62659 9.99996 9.16634 9.99996ZM11.6663 3.33329H8.33301V6.66663H11.6663V3.33329Z" fill="#E3E3E3"/>
</svg>
