<svg width="20" height="20" viewBox="0 0 20 20" fill="none" xmlns="http://www.w3.org/2000/svg">
<path d="M16.6667 1.66663C17.1269 1.66663 17.5 2.03973 17.5 2.49996V17.5C17.5 17.9602 17.1269 18.3333 16.6667 18.3333H5C4.53977 18.3333 4.16667 17.9602 4.16667 17.5V15.8333H2.5V14.1666H4.16667V12.5H2.5V10.8333H4.16667V9.16662H2.5V7.49996H4.16667V5.83329H2.5V4.16663H4.16667V2.49996C4.16667 2.03973 4.53977 1.66663 5 1.66663H16.6667ZM11.6667 6.66663H10V9.16662H7.5V10.8333H9.99917L10 13.3333H11.6667L11.6658 10.8333H14.1667V9.16662H11.6667V6.66663Z" fill="#E3E3E3"/>
</svg>
