<svg width="20" height="20" viewBox="0 0 20 20" fill="none" xmlns="http://www.w3.org/2000/svg">
<path d="M14.1673 1.66663V3.33329L10.834 3.33246V4.99996H13.334V6.66663C15.1749 6.66663 16.6673 8.15901 16.6673 9.99996V16.6666C16.6673 17.5871 15.9212 18.3333 15.0007 18.3333H5.00065C4.08018 18.3333 3.33398 17.5871 3.33398 16.6666V9.99996C3.33398 8.15901 4.82637 6.66663 6.66732 6.66663V4.99996H9.16732V3.33246L6.25065 3.33329C5.72565 3.33329 5.10898 3.74163 4.41732 4.66663L3.08398 3.66663C4.05898 2.36663 5.10898 1.66663 6.25065 1.66663H14.1673ZM10.834 9.99996H9.16732V11.6666H7.50065V13.3333H9.16648L9.16732 15H10.834L10.8332 13.3333H12.5007V11.6666H10.834V9.99996Z" fill="#E3E3E3"/>
</svg>
