<svg width="20" height="20" viewBox="0 0 20 20" fill="none" xmlns="http://www.w3.org/2000/svg">
<path d="M10.4042 2.60103L16.8687 4.21717C17.2397 4.30992 17.5 4.64323 17.5 5.02562V5.83293L18.3333 5.83331C19.25 5.83331 20 6.58331 20 7.49997V10C20 11.3807 18.8807 12.5 17.5 12.5L17.1491 12.5002C16.7036 13.6251 15.8562 14.5718 14.7361 15.1319L10.7453 17.1273C10.2762 17.3619 9.72383 17.3619 9.25467 17.1273L5.26393 15.1319C4.14377 14.5718 3.29644 13.6251 2.85094 12.5002L2.5 12.5C1.11929 12.5 0 11.3807 0 10V7.49997C0 6.5795 0.746192 5.83331 1.66667 5.83331L2.5 5.83293V5.02562C2.5 4.64323 2.76025 4.30992 3.13122 4.21717L9.59575 2.60103C9.86117 2.53468 10.1388 2.53468 10.4042 2.60103ZM2.5 7.49997H1.66667V10C1.66667 10.4602 2.03977 10.8333 2.5 10.8333V7.49997ZM18.3333 7.49997H17.5V10.8333C17.9602 10.8333 18.3333 10.4602 18.3333 10V7.49997Z" fill="#E3E3E3"/>
</svg>
