<svg width="20" height="20" viewBox="0 0 20 20" fill="none" xmlns="http://www.w3.org/2000/svg">
<path d="M16.0352 3.96447C17.2538 5.18567 17.7119 6.87504 17.41 8.44733C17.8842 8.581 18.3319 8.8335 18.7056 9.20442C19.8755 10.3658 19.8755 12.2489 18.7056 13.4103L14.1663 17.9167L11.648 15.4167L9.16626 17.9042L2.10082 10.8275C0.347215 8.86417 0.412763 5.84918 2.29747 3.96447C4.18432 2.07763 7.204 2.01406 9.16717 3.77378C11.1247 2.01667 14.1497 2.075 16.0352 3.96447ZM10.8013 10.3872C10.288 10.8967 10.288 11.7179 10.8013 12.2275L14.1663 15.5682L17.5313 12.2275C18.0447 11.7179 18.0447 10.8967 17.5313 10.3872C17.0113 9.87092 16.1632 9.87092 15.6413 10.389L14.1646 11.8505L12.9922 10.6875L12.6895 10.3872C12.1695 9.87092 11.3213 9.87092 10.8013 10.3872ZM3.47598 5.14298C2.23453 6.38443 2.17221 8.37275 3.31628 9.686L9.16626 15.5452L10.4655 14.2433L9.62709 13.4103C8.45717 12.2489 8.45717 10.3658 9.62709 9.20442C10.797 8.04297 12.6938 8.04297 13.8638 9.20442L14.166 9.50425L14.4689 9.20442C14.8228 8.85317 15.2431 8.60808 15.6897 8.46933C16.036 7.32981 15.7545 6.04268 14.8555 5.14175C13.6063 3.88995 11.5893 3.83918 10.2805 5.01406L9.16792 6.0127L8.05472 5.01484C6.74216 3.83831 4.72889 3.89007 3.47598 5.14298Z" fill="#E3E3E3"/>
</svg>
