<svg width="20" height="20" viewBox="0 0 20 20" fill="none" xmlns="http://www.w3.org/2000/svg">
<path d="M11.4306 1.62292L14.5425 2.81748L13.9452 4.37345L13.1672 4.07461L12.5452 5.69535C13.1943 6.07992 13.7489 6.60711 14.1658 7.23375L15.7515 6.52717L15.4126 5.76588L16.9352 5.08799L18.2909 8.13314L16.7683 8.81105L16.4294 8.04975L14.8442 8.75597C14.946 9.15372 15.0002 9.57055 15.0002 10C15.0002 10.3385 14.9665 10.6693 14.9024 10.989L16.5224 11.6106L16.8213 10.8332L18.3772 11.4305L17.1827 14.5424L15.6267 13.9451L15.9248 13.1675L14.3048 12.5451C13.9202 13.1942 13.3931 13.7488 12.7665 14.1657L13.473 15.7514L14.2343 15.4125L14.9122 16.935L11.8671 18.2908L11.1892 16.7682L11.9505 16.4293L11.2442 14.844C10.8465 14.9459 10.4297 15 10.0002 15C9.66132 15 9.33032 14.9663 9.01041 14.9021L8.38882 16.5226L9.16699 16.8212L8.56974 18.3771L5.4578 17.1826L6.05507 15.6266L6.83201 15.925L7.45507 14.3047C6.80601 13.9201 6.25143 13.393 5.83446 12.7663L4.24881 13.4729L4.58776 14.2342L3.06517 14.912L1.70939 11.867L3.23196 11.189L3.57015 11.9506L5.15617 11.2441C5.05431 10.8464 5.00016 10.4296 5.00016 10C5.00016 9.66147 5.03381 9.3308 5.09794 9.01113L3.47677 8.38905L3.17901 9.16688L1.62305 8.56963L2.81761 5.45767L4.37357 6.05495L4.07439 6.83223L5.69547 7.45495C6.08004 6.8059 6.60723 6.25131 7.23387 5.83434L6.5273 4.24868L5.76601 4.58763L5.08811 3.06506L8.13326 1.70927L8.81116 3.23184L8.04987 3.57079L8.75607 5.15605C9.15382 5.05419 9.57065 5.00004 10.0002 5.00004C10.3387 5.00004 10.6694 5.03369 10.9891 5.09782L11.6104 3.47699L10.8333 3.17889L11.4306 1.62292ZM10.0002 6.66671C8.15921 6.66671 6.66683 8.15909 6.66683 10C6.66683 11.841 8.15921 13.3334 10.0002 13.3334C11.8411 13.3334 13.3335 11.841 13.3335 10C13.3335 8.15909 11.8411 6.66671 10.0002 6.66671ZM9.58349 10.7217C9.98207 10.9519 10.1187 11.4615 9.88849 11.8601C9.65841 12.2586 9.14874 12.3952 8.75015 12.1651C8.35157 11.935 8.21502 11.4253 8.44515 11.0267C8.67524 10.6281 9.18491 10.4916 9.58349 10.7217ZM11.6668 9.16672C12.1271 9.16672 12.5002 9.5398 12.5002 10C12.5002 10.4603 12.1271 10.8334 11.6668 10.8334C11.2066 10.8334 10.8335 10.4603 10.8335 10C10.8335 9.5398 11.2066 9.16672 11.6668 9.16672ZM9.88849 8.14C10.1187 8.53855 9.98207 9.04822 9.58349 9.27838C9.18491 9.50847 8.67524 9.37188 8.44515 8.9733C8.21502 8.57472 8.35157 8.0651 8.75015 7.83497C9.14874 7.60486 9.65841 7.74142 9.88849 8.14Z" fill="#E3E3E3"/>
</svg>
