<svg width="20" height="20" viewBox="0 0 20 20" fill="none" xmlns="http://www.w3.org/2000/svg">
<path d="M9.16667 1.66663C12.5563 1.66663 15.355 4.19631 15.7781 7.47074L17.6535 10.4197C17.777 10.6139 17.7521 10.9039 17.4661 11.0264L15.8333 11.7258V14.1666C15.8333 15.0871 15.0872 15.8333 14.1667 15.8333H12.5008L12.5 18.3333H5L5.00021 15.255C5.00027 14.271 4.63626 13.3405 3.96292 12.5009C3.04756 11.3594 2.5 9.91029 2.5 8.33329C2.5 4.65139 5.48477 1.66663 9.16667 1.66663ZM9.16667 3.33329C6.40524 3.33329 4.16667 5.57187 4.16667 8.33329C4.16667 9.48737 4.55682 10.5774 5.26315 11.4582C6.17471 12.595 6.66697 13.8893 6.66687 15.2552L6.66677 16.6666H10.8339L10.8348 14.1666H14.1667V10.6265L15.4581 10.0734L14.1727 8.05214L14.1251 7.68428C13.8054 5.20947 11.6869 3.33329 9.16667 3.33329ZM9.16667 5.83329C9.62692 5.83329 10 6.20639 10 6.66663V7.49996H10.8333C11.2936 7.49996 11.6667 7.87306 11.6667 8.33329C11.6667 8.79354 11.2936 9.16662 10.8333 9.16662H10V9.99996C10 10.4602 9.62692 10.8333 9.16667 10.8333C8.70642 10.8333 8.33333 10.4602 8.33333 9.99996V9.16579L7.5 9.16662C7.03977 9.16662 6.66667 8.79354 6.66667 8.33329C6.66667 7.87306 7.03977 7.49996 7.5 7.49996L8.33333 7.49912V6.66663C8.33333 6.20639 8.70642 5.83329 9.16667 5.83329Z" fill="#E3E3E3"/>
</svg>
