<svg width="20" height="20" viewBox="0 0 20 20" fill="none" xmlns="http://www.w3.org/2000/svg">
<path d="M14.9997 0.833374C14.9997 1.42972 14.9463 1.98294 14.8459 2.50004H6.85962C7.39178 4.6269 8.99492 6.02401 11.3188 7.85679C10.8973 8.22062 10.4548 8.57837 9.99967 8.93896C7.27389 6.77916 4.99967 4.72375 4.99967 0.833374H3.33301C3.33301 5.38857 6.00812 7.88633 8.65492 10C6.00812 12.1138 3.33301 14.6115 3.33301 19.1667H4.99967C4.99967 15.0337 7.56643 12.9717 10.5145 10.6553L10.591 10.5952C13.4572 8.34362 16.6663 5.82258 16.6663 0.833374H14.9997ZM14.8459 17.5002H6.85962C7.40882 15.3053 9.09867 13.8875 11.5443 11.966C11.9141 11.6755 12.2846 11.3859 12.6506 11.0905C14.8046 12.9985 16.6663 15.3667 16.6663 19.1669H14.9997C14.9997 18.5705 14.9463 18.0173 14.8459 17.5002Z" fill="#E3E3E3"/>
</svg>
