<svg width="20" height="20" viewBox="0 0 20 20" fill="none" xmlns="http://www.w3.org/2000/svg">
<path d="M3.33366 7.5C3.33366 5.41032 4.76158 4.16667 6.25032 4.16667C7.83873 4.16667 8.96174 5.48509 10.0003 6.52369C11.0389 5.48509 12.1619 4.16667 13.7503 4.16667C15.2635 4.16667 16.667 5.40297 16.667 7.5C16.667 8.43517 16.4702 9.29175 16.1261 10.0849L17.655 10.7484C18.0841 9.7595 18.3337 8.67792 18.3337 7.5C18.3337 4.57993 16.2784 2.5 13.7503 2.5C12.1591 2.5 10.9557 3.32067 10.0003 4.19002C9.04499 3.32067 7.84159 2.5 6.25032 2.5C3.75328 2.5 1.66699 4.58019 1.66699 7.5C1.66699 10.0166 2.80205 12.0585 4.33654 13.7042C5.86127 15.3394 7.82139 16.6292 9.57666 17.6654L10.424 16.2302C8.70116 15.2131 6.91127 14.0216 5.55552 12.5676C4.20954 11.1241 3.33366 9.46883 3.33366 7.5ZM15.8337 14.1667V11.6667H14.167V14.1667H11.667V15.8333H14.1662L14.167 18.3333H15.8337L15.8328 15.8333H18.3337V14.1667H15.8337Z" fill="#E3E3E3"/>
</svg>
