<svg width="20" height="20" viewBox="0 0 20 20" fill="none" xmlns="http://www.w3.org/2000/svg">
<path d="M15.8337 11.6666V14.1666H18.3337V15.8333H15.8329L15.8337 18.3333H14.1671L14.1662 15.8333H11.6671V14.1666H14.1671V11.6666H15.8337ZM16.8692 3.96447C18.6697 5.76878 18.8099 8.59508 17.2918 10.5558C16.6054 10.2003 15.8262 10 15.0003 10C12.2389 10 10.0003 12.2386 10.0003 15C10.0003 15.8408 10.2078 16.633 10.5744 17.3283L10.0002 17.9042L2.93481 10.8275C1.1812 8.86417 1.24675 5.84918 3.13146 3.96447C5.0183 2.07763 8.03798 2.01406 10.0012 3.77378C11.9587 2.01667 14.9837 2.075 16.8692 3.96447Z" fill="#E3E3E3"/>
</svg>
