<svg width="20" height="20" viewBox="0 0 20 20" fill="none" xmlns="http://www.w3.org/2000/svg">
<path d="M10.0008 12.5C13.4005 12.5 16.2058 15.0447 16.6159 18.3333H3.38574C3.79581 15.0447 6.60114 12.5 10.0008 12.5ZM8.48991 14.3995C7.29522 14.7783 6.28897 15.5944 5.66867 16.6666H10.0008L8.48991 14.3995ZM11.5121 14.3997L10.0008 16.6666H14.333C13.7127 15.5945 12.7067 14.7785 11.5121 14.3997ZM15.0008 1.66663V6.66663C15.0008 9.42804 12.7622 11.6666 10.0008 11.6666C7.23941 11.6666 5.00083 9.42804 5.00083 6.66663V1.66663H15.0008ZM6.6675 6.66663C6.6675 8.50754 8.15988 9.99996 10.0008 9.99996C11.8418 9.99996 13.3342 8.50754 13.3342 6.66663H6.6675ZM13.3342 3.33329H6.6675L6.66741 4.99996H13.3341L13.3342 3.33329Z" fill="#E3E3E3"/>
</svg>
