<svg width="20" height="20" viewBox="0 0 20 20" fill="none" xmlns="http://www.w3.org/2000/svg">
<path d="M10.9968 1.89001L13.7052 6.58098C13.9352 6.97956 13.7987 7.48921 13.4001 7.71933L12.3172 8.34361L13.1509 9.7877L11.7075 10.621L10.8737 9.17695L9.79167 9.8027C9.39308 10.0328 8.88342 9.8962 8.65333 9.49761L7.12183 6.84558C5.41152 7.3645 4.16667 8.95353 4.16667 10.8334C4.16667 11.3545 4.26233 11.8533 4.43706 12.3131C5.08267 11.9034 5.84702 11.6667 6.66667 11.6667C8.07007 11.6667 9.31142 12.3605 10.0664 13.4239L16.4734 9.72536L17.3068 11.1688L10.7415 14.9592C10.8017 15.2411 10.8333 15.5335 10.8333 15.8334C10.8333 16.1189 10.8046 16.3979 10.7499 16.6673L17.5 16.6667V18.3334L3.33378 18.3344C2.81025 17.6379 2.5 16.7719 2.5 15.8334C2.5 14.994 2.74818 14.2126 3.17517 13.5586C2.74397 12.7457 2.5 11.818 2.5 10.8334C2.5 8.33728 4.06776 6.20737 6.27231 5.3746L5.94497 4.80667C5.48474 4.00952 5.75787 2.99021 6.55503 2.52996L8.72008 1.27996C9.51725 0.819729 10.5366 1.09286 10.9968 1.89001ZM6.66667 13.3334C5.28596 13.3334 4.16667 14.4527 4.16667 15.8334C4.16667 16.1255 4.21678 16.406 4.30889 16.6666H9.02442C9.11658 16.406 9.16667 16.1255 9.16667 15.8334C9.16667 14.4527 8.04737 13.3334 6.66667 13.3334ZM9.55342 2.72334L7.38835 3.97334L9.68 7.94262L11.8451 6.69262L9.55342 2.72334Z" fill="#E3E3E3"/>
</svg>
