<svg width="20" height="20" viewBox="0 0 20 20" fill="none" xmlns="http://www.w3.org/2000/svg">
<path d="M10.0013 18.3333C5.39893 18.3333 1.66797 14.6023 1.66797 9.99996C1.66797 5.39758 5.39893 1.66663 10.0013 1.66663C14.6037 1.66663 18.3347 5.39758 18.3347 9.99996C18.3347 14.6023 14.6037 18.3333 10.0013 18.3333ZM10.0013 16.6666C13.6832 16.6666 16.668 13.6819 16.668 9.99996C16.668 6.31806 13.6832 3.33329 10.0013 3.33329C6.3194 3.33329 3.33464 6.31806 3.33464 9.99996C3.33464 13.6819 6.3194 16.6666 10.0013 16.6666ZM10.8347 11.6666C10.8347 13.2776 9.52882 14.5835 7.91797 14.5835C6.30714 14.5835 5.0013 13.2776 5.0013 11.6668C5.0013 10.5218 5.66755 9.49704 6.68719 9.02204C7.10438 8.82762 7.60014 9.00829 7.7945 9.42546C7.98888 9.84262 7.80825 10.3384 7.39108 10.5327C6.95343 10.7366 6.66797 11.1757 6.66797 11.6668C6.66797 12.3572 7.22761 12.9168 7.91797 12.9168C8.60832 12.9168 9.16799 12.3572 9.16799 11.6668V8.33329C9.16799 6.72246 10.4738 5.41663 12.0847 5.41663C13.6955 5.41663 15.0013 6.72246 15.0013 8.33329C15.0013 9.47837 14.3351 10.503 13.3154 10.9781C12.8982 11.1725 12.4025 10.9919 12.2081 10.5747C12.0137 10.1575 12.1943 9.66171 12.6115 9.46737C13.0492 9.26346 13.3347 8.82446 13.3347 8.33329C13.3347 7.64293 12.775 7.08329 12.0847 7.08329C11.3942 7.08329 10.8347 7.64293 10.8347 8.33329V11.6666Z" fill="#E3E3E3"/>
</svg>
