<svg width="20" height="20" viewBox="0 0 20 20" fill="none" xmlns="http://www.w3.org/2000/svg">
<path d="M3.33431 2.5H16.6677C17.1279 2.5 17.501 2.8731 17.501 3.33333V16.6667C17.501 17.1269 17.1279 17.5 16.6677 17.5H3.33431C2.87407 17.5 2.50098 17.1269 2.50098 16.6667V3.33333C2.50098 2.8731 2.87407 2.5 3.33431 2.5ZM4.16764 4.16667V15.8333H15.8343V4.16667H4.16764ZM5.82399 11.7208L6.46538 8.99467H5.47193L5.77377 7.83603H8.16327L7.21993 11.7291C7.15704 11.9779 7.13195 12.1842 7.13195 12.3279C7.13195 12.5769 7.24968 12.6497 7.43385 12.6928C7.54601 12.719 8.43974 12.7008 8.92633 11.5755L9.54591 8.99467H8.53974L8.84166 7.83603H10.9922L10.7156 9.15142C11.0927 8.41858 11.8474 7.72228 12.5894 7.72228C13.3817 7.72228 14.0358 8.30953 14.0358 9.43483C14.0358 9.72258 13.998 10.0358 13.8974 10.389L13.4949 11.8932C13.4572 12.0506 13.432 12.1813 13.432 12.2991C13.432 12.5606 13.5327 12.6914 13.7213 12.6914C13.9099 12.6914 14.1489 12.5472 14.4257 11.7494L14.979 11.9717C14.6519 13.1624 14.0609 13.6594 13.3188 13.6594C12.451 13.6594 12.0361 13.1233 12.0361 12.3903C12.0361 12.1811 12.0612 11.9585 12.124 11.736L12.5392 10.192C12.5894 10.0219 12.602 9.865 12.602 9.721C12.602 9.22392 12.3127 8.92283 11.8474 8.92283C11.2562 8.92283 10.8664 9.36433 10.6652 10.2148L9.86024 13.5739H8.45174L8.70458 12.5183C8.29054 13.2259 7.71554 13.6642 7.00622 13.6642C6.15102 13.6642 5.74853 13.1516 5.74853 12.3794C5.74853 12.1835 5.77377 11.9432 5.82399 11.7208ZM7.18848 7.1875C6.67071 7.1875 6.25098 6.76777 6.25098 6.25C6.25098 5.73223 6.67071 5.3125 7.18848 5.3125C7.70624 5.3125 8.12598 5.73223 8.12598 6.25C8.12598 6.76777 7.70624 7.1875 7.18848 7.1875Z" fill="#E3E3E3"/>
</svg>
