<svg width="20" height="20" viewBox="0 0 20 20" fill="none" xmlns="http://www.w3.org/2000/svg">
<path d="M16.6576 9.64296C16.5861 8.28757 16.1097 7.0395 15.3472 6.01743C15.1461 6.23668 14.8991 6.47479 14.5801 6.74295C13.8237 7.37878 12.9076 7.95252 11.8198 8.41746C11.9585 8.70879 12.0861 8.99154 12.1983 9.25812L12.1993 9.26038C12.2213 9.31179 12.2402 9.35879 12.2771 9.45146C12.2819 9.46346 12.2864 9.47471 12.2907 9.48537C13.5521 9.34346 14.8817 9.39571 16.1711 9.57037C16.3425 9.59354 16.5045 9.61787 16.6576 9.64296ZM8.83732 3.43438C8.98224 3.63847 9.13382 3.85712 9.31724 4.12811C9.82774 4.88238 10.3303 5.67822 10.8007 6.49585C10.8961 6.66176 10.9895 6.82737 11.0807 6.99256C12.0997 6.59157 12.9417 6.08563 13.6202 5.52068C13.8946 5.29215 14.1156 5.07746 14.2839 4.89139C13.1254 3.91893 11.6312 3.33329 10.0003 3.33329C9.60366 3.33329 9.21499 3.36794 8.83732 3.43438ZM3.54421 8.33125C4.02653 8.32039 4.57088 8.29113 5.24452 8.22928C6.58386 8.10628 7.9515 7.88537 9.29607 7.54391C8.81024 6.69763 8.28272 5.85272 7.74576 5.04478C7.48765 4.65642 7.23663 4.29156 7.04602 4.02198C5.32983 4.87173 4.03194 6.43878 3.54421 8.33125ZM4.82004 14.1966C5.14292 13.7244 5.5675 13.1928 6.13197 12.6145C7.34365 11.3731 8.77416 10.4065 10.4286 9.87271C10.4517 9.86587 10.4673 9.86129 10.4803 9.85746C10.3428 9.55421 10.2138 9.28371 10.0839 9.02846C8.55391 9.47387 6.94224 9.75246 5.33598 9.89679C4.55298 9.96712 3.85037 9.99837 3.33366 10.0036C3.33451 11.5926 3.89128 13.0516 4.82004 14.1966ZM12.5041 16.1805C12.4171 15.7287 12.3061 15.2255 12.1586 14.645C11.8911 13.5926 11.556 12.51 11.1445 11.4231C9.47632 12.0285 8.14677 12.9145 7.11957 13.9707C6.62452 14.4797 6.26069 14.9614 6.02234 15.3502C7.13276 16.1772 8.50941 16.6666 10.0003 16.6666C10.8858 16.6666 11.7311 16.494 12.5041 16.1805ZM14.0652 15.2845C15.3397 14.3026 16.2491 12.87 16.5547 11.2252C16.2714 11.1554 15.912 11.0837 15.5167 11.0288C14.6467 10.908 13.7515 10.8879 12.8677 11.0015C13.2447 12.0636 13.5538 13.111 13.801 14.1134C13.9089 14.5511 13.9968 14.9465 14.0652 15.2845ZM10.0003 18.3333C5.39795 18.3333 1.66699 14.6023 1.66699 9.99996C1.66699 5.39758 5.39795 1.66663 10.0003 1.66663C14.6027 1.66663 18.3337 5.39758 18.3337 9.99996C18.3337 14.6023 14.6027 18.3333 10.0003 18.3333Z" fill="#E3E3E3"/>
</svg>
