<svg width="20" height="20" viewBox="0 0 20 20" fill="none" xmlns="http://www.w3.org/2000/svg">
<path d="M10.0003 9.49029C9.24549 8.02223 7.1906 5.28682 5.27949 3.93821C3.44893 2.64584 2.75102 2.86946 2.29338 3.07709C1.76352 3.31529 1.66699 4.12918 1.66699 4.60695C1.66699 5.08612 1.92949 8.53054 2.10033 9.10629C2.6663 11.0063 4.6788 11.648 6.53297 11.4424C3.8163 11.8451 1.4031 12.8347 4.56768 16.3576C8.04893 19.9618 9.33849 15.5847 10.0003 13.366C10.6622 15.5847 11.4239 19.8042 15.3705 16.3576C18.3337 13.366 16.1843 11.8451 13.4677 11.4424C15.3218 11.6486 17.3343 11.0063 17.9003 9.10629C18.0712 8.53129 18.3337 5.08543 18.3337 4.60765C18.3337 4.12848 18.2372 3.31528 17.7072 3.07571C17.2497 2.86876 16.5517 2.64515 14.7212 3.93682C12.8101 5.28751 10.7552 8.02293 10.0003 9.49029Z" fill="#E3E3E3"/>
</svg>
