<svg width="20" height="20" viewBox="0 0 20 20" fill="none" xmlns="http://www.w3.org/2000/svg">
<path d="M2.76956 10.0001C2.76956 12.8655 4.43622 15.3334 6.84647 16.5065L3.39776 7.05777C2.98364 7.98341 2.76958 8.986 2.76956 10.0001ZM10.0003 17.2308C10.8401 17.2308 11.6477 17.0834 12.4042 16.8206L12.3529 16.7244L10.1285 10.6347L7.96187 16.936C8.60291 17.1282 9.28882 17.2308 10.0003 17.2308ZM10.9939 6.60906L13.6093 14.3847L14.3337 11.9744C14.6413 10.9744 14.8785 10.2565 14.8785 9.63466C14.8785 8.73725 14.558 8.12187 14.2888 7.64751C13.917 7.04496 13.5772 6.53854 13.5772 5.9488C13.5772 5.28213 14.0772 4.66675 14.7952 4.66675H14.8849C13.5526 3.44361 11.809 2.7663 10.0003 2.76931C8.80274 2.76909 7.62394 3.06657 6.56988 3.635C5.51583 4.20343 4.61962 5.02497 3.96187 6.02572L4.4234 6.03854C5.17981 6.03854 6.34648 5.94239 6.34648 5.94239C6.74392 5.92316 6.78878 6.49367 6.39776 6.53854C6.39776 6.53854 6.00673 6.58982 5.56442 6.60906L8.20545 14.4424L9.78882 9.69883L8.66057 6.60906C8.40791 6.59511 8.15562 6.57373 7.90417 6.54496C7.51314 6.51931 7.55802 5.92316 7.94904 5.94239C7.94904 5.94239 9.14132 6.03854 9.85291 6.03854C10.6093 6.03854 11.776 5.94239 11.776 5.94239C12.167 5.92316 12.2182 6.49367 11.8272 6.53854C11.8272 6.53854 11.4362 6.58341 10.9939 6.60906ZM13.6349 16.2501C14.7288 15.6141 15.6367 14.7021 16.2677 13.6053C16.8987 12.5086 17.2309 11.2654 17.2311 10.0001C17.2311 8.74366 16.9106 7.56418 16.3465 6.53213C16.4611 7.66757 16.2892 8.81358 15.8465 9.8655L13.6349 16.2501ZM10.0003 18.3334C7.79019 18.3334 5.67057 17.4554 4.10777 15.8927C2.54497 14.3298 1.66699 12.2102 1.66699 10.0001C1.66699 7.78995 2.54497 5.67033 4.10777 4.10752C5.67057 2.54472 7.79019 1.66675 10.0003 1.66675C12.2105 1.66675 14.3301 2.54472 15.8929 4.10752C17.4557 5.67033 18.3337 7.78995 18.3337 10.0001C18.3337 12.2102 17.4557 14.3298 15.8929 15.8927C14.3301 17.4554 12.2105 18.3334 10.0003 18.3334Z" fill="#E3E3E3"/>
</svg>
