<svg width="20" height="20" viewBox="0 0 20 20" fill="none" xmlns="http://www.w3.org/2000/svg">
<path d="M17.7354 6.88349C17.3726 6.01089 16.6378 5.06876 16.0609 4.77102C16.4599 5.55314 16.8045 6.43966 16.9078 7.31817C15.9639 4.96563 14.3634 4.0169 13.0563 1.9515C12.8931 1.69301 12.7024 1.34526 12.6019 1.10779C10.7458 2.19494 9.9765 4.09807 9.77875 5.30946C9.20525 5.34203 8.6435 5.48538 8.12459 5.73156C8.03018 5.77827 7.98257 5.89774 8.01897 5.99658C8.05869 6.1115 8.19274 6.16917 8.3035 6.11901C8.83234 5.86947 9.41467 5.73822 9.99909 5.73219C11.503 5.72171 12.9307 6.55808 13.6789 7.8646C13.2332 7.55148 12.4352 7.24225 11.6663 7.37597C14.6686 8.87689 13.8626 14.0456 9.70225 13.8505C8.02375 13.7821 6.41476 12.4756 6.26397 10.7421C6.26397 10.7421 6.64927 9.30639 9.02292 9.30639C9.2795 9.30639 10.0131 8.59039 10.0268 8.38272C10.0236 8.31487 8.57084 7.73702 8.00444 7.179C7.75278 6.93106 7.50947 6.66434 7.21465 6.46596C7.02437 5.80033 7.01628 5.09581 7.1912 4.42598C6.33375 4.81646 5.66292 5.43362 5.17808 5.97856C4.84714 5.55943 4.87052 4.17685 4.88938 3.88818C4.16159 4.27573 3.52038 4.94972 3.01542 5.66953C2.15822 6.88441 1.66406 8.47822 1.66406 9.98714C1.66406 14.5966 5.39013 18.3331 10 18.3331C14.1286 18.3331 17.5678 15.3361 18.2389 11.3994C18.4398 9.88114 18.3278 8.30842 17.7354 6.88349Z" fill="#E3E3E3"/>
</svg>
