<svg width="20" height="20" viewBox="0 0 20 20" fill="none" xmlns="http://www.w3.org/2000/svg">
<path d="M13.7752 14.6076L16.6677 17.5H2.50098V3.33337H11.3898V3.33987C11.4819 3.33556 11.5745 3.33337 11.6677 3.33337C11.7055 3.33337 11.7433 3.33373 11.781 3.33446C11.7068 3.64306 11.6677 3.96814 11.6677 4.3056C11.6677 6.23777 13.3466 7.91671 15.5565 7.91671C16.1602 7.91671 16.7392 7.75281 17.2499 7.46851C17.4132 8.00585 17.501 8.57604 17.501 9.16671C17.501 11.6452 15.9552 13.7626 13.7752 14.6076ZM15.4177 6.25004C14.2671 6.25004 13.3343 5.3173 13.3343 4.16671C13.3343 3.01612 14.2671 2.08337 15.4177 2.08337C16.5682 2.08337 17.501 3.01612 17.501 4.16671C17.501 5.3173 16.5682 6.25004 15.4177 6.25004Z" fill="#E3E3E3"/>
</svg>
