<svg width="20" height="20" viewBox="0 0 20 20" fill="none" xmlns="http://www.w3.org/2000/svg">
<path d="M11.2511 3.66575C12.2682 4.25301 12.7178 5.44876 12.4023 6.52921L14.0022 6.99637C14.528 5.19573 13.7822 3.20262 12.0844 2.22237C10.0915 1.07178 7.54324 1.7546 6.39265 3.74748C5.38475 5.49321 5.7837 7.66513 7.23774 8.95037L5.66937 11.6669H5.66667C4.7462 11.6669 4 12.4131 4 13.3335C4 14.254 4.7462 15.0002 5.66667 15.0002C6.58714 15.0002 7.33333 14.254 7.33333 13.3335C7.33333 13.2007 7.31779 13.0715 7.28842 12.9475C7.21976 12.658 7.20318 12.3436 7.35196 12.0859L9.47275 8.41254L8.75108 7.99588C7.55536 7.30552 7.14567 5.77655 7.83602 4.58081C8.52642 3.38508 10.0553 2.9754 11.2511 3.66575ZM12.5262 15.0669C13.3042 15.8803 14.5645 16.0889 15.5817 15.5015C16.7774 14.8112 17.1871 13.2823 16.4967 12.0865C15.8064 10.8908 14.2774 10.4811 13.0817 11.1715L12.36 11.5881L10.2388 7.91411C10.0901 7.65644 9.80942 7.51356 9.52442 7.42826C9.40242 7.39175 9.28275 7.34061 9.16775 7.27418C8.37058 6.81394 8.09744 5.79462 8.55767 4.99747C9.01792 4.20031 10.0372 3.92719 10.8344 4.38743C11.6316 4.84766 11.9047 5.86698 11.4444 6.66414L11.443 6.66655L13.0117 9.38362C14.8518 8.76696 16.9322 9.50746 17.9402 11.2532C19.0907 13.246 18.4079 15.7944 16.415 16.945C14.7172 17.9252 12.6182 17.5745 11.3217 16.2188L12.5262 15.0669ZM3.16667 13.3338C3.16667 12.1593 3.97742 11.172 5.07087 10.905L4.67551 9.28596C2.85322 9.73087 1.5 11.3733 1.5 13.3338C1.5 15.635 3.36548 17.5005 5.66667 17.5005C7.68247 17.5005 9.36391 16.069 9.75 14.1671H12.8869L12.8883 14.1697C13.3486 14.9669 14.3679 15.24 15.1651 14.7797C15.9622 14.3195 16.2353 13.3002 15.7751 12.503C15.3148 11.7059 14.2956 11.4327 13.4984 11.893C13.3833 11.9594 13.2792 12.0375 13.1867 12.1248C12.9703 12.329 12.7063 12.5005 12.4088 12.5005H8.16667V13.3338C8.16667 14.7145 7.04738 15.8338 5.66667 15.8338C4.28596 15.8338 3.16667 14.7145 3.16667 13.3338Z" fill="#E3E3E3"/>
</svg>
