<svg width="20" height="20" viewBox="0 0 20 20" fill="none" xmlns="http://www.w3.org/2000/svg">
<path d="M18.5179 13.1402L18.3312 12.2025H16.2359L15.9031 13.1332L14.2231 13.1369C15.3027 10.5428 16.1039 8.62121 16.6267 7.3721C16.7632 7.04588 17.006 6.87948 17.3637 6.88202C17.6365 6.88407 18.0826 6.88432 18.7017 6.88281L20 13.1373L18.5179 13.1402ZM16.7071 10.9181H18.0577L17.5535 8.56821L16.7071 10.9181ZM5.88391 6.88054L7.57253 6.88273L4.96248 13.1402L3.25306 13.1395C2.67511 10.908 2.2507 9.25346 1.97984 8.17597C1.8968 7.84562 1.73163 7.61493 1.41418 7.50583C1.13113 7.40855 0.659736 7.25812 0 7.05457V6.88281C1.23352 6.88266 2.13267 6.88266 2.69745 6.88281C3.1645 6.88295 3.43676 7.10842 3.52435 7.57134C3.61227 8.03621 3.83439 9.21796 4.1907 11.1165L5.88391 6.88054ZM9.89183 6.88274L8.55792 13.1396L6.9509 13.1373C6.98262 12.9853 7.42668 10.8997 8.2831 6.88054L9.89183 6.88274ZM13.1512 6.76672C13.6315 6.76672 14.2372 6.91596 14.5862 7.05457L14.3043 8.35171C13.9892 8.22515 13.4714 8.05405 13.0353 8.06074C12.4011 8.07047 12.0098 8.33662 12.0098 8.59204C12.0098 9.00662 12.6897 9.21546 13.3901 9.66912C14.1887 10.1864 14.2942 10.65 14.2843 11.1546C14.2731 12.201 13.3901 13.2334 11.5268 13.2334C10.6759 13.2206 10.3703 13.1492 9.67683 12.9032L9.96975 11.5495C10.6755 11.8451 10.9748 11.9391 11.5779 11.9391C12.1307 11.9391 12.6052 11.7157 12.6093 11.3265C12.6122 11.0498 12.443 10.9129 11.8226 10.5705C11.2023 10.2282 10.3328 9.75496 10.344 8.80254C10.3583 7.58391 11.5125 6.76672 13.1512 6.76672Z" fill="#E3E3E3"/>
</svg>
