<svg width="20" height="20" viewBox="0 0 20 20" fill="none" xmlns="http://www.w3.org/2000/svg">
<path d="M14.4006 2.46283C16.8748 2.63192 17.5301 4.41371 17.5998 4.62692L18.6804 4.70624C18.7887 4.70624 18.8213 4.85696 18.7257 4.90343C17.6232 5.50001 17.2863 6.71225 17.4843 7.50189C17.559 7.79971 17.6953 8.07641 17.8275 8.35192C18.083 8.88634 18.3699 9.53351 18.4168 10.836C18.5138 13.5352 16.3244 15.9814 13.5928 16.3296C14.5676 15.3406 15.1045 14.2931 15.3593 13.5172C15.8643 11.9791 15.7826 10.7538 15.4046 9.81742C15.0319 8.89426 14.4003 8.32463 13.9195 8.03316C12.5173 7.18331 11.237 7.12441 10.2168 7.39826C10.6043 6.90308 10.9466 6.39726 11.2162 5.84456C11.7028 4.47006 11.1316 3.47134 10.6301 2.91263C10.47 2.70776 10.579 2.36646 10.8838 2.36646C12.0584 2.36646 13.2279 2.38359 14.4006 2.46283ZM2.76544 15.9222C4.3688 14.0873 6.69276 11.4277 8.73434 9.13026C9.19984 8.60634 11.0414 7.18207 13.5236 8.68659C14.2555 9.13026 15.5489 10.4908 14.6336 13.279C13.9645 15.3169 10.9608 19.775 1.5008 18.1486C1.31159 18.1161 1.07484 17.8534 1.3191 17.5753C1.66479 17.1818 2.1645 16.6099 2.76544 15.9222Z" fill="#E3E3E3"/>
</svg>
