<svg width="20" height="20" viewBox="0 0 20 20" fill="none" xmlns="http://www.w3.org/2000/svg">
<path d="M5.13159 3.33333H14.8685C15.8617 3.33333 16.6668 4.13843 16.6668 5.13157V8.01095C16.5188 8.04824 16.3775 8.0979 16.2564 8.15886C15.9231 8.31319 15.6291 8.544 15.3845 8.84683C14.9907 9.33483 14.7522 9.99425 14.6942 10.7353C14.6818 10.8825 14.6777 11.0305 14.6803 11.1782C14.7145 12.6472 15.4133 13.8579 16.6668 14.1372V14.8684C16.6668 15.8616 15.8617 16.6667 14.8685 16.6667H5.13159C4.13844 16.6667 3.33334 15.8616 3.33334 14.8684V5.13157C3.33334 4.13843 4.13844 3.33333 5.13159 3.33333ZM17.5001 5.13157C17.5001 3.6782 16.3219 2.5 14.8685 2.5H5.13159C3.67821 2.5 2.5 3.6782 2.5 5.13157V14.8684C2.5 16.3218 3.67821 17.5 5.13159 17.5H14.8685C16.3219 17.5 17.5001 16.3218 17.5001 14.8684V5.13157ZM16.6668 8.58167V10.2344H16.1533C16.1856 9.51158 16.3638 8.91783 16.6668 8.58167ZM16.6668 10.5517V12.271C16.299 11.8431 16.0844 11.2298 16.1228 10.5517H16.6668ZM14.7478 6.08337L14.7597 6.08077V5.98917H12.344L10.101 11.261L7.85797 5.98917H5.25479V6.08077L5.26648 6.08337C5.7074 6.18288 5.93126 6.33131 5.93126 6.86656V13.1329C5.93126 13.6682 5.70653 13.8166 5.26562 13.9161L5.25393 13.9187V14.0106H7.0201V13.919L7.00843 13.9163C6.56748 13.8168 6.34363 13.6684 6.34363 13.1332V7.23004L9.225 14.0106H9.38842L12.3538 7.04095V13.2879C12.316 13.7107 12.0942 13.8412 11.6949 13.9313L11.6831 13.9341V14.025H14.7597V13.9341L14.7478 13.9313C14.3482 13.8412 14.121 13.7107 14.0833 13.2879L14.0812 6.86656H14.0833C14.0833 6.33131 14.3071 6.18288 14.7478 6.08337Z" fill="#E3E3E3"/>
</svg>
