<svg width="20" height="20" viewBox="0 0 20 20" fill="none" xmlns="http://www.w3.org/2000/svg">
<path d="M6.88514 6.8836C4.8654 7.33563 3.33464 9.34016 3.33464 11.613C3.33464 14.3299 5.53684 16.5323 8.2533 16.5323C10.6295 16.5323 12.6548 14.834 13.0874 12.5276C13.187 11.9969 13.5373 11.5474 14.0277 11.3213C14.43 11.1357 14.7866 10.927 15.0983 10.7016C14.3786 10.1993 14.1093 9.15041 14.7061 8.33991C15.19 7.68256 15.5816 6.95721 15.8657 6.1308C14.9626 6.55574 13.9482 6.9113 12.8091 7.18511C11.7576 7.43785 10.8153 6.65359 10.7537 5.67302C9.77024 6.15021 8.52857 6.51578 6.88514 6.8836ZM16.0482 9.328C17.02 9.328 17.6451 8.97483 18.3347 8.83933C18.0641 10.0462 17.0838 11.7474 14.7255 12.8348C14.1527 15.8884 11.4728 18.199 8.2533 18.199C4.61632 18.199 1.66797 15.2503 1.66797 11.613C1.66797 8.57516 3.7242 5.88315 6.52113 5.25717C9.78882 4.52583 11.2743 3.9517 12.4185 1.66675C12.9926 2.77786 12.993 4.07714 12.4196 5.5646C14.7655 5.00621 16.647 4.02056 18.0641 2.60761C18.0641 6.60938 16.5452 8.59591 16.0482 9.328ZM11.1818 12.6047C11.668 12.7263 11.668 13.2985 11.668 13.4556V14.3063C11.668 14.7746 11.3832 14.9505 10.965 14.9505H6.45282C6.05694 14.8785 5.84101 14.6626 5.84101 14.3027V13.5108C5.84101 13.1149 6.02095 12.8269 6.20089 12.611L8.82807 9.80358H6.27287C6.02095 9.80358 5.84101 9.62366 5.84101 9.29966C5.80502 8.68783 5.91299 7.71603 6.38084 7.50008C6.45282 7.50008 6.45282 7.60806 6.45282 7.64405C6.38084 7.78802 6.45282 7.896 6.63276 7.896H9.87174C10.5915 7.896 11.0234 7.896 11.2753 7.82401C11.3832 7.78802 11.4552 7.82401 11.4192 7.93199C11.3472 8.18394 11.3832 8.47191 11.3832 8.72383C11.3832 9.55166 11.3832 9.87558 10.7355 10.5234L8.50415 12.9709L10.8781 12.9694C11.1418 12.9694 11.1818 12.8478 11.1818 12.6047Z" fill="#E3E3E3"/>
</svg>
