<svg width="20" height="20" viewBox="0 0 20 20" fill="none" xmlns="http://www.w3.org/2000/svg">
<path d="M14.9951 2.50366C17.0222 2.50366 18.3324 3.7634 18.3324 6.24996C18.3324 7.68299 17.5008 9.53309 16.806 10.6123C14.4818 14.223 11.6116 17.8954 8.76975 17.8954C5.68168 17.8954 4.87873 12.203 4.52687 10.8689C4.17501 9.53484 4.0822 9.02817 3.55181 8.17533C3.2872 8.35759 2.91771 8.61559 2.44334 8.94934C2.25684 9.08059 1.9995 9.0375 1.86591 8.85275L0.771441 7.33954C0.658224 7.183 0.667443 6.96918 0.793728 6.82299C3.14958 4.09521 5.10747 2.73133 6.66742 2.73133C8.66059 2.73133 9.27109 5.07735 9.43734 6.24996C9.68742 8.01408 10.0131 10.1982 10.4745 11.1433C10.938 10.4837 12.2913 8.73675 12.1132 7.81764C12.0347 7.41291 11.0156 7.97111 10.5409 7.88293C10.1867 7.81713 9.86942 7.54819 9.86942 7.02814C9.86942 5.93637 11.4124 2.50366 14.9951 2.50366ZM15.0008 4.17033C13.172 4.17033 12.2915 5.44721 11.9563 6.0099C12.9984 6.04799 13.5976 6.69202 13.7345 7.51261C14.0583 9.45359 12.1376 11.6129 11.7853 12.1498C11.4553 12.6525 9.23384 14.9236 8.24304 9.35042C8.14977 8.82592 7.93704 7.54725 7.68888 5.86132C7.54775 4.90249 6.96195 4.39233 6.6648 4.39233C5.9623 4.39233 5.06421 4.93364 3.45191 6.48811C5.0391 6.39239 5.57265 8.38467 5.882 9.51592C6.56189 12.0023 7.19097 16.2288 8.89859 16.2288C10.3372 16.2288 12.597 14.0238 15.0401 10.3633C15.2139 10.1029 16.6783 7.84226 16.6783 6.16611C16.6783 4.17033 15.4541 4.17033 15.0008 4.17033Z" fill="#E3E3E3"/>
</svg>
