<svg width="20" height="20" viewBox="0 0 20 20" fill="none" xmlns="http://www.w3.org/2000/svg">
<path d="M2.98022 6.89725L1.98577 8.43263L3.82013 9.57488C3.82013 9.57488 5.03968 10.2031 4.45511 11.3824C3.9142 12.4978 1.25 14.9403 1.25 14.9403L3.63535 16.4386C5.2883 12.8338 5.17743 13.3142 5.59067 12.0174C6.01734 10.7004 6.11142 9.68913 5.38909 8.95338C4.46182 8.01601 4.35767 7.92866 2.98022 6.89725ZM4.28377 6.3194C5.15056 6.3194 5.85272 5.68778 5.85272 4.90834C5.85272 4.12218 5.15056 3.49056 4.28377 3.49056C3.41026 3.49056 2.71145 4.12554 2.71145 4.90834C2.71481 5.68442 3.41026 6.3194 4.28377 6.3194ZM18.4547 6.4941C18.4547 6.4941 17.934 2.43564 9.11492 4.94865C9.49458 4.2868 9.67267 3.86013 9.67267 3.86013L7.47207 3.23523C7.47207 3.23523 6.58177 6.15813 4.99601 7.51879C4.99601 7.51879 6.53473 8.41246 6.51793 8.38555C6.95805 7.9421 7.35448 7.49191 7.69045 7.05515C8.04322 6.89725 8.3825 6.75279 8.71175 6.6184C8.30191 7.35752 7.64677 8.46621 6.98828 9.16505L7.91555 9.9848C7.91555 9.9848 8.5505 9.36996 9.23925 8.63421H10.0254V9.99821H6.95468V11.0867H10.0254V13.6972L9.90783 13.6938C9.5685 13.677 9.04442 13.6199 8.83608 13.2906C8.5875 12.8875 8.77225 12.1585 8.78233 11.7049H6.6624L6.58512 11.7486C6.58512 11.7486 5.80568 15.2527 8.826 15.1755C11.6481 15.2527 13.2675 14.3792 14.0469 13.7778L14.356 14.9403L16.0963 14.2045L14.9171 11.3018L13.506 11.7486L13.7681 12.7397C13.4119 13.0152 12.992 13.2168 12.5452 13.368V11.0867H15.5386V9.99488H12.5452V8.6308H15.5487V7.5423H10.2068C10.5932 7.0686 10.8922 6.6352 10.9728 6.36307L10.0388 6.10774C14.0368 4.66309 16.2642 4.9117 16.2475 7.2769V13.5057C16.2475 13.5057 16.4827 15.6425 14.0502 15.4912L12.7332 15.2056L12.4276 16.4655C12.4276 16.4655 18.1087 18.105 18.5723 13.7039C19.0327 9.3028 18.4547 6.4941 18.4547 6.4941Z" fill="#E3E3E3"/>
</svg>
