<svg width="20" height="20" viewBox="0 0 20 20" fill="none" xmlns="http://www.w3.org/2000/svg">
<path d="M4.77905 1.66663L9.52492 6.03925V6.03825V1.67672H10.4487V6.05882L15.2159 1.66663V6.65207H17.1732V13.8431H15.2219V18.2824L10.4487 14.0888V18.3305H9.52492V14.158L4.78442 18.3333V13.8431H2.82715V6.65207H4.77905V1.66663ZM8.8285 7.56462H3.75098V12.9305H4.78327V11.238L8.8285 7.56462ZM5.70822 11.6429V16.297L9.52492 12.9354V8.17617L5.70822 11.6429ZM10.4753 12.8909L14.2981 16.2495V13.8431H14.2932V11.6385L10.4753 8.17169V12.8909ZM15.2219 12.9305H16.2493V7.56462H11.2097L15.2219 11.1999V12.9305ZM14.2921 6.65207V3.76569L11.1592 6.65207H14.2921ZM8.83567 6.65207L5.70288 3.76569V6.65207H8.83567Z" fill="#E3E3E3"/>
</svg>
