<svg width="20" height="20" viewBox="0 0 20 20" fill="none" xmlns="http://www.w3.org/2000/svg">
<path d="M17.5013 2.5C17.9616 2.5 18.3347 2.8731 18.3347 3.33333V16.6667C18.3347 17.1269 17.9616 17.5 17.5013 17.5H2.5013C2.04106 17.5 1.66797 17.1269 1.66797 16.6667V3.33333C1.66797 2.8731 2.04106 2.5 2.5013 2.5H17.5013ZM8.73524 4.1657L3.33464 4.16667V15.8333L10.623 15.8331C10.5714 15.5468 10.5262 15.2636 10.4875 14.9833C10.24 14.9944 10.0779 15 10.0013 15C8.16139 15 6.33659 14.3917 4.53905 13.1934L5.46355 11.8066C6.99934 12.8305 8.5079 13.3333 10.0013 13.3333C10.1119 13.3333 10.2225 13.3306 10.3332 13.3251C10.3127 12.9105 10.3127 12.1497 10.3392 11.6667H7.91797V10.8333C7.91797 8.10439 8.18504 5.88412 8.73524 4.1657ZM10.5013 4.16542C9.94699 5.4848 9.63107 7.84267 9.59374 10H12.1953L12.0782 10.9367C11.9944 11.6073 11.9644 12.3073 11.9886 13.0366C12.8327 12.7874 13.6817 12.3783 14.5391 11.8066L15.4636 13.1934C14.3637 13.9266 13.2537 14.4389 12.1362 14.7262C12.1838 15.0877 12.2452 15.4568 12.3187 15.8325L16.668 15.8333V4.16667L10.5013 4.16542ZM5.83464 5.83333C6.29487 5.83333 6.66797 6.20643 6.66797 6.66667V7.5C6.66797 7.96023 6.29487 8.33333 5.83464 8.33333C5.37439 8.33333 5.0013 7.96023 5.0013 7.5V6.66667C5.0013 6.20643 5.37439 5.83333 5.83464 5.83333ZM14.168 5.83333C14.6282 5.83333 15.0013 6.20643 15.0013 6.66667V7.5C15.0013 7.96023 14.6282 8.33333 14.168 8.33333C13.7077 8.33333 13.3347 7.96023 13.3347 7.5V6.66667C13.3347 6.20643 13.7077 5.83333 14.168 5.83333Z" fill="#E3E3E3"/>
</svg>
