<svg width="20" height="20" viewBox="0 0 20 20" fill="none" xmlns="http://www.w3.org/2000/svg">
<path d="M3.33431 2.5H16.6677C17.1279 2.5 17.501 2.8731 17.501 3.33333V16.6667C17.501 17.1269 17.1279 17.5 16.6677 17.5H3.33431C2.87407 17.5 2.50098 17.1269 2.50098 16.6667V3.33333C2.50098 2.8731 2.87407 2.5 3.33431 2.5ZM4.16764 4.16667V15.8333H15.8343V4.16667H4.16764ZM6.25098 7.5C5.56062 7.5 5.00098 6.94036 5.00098 6.25C5.00098 5.55964 5.56062 5 6.25098 5C6.94133 5 7.50098 5.55964 7.50098 6.25C7.50098 6.94036 6.94133 7.5 6.25098 7.5ZM5.41764 8.33333H7.08431V14.5833H5.41764V8.33333ZM10.001 8.69125C10.488 8.22112 11.0556 7.91667 11.6677 7.91667C13.3935 7.91667 14.5843 9.31575 14.5843 11.0417V14.5833H12.9177V11.0417C12.9177 10.2362 12.2647 9.58333 11.4593 9.58333C10.6539 9.58333 10.001 10.2362 10.001 11.0417V14.5833H8.33433V8.33333H10.001V8.69125Z" fill="#E3E3E3"/>
</svg>
