<svg width="20" height="20" viewBox="0 0 20 20" fill="none" xmlns="http://www.w3.org/2000/svg">
<path d="M13.7503 11.0015L10.8337 12.946V15.9429L15.998 12.5L13.7503 11.0015ZM12.248 9.99996L10.0003 8.50146L7.75264 9.99996L10.0003 11.4985L12.248 9.99996ZM16.667 9.05704L15.2527 9.99996L16.667 10.9429V9.05704ZM15.998 7.49996L10.8337 4.05706V7.05397L13.7503 8.99846L15.998 7.49996ZM6.25032 8.99846L9.16699 7.05397V4.05706L4.00264 7.49996L6.25032 8.99846ZM4.00264 12.5L9.16699 15.9429V12.946L6.25032 11.0015L4.00264 12.5ZM3.33366 10.9429L4.74801 9.99996L3.33366 9.05704V10.9429ZM1.66699 7.49996C1.66699 7.22133 1.80624 6.96114 2.03808 6.80658L9.53807 1.80658C9.81799 1.61997 10.1827 1.61997 10.4626 1.80658L17.9626 6.80658C18.1944 6.96114 18.3337 7.22133 18.3337 7.49996V12.5C18.3337 12.7786 18.1944 13.0388 17.9626 13.1934L10.4626 18.1934C10.1827 18.38 9.81799 18.38 9.53807 18.1934L2.03808 13.1934C1.80624 13.0388 1.66699 12.7786 1.66699 12.5V7.49996Z" fill="#E3E3E3"/>
</svg>
