<svg width="20" height="20" viewBox="0 0 20 20" fill="none" xmlns="http://www.w3.org/2000/svg">
<path d="M8.72 7.16342C8.94092 7.16342 9.12 8.91846 9.12 11.0835L9.11892 11.376C9.10367 13.4043 8.93083 15.0035 8.72 15.0035C8.50658 15.0035 8.33226 13.366 8.32062 11.3034L8.32007 11.0098C8.32407 8.87879 8.50158 7.16342 8.72 7.16342ZM7.33333 7.96342C7.54886 7.96342 7.72458 9.46346 7.73302 11.3419V11.625C7.72458 13.5034 7.54886 15.0035 7.33333 15.0035C7.1205 15.0035 6.94649 13.5407 6.93405 11.6953L6.93342 11.4125L6.93534 11.1287C6.95555 9.35121 7.12603 7.96342 7.33333 7.96342ZM5.94667 7.96342C6.1595 7.96342 6.33351 9.42621 6.34596 11.2716L6.34658 11.5544L6.34466 11.8381C6.32445 13.6156 6.15398 15.0035 5.94667 15.0035C5.73114 15.0035 5.55543 13.5034 5.54698 11.625V11.3419C5.55543 9.46346 5.73114 7.96342 5.94667 7.96342ZM4.56 8.44346C4.78092 8.44346 4.96 9.91196 4.96 11.7235L4.95857 12.0028C4.94128 13.6835 4.76944 15.0035 4.56 15.0035C4.34196 15.0035 4.16466 13.5728 4.16009 11.7938V11.653C4.16466 9.87404 4.34196 8.44346 4.56 8.44346ZM3.17333 9.88346C3.39425 9.88346 3.57333 11.0295 3.57333 12.4435L3.57282 12.5751C3.5621 13.9278 3.38734 15.0035 3.17333 15.0035C2.95242 15.0035 2.77333 13.8573 2.77333 12.4435L2.77385 12.3117C2.78457 10.959 2.95933 9.88346 3.17333 9.88346ZM12.16 5.88342C14.3106 5.88342 16.0941 7.45486 16.425 9.51212C16.6711 9.44129 16.9311 9.40346 17.2 9.40346C18.7464 9.40346 20 10.657 20 12.2035C20 13.7322 18.7747 14.9749 17.2526 15.003L17.2 15.0035H10.4C10.0465 15.0035 9.76 14.7169 9.76 14.3635V6.61084C10.4465 6.15137 11.2719 5.88342 12.16 5.88342ZM1.78667 9.72346C2.00758 9.72346 2.18667 10.8338 2.18667 12.2035L2.18613 12.333C2.17525 13.6425 2.00057 14.6835 1.78667 14.6835C1.56926 14.6835 1.39237 13.608 1.3868 12.2685L1.38667 12.2035C1.38667 10.8338 1.56575 9.72346 1.78667 9.72346ZM0.4 10.5235C0.620914 10.5235 0.8 11.3114 0.8 12.2835L0.799242 12.3926C0.786424 13.3138 0.612577 14.0435 0.4 14.0435C0.179086 14.0435 0 13.2555 0 12.2835L0.000757677 12.1742C0.0135755 11.253 0.187422 10.5235 0.4 10.5235Z" fill="#E3E3E3"/>
</svg>
