<svg width="20" height="20" viewBox="0 0 20 20" fill="none" xmlns="http://www.w3.org/2000/svg">
<path d="M9.21017 6.51287L9.83651 3.56621C10.0279 2.66586 10.9129 2.09111 11.8133 2.28249L14.4768 2.84862C14.8623 2.42126 15.4588 2.20541 16.0622 2.33366C16.9625 2.52504 17.5373 3.41007 17.3459 4.31043C17.1545 5.21079 16.2695 5.78553 15.3692 5.59416C14.7658 5.4659 14.3086 5.02607 14.1303 4.47887L11.4668 3.91273L10.9116 6.52486C12.3988 6.63906 13.8765 7.13403 15.2148 7.94138C15.9073 7.5564 16.749 7.49451 17.5055 7.8008C18.4773 8.19421 19.1273 9.12162 19.1656 10.1693L19.166 10.1868C19.1789 11.0231 18.7988 11.8048 18.1597 12.3119C18.1579 12.3482 18.1556 12.3825 18.1527 12.4143C18.1527 15.7458 14.4448 18.2723 9.98734 18.2723C5.54327 18.2723 1.89712 15.7523 1.89957 12.4782C1.8957 12.4279 1.89269 12.3775 1.89055 12.3272C1.22218 11.8228 0.820276 11.0231 0.833316 10.1635C0.849299 9.10979 1.48585 8.16485 2.45637 7.75413C3.21558 7.43284 4.06717 7.48586 4.76943 7.86988C6.13117 7.05548 7.63115 6.59371 9.21017 6.51287ZM16.9484 11.1175C17.2885 10.9485 17.5022 10.6006 17.4998 10.2214C17.4821 9.83379 17.2403 9.49146 16.8801 9.34562C16.5172 9.19871 16.1018 9.27862 15.8194 9.54979L15.3323 10.0173L14.7738 9.63771C13.4278 8.72271 11.8973 8.19979 10.4159 8.16782L9.57717 8.16773C8.0146 8.19129 6.53414 8.66687 5.21261 9.56312L4.66006 9.93787L4.17382 9.48037C3.88718 9.21071 3.46837 9.13562 3.10592 9.28904C2.74348 9.44237 2.50576 9.79529 2.49967 10.1888C2.49382 10.5823 2.72072 10.9423 3.07835 11.1065L3.60582 11.3489L3.56133 11.9277C3.55051 12.0684 3.55051 12.2097 3.56378 12.4143C3.56378 14.6726 6.36062 16.6056 9.98734 16.6056C13.6298 16.6056 16.486 14.6595 16.4884 12.3505C16.4993 12.2097 16.4993 12.0684 16.4884 11.9277L16.4453 11.3676L16.9484 11.1175ZM5.79197 11.25C5.79197 10.5596 6.35161 9.99996 7.04197 9.99996C7.73232 9.99996 8.29197 10.5596 8.29197 11.25C8.29197 11.9403 7.73232 12.5 7.04197 12.5C6.71044 12.5 6.3925 12.3683 6.15808 12.1339C5.92366 11.8995 5.79197 11.5815 5.79197 11.25ZM11.6253 11.25C11.6253 10.5596 12.1849 9.99996 12.8753 9.99996C13.5657 9.99996 14.1253 10.5596 14.1253 11.25C14.1253 11.9403 13.5657 12.5 12.8753 12.5C12.5438 12.5 12.2258 12.3683 11.9914 12.1339C11.757 11.8995 11.6253 11.5815 11.6253 11.25ZM9.97176 15.5024C8.80742 15.5024 7.66628 15.1941 6.7372 14.494C6.62183 14.3535 6.63191 14.1483 6.7605 14.0197C6.88909 13.8911 7.09425 13.881 7.23482 13.9964C8.02215 14.5739 9.00384 14.8214 9.95859 14.8214C10.9134 14.8214 11.9008 14.5927 12.6955 14.0226C12.7891 13.9314 12.9243 13.897 13.05 13.9324C13.1758 13.9678 13.2732 14.0676 13.3054 14.1943C13.3376 14.321 13.2928 14.4455 13.2063 14.5464C12.6362 15.211 11.136 15.5024 9.97176 15.5024Z" fill="#E3E3E3"/>
</svg>
