<svg width="20" height="20" viewBox="0 0 20 20" fill="none" xmlns="http://www.w3.org/2000/svg">
<path d="M12.7913 4.62504C11.4731 4.62504 10.3985 5.68174 10.375 6.99715L10.3516 8.30968C10.3467 8.58575 10.1188 8.80558 9.84276 8.80066C9.82309 8.80033 9.80351 8.79883 9.78409 8.79616L8.48343 8.61883C6.77217 8.38542 5.13203 7.5978 3.55861 6.28676C3.0603 9.04483 4.03301 10.956 6.37753 12.43L7.83335 13.3452C8.06713 13.4922 8.13751 13.8008 7.99053 14.0346C7.95685 14.0882 7.91331 14.1349 7.86221 14.1722L6.53583 15.1413C7.32445 15.1908 8.07416 15.1562 8.69551 15.0322C12.6268 14.2477 15.2411 11.2892 15.2411 6.40924C15.2411 6.01083 14.3975 4.62504 12.7913 4.62504ZM8.70859 6.96742C8.74826 4.74653 10.5609 2.95837 12.7913 2.95837C13.9273 2.95837 14.9551 3.42236 15.6953 4.17117C16.2882 4.16671 16.7925 4.31659 17.9193 3.63306C17.6408 5.00004 17.5025 5.59334 16.9078 6.40924C16.9078 12.7772 12.9935 15.8741 9.02168 16.6667C6.29859 17.2102 2.33839 16.3179 1.2041 15.1322C1.78196 15.0878 4.13241 14.835 5.49047 13.841C4.34129 13.0822 -0.232516 10.3901 2.77278 3.15535C4.184 4.80256 5.61465 5.92379 7.06473 6.51905C8.02924 6.91498 8.26616 6.90708 8.70859 6.96742Z" fill="#E3E3E3"/>
</svg>
