<svg width="20" height="20" viewBox="0 0 20 20" fill="none" xmlns="http://www.w3.org/2000/svg">
<path d="M11.1446 15.747L12.3548 15.7473L12.7533 17.1112L14.9238 15.7473H17.4827V4.49549H11.1446V15.747ZM12.4326 5.717H16.1948V14.5258H14.7515L13.3102 15.4317L13.0478 14.528L12.4328 14.526L12.4326 5.717ZM10.0746 9.64392H7.37136C7.46147 8.24247 7.48494 6.97576 7.48494 5.84445H10.1282C10.1282 5.84445 10.2298 4.67755 9.685 4.69079H5.11274C5.29296 4.01218 5.51946 3.3117 5.79061 2.5874C5.79061 2.5874 4.54681 2.5874 4.12323 3.70299C3.94797 4.16313 3.44073 5.93416 2.53734 7.74327C2.84156 7.71016 3.84794 7.68203 4.44066 6.59458C4.54978 6.29003 4.57045 6.2503 4.70603 5.84313H6.19733C6.19733 6.38603 6.13549 9.30242 6.11037 9.64175H3.41031C2.80353 9.64175 2.60629 10.8633 2.60629 10.8633H5.99447C5.76713 13.4422 4.54698 15.6154 2.33398 17.3335C3.39262 17.6361 4.44761 17.2855 4.9689 16.8214C4.9689 16.8214 6.15633 15.7406 6.80741 13.2396L9.59542 16.5986C9.59542 16.5986 10.0043 15.2079 9.53125 14.5303C9.13942 14.0688 8.08163 12.8205 7.6306 12.368L6.87503 12.9683C7.10038 12.2453 7.23595 11.5432 7.28175 10.8646H10.4668C10.4668 10.8646 10.4623 9.64392 10.0746 9.64392Z" fill="#E3E3E3"/>
</svg>
