<svg width="20" height="20" viewBox="0 0 20 20" fill="none" xmlns="http://www.w3.org/2000/svg">
<path d="M5.97663 2.29779L8.67866 4.99954H11.3212L14.024 2.29779C14.3495 1.97235 14.8771 1.97235 15.2025 2.29779C15.528 2.62323 15.528 3.15086 15.2025 3.47629L13.6787 4.99954L15.417 4.99999C17.0278 4.99999 18.3337 6.30582 18.3337 7.91665V14.5833C18.3337 16.1941 17.0278 17.5 15.417 17.5H4.58366C2.97283 17.5 1.66699 16.1941 1.66699 14.5833V7.91665C1.66699 6.30582 2.97283 4.99999 4.58366 4.99999L6.32116 4.99954L4.79813 3.47629C4.47269 3.15086 4.47269 2.62323 4.79813 2.29779C5.12356 1.97235 5.6512 1.97235 5.97663 2.29779ZM15.417 6.66665H4.58366C3.93391 6.66665 3.39995 7.16239 3.33938 7.79627L3.33366 7.91665V14.5833C3.33366 15.2331 3.8294 15.7671 4.46327 15.8276L4.58366 15.8333H15.417C16.0667 15.8333 16.6007 15.3376 16.6612 14.7037L16.667 14.5833V7.91665C16.667 7.22629 16.1073 6.66665 15.417 6.66665ZM6.66699 9.16664C7.12722 9.16664 7.50032 9.53973 7.50032 9.99998V11.6666C7.50032 12.1269 7.12722 12.5 6.66699 12.5C6.20676 12.5 5.83366 12.1269 5.83366 11.6666V9.99998C5.83366 9.53973 6.20676 9.16664 6.66699 9.16664ZM13.3337 9.16664C13.7939 9.16664 14.167 9.53973 14.167 9.99998V11.6666C14.167 12.1269 13.7939 12.5 13.3337 12.5C12.8734 12.5 12.5003 12.1269 12.5003 11.6666V9.99998C12.5003 9.53973 12.8734 9.16664 13.3337 9.16664Z" fill="#E3E3E3"/>
</svg>
