<svg width="20" height="20" viewBox="0 0 20 20" fill="none" xmlns="http://www.w3.org/2000/svg">
<path d="M15.1331 8.33342C14.4467 6.39142 12.5946 5.00007 10.4176 5.00007C8.24055 5.00007 6.38848 6.39142 5.70209 8.33342H15.1331ZM5.4867 10.8334C5.88344 13.1982 7.94008 15.0001 10.4176 15.0001C12.2485 15.0001 13.8496 14.0159 14.7207 12.5478H17.4737C17.4675 12.5653 17.461 12.5827 17.4544 12.6001C16.3973 15.4607 13.6457 17.5001 10.4176 17.5001C9.25716 17.5001 8.15833 17.2366 7.17762 16.7661C4.89112 18.0085 2.91703 18.2657 1.82591 17.1755C0.70608 16.0578 1.30239 13.1323 2.92011 10.1973C3.4954 9.1535 4.19985 8.1085 5.00222 7.14316C5.30165 6.78291 5.61472 6.43376 5.9398 6.09989C5.71101 6.14616 4.37281 6.80956 3.09697 8.36208C3.1451 8.14602 3.20257 7.93343 3.2689 7.72482C4.23237 4.69503 7.06864 2.50007 10.4176 2.50007C10.6092 2.50007 10.799 2.50725 10.987 2.52136C13.5657 1.35239 15.9652 1.08282 16.9801 2.09554C17.9176 3.03163 17.8655 4.59176 17.0842 6.46393C17.0767 6.48206 17.0692 6.49993 17.0617 6.51753C17.6083 7.55819 17.9176 8.743 17.9176 10.0001C17.9176 10.2818 17.9021 10.5598 17.8718 10.8334H15.3484H5.4867ZM6.67194 16.4993C5.15041 15.6204 3.96626 14.2227 3.36142 12.5479C2.39425 14.4493 2.14515 16.0395 2.97105 16.8642C3.64814 17.5409 5.0023 17.3842 6.66897 16.5008L6.67194 16.4993ZM16.8108 6.07682C16.8152 6.06743 16.8195 6.05802 16.8238 6.04858C17.4488 4.69647 17.5009 3.55306 16.928 2.877C16.2037 2.15376 14.8112 2.2516 13.159 3.01691C14.6829 3.61564 15.9634 4.69881 16.8108 6.07682Z" fill="#E3E3E3"/>
</svg>
