<svg width="20" height="20" viewBox="0 0 20 20" fill="none" xmlns="http://www.w3.org/2000/svg">
<path d="M15.4792 11.4262C15.895 11.4262 16.2276 11.0728 16.2276 10.6778C16.2276 10.2621 15.895 9.92958 15.4792 9.92958C15.0636 9.92958 14.731 10.2621 14.731 10.6778C14.731 11.0936 15.0636 11.4262 15.4792 11.4262ZM11.7913 11.4262C12.2069 11.4262 12.5395 11.0728 12.5395 10.6778C12.5395 10.2621 12.2069 9.92958 11.7913 9.92958C11.3755 9.92958 11.0429 10.2621 11.0429 10.6778C11.0429 11.0936 11.3755 11.4262 11.7913 11.4262ZM17.264 15.6263C17.1617 15.6877 17.1002 15.7902 17.1207 15.9335C17.1207 15.9744 17.1207 16.0154 17.1412 16.0563C17.2231 16.4045 17.3867 16.9575 17.3867 16.978C17.3867 17.0394 17.4072 17.0803 17.4072 17.1213C17.4072 17.2238 17.3254 17.3057 17.2231 17.3057C17.1821 17.3057 17.1617 17.2852 17.1207 17.2647L15.9132 16.5683C15.8313 16.5274 15.729 16.4864 15.6267 16.4864C15.5653 16.4864 15.5039 16.4864 15.463 16.5069C14.8899 16.6707 14.2964 16.7527 13.662 16.7527C10.6125 16.7527 8.15662 14.7047 8.15662 12.1652C8.15662 9.62575 10.6125 7.57774 13.662 7.57774C16.7114 7.57774 19.1673 9.62575 19.1673 12.1652C19.1673 13.5373 18.4305 14.7866 17.264 15.6263ZM13.8946 6.74798C13.8173 6.74561 13.7398 6.74441 13.662 6.74441C10.1831 6.74441 7.32329 9.128 7.32329 12.1652C7.32329 12.6266 7.38928 13.0728 7.51338 13.4979H7.43909C6.70063 13.4979 5.96218 13.3752 5.28525 13.1913C5.22372 13.1708 5.16218 13.1708 5.10064 13.1708C4.97756 13.1708 4.85448 13.2118 4.75192 13.2731L3.29552 14.1112C3.25449 14.1317 3.21346 14.1521 3.17243 14.1521C3.04936 14.1521 2.9468 14.0499 2.9468 13.9272C2.9468 13.8659 2.96731 13.825 2.98783 13.7637C3.00833 13.7432 3.19295 13.0687 3.29552 12.6598C3.29552 12.6189 3.31603 12.5576 3.31603 12.5167C3.31603 12.3532 3.23398 12.2305 3.13141 12.1487C1.71603 11.1471 0.833984 9.65483 0.833984 7.99897C0.833984 4.95307 3.80833 2.5 7.45961 2.5C10.5962 2.5 13.2333 4.30713 13.8946 6.74798ZM9.59975 7.0967C10.0771 7.0967 10.455 6.69893 10.455 6.2415C10.455 5.76417 10.0771 5.3863 9.59975 5.3863C9.12242 5.3863 8.74458 5.76417 8.74458 6.2415C8.74458 6.71882 9.12242 7.0967 9.59975 7.0967ZM5.21688 7.0967C5.6942 7.0967 6.07208 6.69893 6.07208 6.2415C6.07208 5.76417 5.6942 5.3863 5.21688 5.3863C4.73956 5.3863 4.36168 5.76417 4.36168 6.2415C4.36168 6.71882 4.73956 7.0967 5.21688 7.0967Z" fill="#E3E3E3"/>
</svg>
