<svg width="20" height="20" viewBox="0 0 20 20" fill="none" xmlns="http://www.w3.org/2000/svg">
<path d="M16.0862 4.44767C14.9453 3.9259 13.7338 3.54562 12.4691 3.33337C12.3099 3.60753 12.133 3.97897 12.0092 4.27081C10.6641 4.07624 9.32867 4.07624 8.00212 4.27081C7.87831 3.97897 7.69258 3.60753 7.54223 3.33337C6.26876 3.54562 5.05717 3.9259 3.92429 4.44767C1.63377 7.82597 1.01472 11.1246 1.32425 14.3791C2.84536 15.4846 4.31343 16.1567 5.75584 16.599C6.10959 16.1214 6.42797 15.6084 6.70212 15.069C6.18034 14.8744 5.68509 14.6356 5.20753 14.3526C5.33135 14.2642 5.45517 14.167 5.57013 14.0696C8.45317 15.3874 11.5759 15.3874 14.4235 14.0696C14.5473 14.167 14.6623 14.2642 14.7862 14.3526C14.3086 14.6356 13.8133 14.8744 13.2916 15.069C13.5658 15.6084 13.8841 16.1214 14.2378 16.599C15.6793 16.1567 17.1562 15.4846 18.6694 14.3791C19.0497 10.6118 18.0672 7.3396 16.0862 4.44767ZM7.10008 12.3716C6.23339 12.3716 5.52589 11.5845 5.52589 10.6206C5.52589 9.65662 6.2157 8.86954 7.10008 8.86954C7.97559 8.86954 8.69192 9.65662 8.67425 10.6206C8.67425 11.5845 7.97559 12.3716 7.10008 12.3716ZM12.9113 12.3716C12.0446 12.3716 11.3362 11.5845 11.3362 10.6206C11.3362 9.65662 12.0269 8.86954 12.9113 8.86954C13.7868 8.86954 14.5032 9.65662 14.4854 10.6206C14.4854 11.5845 13.7957 12.3716 12.9113 12.3716Z" fill="#E3E3E3"/>
</svg>
