<svg width="20" height="20" viewBox="0 0 20 20" fill="none" xmlns="http://www.w3.org/2000/svg">
<path d="M9.99967 4.05005C7.35523 4.05005 5.70245 5.37227 5.04134 8.01672C6.03301 6.69449 7.18995 6.19866 8.51217 6.52922C9.26667 6.71763 9.8055 7.2647 10.4029 7.87127C11.3756 8.85797 12.5003 10.0001 14.958 10.0001C17.6024 10.0001 19.2552 8.67781 19.9163 6.03337C18.9247 7.3556 17.7677 7.85143 16.4455 7.52088C15.691 7.33247 15.1522 6.78539 14.5547 6.17882C13.5829 5.19212 12.4582 4.05005 9.99967 4.05005ZM5.04134 10.0001C2.3969 10.0001 0.744119 11.3223 0.0830078 13.9667C1.07467 12.6445 2.23162 12.1486 3.55384 12.4792C4.30833 12.6676 4.84714 13.2147 5.44462 13.8213C6.41727 14.808 7.54199 15.9501 9.99967 15.9501C12.6441 15.9501 14.2969 14.6278 14.958 11.9834C13.9663 13.3056 12.8094 13.8015 11.4872 13.4709C10.7327 13.2825 10.1938 12.7354 9.59642 12.1288C8.62458 11.1421 7.49985 10.0001 5.04134 10.0001Z" fill="#E3E3E3"/>
</svg>
