<svg width="20" height="20" viewBox="0 0 20 20" fill="none" xmlns="http://www.w3.org/2000/svg">
<path d="M4.85579 4.85669C4.56955 5.1474 4.38044 5.55582 4.27652 6.33227C4.16897 7.13581 4.16721 8.20106 4.16721 9.73338V10.2667C4.16721 11.7968 4.16897 12.861 4.27652 13.6645C4.38042 14.4409 4.56962 14.8515 4.85719 15.1448C5.1479 15.431 5.55632 15.6202 6.33276 15.7241C7.1363 15.8316 8.20155 15.8334 9.73391 15.8334H10.2672C11.7972 15.8334 12.8615 15.8316 13.665 15.7241C14.4413 15.6202 14.8519 15.431 15.1453 15.1434C15.4316 14.8527 15.6207 14.4443 15.7246 13.6679C15.8322 12.8643 15.8339 11.799 15.8339 10.2667V9.73338C15.8339 8.20332 15.8322 7.13916 15.7246 6.33561C15.6207 5.55926 15.4315 5.14868 15.1439 4.85529C14.8532 4.56905 14.4447 4.37995 13.6683 4.27602C12.8648 4.16848 11.7996 4.16673 10.2672 4.16673H9.73391C8.20381 4.16673 7.13964 4.16848 6.3361 4.27602C5.55976 4.37993 5.14919 4.56913 4.85579 4.85669ZM9.73391 2.50006H10.2672C11.4708 2.50006 12.6934 2.46401 13.8894 2.62409C14.8532 2.75308 15.6691 3.02954 16.3203 3.67468L16.3273 3.68163C16.9712 4.33466 17.2475 5.15062 17.3765 6.11451C17.5365 7.30948 17.5006 8.53087 17.5006 9.73338V10.2667C17.5006 11.4704 17.5366 12.6929 17.3765 13.889C17.2475 14.8527 16.9711 15.6685 16.3259 16.3199L16.319 16.3269C15.6659 16.9707 14.85 17.247 13.8861 17.376C12.6912 17.536 11.4697 17.5 10.2672 17.5H9.73391C8.53024 17.5 7.30771 17.5361 6.11166 17.376C5.14791 17.247 4.33205 16.9705 3.68076 16.3255L3.67375 16.3185C3.02992 15.6655 2.75359 14.8495 2.62458 13.8856C2.46464 12.6906 2.50055 11.4693 2.50055 10.2667V9.73338C2.50055 8.52979 2.46449 7.30723 2.62458 6.11117C2.75357 5.14742 3.03002 4.33156 3.67517 3.68027L3.68211 3.67327C4.33515 3.02943 5.15111 2.7531 6.115 2.62409C7.30996 2.46416 8.53132 2.50006 9.73391 2.50006ZM5.03066 7.0652C5.11066 10.9652 7.06066 13.3052 10.4807 13.3052H10.4857H10.6807V11.0752C11.9357 11.2002 12.8857 12.1202 13.2657 13.3052H15.0407C14.8586 12.6319 14.5358 12.0047 14.0937 11.4652C13.6516 10.9257 13.1002 10.486 12.4757 10.1752C13.0352 9.83446 13.5185 9.38196 13.8953 8.84596C14.2722 8.31 14.5344 7.70208 14.6657 7.0602H13.0557C12.7057 8.3002 11.6657 9.42521 10.6807 9.53021V7.0652H9.06566V11.3852C8.06566 11.1352 6.80566 9.92521 6.75066 7.0652H5.03066Z" fill="#E3E3E3"/>
</svg>
