<svg width="20" height="20" viewBox="0 0 20 20" fill="none" xmlns="http://www.w3.org/2000/svg">
<path d="M13.0321 3.80507L13.0785 3.83161C12.4473 4.16528 10.6423 5.23925 10.6423 6.6081C10.6423 7.0697 10.9065 7.5153 11.154 7.93295C11.3723 8.30134 11.5778 8.64803 11.5778 8.9647C11.5778 9.76286 10.8002 10.381 10.361 10.6665L10.2775 10.6183C10.4437 10.4157 10.6477 10.0768 10.6477 9.71528C10.6477 9.21678 10.3923 8.81861 10.1328 8.41411C9.86491 7.99641 9.59249 7.57188 9.59249 7.02288C9.59249 5.11228 12.1886 4.08757 13.0321 3.80507ZM9.61982 4.81543C10.6635 3.88191 11.8041 2.86158 11.8041 1.32742C11.8041 0.633116 11.5202 0.189963 11.3792 0.0126953L11.3341 0.0386575C11.3686 0.176435 11.4179 0.431702 11.4179 0.764785C11.4179 2.1614 10.2332 3.14058 9.08616 4.08858C8.00989 4.97807 6.96688 5.84011 6.96688 6.99376C6.96688 8.64736 8.59882 9.66528 9.28757 10.0949C9.30591 10.1063 9.32358 10.1173 9.34049 10.1279L9.38258 10.1036C9.34491 10.0629 9.30507 10.0205 9.26357 9.97636C8.73374 9.4127 7.92893 8.55645 7.92893 7.24771C7.92893 6.328 8.73991 5.60257 9.61982 4.81543ZM9.24266 13.0714C10.7131 13.0714 11.7413 12.8607 12.1978 12.7314L12.8914 13.1319C12.2305 13.4673 10.7653 13.7233 9.23982 13.7233C7.44537 13.7233 5.48393 13.338 5.47753 12.8251C5.47382 12.5424 6.11574 12.3537 6.80674 12.2315L6.84837 12.2557C6.84837 12.2557 6.61442 12.34 6.61685 12.5335C6.62052 12.8244 7.79962 13.0714 9.24266 13.0714ZM6.30235 14.8809C6.30235 14.5413 7.00077 14.3809 7.32123 14.3171L7.36283 14.3412C7.30775 14.3822 7.27818 14.4383 7.27818 14.4856C7.27818 14.7084 8.0526 14.912 9.24124 14.912C10.3062 14.912 10.8977 14.7806 11.2487 14.6969L12.0741 15.1745C12.0373 15.2009 11.2242 15.7117 9.23924 15.7117C7.79664 15.7117 6.30235 15.3514 6.30235 14.8809ZM13.4093 13.4408C14.3931 12.8803 15.3773 12.2169 15.4328 11.1516C15.4693 10.4528 14.8273 9.9397 14.1247 10.0772L14.162 9.98345L14.1625 9.98178C14.339 9.92803 14.5566 9.88486 14.8012 9.88486C15.5867 9.88486 16.1892 10.3559 16.2663 11.0151C16.4212 12.3369 14.5482 13.1969 13.4985 13.4922L13.4093 13.4408ZM15.055 15.9306C15.0629 16.8389 11.9734 17.3794 9.21207 17.4034C6.82779 17.4244 2.98357 16.9738 2.9756 16.0663C2.97007 15.4385 4.64276 15.0038 5.55055 14.8788L5.64626 14.9334C5.64626 14.9334 4.2916 15.2472 4.29658 15.8181C4.30157 16.3875 7.15062 16.8803 9.20741 16.8624C12.395 16.8345 14.5526 16.3147 14.8078 15.6109L14.8532 15.585C14.9463 15.6532 15.0536 15.7659 15.055 15.9306ZM5.35976 17.7813C6.48715 17.9708 7.82733 18.0616 8.92491 18.0519C14.0987 18.0068 15.5581 16.7347 15.7842 16.4587L15.8232 16.4814C15.7692 17.4884 13.0337 18.325 9.65982 18.3545C7.9418 18.3694 6.37835 18.1706 5.25536 17.8414L5.35976 17.7813ZM7.52748 10.0451C6.62863 10.1143 4.69814 10.3998 4.69814 10.9087C4.69814 11.293 6.46769 11.8357 9.24091 11.8357C11.7362 11.8357 13.3114 11.3648 13.6783 11.1851L13.1426 10.8734C12.7596 10.9779 11.3356 11.2949 9.24082 11.2949C8.00743 11.2949 5.88262 11.0675 5.88262 10.7205C5.88262 10.4086 7.20902 10.168 7.58957 10.0989C7.59793 10.0974 7.60584 10.096 7.61327 10.0946L7.52748 10.0451Z" fill="#E3E3E3"/>
</svg>
