<svg width="20" height="20" viewBox="0 0 20 20" fill="none" xmlns="http://www.w3.org/2000/svg">
<path d="M9.58767 2.53572C9.724 2.29884 9.9765 2.15283 10.2498 2.15283C11.5388 2.15283 12.8252 2.19332 14.1138 2.28039C16.205 2.42331 17.1981 3.60641 17.5972 4.30626C18.0942 4.38272 18.7543 4.37942 18.9068 4.97817C19.0238 5.43794 18.7259 5.67257 18.4447 5.93499C18.0421 6.31062 17.5011 6.9151 17.6498 7.50817C17.6961 7.69293 17.7823 7.8726 17.9131 8.14564L17.9144 8.14852C18.1801 8.70416 18.4848 9.40658 18.5329 10.7442C18.663 14.3612 15.5365 16.4912 12.4899 16.6433C10.4809 18.1567 7.20225 19.1647 2.0254 18.2747C1.69625 18.2182 1.39375 17.9957 1.23785 17.6843C1.15171 17.5122 1.10461 17.3007 1.13746 17.0712C1.17028 16.8421 1.27551 16.6454 1.41319 16.4887C4.10353 13.4257 6.94199 10.4499 9.458 7.24024C9.89659 6.68085 10.2587 6.17376 10.4173 5.867C10.6738 5.10093 10.4092 4.66342 9.8955 3.81414C9.66034 3.42529 9.32109 2.99912 9.58767 2.53572ZM11.2447 7.40521C11.9733 7.40947 12.7872 7.61227 13.6488 8.13445C15.4189 9.20742 15.5943 11.4644 15.0032 13.2652C14.8665 13.6815 14.6433 14.1802 14.3062 14.7038C15.9197 14.0401 17.0721 12.6341 17.0061 10.7991C16.9678 9.73242 16.7426 9.2395 16.5366 8.80858C16.5287 8.792 16.5205 8.77508 16.5121 8.75767C16.4013 8.52733 16.253 8.21927 16.1679 7.87979C15.9423 6.97989 16.314 6.18063 16.6796 5.64863C16.5298 5.55537 16.4139 5.41127 16.3571 5.23749C16.3571 5.23749 16.3573 5.2382 16.3566 5.23644C16.3464 5.21037 16.2078 4.87704 15.8748 4.55587C15.5349 4.22813 14.9626 3.86979 14.0104 3.80467C13.2082 3.75047 12.4059 3.71478 11.6024 3.69615C11.9788 4.42848 12.2343 5.31391 11.8429 6.41909C11.7173 6.77396 11.4603 7.10196 11.2447 7.40521ZM10.5514 9.02567C9.9525 9.19433 9.54009 9.55033 9.40292 9.70467C7.13911 12.2522 4.50197 15.279 3.08949 16.8937C7.63085 17.5169 10.2575 16.485 11.7378 15.2927C12.8176 14.4232 13.3423 13.4264 13.5516 12.7887C13.9136 11.6862 13.9989 10.1332 12.8568 9.441C11.8958 8.8585 11.1169 8.86633 10.5514 9.02567Z" fill="#E3E3E3"/>
</svg>
