<svg width="20" height="20" viewBox="0 0 20 20" fill="none" xmlns="http://www.w3.org/2000/svg">
<path d="M17.479 13.4696C17.241 14.2121 16.8328 14.5833 16.2543 14.5833C15.5231 14.5833 14.8042 14.1446 14.0978 13.2672C13.6072 12.6578 12.9192 11.4997 12.0337 9.79292C11.6537 9.06025 11.3012 8.41325 10.9765 7.85187C11.2344 7.44477 11.4645 7.11814 11.6668 6.87201C12.4645 5.90178 13.2992 5.41667 14.171 5.41667C14.8667 5.41667 15.5295 5.8632 16.1592 6.75627C16.8064 7.67413 17.2598 8.80783 17.5193 10.1573C17.7747 11.485 17.7612 12.5891 17.479 13.4696ZM10.0044 9.52467C10.1794 9.84592 10.3627 10.1912 10.5542 10.5604C11.4909 12.3658 12.2394 13.6164 12.7996 14.3123C13.8396 15.6041 14.9912 16.25 16.2543 16.25C16.9677 16.25 17.5779 16.0247 18.0852 15.5743C18.5226 15.1861 18.8496 14.6541 19.0662 13.9783C19.435 12.8276 19.465 11.449 19.156 9.84267C18.8513 8.25815 18.3064 6.90921 17.5213 5.79581C16.5597 4.43193 15.4428 3.75 14.171 3.75C12.7743 3.75 11.5104 4.43786 10.3794 5.81357C10.2613 5.95718 10.1363 6.12223 10.0044 6.30872C9.87249 6.12223 9.74749 5.95718 9.62932 5.81357C8.49832 4.43786 7.23451 3.75 5.83783 3.75C4.56599 3.75 3.44922 4.43194 2.48751 5.79582C1.70243 6.90921 1.15753 8.25814 0.852809 9.84267C0.54389 11.449 0.573847 12.8276 0.942684 13.9783C1.15928 14.6541 1.48623 15.1861 1.92356 15.5743C2.43093 16.0247 3.04124 16.25 3.75451 16.25C5.01772 16.25 6.16929 15.6041 7.20923 14.3123C7.76946 13.6164 8.51791 12.3658 9.45449 10.5605C9.64616 10.1912 9.82941 9.84592 10.0044 9.52467ZM9.03232 7.85188C8.70757 8.41325 8.35516 9.06025 7.97509 9.79292C7.08962 11.4997 6.40158 12.6578 5.91098 13.2672C5.20461 14.1446 4.48578 14.5833 3.75451 14.5833C3.17603 14.5833 2.76779 14.2121 2.52982 13.4696C2.24761 12.5891 2.23416 11.485 2.48948 10.1573C2.74902 8.80783 3.20239 7.67413 3.8496 6.75627C4.47933 5.8632 5.14208 5.41667 5.83783 5.41667C6.70958 5.41667 7.5443 5.90178 8.34199 6.87201C8.54432 7.11813 8.77441 7.44476 9.03232 7.85188Z" fill="#E3E3E3"/>
</svg>
