<svg width="20" height="20" viewBox="0 0 20 20" fill="none" xmlns="http://www.w3.org/2000/svg">
<path d="M0.833008 3.33337H19.1663V5.00004H0.833008V3.33337ZM0.833008 15H19.1663V16.6667H0.833008V15ZM16.3511 12.428L16.2063 11.703L14.5825 11.703L14.3246 12.4225L13.0226 12.4255C13.8593 10.4197 14.4803 8.93387 14.8853 7.96812C14.9912 7.71589 15.1793 7.58722 15.4565 7.5892C15.668 7.59077 16.0137 7.59097 16.4936 7.5898L17.4997 12.4257L16.3511 12.428ZM14.9477 10.7099H15.9943L15.6037 8.89296L14.9477 10.7099ZM6.5597 7.58805L7.86838 7.58974L5.8456 12.428L4.5208 12.4275C4.07288 10.702 3.74397 9.42279 3.53405 8.58971C3.46969 8.33421 3.34169 8.15587 3.09567 8.07152C2.8763 7.9963 2.51097 7.87999 1.99967 7.7226V7.5898C2.95566 7.58968 3.6525 7.58968 4.0902 7.5898C4.45217 7.58991 4.66317 7.76423 4.73105 8.12216C4.79919 8.48162 4.97133 9.39529 5.24747 10.8633L6.5597 7.58805ZM9.66584 7.58975L8.63201 12.4275L7.38663 12.4257C7.4112 12.3082 7.75536 10.6956 8.41909 7.58805L9.66584 7.58975ZM12.1919 7.50004C12.5641 7.50004 13.0334 7.61542 13.304 7.7226L13.0855 8.72554C12.8413 8.62771 12.44 8.49537 12.102 8.50054C11.6105 8.50812 11.3072 8.71387 11.3072 8.91137C11.3072 9.23196 11.8343 9.39337 12.377 9.74412C12.996 10.1441 13.0778 10.5025 13.0701 10.8928C13.0613 11.7019 12.377 12.5 10.933 12.5C10.2735 12.4902 10.0367 12.435 9.49926 12.2447L9.72618 11.198C10.2732 11.4267 10.5052 11.4993 10.9726 11.4993C11.401 11.4993 11.7688 11.3265 11.7719 11.0257C11.7742 10.8117 11.643 10.7059 11.1622 10.4411C10.6814 10.1765 10.0076 9.81054 10.0163 9.07412C10.0273 8.13188 10.9218 7.50004 12.1919 7.50004Z" fill="#E3E3E3"/>
</svg>
