<svg width="20" height="20" viewBox="0 0 20 20" fill="none" xmlns="http://www.w3.org/2000/svg">
<path d="M7.25894 5.30413C6.33672 6.39162 5.74089 8.00065 5.69922 9.80412V10.1958C5.74158 12 6.33672 13.6069 7.25894 14.6951C8.45407 16.2479 10.2305 17.2326 12.2166 17.2326C13.436 17.2326 14.5777 16.8597 15.5547 16.211C14.0839 17.5319 12.136 18.3333 10.0013 18.3333C9.86799 18.3333 9.73532 18.3305 9.60549 18.3235C5.18464 18.1173 1.66797 14.4694 1.66797 9.99996C1.66797 5.39648 5.39922 1.66663 10.0013 1.66663H10.0326C12.1541 1.67496 14.0881 2.47635 15.5555 3.78815C14.5777 3.14232 13.4367 2.76663 12.2152 2.76663C10.2305 2.76663 8.4534 3.75273 7.25685 5.30413H7.25894ZM18.3347 9.99996C18.3347 12.4694 17.2617 14.686 15.5555 16.2118C13.418 17.2535 11.4263 16.525 10.7666 16.0694C12.8659 15.6083 14.452 13.0694 14.452 9.99996C14.452 6.92913 12.8666 4.39232 10.7666 3.93052C11.4256 3.47635 13.418 2.74788 15.5555 3.78815C17.2617 5.31246 18.3347 7.53121 18.3347 9.99996Z" fill="#E3E3E3"/>
</svg>
