<svg width="20" height="20" viewBox="0 0 20 20" fill="none" xmlns="http://www.w3.org/2000/svg">
<path d="M3.56483 7.16009C5.87554 4.8515 8.56817 3.79905 9.58034 4.81331C10.028 5.26101 10.0705 6.03338 9.784 6.95639C9.6355 7.42108 10.2211 7.16433 10.2211 7.16433C12.0883 6.38348 13.718 6.33681 14.3121 7.18767C14.6283 7.63963 14.5985 8.27619 14.3058 9.0125C14.1699 9.352 14.346 9.405 14.6049 9.48141C15.6573 9.80816 16.8286 10.5954 16.8286 11.9852C16.8286 14.2874 13.5122 17.1838 8.52575 17.1838C4.72124 17.1838 0.833984 15.3399 0.833984 12.3077C0.833984 10.7227 1.83763 8.88941 3.56483 7.16009ZM13.6755 11.9449C13.4782 9.9525 10.8577 8.57958 7.82341 8.88091C4.78914 9.18008 2.48692 11.0388 2.68425 13.0313C2.88158 15.0258 5.50209 16.3966 8.53633 16.0974C11.5707 15.7961 13.8708 13.9373 13.6755 11.9449ZM5.13501 12.0319C5.76308 10.7587 7.39479 10.0395 8.83975 10.415C10.3336 10.8012 11.0953 12.2102 10.4863 13.5808C9.86675 14.9834 8.0844 15.7303 6.57364 15.2422C5.11378 14.7712 4.49633 13.3305 5.13501 12.0319ZM7.39692 12.5136C6.92799 12.3162 6.32114 12.5199 6.03044 12.974C5.73549 13.4302 5.87342 13.9755 6.34023 14.1877C6.8134 14.402 7.4436 14.1983 7.73642 13.7294C8.02499 13.2562 7.87222 12.7152 7.39692 12.5136ZM8.55334 12.0319C8.373 11.9619 8.14806 12.0467 8.04197 12.225C7.94012 12.4032 7.99741 12.6069 8.17777 12.6812C8.36025 12.7576 8.59575 12.6706 8.70184 12.4881C8.80375 12.3056 8.73792 12.0998 8.55334 12.0319ZM13.2978 2.43681C14.938 2.08882 16.7119 2.60022 17.9172 3.93273C19.1223 5.26526 19.4449 7.0837 18.9335 8.68575C18.8162 9.05333 18.4195 9.25633 18.0508 9.13558C17.6816 9.01458 17.48 8.61991 17.5988 8.25073C17.9638 7.11765 17.7337 5.82218 16.8774 4.87484C16.0202 3.92636 14.7598 3.56352 13.5928 3.81178C13.213 3.89257 12.8415 3.65003 12.7589 3.27071C12.6761 2.89089 12.918 2.5174 13.2978 2.43681ZM13.8198 4.87484C14.6177 4.70509 15.4833 4.95335 16.069 5.60264C16.6547 6.25193 16.8117 7.13887 16.5613 7.91547C16.4591 8.23229 16.1173 8.40758 15.7995 8.30377C15.4813 8.19981 15.3093 7.86031 15.4133 7.53991C15.5385 7.16009 15.46 6.72723 15.1736 6.40895C14.885 6.09279 14.4628 5.97184 14.0723 6.0546C13.7456 6.12674 13.4252 5.91667 13.3551 5.59203C13.2851 5.26526 13.4929 4.94438 13.8198 4.87484Z" fill="#E3E3E3"/>
</svg>
