<svg width="20" height="20" viewBox="0 0 20 20" fill="none" xmlns="http://www.w3.org/2000/svg">
<path d="M2.516 10.0062C2.4897 8.95646 2.50593 7.96646 2.50593 7.13866C2.50593 3.52302 4.87478 2.46327 4.87478 2.46327C6.06921 1.91468 8.11881 1.68404 10.2496 1.66663H10.3019C12.4327 1.68404 14.4836 1.91468 15.678 2.46327C15.678 2.46327 18.0468 3.52302 18.0468 7.13866C18.0468 7.13866 18.0765 9.80613 17.7165 11.6581C17.4878 12.8339 15.6697 14.1205 13.5813 14.3698C12.4923 14.4999 11.4203 14.6192 10.277 14.5668C8.40725 14.4812 6.93196 14.1205 6.93196 14.1205C6.93196 14.3025 6.94321 14.4759 6.96561 14.6379C7.03501 15.1648 7.21399 15.5503 7.4693 15.8333C8.10803 16.5414 9.2245 16.6084 10.2982 16.6452C11.8152 16.6971 13.1657 16.2711 13.1657 16.2711L13.2281 17.6426C13.2281 17.6426 12.1671 18.2123 10.277 18.317C9.23475 18.3744 7.94065 18.2909 6.43324 17.892C5.15685 17.5541 4.29311 16.817 3.70926 15.8333C2.79778 14.2977 2.56842 12.1615 2.516 10.0062ZM5.26529 14.1205V11.9972L7.3278 12.5015C7.36725 12.5111 7.45931 12.5319 7.5976 12.5602C7.83784 12.6094 8.11196 12.659 8.41341 12.7055C9.04058 12.8023 9.69525 12.8718 10.3532 12.9019C11.2022 12.9408 11.9376 12.8876 13.3837 12.7149C14.7696 12.5495 16.0068 11.7185 16.0804 11.3401C16.1487 10.9884 16.2062 10.5715 16.2519 10.105C16.3097 9.51704 16.3464 8.87979 16.3658 8.23386C16.3785 7.80851 16.382 7.44703 16.3805 7.18706L16.3802 7.13866C16.3802 5.94729 16.0729 5.10626 15.5775 4.50657C15.4175 4.3129 15.2505 4.16169 15.0907 4.04961C15.0154 3.99677 14.9782 3.97609 14.9824 3.97783C14.1387 3.59033 12.4051 3.35053 10.3019 3.33323H10.2632C8.1468 3.35053 6.41425 3.59026 5.55539 3.98463C5.57449 3.97609 5.53732 3.99677 5.46202 4.04961C5.30231 4.16169 5.13528 4.3129 4.9753 4.50657C4.4799 5.10626 4.1726 5.94729 4.1726 7.13866C4.1726 7.33129 4.17206 7.46945 4.1701 7.86777C4.16525 8.85313 4.16686 9.35463 4.18217 9.96571C4.22671 11.7966 4.402 13.1617 4.76514 14.1666C4.94202 14.6561 5.15854 15.059 5.41467 15.3755C5.31509 15.0135 5.26529 14.5951 5.26529 14.1205ZM6.7383 5.30942C7.26462 5.30942 7.6912 5.73599 7.6912 6.26231C7.6912 6.78851 7.26462 7.21521 6.7383 7.21521C6.2121 7.21521 5.78541 6.78851 5.78541 6.26231C5.78541 5.73599 6.2121 5.30942 6.7383 5.30942Z" fill="#E3E3E3"/>
</svg>
