<svg width="20" height="20" viewBox="0 0 20 20" fill="none" xmlns="http://www.w3.org/2000/svg">
<path d="M7.19221 6.46207C7.01324 6.6292 6.73819 6.64243 6.57384 6.64243H4.81484C4.3065 6.64243 4.00359 6.64242 3.79816 6.67028C3.68744 6.68421 3.55026 6.73992 3.48132 6.76777C3.45347 6.781 3.45347 6.76778 3.46739 6.75384L7.4805 2.63767C7.49443 2.62375 7.50835 2.62375 7.49443 2.6516C7.46657 2.72054 7.41226 2.85912 7.39833 2.96984C7.37048 3.17735 7.37048 3.48236 7.37048 3.99487V5.83813C7.37048 6.00526 7.35655 6.28241 7.19221 6.46207ZM11.0946 18.282C10.6281 17.977 10.3802 17.5752 10.2841 17.326C10.1852 17.0839 10.1339 16.825 10.1329 16.5635C10.1341 15.4097 11.0682 14.4743 12.222 14.4715C12.5653 14.4715 12.8404 14.7487 12.8404 15.0948C12.8419 15.3192 12.7206 15.5265 12.5242 15.6352C12.4553 15.677 12.3592 15.7048 12.2902 15.7188C12.222 15.7327 11.9609 15.7605 11.8376 15.8705C11.6997 15.982 11.5897 16.1616 11.5897 16.356C11.5897 16.5635 11.6719 16.7577 11.8097 16.8963C12.057 17.1456 12.3871 17.2841 12.7442 17.2841C13.1944 17.2825 13.6254 17.102 13.9424 16.7824C14.2594 16.4628 14.4364 16.0303 14.4343 15.5802C14.4343 14.7348 13.871 13.9862 13.1287 13.654C13.0187 13.5984 12.8404 13.5565 12.6753 13.5148C12.5388 13.4867 12.4013 13.4637 12.2631 13.4459C11.6858 13.3762 10.243 12.9194 10.1462 11.6311C10.1462 11.6311 9.72065 13.5705 8.86832 14.097C8.78615 14.1387 8.67615 14.1805 8.55224 14.2084C8.4289 14.2362 8.29176 14.2501 8.24998 14.2501C6.86214 14.333 5.39143 13.8895 4.37474 12.8365C4.37474 12.8365 3.68744 12.2683 3.33021 10.675C3.24804 10.2865 3.083 9.59363 2.9869 8.94246C2.94513 8.70713 2.93119 8.52679 2.91797 8.36038C2.91797 7.68139 3.33021 7.22458 3.85248 7.15564H6.65601C7.1365 7.15564 7.41226 7.0303 7.59053 6.86387C7.8245 6.64243 7.87951 6.3235 7.87951 5.94955V3.10842V3.02624C7.94706 2.51302 8.40182 2.08337 9.07449 2.08337H9.40457C9.54174 2.08337 9.70674 2.0973 9.8579 2.11123C9.9679 2.12516 10.064 2.15301 10.229 2.19479C11.0674 2.40231 11.2457 3.26161 11.2457 3.26161C11.2457 3.26161 12.8264 3.53876 13.6237 3.67734C14.3793 3.81592 16.2491 3.94056 16.6056 5.83883C17.444 10.3561 16.9357 14.7348 16.8946 14.7348C16.3033 19.0028 12.7853 18.7945 12.7853 18.7945C12.1817 18.8068 11.5898 18.6274 11.0946 18.282ZM13.2797 9.69104C13.2519 9.76071 13.2247 9.84354 13.2387 9.88471C13.2526 9.92646 13.2805 9.94038 13.3077 9.95429C13.4727 10.0379 13.747 10.079 14.1461 10.1207C14.5443 10.1625 14.8194 10.1904 14.9977 10.1625C15.0256 10.1625 15.0534 10.1486 15.0806 10.1068C15.1084 10.065 15.0945 9.98146 15.0945 9.91254C15.0527 9.53854 14.7094 9.26146 14.2561 9.20571C13.8021 9.16396 13.4177 9.34496 13.2797 9.69104Z" fill="#E3E3E3"/>
</svg>
