<svg width="20" height="20" viewBox="0 0 20 20" fill="none" xmlns="http://www.w3.org/2000/svg">
<path d="M6.24968 9.16663C7.17015 9.16663 7.91634 8.42046 7.91634 7.49996C7.91634 6.57948 7.17015 5.83329 6.24968 5.83329H2.49967V9.16663H6.24968ZM7.08301 10.8333H2.49967V14.1666H7.08301C8.00348 14.1666 8.74968 13.4205 8.74968 12.5C8.74968 11.5795 8.00348 10.8333 7.08301 10.8333ZM8.80234 9.64371C9.76959 10.2271 10.4163 11.288 10.4163 12.5C10.4163 14.3409 8.92393 15.8333 7.08301 15.8333H0.833008V4.16663H6.24968C8.09063 4.16663 9.58301 5.65901 9.58301 7.49996C9.58301 8.31633 9.28951 9.06413 8.80234 9.64371ZM12.9163 4.99996H17.4997V6.24996H12.9163V4.99996ZM19.1663 12.0833H12.9163V12.2916C12.9163 13.5573 13.9423 14.5833 15.208 14.5833C16.0986 14.5833 16.8705 14.0753 17.2498 13.3333H19.0278C18.5706 15.014 17.0336 16.25 15.208 16.25C13.0218 16.25 11.2497 14.4778 11.2497 12.2916V11.0416C11.2497 8.85546 13.0218 7.08329 15.208 7.08329C17.3942 7.08329 19.1663 8.85546 19.1663 11.0416V12.0833ZM17.4134 10.4166C17.1413 9.45471 16.257 8.74996 15.208 8.74996C14.159 8.74996 13.2747 9.45471 13.0026 10.4166H17.4134Z" fill="#E3E3E3"/>
</svg>
