<svg width="20" height="20" viewBox="0 0 20 20" fill="none" xmlns="http://www.w3.org/2000/svg">
<path d="M9.4909 1.66785L11.0002 1.6716L11.7033 1.68321C17.671 1.82041 18.3188 2.94334 18.3341 9.73921L18.3295 10.9992L18.3178 11.7024C18.1807 17.67 17.0577 18.3178 10.2618 18.333L9.00182 18.3285L8.26206 18.316C2.55062 18.1803 1.73894 17.1262 1.67258 10.9992L1.66797 9.7423L1.67258 9.0008L1.6846 8.2803C1.82187 2.40243 2.92319 1.69904 9.4909 1.66785ZM11.7675 3.34066L9.06957 3.33396L7.96798 3.34207C3.39389 3.41109 3.34768 4.02658 3.33515 9.51163L3.33598 11.324L3.34482 12.1913C3.4183 16.3429 4.00518 16.6435 8.67707 16.665L11.5561 16.6637L12.2029 16.656C16.4595 16.5797 16.6583 15.9587 16.6673 10.9252L16.6655 8.63955L16.6554 7.75991C16.5772 3.76303 16.0013 3.38543 11.7675 3.34066ZM6.87602 5.83337C10.9031 5.83337 14.1677 9.09796 14.1677 13.125V13.6111C14.1677 13.9181 13.9189 14.1667 13.6122 14.1667H10.5566C10.2498 14.1667 10.001 13.9181 10.001 13.6111V13.125C10.001 11.3991 8.6019 10 6.87602 10H6.38991C6.08314 10 5.83435 9.75146 5.83435 9.44446V6.38892C5.83435 6.08216 6.08314 5.83337 6.38991 5.83337H6.87602Z" fill="#E3E3E3"/>
</svg>
