<svg width="20" height="20" viewBox="0 0 20 20" fill="none" xmlns="http://www.w3.org/2000/svg">
<path d="M14.7207 14.7077L8.55049 6.66663H6.66699V13.3333H8.33366V9.12179L13.4061 15.7323C12.4092 16.3257 11.2446 16.6666 10.0003 16.6666C6.31842 16.6666 3.33366 13.6819 3.33366 9.99996C3.33366 6.31806 6.31842 3.33329 10.0003 3.33329C13.6822 3.33329 16.667 6.31806 16.667 9.99996C16.667 11.8377 15.9234 13.5018 14.7207 14.7077ZM10.0003 18.3333C14.6027 18.3333 18.3337 14.6023 18.3337 9.99996C18.3337 5.39758 14.6027 1.66663 10.0003 1.66663C5.39795 1.66663 1.66699 5.39758 1.66699 9.99996C1.66699 14.6023 5.39795 18.3333 10.0003 18.3333ZM11.667 9.99996V6.66663H13.3337V9.99996H11.667Z" fill="#E3E3E3"/>
</svg>
