<svg width="20" height="20" viewBox="0 0 20 20" fill="none" xmlns="http://www.w3.org/2000/svg">
<path d="M15.9293 16.6666C15.9293 15.7798 15.9293 14.9674 15.7943 13.2343C15.6273 11.4932 14.7208 10.6107 13.1703 10.3006C15.0071 10.0621 16.3668 8.63113 16.3668 6.43682C16.3668 3.50316 14.4346 1.66663 10.5462 1.66663H3.33301V4.72403H9.83051C11.5481 4.72403 12.4069 5.46115 12.4069 6.67754C12.4069 8.06091 11.5481 8.58338 9.83051 8.58338H3.33301V11.7079H9.63967C10.9994 11.7079 11.7389 12.0895 11.8582 13.8068C11.9484 14.9796 11.9372 15.5605 11.9263 16.1175V16.1198C11.9228 16.2982 11.9193 16.4743 11.9193 16.6666H15.9293ZM3.33301 14.3371V16.6663H8.43484V15.1756C8.43484 14.8624 8.28107 14.3371 7.57287 14.3371H3.33301Z" fill="#E3E3E3"/>
</svg>
