<svg width="20" height="20" viewBox="0 0 20 20" fill="none" xmlns="http://www.w3.org/2000/svg">
<path d="M17.8523 12.798C14.6611 11.8373 12.8059 11.2646 12.287 11.08C12.7603 10.2666 13.1403 9.33329 13.387 8.31329H10.667V7.39329H14.0003V6.82663H10.667V5.28663H9.38699C9.15366 5.28663 9.12699 5.49329 9.12699 5.49329V6.81996H6.00032V7.38663H9.12699V8.30663H6.56699V8.81996H11.7537C11.567 9.46662 11.3137 10.08 11.0137 10.6333C9.84032 10.2466 9.18699 9.97996 7.75366 9.84662C5.04032 9.58662 4.41366 11.08 4.31366 11.9933C4.16699 13.3866 5.40032 14.52 7.24032 14.52C9.08032 14.52 10.307 13.6666 11.4737 12.2533C12.4458 12.7182 14.2552 13.5244 16.9019 14.6718C15.4032 16.8814 12.8713 18.3333 10.0003 18.3333C5.39795 18.3333 1.66699 14.6023 1.66699 9.99996C1.66699 5.39758 5.39795 1.66663 10.0003 1.66663C14.6027 1.66663 18.3337 5.39758 18.3337 9.99996C18.3337 10.9815 18.164 11.9234 17.8523 12.798ZM7.02699 13.64C5.08033 13.64 4.77366 12.4066 4.87366 11.8933C4.97366 11.38 5.54032 10.7133 6.62699 10.7133C7.87366 10.7133 8.98699 11.0333 10.327 11.68C9.38032 12.9133 8.22699 13.64 7.02699 13.64Z" fill="#E3E3E3"/>
</svg>
