<svg width="20" height="20" viewBox="0 0 20 20" fill="none" xmlns="http://www.w3.org/2000/svg">
<path d="M9.01641 7.02214C8.38383 6.11849 8.14526 5.46263 8.09348 4.98538C8.04458 4.5346 8.15468 4.17747 8.37308 3.83276C8.60891 3.46039 8.96282 3.11408 9.41316 2.70538C9.83399 2.32338 10.3606 1.86951 10.7737 1.35535L9.47449 0.311401C9.12799 0.742632 8.70141 1.10055 8.29298 1.47126C7.84793 1.87522 7.33553 2.35609 6.9651 2.94087C6.57713 3.55331 6.34088 4.28333 6.43654 5.16513C6.52933 6.02047 6.92627 6.94264 7.65103 7.97794L9.01641 7.02214ZM10.0579 4.49724C10.2952 3.92764 10.7764 3.35634 11.5413 2.70066L12.626 3.96609C11.9326 4.56041 11.6846 4.92661 11.5964 5.13826C11.5097 5.34634 11.5672 5.55416 11.6255 5.76101C11.6951 6.00759 11.811 6.41861 11.8036 6.86289C11.7938 7.45071 11.5923 8.07269 11.1104 8.7956L9.72358 7.87113C10.075 7.34406 10.1339 7.02854 10.1372 6.83511C10.1412 6.58919 10.0771 6.45124 9.97316 6.03549C9.87349 5.63691 9.79808 5.1209 10.0579 4.49724ZM5.1187 8.33323C5.50972 8.07149 5.99338 7.9384 6.44522 7.82971L6.05543 6.20927C5.37794 6.37224 4.76258 6.5932 4.29543 6.88151C3.87039 7.14384 3.33366 7.61319 3.33366 8.33329C3.33366 8.93852 3.73843 9.42169 4.22157 9.7381C4.18617 9.8906 4.16699 10.0497 4.16699 10.2147C4.16699 11.0317 4.51537 11.7205 5.11928 12.2322C5.03059 12.4814 4.99042 12.7599 5.00308 13.0388C4.35522 13.1644 3.72281 13.3494 3.19478 13.5914C2.83438 13.7566 2.47957 13.9677 2.20286 14.2395C1.92429 14.5131 1.66699 14.9094 1.66699 15.4167C1.66699 15.7725 1.82418 16.0598 1.97851 16.2578C2.13604 16.4599 2.33858 16.6322 2.54875 16.7782C2.97057 17.0712 3.53565 17.3357 4.18091 17.5585C5.47953 18.007 7.23853 18.3334 9.16699 18.3334C11.9397 18.3334 13.8859 18.0134 15.1586 17.6814C15.7948 17.5154 16.2617 17.3467 16.5787 17.214C16.7533 17.1409 16.9287 17.0633 17.0922 16.9668C17.1011 16.9614 16.2351 15.5374 16.239 15.535C15.7683 15.7801 15.2489 15.9354 14.7379 16.0687C13.6147 16.3617 11.8109 16.6667 9.16699 16.6667C7.41355 16.6667 5.83923 16.368 4.72499 15.9832C4.28233 15.8304 3.81863 15.6515 3.44111 15.3671C3.53726 15.291 3.68342 15.2009 3.8892 15.1065C4.35418 14.8934 4.99164 14.7186 5.67205 14.6139C5.86295 14.8164 6.09093 14.995 6.35127 15.1469C7.15567 15.6162 8.26089 15.8334 9.58366 15.8334C10.6753 15.8334 11.4652 15.7235 11.9988 15.6053C12.295 15.5397 12.5934 15.4656 12.8672 15.3316C12.8698 15.3304 12.1327 13.8355 12.1327 13.8355C11.9712 13.8946 11.8064 13.9409 11.6384 13.9781C11.2316 14.0682 10.5631 14.1667 9.58366 14.1667C8.40641 14.1667 7.63665 13.9672 7.19105 13.7073C6.83656 13.5005 6.7004 13.2712 6.6726 13.0213C7.39585 13.2319 8.25228 13.3334 9.21908 13.3334C10.4387 13.3334 11.3182 13.2138 11.9093 13.0861C12.2307 13.0167 12.5557 12.9368 12.8549 12.7972C12.8718 12.7891 12.1402 11.2915 12.1402 11.2915C12.0945 11.3102 11.908 11.3813 11.5575 11.4569C11.0905 11.5579 10.3294 11.6667 9.21908 11.6667C7.88312 11.6667 6.99288 11.4464 6.46702 11.1473C6.07453 10.924 5.90223 10.6741 5.851 10.4059C6.88406 10.6779 8.18775 10.8333 9.58366 10.8333C11.0976 10.8333 12.5017 10.6505 13.5697 10.3352L13.0977 8.73677C12.2192 8.99619 10.9805 9.1666 9.58366 9.1666C8.1472 9.1666 6.8795 8.98635 5.99857 8.71535C5.58273 8.58735 5.29378 8.45144 5.1187 8.33323ZM14.6591 8.95477C15.6694 8.86294 16.0417 9.11169 16.1619 9.24044C16.2862 9.3736 16.3297 9.58002 16.2752 9.79777C16.1784 10.1849 15.9063 10.5604 15.4642 10.9053C15.0237 11.249 14.4639 11.5222 13.9036 11.7089L14.4304 13.2901C15.1201 13.0603 15.8623 12.7087 16.4895 12.2193C17.1152 11.7311 17.6764 11.065 17.8921 10.202C18.0459 9.5866 17.9852 8.75135 17.3804 8.10324C16.7713 7.45069 15.7896 7.17849 14.5082 7.29499L14.6591 8.95477Z" fill="#E3E3E3"/>
</svg>
