<svg width="20" height="20" viewBox="0 0 20 20" fill="none" xmlns="http://www.w3.org/2000/svg">
<path d="M9.15801 1.64526C11.5908 0.0953023 14.9555 0.818024 16.6591 3.25631C17.0634 3.82218 17.3514 4.46312 17.5047 5.14149C17.6578 5.81986 17.674 6.52201 17.5522 7.20672C17.4342 7.86052 17.1848 8.48367 16.8193 9.03842C17.3525 10.0559 17.5313 11.2222 17.3272 12.3526C17.2068 13.0238 16.9477 13.6625 16.5664 14.2278C16.1851 14.7932 15.69 15.2728 15.1128 15.6358L10.8402 18.3589C8.40776 19.9094 5.04282 19.1865 3.33922 16.7479C2.93502 16.182 2.64787 15.5411 2.49463 14.8627C2.34138 14.1843 2.32512 13.4823 2.44679 12.7975C2.56491 12.1436 2.81439 11.5204 3.18016 10.9656C2.64645 9.94833 2.46729 8.78217 2.67105 7.65162C2.79156 6.98035 3.05084 6.34162 3.43231 5.77627C3.81378 5.21092 4.30902 4.73142 4.88639 4.36841L9.15801 1.64526ZM6.70711 16.8748C7.35851 17.1163 8.06832 17.1521 8.74067 16.9773C9.04784 16.8952 9.34068 16.7665 9.60884 16.5958L13.8818 13.8736C14.2289 13.6552 14.5266 13.3668 14.7559 13.0268C14.9853 12.6868 15.1411 12.3027 15.2136 11.8991C15.2868 11.4873 15.2769 11.0652 15.1848 10.6573C15.0926 10.2494 14.9199 9.86408 14.6768 9.52383C14.2808 8.953 13.7193 8.5175 13.0678 8.27601C12.4165 8.03454 11.7067 7.99878 11.0343 8.17357C10.7272 8.25554 10.4343 8.38417 10.1662 8.55492L8.53592 9.59375C8.45492 9.64508 8.36651 9.68375 8.27384 9.70842C8.0712 9.761 7.85731 9.75008 7.66105 9.67725C7.46478 9.60442 7.2956 9.47308 7.17633 9.30108C7.10316 9.19842 7.05119 9.08217 7.02347 8.95925C6.99573 8.83625 6.99279 8.709 7.01481 8.58492C7.03665 8.46333 7.08361 8.34767 7.15268 8.24528C7.22176 8.14288 7.31143 8.05603 7.41597 7.99027L11.6896 5.26662C11.7706 5.21527 11.859 5.17661 11.9517 5.15196C12.1543 5.09928 12.3682 5.11007 12.5644 5.18287C12.7608 5.25567 12.9299 5.38697 13.0492 5.55902C13.1797 5.74384 13.2408 5.96883 13.2215 6.19427L13.2068 6.35284L13.3657 6.401C13.9661 6.58228 14.5312 6.86482 15.0365 7.23642L15.2553 7.39679L15.3358 7.15107C15.3788 7.0206 15.413 6.88733 15.438 6.7522C15.5111 6.34049 15.5013 5.91832 15.4091 5.51046C15.3169 5.10259 15.1443 4.71723 14.9012 4.37698C14.5052 3.80617 13.9436 3.37063 13.2922 3.12917C12.6408 2.8877 11.9309 2.85193 11.2586 3.02671C10.9514 3.10886 10.6587 3.23752 10.3904 3.40822L6.11747 6.13121C5.77018 6.34937 5.47225 6.63762 5.24273 6.97751C5.01322 7.3174 4.85717 7.70145 4.78456 8.1051C4.71139 8.51683 4.72118 8.939 4.81337 9.34683C4.90554 9.75475 5.07825 10.1401 5.32136 10.4803C5.71734 11.0512 6.27896 11.4867 6.93037 11.7282C7.58177 11.9697 8.29159 12.0054 8.96392 11.8306C9.27109 11.7485 9.56384 11.62 9.83217 11.4496L11.4625 10.4102C11.5436 10.3588 11.6319 10.3202 11.7246 10.2955C11.9273 10.243 12.1412 10.2538 12.3374 10.3267C12.5337 10.3996 12.7029 10.5308 12.8222 10.7029C12.8953 10.8056 12.9473 10.9218 12.9751 11.0447C13.0028 11.1676 13.0059 11.2948 12.984 11.4189C12.962 11.5405 12.915 11.6563 12.8458 11.7586C12.7768 11.861 12.6871 11.9479 12.5825 12.0138L8.31004 14.7372C8.22902 14.7886 8.14064 14.8273 8.04795 14.8518C7.84534 14.9046 7.63143 14.8938 7.43515 14.821C7.23887 14.7482 7.06967 14.6169 6.95043 14.4448C6.81977 14.2603 6.75866 14.0353 6.77794 13.8101L6.79252 13.6515L6.63379 13.6033C6.03335 13.422 5.46828 13.1394 4.96295 12.7679L4.74393 12.6072L4.66351 12.8529C4.62031 12.9833 4.58621 13.1167 4.56145 13.2517C4.48831 13.6635 4.49809 14.0857 4.59024 14.4935C4.68239 14.9014 4.85505 15.2867 5.09809 15.627C5.49408 16.1978 6.0557 16.6333 6.70711 16.8748Z" fill="#E3E3E3"/>
</svg>
