<svg width="20" height="20" viewBox="0 0 20 20" fill="none" xmlns="http://www.w3.org/2000/svg">
<path d="M17.5013 2.5C17.9616 2.5 18.3347 2.8731 18.3347 3.33333V16.6667C18.3347 17.1269 17.9616 17.5 17.5013 17.5H2.5013C2.04106 17.5 1.66797 17.1269 1.66797 16.6667V3.33333C1.66797 2.8731 2.04106 2.5 2.5013 2.5H17.5013ZM16.668 4.16663H9.61349C9.03865 5.8141 8.75132 8.03633 8.75132 10.8333H11.2513C11.1555 11.5995 11.1258 12.3988 11.1621 13.231C12.1835 13.0547 13.4153 12.5837 14.518 11.8066L15.4636 13.1934C14.0955 14.1054 12.7117 14.6757 11.3173 14.8961C11.3602 15.2043 11.4112 15.5168 11.4707 15.8334L16.668 15.8333V4.16663ZM5.46355 11.8066L4.53905 13.1934C6.33659 14.3917 8.16139 15 10.0013 15V13.3333C8.5079 13.3333 6.99934 12.8305 5.46355 11.8066ZM14.168 5.83333C14.6282 5.83333 15.0013 6.20643 15.0013 6.66667V7.5C15.0013 7.96023 14.6282 8.33333 14.168 8.33333C13.7077 8.33333 13.3347 7.96023 13.3347 7.5V6.66667C13.3347 6.20643 13.7077 5.83333 14.168 5.83333ZM5.83464 5.83333C5.37439 5.83333 5.0013 6.20978 5.0013 6.66667C5.0013 6.97125 5.0013 7.24903 5.0013 7.5C5.0013 7.96023 5.37439 8.33333 5.83464 8.33333C6.29487 8.33333 6.66797 7.95833 6.66797 7.5V6.66667C6.66797 6.20643 6.29487 5.83333 5.83464 5.83333Z" fill="#E3E3E3"/>
</svg>
