<svg width="20" height="20" viewBox="0 0 20 20" fill="none" xmlns="http://www.w3.org/2000/svg">
<path d="M10.0013 1.66663C5.41797 1.66663 1.66797 5.41663 1.66797 9.99996C1.66797 14.5833 5.41797 18.3333 10.0013 18.3333C14.5847 18.3333 18.3347 14.5833 18.3347 9.99996C18.3347 5.41663 14.5847 1.66663 10.0013 1.66663ZM5.35845 14.6428C4.10845 13.3928 3.45369 11.7261 3.45369 10.119L9.9419 16.5475C8.27526 16.488 6.60859 15.8928 5.35845 14.6428ZM11.4297 16.369L3.63224 8.57137C4.28703 5.65472 6.90616 3.45234 10.0013 3.45234C12.2037 3.45234 14.1086 4.52377 15.2989 6.13089L14.4062 6.90472C13.394 5.53569 11.7871 4.64282 10.0013 4.64282C7.67977 4.64282 5.71557 6.1309 4.94179 8.21423L11.7871 15.0595C13.5131 14.4642 14.8228 12.9761 15.2395 11.1905H12.3822V9.99996H16.5489C16.5489 13.0952 14.3464 15.7142 11.4297 16.369Z" fill="#E3E3E3"/>
</svg>
