<svg width="20" height="20" viewBox="0 0 20 20" fill="none" xmlns="http://www.w3.org/2000/svg">
<path d="M14.1673 3.33337C16.4684 3.33337 18.3339 5.19886 18.3339 7.50004C18.3339 9.80121 16.4684 11.6667 14.1673 11.6667C13.9135 11.6667 13.6651 11.644 13.4239 11.6006L11.2144 13.2575C11.2383 13.4182 11.2506 13.5827 11.2506 13.75C11.2506 15.591 9.75818 17.0834 7.91723 17.0834C6.07628 17.0834 4.58389 15.591 4.58389 13.75C4.58389 13.6021 4.59353 13.4565 4.6122 13.3137L1.42383 12.0253L2.04818 10.48L5.23725 11.7675C5.84454 10.948 6.81884 10.4167 7.91723 10.4167C8.05284 10.4167 8.18655 10.4248 8.31791 10.4405L10.0185 7.88971C10.0067 7.76142 10.0006 7.63144 10.0006 7.50004C10.0006 5.19886 11.866 3.33337 14.1673 3.33337ZM7.91723 12.0834C7.53031 12.0834 7.17418 12.2152 6.89133 12.4365L8.2294 12.9774C8.6561 13.1498 8.86226 13.6355 8.68985 14.0622C8.51751 14.489 8.03179 14.6951 7.60506 14.5227L6.26661 13.9823C6.37961 14.7928 7.07556 15.4167 7.91723 15.4167C8.83768 15.4167 9.58393 14.6705 9.58393 13.75C9.58393 12.8295 8.83768 12.0834 7.91723 12.0834ZM10.7203 9.84162L9.90143 11.0713C10.1381 11.247 10.3508 11.4532 10.5334 11.6842L11.6671 10.8335C11.2996 10.5575 10.9793 10.2221 10.7203 9.84162ZM14.1673 5.00004C12.7865 5.00004 11.6673 6.11933 11.6673 7.50004C11.6673 8.88079 12.7865 10 14.1673 10C15.5479 10 16.6673 8.88079 16.6673 7.50004C16.6673 6.11933 15.5479 5.00004 14.1673 5.00004ZM14.1673 5.83337C15.0877 5.83337 15.8339 6.57957 15.8339 7.50004C15.8339 8.42054 15.0877 9.16671 14.1673 9.16671C13.2468 9.16671 12.5006 8.42054 12.5006 7.50004C12.5006 6.57957 13.2468 5.83337 14.1673 5.83337Z" fill="#E3E3E3"/>
</svg>
