<svg width="20" height="20" viewBox="0 0 20 20" fill="none" xmlns="http://www.w3.org/2000/svg">
<path d="M11.1432 1.74531C7.0211 1.17719 3.11169 3.7375 1.98403 7.74376C0.85637 11.75 2.85609 15.9743 6.66909 17.6407C6.61903 17.0006 6.66462 16.3566 6.80434 15.73C6.95819 15.0311 7.8845 11.1776 7.8845 11.1776C7.69992 10.7644 7.6076 10.3158 7.61399 9.86321C7.61399 8.62571 8.3281 7.70242 9.21658 7.70242C9.53949 7.69761 9.84858 7.83353 10.0633 8.0748C10.2781 8.31608 10.3773 8.63888 10.3352 8.95913C10.3352 9.70929 9.85316 10.8442 9.6025 11.9085C9.50133 12.3046 9.59441 12.7252 9.85324 13.0416C10.1121 13.358 10.5059 13.5324 10.9141 13.5115C12.4955 13.5115 13.5564 11.4854 13.5564 9.09379C13.5564 7.26 12.3417 5.88788 10.1037 5.88788C9.02183 5.84605 7.97006 6.24963 7.19369 7.00449C6.4173 7.75934 5.98419 8.79954 5.99535 9.88246C5.97152 10.4768 6.16321 11.0597 6.53511 11.5239C6.67817 11.6303 6.73337 11.8187 6.67037 11.9855C6.63191 12.1394 6.53511 12.5049 6.49664 12.6395C6.48043 12.7316 6.42149 12.8106 6.33779 12.8523C6.2541 12.894 6.15559 12.8936 6.07228 12.8511C4.91841 12.3895 4.3748 11.1199 4.3748 9.67088C4.3748 7.29848 6.36203 4.45804 10.3365 4.45804C13.5 4.45804 15.6027 6.77271 15.6027 9.24763C15.6027 12.5049 13.7892 14.9542 11.1083 14.9542C10.294 14.98 9.52291 14.5884 9.06341 13.9155C9.06341 13.9155 8.58133 15.8455 8.48641 16.2109C8.29267 16.8415 8.00665 17.44 7.6377 17.987C8.40658 18.2202 9.20608 18.337 10.0096 18.3333C12.2198 18.3347 14.34 17.457 15.9026 15.8933C17.4652 14.3297 18.3417 12.2086 18.3392 9.99788C18.3368 5.83584 15.2654 2.31343 11.1432 1.74531Z" fill="#E3E3E3"/>
</svg>
