<svg width="20" height="20" viewBox="0 0 20 20" fill="none" xmlns="http://www.w3.org/2000/svg">
<path d="M5.43982 12.0947C5.43982 12.9972 4.70252 13.7345 3.79998 13.7345C2.89744 13.7345 2.16016 12.9972 2.16016 12.0947C2.16016 11.1921 2.89744 10.4549 3.79998 10.4549H5.43982V12.0947ZM6.26609 12.0947C6.26609 11.1921 7.00337 10.4549 7.90592 10.4549C8.80849 10.4549 9.54574 11.1921 9.54574 12.0947V16.2006C9.54574 17.1032 8.80849 17.8405 7.90592 17.8405C7.00337 17.8405 6.26609 17.1032 6.26609 16.2006V12.0947ZM7.90592 5.43933C7.00337 5.43933 6.26609 4.70204 6.26609 3.7995C6.26609 2.89696 7.00337 2.15967 7.90592 2.15967C8.80849 2.15967 9.54574 2.89696 9.54574 3.7995V5.43933H7.90592ZM7.90592 6.2656C8.80849 6.2656 9.54574 7.00289 9.54574 7.90543C9.54574 8.80796 8.80849 9.54529 7.90592 9.54529H3.79998C2.89744 9.54529 2.16016 8.80796 2.16016 7.90543C2.16016 7.00289 2.89744 6.2656 3.79998 6.2656H7.90592ZM14.5613 7.90543C14.5613 7.00289 15.2986 6.2656 16.2011 6.2656C17.1037 6.2656 17.8409 7.00289 17.8409 7.90543C17.8409 8.80796 17.1037 9.54529 16.2011 9.54529H14.5613V7.90543ZM13.735 7.90543C13.735 8.80796 12.9977 9.54529 12.0952 9.54529C11.1927 9.54529 10.4553 8.80796 10.4553 7.90543V3.7995C10.4553 2.89696 11.1927 2.15967 12.0952 2.15967C12.9977 2.15967 13.735 2.89696 13.735 3.7995V7.90543ZM12.0952 14.5608C12.9977 14.5608 13.735 15.2981 13.735 16.2006C13.735 17.1032 12.9977 17.8405 12.0952 17.8405C11.1927 17.8405 10.4553 17.1032 10.4553 16.2006V14.5608H12.0952ZM12.0952 13.7345C11.1927 13.7345 10.4553 12.9972 10.4553 12.0947C10.4553 11.1921 11.1927 10.4549 12.0952 10.4549H16.2011C17.1037 10.4549 17.8409 11.1921 17.8409 12.0947C17.8409 12.9972 17.1037 13.7345 16.2011 13.7345H12.0952Z" fill="#E3E3E3"/>
</svg>
