<svg width="20" height="20" viewBox="0 0 20 20" fill="none" xmlns="http://www.w3.org/2000/svg">
<path d="M13.0222 12.1834C12.0996 13.5321 10.7483 14.1701 9.16757 14.1701C7.24748 14.1701 5.60391 12.6929 5.84022 10.7335C6.10239 8.55996 7.78975 7.62464 10.597 7.28101C11.0979 7.21968 11.3053 7.20245 12.3861 7.12238C12.4267 7.11938 12.4649 7.11653 12.5012 7.11379C12.501 7.05449 12.5009 6.99484 12.5009 6.93483C12.5009 5.43825 11.611 4.41667 10.4176 4.41667C9.22016 4.41667 8.38391 5.03946 7.87192 6.522L6.29654 5.978C7.03606 3.83643 8.49491 2.75 10.4176 2.75C12.5865 2.75 14.1676 4.56498 14.1676 6.93483C14.1676 9.14221 14.3037 10.898 14.5703 11.5661C14.867 12.3095 14.9752 12.4965 15.3067 12.91L14.0066 13.9528C13.5706 13.4091 13.3792 13.0782 13.0222 12.1834ZM17.7147 17.121C17.489 17.2876 17.0967 17.1885 17.2743 16.754C17.4948 16.214 17.7299 15.5809 17.4929 15.2939C17.3176 15.0816 17.1032 14.9759 16.6367 14.9759C16.2537 14.9759 16.0614 15.0254 15.8077 15.0423C15.6375 15.0537 15.5631 14.7947 15.7316 14.6757C15.9497 14.5216 16.185 14.4009 16.4572 14.3194C17.4152 14.0324 18.5445 14.1896 18.6813 14.3881C18.9858 14.8299 18.5161 16.5291 17.7147 17.121ZM16.7298 16.2173C16.5117 16.4303 16.2752 16.6246 16.0388 16.7966C14.2699 18.143 11.9793 18.8474 9.98991 18.8474C6.78787 18.8474 3.92337 17.3521 1.75044 14.851C1.56402 14.6588 1.7181 14.3795 1.93627 14.5307C4.27738 16.2613 7.17599 17.3082 10.1763 17.3082C12.0647 17.3082 14.0999 16.8607 16.0388 15.8979C16.1741 15.8339 16.3258 15.7467 16.4587 15.6856C16.7645 15.5106 17.0332 15.941 16.7298 16.2173ZM12.5092 8.78446C11.4605 8.86221 11.2626 8.87862 10.7995 8.93529C8.67216 9.19571 7.63511 9.77054 7.4949 10.9331C7.39001 11.8027 8.16966 12.5035 9.16757 12.5035C10.8667 12.5035 12.0986 11.4803 12.5192 8.78379C12.5159 8.78404 12.5126 8.78421 12.5092 8.78446Z" fill="#E3E3E3"/>
</svg>
