<svg width="20" height="20" viewBox="0 0 20 20" fill="none" xmlns="http://www.w3.org/2000/svg">
<path d="M4.16764 4.16667V15.8333H15.8343V4.16667H4.16764ZM4.16764 2.5H15.8343C16.7547 2.5 17.501 3.24619 17.501 4.16667V15.8333C17.501 16.7538 16.7547 17.5 15.8343 17.5H4.16764C3.24717 17.5 2.50098 16.7538 2.50098 15.8333V4.16667C2.50098 3.24619 3.24717 2.5 4.16764 2.5ZM6.66764 5.83333H8.33433C8.79458 5.83333 9.16766 6.20643 9.16766 6.66667V13.3333C9.16766 13.7936 8.79458 14.1667 8.33433 14.1667H6.66764C6.2074 14.1667 5.83431 13.7936 5.83431 13.3333V6.66667C5.83431 6.20643 6.2074 5.83333 6.66764 5.83333ZM11.6677 5.83333H13.3343C13.7946 5.83333 14.1677 6.20643 14.1677 6.66667V10C14.1677 10.4602 13.7946 10.8333 13.3343 10.8333H11.6677C11.2074 10.8333 10.8343 10.4602 10.8343 10V6.66667C10.8343 6.20643 11.2074 5.83333 11.6677 5.83333Z" fill="#E3E3E3"/>
</svg>
