<svg width="20" height="20" viewBox="0 0 20 20" fill="none" xmlns="http://www.w3.org/2000/svg">
<path d="M14.6137 10.4286L14.034 8.93121C14.0345 8.91396 14.0417 8.61904 14.0417 8.46696C14.0417 5.90656 12.8738 3.33354 10.0015 3.33329C7.12931 3.33354 5.96125 5.90656 5.96125 8.46696C5.96125 8.61904 5.96841 8.91396 5.96889 8.93121L5.3894 10.4286C5.23055 10.857 5.07362 11.3033 4.95872 11.686C4.411 13.5105 4.58848 14.2655 4.72368 14.2825C5.01366 14.3185 5.85233 12.909 5.85233 12.909C5.85233 13.7253 6.2584 14.7905 7.13719 15.5599C6.80851 15.6646 6.40578 15.8259 6.14685 16.0236C5.91419 16.2016 5.94334 16.3828 5.98514 16.456C6.1693 16.7774 9.14324 16.6612 10.0019 16.561C10.8604 16.6612 13.8346 16.7774 14.0185 16.456C14.0605 16.3828 14.0894 16.2016 13.8567 16.0236C13.5978 15.8259 13.1949 15.6646 12.866 15.5596C13.7445 14.7905 14.1506 13.7253 14.1506 12.909C14.1506 12.909 14.9895 14.3185 15.2795 14.2825C15.4144 14.2655 15.5947 13.509 15.0442 11.686C14.9276 11.3 14.7726 10.857 14.6137 10.4286ZM15.465 17.2839C15.1541 17.8271 14.7702 18.0278 14.2661 18.165C14.0665 18.2194 13.8513 18.2546 13.6047 18.28C13.2375 18.3178 12.7832 18.3341 12.2605 18.3333C11.4888 18.332 10.578 18.2909 10.0019 18.2366C9.42574 18.2909 8.5149 18.332 7.74323 18.3333C7.2206 18.3341 6.76623 18.3178 6.39909 18.28C6.15245 18.2546 5.93723 18.2194 5.73771 18.165C5.23377 18.0279 4.8501 17.8275 4.53795 17.2827C4.29353 16.8548 4.23171 16.3671 4.33892 15.9055C3.84529 15.7955 3.50451 15.5037 3.27326 15.1464C3.14974 14.9555 3.07055 14.7605 3.01586 14.5552C2.94216 14.2786 2.91287 13.9721 2.91869 13.6334C2.92992 12.979 3.07467 12.1653 3.36244 11.2067C3.47904 10.8184 3.63499 10.3663 3.83507 9.82713L4.29604 8.63596C4.29515 8.57246 4.29459 8.51279 4.29459 8.46696C4.29459 4.67054 6.32444 1.66694 10.0016 1.66663C13.6787 1.66694 15.7083 4.67041 15.7083 8.46696C15.7083 8.51279 15.7077 8.57238 15.7069 8.63588L16.168 9.82688L16.1765 9.84921C16.3638 10.3545 16.5207 10.8101 16.6397 11.2041C16.9292 12.163 17.0746 12.9779 17.0853 13.6341C17.0909 13.9733 17.0612 14.2804 16.9869 14.5574C16.932 14.7623 16.8527 14.9569 16.7293 15.1473C16.4985 15.5034 16.1592 15.7943 15.665 15.9051C15.7727 16.3675 15.7107 16.8561 15.465 17.2839Z" fill="#E3E3E3"/>
</svg>
