<svg width="20" height="20" viewBox="0 0 20 20" fill="none" xmlns="http://www.w3.org/2000/svg">
<path d="M4.62041 2.22751C4.8472 2.08326 5.11339 2.0134 5.38182 2.02771C5.65101 2.04205 5.90896 2.14031 6.11948 2.30871L6.12021 2.30929C6.32553 2.47396 6.47515 2.69763 6.54905 2.94988L7.75464 6.63958H12.2455L13.4511 2.94988C13.525 2.69765 13.6746 2.47396 13.8799 2.30927L13.8838 2.30618C14.0942 2.13978 14.3509 2.04274 14.6188 2.02849C14.8867 2.01423 15.1523 2.08349 15.3791 2.22661L15.3811 2.22786C15.6091 2.37276 15.7858 2.58603 15.8855 2.83735L15.8888 2.84573L17.9496 8.22182C18.3018 9.14264 18.3448 10.153 18.0723 11.1004C17.7997 12.0478 17.2264 12.8808 16.4387 13.4737L10.8297 17.6942L10.8289 17.6948C10.589 17.8761 10.2963 17.9743 9.99541 17.9743C9.6945 17.9743 9.40175 17.8761 9.16175 17.6947L3.55228 13.4736C2.76736 12.8801 2.19634 12.0478 1.92507 11.102C1.65381 10.1561 1.69696 9.14763 2.04806 8.22838L4.11453 2.83744C4.21441 2.58578 4.39155 2.37224 4.62041 2.22751ZM5.29628 3.94636L3.46707 8.71988C3.23344 9.33438 3.18598 10.0563 3.36724 10.6884C3.5477 11.3176 3.92619 11.8717 4.44636 12.2687L9.99541 16.4441L15.5405 12.2721C16.0659 11.8751 16.4484 11.3185 16.6304 10.6856C16.8127 10.052 16.7625 9.32055 16.5275 8.70455L14.7038 3.94628L13.3336 8.13989H6.6665L5.29628 3.94636Z" fill="#E3E3E3"/>
</svg>
