<svg width="20" height="20" viewBox="0 0 20 20" fill="none" xmlns="http://www.w3.org/2000/svg">
<path d="M12.3059 16.2575C14.8521 15.3195 16.668 12.8718 16.668 9.99996C16.668 7.12813 14.8521 4.68043 12.3059 3.74238C13.9273 4.97993 15.0013 7.44458 15.0013 9.99996C15.0013 12.5554 13.9273 15.02 12.3059 16.2575ZM7.69668 3.74238C5.15049 4.68043 3.33464 7.12813 3.33464 9.99996C3.33464 12.8718 5.15049 15.3195 7.69668 16.2575C6.07531 15.02 5.0013 12.5554 5.0013 9.99996C5.0013 7.44458 6.07531 4.97993 7.69668 3.74238ZM10.0013 18.3333C5.39893 18.3333 1.66797 14.6023 1.66797 9.99996C1.66797 5.39758 5.39893 1.66663 10.0013 1.66663C14.6037 1.66663 18.3347 5.39758 18.3347 9.99996C18.3347 14.6023 14.6037 18.3333 10.0013 18.3333ZM10.0013 15.4166C11.668 15.4166 13.3347 12.8889 13.3347 9.99996C13.3347 7.11107 11.668 4.58329 10.0013 4.58329C8.33465 4.58329 6.66797 7.11107 6.66797 9.99996C6.66797 12.8889 8.33465 15.4166 10.0013 15.4166Z" fill="#E3E3E3"/>
</svg>
