<svg width="20" height="20" viewBox="0 0 20 20" fill="none" xmlns="http://www.w3.org/2000/svg">
<path d="M10 9.16667H17.1107C17.1474 9.48725 17.1667 9.816 17.1667 10.1531C17.1667 12.432 16.3503 14.3503 14.9353 15.6531C13.6972 16.7959 12.0033 17.466 9.983 17.466C7.05777 17.466 4.52722 15.7892 3.29592 13.3436C2.78913 12.3333 2.5 11.1905 2.5 9.983C2.5 8.7755 2.78913 7.63267 3.29592 6.62248C4.52722 4.17688 7.05777 2.5 9.983 2.5C12 2.5 13.6938 3.24152 14.9897 4.44898L13.7712 5.66751C12.8068 4.73461 11.5023 4.16667 10 4.16667C6.77834 4.16667 4.16667 6.77834 4.16667 10C4.16667 13.2217 6.77834 15.8333 10 15.8333C12.9387 15.8333 15.1202 13.6602 15.4808 10.8333H10V9.16667Z" fill="#E3E3E3"/>
</svg>
