<svg width="20" height="20" viewBox="0 0 20 20" fill="none" xmlns="http://www.w3.org/2000/svg">
<path d="M1.78977 9.84155C6.16258 7.93641 9.0785 6.68041 10.5374 6.07357C14.7031 4.34093 15.5687 4.03995 16.1328 4.03001C16.2569 4.02783 16.5344 4.05858 16.7141 4.20441C16.8658 4.32755 16.9076 4.49389 16.9276 4.61063C16.9476 4.72738 16.9724 4.99333 16.9527 5.20113C16.7269 7.57299 15.7502 13.3289 15.2532 15.9854C15.043 17.1095 14.629 17.4863 14.2282 17.5232C13.3571 17.6034 12.6956 16.9475 11.8519 16.3945C10.5317 15.5291 9.78591 14.9904 8.50441 14.1459C7.02345 13.17 7.9835 12.6335 8.8275 11.757C9.04841 11.5275 12.8864 8.0366 12.9607 7.71992C12.9699 7.68031 12.9786 7.53268 12.8908 7.45472C12.8032 7.37676 12.6737 7.40342 12.5803 7.42463C12.4479 7.45468 10.3388 8.84863 6.2532 11.6066C5.65456 12.0176 5.11234 12.218 4.62652 12.2075C4.09094 12.1959 3.0607 11.9046 2.29483 11.6557C1.35545 11.3503 0.608856 11.1889 0.673868 10.6703C0.70773 10.4002 1.0797 10.124 1.78977 9.84155Z" fill="#E3E3E3"/>
</svg>
