<svg width="20" height="20" viewBox="0 0 20 20" fill="none" xmlns="http://www.w3.org/2000/svg">
<path d="M16.5002 3.142C14.9547 0.715998 11.7352 0.00223696 9.30916 1.54777L5.0922 4.23427C2.693 5.76272 1.96842 8.92838 3.44754 11.3446C2.44575 12.9877 2.39645 15.1247 3.5007 16.858C5.04623 19.284 8.2658 19.9978 10.6918 18.4523L14.9087 15.7658C17.3079 14.2373 18.0325 11.0716 16.5534 8.65546C17.5548 7.0129 17.6047 4.87563 16.5002 3.142ZM15.3735 7.31192C14.6903 6.76287 13.8858 6.40243 13.0422 6.2488C13.0737 6.05418 13.0366 5.84773 12.9223 5.66839C12.6751 5.28023 12.1599 5.16603 11.7717 5.41332L7.55481 8.09982C7.16665 8.34713 7.05245 8.86221 7.29974 9.25038C7.54702 9.63854 8.06215 9.75279 8.45033 9.50546L10.2074 8.38613C11.8571 7.33513 14.0463 7.82048 15.0973 9.47013C16.1483 11.1199 15.6629 13.3091 14.0132 14.3601L9.79633 17.0466C8.14661 18.0975 5.95731 17.6122 4.90635 15.9625C4.25851 14.9456 4.19426 13.7226 4.62746 12.6881C5.31065 13.2372 6.11509 13.5976 6.95871 13.7512C6.92726 13.9459 6.96434 14.1523 7.07859 14.3316C7.32588 14.7198 7.84101 14.834 8.22917 14.5867L12.4462 11.9002C12.8343 11.653 12.9485 11.1378 12.7012 10.7496C12.4539 10.3615 11.9388 10.2473 11.5507 10.4945L9.79358 11.614C8.14389 12.6649 5.95458 12.1795 4.90362 10.5299C3.85265 8.88021 4.33801 6.69088 5.9877 5.63993L10.2047 2.95343C11.8543 1.90246 14.0437 2.38782 15.0946 4.0375C15.7423 5.05419 15.8069 6.27704 15.3735 7.31192Z" fill="#E3E3E3"/>
</svg>
