<svg width="20" height="20" viewBox="0 0 20 20" fill="none" xmlns="http://www.w3.org/2000/svg">
<path d="M17.7164 11.6581C17.4878 12.8338 15.6696 14.1205 13.5813 14.3699C12.4924 14.4998 11.4202 14.6192 10.2769 14.5668C8.40725 14.4811 6.93191 14.1205 6.93191 14.1205C6.93191 14.3025 6.94313 14.4758 6.96558 14.6379C7.20865 16.483 8.79525 16.5936 10.2982 16.6451C11.8151 16.697 13.1657 16.2711 13.1657 16.2711L13.2281 17.6425C13.2281 17.6425 12.1671 18.2123 10.2769 18.317C9.23466 18.3744 7.94057 18.2909 6.43327 17.8919C3.1642 17.0266 2.60199 13.542 2.51596 10.0061C2.48974 8.95638 2.50591 7.96647 2.50591 7.13856C2.50591 3.52305 4.87479 2.46328 4.87479 2.46328C6.06925 1.91473 8.11881 1.68404 10.2496 1.66663H10.3019C12.4327 1.68404 14.4836 1.91473 15.6779 2.46328C15.6779 2.46328 18.0467 3.52305 18.0467 7.13856C18.0467 7.13856 18.0765 9.80613 17.7164 11.6581ZM15.2526 7.41904C15.2526 6.52433 15.0247 5.81333 14.5672 5.28731C14.0953 4.76128 13.4773 4.49163 12.7103 4.49163C11.8227 4.49163 11.1506 4.83277 10.7062 5.51512L10.2742 6.23932L9.84216 5.51512C9.39775 4.83277 8.72566 4.49163 7.83811 4.49163C7.071 4.49163 6.45303 4.76128 5.98115 5.28731C5.52355 5.81333 5.29575 6.52433 5.29575 7.41904V11.7968H7.03014V7.54772C7.03014 6.65201 7.40701 6.19738 8.16084 6.19738C8.99433 6.19738 9.41216 6.73669 9.41216 7.80309V10.1289H11.1363V7.80309C11.1363 6.73669 11.554 6.19738 12.3875 6.19738C13.1413 6.19738 13.5182 6.65201 13.5182 7.54772V11.7968H15.2526V7.41904Z" fill="#E3E3E3"/>
</svg>
