<svg width="20" height="20" viewBox="0 0 20 20" fill="none" xmlns="http://www.w3.org/2000/svg">
<path d="M6.20186 4.45837C6.73465 4.45837 7.22645 4.4996 7.67727 4.62327C8.12809 4.70572 8.49692 4.87062 8.82484 5.07675C9.15267 5.28287 9.39859 5.57144 9.56251 5.94247C9.72642 6.31349 9.80842 6.76697 9.80842 7.26167C9.80842 7.83882 9.68551 8.33356 9.39859 8.70456C9.15267 9.07556 8.74284 9.40539 8.25104 9.65272C8.94776 9.85881 9.48051 10.2299 9.80842 10.7246C10.1363 11.2192 10.3412 11.8376 10.3412 12.5385C10.3412 13.1156 10.2183 13.6103 10.0133 14.0226C9.80842 14.4348 9.48051 14.8058 9.11167 15.0532C8.74284 15.3006 8.29202 15.5066 7.80022 15.6303C7.30842 15.754 6.81662 15.8365 6.32481 15.8365H0.833008V4.45837H6.20186ZM5.87399 9.07556C6.32481 9.07556 6.69367 8.95189 6.98055 8.74581C7.26743 8.53964 7.39038 8.16862 7.39038 7.71514C7.39038 7.46779 7.3494 7.22044 7.26743 7.05554C7.18547 6.89064 7.06252 6.76697 6.89858 6.64329C6.73465 6.56084 6.57072 6.47839 6.36579 6.43717C6.16087 6.39594 5.95596 6.39594 5.71006 6.39594H3.33301V9.07556H5.87399ZM5.99694 13.9401C6.24284 13.9401 6.48875 13.8989 6.69367 13.8576C6.89858 13.8165 7.1035 13.734 7.26743 13.6103C7.43137 13.4866 7.55432 13.363 7.67727 13.1568C7.75924 12.9507 7.84121 12.7034 7.84121 12.4148C7.84121 11.8376 7.67727 11.4254 7.3494 11.1368C7.02153 10.8895 6.57072 10.7658 6.03792 10.7658H3.33301V13.9401H5.99694ZM13.9068 13.8989C14.2347 14.2287 14.7264 14.3936 15.3822 14.3936C15.833 14.3936 16.2428 14.2699 16.5707 14.0638C16.8986 13.8165 17.1035 13.5691 17.1855 13.3217H19.1937C18.8658 14.3111 18.374 15.012 17.7183 15.4655C17.0625 15.8777 16.2838 16.1251 15.3412 16.1251C14.6854 16.1251 14.1117 16.0014 13.5789 15.7952C13.0461 15.5891 12.6363 15.3006 12.2674 14.8883C11.8986 14.5172 11.6117 14.0638 11.4478 13.5279C11.2428 12.992 11.1608 12.4148 11.1608 11.7552C11.1608 11.1368 11.2428 10.5596 11.4478 10.0237C11.6527 9.48781 11.9396 9.03431 12.3084 8.62206C12.6773 8.25107 13.1281 7.92127 13.6199 7.71514C14.1527 7.50902 14.6854 7.38534 15.3412 7.38534C16.0379 7.38534 16.6527 7.50902 17.1855 7.79759C17.7183 8.08617 18.1281 8.41597 18.4559 8.91064C18.7838 9.36414 19.0298 9.90006 19.1937 10.4772C19.2756 11.0544 19.3166 11.6315 19.2756 12.2911H13.333C13.333 12.9507 13.5789 13.5691 13.9068 13.8989ZM16.4888 9.57031C16.2018 9.28172 15.751 9.11681 15.2183 9.11681C14.8494 9.11681 14.5625 9.19922 14.3166 9.32289C14.0707 9.44656 13.9068 9.61147 13.7428 9.77639C13.5789 9.94131 13.4969 10.1474 13.4559 10.3536C13.415 10.5596 13.374 10.7246 13.374 10.8895H17.0625C16.9806 10.2711 16.7756 9.85881 16.4888 9.57031ZM12.8822 5.24164H17.4723V6.35472H12.8822V5.24164Z" fill="#E3E3E3"/>
</svg>
