<svg width="20" height="20" viewBox="0 0 20 20" fill="none" xmlns="http://www.w3.org/2000/svg">
<path d="M10.0013 1.66663C5.39714 1.66663 1.66797 5.39579 1.66797 9.99996C1.66797 13.6875 4.05339 16.802 7.36589 17.9062C7.78255 17.9791 7.9388 17.7291 7.9388 17.5104C7.9388 17.3125 7.92839 16.6562 7.92839 15.9583C5.83464 16.3437 5.29297 15.4479 5.1263 14.9791C5.03255 14.7395 4.6263 14 4.27214 13.802C3.98047 13.6458 3.5638 13.2604 4.26172 13.25C4.91797 13.2395 5.38672 13.8541 5.54297 14.1041C6.29297 15.3645 7.49089 15.0104 7.97005 14.7916C8.04297 14.25 8.26172 13.8854 8.50132 13.677C6.64714 13.4687 4.70964 12.75 4.70964 9.56246C4.70964 8.65621 5.03255 7.90621 5.5638 7.32288C5.48047 7.11454 5.1888 6.26038 5.64714 5.11454C5.64714 5.11454 6.34505 4.89579 7.9388 5.96871C8.60549 5.78121 9.31382 5.68746 10.0222 5.68746C10.7305 5.68746 11.4388 5.78121 12.1055 5.96871C13.6992 4.88538 14.3972 5.11454 14.3972 5.11454C14.8555 6.26038 14.5638 7.11454 14.4805 7.32288C15.0117 7.90621 15.3347 8.64579 15.3347 9.56246C15.3347 12.7604 13.3867 13.4687 11.5326 13.677C11.8347 13.9375 12.0951 14.4375 12.0951 15.2187C12.0951 16.3333 12.0847 17.2291 12.0847 17.5104C12.0847 17.7291 12.2409 17.9895 12.6576 17.9062C16.0497 16.761 18.3337 13.5802 18.3347 9.99996C18.3347 5.39579 14.6055 1.66663 10.0013 1.66663Z" fill="#E3E3E3"/>
</svg>
