<svg width="20" height="20" viewBox="0 0 20 20" fill="none" xmlns="http://www.w3.org/2000/svg">
<g clip-path="url(#clip0_1531_54)">
<path d="M9.16658 2.16521V11.6411H3.25027C2.69229 11.6411 2.35902 10.9871 2.71395 10.5271L9.16658 2.16521ZM10.8332 6.69211V1.94407C10.8332 0.434534 8.91966 -0.242923 7.98511 0.968147L1.39446 9.50894C0.205317 11.0499 1.2899 13.3078 3.25027 13.3078H9.16658V18.0559C9.16658 19.5654 11.0802 20.2429 12.0147 19.0318L18.6053 10.4909C19.7945 8.94994 18.7099 6.69211 16.7496 6.69211H10.8332ZM10.8332 8.35877H16.7496C17.3075 8.35877 17.6408 9.01286 17.2859 9.47277L10.8332 17.8347V8.35877Z" fill="#E3E3E3"/>
</g>
<defs>
<clipPath id="clip0_1531_54">
<rect width="20" height="20" fill="white"/>
</clipPath>
</defs>
</svg>
