<svg width="20" height="20" viewBox="0 0 20 20" fill="none" xmlns="http://www.w3.org/2000/svg">
<path d="M10.0013 1.66663C14.6037 1.66663 18.3347 5.39758 18.3347 9.99996C18.3347 14.6023 14.6037 18.3333 10.0013 18.3333C5.39893 18.3333 1.66797 14.6023 1.66797 9.99996C1.66797 8.78038 1.92997 7.62192 2.40076 6.5779C2.79002 5.79582 3.42889 5.01625 3.94284 4.75029C3.39848 5.81884 3.13234 6.86723 3.07589 7.56884C3.45493 6.31884 4.17234 5.2718 5.17637 4.53255C6.89814 3.26676 9.21632 3.20998 10.1397 4.01643C8.42607 4.6048 6.55943 6.97207 6.97072 9.74596C7.03731 10.2039 7.1747 10.6487 7.37798 11.0645C7.05809 10.2217 7.02986 9.03621 7.54599 8.26608C8.1226 7.40755 8.94482 7.2261 9.3844 7.31884C9.21099 7.28255 8.8279 8.01609 8.77149 8.14512C8.6274 8.47321 8.55582 8.82854 8.56182 9.18679C8.57449 9.93521 8.88332 10.6481 9.42065 11.1693C11.0218 12.7295 13.6062 12.1155 14.7634 10.3346C15.5577 9.10879 15.6545 7.02852 14.6344 5.37529C14.38 4.97243 14.0766 4.60267 13.7312 4.27449C12.189 2.80318 9.99874 2.13374 7.91301 2.43787C6.99138 2.58508 6.20686 2.85039 5.55946 3.23383C6.46344 2.33143 8.26074 1.66663 10.0013 1.66663Z" fill="#E3E3E3"/>
</svg>
