<svg width="20" height="20" viewBox="0 0 20 20" fill="none" xmlns="http://www.w3.org/2000/svg">
<path d="M13.2011 10.5758C13.1826 10.5812 13.1643 10.5869 13.1457 10.592C13.0323 10.6241 12.9161 10.6439 12.8008 10.6439C12.2923 10.6439 12.0052 10.3004 12.1594 9.87663C12.2722 9.56671 12.5683 9.30521 12.9298 9.18412C13.49 8.97979 13.8814 8.51388 13.8814 7.97172C13.8814 7.24119 13.1707 6.64897 12.2941 6.64897C11.4174 6.64897 10.7067 7.24119 10.7067 7.97172V12.0282C10.7067 13.0038 10.1416 13.8592 9.29582 14.343C8.83482 14.6068 8.29179 14.7619 7.70858 14.7619C6.05528 14.7619 4.71032 13.5355 4.71032 12.0282C4.71032 11.5484 4.8475 11.0978 5.08656 10.7055C5.45653 10.0982 6.073 9.63321 6.81138 9.42121C6.93768 9.38196 7.06679 9.36037 7.19409 9.36037C7.70484 9.36037 7.99334 9.70546 7.83843 10.1311C7.73345 10.4195 7.45074 10.668 7.12114 10.8C7.08177 10.8132 7.04346 10.828 7.00565 10.8435C6.48209 11.0596 6.12126 11.5082 6.12126 12.0282C6.12126 12.7587 6.83189 13.3509 7.70858 13.3509C8.58515 13.3509 9.29582 12.7587 9.29582 12.0282V7.97172C9.29582 6.9961 9.86099 6.14069 10.7067 5.6568C11.1678 5.39306 11.7108 5.23802 12.2941 5.23802C13.9473 5.23802 15.2923 6.46433 15.2923 7.97172C15.2923 8.45146 15.1551 8.90212 14.9161 9.29446C14.5477 9.89904 13.935 10.3625 13.2011 10.5758ZM1.66797 9.99996C1.66797 14.6023 5.39894 18.3333 10.0013 18.3333C14.6037 18.3333 18.3347 14.6023 18.3347 9.99996C18.3347 5.39759 14.6037 1.66663 10.0013 1.66663C5.39894 1.66663 1.66797 5.39759 1.66797 9.99996Z" fill="#E3E3E3"/>
</svg>
