<svg width="20" height="20" viewBox="0 0 20 20" fill="none" xmlns="http://www.w3.org/2000/svg">
<path d="M18.3312 15.1912C18.3312 15.7977 17.9936 16.9643 17.2356 17.6053C17.0838 17.7223 16.9321 17.6558 16.9986 17.4858C17.2191 16.946 17.7248 15.6963 17.4878 15.4093C17.3202 15.1912 16.6287 15.2071 16.0388 15.2577C15.7695 15.2918 15.5331 15.3083 15.3496 15.3447C15.1797 15.3588 15.145 15.2094 15.3149 15.0924C15.5331 14.9383 15.7695 14.8213 16.0406 14.736C16.9986 14.449 18.1061 14.6218 18.2647 14.8048C18.2953 14.8403 18.3312 14.9383 18.3312 15.1912ZM16.7298 16.2703C16.5117 16.4385 16.2752 16.592 16.0388 16.7278C14.2699 17.7911 11.9793 18.3473 9.98991 18.3473C6.78787 18.3473 3.92337 17.1665 1.75044 15.1912C1.56402 15.0395 1.7181 14.8189 1.93627 14.9383C4.27738 16.305 7.17599 17.1318 10.1763 17.1318C12.0647 17.1318 14.0999 16.7784 16.0388 16.018C16.1741 15.9674 16.3258 15.8987 16.4587 15.8504C16.7645 15.7123 17.0332 16.0521 16.7298 16.2703ZM11.5879 7.07904C11.5886 6.21054 11.623 5.69975 11.3352 5.26133C11.0799 4.90068 10.6412 4.6844 10.0282 4.71828C9.36307 4.75506 8.64899 5.19113 8.46657 5.9902C8.43149 6.17259 8.32412 6.35292 8.10318 6.39283L6.07348 6.13473C5.92826 6.10033 5.70801 5.9902 5.78028 5.69975C6.21595 3.40645 8.17613 2.60737 10.0282 2.5H10.4639C11.4805 2.5 12.7868 2.79045 13.6231 3.55373C14.6369 4.5001 14.5288 5.77202 14.5288 7.15406V10.4261C14.5288 11.4076 14.9267 11.8425 15.3272 12.3539C15.4353 12.5363 15.4725 12.7518 15.2901 12.8998C14.8895 13.2624 14.1282 13.9156 13.6926 14.2783C13.5474 14.3891 13.2857 14.4009 13.1847 14.3162C12.5432 13.778 12.3862 13.4799 11.9884 12.9341C11.2974 13.6603 10.7165 14.0608 10.0255 14.2783C9.58982 14.3891 9.11974 14.4587 8.53882 14.4587C6.79685 14.4587 5.41757 13.3726 5.41757 11.2245C5.41757 9.51758 6.32607 8.35633 7.66751 7.80723C9.00891 7.25808 10.9591 7.08214 11.5879 7.07904ZM11.1901 11.4048C11.623 10.6787 11.5879 10.083 11.5879 8.75083C11.0448 8.75083 10.4991 8.78867 10.0282 8.89883C9.15757 9.15142 8.46657 9.69992 8.46657 10.8618C8.46657 11.7703 8.93941 12.3883 9.73782 12.3883C9.84791 12.3883 9.94432 12.3746 10.0282 12.3512C10.586 12.1955 10.9347 11.9155 11.1901 11.4048Z" fill="#E3E3E3"/>
</svg>
