<svg width="20" height="20" viewBox="0 0 20 20" fill="none" xmlns="http://www.w3.org/2000/svg">
<path d="M10.0013 1.66663C14.6037 1.66663 18.3347 5.39758 18.3347 9.99996C18.3347 13.6663 15.967 16.7795 12.6773 17.8943L12.4887 17.9557L10.0688 11.6641C10.9597 11.625 11.668 10.8786 11.668 9.99996C11.668 9.07946 10.9217 8.33329 10.0013 8.33329C9.08082 8.33329 8.33465 9.07946 8.33465 9.99996C8.33465 10.8973 9.04374 11.629 9.93215 11.6652L7.51299 17.9555L7.32528 17.8943C4.03559 16.7795 1.66797 13.6663 1.66797 9.99996C1.66797 5.39758 5.39893 1.66663 10.0013 1.66663ZM10.0013 3.33329C6.3194 3.33329 3.33464 6.31806 3.33464 9.99996C3.33464 12.4334 4.63838 14.5622 6.58547 15.7262L7.81836 12.5191C7.11365 11.908 6.66797 11.006 6.66797 9.99996C6.66797 8.15901 8.16035 6.66663 10.0013 6.66663C11.8422 6.66663 13.3347 8.15901 13.3347 9.99996C13.3347 11.0062 12.8888 11.9083 12.1838 12.5195C12.6556 13.7474 13.0669 14.8169 13.417 15.7274C15.364 14.5625 16.668 12.4335 16.668 9.99996C16.668 6.31806 13.6832 3.33329 10.0013 3.33329Z" fill="#E3E3E3"/>
</svg>
