<svg width="20" height="20" viewBox="0 0 20 20" fill="none" xmlns="http://www.w3.org/2000/svg">
<path d="M13.571 2.46249C13.2736 2.26422 12.9176 2.17307 12.5615 2.20404L3.34546 3.00543C2.91961 3.04247 2.59277 3.39896 2.59277 3.82641V13.4722C2.59277 13.8128 2.70324 14.1442 2.90759 14.4167L5.21347 17.4912C5.38252 17.7166 5.65501 17.84 5.93594 17.8184L16.6467 16.9945C17.0761 16.9615 17.4076 16.6035 17.4076 16.1729V5.43897C17.4076 5.17737 17.2768 4.93308 17.0592 4.78797L13.571 2.46249ZM12.6898 3.67995C12.7107 3.67813 12.7317 3.68349 12.7492 3.69516L15.0373 5.22059L6.53208 5.90102L4.98132 4.35026L12.6898 3.67995ZM15.9261 15.564L6.99092 16.2514V7.35052L15.9261 6.63571V15.564ZM4.07426 5.53832L5.50944 6.9735V15.4167L4.09277 13.5278C4.08075 13.5118 4.07426 13.4923 4.07426 13.4722V5.53832ZM9.98216 8.43621L8.33517 8.54412V14.8462L9.99825 14.7372V11.1233L12.9248 14.5975L14.5717 14.4895V8.18747L12.9087 8.29647V11.9104L9.98216 8.43621Z" fill="#E3E3E3"/>
</svg>
