<svg width="20" height="20" viewBox="0 0 20 20" fill="none" xmlns="http://www.w3.org/2000/svg">
<path d="M8.63741 16.5272L10.2454 13.742C10.1644 13.7473 10.0827 13.75 10.0003 13.75C8.58674 13.75 7.35579 12.9678 6.71674 11.8126L3.99582 7.09984C3.57153 7.97668 3.33366 8.96054 3.33366 9.99996C3.33366 13.2148 5.60919 15.8981 8.63741 16.5272ZM10.4917 16.6488C13.9442 16.3972 16.667 13.5165 16.667 9.99996C16.667 9.27237 16.5504 8.57204 16.335 7.91663H13.1188C13.5177 8.51246 13.7503 9.22904 13.7503 9.99996C13.7503 10.7064 13.555 11.3671 13.2154 11.9312L10.4917 16.6488ZM11.7865 11.0729L11.8046 11.0416C11.9822 10.7353 12.0837 10.3795 12.0837 9.99996C12.0837 8.84937 11.1509 7.91663 10.0003 7.91663C8.84974 7.91663 7.91699 8.84937 7.91699 9.99996C7.91699 10.3652 8.01099 10.7085 8.17611 11.007L8.19611 11.0416C8.55607 11.6644 9.22924 12.0833 10.0003 12.0833C10.7585 12.0833 11.4221 11.6783 11.7865 11.0729ZM5.02968 5.55722L6.63657 8.34046C7.24883 7.10181 8.52507 6.24996 10.0003 6.24996H15.5131C14.3131 4.48932 12.2917 3.33329 10.0003 3.33329C8.02506 3.33329 6.25044 4.19234 5.02968 5.55722ZM10.0003 18.3333C5.39795 18.3333 1.66699 14.6023 1.66699 9.99996C1.66699 5.39758 5.39795 1.66663 10.0003 1.66663C14.6027 1.66663 18.3337 5.39758 18.3337 9.99996C18.3337 14.6023 14.6027 18.3333 10.0003 18.3333Z" fill="#E3E3E3"/>
</svg>
