<svg width="20" height="20" viewBox="0 0 20 20" fill="none" xmlns="http://www.w3.org/2000/svg">
<path d="M17.2043 7.15496C17.0627 6.56246 16.8368 5.94829 16.5593 5.47079C15.9168 4.36329 15.3393 3.60663 13.9118 2.70413C12.4843 1.80163 10.8977 1.66663 10.1427 1.66663C8.13014 1.66663 6.63348 2.38329 5.53848 3.23913C2.78764 5.39163 2.50098 9.16662 2.50098 9.16662C2.50098 9.16662 3.51848 7.46246 5.45098 6.22829C6.62014 5.48246 8.28514 4.99996 9.64099 4.99996C13.2385 4.99996 13.3343 8.33329 13.3343 8.33329H7.50098C7.50098 6.66663 8.33433 5.83329 8.33433 5.83329C8.33433 5.83329 4.16764 7.49996 4.16764 11.7033C4.16764 12.1091 4.16514 12.8466 4.37431 13.6058C4.56764 14.3083 4.95764 15.0266 5.31764 15.5666C6.33514 17.0933 7.85514 17.745 8.58099 17.9866C9.41099 18.2633 10.2718 18.3333 11.0893 18.3333C13.356 18.3333 15.1535 17.595 15.8343 17.2708V13.7941C15.2027 14.1725 13.6018 15 11.6677 15C7.50098 15 7.50098 11.6666 7.50098 11.6666H17.501V9.59162C17.501 9.59162 17.4685 8.26413 17.2043 7.15496Z" fill="#E3E3E3"/>
</svg>
