<svg width="20" height="20" viewBox="0 0 20 20" fill="none" xmlns="http://www.w3.org/2000/svg">
<path d="M3.33333 8.33333C3.79357 8.33333 4.16667 8.70642 4.16667 9.16667V15C4.16667 15.4602 3.79357 15.8333 3.33333 15.8333C2.8731 15.8333 2.5 15.4602 2.5 15V9.16667C2.5 8.70642 2.8731 8.33333 3.33333 8.33333ZM5.83333 9.16667C6.29357 9.16667 6.66667 9.53975 6.66667 10V15C6.66667 15.4602 6.29357 15.8333 5.83333 15.8333C5.3731 15.8333 5 15.4602 5 15V10C5 9.53975 5.3731 9.16667 5.83333 9.16667ZM8.33333 5.83333C8.79358 5.83333 9.16667 6.20643 9.16667 6.66667V15C9.16667 15.4602 8.79358 15.8333 8.33333 15.8333C7.87309 15.8333 7.5 15.4602 7.5 15V6.66667C7.5 6.20643 7.87309 5.83333 8.33333 5.83333ZM12.5 5C15.1987 5 17.398 7.13797 17.4966 9.81258L17.4992 10.0294C18.913 10.2312 20 11.447 20 12.9167C20 14.4738 18.7797 15.7459 17.2433 15.829L17.0833 15.8333H14.1658C13.7057 15.8333 13.3325 15.4602 13.3325 15C13.3324 14.5727 13.6541 14.2204 14.0686 14.1722L14.1658 14.1667L17.0384 14.1672L17.1533 14.1647C17.8126 14.1292 18.3333 13.5812 18.3333 12.9167C18.3333 12.332 17.9285 11.8325 17.376 11.7007L17.2637 11.6793L15.7889 11.4688L15.8325 9.98L15.8292 9.83367C15.7452 8.12509 14.3749 6.75472 12.6663 6.67075L12.5 6.66667C12.2767 6.66667 12.0573 6.68843 11.8436 6.73096L11.6658 6.77167V15.0004C11.6658 15.4276 11.3443 15.7796 10.9301 15.8277L10.8329 15.8333C10.3729 15.8333 10 15.4604 9.99992 15.0004L9.99917 5.66937C10.7348 5.24367 11.5889 5 12.5 5ZM0.833333 10C1.29357 10 1.66667 10.3731 1.66667 10.8333V14.1667C1.66667 14.6269 1.29357 15 0.833333 15C0.373096 15 0 14.6269 0 14.1667V10.8333C0 10.3731 0.373096 10 0.833333 10Z" fill="#E3E3E3"/>
</svg>
