<svg width="20" height="20" viewBox="0 0 20 20" fill="none" xmlns="http://www.w3.org/2000/svg">
<path d="M4.51658 16.273C5.98116 17.5563 7.90199 18.3334 10.0013 18.3334C12.1027 18.3334 14.0214 17.5563 15.4888 16.273C16.7922 14.9452 12.4916 10.2251 10.0013 8.3445C7.5138 10.2251 3.21033 14.9452 4.51658 16.273ZM12.2666 6.26883C14.0027 8.32508 17.4638 13.4307 16.486 15.2355C17.6416 13.8057 18.3347 11.9869 18.3347 10.0028C18.3347 7.68341 17.3867 5.58481 15.8555 4.07508C15.8555 4.07508 15.8367 4.05981 15.7985 4.04591C15.7547 4.03064 15.693 4.01466 15.6034 4.01466C15.1922 4.01466 14.2249 4.31606 12.2666 6.26883ZM4.20547 4.04591C4.16589 4.05981 4.14852 4.07439 4.14574 4.07508C2.61589 5.58481 1.66797 7.68341 1.66797 10.0028C1.66797 11.9848 2.36102 13.8036 3.51589 15.2341C2.54297 13.4251 6.0013 8.32369 7.7381 6.26883C5.77977 4.31536 4.81033 4.01536 4.4006 4.01536C4.30964 4.01536 4.24574 4.02994 4.20547 4.04731V4.04591ZM10.0013 4.13272C10.0013 4.13272 7.95616 2.93619 6.35894 2.87925C5.73185 2.85633 5.34922 3.08411 5.30269 3.11466C6.79227 2.11536 8.37557 1.66675 9.99015 1.66675H10.0013C11.6222 1.66675 13.1992 2.11536 14.6999 3.11466C14.6527 3.08272 14.2728 2.85633 13.6443 2.87925C12.0472 2.93619 10.0013 4.12856 10.0013 4.12856V4.13272Z" fill="#E3E3E3"/>
</svg>
