<svg width="20" height="20" viewBox="0 0 20 20" fill="none" xmlns="http://www.w3.org/2000/svg">
<path d="M15.3402 13.9919C13.5297 13.1998 12.2409 12.6202 11.4737 12.2533C10.307 13.6666 9.08032 14.52 7.24032 14.52C5.40032 14.52 4.16699 13.3866 4.31366 11.9933C4.41366 11.08 5.04032 9.58662 7.75366 9.84662C9.18699 9.97996 9.84032 10.2466 11.0137 10.6333C11.3137 10.08 11.567 9.46662 11.7537 8.81996H6.56699V8.30663H9.12699V7.38663H6.00032V6.81996H9.12699V5.49329C9.12699 5.49329 9.15366 5.28663 9.38699 5.28663H10.667V6.82663H14.0003V7.39329H10.667V8.31329H13.387C13.1403 9.33329 12.7603 10.2666 12.287 11.08C12.7122 11.2313 14.0345 11.6431 16.2539 12.3154C16.5211 11.5941 16.667 10.8141 16.667 9.99996C16.667 6.31806 13.6822 3.33329 10.0003 3.33329C6.31842 3.33329 3.33366 6.31806 3.33366 9.99996C3.33366 13.6819 6.31842 16.6666 10.0003 16.6666C12.1851 16.6666 14.1243 15.6157 15.3402 13.9919ZM10.0003 18.3333C5.39795 18.3333 1.66699 14.6023 1.66699 9.99996C1.66699 5.39758 5.39795 1.66663 10.0003 1.66663C14.6027 1.66663 18.3337 5.39758 18.3337 9.99996C18.3337 14.6023 14.6027 18.3333 10.0003 18.3333ZM7.02699 13.64C8.22699 13.64 9.38032 12.9133 10.327 11.68C8.98699 11.0333 7.87366 10.7133 6.62699 10.7133C5.54032 10.7133 4.97366 11.38 4.87366 11.8933C4.77366 12.4066 5.08033 13.64 7.02699 13.64Z" fill="#E3E3E3"/>
</svg>
