<svg width="20" height="20" viewBox="0 0 20 20" fill="none" xmlns="http://www.w3.org/2000/svg">
<path d="M9.89285 18.1371C8.90093 18.1371 8.2396 17.6689 7.6489 17.2566C7.22908 16.9593 6.83528 16.677 6.37088 16.599C6.14425 16.5581 5.91392 16.5432 5.70215 16.5432C5.30835 16.5432 4.99628 16.6027 4.77337 16.6472C4.6322 16.6732 4.5133 16.6956 4.42043 16.6956C4.32384 16.6956 4.20124 16.6696 4.15294 16.5061C4.11207 16.3723 4.08606 16.2461 4.06006 16.1234C3.99319 15.8151 3.93746 15.6256 3.82229 15.6071C2.58143 15.4176 1.8384 15.1315 1.69351 14.7934C1.68236 14.7562 1.6675 14.7191 1.6675 14.6894C1.66007 14.5854 1.73438 14.4999 1.8384 14.4813C2.82291 14.3179 3.70712 13.7941 4.45386 12.9322C5.03343 12.2634 5.31578 11.617 5.34179 11.5464C5.34179 11.5389 5.34921 11.5389 5.34921 11.5389C5.4904 11.2455 5.52011 10.9966 5.43466 10.7922C5.27491 10.4096 4.74736 10.2461 4.387 10.1347C4.29411 10.1086 4.2161 10.0789 4.14922 10.0566C3.84086 9.934 3.32818 9.67392 3.39505 9.31358C3.44335 9.0535 3.78885 8.86775 4.0712 8.86775C4.14922 8.86775 4.2161 8.87892 4.27182 8.90867C4.58761 9.0535 4.87368 9.12783 5.11888 9.12783C5.42352 9.12783 5.56841 9.01267 5.60556 8.9755C5.59813 8.812 5.58699 8.64117 5.57584 8.48142C5.50154 7.34455 5.41609 5.9328 5.77646 5.12289C6.85757 2.70062 9.15351 2.50743 9.83343 2.50743C9.85201 2.50743 10.1306 2.5 10.1306 2.5C10.1418 2.5 10.1566 2.5 10.1715 2.5C10.8513 2.5 13.1473 2.68947 14.2284 5.11547C14.5925 5.92537 14.5033 7.34084 14.429 8.47392L14.4216 8.52967C14.4142 8.682 14.403 8.82692 14.3956 8.9755C14.4328 9.00525 14.5665 9.11667 14.8414 9.12042C15.0792 9.113 15.3393 9.03492 15.6364 8.90117C15.7293 8.86033 15.8259 8.8455 15.8965 8.8455C16.0005 8.8455 16.1046 8.8715 16.1938 8.90117H16.2012C16.4501 8.99408 16.6135 9.16867 16.6135 9.35075C16.621 9.52167 16.4873 9.78167 15.8519 10.038C15.7851 10.064 15.707 10.0937 15.6142 10.1161C15.2613 10.2238 14.7337 10.3947 14.5665 10.7737C14.4736 10.9742 14.5108 11.2306 14.6519 11.5204C14.6519 11.5278 14.6593 11.5278 14.6593 11.5278C14.7003 11.6318 15.7739 14.069 18.1628 14.4665C18.2668 14.4851 18.3337 14.5705 18.3337 14.6745C18.3337 14.7117 18.3263 14.7488 18.3077 14.7822C18.1628 15.1241 17.4272 15.4027 16.1788 15.5959C16.0637 15.6145 16.008 15.8039 15.9411 16.1123C15.9151 16.2386 15.8853 16.3612 15.8483 16.495C15.8111 16.6176 15.7331 16.6844 15.5993 16.6844H15.5808C15.4953 16.6844 15.3801 16.6732 15.2278 16.6436C14.9603 16.5878 14.6668 16.547 14.299 16.547C14.0798 16.547 13.8532 16.5656 13.6303 16.6027C13.1696 16.677 12.7721 16.9631 12.3523 17.2602C11.7541 17.6689 11.0891 18.1371 10.1046 18.1371C10.1046 18.1371 9.9226 18.1371 9.89285 18.1371Z" fill="#E3E3E3"/>
</svg>
