<svg width="20" height="20" viewBox="0 0 20 20" fill="none" xmlns="http://www.w3.org/2000/svg">
<path d="M4.54863 15.154C2.79965 13.8975 1.66797 12.0001 1.66797 9.9232C1.66797 6.10268 5.39739 3.00012 10.0013 3.00012C14.6052 3.00012 18.3347 6.10268 18.3347 9.9232C18.3347 13.7437 14.6052 16.8463 10.0013 16.8463C9.04965 16.8463 8.12373 16.718 7.27496 16.4616C7.1978 16.436 7.09492 16.436 7.01776 16.436C6.86344 16.436 6.70912 16.4873 6.58052 16.5642L4.75439 17.6155C4.70294 17.6411 4.6515 17.6668 4.60007 17.6668C4.44574 17.6668 4.31714 17.5386 4.31714 17.3847C4.31714 17.3078 4.34286 17.2565 4.36859 17.1796C4.3943 17.154 4.62579 16.3078 4.75439 15.795C4.75439 15.7437 4.7801 15.6668 4.7801 15.6155C4.7801 15.4104 4.70294 15.2565 4.54863 15.154ZM7.22352 8.75962C7.82126 8.75962 8.29447 8.28616 8.29447 7.6881C8.29447 7.09003 7.82126 6.61655 7.22352 6.61655C6.62579 6.61655 6.15257 7.09003 6.15257 7.6881C6.15257 8.28616 6.62579 8.75962 7.22352 8.75962ZM12.7791 8.75962C13.3768 8.75962 13.85 8.28616 13.85 7.6881C13.85 7.09003 13.3768 6.61655 12.7791 6.61655C12.1813 6.61655 11.7082 7.09003 11.7082 7.6881C11.7082 8.28616 12.1813 8.75962 12.7791 8.75962Z" fill="#E3E3E3"/>
</svg>
