<svg width="20" height="20" viewBox="0 0 20 20" fill="none" xmlns="http://www.w3.org/2000/svg">
<path d="M12.0843 2.5C12.7747 2.5 13.3343 3.05964 13.3343 3.75V7.91667C13.3343 8.607 12.7747 9.16667 12.0843 9.16667C11.3939 9.16667 10.8343 8.607 10.8343 7.91667V3.75C10.8343 3.05964 11.3939 2.5 12.0843 2.5ZM3.75098 10.8333H5.00098V12.0833C5.00098 12.7737 4.44133 13.3333 3.75098 13.3333C3.06062 13.3333 2.50098 12.7737 2.50098 12.0833C2.50098 11.393 3.06062 10.8333 3.75098 10.8333ZM10.8343 15H12.0843C12.7747 15 13.3343 15.5597 13.3343 16.25C13.3343 16.9403 12.7747 17.5 12.0843 17.5C11.3939 17.5 10.8343 16.9403 10.8343 16.25V15ZM12.0843 10.8333H16.251C16.9413 10.8333 17.501 11.393 17.501 12.0833C17.501 12.7737 16.9413 13.3333 16.251 13.3333H12.0843C11.3939 13.3333 10.8343 12.7737 10.8343 12.0833C10.8343 11.393 11.3939 10.8333 12.0843 10.8333ZM16.251 6.66667C16.9413 6.66667 17.501 7.22631 17.501 7.91667C17.501 8.607 16.9413 9.16667 16.251 9.16667H15.001V7.91667C15.001 7.22631 15.5606 6.66667 16.251 6.66667ZM3.75098 6.66667H7.91764C8.60799 6.66667 9.16766 7.22631 9.16766 7.91667C9.16766 8.607 8.60799 9.16667 7.91764 9.16667H3.75098C3.06062 9.16667 2.50098 8.607 2.50098 7.91667C2.50098 7.22631 3.06062 6.66667 3.75098 6.66667ZM7.91764 2.5C8.60799 2.5 9.16766 3.05964 9.16766 3.75V5H7.91764C7.22729 5 6.66764 4.44036 6.66764 3.75C6.66764 3.05964 7.22729 2.5 7.91764 2.5ZM7.91764 10.8333C8.60799 10.8333 9.16766 11.393 9.16766 12.0833V16.25C9.16766 16.9403 8.60799 17.5 7.91764 17.5C7.22729 17.5 6.66764 16.9403 6.66764 16.25V12.0833C6.66764 11.393 7.22729 10.8333 7.91764 10.8333Z" fill="#E3E3E3"/>
</svg>
