<svg width="20" height="20" viewBox="0 0 20 20" fill="none" xmlns="http://www.w3.org/2000/svg">
<path d="M10.0003 1.66663C14.6027 1.66663 18.3337 5.39758 18.3337 9.99996C18.3337 14.6023 14.6027 18.3333 10.0003 18.3333C5.39795 18.3333 1.66699 14.6023 1.66699 9.99996C1.66699 5.39758 5.39795 1.66663 10.0003 1.66663ZM7.35247 12.7855C7.02369 12.3885 6.61474 12.2464 6.12033 12.3616L5.99495 12.3958L5.50436 13.2425C5.31618 13.5719 5.42707 13.9919 5.75637 14.18C6.05823 14.3525 6.43632 14.2738 6.64218 14.0058L6.69387 13.928L7.35247 12.7855ZM11.0084 7.2177C10.6018 7.55373 10.1918 8.54838 10.7665 9.53963L13.3001 13.928C13.4916 14.2574 13.9082 14.3682 14.2376 14.18C14.5394 14.0045 14.6577 13.6397 14.5304 13.3265L14.4896 13.2425L13.8209 12.0833H14.8122C15.1918 12.0833 15.4977 11.7775 15.4977 11.3978C15.4977 11.0473 15.2371 10.7598 14.8983 10.7176L14.8122 10.7123H13.0279L11.2003 7.5478L11.0084 7.2177ZM11.2402 4.68074C10.9384 4.50825 10.5603 4.58705 10.3544 4.85503L10.3027 4.93275L9.99699 5.46031L9.69791 4.93275C9.50641 4.60345 9.08974 4.49257 8.76041 4.68074C8.45857 4.85631 8.34024 5.22106 8.46749 5.53428L8.50841 5.61824L9.20732 6.83128L6.96941 10.709H5.2221C4.84239 10.709 4.53662 11.0147 4.53662 11.3945C4.53662 11.745 4.79716 12.0325 5.13589 12.0746L5.2221 12.08H11.4553C11.7394 11.5468 11.4048 10.7893 10.7801 10.7149L10.6791 10.709H8.55207L11.4922 5.61824C11.6804 5.28893 11.5696 4.86891 11.2402 4.68074Z" fill="#E3E3E3"/>
</svg>
