<svg width="20" height="20" viewBox="0 0 20 20" fill="none" xmlns="http://www.w3.org/2000/svg">
<path d="M10.0007 15.2452C9.0965 15.7778 8.0426 16.0833 6.91732 16.0833C3.55758 16.0833 0.833984 13.3597 0.833984 10C0.833984 6.64023 3.55758 3.91663 6.91732 3.91663C8.0426 3.91663 9.0965 4.22216 10.0007 4.75479C10.9047 4.22216 11.9587 3.91663 13.084 3.91663C16.4437 3.91663 19.1673 6.64023 19.1673 10C19.1673 13.3597 16.4437 16.0833 13.084 16.0833C11.9587 16.0833 10.9047 15.7778 10.0007 15.2452ZM11.4187 14.0919C11.9327 14.3012 12.4948 14.4167 13.084 14.4167C15.5232 14.4167 17.5007 12.4393 17.5007 10C17.5007 7.5607 15.5232 5.58329 13.084 5.58329C12.4948 5.58329 11.9327 5.69864 11.4187 5.90798C12.4016 6.98849 13.0007 8.42425 13.0007 10C13.0007 11.5757 12.4016 13.0114 11.4187 14.0919ZM8.5825 5.90798C8.06862 5.69864 7.50644 5.58329 6.91732 5.58329C4.47806 5.58329 2.50065 7.5607 2.50065 10C2.50065 12.4393 4.47806 14.4167 6.91732 14.4167C7.50644 14.4167 8.06862 14.3012 8.5825 14.0919C7.59972 13.0114 7.00065 11.5757 7.00065 10C7.00065 8.42425 7.59972 6.98849 8.5825 5.90798ZM10.0007 6.83768C9.17808 7.63984 8.66733 8.76025 8.66733 10C8.66733 11.2397 9.17808 12.3601 10.0007 13.1623C10.8232 12.3601 11.334 11.2397 11.334 10C11.334 8.76025 10.8232 7.63984 10.0007 6.83768Z" fill="#E3E3E3"/>
</svg>
