<svg width="20" height="20" viewBox="0 0 20 20" fill="none" xmlns="http://www.w3.org/2000/svg">
<path d="M10.0003 10.8839L13.7253 14.6091L10.0003 18.3333L6.27532 14.6083L10.0003 10.8839ZM3.33339 13.4339L6.56589 16.6664L3.33366 16.6666L3.33339 13.4339ZM16.6667 13.4339L16.667 16.6666L13.4342 16.6664L16.6667 13.4339ZM14.6087 6.27496L18.3337 9.99996L14.6095 13.725L10.8842 9.99996L14.6087 6.27496ZM5.39199 6.27496L9.11641 9.99996L5.39116 13.7241L1.66699 9.99996L5.39199 6.27496ZM10.0003 1.66663L13.7245 5.39079L10.0003 9.11604L6.27532 5.39163L10.0003 1.66663ZM6.56589 3.33303L3.33339 6.56553L3.33366 3.33329L6.56589 3.33303ZM16.667 3.33329L16.6667 6.56553L13.4342 3.33303L16.667 3.33329Z" fill="#E3E3E3"/>
</svg>
