<svg width="20" height="20" viewBox="0 0 20 20" fill="none" xmlns="http://www.w3.org/2000/svg">
<path d="M10.0013 18.3333C5.39893 18.3333 1.66797 14.6023 1.66797 9.99996C1.66797 5.39758 5.39893 1.66663 10.0013 1.66663C14.6037 1.66663 18.3347 5.39758 18.3347 9.99996C18.3347 14.6023 14.6037 18.3333 10.0013 18.3333ZM10.0013 16.6666C13.6832 16.6666 16.668 13.6819 16.668 9.99996C16.668 6.31806 13.6832 3.33329 10.0013 3.33329C6.3194 3.33329 3.33464 6.31806 3.33464 9.99996C3.33464 13.6819 6.3194 16.6666 10.0013 16.6666ZM11.1126 9.99996C11.8029 9.99996 12.3626 9.44029 12.3626 8.74996C12.3626 8.0596 11.8029 7.49996 11.1126 7.49996H8.75132V9.99996H11.1126ZM11.1126 5.83329C12.7234 5.83329 14.0292 7.13912 14.0292 8.74996C14.0292 10.3608 12.7234 11.6666 11.1126 11.6666H8.75132V14.1666H7.08464V5.83329H11.1126Z" fill="#E3E3E3"/>
</svg>
