<svg width="20" height="20" viewBox="0 0 20 20" fill="none" xmlns="http://www.w3.org/2000/svg">
<path d="M10.0013 7.49996C8.62015 7.49996 7.5013 8.61921 7.5013 9.99996C7.5013 11.381 8.62057 12.5 10.0013 12.5C11.3824 12.5 12.5013 11.3807 12.5013 9.99996C12.5013 8.61888 11.3821 7.49996 10.0013 7.49996ZM10.0013 5.83329C12.3017 5.83329 14.168 7.69754 14.168 9.99996C14.168 12.3004 12.3037 14.1666 10.0013 14.1666C7.70091 14.1666 5.83464 12.3024 5.83464 9.99996C5.83464 7.69957 7.69889 5.83329 10.0013 5.83329ZM15.418 5.62425C15.418 6.19934 14.9507 6.66593 14.3763 6.66593C13.8012 6.66593 13.3347 6.19863 13.3347 5.62425C13.3347 5.04988 13.8019 4.58329 14.3763 4.58329C14.9499 4.58257 15.418 5.04988 15.418 5.62425ZM10.0013 3.33329C7.93924 3.33329 7.60314 3.33875 6.64404 3.38146C5.99061 3.41213 5.55259 3.50002 5.14562 3.65802C4.78395 3.79828 4.52306 3.96578 4.24509 4.24375C3.96604 4.52279 3.79885 4.78298 3.65915 5.14482C3.50079 5.55273 3.41293 5.99005 3.3828 6.64258C3.33968 7.56262 3.33464 7.88417 3.33464 9.99996C3.33464 12.062 3.34009 12.3981 3.38279 13.3571C3.41349 14.0103 3.50149 14.449 3.6591 14.855C3.79974 15.2171 3.96757 15.4786 4.2442 15.7553C4.52434 16.035 4.78531 16.2028 5.14371 16.3411C5.55564 16.5004 5.99339 16.5884 6.64392 16.6185C7.56397 16.6615 7.88551 16.6666 10.0013 16.6666C12.0634 16.6666 12.3995 16.6611 13.3585 16.6185C14.0102 16.5879 14.4492 16.4996 14.8563 16.3421C15.2175 16.2019 15.4798 16.0335 15.7567 15.757C16.0368 15.4765 16.2042 15.2161 16.3427 14.8569C16.5016 14.4465 16.5897 14.0081 16.6198 13.3574C16.6629 12.4373 16.668 12.1157 16.668 9.99996C16.668 7.93789 16.6625 7.6018 16.6198 6.64277C16.5892 5.99084 16.5009 5.5512 16.3432 5.14428C16.2033 4.78361 16.0352 4.52192 15.7575 4.24375C15.478 3.96425 15.2185 3.7974 14.8564 3.65781C14.4488 3.49958 14.0108 3.41159 13.3587 3.38147C12.4387 3.33833 12.1171 3.33329 10.0013 3.33329ZM10.0013 1.66663C12.2652 1.66663 12.5478 1.67496 13.4367 1.71663C14.3235 1.7576 14.9284 1.89788 15.4597 2.10413C16.0089 2.31593 16.4728 2.60204 16.936 3.06523C17.3985 3.52843 17.6847 3.99371 17.8972 4.54163C18.1027 5.07218 18.243 5.67773 18.2847 6.56454C18.3242 7.45343 18.3347 7.73607 18.3347 9.99996C18.3347 12.2639 18.3263 12.5465 18.2847 13.4354C18.2437 14.3222 18.1027 14.927 17.8972 15.4583C17.6853 16.0076 17.3985 16.4715 16.936 16.9347C16.4728 17.3972 16.0068 17.6833 15.4597 17.8958C14.9284 18.1014 14.3235 18.2416 13.4367 18.2833C12.5478 18.3229 12.2652 18.3333 10.0013 18.3333C7.73741 18.3333 7.45477 18.325 6.56589 18.2833C5.67908 18.2423 5.07491 18.1014 4.54297 17.8958C3.99435 17.684 3.52977 17.3972 3.06658 16.9347C2.60339 16.4715 2.31797 16.0055 2.10547 15.4583C1.89922 14.927 1.75964 14.3222 1.71797 13.4354C1.67839 12.5465 1.66797 12.2639 1.66797 9.99996C1.66797 7.73607 1.6763 7.45343 1.71797 6.56454C1.75894 5.67704 1.89922 5.07288 2.10547 4.54163C2.31727 3.99302 2.60339 3.52843 3.06658 3.06523C3.52977 2.60204 3.99505 2.31663 4.54297 2.10413C5.07422 1.89788 5.67839 1.75829 6.56589 1.71663C7.45477 1.67704 7.73741 1.66663 10.0013 1.66663Z" fill="#E3E3E3"/>
</svg>
