<svg width="20" height="20" viewBox="0 0 20 20" fill="none" xmlns="http://www.w3.org/2000/svg">
<g clip-path="url(#clip0_1525_58)">
<path d="M8.84533 14.8297L9.57667 13.1545C10.2276 11.6639 11.3991 10.4772 12.8604 9.82854L14.8735 8.93496C15.5135 8.65087 15.5135 7.71977 14.8735 7.43568L12.9233 6.56999C11.4243 5.90464 10.2318 4.67405 9.59208 3.13249L8.85125 1.34732C8.57633 0.684846 7.66099 0.684847 7.38608 1.34732L6.64523 3.13247C6.00548 4.67405 4.81294 5.90464 3.31404 6.56999L1.36382 7.43568C0.72378 7.71977 0.72378 8.65087 1.36382 8.93496L3.37692 9.82854C4.83824 10.4772 6.00976 11.6639 6.66063 13.1545L7.392 14.8297C7.67313 15.4735 8.56417 15.4735 8.84533 14.8297ZM16.1678 18.9083L16.3735 18.4369C16.7402 17.5964 17.4006 16.9271 18.2246 16.561L18.8583 16.2795C19.201 16.1272 19.201 15.6291 18.8583 15.4769L18.2601 15.211C17.4148 14.8355 16.7426 14.1415 16.3822 13.2725L16.171 12.763C16.0238 12.408 15.5329 12.408 15.3857 12.763L15.1745 13.2725C14.8142 14.1415 14.1419 14.8355 13.2967 15.211L12.6984 15.4769C12.3558 15.6291 12.3558 16.1272 12.6984 16.2795L13.3321 16.561C14.1562 16.9271 14.8165 17.5964 15.1832 18.4369L15.3889 18.9083C15.5394 19.2534 16.0173 19.2534 16.1678 18.9083Z" fill="#E3E3E3"/>
</g>
<defs>
<clipPath id="clip0_1525_58">
<rect width="20" height="20" fill="white"/>
</clipPath>
</defs>
</svg>
