<svg width="20" height="20" viewBox="0 0 20 20" fill="none" xmlns="http://www.w3.org/2000/svg">
<path d="M0.978537 6.9176C0.743613 6.57299 0.76854 6.57299 1.25137 6.14889C2.27807 5.24709 3.24684 4.26097 4.36505 3.47234C5.37772 2.76238 6.71998 2.30434 7.63705 3.4335C8.48242 4.47405 8.50234 6.05131 8.71642 7.30794C8.9305 8.61134 9.13567 9.94467 9.59267 11.1923C9.71917 11.5428 9.96109 12.206 10.3993 12.2618C10.9638 12.3394 11.5393 11.3487 11.8013 10.9783C12.4823 9.99542 13.4054 8.67109 13.2889 7.40651C13.1743 6.06326 11.7236 6.31618 10.8174 6.6368C10.9628 5.12925 12.3658 3.4345 13.7171 2.86095C15.1499 2.26649 17.2808 2.27645 18.0008 3.89254C18.7694 5.64405 18.0784 7.67835 17.241 9.26559C16.3269 10.9892 15.1499 12.5843 13.8923 14.074C12.7831 15.3973 11.4707 16.8491 9.81675 17.4814C7.92781 18.2013 6.8086 16.7983 6.16535 15.1733C5.46335 13.4038 5.11385 11.4183 4.60702 9.57625C4.39393 8.79759 4.14101 7.91135 3.63517 7.2691C2.975 6.43964 2.2252 7.21931 1.573 7.6664C1.34895 7.44435 1.16375 7.16056 0.978537 6.9176Z" fill="#E3E3E3"/>
</svg>
