<svg width="20" height="20" viewBox="0 0 20 20" fill="none" xmlns="http://www.w3.org/2000/svg">
<path d="M9.31134 18.796C9.52443 18.9115 9.75393 18.9775 9.99984 18.9775C10.2457 18.9775 10.4915 18.9115 10.6882 18.829L17.2284 15.0192C17.6542 14.7718 17.9163 14.31 17.9163 13.8151V6.21201C17.9163 5.71717 17.6542 5.2554 17.2284 5.00799L10.6882 1.19819C10.2784 0.967304 9.72109 0.967304 9.31134 1.19819L2.77137 5.00799C2.34524 5.2554 2.08301 5.71717 2.08301 6.21201V13.8151C2.08301 14.31 2.34524 14.7718 2.77137 15.0192L4.49242 16.0088C5.32841 16.421 5.62346 16.421 6.00042 16.421C7.22971 16.421 7.93453 15.6624 7.93453 14.3595V6.85523C7.93453 6.73975 7.83617 6.65733 7.73782 6.65733H6.90193C6.78713 6.65733 6.70523 6.75628 6.70523 6.85523V14.3595C6.70523 14.9367 6.09877 15.514 5.13171 15.0192L3.34512 13.98C3.27949 13.9471 3.24677 13.8647 3.24677 13.7987V6.19548C3.24677 6.1295 3.27949 6.0471 3.34512 6.01411L9.88509 2.22075C9.93418 2.18777 10.0162 2.18777 10.0817 2.22075L16.6218 6.01411C16.6869 6.0471 16.7203 6.11306 16.7203 6.19548V13.7987C16.7203 13.8811 16.6869 13.9471 16.6218 13.98L10.0817 17.79C10.0325 17.823 9.95059 17.823 9.88509 17.79L8.21321 16.784C8.16403 16.751 8.09842 16.7344 8.04924 16.7674C7.5903 17.0313 7.5084 17.0642 7.06582 17.2127C6.96747 17.2457 6.80358 17.3117 7.13136 17.4931L9.31134 18.796ZM8.57359 11.3082C8.57359 12.4297 9.16359 13.7492 12.0324 13.7492C14.0971 13.7492 15.2939 12.9245 15.2939 11.4731C15.2939 10.0548 14.343 9.67537 12.3271 9.41154C10.2946 9.1477 10.0815 8.9992 10.0815 8.52087C10.0815 8.1251 10.2618 7.59736 11.7698 7.59736C13.1136 7.59736 13.6216 7.89422 13.8187 8.80129C13.8349 8.88379 13.9172 8.94979 13.9986 8.94979H14.8673C14.917 8.94979 14.9658 8.91679 14.9992 8.88379C15.0318 8.83429 15.048 8.78487 15.048 8.73537C14.917 7.15205 13.8846 6.42633 11.7862 6.42633C9.91759 6.42633 8.80301 7.21801 8.80301 8.55387C8.80301 9.98879 9.91759 10.3846 11.7042 10.566C13.8513 10.7805 14.0157 11.0939 14.0157 11.5226C14.0157 12.2648 13.4254 12.5782 12.0487 12.5782C10.311 12.5782 9.93401 12.1494 9.80293 11.2752C9.80293 11.1763 9.72093 11.1103 9.62259 11.1103H8.77026C8.65551 11.1103 8.57359 11.2093 8.57359 11.3082Z" fill="#E3E3E3"/>
</svg>
