<svg width="20" height="20" viewBox="0 0 20 20" fill="none" xmlns="http://www.w3.org/2000/svg">
<path d="M9.79325 18.3308C5.44215 18.2245 1.91808 14.783 1.68021 10.4658L1.66992 10.205L9.79325 18.3308ZM10.0007 1.66663C12.825 1.66663 15.3212 3.0716 16.8283 5.22075L15.4633 6.1774C14.2577 4.45763 12.2605 3.33329 10.0007 3.33329C7.16486 3.33329 4.74254 5.10399 3.77909 7.6001L12.4006 16.2216C14.3901 15.4537 15.9187 13.759 16.4573 11.667L12.9174 11.6666V9.99996H18.3341C18.3341 13.9384 15.6019 17.2387 11.9296 18.109L1.89177 8.07111C2.76202 4.39876 6.06232 1.66663 10.0007 1.66663Z" fill="#E3E3E3"/>
</svg>
