<svg width="20" height="20" viewBox="0 0 20 20" fill="none" xmlns="http://www.w3.org/2000/svg">
<path d="M10.0013 1.66675C14.6037 1.66675 18.3347 5.39771 18.3347 10.0001C18.3347 14.6024 14.6037 18.3334 10.0013 18.3334C8.47307 18.3334 7.04091 17.9221 5.80954 17.204L1.67145 18.3334L2.79809 14.193C2.0796 12.9614 1.66797 11.5288 1.66797 10.0001C1.66797 5.39771 5.39893 1.66675 10.0013 1.66675ZM6.99409 6.09036C6.88626 6.09793 6.78054 6.12426 6.68429 6.17351C6.61209 6.21045 6.54505 6.26384 6.43973 6.3633C6.34027 6.45721 6.28263 6.53922 6.22189 6.6183C5.91381 7.01941 5.74823 7.51179 5.7513 8.01756C5.75298 8.42641 5.85918 8.82375 6.02689 9.19475C6.367 9.94708 6.92789 10.7424 7.66877 11.48C7.84674 11.6572 8.02109 11.8362 8.2091 12.0017C9.12865 12.8114 10.2245 13.3952 11.4094 13.7069C11.4094 13.7069 11.8761 13.7786 11.8829 13.779C12.0375 13.7873 12.1918 13.7762 12.3466 13.7682C12.5893 13.7557 12.8263 13.6901 13.0408 13.5758C13.1787 13.5024 13.244 13.4659 13.3597 13.3929C13.3597 13.3929 13.3952 13.3689 13.4637 13.3179C13.5762 13.2341 13.6457 13.1751 13.7393 13.0779C13.8083 13.0062 13.8677 12.9216 13.9135 12.8262C13.9787 12.6902 14.0442 12.4306 14.0703 12.215C14.0902 12.0503 14.0842 11.9603 14.0821 11.9046C14.0785 11.8149 14.0044 11.7227 13.9232 11.6835L13.4387 11.4657C13.4387 11.4657 12.7141 11.1503 12.2709 10.9482C12.2247 10.9271 12.1742 10.9173 12.1235 10.9142C12.0123 10.9074 11.8877 10.9364 11.8085 11.0199C11.8043 11.0182 11.7492 11.0659 11.1462 11.7963C11.113 11.8361 11.0351 11.9225 10.9003 11.9144C10.88 11.913 10.8597 11.9101 10.84 11.9049C10.7854 11.8905 10.7322 11.8715 10.6802 11.8495C10.5772 11.8057 10.541 11.7892 10.4706 11.7588C9.98949 11.5487 9.54799 11.2675 9.15774 10.9234C9.05307 10.8312 8.95574 10.732 8.8554 10.6347C8.50524 10.2953 8.21856 9.93433 8.00529 9.57825C7.99365 9.55883 7.97571 9.53075 7.95639 9.49933C7.92149 9.44258 7.88301 9.37508 7.87094 9.32875C7.83997 9.20616 7.92214 9.10766 7.92214 9.10766C7.92214 9.10766 8.12498 8.88591 8.21922 8.76533C8.30989 8.64925 8.38815 8.53575 8.43799 8.45483C8.53615 8.29702 8.56724 8.13393 8.51565 8.0081C8.28185 7.43812 8.04064 6.87121 7.79204 6.30753C7.74297 6.19629 7.59703 6.11546 7.46431 6.10014C7.41936 6.09495 7.37444 6.08973 7.32931 6.08676C7.21759 6.08131 7.10565 6.08251 6.99409 6.09036Z" fill="#E3E3E3"/>
</svg>
