<svg width="20" height="20" viewBox="0 0 20 20" fill="none" xmlns="http://www.w3.org/2000/svg">
<path d="M8.2533 18.199C4.61632 18.199 1.66797 15.2503 1.66797 11.613C1.66797 8.57516 3.7242 5.88315 6.52113 5.25717C9.78882 4.52583 11.2743 3.9517 12.4185 1.66675C13.2507 3.2794 12.6883 4.75815 12.4196 5.5646C16.3337 4.62374 17.7282 2.83031 18.0641 2.60761C18.0641 5.90062 17.0378 7.98396 16.0482 9.328C17.278 9.28191 17.7218 8.92483 18.3347 8.83933C18.0641 10.0462 17.0838 11.7474 14.7255 12.8348C14.1527 15.8884 11.4728 18.199 8.2533 18.199ZM11.3444 12.8227C11.3444 13.0915 11.3001 13.2259 11.0084 13.2259L8.38315 13.2276L10.8507 10.521C11.5671 9.8045 11.5671 9.44625 11.5671 8.53083C11.5671 8.25218 11.5273 7.93376 11.6069 7.65514C11.6467 7.53573 11.5671 7.49592 11.4477 7.53573C11.1691 7.61533 10.6915 7.61533 9.89557 7.61533H6.31364C6.11464 7.61533 6.03505 7.49592 6.11464 7.33671C6.11464 7.29691 6.11464 7.1775 6.03504 7.1775C5.51766 7.41632 5.39827 8.491 5.43806 9.16766C5.43806 9.52591 5.63706 9.72491 5.91565 9.72491H8.7414L5.83605 12.8295C5.63706 13.0683 5.43806 13.3867 5.43806 13.8246V14.7002C5.43806 15.0983 5.67686 15.3372 6.11464 15.4167H11.1045C11.5671 15.4167 11.882 15.2222 11.882 14.7044V13.7635C11.882 13.5897 11.882 12.9571 11.3444 12.8227Z" fill="#E3E3E3"/>
</svg>
