<svg width="20" height="20" viewBox="0 0 20 20" fill="none" xmlns="http://www.w3.org/2000/svg">
<path d="M9.40991 3.1785L11.092 7.93405L11.4217 8.86429L11.4278 4.85525L11.4353 0.840941H14.9944L15.0005 9.89279C15.0027 14.8766 14.9974 18.9681 14.9876 18.9757C14.9777 18.9832 14.8137 18.9757 14.6246 18.953C13.8002 18.8547 12.7165 18.7564 11.8415 18.7185C11.5526 18.705 11.3136 18.6898 11.3106 18.6868C11.3083 18.6838 11.0837 18.0515 10.664 16.8665L10.6641 16.8633C10.2544 15.7064 9.65441 14.0101 8.87766 11.8122L8.59399 11.0179L8.58799 14.8389C8.58266 18.4765 8.57966 18.6807 8.54033 18.6807C8.40424 18.6807 7.23198 18.7564 6.84023 18.7942C6.5831 18.8169 6.06883 18.8698 5.69826 18.9152C5.32693 18.9575 5.01837 18.9863 5.01232 18.9802C5.00627 18.9741 5.00098 14.8895 5.00098 9.90262V0.834891H5.00528L5.00475 0.833374H8.57816L8.60158 0.900682C8.60749 0.913024 8.65558 1.04707 8.73266 1.26407L9.26716 2.746L9.41083 3.15892L9.40991 3.1785Z" fill="#E3E3E3"/>
</svg>
