<svg width="20" height="20" viewBox="0 0 20 20" fill="none" xmlns="http://www.w3.org/2000/svg">
<path d="M5.78357 4.16657C5.78326 4.84516 5.37157 5.45581 4.74262 5.71057C4.11367 5.96533 3.39306 5.81333 2.92059 5.32625C2.44811 4.83916 2.31813 4.11425 2.59192 3.49335C2.86572 2.87245 3.48862 2.47954 4.1669 2.4999C5.06779 2.52694 5.78398 3.26527 5.78357 4.16657ZM5.83357 7.06657H2.50024V17.4999H5.83357V7.06657ZM11.1003 7.06657H7.78357V17.4999H11.0669V12.0249C11.0669 8.97488 15.0419 8.69154 15.0419 12.0249V17.4999H18.3336V10.8915C18.3336 5.7499 12.4503 5.94157 11.0669 8.46654L11.1003 7.06657Z" fill="#E3E3E3"/>
</svg>
