<svg width="20" height="20" viewBox="0 0 20 20" fill="none" xmlns="http://www.w3.org/2000/svg">
<path d="M10.9355 1.84759C10.5752 1.56124 10.051 1.6212 9.76466 1.98151C9.47824 2.34182 9.53824 2.86604 9.89857 3.15239L12.7477 5.41666H3.75036C3.29012 5.41666 2.91702 5.78975 2.91702 6.25C2.91702 6.71023 3.29012 7.08333 3.75036 7.08333H8.31012L0.732321 13.0972C0.371818 13.3834 0.311505 13.9075 0.597609 14.268C0.883709 14.6285 1.40789 14.6889 1.76839 14.4027L6.28746 10.8163C6.26296 11.027 6.25036 11.2411 6.25036 11.4583C6.25036 14.8814 9.32641 17.5 12.917 17.5C16.5076 17.5 19.5837 14.8814 19.5837 11.4583C19.5837 9.58605 18.6472 7.93576 17.2209 6.84285L10.9355 1.84759ZM9.63749 8.15766C10.5094 7.49332 11.6532 7.08333 12.917 7.08333C14.1837 7.08333 15.3297 7.49515 16.2024 8.1621C17.2722 8.97971 17.917 10.1651 17.917 11.4583C17.917 13.7883 15.7697 15.8333 12.917 15.8333C10.0643 15.8333 7.91702 13.7883 7.91702 11.4583C7.91702 10.2251 8.50341 9.08996 9.48549 8.27825L9.63749 8.15766ZM12.0651 11.7432C11.8347 11.5261 11.7331 11.272 11.7474 11.0085C11.7742 10.5377 12.2674 9.99996 12.9962 9.99996C13.7237 9.99996 14.2169 10.5365 14.2447 11.0075C14.2592 11.2825 14.1546 11.5352 13.9297 11.7468C13.6917 11.9709 13.3487 12.1133 12.9962 12.1133C12.6516 12.1133 12.3074 11.9716 12.0651 11.7432ZM12.9962 8.33329C11.5412 8.33329 10.1676 9.41221 10.0833 10.916C9.99391 12.5376 11.4381 13.78 12.9962 13.78C14.5595 13.78 15.9979 12.5493 15.9087 10.915C15.8236 9.41196 14.4508 8.33329 12.9962 8.33329Z" fill="#E3E3E3"/>
</svg>
