<svg width="20" height="20" viewBox="0 0 20 20" fill="none" xmlns="http://www.w3.org/2000/svg">
<path d="M2.5 7.50742C2.5 4.74189 4.74226 2.49963 7.50779 2.49963H10C12.7577 2.49963 14.9952 4.72927 15.0077 7.48406H15.7944C16.7531 7.48406 17.5 8.23098 17.5 9.18963V12.4919C17.5 15.2574 15.2577 17.4996 12.4922 17.4996H7.50779C4.74226 17.4996 2.5 15.2574 2.5 12.4919V7.50742ZM7.50779 4.1663C5.66273 4.1663 4.16667 5.66237 4.16667 7.50742V12.4919C4.16667 14.3369 5.66273 15.833 7.50779 15.833H12.4922C14.3372 15.833 15.8333 14.3369 15.8333 12.4919V9.16671H15C14.1036 9.16671 13.3333 8.39638 13.3333 7.50004C13.3333 5.65498 11.8451 4.1663 10 4.1663H7.50779ZM6.66667 7.50004C6.66667 7.03981 7.03977 6.66671 7.5 6.66671H10.4167C10.8769 6.66671 11.25 7.03981 11.25 7.50004C11.25 7.96028 10.8769 8.33337 10.4167 8.33337H7.5C7.03977 8.33337 6.66667 7.96028 6.66667 7.50004ZM7.5 11.6667C7.03977 11.6667 6.66667 12.0398 6.66667 12.5C6.66667 12.9603 7.03977 13.3334 7.5 13.3334H12.5C12.9602 13.3334 13.3333 12.9603 13.3333 12.5C13.3333 12.0398 12.9602 11.6667 12.5 11.6667H7.5Z" fill="#E3E3E3"/>
</svg>
