<svg width="20" height="20" viewBox="0 0 20 20" fill="none" xmlns="http://www.w3.org/2000/svg">
<path d="M17.6322 3.54795C17.6607 6.46443 18.1248 7.55742 18.2887 9.13279C18.5395 11.5444 17.7409 14.0445 15.8928 15.8925C12.8376 18.9478 8.00016 19.1347 4.72683 16.4533L7.10316 14.076C9.05585 15.4675 11.7841 15.2873 13.5358 13.5355C15.2878 11.7835 15.4678 9.05479 14.0759 7.1021L17.6322 3.54795ZM15.2738 3.54666L12.8975 5.92389C10.9448 4.53246 8.21658 4.71264 6.4648 6.46443C4.713 8.21621 4.53283 10.9445 5.92425 12.8971L2.36851 16.452C2.34 13.5355 1.87583 12.4425 1.71196 10.8671C1.46111 8.45554 2.25971 5.95546 4.10777 4.1074C7.16305 1.05213 12.0005 0.865217 15.2738 3.54666ZM10.0003 6.66663C11.8413 6.66663 13.3337 8.15901 13.3337 9.99996C13.3337 11.8409 11.8413 13.3333 10.0003 13.3333C8.15938 13.3333 6.667 11.8409 6.667 9.99996C6.667 8.15901 8.15938 6.66663 10.0003 6.66663ZM10.0003 8.74996C9.30993 8.74996 8.75035 9.30963 8.75035 9.99996C8.75035 10.6903 9.30993 11.25 10.0003 11.25C10.6907 11.25 11.2503 10.6903 11.2503 9.99996C11.2503 9.30963 10.6907 8.74996 10.0003 8.74996Z" fill="#E3E3E3"/>
</svg>
