<svg width="20" height="20" viewBox="0 0 20 20" fill="none" xmlns="http://www.w3.org/2000/svg">
<path d="M7.17762 16.7661C4.89112 18.0085 2.91703 18.2657 1.82591 17.1755C0.70608 16.0578 1.30239 13.1323 2.92011 10.1973C3.71008 8.764 4.7436 7.32841 5.9398 6.09989C6.09605 5.94388 6.8773 5.16381 6.92939 5.16381C6.92939 5.16381 6.51272 5.42383 6.46064 5.42383C4.83561 6.33653 3.40865 7.99079 3.09697 8.36208C3.1451 8.14602 3.20257 7.93343 3.2689 7.72482C4.23237 4.69503 7.06864 2.50007 10.4176 2.50007C10.6092 2.50007 10.799 2.50725 10.987 2.52136C13.5657 1.35239 15.9652 1.08282 16.9801 2.09554C17.9176 3.03163 17.8655 4.59176 17.0842 6.46393C17.0767 6.48206 17.0692 6.49993 17.0617 6.51753C17.6083 7.55819 17.9176 8.743 17.9176 10.0001C17.9176 10.3162 17.898 10.6276 17.8601 10.9334H17.1897C17.1471 10.9349 17.1077 10.9356 17.0714 10.9356H7.24189V11.0917C7.29327 12.7558 8.75158 14.2119 10.5224 14.2119C11.7724 14.2119 12.9703 13.5358 13.4912 12.5478H17.4737C17.4675 12.5653 17.461 12.5827 17.4544 12.6001C16.3973 15.4607 13.6457 17.5001 10.4176 17.5001C9.25716 17.5001 8.15833 17.2366 7.17762 16.7661ZM6.67194 16.4993C5.15041 15.6204 3.96626 14.2227 3.36142 12.5479C2.39425 14.4493 2.14515 16.0395 2.97105 16.8642C3.64814 17.5409 5.0023 17.3842 6.66897 16.5008L6.67194 16.4993ZM16.8108 6.07682C16.8152 6.06743 16.8195 6.05802 16.8238 6.04858C17.4488 4.69647 17.5009 3.55306 16.928 2.877C16.2037 2.15376 14.8112 2.2516 13.159 3.01691C14.6829 3.61564 15.9634 4.69881 16.8108 6.07682ZM13.8037 8.96083V8.90883C13.6995 7.19268 12.3453 5.89257 10.6787 5.89257C8.90783 5.89257 7.39814 7.29669 7.29397 8.90883V8.96083H13.8037Z" fill="#E3E3E3"/>
</svg>
