<svg width="20" height="20" viewBox="0 0 20 20" fill="none" xmlns="http://www.w3.org/2000/svg">
<path d="M3.99875 12.9042C4.93507 10.8039 6.66511 8.37166 7.7381 7.10216C6.6976 6.06425 5.93627 5.49311 5.38973 5.18573C4.12322 6.39921 3.33464 8.10756 3.33464 10.0001C3.33464 11.0411 3.57324 12.0264 3.99875 12.9042ZM7.37474 3.87077C8.70774 4.20926 10.0013 4.96606 10.0013 4.96606V4.96189C10.0013 4.96189 11.2946 4.20812 12.6274 3.87059C11.8216 3.52486 10.9337 3.33341 10.0013 3.33341C9.06865 3.33341 8.18074 3.52493 7.37474 3.87077ZM14.6132 5.18606C14.0671 5.49382 13.3066 6.06513 12.2666 7.10216C13.3385 8.37175 15.0679 10.8037 16.0042 12.9034C16.4295 12.0258 16.668 11.0407 16.668 10.0001C16.668 8.10772 15.8795 6.39952 14.6132 5.18606ZM14.9531 14.4638C13.7842 12.6002 11.5449 10.3436 10.0013 9.17783C8.45915 10.3437 6.219 12.601 5.05033 14.4647C6.27044 15.8169 8.03662 16.6667 10.0013 16.6667C11.9664 16.6667 13.733 15.8165 14.9531 14.4638ZM10.0013 18.3334C5.39893 18.3334 1.66797 14.6024 1.66797 10.0001C1.66797 5.39771 5.39893 1.66675 10.0013 1.66675C14.6037 1.66675 18.3347 5.39771 18.3347 10.0001C18.3347 14.6024 14.6037 18.3334 10.0013 18.3334Z" fill="#E3E3E3"/>
</svg>
