<svg width="20" height="20" viewBox="0 0 20 20" fill="none" xmlns="http://www.w3.org/2000/svg">
<path d="M6.47129 16.0208C6.96224 15.8043 7.51281 15.7636 8.02812 15.905C8.66982 16.0802 9.33215 16.1682 10.0013 16.1666C13.8222 16.1666 16.668 13.4279 16.668 9.74996C16.668 6.07205 13.8222 3.33329 10.0013 3.33329C6.18036 3.33329 3.33464 6.07205 3.33464 9.74996C3.33464 11.6415 4.08092 13.3101 5.38928 14.4803C5.86865 14.9044 6.15258 15.5068 6.17465 16.1518L6.47129 16.0208ZM10.0013 1.66663C14.6959 1.66663 18.3347 5.10538 18.3347 9.74996C18.3347 14.3945 14.6959 17.8333 10.0013 17.8333C9.18657 17.8352 8.37524 17.7275 7.58922 17.5129C7.44138 17.4723 7.28407 17.484 7.1438 17.5458L5.49005 18.2758C5.28714 18.3655 5.05291 18.3483 4.86522 18.23C4.67752 18.1118 4.56094 17.908 4.55422 17.6862L4.5088 16.2037C4.50263 16.0214 4.42171 15.8496 4.28505 15.7287C2.6638 14.2787 1.66797 12.1795 1.66797 9.74996C1.66797 5.10538 5.30672 1.66663 10.0013 1.66663ZM4.99714 12.1137L7.44505 8.23038C7.63123 7.93504 7.93244 7.73103 8.27577 7.66771C8.61907 7.60439 8.97324 7.68755 9.25257 7.89704L11.1997 9.35538C11.3778 9.48979 11.6235 9.48979 11.8017 9.35538L14.4313 7.35954C14.7822 7.09329 15.2405 7.51329 15.0055 7.88621L12.5576 11.7695C12.3714 12.0649 12.0702 12.2689 11.7268 12.3322C11.3835 12.3955 11.0293 12.3124 10.7501 12.1029L8.80299 10.6445C8.62474 10.5101 8.37907 10.5101 8.20089 10.6445L5.5713 12.6404C5.22047 12.9066 4.76214 12.4866 4.99714 12.1137Z" fill="#E3E3E3"/>
</svg>
