<svg width="20" height="20" viewBox="0 0 20 20" fill="none" xmlns="http://www.w3.org/2000/svg">
<path d="M17.5013 2.5C17.9616 2.5 18.3347 2.8731 18.3347 3.33333V16.6667C18.3347 17.1269 17.9616 17.5 17.5013 17.5H2.5013C2.04106 17.5 1.66797 17.1269 1.66797 16.6667V3.33333C1.66797 2.8731 2.04106 2.5 2.5013 2.5H17.5013ZM13.9947 4.68432C13.1522 4.68432 12.4415 5.24754 12.2174 6.01798H10.552L8.50232 9.50467H7.30409C7.08006 8.73417 6.36938 8.17097 5.52659 8.17097C4.50429 8.17097 3.67543 9 3.67543 10.0224C3.67543 11.0447 4.50429 11.8736 5.52659 11.8736C6.36938 11.8736 7.08006 11.3103 7.30409 10.5401H8.5299L10.5441 13.9846H12.2252C12.4491 14.7547 13.1599 15.3178 14.0024 15.3178C15.025 15.3178 15.8538 14.489 15.8538 13.4666C15.8538 12.4442 15.025 11.6152 14.0024 11.6152C13.1599 11.6152 12.4491 12.1785 12.2252 12.9489H11.1277L9.41449 10.0014L11.1251 7.05335H12.2174C12.4415 7.82379 13.1522 8.387 13.9947 8.387C15.0172 8.387 15.8462 7.55802 15.8462 6.53573C15.8462 5.51331 15.0172 4.68432 13.9947 4.68432ZM14.0042 12.5403C14.5405 12.5403 14.977 12.9767 14.977 13.5132C14.977 14.0497 14.5405 14.4858 14.0042 14.4858C13.5325 14.4858 13.1387 14.1482 13.0503 13.7022C13.0503 13.7022 13.0247 13.5137 13.0503 13.3244C13.1385 12.8781 13.5325 12.5403 14.0042 12.5403ZM5.54389 9.03225C6.08039 9.03225 6.51672 9.4685 6.51672 10.005C6.51672 10.5412 6.08039 10.9777 5.54389 10.9777C5.00752 10.9777 4.57119 10.5412 4.57119 10.005C4.57119 9.4685 5.00752 9.03225 5.54389 9.03225ZM14.0024 5.52419C14.5389 5.52419 14.9752 5.9604 14.9752 6.49689C14.9752 7.03314 14.5389 7.4696 14.0024 7.4696C13.5309 7.4696 13.1369 7.13197 13.0487 6.68572C13.0268 6.51407 13.0487 6.31399 13.0487 6.31399C13.1369 5.86182 13.5309 5.52419 14.0024 5.52419Z" fill="#E3E3E3"/>
</svg>
