<svg width="20" height="20" viewBox="0 0 20 20" fill="none" xmlns="http://www.w3.org/2000/svg">
<path d="M10.0003 18.3333C5.39795 18.3333 1.66699 14.6023 1.66699 9.99996C1.66699 5.39758 5.39795 1.66663 10.0003 1.66663C14.6027 1.66663 18.3337 5.39758 18.3337 9.99996C18.3337 14.6023 14.6027 18.3333 10.0003 18.3333ZM6.94086 10.253C6.9079 10.9621 6.97237 11.6679 7.03923 12.3736C7.04402 12.424 7.06227 12.4347 7.10652 12.4405C7.44484 12.485 7.78354 12.5248 8.1241 12.5462C8.92791 12.5966 9.73124 12.6613 10.5376 12.6165C10.9954 12.591 11.4542 12.577 11.9107 12.5371C12.5613 12.4805 13.2107 12.4079 13.8523 12.2777C14.6515 12.1156 15.4418 11.9232 16.1868 11.5733C16.5245 11.4146 16.845 11.2274 17.1145 10.96C17.3124 10.7639 17.4543 10.537 17.4563 10.244C17.4581 9.98229 17.4447 9.72046 17.4188 9.46029C17.3571 8.83829 17.2293 8.23045 17.0174 7.64327C16.5309 6.29532 15.7599 5.15258 14.6632 4.25207C13.715 3.47348 12.6462 2.94963 11.4537 2.69918C11.0374 2.61178 10.6154 2.57942 10.1919 2.549C9.71457 2.5147 9.30549 2.6499 8.95182 2.97711C8.53966 3.35855 8.25433 3.83121 8.01715 4.33838C7.46123 5.5271 7.20638 6.79991 7.04561 8.09482C6.9569 8.80937 6.9069 9.52912 6.94086 10.253ZM9.91599 6.06145C10.7152 6.08734 11.3909 6.33183 11.9942 6.7749C12.7406 7.32309 13.2191 8.04831 13.4227 8.95162C13.4797 9.20471 13.5036 9.46137 13.509 9.71971C13.5127 9.89388 13.4174 10.0215 13.2902 10.1284C13.0347 10.343 12.7314 10.4626 12.4153 10.5512C11.7981 10.7243 11.1687 10.8237 10.5277 10.8566C10.1108 10.878 9.69457 10.8856 9.27782 10.865C9.11749 10.857 8.95741 10.8446 8.79707 10.8384C8.74732 10.8365 8.73016 10.8217 8.72741 10.7705C8.70791 10.409 8.67966 10.0476 8.68524 9.68562C8.69832 8.83071 8.76391 7.98172 9.01616 7.15771C9.10007 6.88333 9.20224 6.61635 9.36666 6.37763C9.51016 6.16935 9.68157 6.01303 9.91599 6.06145Z" fill="#E3E3E3"/>
</svg>
