<svg width="20" height="20" viewBox="0 0 20 20" fill="none" xmlns="http://www.w3.org/2000/svg">
<path d="M15.1862 2.5717C15.593 2.97849 15.593 3.63804 15.1862 4.04483L14.2337 4.99681L15.2087 4.99714C16.9346 4.99714 18.3337 6.39625 18.3337 8.12214V14.3721C18.3337 16.098 16.9346 17.4971 15.2087 17.4971H4.79199C3.0661 17.4971 1.66699 16.098 1.66699 14.3721V8.12214C1.66699 6.39625 3.0661 4.99714 4.79199 4.99714L5.76387 4.99681L4.81254 4.04564C4.40575 3.63884 4.40575 2.97929 4.81254 2.57249C5.21934 2.1657 5.87888 2.1657 6.28568 2.57249L8.49541 4.7822C8.56107 4.8479 8.61616 4.92019 8.66066 4.99694L11.3375 4.99714C11.3821 4.92002 11.4373 4.84739 11.5033 4.78141L13.7131 2.5717C14.1198 2.1649 14.7794 2.1649 15.1862 2.5717ZM15.2087 7.08881H4.79199C4.24284 7.08881 3.79295 7.51374 3.75318 8.05273L3.75033 8.13048V14.3805C3.75033 14.9296 4.17526 15.3795 4.71425 15.4193L4.79199 15.4221H15.2087C15.7578 15.4221 16.2077 14.9972 16.2475 14.4582L16.2503 14.3805V8.13048C16.2503 7.55518 15.784 7.08881 15.2087 7.08881ZM6.87532 9.17213C7.45062 9.17213 7.91699 9.63854 7.91699 10.2138V11.2555C7.91699 11.8308 7.45062 12.2971 6.87532 12.2971C6.30002 12.2971 5.83366 11.8308 5.83366 11.2555V10.2138C5.83366 9.63854 6.30002 9.17213 6.87532 9.17213ZM13.1253 9.17213C13.7007 9.17213 14.167 9.63854 14.167 10.2138V11.2555C14.167 11.8308 13.7007 12.2971 13.1253 12.2971C12.55 12.2971 12.0837 11.8308 12.0837 11.2555V10.2138C12.0837 9.63854 12.55 9.17213 13.1253 9.17213Z" fill="#E3E3E3"/>
</svg>
