<svg width="20" height="20" viewBox="0 0 20 20" fill="none" xmlns="http://www.w3.org/2000/svg">
<path d="M10.001 2.5V17.5H6.33431C4.21722 17.5 2.50098 15.7837 2.50098 13.6667V6.33333C2.50098 4.21624 4.21722 2.5 6.33431 2.5H10.001ZM8.33433 4.16667H6.33431C5.13769 4.16667 4.16764 5.13672 4.16764 6.33333V13.6667C4.16764 14.8632 5.13769 15.8333 6.33431 15.8333H8.33433V4.16667ZM6.25098 8.33333C5.56062 8.33333 5.00098 7.77369 5.00098 7.08333C5.00098 6.39297 5.56062 5.83333 6.25098 5.83333C6.94133 5.83333 7.50098 6.39297 7.50098 7.08333C7.50098 7.77369 6.94133 8.33333 6.25098 8.33333ZM11.6677 2.5H13.6677C15.7847 2.5 17.501 4.21624 17.501 6.33333V13.6667C17.501 15.7837 15.7847 17.5 13.6677 17.5H11.6677V2.5ZM14.1677 12.25C14.9961 12.25 15.6677 11.5784 15.6677 10.75C15.6677 9.92158 14.9961 9.25 14.1677 9.25C13.3392 9.25 12.6677 9.92158 12.6677 10.75C12.6677 11.5784 13.3392 12.25 14.1677 12.25Z" fill="#E3E3E3"/>
</svg>
