<svg width="20" height="20" viewBox="0 0 20 20" fill="none" xmlns="http://www.w3.org/2000/svg">
<path d="M6.67329 11.6676C6.66954 11.7364 6.66764 11.8055 6.66764 11.875C6.66764 13.8599 8.12818 15.8333 10.8343 15.8333C12.8117 15.8333 14.6072 15.2875 15.8343 14.5387V17.331C14.3437 17.9696 12.5947 18.3333 10.8343 18.3333C6.2493 18.3333 4.16764 15.4418 4.16764 11.875C4.16764 9.18221 5.86872 6.87442 8.28663 5.90498C7.1168 7.21918 6.66764 8.61771 6.66764 9.16262L15.001 9.16662C15.001 6.32814 12.8775 4.16663 10.001 4.16663C5.83431 4.16663 3.33323 7.48971 2.50098 9.16571C2.74235 5.1978 5.84193 1.66663 10.001 1.66663C14.3343 1.66663 17.501 5.02449 17.501 9.16662V11.6666H6.66764L6.67329 11.6676Z" fill="#E3E3E3"/>
</svg>
