<svg width="20" height="20" viewBox="0 0 20 20" fill="none" xmlns="http://www.w3.org/2000/svg">
<path d="M11.0926 16.9998C10.7367 17.0547 10.3722 17.0833 10.001 17.0833C6.08896 17.0833 2.91764 13.912 2.91764 10C2.91764 9.62875 2.94619 9.26425 3.00124 8.90842C2.68176 8.3009 2.50098 7.60906 2.50098 6.875C2.50098 4.45876 4.45973 2.5 6.87598 2.5C7.61004 2.5 8.30187 2.68078 8.90941 3.00026C9.26516 2.94523 9.62975 2.91667 10.001 2.91667C13.913 2.91667 17.0843 6.08798 17.0843 10C17.0843 10.3712 17.0557 10.7358 17.0007 11.0916C17.3202 11.6991 17.501 12.3909 17.501 13.125C17.501 15.5412 15.5422 17.5 13.126 17.5C12.3919 17.5 11.7001 17.3193 11.0926 16.9998ZM10.0445 14.2963L10.0107 14.2968C12.4047 14.2968 13.5967 13.1419 13.5967 11.5943C13.5967 10.5957 13.1372 9.535 11.3255 9.12933L9.67291 8.7625C9.04366 8.61942 8.32111 8.42875 8.32111 7.83312C8.32111 7.2375 8.83691 6.8225 9.75749 6.8225C11.6163 6.8225 11.4464 8.09562 12.3671 8.09562C12.8465 8.09562 13.2777 7.81063 13.2777 7.32062C13.2777 6.17937 11.4464 5.32125 9.89791 5.32125C8.21332 5.32125 6.42034 6.03625 6.42034 7.94063C6.42034 8.85625 6.7481 9.8325 8.55299 10.285L10.7941 10.8444C11.474 11.0125 11.6426 11.3932 11.6426 11.7375C11.6426 12.31 11.0729 12.8693 10.0445 12.8693C8.03033 12.8693 8.31234 11.3212 7.23254 11.3212C6.74873 11.3212 6.39715 11.6531 6.39715 12.1312C6.39715 13.0593 7.52333 14.2963 10.0445 14.2963Z" fill="#E3E3E3"/>
</svg>
