<svg width="20" height="20" viewBox="0 0 20 20" fill="none" xmlns="http://www.w3.org/2000/svg">
<path d="M11.3502 17.5C11.2794 17.5 11.2323 17.4528 11.2441 17.3939V2.60605C11.2441 2.55892 11.2794 2.51178 11.3383 2.51178H13.6597C15.7807 2.51178 17.501 4.23213 17.501 6.3531V13.6587C17.501 15.7797 15.7807 17.5 13.6597 17.5H11.3502ZM14.2017 9.22817C13.3651 9.22817 12.6817 9.91167 12.6817 10.7482C12.6817 11.5848 13.3651 12.2682 14.2017 12.2682C15.0383 12.2682 15.7217 11.5848 15.7217 10.7482C15.7217 9.91167 15.0383 9.22817 14.2017 9.22817ZM4.83404 7.00117C4.83404 6.22349 5.47034 5.58719 6.24803 5.58719C7.02572 5.58719 7.66201 6.22349 7.66201 7.00117C7.66201 7.77887 7.02572 8.41517 6.24803 8.41517C5.47034 8.41517 4.83404 7.77887 4.83404 7.00117ZM9.61799 2.5C9.68874 2.5 9.73583 2.54713 9.72408 2.60605V17.3822C9.72408 17.4411 9.67691 17.4883 9.61799 17.4883H6.34229C4.22132 17.4883 2.50098 15.7678 2.50098 13.6469V6.34132C2.50098 4.22034 4.22132 2.5 6.34229 2.5H9.61799ZM8.52216 16.2863V3.70188H6.34229C5.6353 3.70188 4.97544 3.98468 4.48055 4.47958C3.97388 4.97447 3.70286 5.63433 3.70286 6.34132V13.6469C3.70286 14.3539 3.98565 15.0137 4.48055 15.5087C4.97544 16.0153 5.6353 16.2863 6.34229 16.2863H8.52216Z" fill="#E3E3E3"/>
</svg>
