<svg width="20" height="20" viewBox="0 0 20 20" fill="none" xmlns="http://www.w3.org/2000/svg">
<path d="M15.9553 7.49425L7.78969 12.167L7.73176 12.2053C7.65451 12.2436 7.57726 12.2627 7.48069 12.2627C7.26826 12.2627 7.09444 12.1479 6.99788 11.9756L6.95926 11.8991L5.43358 8.60738C5.41426 8.56905 5.41426 8.5308 5.41426 8.49255C5.41426 8.33938 5.53013 8.22458 5.68463 8.22458C5.74257 8.22458 5.80051 8.24371 5.85844 8.28199L7.65451 9.54513C7.78969 9.62163 7.94419 9.67905 8.11801 9.67905C8.21457 9.67905 8.31113 9.65996 8.40773 9.62163L15.3033 6.5811C14.1127 5.22749 12.1962 4.33317 10.001 4.33317C6.31703 4.33317 3.41764 6.85184 3.41764 9.83321C3.41764 10.9711 3.83402 12.0605 4.61071 12.984C4.65095 13.0318 4.71113 13.098 4.78937 13.1795C5.45214 13.8697 5.78633 14.8115 5.70686 15.765L5.68623 16.0126L6.28249 15.649C6.95725 15.2375 7.75629 15.079 8.53698 15.202C8.71323 15.2298 8.85815 15.2511 8.96998 15.2659C9.30848 15.3105 9.65282 15.3332 10.001 15.3332C13.6849 15.3332 16.5843 12.8145 16.5843 9.83321C16.5843 9.00288 16.3594 8.2084 15.9553 7.49425ZM5.1612 18.2851C5.00873 18.3804 4.82952 18.4238 4.65033 18.4089C4.19168 18.3707 3.85086 17.9679 3.88908 17.5092L4.04595 15.6266C4.08568 15.1498 3.91859 14.679 3.58721 14.3339C3.4854 14.2278 3.40141 14.1355 3.33523 14.0568C2.339 12.8724 1.75098 11.4125 1.75098 9.83321C1.75098 5.87513 5.44463 2.6665 10.001 2.6665C14.5573 2.6665 18.251 5.87513 18.251 9.83321C18.251 13.7912 14.5573 16.9999 10.001 16.9999C9.5764 16.9999 9.15932 16.972 8.75198 16.9182C8.62473 16.9015 8.46657 16.8782 8.27762 16.8484C7.88725 16.7869 7.48773 16.8661 7.15036 17.0719L5.1612 18.2851Z" fill="#E3E3E3"/>
</svg>
