<svg width="20" height="20" viewBox="0 0 20 20" fill="none" xmlns="http://www.w3.org/2000/svg">
<path d="M4.16699 4.99996C4.16699 3.15901 5.65938 1.66663 7.50033 1.66663H12.5003C14.3412 1.66663 15.8337 3.15901 15.8337 4.99996C15.8337 5.99553 15.3972 6.88917 14.7052 7.49996C15.3972 8.11075 15.8337 9.00437 15.8337 9.99996C15.8337 11.8409 14.3412 13.3333 12.5003 13.3333C11.8932 13.3333 11.3239 13.171 10.8337 12.8874V15C10.8337 16.8409 9.34124 18.3333 7.50033 18.3333C5.65938 18.3333 4.16699 16.8409 4.16699 15C4.16699 14.0044 4.60346 13.1107 5.29548 12.5C4.60346 11.8892 4.16699 10.9955 4.16699 9.99996C4.16699 9.00437 4.60346 8.11075 5.29548 7.49996C4.60346 6.88917 4.16699 5.99553 4.16699 4.99996ZM9.16699 8.33329H7.50033C6.57985 8.33329 5.83366 9.07946 5.83366 9.99996C5.83366 10.9205 6.57985 11.6666 7.50033 11.6666H9.16699V8.33329ZM10.8337 9.99996C10.8337 10.9205 11.5798 11.6666 12.5003 11.6666C13.4208 11.6666 14.167 10.9205 14.167 9.99996C14.167 9.07946 13.4208 8.33329 12.5003 8.33329C11.5798 8.33329 10.8337 9.07946 10.8337 9.99996ZM12.5003 6.66663C13.4208 6.66663 14.167 5.92043 14.167 4.99996C14.167 4.07948 13.4208 3.33329 12.5003 3.33329H10.8337V6.66663H12.5003ZM7.50033 3.33329C6.57985 3.33329 5.83366 4.07948 5.83366 4.99996C5.83366 5.92043 6.57985 6.66663 7.50033 6.66663H9.16699V3.33329H7.50033ZM9.16699 13.3333H7.50033C6.57985 13.3333 5.83366 14.0795 5.83366 15C5.83366 15.9205 6.57985 16.6666 7.50033 16.6666C8.42083 16.6666 9.16699 15.9205 9.16699 15V13.3333Z" fill="#E3E3E3"/>
</svg>
