<svg width="20" height="20" viewBox="0 0 20 20" fill="none" xmlns="http://www.w3.org/2000/svg">
<path d="M10.8337 8.22827V16.6066C13.8492 16.2287 16.2394 13.8269 16.6154 10.7965H14.167L17.2538 5.83329C17.9412 7.05106 18.3337 8.45896 18.3337 9.95904C18.3337 14.584 14.6027 18.3333 10.0003 18.3333C5.39795 18.3333 1.66699 14.584 1.66699 9.95904C1.66699 8.45896 2.05947 7.05106 2.74684 5.83329L5.83366 10.7965H3.38523C3.76128 13.8269 6.15139 16.2287 9.16699 16.6066V8.22827C7.7293 7.85824 6.66699 6.55316 6.66699 4.99996C6.66699 3.15901 8.15937 1.66663 10.0003 1.66663C11.8412 1.66663 13.3337 3.15901 13.3337 4.99996C13.3337 6.55316 12.2713 7.85824 10.8337 8.22827ZM10.0003 6.66663C10.9208 6.66663 11.667 5.92043 11.667 4.99996C11.667 4.07948 10.9208 3.33329 10.0003 3.33329C9.07982 3.33329 8.33366 4.07948 8.33366 4.99996C8.33366 5.92043 9.07982 6.66663 10.0003 6.66663Z" fill="#E3E3E3"/>
</svg>
