<svg width="20" height="20" viewBox="0 0 20 20" fill="none" xmlns="http://www.w3.org/2000/svg">
<path d="M14.167 16.6667H5.83366V17.5C5.83366 17.9603 5.46056 18.3333 5.00032 18.3333H3.33366C2.87343 18.3333 2.50033 17.9603 2.50033 17.5V10H1.66699V6.66667H2.50033V4.16667C2.50033 3.24619 3.24652 2.5 4.16699 2.5H15.8337C16.7542 2.5 17.5003 3.24619 17.5003 4.16667V6.66667H18.3337V10H17.5003V17.5C17.5003 17.9603 17.1272 18.3333 16.667 18.3333H15.0003C14.5401 18.3333 14.167 17.9603 14.167 17.5V16.6667ZM4.16699 4.16667V9.16667H15.8337V4.16667H4.16699ZM15.8337 10.8333H4.16699V15H15.8337V10.8333ZM6.25032 14.1667C5.55997 14.1667 5.00032 13.607 5.00032 12.9167C5.00032 12.2263 5.55997 11.6667 6.25032 11.6667C6.94068 11.6667 7.50032 12.2263 7.50032 12.9167C7.50032 13.607 6.94068 14.1667 6.25032 14.1667ZM13.7503 14.1667C13.06 14.1667 12.5003 13.607 12.5003 12.9167C12.5003 12.2263 13.06 11.6667 13.7503 11.6667C14.4407 11.6667 15.0003 12.2263 15.0003 12.9167C15.0003 13.607 14.4407 14.1667 13.7503 14.1667Z" fill="#E3E3E3"/>
</svg>
