<svg width="20" height="20" viewBox="0 0 20 20" fill="none" xmlns="http://www.w3.org/2000/svg">
<path d="M4.58301 9.99996H3.33301V5.8333H1.66634V4.16663H6.66634V5.8333H4.99967V8.16286L13.1773 5.97169L12.6936 4.16663H9.99968V2.49996H13.315C13.6902 2.49158 14.0365 2.73907 14.1379 3.11761L15.432 7.94725L13.8222 8.37863L13.6086 7.58156L4.58301 9.99996ZM4.16634 15.8333C5.08682 15.8333 5.83301 15.0871 5.83301 14.1666C5.83301 13.2461 5.08682 12.5 4.16634 12.5C3.24587 12.5 2.49967 13.2461 2.49967 14.1666C2.49967 15.0871 3.24587 15.8333 4.16634 15.8333ZM4.16634 17.5C2.32539 17.5 0.833008 16.0075 0.833008 14.1666C0.833008 12.3257 2.32539 10.8333 4.16634 10.8333C6.00729 10.8333 7.49968 12.3257 7.49968 14.1666C7.49968 16.0075 6.00729 17.5 4.16634 17.5ZM14.9997 15.8333C16.3804 15.8333 17.4997 14.714 17.4997 13.3333C17.4997 11.9525 16.3804 10.8333 14.9997 10.8333C13.6189 10.8333 12.4997 11.9525 12.4997 13.3333C12.4997 14.714 13.6189 15.8333 14.9997 15.8333ZM14.9997 17.5C12.6985 17.5 10.833 15.6345 10.833 13.3333C10.833 11.0321 12.6985 9.16663 14.9997 9.16663C17.3008 9.16663 19.1663 11.0321 19.1663 13.3333C19.1663 15.6345 17.3008 17.5 14.9997 17.5Z" fill="#E3E3E3"/>
</svg>
