<svg width="20" height="20" viewBox="0 0 20 20" fill="none" xmlns="http://www.w3.org/2000/svg">
<path d="M14.167 16.6667H5.83366V17.5C5.83366 17.9603 5.46056 18.3333 5.00032 18.3333H4.16699C3.70676 18.3333 3.33366 17.9603 3.33366 17.5V16.6667H2.50033V10H1.66699V6.66667H2.50033V4.16667C2.50033 3.24619 3.24652 2.5 4.16699 2.5H15.8337C16.7542 2.5 17.5003 3.24619 17.5003 4.16667V6.66667H18.3337V10H17.5003V16.6667H16.667V17.5C16.667 17.9603 16.2939 18.3333 15.8337 18.3333H15.0003C14.5401 18.3333 14.167 17.9603 14.167 17.5V16.6667ZM15.8337 10V4.16667H4.16699V10H15.8337ZM15.8337 11.6667H4.16699V15H15.8337V11.6667ZM5.00032 12.5H8.33366V14.1667H5.00032V12.5ZM11.667 12.5H15.0003V14.1667H11.667V12.5Z" fill="#E3E3E3"/>
</svg>
