<svg width="20" height="20" viewBox="0 0 20 20" fill="none" xmlns="http://www.w3.org/2000/svg">
<path d="M14.167 16.6667H5.83366V17.5C5.83366 17.9603 5.46056 18.3333 5.00032 18.3333H3.33366C2.87343 18.3333 2.50033 17.9603 2.50033 17.5V10H1.66699V6.66667H2.50033V4.16667C2.50033 3.24619 3.24652 2.5 4.16699 2.5H15.8337C16.7542 2.5 17.5003 3.24619 17.5003 4.16667V6.66667H18.3337V10H17.5003V17.5C17.5003 17.9603 17.1272 18.3333 16.667 18.3333H15.0003C14.5401 18.3333 14.167 17.9603 14.167 17.5V16.6667ZM4.16699 4.16667V10H15.8337V4.16667H4.16699ZM6.25032 15C6.94068 15 7.50032 14.4403 7.50032 13.75C7.50032 13.0597 6.94068 12.5 6.25032 12.5C5.55997 12.5 5.00032 13.0597 5.00032 13.75C5.00032 14.4403 5.55997 15 6.25032 15ZM13.7503 15C14.4407 15 15.0003 14.4403 15.0003 13.75C15.0003 13.0597 14.4407 12.5 13.7503 12.5C13.06 12.5 12.5003 13.0597 12.5003 13.75C12.5003 14.4403 13.06 15 13.7503 15Z" fill="#E3E3E3"/>
</svg>
