<svg width="20" height="20" viewBox="0 0 20 20" fill="none" xmlns="http://www.w3.org/2000/svg">
<path d="M15.8337 17.5H4.16699V18.3333C4.16699 18.7935 3.79389 19.1666 3.33366 19.1666H2.50033C2.04009 19.1666 1.66699 18.7935 1.66699 18.3333V10.8333L3.68149 7.47579C3.98269 6.97378 4.52521 6.66661 5.11064 6.66661H14.89C15.4754 6.66661 16.018 6.97378 16.3192 7.47579L18.3337 10.8333V18.3333C18.3337 18.7935 17.9606 19.1666 17.5003 19.1666H16.667C16.2067 19.1666 15.8337 18.7935 15.8337 18.3333V17.5ZM3.61064 10.8333H16.39L14.89 8.33328H5.11064L3.61064 10.8333ZM5.41699 15C6.10735 15 6.66699 14.4403 6.66699 13.75C6.66699 13.0596 6.10735 12.5 5.41699 12.5C4.72663 12.5 4.16699 13.0596 4.16699 13.75C4.16699 14.4403 4.72663 15 5.41699 15ZM14.5837 15C15.274 15 15.8337 14.4403 15.8337 13.75C15.8337 13.0596 15.274 12.5 14.5837 12.5C13.8933 12.5 13.3337 13.0596 13.3337 13.75C13.3337 14.4403 13.8933 15 14.5837 15ZM4.53311 2.86606L5.41699 1.98218L6.30087 2.86606C6.52708 3.09227 6.66699 3.40477 6.66699 3.74994C6.66699 4.4403 6.10735 4.99994 5.41699 4.99994C4.72663 4.99994 4.16699 4.4403 4.16699 3.74994C4.16699 3.40477 4.3069 3.09227 4.53311 2.86606ZM9.11641 2.86606L10.0003 1.98218L10.8842 2.86606C11.1104 3.09227 11.2503 3.40477 11.2503 3.74994C11.2503 4.4403 10.6907 4.99994 10.0003 4.99994C9.30999 4.99994 8.75032 4.4403 8.75032 3.74994C8.75032 3.40477 8.89024 3.09227 9.11641 2.86606ZM13.6997 2.86606L14.5837 1.98218L15.4676 2.86606C15.6937 3.09227 15.8337 3.40477 15.8337 3.74994C15.8337 4.4403 15.274 4.99994 14.5837 4.99994C13.8933 4.99994 13.3337 4.4403 13.3337 3.74994C13.3337 3.40477 13.4736 3.09227 13.6997 2.86606Z" fill="#E3E3E3"/>
</svg>
