<svg width="20" height="20" viewBox="0 0 20 20" fill="none" xmlns="http://www.w3.org/2000/svg">
<path d="M15.8337 16.6667H4.16699V17.5C4.16699 17.9603 3.79389 18.3334 3.33366 18.3334H2.50033C2.04009 18.3334 1.66699 17.9603 1.66699 17.5V10L3.76144 4.41483C4.00538 3.76433 4.62725 3.33337 5.32199 3.33337H14.6787C15.3734 3.33337 15.9952 3.76433 16.2392 4.41483L18.3337 10V17.5C18.3337 17.9603 17.9606 18.3334 17.5003 18.3334H16.667C16.2067 18.3334 15.8337 17.9603 15.8337 17.5V16.6667ZM3.44699 10H16.5537L14.6787 5.00004H5.32199L3.44699 10ZM5.41699 14.1667C6.10735 14.1667 6.66699 13.607 6.66699 12.9167C6.66699 12.2264 6.10735 11.6667 5.41699 11.6667C4.72663 11.6667 4.16699 12.2264 4.16699 12.9167C4.16699 13.607 4.72663 14.1667 5.41699 14.1667ZM14.5837 14.1667C15.274 14.1667 15.8337 13.607 15.8337 12.9167C15.8337 12.2264 15.274 11.6667 14.5837 11.6667C13.8933 11.6667 13.3337 12.2264 13.3337 12.9167C13.3337 13.607 13.8933 14.1667 14.5837 14.1667Z" fill="#E3E3E3"/>
</svg>
