<svg width="20" height="20" viewBox="0 0 20 20" fill="none" xmlns="http://www.w3.org/2000/svg">
<path d="M10.0003 18.3333C5.39795 18.3333 1.66699 14.6023 1.66699 9.99996C1.66699 5.39758 5.39795 1.66663 10.0003 1.66663C14.6027 1.66663 18.3337 5.39758 18.3337 9.99996C18.3337 14.6023 14.6027 18.3333 10.0003 18.3333ZM10.0003 16.6666C13.6822 16.6666 16.667 13.6819 16.667 9.99996C16.667 6.31806 13.6822 3.33329 10.0003 3.33329C6.31842 3.33329 3.33366 6.31806 3.33366 9.99996C3.33366 13.6819 6.31842 16.6666 10.0003 16.6666ZM13.7503 6.24996L11.667 11.6666L6.25032 13.75L8.33366 8.33329L13.7503 6.24996ZM10.0003 10.8333C10.4606 10.8333 10.8337 10.4602 10.8337 9.99996C10.8337 9.53971 10.4606 9.16662 10.0003 9.16662C9.54007 9.16662 9.16699 9.53971 9.16699 9.99996C9.16699 10.4602 9.54007 10.8333 10.0003 10.8333Z" fill="#E3E3E3"/>
</svg>
