<svg width="20" height="20" viewBox="0 0 20 20" fill="none" xmlns="http://www.w3.org/2000/svg">
<path d="M11.81 2.5C12.252 2.5 12.6759 2.67559 12.9885 2.98816L17.0122 7.01184C17.3247 7.32441 17.5003 7.74833 17.5003 8.19036V14.1667H19.167V15.8333L12.3952 15.834C12.0249 17.2713 10.72 18.3333 9.16699 18.3333C7.61402 18.3333 6.30909 17.2713 5.93883 15.834L2.50033 15.8333C2.04009 15.8333 1.66699 15.4603 1.66699 15V4.16667C1.66699 3.24619 2.41318 2.5 3.33366 2.5H11.81ZM9.16699 13.3333C8.24652 13.3333 7.50033 14.0795 7.50033 15C7.50033 15.9205 8.24652 16.6667 9.16699 16.6667C10.0875 16.6667 10.8337 15.9205 10.8337 15C10.8337 14.0795 10.0875 13.3333 9.16699 13.3333ZM11.667 5.83333H5.00033V10.8333H11.667V5.83333ZM10.0003 7.5V9.16667H6.66699V7.5H10.0003Z" fill="#E3E3E3"/>
</svg>
