<svg width="20" height="20" viewBox="0 0 20 20" fill="none" xmlns="http://www.w3.org/2000/svg">
<path d="M10.0003 1.66663C14.6027 1.66663 18.3337 5.39758 18.3337 9.99996C18.3337 14.6023 14.6027 18.3333 10.0003 18.3333C5.39795 18.3333 1.66699 14.6023 1.66699 9.99996C1.66699 5.39758 5.39795 1.66663 10.0003 1.66663ZM13.3372 10.7314C13.0494 10.2944 12.8417 9.97879 12.0522 10.104C10.5601 10.3408 10.3947 10.602 10.3234 11.0312L10.3033 11.1619L10.2831 11.2997C10.2017 11.869 10.2047 12.0843 10.4661 12.359C11.5204 13.4651 12.152 14.2625 12.3433 14.7288C12.4367 14.957 12.6769 15.6459 12.5117 16.3272C13.5313 15.9221 14.43 15.2776 15.1381 14.4632C15.2299 14.1517 15.2962 13.7638 15.2962 13.2931V13.206C15.2962 12.4372 15.2962 12.0866 14.7529 11.7761C14.5237 11.6459 14.3526 11.5675 14.2155 11.5053C13.9095 11.3661 13.7069 11.2747 13.4335 10.8749C13.4009 10.8273 13.3691 10.7798 13.3372 10.7314ZM10.0003 3.1944C8.06915 3.1944 6.32584 3.99878 5.08716 5.29076C5.23462 5.39318 5.36313 5.53707 5.4514 5.73542C5.6214 6.11687 5.6214 6.50929 5.6214 6.85633C5.62106 7.13013 5.62067 7.38929 5.70859 7.57748C5.82902 7.83441 6.34732 7.94352 6.80489 8.03942C6.96837 8.07385 7.13695 8.10898 7.2903 8.15142C7.71203 8.26857 8.03827 8.64704 8.29981 8.95096C8.40832 9.07754 8.56857 9.26354 8.64891 9.30971C8.69082 9.27962 8.82532 9.13396 8.89191 8.89454C8.94257 8.71221 8.92816 8.54971 8.85357 8.46187C8.38766 7.912 8.41299 6.85263 8.55699 6.46242C8.78382 5.84668 9.49241 5.89211 10.0103 5.92577C10.2035 5.9382 10.3858 5.95015 10.5217 5.93309C11.0405 5.86801 11.2 5.07944 11.3128 4.92496C11.5562 4.59147 12.3009 4.08921 12.7635 3.77874C11.9191 3.40314 10.9841 3.1944 10.0003 3.1944Z" fill="#E3E3E3"/>
</svg>
