<svg width="20" height="20" viewBox="0 0 20 20" fill="none" xmlns="http://www.w3.org/2000/svg">
<path d="M13.3337 0.833374C13.7939 0.833374 14.167 1.20647 14.167 1.66671V2.50004H18.3337V7.50004H16.6512L18.9396 13.7874C19.0864 14.1632 19.167 14.5722 19.167 15C19.167 16.841 17.6746 18.3334 15.8337 18.3334C14.2805 18.3334 12.9754 17.271 12.6053 15.8334H9.06199C8.69191 17.271 7.38686 18.3334 5.83366 18.3334C4.21325 18.3334 2.86289 17.1771 2.56261 15.6447C2.03029 15.3664 1.66699 14.809 1.66699 14.1667V5.83337C1.66699 5.37314 2.04009 5.00004 2.50033 5.00004H8.33366C8.79391 5.00004 9.16699 5.37314 9.16699 5.83337V10C9.16699 10.4603 9.54008 10.8334 10.0003 10.8334H11.667C12.1272 10.8334 12.5003 10.4603 12.5003 10V2.50004H10.0003V0.833374H13.3337ZM15.8337 13.3334C14.9132 13.3334 14.167 14.0795 14.167 15C14.167 15.9205 14.9132 16.6667 15.8337 16.6667C16.7542 16.6667 17.5003 15.9205 17.5003 15C17.5003 14.7998 17.465 14.6077 17.4002 14.4299L17.3866 14.3937C17.1441 13.773 16.5402 13.3334 15.8337 13.3334ZM5.83366 13.3334C4.91318 13.3334 4.16699 14.0795 4.16699 15C4.16699 15.9205 4.91318 16.6667 5.83366 16.6667C6.75413 16.6667 7.50033 15.9205 7.50033 15C7.50033 14.0795 6.75413 13.3334 5.83366 13.3334ZM7.50033 6.66671H3.33366V8.33337H7.50033V6.66671ZM16.667 4.16671H14.167V5.83337H16.667V4.16671Z" fill="#E3E3E3"/>
</svg>
