<svg width="20" height="20" viewBox="0 0 20 20" fill="none" xmlns="http://www.w3.org/2000/svg">
<path d="M5.19623 5.3777C4.04283 6.57619 3.33366 8.20526 3.33366 9.99996C3.33366 13.6819 6.31842 16.6666 10.0003 16.6666C10.901 16.6666 11.76 16.488 12.5437 16.1643C12.6396 15.5389 12.4293 14.9388 12.3433 14.7288C12.152 14.2625 11.5204 13.4651 10.4661 12.359C10.1847 12.0631 10.2027 11.8362 10.3033 11.1619L10.3149 11.0857C10.3832 10.6238 10.4979 10.3507 12.0522 10.104C12.8417 9.97879 13.0494 10.2944 13.3372 10.7314C13.3691 10.7798 13.4009 10.8273 13.4335 10.8749C13.7069 11.2747 13.9095 11.3661 14.2155 11.5053C14.3526 11.5675 14.5237 11.6459 14.7529 11.7761C15.2962 12.0866 15.2962 12.4372 15.2962 13.206V13.2931C15.2962 13.6195 15.2643 13.906 15.2142 14.1549C16.1235 13.0154 16.667 11.5711 16.667 9.99996C16.667 7.2507 15.0028 4.89013 12.6269 3.87064C12.1659 4.18173 11.5335 4.62268 11.3128 4.92496C11.2 5.07944 11.0405 5.86801 10.5217 5.93309C10.3858 5.95015 10.2035 5.9382 10.0103 5.92577C9.49241 5.89211 8.78382 5.84668 8.55699 6.46242C8.41299 6.85263 8.38766 7.912 8.85357 8.46187C8.92816 8.54971 8.94257 8.71221 8.89191 8.89454C8.82532 9.13396 8.69082 9.27962 8.64891 9.30971C8.56857 9.26354 8.40832 9.07754 8.29981 8.95096C8.03827 8.64704 7.71203 8.26857 7.2903 8.15142C7.13695 8.10898 6.96837 8.07385 6.80489 8.03942C6.34732 7.94352 5.82902 7.83441 5.70859 7.57748C5.62067 7.38929 5.62106 7.13013 5.6214 6.85633C5.6214 6.50929 5.6214 6.11687 5.4514 5.73542C5.38571 5.5878 5.29773 5.47034 5.19623 5.3777ZM10.0003 18.3333C5.39795 18.3333 1.66699 14.6023 1.66699 9.99996C1.66699 5.39758 5.39795 1.66663 10.0003 1.66663C14.6027 1.66663 18.3337 5.39758 18.3337 9.99996C18.3337 14.6023 14.6027 18.3333 10.0003 18.3333Z" fill="#E3E3E3"/>
</svg>
