<svg width="20" height="20" viewBox="0 0 20 20" fill="none" xmlns="http://www.w3.org/2000/svg">
<path d="M3.33366 15H7.91699V16.0417C7.91699 17.3073 6.89098 18.3334 5.62533 18.3334C4.35968 18.3334 3.33366 17.3073 3.33366 16.0417V15ZM6.66699 5.10052C8.33366 5.10052 9.16699 7.50001 9.16699 9.16671C9.16699 10 8.75033 10.8334 8.33366 12.0834L7.91699 13.3334H3.33366C3.33366 12.5 2.91699 11.25 2.91699 9.16671C2.91699 7.08335 4.58185 5.10052 6.66699 5.10052ZM16.712 11.7486L16.5311 12.7745C16.3113 14.0209 15.1227 14.8531 13.8762 14.6334C12.6298 14.4136 11.7976 13.225 12.0174 11.9785L12.1982 10.9527L16.712 11.7486ZM15.1483 1.4207C17.2017 1.78278 18.497 4.02458 18.1352 6.07626C17.7735 8.12795 17.1461 9.28663 17.0014 10.1073L12.4877 9.31138L12.2944 8.00802C12.1011 6.70466 11.8355 5.81163 11.9802 4.99096C12.2696 3.34961 13.5069 1.13129 15.1483 1.4207Z" fill="#E3E3E3"/>
</svg>
