<svg width="20" height="20" viewBox="0 0 20 20" fill="none" xmlns="http://www.w3.org/2000/svg">
<path d="M3.33366 15H7.91699V16.0417C7.91699 17.3073 6.89098 18.3334 5.62533 18.3334C4.35968 18.3334 3.33366 17.3073 3.33366 16.0417V15ZM6.71573 11.6667L6.75252 11.5563C7.39178 9.8018 7.50033 9.47613 7.50033 9.16671C7.50033 8.54213 7.33155 7.79786 7.06061 7.27232C6.85898 6.88124 6.71699 6.76719 6.66699 6.76719C5.60104 6.76719 4.58366 7.90372 4.58366 9.16671C4.58366 9.96571 4.6463 10.6444 4.77261 11.4653C4.77766 11.4981 4.78957 11.5727 4.80459 11.6667H6.71573ZM6.66699 5.10052C8.33366 5.10052 9.16699 7.50001 9.16699 9.16671C9.16699 10 8.75033 10.8334 8.33366 12.0834L7.91699 13.3334H3.33366C3.33366 12.5 2.91699 11.25 2.91699 9.16671C2.91699 7.08335 4.58185 5.10052 6.66699 5.10052ZM16.712 11.7486L16.5311 12.7745C16.3113 14.0209 15.1227 14.8531 13.8762 14.6334C12.6298 14.4136 11.7976 13.225 12.0174 11.9785L12.1982 10.9527L16.712 11.7486ZM15.8374 8.20966C15.9749 7.79319 16.0882 7.46457 16.0896 7.45985C16.2577 6.91142 16.3903 6.37406 16.4939 5.78685C16.7132 4.54307 15.9087 3.24715 14.8589 3.06205C14.8097 3.05336 14.65 3.14102 14.3835 3.49115C14.0254 3.96166 13.73 4.66529 13.6216 5.28037C13.573 5.55555 13.5807 5.61724 13.8468 7.1662C13.8833 7.37888 13.9145 7.57099 13.943 7.76355L13.9601 7.87864L15.8374 8.20966ZM15.1483 1.4207C17.2017 1.78278 18.497 4.02458 18.1352 6.07626C17.7735 8.12795 17.1461 9.28663 17.0014 10.1073L12.4877 9.31138L12.2944 8.00802C12.1011 6.70466 11.8355 5.81163 11.9802 4.99096C12.2696 3.34961 13.5069 1.13129 15.1483 1.4207Z" fill="#E3E3E3"/>
</svg>
