<svg width="20" height="20" viewBox="0 0 20 20" fill="none" xmlns="http://www.w3.org/2000/svg">
<path d="M10.8336 17.5H15.0002V19.1666H5.00026V17.5H9.16691V16.6255C6.42241 16.353 4.06959 14.7489 2.76367 12.4685L4.21099 11.6414C5.36006 13.648 7.52228 15 10.0002 15C13.6822 15 16.6669 12.0151 16.6669 8.33327C16.6669 5.85529 15.315 3.69307 13.3084 2.544L14.1355 1.09668C16.6437 2.53302 18.3336 5.23579 18.3336 8.33327C18.3336 12.6544 15.0447 16.2074 10.8336 16.6255V17.5ZM10.0002 14.1666C6.7786 14.1666 4.16693 11.5549 4.16693 8.33327C4.16693 5.11161 6.7786 2.49994 10.0002 2.49994C13.2219 2.49994 15.8336 5.11161 15.8336 8.33327C15.8336 11.5549 13.2219 14.1666 10.0002 14.1666ZM10.0002 12.5C12.3014 12.5 14.1669 10.6345 14.1669 8.33327C14.1669 6.03209 12.3014 4.1666 10.0002 4.1666C7.69908 4.1666 5.8336 6.03209 5.8336 8.33327C5.8336 10.6345 7.69908 12.5 10.0002 12.5Z" fill="#E3E3E3"/>
</svg>
