<svg width="20" height="20" viewBox="0 0 20 20" fill="none" xmlns="http://www.w3.org/2000/svg">
<path d="M4.58403 16.6667C5.27439 16.6667 5.83403 17.2263 5.83403 17.9167C5.83403 18.607 5.27439 19.1667 4.58403 19.1667C3.89368 19.1667 3.33403 18.607 3.33403 17.9167C3.33403 17.2263 3.89368 16.6667 4.58403 16.6667ZM15.4174 16.6667C16.1077 16.6667 16.6674 17.2263 16.6674 17.9167C16.6674 18.607 16.1077 19.1667 15.4174 19.1667C14.727 19.1667 14.1674 18.607 14.1674 17.9167C14.1674 17.2263 14.727 16.6667 15.4174 16.6667ZM1.81035 1.46448L5.00017 4.65448V14.1661L16.6674 14.1667V15.8334H4.16737C3.70713 15.8334 3.33403 15.4602 3.33403 15L3.3335 5.34448L0.631836 2.64299L1.81035 1.46448ZM13.3341 2.50001C13.7942 2.50001 14.1674 2.87311 14.1674 3.33334L14.1668 4.99948L16.6617 5.00001C17.1251 5.00001 17.5007 5.37974 17.5007 5.82951V12.5039C17.5007 12.962 17.1257 13.3334 16.6617 13.3334H6.67308C6.20969 13.3334 5.83403 12.9536 5.83403 12.5039V5.82951C5.83403 5.37139 6.20899 5.00001 6.67308 5.00001L9.16683 4.99948L9.16741 3.33334C9.16741 2.87311 9.54049 2.50001 10.0007 2.50001H13.3341ZM8.3335 6.66615L7.5007 6.66668V11.6667L8.3335 11.6661V6.66615ZM13.3335 6.66615H10.0002V11.6661H13.3335V6.66615ZM15.8341 6.66668L15.0002 6.66615V11.6661L15.8341 11.6667V6.66668ZM12.5007 4.16668H10.8341V5.00001H12.5007V4.16668Z" fill="#E3E3E3"/>
</svg>
