<svg width="20" height="20" viewBox="0 0 20 20" fill="none" xmlns="http://www.w3.org/2000/svg">
<path d="M10.0003 1.66663C14.6027 1.66663 18.3337 5.39758 18.3337 9.99996C18.3337 14.6023 14.6027 18.3333 10.0003 18.3333C5.39795 18.3333 1.66699 14.6023 1.66699 9.99996C1.66699 5.39758 5.39795 1.66663 10.0003 1.66663ZM10.0003 14.1666C9.46282 14.1666 8.94916 14.0649 8.47741 13.8795L6.61369 15.7435C7.60622 16.33 8.76399 16.6666 10.0003 16.6666C11.2367 16.6666 12.3944 16.33 13.387 15.7435L11.5232 13.8795C11.0515 14.0649 10.5378 14.1666 10.0003 14.1666ZM3.33366 9.99996C3.33366 11.2363 3.67021 12.394 4.2567 13.3866L6.12075 11.5229C5.93543 11.0511 5.83366 10.5375 5.83366 9.99996C5.83366 9.46246 5.93543 8.94879 6.12075 8.47704L4.2567 6.61333C3.67021 7.60585 3.33366 8.76362 3.33366 9.99996ZM15.7439 6.61333L13.8799 8.47704C14.0652 8.94879 14.167 9.46246 14.167 9.99996C14.167 10.5375 14.0652 11.0511 13.8799 11.5229L15.7439 13.3866C16.3304 12.394 16.667 11.2363 16.667 9.99996C16.667 8.76362 16.3304 7.60585 15.7439 6.61333ZM10.0003 7.49996C8.61957 7.49996 7.50032 8.61921 7.50032 9.99996C7.50032 11.3807 8.61957 12.5 10.0003 12.5C11.3811 12.5 12.5003 11.3807 12.5003 9.99996C12.5003 8.61921 11.3811 7.49996 10.0003 7.49996ZM10.0003 3.33329C8.76399 3.33329 7.60622 3.66984 6.61369 4.25633L8.47741 6.12038C8.94916 5.93507 9.46282 5.83329 10.0003 5.83329C10.5378 5.83329 11.0515 5.93507 11.5232 6.12038L13.387 4.25633C12.3944 3.66984 11.2367 3.33329 10.0003 3.33329Z" fill="#E3E3E3"/>
</svg>
