<svg width="20" height="20" viewBox="0 0 20 20" fill="none" xmlns="http://www.w3.org/2000/svg">
<path d="M10.0003 1.66663C14.6027 1.66663 18.3337 5.39758 18.3337 9.99996C18.3337 14.6023 14.6027 18.3333 10.0003 18.3333C5.39795 18.3333 1.66699 14.6023 1.66699 9.99996C1.66699 5.39758 5.39795 1.66663 10.0003 1.66663ZM5.9979 12.235L4.18568 14.0462C4.60587 14.649 5.11737 15.1832 5.70012 15.629L5.95417 15.8147L7.76535 14.0024C7.09264 13.626 6.52457 13.0848 6.11572 12.4335L5.9979 12.235ZM14.0027 12.235C13.6263 12.9076 13.0852 13.4757 12.4339 13.8845L12.2353 14.0024L14.0466 15.8146C14.6492 15.3945 15.1835 14.883 15.6294 14.3003L15.815 14.0462L14.0027 12.235ZM10.0003 6.66663C8.15937 6.66663 6.66699 8.15901 6.66699 9.99996C6.66699 11.8409 8.15937 13.3333 10.0003 13.3333C11.8412 13.3333 13.3337 11.8409 13.3337 9.99996C13.3337 8.15901 11.8412 6.66663 10.0003 6.66663ZM5.95417 4.18523C5.35143 4.60543 4.81709 5.11695 4.37121 5.69973L4.18559 5.95381L5.9979 7.76498C6.37435 7.09228 6.91549 6.5242 7.56673 6.11536L7.76535 5.99753L5.95417 4.18523ZM14.0466 4.18532L12.2353 5.99753C12.908 6.37398 13.4761 6.91512 13.8849 7.56637L14.0027 7.76498L15.8151 5.95381C15.3949 5.3511 14.8834 4.81679 14.3007 4.37093L14.0466 4.18532Z" fill="#E3E3E3"/>
</svg>
