<svg width="20" height="20" viewBox="0 0 20 20" fill="none" xmlns="http://www.w3.org/2000/svg">
<path d="M9.16634 14.9484C5.87775 14.5383 3.33301 11.733 3.33301 8.33329C3.33301 4.65139 6.31777 1.66663 9.99967 1.66663C13.6816 1.66663 16.6663 4.65139 16.6663 8.33329C16.6663 11.733 14.1216 14.5383 10.833 14.9484V16.6763C14.1216 16.7532 16.6663 17.2792 16.6663 17.9166C16.6663 18.607 13.6816 19.1666 9.99967 19.1666C6.31777 19.1666 3.33301 18.607 3.33301 17.9166C3.33301 17.2792 5.87775 16.7532 9.16634 16.6763V14.9484ZM9.99967 9.99996C10.9202 9.99996 11.6663 9.25379 11.6663 8.33329C11.6663 7.41282 10.9202 6.66663 9.99967 6.66663C9.07917 6.66663 8.33301 7.41282 8.33301 8.33329C8.33301 9.25379 9.07917 9.99996 9.99967 9.99996Z" fill="#E3E3E3"/>
</svg>
