<svg width="20" height="20" viewBox="0 0 20 20" fill="none" xmlns="http://www.w3.org/2000/svg">
<path d="M9.16634 14.9484C5.87775 14.5383 3.33301 11.733 3.33301 8.33329C3.33301 4.65139 6.31777 1.66663 9.99967 1.66663C13.6816 1.66663 16.6663 4.65139 16.6663 8.33329C16.6663 11.733 14.1216 14.5383 10.833 14.9484V17.5H9.16634V14.9484ZM9.99967 13.3333C12.7611 13.3333 14.9997 11.0947 14.9997 8.33329C14.9997 5.57187 12.7611 3.33329 9.99967 3.33329C7.23825 3.33329 4.99967 5.57187 4.99967 8.33329C4.99967 11.0947 7.23825 13.3333 9.99967 13.3333ZM4.16634 18.3333H15.833V20H4.16634V18.3333Z" fill="#E3E3E3"/>
</svg>
