<svg width="20" height="20" viewBox="0 0 20 20" fill="none" xmlns="http://www.w3.org/2000/svg">
<path d="M14.2366 13.1766C16.4022 10.8909 16.3649 7.282 14.1247 5.04183C11.8467 2.76378 8.15327 2.76378 5.87521 5.04183C3.63504 7.282 3.59778 10.8909 5.76343 13.1766C6.64802 11.769 8.21475 10.8333 10 10.8333C11.7852 10.8333 13.352 11.769 14.2366 13.1766ZM6.98779 14.404L10 17.4162L13.0122 14.404C12.4771 13.2782 11.3294 12.5 10 12.5C8.67058 12.5 7.52292 13.2782 6.98779 14.404ZM10 19.7732L4.6967 14.47C1.76777 11.541 1.76777 6.79226 4.6967 3.86333C7.62563 0.934393 12.3743 0.934393 15.3033 3.86333C18.2322 6.79226 18.2322 11.541 15.3033 14.47L10 19.7732ZM10 8.33329C10.4602 8.33329 10.8333 7.96019 10.8333 7.49996C10.8333 7.03973 10.4602 6.66663 10 6.66663C9.53975 6.66663 9.16667 7.03973 9.16667 7.49996C9.16667 7.96019 9.53975 8.33329 10 8.33329ZM10 9.99996C8.61925 9.99996 7.5 8.88071 7.5 7.49996C7.5 6.11925 8.61925 4.99996 10 4.99996C11.3807 4.99996 12.5 6.11925 12.5 7.49996C12.5 8.88071 11.3807 9.99996 10 9.99996Z" fill="#E3E3E3"/>
</svg>
