<svg width="20" height="20" viewBox="0 0 20 20" fill="none" xmlns="http://www.w3.org/2000/svg">
<path d="M9.49124 8.65762L6.25033 11.8985L3.00942 8.65762C1.21952 6.86771 1.21952 3.96571 3.00942 2.1758C4.79933 0.385899 7.70133 0.385899 9.49124 2.1758C11.2812 3.96571 11.2812 6.86771 9.49124 8.65762ZM6.25033 7.08337C7.1708 7.08337 7.91699 6.33718 7.91699 5.41671C7.91699 4.49623 7.1708 3.75004 6.25033 3.75004C5.32985 3.75004 4.58366 4.49623 4.58366 5.41671C4.58366 6.33718 5.32985 7.08337 6.25033 7.08337ZM16.9912 16.1576L13.7503 19.3985L10.5094 16.1576C8.71949 14.3677 8.71949 11.4657 10.5094 9.67579C12.2993 7.8859 15.2013 7.8859 16.9912 9.67579C18.7812 11.4657 18.7812 14.3677 16.9912 16.1576ZM13.7503 14.5834C14.6708 14.5834 15.417 13.8372 15.417 12.9167C15.417 11.9962 14.6708 11.25 13.7503 11.25C12.8298 11.25 12.0837 11.9962 12.0837 12.9167C12.0837 13.8372 12.8298 14.5834 13.7503 14.5834Z" fill="#E3E3E3"/>
</svg>
