<svg width="20" height="20" viewBox="0 0 20 20" fill="none" xmlns="http://www.w3.org/2000/svg">
<path d="M8.31272 7.4791C9.45174 6.34007 9.45174 4.49334 8.31272 3.35432C7.17369 2.21528 5.32696 2.21528 4.18793 3.35432C3.0489 4.49334 3.0489 6.34007 4.18793 7.4791L6.25033 9.54146L8.31272 7.4791ZM6.25033 11.8985L3.00942 8.65762C1.21952 6.86771 1.21952 3.96571 3.00942 2.1758C4.79933 0.385899 7.70133 0.385899 9.49124 2.1758C11.2812 3.96571 11.2812 6.86771 9.49124 8.65762L6.25033 11.8985ZM6.25033 6.66671C5.55997 6.66671 5.00033 6.10707 5.00033 5.41671C5.00033 4.72635 5.55997 4.16671 6.25033 4.16671C6.94068 4.16671 7.50033 4.72635 7.50033 5.41671C7.50033 6.10707 6.94068 6.66671 6.25033 6.66671ZM13.7503 17.0415L15.8127 14.9791C16.9517 13.84 16.9517 11.9934 15.8127 10.8543C14.6737 9.71529 12.827 9.71529 11.6879 10.8543C10.5489 11.9934 10.5489 13.84 11.6879 14.9791L13.7503 17.0415ZM16.9912 16.1576L13.7503 19.3985L10.5094 16.1576C8.71949 14.3677 8.71949 11.4657 10.5094 9.67579C12.2993 7.8859 15.2013 7.8859 16.9912 9.67579C18.7812 11.4657 18.7812 14.3677 16.9912 16.1576ZM13.7503 14.1667C13.06 14.1667 12.5003 13.607 12.5003 12.9167C12.5003 12.2264 13.06 11.6667 13.7503 11.6667C14.4407 11.6667 15.0003 12.2264 15.0003 12.9167C15.0003 13.607 14.4407 14.1667 13.7503 14.1667Z" fill="#E3E3E3"/>
</svg>
