<svg width="20" height="20" viewBox="0 0 20 20" fill="none" xmlns="http://www.w3.org/2000/svg">
<path d="M4.43537 4.97131C4.51972 4.87812 4.60683 4.78654 4.6967 4.69667C5.09954 4.29383 5.53681 3.9464 5.99903 3.65437C5.73742 3.58226 5.50228 3.53956 5.29618 3.52401C4.81923 3.48804 4.61036 3.6013 4.52127 3.69038C4.43219 3.77946 4.31893 3.98834 4.35491 4.46528C4.36645 4.6183 4.39297 4.78733 4.43537 4.97131ZM17.2714 11.8422C17.3228 11.9447 17.3719 12.0464 17.419 12.1472C17.8161 12.9981 18.0784 13.8287 18.1347 14.5752C18.1908 15.3182 18.0467 16.0922 17.4849 16.654C16.9231 17.2158 16.1492 17.3598 15.4062 17.3038C14.7557 17.2547 14.0414 17.0493 13.3055 16.7346L13.3033 16.7356C13.1758 16.681 13.0475 16.6232 12.9187 16.5622C11.2246 15.7602 9.28625 14.3504 7.46658 12.5307C5.64879 10.713 4.24006 8.77682 3.43767 7.08393C3.37648 6.95484 3.31837 6.82622 3.26357 6.69829L3.26445 6.69651C2.94846 5.95876 2.74214 5.24267 2.69296 4.59063C2.63692 3.8476 2.78097 3.07366 3.34277 2.51186C3.90456 1.95008 4.67849 1.80602 5.42152 1.86206C6.16812 1.91837 6.99867 2.1807 7.84958 2.57778C7.95211 2.62563 8.05556 2.67573 8.15984 2.72804C10.6353 2.10413 13.367 2.76034 15.3033 4.69667C17.2402 6.63356 17.8963 9.36624 17.2714 11.8422ZM16.344 14.0035C16.0523 14.4648 15.7054 14.9012 15.3033 15.3032C15.2142 15.3924 15.1233 15.4789 15.0308 15.5627C15.2128 15.6043 15.38 15.6304 15.5315 15.6418C16.0084 15.6778 16.2173 15.5646 16.3064 15.4755C16.3955 15.3864 16.5088 15.1776 16.4728 14.7006C16.4573 14.496 16.4152 14.2628 16.344 14.0035ZM4.6967 15.3032C2.81034 13.4169 2.13888 10.7757 2.68231 8.35199C3.58421 10.0027 4.93645 11.7684 6.5827 13.4147C8.23027 15.0622 9.99758 16.4154 11.6495 17.3173C9.22542 17.8614 6.58346 17.1901 4.6967 15.3032Z" fill="#E3E3E3"/>
</svg>
