<svg width="20" height="20" viewBox="0 0 20 20" fill="none" xmlns="http://www.w3.org/2000/svg">
<path d="M15.8333 16.6667H4.16667V17.5C4.16667 17.9603 3.79357 18.3334 3.33333 18.3334H2.5C2.03977 18.3334 1.66667 17.9603 1.66667 17.5V11.25L0.63122 10.9912C0.260247 10.8985 0 10.5651 0 10.1827V9.58337C0 9.35329 0.186548 9.16671 0.416667 9.16671H1.66667L3.73375 4.34351C3.99638 3.7307 4.59895 3.33337 5.26566 3.33337H14.7343C15.4011 3.33337 16.0036 3.7307 16.2663 4.34351L18.3333 9.16671H19.5833C19.8134 9.16671 20 9.35329 20 9.58337V10.1827C20 10.5651 19.7397 10.8985 19.3687 10.9912L18.3333 11.25V17.5C18.3333 17.9603 17.9602 18.3334 17.5 18.3334H16.6667C16.2064 18.3334 15.8333 17.9603 15.8333 17.5V16.6667ZM16.6667 15V10.8334H3.33333V15H16.6667ZM4.56419 9.16671H15.4358C15.5418 9.16671 15.6468 9.14646 15.7453 9.10712C16.1726 8.93621 16.3805 8.45121 16.2095 8.02388L15 5.00004H5L3.79047 8.02388C3.75109 8.12232 3.73086 8.22736 3.73086 8.33337C3.73086 8.79362 4.10396 9.16671 4.56419 9.16671ZM4.16667 11.6667C6.09727 11.6667 7.3989 12.2957 8.07157 13.5536C8.18007 13.7565 8.10348 14.009 7.90058 14.1175C7.84015 14.1498 7.77267 14.1667 7.70413 14.1667H5C4.53977 14.1667 4.16667 13.7936 4.16667 13.3334V11.6667ZM15.8333 11.6667V13.3334C15.8333 13.7936 15.4602 14.1667 15 14.1667H12.2958C12.2273 14.1667 12.1598 14.1498 12.0994 14.1175C11.8965 14.009 11.82 13.7565 11.9285 13.5536C12.6012 12.2957 13.9028 11.6667 15.8333 11.6667Z" fill="#E3E3E3"/>
</svg>
