<svg width="20" height="20" viewBox="0 0 20 20" fill="none" xmlns="http://www.w3.org/2000/svg">
<path d="M18.3333 11.25V17.5C18.3333 17.9603 17.9602 18.3334 17.5 18.3334H16.6667C16.2064 18.3334 15.8333 17.9603 15.8333 17.5V16.6667H4.16667V17.5C4.16667 17.9603 3.79357 18.3334 3.33333 18.3334H2.5C2.03977 18.3334 1.66667 17.9603 1.66667 17.5V11.25L0.63122 10.9912C0.260247 10.8985 0 10.5651 0 10.1827V9.58337C0 9.35329 0.186548 9.16671 0.416667 9.16671H1.97917L3.76112 4.41483C4.00506 3.76433 4.62692 3.33337 5.32167 3.33337H14.6783C15.3731 3.33337 15.9949 3.76433 16.2389 4.41483L18.0208 9.16671H19.5833C19.8134 9.16671 20 9.35329 20 9.58337V10.1827C20 10.5651 19.7397 10.8985 19.3687 10.9912L18.3333 11.25ZM3.33333 12.5V14.1667C3.33333 14.627 3.70643 15 4.16667 15H6.8708C6.93933 15 7.00682 14.9831 7.06725 14.9508C7.27015 14.8423 7.34668 14.5899 7.23818 14.387C6.56552 13.129 5.26393 12.5 3.33333 12.5ZM16.6667 12.5C14.7361 12.5 13.4344 13.129 12.7618 14.387C12.6532 14.5899 12.7298 14.8423 12.9327 14.9508C12.9932 14.9831 13.0607 15 13.1292 15H15.8333C16.2936 15 16.6667 14.627 16.6667 14.1667V12.5ZM5 5.00004L3.69895 8.90321C3.67062 8.98812 3.65619 9.07712 3.65619 9.16671C3.65619 9.62696 4.02928 10 4.48952 10H15.5105C15.6001 10 15.689 9.98562 15.774 9.95729C16.2106 9.81171 16.4466 9.33979 16.3011 8.90321L15 5.00004H5Z" fill="#E3E3E3"/>
</svg>
