<svg width="20" height="20" viewBox="0 0 20 20" fill="none" xmlns="http://www.w3.org/2000/svg">
<path d="M4.16632 10.8333C4.16632 6.59334 6.58518 2.96969 9.99967 1.51501C13.4141 2.96969 15.833 6.59334 15.833 10.8333C15.833 11.5191 15.7697 12.1887 15.6492 12.8356L17.2662 14.3628C17.4037 14.4928 17.4365 14.6991 17.3458 14.8653L15.2663 18.6778C15.1561 18.8798 14.903 18.9543 14.701 18.844C14.6661 18.825 14.634 18.801 14.6059 18.7729L12.7437 16.9107C12.5874 16.7544 12.3755 16.6666 12.1545 16.6666H7.84482C7.62381 16.6666 7.41185 16.7544 7.25557 16.9107L5.39341 18.7729C5.23069 18.9356 4.96687 18.9356 4.80415 18.7729C4.77602 18.7448 4.75205 18.7127 4.73299 18.6778L2.65343 14.8653C2.56281 14.6991 2.59553 14.4928 2.73312 14.3628L4.35012 12.8356C4.22959 12.1887 4.16632 11.5191 4.16632 10.8333ZM5.39618 16.4131L6.07706 15.7322C6.5459 15.2634 7.18178 14.9999 7.84482 14.9999H12.1545C12.8175 14.9999 13.4534 15.2634 13.9222 15.7322L14.6031 16.4131L15.4213 14.9129L14.5048 14.0474C14.0931 13.6584 13.907 13.0871 14.0107 12.5304C14.1138 11.9769 14.1663 11.4093 14.1663 10.8333C14.1663 7.60866 12.5037 4.74973 9.99967 3.36696C7.49552 4.74973 5.83298 7.60866 5.83298 10.8333C5.83298 11.4093 5.88546 11.9769 5.98859 12.5304C6.09232 13.0871 5.90622 13.6584 5.49448 14.0474L4.57794 14.9129L5.39618 16.4131ZM9.99967 10.8333C9.07917 10.8333 8.33298 10.0871 8.33298 9.16661C8.33298 8.24616 9.07917 7.49997 9.99967 7.49997C10.9201 7.49997 11.6663 8.24616 11.6663 9.16661C11.6663 10.0871 10.9201 10.8333 9.99967 10.8333Z" fill="#E3E3E3"/>
</svg>
