<svg width="20" height="20" viewBox="0 0 20 20" fill="none" xmlns="http://www.w3.org/2000/svg">
<path d="M3.33366 8.66671V3.33337C3.33366 2.87314 3.70676 2.50004 4.16699 2.50004H8.33366V0.833374H11.667V2.50004H15.8337C16.2939 2.50004 16.667 2.87314 16.667 3.33337V8.66671L17.5717 8.93812C17.9982 9.06604 18.2487 9.50654 18.1407 9.93846L16.8767 14.9949C16.8072 14.9983 16.7373 15 16.667 15C16.1852 15 15.7224 14.9183 15.2919 14.7678L16.3337 10.3084L10.0003 8.33337L3.66699 10.3084L4.70873 14.7678C4.27823 14.9183 3.81549 15 3.33366 15C3.26336 15 3.19348 14.9983 3.12403 14.9949L1.85993 9.93846C1.75195 9.50654 2.00251 9.06604 2.42892 8.93812L3.33366 8.66671ZM5.00032 8.16671L10.0003 6.66671L15.0003 8.16671V4.16671H5.00032V8.16671ZM3.33366 16.6667C4.61425 16.6667 5.7824 16.1853 6.66699 15.3935C7.55158 16.1853 8.71974 16.6667 10.0003 16.6667C11.2809 16.6667 12.4491 16.1853 13.3337 15.3935C14.2182 16.1853 15.3864 16.6667 16.667 16.6667H18.3337V18.3334H16.667C15.4527 18.3334 14.3142 18.0087 13.3337 17.4415C12.3531 18.0087 11.2146 18.3334 10.0003 18.3334C8.78607 18.3334 7.64757 18.0087 6.66699 17.4415C5.68642 18.0087 4.54795 18.3334 3.33366 18.3334H1.66699V16.6667H3.33366Z" fill="#E3E3E3"/>
</svg>
