<svg width="20" height="20" viewBox="0 0 20 20" fill="none" xmlns="http://www.w3.org/2000/svg">
<path d="M2.4997 14.9999H17.4997C17.7298 14.9999 17.9163 15.1865 17.9163 15.4165C17.9163 15.5067 17.8871 15.5945 17.833 15.6665L16.083 17.9999C15.9257 18.2097 15.6787 18.3332 15.4163 18.3332H4.58303C4.32073 18.3332 4.07374 18.2097 3.91637 17.9999L2.16637 15.6665C2.02829 15.4825 2.06561 15.2213 2.2497 15.0832C2.32182 15.0291 2.40954 14.9999 2.4997 14.9999ZM12.4997 2.02105V12.4999C12.4997 12.9601 12.1266 13.3332 11.6663 13.3332H3.36662C3.13651 13.3332 2.94996 13.1467 2.94996 12.9165C2.94996 12.822 2.98216 12.7301 3.04127 12.6563L11.7577 1.76076C11.9014 1.58107 12.1636 1.55194 12.3433 1.69569C12.4422 1.77476 12.4997 1.89448 12.4997 2.02105Z" fill="#E3E3E3"/>
</svg>
