<svg width="20" height="20" viewBox="0 0 20 20" fill="none" xmlns="http://www.w3.org/2000/svg">
<path d="M5.09723 16.739C3.01813 15.2236 1.66699 12.7696 1.66699 9.99996C1.66699 5.39758 5.39795 1.66663 10.0003 1.66663C14.6027 1.66663 18.3337 5.39758 18.3337 9.99996C18.3337 12.7696 16.9825 15.2236 14.9034 16.739L14.058 15.29C15.6444 14.0713 16.667 12.155 16.667 9.99996C16.667 6.31806 13.6822 3.33329 10.0003 3.33329C6.31842 3.33329 3.33366 6.31806 3.33366 9.99996C3.33366 12.155 4.35624 14.0713 5.94266 15.29L5.09723 16.739ZM6.7917 13.8348C5.69667 12.9176 5.00032 11.5401 5.00032 9.99996C5.00032 7.23853 7.2389 4.99996 10.0003 4.99996C12.7617 4.99996 15.0003 7.23853 15.0003 9.99996C15.0003 11.5401 14.304 12.9176 13.2089 13.8348L12.3506 12.3637C12.9578 11.76 13.3337 10.9239 13.3337 9.99996C13.3337 8.15901 11.8412 6.66663 10.0003 6.66663C8.15937 6.66663 6.66699 8.15901 6.66699 9.99996C6.66699 10.9239 7.04287 11.76 7.65003 12.3637L6.7917 13.8348ZM9.16699 10.8333H10.8337L11.667 18.3333H8.33366L9.16699 10.8333Z" fill="#E3E3E3"/>
</svg>
