<svg width="20" height="20" viewBox="0 0 20 20" fill="none" xmlns="http://www.w3.org/2000/svg">
<path d="M18.1657 11.6675C17.4691 15.0973 14.6659 17.762 11.1655 18.2523L11.1657 16.565C13.7435 16.11 15.8104 14.1738 16.4558 11.667L18.1657 11.6675ZM3.54265 11.667C4.18098 14.1465 6.21004 16.0678 8.74876 16.5495V18.2401C5.28767 17.7193 2.52374 15.0698 1.83274 11.6675L3.54265 11.667ZM14.9992 9.16663V10.8333H12.4992C11.6206 10.8333 10.9008 11.5132 10.8371 12.3755L10.8325 12.5V15H9.16584V12.5C9.16584 11.6213 8.48601 10.9015 7.6236 10.8379L7.49921 10.8333H4.99921V9.16663H14.9992ZM9.99917 1.66663C14.3203 1.66663 17.8733 4.95548 18.2914 9.16654L16.6143 9.16663C16.2043 5.87805 13.3989 3.33329 9.99917 3.33329C6.59951 3.33329 3.79418 5.87805 3.38411 9.16663L1.70703 9.16654C2.12517 4.95548 5.67811 1.66663 9.99917 1.66663Z" fill="#E3E3E3"/>
</svg>
