<svg width="20" height="20" viewBox="0 0 20 20" fill="none" xmlns="http://www.w3.org/2000/svg">
<path d="M17.5 15C17.5 15.9205 16.7538 16.6667 15.8333 16.6667H14.3333L15.8333 17.9167V18.3334H4.16667V17.9167L5.66667 16.6667H4.16667C3.24619 16.6667 2.5 15.9205 2.5 15V5.83337C2.5 3.99242 3.99238 2.50004 5.83333 2.50004H10.8333V9.16671H17.5V15ZM15.8333 10.8334H4.16667V15H15.8333V10.8334ZM6.25 11.6667C6.94036 11.6667 7.5 12.2264 7.5 12.9167C7.5 13.607 6.94036 14.1667 6.25 14.1667C5.55964 14.1667 5 13.607 5 12.9167C5 12.2264 5.55964 11.6667 6.25 11.6667ZM13.75 11.6667C14.4403 11.6667 15 12.2264 15 12.9167C15 13.607 14.4403 14.1667 13.75 14.1667C13.0597 14.1667 12.5 13.607 12.5 12.9167C12.5 12.2264 13.0597 11.6667 13.75 11.6667ZM9.16667 4.16671H5.83333C4.9547 4.16671 4.23486 4.84661 4.17124 5.70899L4.16667 5.83337V9.16671H9.16667V4.16671ZM15.4167 0.833374C17.4877 0.833374 19.1667 2.51231 19.1667 4.58337C19.1667 6.65444 17.4877 8.33337 15.4167 8.33337C13.3456 8.33337 11.6667 6.65444 11.6667 4.58337C11.6667 2.51231 13.3456 0.833374 15.4167 0.833374ZM15.4165 5.13893C15.0074 5.13893 14.6327 5.28632 14.3427 5.53091L14.238 5.62708L15.4165 6.8056L16.5942 5.62629C16.2927 5.32515 15.8763 5.13893 15.4165 5.13893ZM15.4165 2.91671C14.4138 2.91671 13.4998 3.29617 12.8102 3.91934L12.6658 4.05655L13.4523 4.84141C13.955 4.33873 14.6495 4.02782 15.4165 4.02782C16.1197 4.02782 16.7617 4.28907 17.2511 4.71981L17.3807 4.84141L18.1664 4.05574C17.4627 3.35198 16.4904 2.91671 15.4165 2.91671Z" fill="#E3E3E3"/>
</svg>
