<svg width="20" height="20" viewBox="0 0 20 20" fill="none" xmlns="http://www.w3.org/2000/svg">
<path d="M12.5003 2.5C12.9606 2.5 13.3337 2.8731 13.3337 3.33333V5H17.5003C17.9606 5 18.3337 5.3731 18.3337 5.83333V16.6667C18.3337 17.1269 17.9606 17.5 17.5003 17.5H2.50033C2.04009 17.5 1.66699 17.1269 1.66699 16.6667V5.83333C1.66699 5.3731 2.04009 5 2.50033 5H6.66699V3.33333C6.66699 2.8731 7.04009 2.5 7.50032 2.5H12.5003ZM6.66699 6.66667H5.00032V15.8333H6.66699V6.66667ZM15.0003 6.66667H13.3337V15.8333H15.0003V6.66667ZM11.667 4.16667H8.33366V5H11.667V4.16667Z" fill="#E3E3E3"/>
</svg>
