<svg width="20" height="20" viewBox="0 0 20 20" fill="none" xmlns="http://www.w3.org/2000/svg">
<path d="M2.39941 15.0408C3.52464 10.0464 5.89556 5.52375 9.16868 1.81632C9.25826 1.71482 9.3716 1.58952 9.50868 1.44043C9.75793 1.16939 10.1797 1.15169 10.4507 1.40091C10.4644 1.41352 10.4776 1.42671 10.4902 1.44043C10.6289 1.59132 10.7436 1.71803 10.8341 1.82058C14.1052 5.52723 16.4748 10.0483 17.5995 15.0408C15.815 15.417 13.9826 15.6633 12.1128 15.7696L10.3722 19.2508C10.2693 19.4567 10.0189 19.5401 9.8131 19.4372C9.73251 19.3968 9.6671 19.3314 9.62676 19.2508L7.88619 15.7696C6.01633 15.6633 4.18396 15.417 2.39941 15.0408ZM9.99943 12.4962C11.3802 12.4962 12.4994 11.3769 12.4994 9.99617C12.4994 8.6155 11.3802 7.49618 9.99943 7.49618C8.61876 7.49618 7.49946 8.6155 7.49946 9.99617C7.49946 11.3769 8.61876 12.4962 9.99943 12.4962Z" fill="#E3E3E3"/>
</svg>
