<svg width="20" height="20" viewBox="0 0 20 20" fill="none" xmlns="http://www.w3.org/2000/svg">
<path d="M2.39941 15.0409C3.52464 10.0465 5.89556 5.52375 9.16868 1.81631C9.25826 1.71481 9.3716 1.58951 9.50868 1.44042C9.75793 1.16937 10.1797 1.15169 10.4507 1.40091C10.4644 1.41352 10.4776 1.4267 10.4902 1.44042C10.6289 1.59131 10.7436 1.71803 10.8341 1.82058C14.1052 5.52722 16.4748 10.0484 17.5995 15.0409C15.815 15.417 13.9826 15.6634 12.1128 15.7696L10.3722 19.2508C10.2693 19.4566 10.0189 19.5401 9.8131 19.4371C9.73251 19.3968 9.6671 19.3315 9.62676 19.2508L7.88619 15.7696C6.01633 15.6634 4.18396 15.417 2.39941 15.0409ZM7.98075 14.1056L8.94501 14.1604L9.99943 16.2694L11.0539 14.1604L12.0182 14.1056C13.2031 14.0383 14.3781 13.9117 15.5402 13.727C14.4353 9.93264 12.5444 6.42099 9.99943 3.40437C7.45447 6.42097 5.56365 9.93264 4.45878 13.727C5.62086 13.9117 6.79587 14.0383 7.98075 14.1056ZM9.99943 12.4961C8.61876 12.4961 7.49946 11.3769 7.49946 9.99614C7.49946 8.61547 8.61876 7.49617 9.99943 7.49617C11.3802 7.49617 12.4994 8.61547 12.4994 9.99614C12.4994 11.3769 11.3802 12.4961 9.99943 12.4961ZM9.99943 10.8295C10.4597 10.8295 10.8328 10.4564 10.8328 9.99614C10.8328 9.53597 10.4597 9.16281 9.99943 9.16281C9.53926 9.16281 9.1661 9.53597 9.1661 9.99614C9.1661 10.4564 9.53926 10.8295 9.99943 10.8295Z" fill="#E3E3E3"/>
</svg>
