<svg width="20" height="20" viewBox="0 0 20 20" fill="none" xmlns="http://www.w3.org/2000/svg">
<path d="M10.0003 1.66663C14.6027 1.66663 18.3337 5.39758 18.3337 9.99996C18.3337 14.6023 14.6027 18.3333 10.0003 18.3333C5.39795 18.3333 1.66699 14.6023 1.66699 9.99996C1.66699 5.39758 5.39795 1.66663 10.0003 1.66663ZM6.66699 10.8333L3.38533 10.8341C3.7617 13.8493 6.15168 16.239 9.16699 16.615V13.3333C7.78628 13.3333 6.66699 12.214 6.66699 10.8333ZM16.6153 10.8341L13.3337 10.8333C13.3337 12.214 12.2144 13.3333 10.8337 13.3333L10.8345 16.615C13.8494 16.2386 16.239 13.849 16.6153 10.8341ZM10.0003 3.33329C6.60063 3.33329 3.79529 5.87805 3.38523 9.16662H6.66699C6.66699 8.70637 7.04009 8.33329 7.50032 8.33329H12.5003C12.9606 8.33329 13.3337 8.70637 13.3337 9.16662H16.6154C16.2053 5.87805 13.4 3.33329 10.0003 3.33329Z" fill="#E3E3E3"/>
</svg>
