<svg width="20" height="20" viewBox="0 0 20 20" fill="none" xmlns="http://www.w3.org/2000/svg">
<path d="M14.3333 16.6667L15.8333 17.9167V18.3333H4.16667V17.9167L5.66667 16.6667H4.16667C3.24619 16.6667 2.5 15.9205 2.5 15V5.83333C2.5 3.99238 3.99238 2.5 5.83333 2.5H14.1667C16.0076 2.5 17.5 3.99238 17.5 5.83333V15C17.5 15.9205 16.7538 16.6667 15.8333 16.6667H14.3333ZM5.83333 4.16667C4.91286 4.16667 4.16667 4.91286 4.16667 5.83333V15H15.8333V5.83333C15.8333 4.91286 15.0872 4.16667 14.1667 4.16667H5.83333ZM10 14.1667C9.0795 14.1667 8.33333 13.4205 8.33333 12.5C8.33333 11.5795 9.0795 10.8333 10 10.8333C10.9205 10.8333 11.6667 11.5795 11.6667 12.5C11.6667 13.4205 10.9205 14.1667 10 14.1667ZM5 5.83333H15V9.16667H5V5.83333Z" fill="#E3E3E3"/>
</svg>
