<svg width="20" height="20" viewBox="0 0 20 20" fill="none" xmlns="http://www.w3.org/2000/svg">
<path d="M10.0003 2.50004V5.83337H5.19705L3.52949 9.16671H18.3337V17.5C18.3337 17.9603 17.9606 18.3334 17.5003 18.3334H16.667C16.2067 18.3334 15.8337 17.9603 15.8337 17.5V16.6667H4.16699V17.5C4.16699 17.9603 3.79389 18.3334 3.33366 18.3334H2.50033C2.04009 18.3334 1.66699 17.9603 1.66699 17.5V9.16671L3.70633 5.08802C3.98866 4.52337 4.56576 4.16671 5.19705 4.16671H7.50033V2.50004H10.0003ZM16.667 10.8334H3.33366V15H16.667V10.8334ZM5.41699 11.6667C6.10735 11.6667 6.66699 12.2264 6.66699 12.9167C6.66699 13.607 6.10735 14.1667 5.41699 14.1667C4.72663 14.1667 4.16699 13.607 4.16699 12.9167C4.16699 12.2264 4.72663 11.6667 5.41699 11.6667ZM14.5837 11.6667C15.274 11.6667 15.8337 12.2264 15.8337 12.9167C15.8337 13.607 15.274 14.1667 14.5837 14.1667C13.8933 14.1667 13.3337 13.607 13.3337 12.9167C13.3337 12.2264 13.8933 11.6667 14.5837 11.6667ZM15.417 0.833374C17.4881 0.833374 19.167 2.51231 19.167 4.58337C19.167 6.65444 17.4881 8.33337 15.417 8.33337C13.3459 8.33337 11.667 6.65444 11.667 4.58337C11.667 2.51231 13.3459 0.833374 15.417 0.833374ZM15.4168 5.13893C15.0077 5.13893 14.6331 5.28632 14.3431 5.53091L14.2383 5.62708L15.4168 6.8056L16.5946 5.62629C16.293 5.32515 15.8767 5.13893 15.4168 5.13893ZM15.4168 2.91671C14.4142 2.91671 13.5002 3.29617 12.8105 3.91934L12.6662 4.05655L13.4527 4.84141C13.9553 4.33873 14.6498 4.02782 15.4168 4.02782C16.12 4.02782 16.7621 4.28907 17.2514 4.71981L17.3811 4.84141L18.1667 4.05574C17.463 3.35198 16.4907 2.91671 15.4168 2.91671Z" fill="#E3E3E3"/>
</svg>
