<svg width="20" height="20" viewBox="0 0 20 20" fill="none" xmlns="http://www.w3.org/2000/svg">
<path d="M5.83301 3.33329V2.49996C5.83301 2.03973 6.20611 1.66663 6.66634 1.66663H13.333C13.7933 1.66663 14.1663 2.03973 14.1663 2.49996V3.33329H16.6663C16.6663 5.41663 14.583 6.24996 14.1663 6.24996V8.33329H16.6663C16.6663 10.4166 14.583 11.25 14.1663 11.25V13.3333H16.6663C16.6663 15.4166 14.583 16.25 14.1663 16.25V17.5C14.1663 17.9602 13.7933 18.3333 13.333 18.3333H6.66634C6.20611 18.3333 5.83301 17.9602 5.83301 17.5V16.25C5.41634 16.25 3.33301 15.4166 3.33301 13.3333H5.83301V11.25C5.41634 11.25 3.33301 10.4166 3.33301 8.33329H5.83301V6.24996C5.41634 6.24996 3.33301 5.41663 3.33301 3.33329H5.83301ZM9.99967 16.6666C10.9202 16.6666 11.6663 15.9205 11.6663 15C11.6663 14.0795 10.9202 13.3333 9.99967 13.3333C9.07917 13.3333 8.33301 14.0795 8.33301 15C8.33301 15.9205 9.07917 16.6666 9.99967 16.6666ZM9.99967 11.6666C10.9202 11.6666 11.6663 10.9205 11.6663 9.99996C11.6663 9.07946 10.9202 8.33329 9.99967 8.33329C9.07917 8.33329 8.33301 9.07946 8.33301 9.99996C8.33301 10.9205 9.07917 11.6666 9.99967 11.6666ZM9.99967 6.66663C10.9202 6.66663 11.6663 5.92043 11.6663 4.99996C11.6663 4.07948 10.9202 3.33329 9.99967 3.33329C9.07917 3.33329 8.33301 4.07948 8.33301 4.99996C8.33301 5.92043 9.07917 6.66663 9.99967 6.66663Z" fill="#E3E3E3"/>
</svg>
