<svg width="20" height="20" viewBox="0 0 20 20" fill="none" xmlns="http://www.w3.org/2000/svg">
<path d="M10.4151 2.50004C10.1477 3.14142 10 3.84515 10 4.58337C10 5.01355 10.0502 5.43202 10.1449 5.83324L4.16667 5.83337V9.16671L12.5292 9.16704C13.365 9.69471 14.3552 10 15.4167 10C16.1551 10 16.859 9.85229 17.5005 9.58471L17.5 15C17.5 15.9205 16.7538 16.6667 15.8333 16.6667H14.3333L15.8333 17.9167V18.3334H4.16667V17.9167L5.66667 16.6667H4.16667C3.24619 16.6667 2.5 15.9205 2.5 15V5.83337C2.5 3.99242 3.99238 2.50004 5.83333 2.50004H10.4151ZM10 11.6667C9.0795 11.6667 8.33333 12.4129 8.33333 13.3334C8.33333 14.2539 9.0795 15 10 15C10.9205 15 11.6667 14.2539 11.6667 13.3334C11.6667 12.4129 10.9205 11.6667 10 11.6667ZM15.4167 0.833374C17.4877 0.833374 19.1667 2.51231 19.1667 4.58337C19.1667 6.65444 17.4877 8.33337 15.4167 8.33337C13.3456 8.33337 11.6667 6.65444 11.6667 4.58337C11.6667 2.51231 13.3456 0.833374 15.4167 0.833374ZM15.4165 5.13893C15.0074 5.13893 14.6327 5.28632 14.3427 5.53091L14.238 5.62708L15.4165 6.8056L16.5942 5.62629C16.2927 5.32515 15.8763 5.13893 15.4165 5.13893ZM15.4165 2.91671C14.4138 2.91671 13.4998 3.29617 12.8102 3.91934L12.6658 4.05655L13.4523 4.84141C13.955 4.33873 14.6495 4.02782 15.4165 4.02782C16.1197 4.02782 16.7617 4.28907 17.2511 4.71981L17.3807 4.84141L18.1664 4.05574C17.4627 3.35198 16.4904 2.91671 15.4165 2.91671Z" fill="#E3E3E3"/>
</svg>
