<svg width="20" height="20" viewBox="0 0 20 20" fill="none" xmlns="http://www.w3.org/2000/svg">
<path d="M14.3333 16.6667L15.8333 17.9167V18.3333H4.16667V17.9167L5.66667 16.6667H4.16667C3.24619 16.6667 2.5 15.9205 2.5 15V5.83333C2.5 3.99238 3.99238 2.5 5.83333 2.5H14.1667C16.0076 2.5 17.5 3.99238 17.5 5.83333V15C17.5 15.9205 16.7538 16.6667 15.8333 16.6667H14.3333ZM4.16667 5.83333V9.16667H15.8333V5.83333H4.16667ZM10 15C10.9205 15 11.6667 14.2538 11.6667 13.3333C11.6667 12.4128 10.9205 11.6667 10 11.6667C9.0795 11.6667 8.33333 12.4128 8.33333 13.3333C8.33333 14.2538 9.0795 15 10 15Z" fill="#E3E3E3"/>
</svg>
