<svg width="20" height="20" viewBox="0 0 20 20" fill="none" xmlns="http://www.w3.org/2000/svg">
<g clip-path="url(#clip0_1533_602)">
<path d="M17.056 7.24487L17.2615 6.77347C17.6277 5.93293 18.2874 5.26372 19.1106 4.89761L19.7436 4.61606C20.0859 4.46382 20.0859 3.96572 19.7436 3.81347L19.146 3.54766C18.3017 3.17213 17.6302 2.47815 17.2702 1.60907L17.0592 1.09965C16.9122 0.744615 16.4218 0.744615 16.2747 1.09965L16.0637 1.60907C15.7038 2.47815 15.0323 3.17213 14.188 3.54766L13.5903 3.81347C13.2481 3.96572 13.2481 4.46382 13.5903 4.61606L14.2234 4.89761C15.0466 5.26372 15.7062 5.93293 16.0725 6.77347L16.2779 7.24487C16.4283 7.58997 16.9057 7.58997 17.056 7.24487ZM16.667 9.16671C17.2514 9.16671 17.8123 9.06646 18.3337 8.88221V16.6722C18.3337 17.1294 17.9542 17.5 17.5072 17.5H2.49349C2.03703 17.5 1.66699 17.1293 1.66699 16.6722V3.32787C1.66699 2.87067 2.04642 2.50004 2.49349 2.50004H11.9515C11.7672 3.02134 11.667 3.58232 11.667 4.16671C11.667 6.92813 13.9056 9.16671 16.667 9.16671ZM3.33366 4.16671V5.83337H5.00033V4.16671H3.33366ZM3.33366 7.50004V9.16671H5.00033V7.50004H3.33366ZM3.33366 10.8334V12.5H5.00033V10.8334H3.33366ZM15.0003 10.8334V12.5H16.667V10.8334H15.0003ZM3.33366 14.1667V15.8334H5.00033V14.1667H3.33366ZM15.0003 14.1667V15.8334H16.667V14.1667H15.0003Z" fill="#E3E3E3"/>
</g>
<defs>
<clipPath id="clip0_1533_602">
<rect width="20" height="20" fill="white"/>
</clipPath>
</defs>
</svg>
