<svg width="20" height="20" viewBox="0 0 20 20" fill="none" xmlns="http://www.w3.org/2000/svg">
<path d="M4.16667 4.16667V15.8333H15.8333V4.16667H4.16667ZM3.33333 2.5H16.6667C17.1269 2.5 17.5 2.8731 17.5 3.33333V16.6667C17.5 17.1269 17.1269 17.5 16.6667 17.5H3.33333C2.8731 17.5 2.5 17.1269 2.5 16.6667V3.33333C2.5 2.8731 2.8731 2.5 3.33333 2.5ZM10 13.3333C11.8409 13.3333 13.3333 11.8409 13.3333 10C13.3333 8.15905 11.8409 6.66667 10 6.66667C8.15905 6.66667 6.66667 8.15905 6.66667 10C6.66667 11.8409 8.15905 13.3333 10 13.3333ZM10 15C7.23857 15 5 12.7614 5 10C5 7.23857 7.23857 5 10 5C12.7614 5 15 7.23857 15 10C15 12.7614 12.7614 15 10 15ZM10 11.25C9.30967 11.25 8.75 10.6903 8.75 10C8.75 9.30967 9.30967 8.75 10 8.75C10.6903 8.75 11.25 9.30967 11.25 10C11.25 10.6903 10.6903 11.25 10 11.25Z" fill="#E3E3E3"/>
</svg>
