<svg width="20" height="20" viewBox="0 0 20 20" fill="none" xmlns="http://www.w3.org/2000/svg">
<path d="M12.5003 3.81788V9.99995C12.5003 11.3807 11.3811 12.4999 10.0003 12.4999C8.61957 12.4999 7.50032 11.3807 7.50032 9.99995C7.50032 8.6192 8.61957 7.49995 10.0003 7.49995C10.2925 7.49995 10.573 7.55008 10.8337 7.6422V1.70776C15.0447 2.12586 18.3337 5.67882 18.3337 9.99995C18.3337 14.6024 14.6027 18.3333 10.0003 18.3333C5.39795 18.3333 1.66699 14.6024 1.66699 9.99995C1.66699 5.67882 4.95589 2.12586 9.16699 1.70776V3.38486C5.8784 3.79494 3.33366 6.60026 3.33366 9.99995C3.33366 13.6819 6.31842 16.6666 10.0003 16.6666C13.6822 16.6666 16.667 13.6819 16.667 9.99995C16.667 7.20213 14.9435 4.80686 12.5003 3.81788Z" fill="#E3E3E3"/>
</svg>
