<svg width="20" height="20" viewBox="0 0 20 20" fill="none" xmlns="http://www.w3.org/2000/svg">
<path d="M18.3337 9.99996C18.3337 5.39758 14.6027 1.66663 10.0003 1.66663C7.27427 1.66663 4.85394 2.97558 3.33357 4.99928L3.33366 2.91663H1.66699V7.91663H5.62532V8.33329H7.81267C8.10032 8.33329 8.3335 8.56646 8.3335 8.85412C8.3335 9.14179 8.10032 9.37496 7.81267 9.37496H6.25032V10.625H7.81267C8.10032 10.625 8.3335 10.8581 8.3335 11.1458C8.3335 11.4335 8.10032 11.6666 7.81267 11.6666H5.62532V12.9166H7.81267C8.79066 12.9166 9.58349 12.1238 9.58349 11.1458C9.58349 10.7088 9.42524 10.3088 9.16291 9.99996C9.42524 9.69112 9.58349 9.29112 9.58349 8.85412C9.58349 7.87612 8.79066 7.08329 7.81267 7.08329H6.66699V6.24996L4.48742 6.25016C5.68738 4.48941 7.70884 3.33329 10.0003 3.33329C13.6822 3.33329 16.667 6.31806 16.667 9.99996C16.667 13.6819 13.6822 16.6666 10.0003 16.6666C6.31842 16.6666 3.33366 13.6819 3.33366 9.99996H1.66699C1.66699 14.6023 5.39795 18.3333 10.0003 18.3333C14.6027 18.3333 18.3337 14.6023 18.3337 9.99996ZM10.417 8.95829C10.417 7.8077 11.3497 6.87496 12.5003 6.87496C13.6509 6.87496 14.5837 7.8077 14.5837 8.95829V11.0416C14.5837 12.1922 13.6509 13.125 12.5003 13.125C11.3497 13.125 10.417 12.1922 10.417 11.0416V8.95829ZM12.5003 8.12496C12.0401 8.12496 11.667 8.49804 11.667 8.95829V11.0416C11.667 11.5019 12.0401 11.875 12.5003 11.875C12.9606 11.875 13.3337 11.5019 13.3337 11.0416V8.95829C13.3337 8.49804 12.9606 8.12496 12.5003 8.12496Z" fill="#E3E3E3"/>
</svg>
