<svg width="20" height="20" viewBox="0 0 20 20" fill="none" xmlns="http://www.w3.org/2000/svg">
<path d="M16.3214 17.4999H2.49997C2.03973 17.4999 1.66664 17.1269 1.66664 16.6666V4.99997C1.66664 4.53973 2.03973 4.16663 2.49997 4.16663H2.98812L1.16113 2.33965L2.33965 1.16113L18.8388 17.6603L17.6603 18.8388L16.3214 17.4999ZM6.29604 7.47455C5.49069 8.36211 4.99997 9.54044 4.99997 10.8333C4.99997 13.5947 7.23855 15.8333 10 15.8333C11.2928 15.8333 12.4712 15.3426 13.3588 14.5373L12.1781 13.3566C11.5939 13.8614 10.8326 14.1666 10 14.1666C8.15902 14.1666 6.66664 12.6743 6.66664 10.8333C6.66664 10.0007 6.97192 9.23936 7.47665 8.65519L6.29604 7.47455ZM18.3333 14.8214L14.9623 11.4504C14.9872 11.2482 15 11.0423 15 10.8333C15 8.07188 12.7614 5.8333 10 5.8333C9.79101 5.8333 9.58509 5.84612 9.38284 5.87101L6.75589 3.24405L7.49997 2.49997H12.5L14.1667 4.16663H17.5C17.9602 4.16663 18.3333 4.53973 18.3333 4.99997V14.8214ZM11.2569 7.74509C12.0869 8.08327 12.75 8.74636 13.0882 9.57636L11.2569 7.74509Z" fill="#E3E3E3"/>
</svg>
