<svg width="20" height="20" viewBox="0 0 20 20" fill="none" xmlns="http://www.w3.org/2000/svg">
<path d="M10.0002 0.833374C12.3013 0.833374 14.1668 2.69886 14.1668 5.00004V8.33337C14.1668 10.6345 12.3013 12.5 10.0002 12.5C7.69893 12.5 5.83346 10.6345 5.83346 8.33337V5.00004C5.83346 2.69886 7.69893 0.833374 10.0002 0.833374ZM2.5459 9.16671H4.22587C4.63022 11.9936 7.0614 14.1667 10.0002 14.1667C12.9388 14.1667 15.37 11.9936 15.7744 9.16671H17.4543C17.0701 12.643 14.3098 15.4033 10.8335 15.7876V19.1667H9.16682V15.7876C5.69044 15.4033 2.93019 12.643 2.5459 9.16671Z" fill="#E3E3E3"/>
</svg>
