<svg width="20" height="20" viewBox="0 0 20 20" fill="none" xmlns="http://www.w3.org/2000/svg">
<path d="M8.21534 16.425L10.0003 13.3333H4.22554C5.08942 14.8267 6.51599 15.9539 8.21534 16.425ZM3.54369 11.6666H7.11357L4.22618 6.66552C3.65855 7.64634 3.33366 8.78521 3.33366 9.99996C3.33366 10.5755 3.40658 11.134 3.54369 11.6666ZM5.32946 5.24312L7.11357 8.33329L10.0003 3.33329C8.18124 3.33329 6.53232 4.06187 5.32946 5.24312ZM11.7853 3.57494L10.0003 6.66663H15.7751C14.9112 5.17322 13.4847 4.04603 11.7853 3.57494ZM16.457 8.33329H12.8871L15.7745 13.3344C16.3421 12.3535 16.667 11.2147 16.667 9.99996C16.667 9.42446 16.5941 8.86596 16.457 8.33329ZM14.6712 14.7568L12.8871 11.6666L10.0003 16.6666C11.8194 16.6666 13.4683 15.938 14.6712 14.7568ZM10.0003 18.3333C5.39795 18.3333 1.66699 14.6023 1.66699 9.99996C1.66699 5.39758 5.39795 1.66663 10.0003 1.66663C14.6027 1.66663 18.3337 5.39758 18.3337 9.99996C18.3337 14.6023 14.6027 18.3333 10.0003 18.3333ZM10.9626 8.33329H9.03807L8.07582 9.99996L9.03807 11.6666H10.9626L11.9248 9.99996L10.9626 8.33329Z" fill="#E3E3E3"/>
</svg>
