<svg width="20" height="20" viewBox="0 0 20 20" fill="none" xmlns="http://www.w3.org/2000/svg">
<path d="M4.16667 4.16667V15.8333H15.8333V4.16667H4.16667ZM3.33333 2.5H16.6667C17.1269 2.5 17.5 2.8731 17.5 3.33333V16.6667C17.5 17.1269 17.1269 17.5 16.6667 17.5H3.33333C2.8731 17.5 2.5 17.1269 2.5 16.6667V3.33333C2.5 2.8731 2.8731 2.5 3.33333 2.5ZM5.83333 6.66667C5.3731 6.66667 5 6.29357 5 5.83333C5 5.3731 5.3731 5 5.83333 5C6.29357 5 6.66667 5.3731 6.66667 5.83333C6.66667 6.29357 6.29357 6.66667 5.83333 6.66667ZM14.1667 6.66667C13.7064 6.66667 13.3333 6.29357 13.3333 5.83333C13.3333 5.3731 13.7064 5 14.1667 5C14.6269 5 15 5.3731 15 5.83333C15 6.29357 14.6269 6.66667 14.1667 6.66667ZM14.1667 15C13.7064 15 13.3333 14.6269 13.3333 14.1667C13.3333 13.7064 13.7064 13.3333 14.1667 13.3333C14.6269 13.3333 15 13.7064 15 14.1667C15 14.6269 14.6269 15 14.1667 15ZM5.83333 15C5.3731 15 5 14.6269 5 14.1667C5 13.7064 5.3731 13.3333 5.83333 13.3333C6.29357 13.3333 6.66667 13.7064 6.66667 14.1667C6.66667 14.6269 6.29357 15 5.83333 15ZM10 12.5C11.3807 12.5 12.5 11.3807 12.5 10C12.5 8.61925 11.3807 7.5 10 7.5C8.61925 7.5 7.5 8.61925 7.5 10C7.5 11.3807 8.61925 12.5 10 12.5ZM10 14.1667C7.69882 14.1667 5.83333 12.3012 5.83333 10C5.83333 7.69882 7.69882 5.83333 10 5.83333C12.3012 5.83333 14.1667 7.69882 14.1667 10C14.1667 12.3012 12.3012 14.1667 10 14.1667ZM10 10.8333C9.53975 10.8333 9.16667 10.4602 9.16667 10C9.16667 9.53975 9.53975 9.16667 10 9.16667C10.4602 9.16667 10.8333 9.53975 10.8333 10C10.8333 10.4602 10.4602 10.8333 10 10.8333Z" fill="#E3E3E3"/>
</svg>
