<svg width="20" height="20" viewBox="0 0 20 20" fill="none" xmlns="http://www.w3.org/2000/svg">
<path d="M16.3137 12.147L13.0892 8.92246C12.7638 8.59696 12.2362 8.59696 11.9107 8.92246L5.72102 15.1121C4.26164 13.8892 3.33366 12.053 3.33366 9.99996C3.33366 6.31806 6.31842 3.33329 10.0003 3.33329C13.6822 3.33329 16.667 6.31806 16.667 9.99996C16.667 10.7511 16.5427 11.4732 16.3137 12.147ZM7.15805 16.0321L12.5 10.6902L15.5319 13.7221C14.333 15.5002 12.3014 16.6665 9.99999 16.6665C8.98241 16.6665 8.01987 16.439 7.15805 16.0321ZM10.0003 18.3333C14.6027 18.3333 18.3337 14.6023 18.3337 9.99996C18.3337 5.39758 14.6027 1.66663 10.0003 1.66663C5.39795 1.66663 1.66699 5.39758 1.66699 9.99996C1.66699 14.6023 5.39795 18.3333 10.0003 18.3333ZM9.16699 8.33329C9.16699 9.25379 8.42082 9.99996 7.50032 9.99996C6.57985 9.99996 5.83366 9.25379 5.83366 8.33329C5.83366 7.41282 6.57985 6.66663 7.50032 6.66663C8.42082 6.66663 9.16699 7.41282 9.16699 8.33329Z" fill="#E3E3E3"/>
</svg>
