<svg width="20" height="20" viewBox="0 0 20 20" fill="none" xmlns="http://www.w3.org/2000/svg">
<path d="M16.1581 2.63422L17.3366 3.81273L15.2736 5.87454L17.3366 7.93753L15.2736 9.99933L17.3366 12.0623L15.2742 14.1248L17.3366 16.1871L16.1581 17.3656L12.9172 14.1248L14.9796 12.0623L12.9172 9.99992L14.9796 7.93753L12.9172 5.87513L16.1581 2.63422ZM10.8338 16.6207C10.8338 16.8508 10.6472 17.0373 10.4172 17.0373C10.321 17.0373 10.2277 17.0041 10.1533 16.9432L5.74133 13.3325L2.50049 13.3333C2.04025 13.3333 1.66716 12.9602 1.66716 12.4999V7.49992C1.66716 7.03968 2.04025 6.66659 2.50049 6.66659L4.6535 6.6646L1.50684 3.51811L2.68534 2.3396L10.8335 10.4879L10.8338 16.6207ZM10.7397 3.11534C10.8006 3.18978 10.8338 3.28301 10.8338 3.37919V8.13089L7.73549 5.03339L10.1533 3.05671C10.3314 2.91098 10.5939 2.93724 10.7397 3.11534Z" fill="#E3E3E3"/>
</svg>
