<svg width="20" height="20" viewBox="0 0 20 20" fill="none" xmlns="http://www.w3.org/2000/svg">
<path d="M14.167 8.33337H16.667V5.00004H3.33366V8.33337H12.5003V6.66671H14.167V8.33337ZM5.00032 2.50004V0.833374H6.66699V2.50004H17.5072C17.9637 2.50004 18.3337 2.87083 18.3337 3.32787V16.6722C18.3337 17.1294 17.9542 17.5 17.5072 17.5H2.49349C2.03703 17.5 1.66699 17.1293 1.66699 16.6722V3.32787C1.66699 2.87067 2.04642 2.50004 2.49349 2.50004H5.00032ZM5.83366 15.8334C7.21437 15.8334 8.33366 14.7141 8.33366 13.3334C8.33366 11.9526 7.21437 10.8334 5.83366 10.8334C4.45295 10.8334 3.33366 11.9526 3.33366 13.3334C3.33366 14.7141 4.45295 15.8334 5.83366 15.8334Z" fill="#E3E3E3"/>
</svg>
