<svg width="20" height="20" viewBox="0 0 20 20" fill="none" xmlns="http://www.w3.org/2000/svg">
<g clip-path="url(#clip0_1533_549)">
<path d="M17.056 7.24487L17.2615 6.77347C17.6277 5.93293 18.2874 5.26372 19.1106 4.89761L19.7436 4.61606C20.0859 4.46382 20.0859 3.96572 19.7436 3.81347L19.146 3.54766C18.3017 3.17213 17.6302 2.47815 17.2702 1.60907L17.0592 1.09965C16.9122 0.744616 16.4218 0.744616 16.2747 1.09965L16.0637 1.60907C15.7038 2.47815 15.0323 3.17213 14.188 3.54766L13.5903 3.81347C13.2481 3.96572 13.2481 4.46382 13.5903 4.61606L14.2234 4.89761C15.0466 5.26372 15.7062 5.93293 16.0725 6.77347L16.2779 7.24487C16.4283 7.58997 16.9057 7.58997 17.056 7.24487ZM10.0003 18.3334C14.6027 18.3334 18.3337 14.6024 18.3337 10C18.3337 9.66437 18.3138 9.33337 18.2752 9.00812L16.6201 9.20454C16.6511 9.46537 16.667 9.73087 16.667 10C16.667 11.2148 16.3421 12.3536 15.7745 13.3345L12.8871 8.33337H14.9416L13.9799 6.66671H10.0006L12.6408 2.09376C11.8111 1.81679 10.9232 1.66671 10.0003 1.66671C5.39795 1.66671 1.66699 5.39767 1.66699 10C1.66699 14.6024 5.39795 18.3334 10.0003 18.3334ZM10.0006 3.33337L7.11371 8.33362L5.32945 5.24322C6.53232 4.06195 8.18153 3.33337 10.0006 3.33337ZM8.07596 10.0003L9.03833 8.33337H10.9626L11.9249 10.0001L10.9627 11.6667H9.03808L8.07596 10.0003ZM10.0004 13.3334L8.21544 16.4251C6.51604 15.954 5.08944 14.8268 4.22554 13.3334H10.0004ZM10.0004 16.6667L12.8872 11.6668L14.6712 14.7569C13.4683 15.9381 11.8195 16.6667 10.0004 16.6667ZM4.22618 6.66562L7.11356 11.6667H3.54369C3.40658 11.134 3.33366 10.5755 3.33366 10C3.33366 8.78529 3.65855 7.64644 4.22618 6.66562Z" fill="#E3E3E3"/>
</g>
<defs>
<clipPath id="clip0_1533_549">
<rect width="20" height="20" fill="white"/>
</clipPath>
</defs>
</svg>
