<svg width="20" height="20" viewBox="0 0 20 20" fill="none" xmlns="http://www.w3.org/2000/svg">
<path d="M2.5 3.32783C2.5 2.87063 2.87079 2.5 3.32783 2.5H16.6722C17.1293 2.5 17.5 2.87079 17.5 3.32783V16.6722C17.5 17.1293 17.1292 17.5 16.6722 17.5H3.32783C2.87063 17.5 2.5 17.1292 2.5 16.6722V3.32783ZM5 14.1667V15.8333H15V14.1667H5ZM4.16667 4.16667V5.83333H5.83333V4.16667H4.16667ZM10 10C9.0795 10 8.33333 9.25383 8.33333 8.33333C8.33333 7.41286 9.0795 6.66667 10 6.66667C10.9205 6.66667 11.6667 7.41286 11.6667 8.33333C11.6667 9.25383 10.9205 10 10 10ZM10 11.6667C11.8409 11.6667 13.3333 10.1742 13.3333 8.33333C13.3333 6.49238 11.8409 5 10 5C8.15905 5 6.66667 6.49238 6.66667 8.33333C6.66667 10.1742 8.15905 11.6667 10 11.6667Z" fill="#E3E3E3"/>
</svg>
