<svg width="20" height="20" viewBox="0 0 20 20" fill="none" xmlns="http://www.w3.org/2000/svg">
<path d="M12.3353 3.33333C11.9098 4.06877 11.6663 4.92262 11.6663 5.83333C11.6663 8.59475 13.9049 10.8333 16.6663 10.8333C17.5771 10.8333 18.4309 10.5898 19.1663 10.1644V15.8326C19.1663 16.2933 18.8001 16.6667 18.3309 16.6667H1.66839C1.20702 16.6667 0.833008 16.2962 0.833008 15.8326V4.16739C0.833008 3.70676 1.19922 3.33333 1.66839 3.33333H12.3353ZM16.6663 9.16667C14.8254 9.16667 13.333 7.67428 13.333 5.83333C13.333 3.99238 14.8254 2.5 16.6663 2.5C18.5073 2.5 19.9997 3.99238 19.9997 5.83333C19.9997 7.67428 18.5073 9.16667 16.6663 9.16667ZM16.6663 7.5C17.5868 7.5 18.333 6.75381 18.333 5.83333C18.333 4.91286 17.5868 4.16667 16.6663 4.16667C15.7458 4.16667 14.9997 4.91286 14.9997 5.83333C14.9997 6.75381 15.7458 7.5 16.6663 7.5ZM15.833 12.5V15H17.4997V12.5H15.833Z" fill="#E3E3E3"/>
</svg>
