<svg width="20" height="20" viewBox="0 0 20 20" fill="none" xmlns="http://www.w3.org/2000/svg">
<path d="M17.2155 8.33333C16.5291 6.39135 14.677 5 12.5 5C9.73858 5 7.5 7.23857 7.5 10C7.5 12.7614 9.73858 15 12.5 15C14.677 15 16.5291 13.6087 17.2155 11.6667H17.5V16.6667C17.5 17.1269 17.1269 17.5 16.6667 17.5H3.33333C2.8731 17.5 2.5 17.1269 2.5 16.6667V3.33333C2.5 2.8731 2.8731 2.5 3.33333 2.5H16.6667C17.1269 2.5 17.5 2.8731 17.5 3.33333V8.33333H17.2155ZM4.16667 5V7.5H5.83333V5H4.16667ZM12.5 13.3333C10.6591 13.3333 9.16667 11.8409 9.16667 10C9.16667 8.15905 10.6591 6.66667 12.5 6.66667C14.3409 6.66667 15.8333 8.15905 15.8333 10C15.8333 11.8409 14.3409 13.3333 12.5 13.3333ZM12.5 11.6667C13.4205 11.6667 14.1667 10.9205 14.1667 10C14.1667 9.0795 13.4205 8.33333 12.5 8.33333C11.5795 8.33333 10.8333 9.0795 10.8333 10C10.8333 10.9205 11.5795 11.6667 12.5 11.6667Z" fill="#E3E3E3"/>
</svg>
