<svg width="20" height="20" viewBox="0 0 20 20" fill="none" xmlns="http://www.w3.org/2000/svg">
<path d="M3.92783 7.60684L3.72235 8.07824C3.57197 8.42333 3.09464 8.42333 2.94427 8.07824L2.7388 7.60684C2.37255 6.76631 1.71287 6.09709 0.889725 5.73098L0.256706 5.44943C-0.0855685 5.29719 -0.0855685 4.79909 0.256706 4.64685L0.854333 4.38103C1.69865 4.00551 2.37014 3.31152 2.7301 2.44244L2.9411 1.93302C3.08815 1.57799 3.57847 1.57799 3.72552 1.93302L3.93652 2.44244C4.29647 3.31152 4.96798 4.00551 5.81233 4.38103L6.4099 4.64685C6.75226 4.79909 6.75226 5.29719 6.4099 5.44943L5.7769 5.73098C4.95376 6.09709 4.29407 6.76631 3.92783 7.60684ZM0.833333 15.8334V10.0001H2.5V15.0001H12.5V5.00008H8.33333V3.33341H13.3333C13.7936 3.33341 14.1667 3.70651 14.1667 4.16675V7.66675L18.5111 4.62567C18.6996 4.49371 18.9594 4.53956 19.0913 4.72808C19.1403 4.79811 19.1667 4.88153 19.1667 4.96702V15.0332C19.1667 15.2632 18.9801 15.4498 18.75 15.4498C18.6645 15.4498 18.5811 15.4235 18.5111 15.3745L14.1667 12.3334V15.8334C14.1667 16.2937 13.7936 16.6667 13.3333 16.6667H1.66667C1.20643 16.6667 0.833333 16.2937 0.833333 15.8334ZM14.1667 10.299L17.5 12.6323V7.36784L14.1667 9.70116V10.299Z" fill="#E3E3E3"/>
</svg>
