<svg width="20" height="20" viewBox="0 0 20 20" fill="none" xmlns="http://www.w3.org/2000/svg">
<path d="M6.66667 9.44446L15.1856 3.76523C15.377 3.63759 15.6357 3.68932 15.7633 3.8808C15.809 3.94924 15.8333 4.02967 15.8333 4.11192V15.8881C15.8333 16.1183 15.6467 16.3048 15.4167 16.3048C15.3344 16.3048 15.254 16.2805 15.1856 16.2349L6.66667 10.5556V15.8334C6.66667 16.2936 6.29357 16.6667 5.83333 16.6667C5.3731 16.6667 5 16.2936 5 15.8334V4.16671C5 3.70647 5.3731 3.33337 5.83333 3.33337C6.29357 3.33337 6.66667 3.70647 6.66667 4.16671V9.44446Z" fill="#E3E3E3"/>
</svg>
