<svg width="20" height="20" viewBox="0 0 20 20" fill="none" xmlns="http://www.w3.org/2000/svg">
<path d="M4.16667 3.33341V16.6667H15.8333V3.33341H4.16667ZM3.33333 1.66675H16.6667C17.1269 1.66675 17.5 2.03985 17.5 2.50008V17.5001C17.5 17.9603 17.1269 18.3334 16.6667 18.3334H3.33333C2.8731 18.3334 2.5 17.9603 2.5 17.5001V2.50008C2.5 2.03985 2.8731 1.66675 3.33333 1.66675ZM10 14.1667C11.1506 14.1667 12.0833 13.234 12.0833 12.0834C12.0833 10.9328 11.1506 10.0001 10 10.0001C8.84942 10.0001 7.91667 10.9328 7.91667 12.0834C7.91667 13.234 8.84942 14.1667 10 14.1667ZM10 15.8334C7.92893 15.8334 6.25 14.1545 6.25 12.0834C6.25 10.0123 7.92893 8.33341 10 8.33341C12.0711 8.33341 13.75 10.0123 13.75 12.0834C13.75 14.1545 12.0711 15.8334 10 15.8334ZM10 7.08341C9.30967 7.08341 8.75 6.52377 8.75 5.83341C8.75 5.14306 9.30967 4.58341 10 4.58341C10.6903 4.58341 11.25 5.14306 11.25 5.83341C11.25 6.52377 10.6903 7.08341 10 7.08341Z" fill="#E3E3E3"/>
</svg>
