<svg width="20" height="20" viewBox="0 0 20 20" fill="none" xmlns="http://www.w3.org/2000/svg">
<path d="M18.333 3.33337C17.8728 3.33337 17.4997 3.70647 17.4997 4.16671V8.88879L9.81418 3.76509C9.74568 3.71946 9.66526 3.69511 9.58301 3.69511C9.35293 3.69511 9.16634 3.88166 9.16634 4.11177V8.88879L1.4808 3.76509C1.41236 3.71946 1.33193 3.69511 1.24967 3.69511C1.01956 3.69511 0.833008 3.88166 0.833008 4.11177V15.888C0.833008 15.9703 0.857358 16.0507 0.902983 16.1191C1.03063 16.3106 1.28933 16.3624 1.4808 16.2347L9.16634 11.111V15.888C9.16634 15.9703 9.19067 16.0507 9.23634 16.1191C9.36401 16.3106 9.62268 16.3624 9.81418 16.2347L17.4997 11.111V15.8334C17.4997 16.2936 17.8728 16.6667 18.333 16.6667C18.7933 16.6667 19.1663 16.2936 19.1663 15.8334V4.16671C19.1663 3.70647 18.7933 3.33337 18.333 3.33337Z" fill="#E3E3E3"/>
</svg>
