<svg width="20" height="20" viewBox="0 0 20 20" fill="none" xmlns="http://www.w3.org/2000/svg">
<path d="M16.6663 2.5V14.1667C16.6663 16.0076 15.1739 17.5 13.333 17.5C11.4921 17.5 9.99968 16.0076 9.99968 14.1667C9.99968 12.3257 11.4921 10.8333 13.333 10.8333C13.9402 10.8333 14.5094 10.9957 14.9997 11.2793V4.16667H7.49968V14.1667C7.49968 16.0076 6.00729 17.5 4.16634 17.5C2.32539 17.5 0.833008 16.0076 0.833008 14.1667C0.833008 12.3257 2.32539 10.8333 4.16634 10.8333C4.77348 10.8333 5.34272 10.9957 5.83301 11.2793V2.5H16.6663ZM4.16634 15.8333C5.08682 15.8333 5.83301 15.0872 5.83301 14.1667C5.83301 13.2462 5.08682 12.5 4.16634 12.5C3.24587 12.5 2.49967 13.2462 2.49967 14.1667C2.49967 15.0872 3.24587 15.8333 4.16634 15.8333ZM13.333 15.8333C14.2535 15.8333 14.9997 15.0872 14.9997 14.1667C14.9997 13.2462 14.2535 12.5 13.333 12.5C12.4125 12.5 11.6663 13.2462 11.6663 14.1667C11.6663 15.0872 12.4125 15.8333 13.333 15.8333Z" fill="#E3E3E3"/>
</svg>
