<svg width="20" height="20" viewBox="0 0 20 20" fill="none" xmlns="http://www.w3.org/2000/svg">
<path d="M3.33366 4.16667V15.8333H16.667V4.16667H3.33366ZM2.50033 2.5H17.5003C17.9606 2.5 18.3337 2.8731 18.3337 3.33333V16.6667C18.3337 17.1269 17.9606 17.5 17.5003 17.5H2.50033C2.04009 17.5 1.66699 17.1269 1.66699 16.6667V3.33333C1.66699 2.8731 2.04009 2.5 2.50033 2.5ZM9.58366 11.25H8.75032V12.5H7.50032V11.25H5.00032V7.5H6.25032V10H7.50032V7.5H8.75032V10H9.58366V11.25ZM15.0003 12.5H13.542L12.0837 10.625V12.5H10.8337V7.5H12.0837V9.375L13.542 7.5H15.0003L13.1253 10L15.0003 12.5Z" fill="#E3E3E3"/>
</svg>
