<svg width="20" height="20" viewBox="0 0 20 20" fill="none" xmlns="http://www.w3.org/2000/svg">
<path d="M13.6873 14.8659C12.8273 15.3524 11.8616 15.674 10.8333 15.7876V19.1667H9.16667V15.7876C5.69029 15.4033 2.93003 12.643 2.54575 9.16671H4.22572C4.63007 11.9936 7.06124 14.1667 10 14.1667C10.8751 14.1667 11.7052 13.974 12.4502 13.6287L11.1583 12.3369C10.7906 12.4431 10.4019 12.5 10 12.5C7.69878 12.5 5.83331 10.6345 5.83331 8.33337V7.01188L1.16113 2.33972L2.33965 1.16121L18.8388 17.6604L17.6603 18.8389L13.6873 14.8659ZM16.1454 12.6337L14.9434 11.4316C15.3671 10.757 15.6565 9.98954 15.7743 9.16671H17.4542C17.3127 10.4472 16.8488 11.6305 16.1454 12.6337ZM13.7213 10.2095L6.40463 2.89287C7.1284 1.66061 8.46759 0.833374 10 0.833374C12.3012 0.833374 14.1667 2.69886 14.1667 5.00004V8.33337C14.1667 9.00829 14.0062 9.64571 13.7213 10.2095Z" fill="#E3E3E3"/>
</svg>
