<svg width="20" height="20" viewBox="0 0 20 20" fill="none" xmlns="http://www.w3.org/2000/svg">
<path d="M9.67267 2.49996H17.4997C17.9599 2.49996 18.333 2.87306 18.333 3.33329V13.3333C18.333 13.7935 17.9599 14.1666 17.4997 14.1666H11.6663V12.5H16.6663V4.16663H11.4541C12.1132 5.11151 12.4997 6.26059 12.4997 7.49996C12.4997 9.48221 11.5109 11.2336 9.99967 12.2877V17.5C9.99967 17.9602 9.62659 18.3333 9.16634 18.3333H4.16634C3.70611 18.3333 3.33301 17.9602 3.33301 17.5V12.2877C1.82177 11.2336 0.833008 9.48221 0.833008 7.49996C0.833008 4.2783 3.44468 1.66663 6.66634 1.66663C7.76606 1.66663 8.79467 1.97094 9.67267 2.49996ZM4.99967 11.32V16.6666H8.33301V11.32C9.80459 10.677 10.833 9.20854 10.833 7.49996C10.833 5.19878 8.96751 3.33329 6.66634 3.33329C4.36516 3.33329 2.49967 5.19878 2.49967 7.49996C2.49967 9.20854 3.52809 10.677 4.99967 11.32ZM6.66634 9.99996C5.28563 9.99996 4.16634 8.88071 4.16634 7.49996C4.16634 6.11925 5.28563 4.99996 6.66634 4.99996C8.04705 4.99996 9.16634 6.11925 9.16634 7.49996C9.16634 8.88071 8.04705 9.99996 6.66634 9.99996ZM6.66634 8.33329C7.12657 8.33329 7.49967 7.96019 7.49967 7.49996C7.49967 7.03973 7.12657 6.66663 6.66634 6.66663C6.20611 6.66663 5.83301 7.03973 5.83301 7.49996C5.83301 7.96019 6.20611 8.33329 6.66634 8.33329ZM14.1663 5.83329H15.833V7.49996H14.1663V5.83329ZM5.83301 14.1666H7.49967V15.8333H5.83301V14.1666Z" fill="#E3E3E3"/>
</svg>
