<svg width="20" height="20" viewBox="0 0 20 20" fill="none" xmlns="http://www.w3.org/2000/svg">
<path d="M10.0003 1.66663C5.39795 1.66663 1.66699 5.39758 1.66699 9.99996C1.66699 14.6023 5.39795 18.3333 10.0003 18.3333C14.6027 18.3333 18.3337 14.6023 18.3337 9.99996H16.667C16.667 13.6819 13.6822 16.6666 10.0003 16.6666C6.31842 16.6666 3.33366 13.6819 3.33366 9.99996C3.33366 6.31806 6.31842 3.33329 10.0003 3.33329C12.2918 3.33329 14.3132 4.48941 15.5132 6.25016L13.3337 6.24996V7.08329H10.0003V10.625H12.3962C12.6838 10.625 12.917 10.8581 12.917 11.1458C12.917 11.4335 12.6838 11.6666 12.3962 11.6666H10.0003V12.9166H12.3962C13.3742 12.9166 14.167 12.1238 14.167 11.1458C14.167 10.1678 13.3742 9.37496 12.3962 9.37496H11.2503V8.33329H13.9587V7.91663H18.3337V2.91663H16.667L16.6671 4.99928C15.1467 2.97558 12.7264 1.66663 10.0003 1.66663ZM7.08366 7.08329H8.33366V12.9166H7.08366V7.08329Z" fill="#E3E3E3"/>
</svg>
