<svg width="20" height="20" viewBox="0 0 20 20" fill="none" xmlns="http://www.w3.org/2000/svg">
<path d="M5.00032 2.50004V0.833374H6.66699V2.50004H17.5072C17.9637 2.50004 18.3337 2.87083 18.3337 3.32787V16.6722C18.3337 17.1294 17.9542 17.5 17.5072 17.5H2.49349C2.03703 17.5 1.66699 17.1293 1.66699 16.6722V3.32787C1.66699 2.87067 2.04642 2.50004 2.49349 2.50004H5.00032ZM3.33366 4.16671V15.8334H16.667V4.16671H3.33366ZM7.50032 12.5C6.11962 12.5 5.00032 11.3808 5.00032 10C5.00032 8.61929 6.11962 7.50004 7.50032 7.50004C8.88107 7.50004 10.0003 8.61929 10.0003 10C10.0003 11.3808 8.88107 12.5 7.50032 12.5ZM11.667 7.50004H15.0003V9.16671H11.667V7.50004ZM11.667 10.8334H15.0003V12.5H11.667V10.8334Z" fill="#E3E3E3"/>
</svg>
