<svg width="20" height="20" viewBox="0 0 20 20" fill="none" xmlns="http://www.w3.org/2000/svg">
<g clip-path="url(#clip0_1533_546)">
<path d="M17.2615 6.77347L17.056 7.24487C16.9057 7.58997 16.4283 7.58997 16.2779 7.24487L16.0725 6.77347C15.7062 5.93293 15.0466 5.26372 14.2234 4.89761L13.5903 4.61606C13.2481 4.46382 13.2481 3.96572 13.5903 3.81347L14.188 3.54766C15.0323 3.17213 15.7038 2.47815 16.0637 1.60907L16.2747 1.09965C16.4218 0.744615 16.9122 0.744615 17.0592 1.09965L17.2702 1.60907C17.6302 2.47815 18.3017 3.17213 19.146 3.54766L19.7436 3.81347C20.0859 3.96572 20.0859 4.46382 19.7436 4.61606L19.1106 4.89761C18.2874 5.26372 17.6277 5.93293 17.2615 6.77347ZM7.50033 2.50004H11.667V4.16671H8.19068L6.52402 5.83337H3.33366V15.8334H16.667V9.16671H18.3337V16.6667C18.3337 17.127 17.9606 17.5 17.5003 17.5H2.50033C2.04009 17.5 1.66699 17.127 1.66699 16.6667V5.00004C1.66699 4.53981 2.04009 4.16671 2.50033 4.16671H5.83366L7.50033 2.50004ZM10.0003 15C7.46902 15 5.41699 12.948 5.41699 10.4167C5.41699 7.8854 7.46902 5.83337 10.0003 5.83337C12.5317 5.83337 14.5837 7.8854 14.5837 10.4167C14.5837 12.948 12.5317 15 10.0003 15ZM10.0003 13.3334C11.6112 13.3334 12.917 12.0275 12.917 10.4167C12.917 8.80587 11.6112 7.50004 10.0003 7.50004C8.38949 7.50004 7.08366 8.80587 7.08366 10.4167C7.08366 12.0275 8.38949 13.3334 10.0003 13.3334Z" fill="#E3E3E3"/>
</g>
<defs>
<clipPath id="clip0_1533_546">
<rect width="20" height="20" fill="white"/>
</clipPath>
</defs>
</svg>
