<svg width="20" height="20" viewBox="0 0 20 20" fill="none" xmlns="http://www.w3.org/2000/svg">
<path d="M10.833 6.01713L8.00203 8.33342H4.99967V11.6668H8.00203L10.833 13.983V6.01713ZM7.40708 13.3334H4.16634C3.70611 13.3334 3.33301 12.9603 3.33301 12.5001V7.50006C3.33301 7.03982 3.70611 6.66672 4.16634 6.66672H7.40708L11.8192 3.05684C11.9973 2.91112 12.2598 2.93737 12.4055 3.11547C12.4664 3.18992 12.4997 3.28314 12.4997 3.37932V16.6208C12.4997 16.8509 12.3131 17.0374 12.083 17.0374C11.9868 17.0374 11.8936 17.0042 11.8192 16.9433L7.40708 13.3334ZM15.7189 13.8259L14.5339 12.6409C15.324 12.0313 15.833 11.0752 15.833 10.0001C15.833 8.80808 15.2074 7.7623 14.2666 7.17305L15.4654 5.97422C16.6993 6.88472 17.4997 8.34892 17.4997 10.0001C17.4997 11.5352 16.8078 12.9088 15.7189 13.8259Z" fill="#E3E3E3"/>
</svg>
