<svg width="20" height="20" viewBox="0 0 20 20" fill="none" xmlns="http://www.w3.org/2000/svg">
<path d="M2.50033 2.5H17.5003C17.9606 2.5 18.3337 2.8731 18.3337 3.33333V16.6667C18.3337 17.1269 17.9606 17.5 17.5003 17.5H2.50033C2.04009 17.5 1.66699 17.1269 1.66699 16.6667V3.33333C1.66699 2.8731 2.04009 2.5 2.50033 2.5ZM9.58366 11.25V10H8.75032V7.5H7.50032V10H6.25032V7.5H5.00032V11.25H7.50032V12.5H8.75032V11.25H9.58366ZM15.0003 12.5L13.1253 10L15.0003 7.5H13.542L12.0837 9.375V7.5H10.8337V12.5H12.0837V10.625L13.542 12.5H15.0003Z" fill="#E3E3E3"/>
</svg>
