<svg width="20" height="20" viewBox="0 0 20 20" fill="none" xmlns="http://www.w3.org/2000/svg">
<path d="M2.49349 17.5C2.03703 17.5 1.66699 17.1292 1.66699 16.6722V3.32783C1.66699 2.87063 2.04642 2.5 2.49349 2.5H17.5072C17.9637 2.5 18.3337 2.87079 18.3337 3.32783V16.6722C18.3337 17.1293 17.9542 17.5 17.5072 17.5H2.49349ZM16.667 12.5V4.16667H3.33366V15.8333L11.667 7.5L16.667 12.5ZM16.667 14.857L11.667 9.857L5.69068 15.8333H16.667V14.857ZM6.66699 9.16667C5.74652 9.16667 5.00032 8.4205 5.00032 7.5C5.00032 6.57952 5.74652 5.83333 6.66699 5.83333C7.58747 5.83333 8.33366 6.57952 8.33366 7.5C8.33366 8.4205 7.58747 9.16667 6.66699 9.16667Z" fill="#E3E3E3"/>
</svg>
