<svg width="20" height="20" viewBox="0 0 20 20" fill="none" xmlns="http://www.w3.org/2000/svg">
<path d="M1.66699 5.00068C1.66699 4.54005 2.04642 4.16663 2.49349 4.16663H17.5072C17.9637 4.16663 18.3337 4.53715 18.3337 5.00068V16.6659C18.3337 17.1265 17.9542 17.5 17.5072 17.5H2.49349C2.03703 17.5 1.66699 17.1295 1.66699 16.6659V5.00068ZM3.33366 5.83329V15.8333H16.667V5.83329H3.33366ZM11.667 13.3333C13.0477 13.3333 14.167 12.214 14.167 10.8333C14.167 9.45254 13.0477 8.33329 11.667 8.33329C10.2862 8.33329 9.16699 9.45254 9.16699 10.8333C9.16699 12.214 10.2862 13.3333 11.667 13.3333ZM11.667 15C9.36582 15 7.50032 13.1345 7.50032 10.8333C7.50032 8.53213 9.36582 6.66663 11.667 6.66663C13.9682 6.66663 15.8337 8.53213 15.8337 10.8333C15.8337 13.1345 13.9682 15 11.667 15ZM3.33366 1.66663H8.33366V3.33329H3.33366V1.66663Z" fill="#E3E3E3"/>
</svg>
