<svg width="20" height="20" viewBox="0 0 20 20" fill="none" xmlns="http://www.w3.org/2000/svg">
<path d="M16.1579 2.63428L17.3364 3.81279L15.2734 5.87459L17.3364 7.93758L15.2734 9.99942L17.3364 12.0623L15.274 14.1248L17.3364 16.1872L16.1579 17.3657L12.917 14.1248L14.9794 12.0623L12.917 10L14.9794 7.93758L12.917 5.87519L16.1579 2.63428ZM10.7395 3.11539C10.8004 3.18984 10.8337 3.28306 10.8337 3.37924V16.6207C10.8337 16.8508 10.6471 17.0373 10.417 17.0373C10.3208 17.0373 10.2276 17.0041 10.1532 16.9432L5.74116 13.3326L2.50033 13.3333C2.04009 13.3333 1.66699 12.9603 1.66699 12.5V7.49998C1.66699 7.03974 2.04009 6.66664 2.50033 6.66664L5.74116 6.66589L10.1532 3.05676C10.3312 2.91104 10.5937 2.93729 10.7395 3.11539ZM9.16699 6.01664L6.33618 8.33243L3.33366 8.33248V11.6667L6.33603 11.6658L9.16699 13.9825V6.01664Z" fill="#E3E3E3"/>
</svg>
