<svg width="20" height="20" viewBox="0 0 20 20" fill="none" xmlns="http://www.w3.org/2000/svg">
<path d="M10.833 5.00008V3.33341H4.16634V1.66675H12.4997V5.00008H13.333C13.7933 5.00008 14.1663 5.37318 14.1663 5.83341V7.66675L18.5108 4.62567C18.6993 4.49371 18.9591 4.53956 19.091 4.72808C19.14 4.79811 19.1663 4.88153 19.1663 4.96702V15.0332C19.1663 15.2632 18.9798 15.4498 18.7497 15.4498C18.6642 15.4498 18.5808 15.4235 18.5108 15.3745L14.1663 12.3334V15.8334C14.1663 16.2937 13.7933 16.6667 13.333 16.6667H1.66634C1.20611 16.6667 0.833008 16.2937 0.833008 15.8334V5.83341C0.833008 5.37318 1.20611 5.00008 1.66634 5.00008H10.833ZM4.16634 8.33341V10.0001H5.83301V8.33341H4.16634Z" fill="#E3E3E3"/>
</svg>
