<svg width="20" height="20" viewBox="0 0 20 20" fill="none" xmlns="http://www.w3.org/2000/svg">
<path d="M3.33366 4.16667V15.8333H16.667V4.16667H3.33366ZM2.50033 2.5H17.5003C17.9606 2.5 18.3337 2.8731 18.3337 3.33333V16.6667C18.3337 17.1269 17.9606 17.5 17.5003 17.5H2.50033C2.04009 17.5 1.66699 17.1269 1.66699 16.6667V3.33333C1.66699 2.8731 2.04009 2.5 2.50033 2.5ZM5.87553 5.93443L7.05405 7.11294C6.30002 7.86697 5.83366 8.90867 5.83366 10.0592C5.83366 11.2098 6.30002 12.2515 7.05405 13.0055L5.87553 14.184C4.81991 13.1284 4.16699 11.6701 4.16699 10.0592C4.16699 8.44842 4.81991 6.99006 5.87553 5.93443ZM14.1251 5.93443C15.1807 6.99006 15.8337 8.44842 15.8337 10.0592C15.8337 11.6701 15.1807 13.1284 14.1251 14.184L12.9466 13.0055C13.7007 12.2515 14.167 11.2098 14.167 10.0592C14.167 8.90867 13.7007 7.86697 12.9466 7.11294L14.1251 5.93443ZM10.0003 10.8926C10.4606 10.8926 10.8337 10.5195 10.8337 10.0592C10.8337 9.599 10.4606 9.22592 10.0003 9.22592C9.54007 9.22592 9.16699 9.599 9.16699 10.0592C9.16699 10.5195 9.54007 10.8926 10.0003 10.8926ZM10.0003 12.5592C8.61957 12.5592 7.50032 11.4399 7.50032 10.0592C7.50032 8.6785 8.61957 7.55922 10.0003 7.55922C11.3811 7.55922 12.5003 8.6785 12.5003 10.0592C12.5003 11.4399 11.3811 12.5592 10.0003 12.5592Z" fill="#E3E3E3"/>
</svg>
