<svg width="20" height="20" viewBox="0 0 20 20" fill="none" xmlns="http://www.w3.org/2000/svg">
<path d="M2.50033 2.5H17.5003C17.9606 2.5 18.3337 2.8731 18.3337 3.33333V16.6667C18.3337 17.1269 17.9606 17.5 17.5003 17.5H2.50033C2.04009 17.5 1.66699 17.1269 1.66699 16.6667V3.33333C1.66699 2.8731 2.04009 2.5 2.50033 2.5ZM6.25032 9.375V7.5H5.00032V12.5H6.25032V10.625H7.91699V12.5H9.16699V7.5H7.91699V9.375H6.25032ZM13.542 12.5H14.167C14.6272 12.5 15.0003 12.1269 15.0003 11.6667V8.33333C15.0003 7.8731 14.6272 7.5 14.167 7.5H11.667C11.2067 7.5 10.8337 7.8731 10.8337 8.33333V11.6667C10.8337 12.1269 11.2067 12.5 11.667 12.5H12.292V13.75H13.542V12.5ZM12.0837 8.75H13.7503V11.25H12.0837V8.75Z" fill="#E3E3E3"/>
</svg>
