<svg width="20" height="20" viewBox="0 0 20 20" fill="none" xmlns="http://www.w3.org/2000/svg">
<path d="M15.5942 6.77347L15.3887 7.24487C15.2383 7.58997 14.761 7.58997 14.6106 7.24487L14.4052 6.77347C14.0389 5.93293 13.3793 5.26372 12.5561 4.89761L11.923 4.61606C11.5808 4.46382 11.5808 3.96572 11.923 3.81347L12.5207 3.54766C13.365 3.17213 14.0365 2.47815 14.3964 1.60907L14.6074 1.09965C14.7545 0.744615 15.2448 0.744615 15.3918 1.09965L15.6028 1.60907C15.9628 2.47815 16.6343 3.17213 17.4787 3.54766L18.0763 3.81347C18.4186 3.96572 18.4186 4.46382 18.0763 4.61606L17.4433 4.89761C16.6201 5.26372 15.9604 5.93293 15.5942 6.77347ZM5.83301 2.50004H9.99967V5.00004H7.49967V14.1667C7.49967 16.0076 6.00729 17.5 4.16634 17.5C2.32539 17.5 0.833008 16.0076 0.833008 14.1667C0.833008 12.3258 2.32539 10.8334 4.16634 10.8334C4.77348 10.8334 5.34272 10.9957 5.83301 11.2793V2.50004ZM14.9997 11.2793V9.16671H16.6663V14.1667C16.6663 16.0076 15.1739 17.5 13.333 17.5C11.4921 17.5 9.99967 16.0076 9.99967 14.1667C9.99967 12.3258 11.4921 10.8334 13.333 10.8334C13.9402 10.8334 14.5094 10.9957 14.9997 11.2793Z" fill="#E3E3E3"/>
</svg>
