<svg width="20" height="20" viewBox="0 0 20 20" fill="none" xmlns="http://www.w3.org/2000/svg">
<path d="M10.0003 18.3333C5.39795 18.3333 1.66699 14.6023 1.66699 9.99996C1.66699 5.39758 5.39795 1.66663 10.0003 1.66663C14.6027 1.66663 18.3337 5.39758 18.3337 9.99996C18.3337 14.6023 14.6027 18.3333 10.0003 18.3333ZM10.0003 16.6666C13.6822 16.6666 16.667 13.6819 16.667 9.99996C16.667 6.31806 13.6822 3.33329 10.0003 3.33329C6.31842 3.33329 3.33366 6.31806 3.33366 9.99996C3.33366 13.6819 6.31842 16.6666 10.0003 16.6666ZM10.0003 12.5C8.61957 12.5 7.50032 11.3807 7.50032 9.99996C7.50032 8.61921 8.61957 7.49996 10.0003 7.49996C11.3811 7.49996 12.5003 8.61921 12.5003 9.99996C12.5003 11.3807 11.3811 12.5 10.0003 12.5Z" fill="#E3E3E3"/>
</svg>
