<svg width="20" height="20" viewBox="0 0 20 20" fill="none" xmlns="http://www.w3.org/2000/svg">
<path d="M1.66634 13.3334H4.90708L9.31918 16.9433C9.39359 17.0042 9.48684 17.0374 9.58301 17.0374C9.81309 17.0374 9.99968 16.8509 9.99968 16.6208V3.37932C9.99968 3.28314 9.96643 3.18992 9.90551 3.11547C9.75976 2.93737 9.49726 2.91112 9.31918 3.05684L4.90708 6.66672H1.66634C1.20611 6.66672 0.833008 7.03982 0.833008 7.50006V12.5001C0.833008 12.9603 1.20611 13.3334 1.66634 13.3334ZM19.1663 10C19.1663 12.7433 17.9613 15.2052 16.0515 16.8852L14.8701 15.7037C16.4795 14.3281 17.4997 12.2832 17.4997 10C17.4997 7.7168 16.4795 5.67191 14.8701 4.29631L16.0515 3.11482C17.9613 4.79473 19.1663 7.25663 19.1663 10ZM14.9997 10C14.9997 8.40692 14.2547 6.9879 13.0941 6.07227L11.9032 7.2632C12.7674 7.86546 13.333 8.86667 13.333 10C13.333 11.1333 12.7674 12.1345 11.9032 12.7367L13.0941 13.9277C14.2547 13.0121 14.9997 11.593 14.9997 10Z" fill="#E3E3E3"/>
</svg>
