<svg width="20" height="20" viewBox="0 0 20 20" fill="none" xmlns="http://www.w3.org/2000/svg">
<path d="M2.50033 2.5H17.5003C17.9606 2.5 18.3337 2.8731 18.3337 3.33333V16.6667C18.3337 17.1269 17.9606 17.5 17.5003 17.5H2.50033C2.04009 17.5 1.66699 17.1269 1.66699 16.6667V3.33333C1.66699 2.8731 2.04009 2.5 2.50033 2.5ZM6.25032 9.375V7.5H5.00032V12.5H6.25032V10.625H7.91699V12.5H9.16699V7.5H7.91699V9.375H6.25032ZM12.0837 8.75H13.3337C13.5637 8.75 13.7503 8.93658 13.7503 9.16667V10.8333C13.7503 11.0634 13.5637 11.25 13.3337 11.25H12.0837V8.75ZM10.8337 7.5V12.5H13.3337C14.2542 12.5 15.0003 11.7538 15.0003 10.8333V9.16667C15.0003 8.24619 14.2542 7.5 13.3337 7.5H10.8337Z" fill="#E3E3E3"/>
</svg>
