<svg width="20" height="20" viewBox="0 0 20 20" fill="none" xmlns="http://www.w3.org/2000/svg">
<path d="M7.52625 10L4.99967 8.21656V11.7835L7.52625 10ZM3.98996 14.5362C3.91966 14.5859 3.83572 14.6126 3.74967 14.6126C3.51956 14.6126 3.33301 14.426 3.33301 14.1959V5.80415C3.33301 5.71811 3.35965 5.63417 3.40927 5.56387C3.54197 5.37587 3.80196 5.33104 3.98996 5.46375L9.93409 9.65958C9.97292 9.687 10.0068 9.72092 10.0343 9.75975C10.1669 9.94775 10.1221 10.2077 9.93409 10.3404L3.98996 14.5362ZM12.4997 11.7835L15.0263 10L12.4997 8.21656V11.7835ZM10.833 5.80415C10.833 5.71811 10.8597 5.63417 10.9093 5.56387C11.042 5.37587 11.3019 5.33104 11.4899 5.46375L17.4341 9.65958C17.4729 9.687 17.5068 9.72092 17.5343 9.75975C17.6669 9.94775 17.6221 10.2077 17.4341 10.3404L11.4899 14.5362C11.4197 14.5859 11.3358 14.6126 11.2497 14.6126C11.0196 14.6126 10.833 14.426 10.833 14.1959V5.80415Z" fill="#E3E3E3"/>
</svg>
