<svg width="20" height="20" viewBox="0 0 20 20" fill="none" xmlns="http://www.w3.org/2000/svg">
<path d="M16.4278 6.77334L16.2223 7.24474C16.072 7.58985 15.5947 7.58985 15.4442 7.24474L15.2388 6.77334C14.8726 5.93281 14.2129 5.26359 13.3897 4.89749L12.7567 4.61594C12.4144 4.46369 12.4144 3.96559 12.7567 3.81335L13.3543 3.54754C14.1987 3.17201 14.8702 2.47803 15.2301 1.60894L15.4411 1.09953C15.5882 0.744493 16.0785 0.744493 16.2255 1.09953L16.4365 1.60894C16.7965 2.47803 17.468 3.17201 18.3123 3.54754L18.9099 3.81335C19.2522 3.96559 19.2522 4.46369 18.9099 4.61594L18.2769 4.89749C17.4537 5.26359 16.7941 5.93281 16.4278 6.77334ZM15.8333 9.16658C16.4177 9.16658 16.9787 9.06633 17.5 8.88208V16.6721C17.5 17.1292 17.1292 17.4999 16.6722 17.4999H3.32783C2.87063 17.4999 2.5 17.1292 2.5 16.6721V3.32775C2.5 2.87055 2.87079 2.49992 3.32783 2.49992H11.1178C10.9336 3.02122 10.8333 3.58219 10.8333 4.16659C10.8333 6.92801 13.0719 9.16658 15.8333 9.16658ZM8.85158 7.01208C8.79683 6.97557 8.7325 6.95609 8.66667 6.95609C8.48258 6.95609 8.33333 7.10533 8.33333 7.28943V12.7104C8.33333 12.7763 8.35283 12.8406 8.38933 12.8953C8.49142 13.0485 8.69842 13.0899 8.85158 12.9878L12.9173 10.2773C12.9539 10.2528 12.9853 10.2214 13.0097 10.1848C13.1119 10.0317 13.0705 9.82467 12.9173 9.72258L8.85158 7.01208Z" fill="#E3E3E3"/>
</svg>
