<svg width="20" height="20" viewBox="0 0 20 20" fill="none" xmlns="http://www.w3.org/2000/svg">
<g clip-path="url(#clip0_1533_680)">
<path d="M17.0558 6.41149L17.2613 5.94009C17.6276 5.09956 18.2872 4.43034 19.1104 4.06423L19.7434 3.78268C20.0857 3.63044 20.0857 3.13234 19.7434 2.9801L19.1458 2.71428C18.3015 2.33876 17.63 1.64477 17.27 0.77569L17.059 0.266278C16.912 -0.0887594 16.4217 -0.0887594 16.2746 0.266278L16.0636 0.77569C15.7037 1.64477 15.0322 2.33876 14.1878 2.71428L13.5902 2.9801C13.2479 3.13234 13.2479 3.63044 13.5902 3.78268L14.2232 4.06423C15.0464 4.43034 15.7061 5.09956 16.0723 5.94009L16.2777 6.41149C16.4282 6.7566 16.9055 6.7566 17.0558 6.41149ZM11.9892 4.44899C12.2177 4.81045 12.5299 5.07754 12.9261 5.25027L13.3972 5.45566C13.7141 5.5938 13.9707 5.78787 14.1669 6.03786V10C14.1669 12.3012 12.3014 14.1667 10.0002 14.1667C7.69904 14.1667 5.83356 12.3012 5.83356 10V5C5.83356 2.69882 7.69904 0.833333 10.0002 0.833333C10.9369 0.833333 11.8014 1.14241 12.4972 1.66414C12.2972 1.81391 12.1278 1.9984 11.9892 2.21762C11.7743 2.55782 11.6668 2.92972 11.6668 3.33331C11.6668 3.7369 11.7743 4.1088 11.9892 4.44899ZM1.82715 11.6346L3.46177 11.3077C4.06951 14.3634 6.7659 16.6667 10.0002 16.6667C13.2346 16.6667 15.9309 14.3634 16.5387 11.3077L18.1733 11.6346C17.4136 15.4543 14.0432 18.3333 10.0002 18.3333C5.95731 18.3333 2.58683 15.4543 1.82715 11.6346Z" fill="#E3E3E3"/>
</g>
<defs>
<clipPath id="clip0_1533_680">
<rect width="20" height="20" fill="white"/>
</clipPath>
</defs>
</svg>
