<svg width="20" height="20" viewBox="0 0 20 20" fill="none" xmlns="http://www.w3.org/2000/svg">
<path d="M1.66699 5.00068C1.66699 4.54005 2.04642 4.16663 2.49349 4.16663H17.5072C17.9637 4.16663 18.3337 4.53715 18.3337 5.00068V16.6659C18.3337 17.1265 17.9542 17.5 17.5072 17.5H2.49349C2.03703 17.5 1.66699 17.1295 1.66699 16.6659V5.00068ZM11.667 15C13.9682 15 15.8337 13.1345 15.8337 10.8333C15.8337 8.53213 13.9682 6.66663 11.667 6.66663C9.36582 6.66663 7.50032 8.53213 7.50032 10.8333C7.50032 13.1345 9.36582 15 11.667 15ZM3.33366 5.83329V7.49996H5.83366V5.83329H3.33366ZM3.33366 1.66663H8.33366V3.33329H3.33366V1.66663Z" fill="#E3E3E3"/>
</svg>
