<svg width="20" height="20" viewBox="0 0 20 20" fill="none" xmlns="http://www.w3.org/2000/svg">
<path d="M3.33333 1.66675H16.6667C17.1269 1.66675 17.5 2.03985 17.5 2.50008V17.5001C17.5 17.9603 17.1269 18.3334 16.6667 18.3334H3.33333C2.8731 18.3334 2.5 17.9603 2.5 17.5001V2.50008C2.5 2.03985 2.8731 1.66675 3.33333 1.66675ZM10 16.6667C12.3012 16.6667 14.1667 14.8012 14.1667 12.5001C14.1667 10.1989 12.3012 8.33341 10 8.33341C7.69882 8.33341 5.83333 10.1989 5.83333 12.5001C5.83333 14.8012 7.69882 16.6667 10 16.6667ZM10 6.66675C10.6903 6.66675 11.25 6.10711 11.25 5.41675C11.25 4.72639 10.6903 4.16675 10 4.16675C9.30967 4.16675 8.75 4.72639 8.75 5.41675C8.75 6.10711 9.30967 6.66675 10 6.66675ZM10 15.0001C8.61925 15.0001 7.5 13.8808 7.5 12.5001C7.5 11.1193 8.61925 10.0001 10 10.0001C11.3807 10.0001 12.5 11.1193 12.5 12.5001C12.5 13.8808 11.3807 15.0001 10 15.0001Z" fill="#E3E3E3"/>
</svg>
