<svg width="20" height="20" viewBox="0 0 20 20" fill="none" xmlns="http://www.w3.org/2000/svg">
<g clip-path="url(#clip0_1533_583)">
<path d="M17.2615 6.77347L17.056 7.24487C16.9057 7.58997 16.4283 7.58997 16.2779 7.24487L16.0725 6.77347C15.7062 5.93293 15.0466 5.26372 14.2234 4.89761L13.5903 4.61606C13.2481 4.46382 13.2481 3.96572 13.5903 3.81347L14.188 3.54766C15.0323 3.17213 15.7038 2.47815 16.0637 1.60907L16.2747 1.09965C16.4218 0.744615 16.9122 0.744615 17.0592 1.09965L17.2702 1.60907C17.6302 2.47815 18.3017 3.17213 19.146 3.54766L19.7436 3.81347C20.0859 3.96572 20.0859 4.46382 19.7436 4.61606L19.1106 4.89761C18.2874 5.26372 17.6277 5.93293 17.2615 6.77347ZM10.0003 3.33337C6.31843 3.33337 3.33366 6.31814 3.33366 10C3.33366 13.682 6.31843 16.6667 10.0003 16.6667C13.6822 16.6667 16.667 13.682 16.667 10C16.667 9.73046 16.6511 9.46496 16.6201 9.20438L18.2752 9.00787C18.3138 9.33354 18.3337 9.66462 18.3337 10C18.3337 14.6024 14.6027 18.3334 10.0003 18.3334C5.39795 18.3334 1.66699 14.6024 1.66699 10C1.66699 5.39767 5.39795 1.66671 10.0003 1.66671C10.7182 1.66671 11.4159 1.75766 12.0822 1.9291L11.667 3.5432C11.1352 3.40637 10.5769 3.33337 10.0003 3.33337ZM10.8337 9.16671H13.3337L9.16699 15V10.8334H6.66699L10.8337 5.00004V9.16671Z" fill="#E3E3E3"/>
</g>
<defs>
<clipPath id="clip0_1533_583">
<rect width="20" height="20" fill="white"/>
</clipPath>
</defs>
</svg>
