<svg width="20" height="20" viewBox="0 0 20 20" fill="none" xmlns="http://www.w3.org/2000/svg">
<path d="M2.50033 5C2.04009 5 1.66699 5.37309 1.66699 5.83333V14.1667C1.66699 14.6269 2.04009 15 2.50033 15C2.96056 15 3.33366 14.6269 3.33366 14.1667V5.83333C3.33366 5.3731 2.96056 5 2.50033 5ZM6.64058 9.99992L9.16716 8.21643V11.7833L6.64058 9.99992ZM10.1769 14.5362C10.3649 14.6689 10.6248 14.6241 10.7576 14.4361C10.8072 14.3657 10.8338 14.2818 10.8338 14.1958V5.80403C10.8338 5.57392 10.6472 5.38737 10.4172 5.38737C10.3311 5.38737 10.2472 5.41401 10.1769 5.46363L4.23273 9.6595C4.04473 9.79217 3.99991 10.0522 4.13261 10.2402C4.16003 10.279 4.19389 10.3129 4.23273 10.3403L10.1769 14.5362ZM14.1406 9.99992L16.6672 8.21643V11.7833L14.1406 9.99992ZM11.6326 10.2402C11.66 10.279 11.6939 10.3129 11.7327 10.3403L17.6769 14.5362C17.8649 14.6689 18.1248 14.6241 18.2576 14.4361C18.3072 14.3657 18.3338 14.2818 18.3338 14.1958V5.80403C18.3338 5.57392 18.1472 5.38737 17.9172 5.38737C17.8311 5.38737 17.7472 5.41401 17.6769 5.46363L11.7327 9.6595C11.5447 9.79217 11.4999 10.0522 11.6326 10.2402Z" fill="#E3E3E3"/>
</svg>
