<svg width="20" height="20" viewBox="0 0 20 20" fill="none" xmlns="http://www.w3.org/2000/svg">
<path d="M10.8337 7.64222C10.573 7.55008 10.2925 7.49996 10.0003 7.49996C8.61957 7.49996 7.50032 8.61921 7.50032 9.99996C7.50032 11.3807 8.61957 12.5 10.0003 12.5C11.3811 12.5 12.5003 11.3807 12.5003 9.99996V2.04813C15.8812 3.11002 18.3337 6.26859 18.3337 9.99996C18.3337 14.6023 14.6027 18.3333 10.0003 18.3333C5.39795 18.3333 1.66699 14.6023 1.66699 9.99996C1.66699 5.39758 5.39795 1.66663 10.0003 1.66663C10.2816 1.66663 10.5596 1.68056 10.8337 1.70778V7.64222Z" fill="#E3E3E3"/>
</svg>
