<svg width="20" height="20" viewBox="0 0 20 20" fill="none" xmlns="http://www.w3.org/2000/svg">
<path d="M1.66699 3.32783C1.66699 2.87063 2.04642 2.5 2.49349 2.5H17.5072C17.9637 2.5 18.3337 2.87079 18.3337 3.32783V16.6722C18.3337 17.1293 17.9542 17.5 17.5072 17.5H2.49349C2.03703 17.5 1.66699 17.1292 1.66699 16.6722V3.32783ZM3.33366 4.16667V15.8333H16.667V4.16667H3.33366ZM10.0003 12.5C11.3811 12.5 12.5003 11.3807 12.5003 10C12.5003 8.61925 11.3811 7.5 10.0003 7.5C8.61957 7.5 7.50032 8.61925 7.50032 10C7.50032 11.3807 8.61957 12.5 10.0003 12.5ZM10.0003 14.1667C7.69914 14.1667 5.83366 12.3012 5.83366 10C5.83366 7.69882 7.69914 5.83333 10.0003 5.83333C12.3015 5.83333 14.167 7.69882 14.167 10C14.167 12.3012 12.3015 14.1667 10.0003 14.1667ZM14.167 5H15.8337V6.66667H14.167V5Z" fill="#E3E3E3"/>
</svg>
