<svg width="20" height="20" viewBox="0 0 20 20" fill="none" xmlns="http://www.w3.org/2000/svg">
<path d="M3.33333 2.5H16.6667C17.1269 2.5 17.5 2.8731 17.5 3.33333V16.6667C17.5 17.1269 17.1269 17.5 16.6667 17.5H3.33333C2.8731 17.5 2.5 17.1269 2.5 16.6667V3.33333C2.5 2.8731 2.8731 2.5 3.33333 2.5ZM10 13.3333C8.15905 13.3333 6.66667 11.8409 6.66667 10C6.66667 8.15905 8.15905 6.66667 10 6.66667C11.8409 6.66667 13.3333 8.15905 13.3333 10C13.3333 11.8409 11.8409 13.3333 10 13.3333ZM10 15C12.7614 15 15 12.7614 15 10C15 7.23857 12.7614 5 10 5C7.23857 5 5 7.23857 5 10C5 12.7614 7.23857 15 10 15ZM5 5.83333C5.46023 5.83333 5.83333 5.46023 5.83333 5C5.83333 4.53977 5.46023 4.16667 5 4.16667C4.53977 4.16667 4.16667 4.53977 4.16667 5C4.16667 5.46023 4.53977 5.83333 5 5.83333ZM15 5.83333C15.4602 5.83333 15.8333 5.46023 15.8333 5C15.8333 4.53977 15.4602 4.16667 15 4.16667C14.5398 4.16667 14.1667 4.53977 14.1667 5C14.1667 5.46023 14.5398 5.83333 15 5.83333ZM15 15.8333C15.4602 15.8333 15.8333 15.4602 15.8333 15C15.8333 14.5398 15.4602 14.1667 15 14.1667C14.5398 14.1667 14.1667 14.5398 14.1667 15C14.1667 15.4602 14.5398 15.8333 15 15.8333ZM5 15.8333C5.46023 15.8333 5.83333 15.4602 5.83333 15C5.83333 14.5398 5.46023 14.1667 5 14.1667C4.53977 14.1667 4.16667 14.5398 4.16667 15C4.16667 15.4602 4.53977 15.8333 5 15.8333ZM10 11.25C10.6903 11.25 11.25 10.6903 11.25 10C11.25 9.30967 10.6903 8.75 10 8.75C9.30967 8.75 8.75 9.30967 8.75 10C8.75 10.6903 9.30967 11.25 10 11.25Z" fill="#E3E3E3"/>
</svg>
