<svg width="20" height="20" viewBox="0 0 20 20" fill="none" xmlns="http://www.w3.org/2000/svg">
<path d="M8.33301 6.01713L5.50202 8.33342H2.49967V11.6668H5.50202L8.33301 13.983V6.01713ZM4.90708 13.3334H1.66634C1.20611 13.3334 0.833008 12.9603 0.833008 12.5001V7.50006C0.833008 7.03982 1.20611 6.66672 1.66634 6.66672H4.90708L9.31917 3.05684C9.49726 2.91112 9.75976 2.93737 9.90551 3.11547C9.96642 3.18992 9.99967 3.28314 9.99967 3.37932V16.6208C9.99967 16.8509 9.81309 17.0374 9.58301 17.0374C9.48684 17.0374 9.39359 17.0042 9.31917 16.9433L4.90708 13.3334ZM17.0115 10.0001L19.9578 12.9463L18.7793 14.1248L15.833 11.1786L12.8868 14.1248L11.7083 12.9463L14.6545 10.0001L11.7083 7.05378L12.8868 5.87527L15.833 8.82158L18.7793 5.87527L19.9578 7.05378L17.0115 10.0001Z" fill="#E3E3E3"/>
</svg>
