<svg width="20" height="20" viewBox="0 0 20 20" fill="none" xmlns="http://www.w3.org/2000/svg">
<path d="M10.0003 1.66663C14.6027 1.66663 18.3337 5.39758 18.3337 9.99996C18.3337 14.6023 14.6027 18.3333 10.0003 18.3333C5.39795 18.3333 1.66699 14.6023 1.66699 9.99996H3.33366C3.33366 13.6819 6.31842 16.6666 10.0003 16.6666C13.6822 16.6666 16.667 13.6819 16.667 9.99996C16.667 6.31806 13.6822 3.33329 10.0003 3.33329C7.70884 3.33329 5.68738 4.48941 4.48742 6.25016L6.66699 6.24996V7.91663H1.66699V2.91663H3.33366L3.33357 4.99928C4.85394 2.97558 7.27427 1.66663 10.0003 1.66663ZM7.08366 12.9166V7.08329H8.33366V12.9166H7.08366ZM10.0003 7.08329H13.9587V8.33329H11.2503V9.37496H12.3962C13.3742 9.37496 14.167 10.1678 14.167 11.1458C14.167 12.1238 13.3742 12.9166 12.3962 12.9166H10.0003V11.6666H12.3962C12.6838 11.6666 12.917 11.4335 12.917 11.1458C12.917 10.8581 12.6838 10.625 12.3962 10.625H10.0003V7.08329Z" fill="#E3E3E3"/>
</svg>
