<svg width="20" height="20" viewBox="0 0 20 20" fill="none" xmlns="http://www.w3.org/2000/svg">
<g clip-path="url(#clip0_1533_718)">
<path d="M17.056 7.24487L17.2615 6.77347C17.6277 5.93293 18.2874 5.26372 19.1106 4.89761L19.7436 4.61606C20.0859 4.46382 20.0859 3.96572 19.7436 3.81347L19.146 3.54766C18.3017 3.17213 17.6302 2.47815 17.2702 1.60907L17.0592 1.09965C16.9122 0.744615 16.4218 0.744615 16.2747 1.09965L16.0637 1.60907C15.7038 2.47815 15.0323 3.17213 14.188 3.54766L13.5903 3.81347C13.2481 3.96572 13.2481 4.46382 13.5903 4.61606L14.2234 4.89761C15.0466 5.26372 15.7062 5.93293 16.0725 6.77347L16.2779 7.24487C16.4283 7.58997 16.9057 7.58997 17.056 7.24487ZM1.66699 3.33337C1.66699 2.87314 2.04009 2.50004 2.50033 2.50004H11.667V4.16671H3.33366V15.8334H16.667V9.16671H18.3337V16.6667C18.3337 17.127 17.9606 17.5 17.5003 17.5H2.50033C2.04009 17.5 1.66699 17.127 1.66699 16.6667V3.33337ZM10.0003 10.1423V5.00004H13.3337V6.66671H11.667V12.5C11.667 13.8808 10.5477 15 9.16699 15C7.78628 15 6.66699 13.8808 6.66699 12.5C6.66699 11.1193 7.78628 10 9.16699 10C9.45916 10 9.73966 10.0502 10.0003 10.1423Z" fill="#E3E3E3"/>
</g>
<defs>
<clipPath id="clip0_1533_718">
<rect width="20" height="20" fill="white"/>
</clipPath>
</defs>
</svg>
