<svg width="20" height="20" viewBox="0 0 20 20" fill="none" xmlns="http://www.w3.org/2000/svg">
<g clip-path="url(#clip0_1533_679)">
<path d="M17.2613 5.94009L17.0558 6.41149C16.9055 6.7566 16.4282 6.7566 16.2777 6.41149L16.0723 5.94009C15.7061 5.09956 15.0464 4.43034 14.2232 4.06423L13.5902 3.78268C13.2479 3.63044 13.2479 3.13234 13.5902 2.9801L14.1878 2.71428C15.0322 2.33876 15.7037 1.64477 16.0636 0.77569L16.2746 0.266278C16.4217 -0.0887594 16.912 -0.0887594 17.059 0.266278L17.27 0.77569C17.63 1.64477 18.3015 2.33876 19.1458 2.71428L19.7434 2.9801C20.0857 3.13234 20.0857 3.63044 19.7434 3.78268L19.1104 4.06423C18.2872 4.43034 17.6276 5.09956 17.2613 5.94009ZM5.8335 5C5.8335 2.69882 7.69898 0.833333 10.0002 0.833333C10.8263 0.833333 11.5987 1.07464 12.2476 1.49092L11.3477 2.89373C10.9592 2.64457 10.4978 2.5 10.0002 2.5C8.61941 2.5 7.50016 3.61929 7.50016 5V10C7.50016 11.3807 8.61941 12.5 10.0002 12.5C11.3809 12.5 12.5002 11.3807 12.5002 10V5.83333H14.1668V10C14.1668 12.3012 12.3013 14.1667 10.0002 14.1667C7.69898 14.1667 5.8335 12.3012 5.8335 10V5ZM1.82715 11.6348L3.46177 11.3077C4.06951 14.3635 6.7659 16.6667 10.0002 16.6667C13.2346 16.6667 15.9309 14.3636 16.5387 11.3077L18.1733 11.6348C17.4136 15.4544 14.0432 18.3334 10.0002 18.3334C5.95731 18.3334 2.58683 15.4544 1.82715 11.6348Z" fill="#E3E3E3"/>
</g>
<defs>
<clipPath id="clip0_1533_679">
<rect width="20" height="20" fill="white"/>
</clipPath>
</defs>
</svg>
