<svg width="20" height="20" viewBox="0 0 20 20" fill="none" xmlns="http://www.w3.org/2000/svg">
<path d="M17.5003 2.5C17.9606 2.5 18.3337 2.8731 18.3337 3.33333V16.6667C18.3337 17.1269 17.9606 17.5 17.5003 17.5H2.50033C2.04009 17.5 1.66699 17.1269 1.66699 16.6667V3.33333C1.66699 2.8731 2.04009 2.5 2.50033 2.5H17.5003ZM7.50032 6.66667C5.66032 6.66667 4.16699 8.16 4.16699 10C4.16699 11.84 5.66032 13.3333 7.50032 13.3333C8.41699 13.3333 9.25032 12.9583 9.85699 12.3567L8.67899 11.1787C8.37741 11.4802 7.96074 11.6667 7.50032 11.6667C6.57949 11.6667 5.83366 10.9208 5.83366 10C5.83366 9.07917 6.57949 8.33333 7.50032 8.33333C7.95866 8.33333 8.37391 8.51667 8.67974 8.82217L9.85782 7.64417C9.25441 7.04034 8.42074 6.66667 7.50032 6.66667ZM13.3337 6.66667C11.4937 6.66667 10.0003 8.16 10.0003 10C10.0003 11.84 11.4937 13.3333 13.3337 13.3333C14.2537 13.3333 15.087 12.96 15.6903 12.3567L14.5123 11.1787C14.2107 11.4802 13.7941 11.6667 13.3337 11.6667C12.4128 11.6667 11.667 10.9208 11.667 10C11.667 9.07917 12.4128 8.33333 13.3337 8.33333C13.7945 8.33333 14.2115 8.52008 14.5131 8.82217L15.6912 7.64417C15.0877 7.04034 14.2541 6.66667 13.3337 6.66667Z" fill="#E3E3E3"/>
</svg>
