<svg width="20" height="20" viewBox="0 0 20 20" fill="none" xmlns="http://www.w3.org/2000/svg">
<path d="M9.16716 14.1958C9.16716 14.2819 9.14049 14.3658 9.09091 14.4361C8.95816 14.6241 8.69824 14.669 8.51024 14.5362L2.56607 10.3404C2.52723 10.313 2.49336 10.2791 2.46594 10.2402C2.33324 10.0522 2.37807 9.79231 2.56607 9.65956L8.51024 5.46371C8.58049 5.41408 8.66441 5.38745 8.75049 5.38745C8.98058 5.38745 9.16716 5.57399 9.16716 5.80412V14.1958ZM10.0661 10.3404C10.0272 10.313 9.99332 10.2791 9.96591 10.2402C9.83324 10.0522 9.87807 9.79231 10.0661 9.65956L16.0102 5.46371C16.0805 5.41408 16.1644 5.38745 16.2505 5.38745C16.4806 5.38745 16.6672 5.57399 16.6672 5.80412V14.1958C16.6672 14.2819 16.6405 14.3658 16.5909 14.4361C16.4582 14.6241 16.1982 14.669 16.0102 14.5362L10.0661 10.3404Z" fill="#E3E3E3"/>
</svg>
