<svg width="20" height="20" viewBox="0 0 20 20" fill="none" xmlns="http://www.w3.org/2000/svg">
<path d="M3.33366 9.99996H5.83366C6.75413 9.99996 7.50032 10.7461 7.50032 11.6666V15.8333C7.50032 16.7538 6.75413 17.5 5.83366 17.5H3.33366C2.41318 17.5 1.66699 16.7538 1.66699 15.8333V9.99996C1.66699 5.39758 5.39795 1.66663 10.0003 1.66663C14.6027 1.66663 18.3337 5.39758 18.3337 9.99996V15.8333C18.3337 16.7538 17.5875 17.5 16.667 17.5H14.167C13.2465 17.5 12.5003 16.7538 12.5003 15.8333V11.6666C12.5003 10.7461 13.2465 9.99996 14.167 9.99996H16.667C16.667 6.31806 13.6822 3.33329 10.0003 3.33329C6.31842 3.33329 3.33366 6.31806 3.33366 9.99996Z" fill="#E3E3E3"/>
</svg>
