<svg width="20" height="20" viewBox="0 0 20 20" fill="none" xmlns="http://www.w3.org/2000/svg">
<g clip-path="url(#clip0_1533_547)">
<path d="M17.2615 6.77347L17.056 7.24487C16.9057 7.58997 16.4283 7.58997 16.2779 7.24487L16.0725 6.77347C15.7062 5.93293 15.0466 5.26372 14.2234 4.89761L13.5903 4.61606C13.2481 4.46382 13.2481 3.96572 13.5903 3.81347L14.188 3.54766C15.0323 3.17213 15.7038 2.47815 16.0637 1.60907L16.2747 1.09965C16.4218 0.744615 16.9122 0.744615 17.0592 1.09965L17.2702 1.60907C17.6302 2.47815 18.3017 3.17213 19.146 3.54766L19.7436 3.81347C20.0859 3.96572 20.0859 4.46382 19.7436 4.61606L19.1106 4.89761C18.2874 5.26372 17.6277 5.93293 17.2615 6.77347ZM18.3337 16.6667V8.88221C17.8123 9.06646 17.2514 9.16671 16.667 9.16671C15.8964 9.16671 15.1665 8.99237 14.5147 8.68104C14.826 9.33287 15.0003 10.0628 15.0003 10.8334C15.0003 13.5948 12.7617 15.8334 10.0003 15.8334C7.2389 15.8334 5.00033 13.5948 5.00033 10.8334C5.00033 8.07195 7.2389 5.83337 10.0003 5.83337C10.7709 5.83337 11.5008 6.0077 12.1527 6.31907C11.8413 5.66718 11.667 4.93731 11.667 4.16671C11.667 3.58232 11.7672 3.02134 11.9515 2.50004H7.50033L5.83366 4.16671H2.50033C2.04009 4.16671 1.66699 4.53981 1.66699 5.00004V16.6667C1.66699 17.127 2.04009 17.5 2.50033 17.5H17.5003C17.9606 17.5 18.3337 17.127 18.3337 16.6667ZM10.0003 14.1667C8.15938 14.1667 6.66699 12.6743 6.66699 10.8334C6.66699 8.99246 8.15938 7.50004 10.0003 7.50004C11.8412 7.50004 13.3337 8.99246 13.3337 10.8334C13.3337 12.6743 11.8412 14.1667 10.0003 14.1667Z" fill="#E3E3E3"/>
</g>
<defs>
<clipPath id="clip0_1533_547">
<rect width="20" height="20" fill="white"/>
</clipPath>
</defs>
</svg>
