<svg width="20" height="20" viewBox="0 0 20 20" fill="none" xmlns="http://www.w3.org/2000/svg">
<path d="M10.0003 1.66663C14.6027 1.66663 18.3337 5.39758 18.3337 9.99996C18.3337 14.6023 14.6027 18.3333 10.0003 18.3333C5.39795 18.3333 1.66699 14.6023 1.66699 9.99996H3.33366C3.33366 13.6819 6.31842 16.6666 10.0003 16.6666C13.6822 16.6666 16.667 13.6819 16.667 9.99996C16.667 6.31806 13.6822 3.33329 10.0003 3.33329C7.70884 3.33329 5.68738 4.48941 4.48742 6.25016L6.66699 6.24996V7.91663H1.66699V2.91663H3.33366L3.33357 4.99928C4.85394 2.97558 7.27427 1.66663 10.0003 1.66663ZM12.917 11.0416C12.917 11.5019 12.5439 11.875 12.0837 11.875C11.6234 11.875 11.2503 11.5019 11.2503 11.0416V8.95829C11.2503 8.49804 11.6234 8.12496 12.0837 8.12496C12.5439 8.12496 12.917 8.49804 12.917 8.95829V11.0416ZM12.0837 6.87496C10.9331 6.87496 10.0003 7.8077 10.0003 8.95829V11.0416C10.0003 12.1922 10.9331 13.125 12.0837 13.125C13.2342 13.125 14.167 12.1922 14.167 11.0416V8.95829C14.167 7.8077 13.2342 6.87496 12.0837 6.87496ZM7.08366 12.9166V7.08329H8.33366V12.9166H7.08366Z" fill="#E3E3E3"/>
</svg>
