<svg width="20" height="20" viewBox="0 0 20 20" fill="none" xmlns="http://www.w3.org/2000/svg">
<path d="M8.19068 4.16667L6.52402 5.83333H3.33366V15.8333H16.667V5.83333H13.4767L11.81 4.16667H8.19068ZM7.50032 2.5H12.5003L14.167 4.16667H17.5003C17.9606 4.16667 18.3337 4.53977 18.3337 5V16.6667C18.3337 17.1269 17.9606 17.5 17.5003 17.5H2.50033C2.04009 17.5 1.66699 17.1269 1.66699 16.6667V5C1.66699 4.53977 2.04009 4.16667 2.50033 4.16667H5.83366L7.50032 2.5ZM8.03401 6.27537C8.62991 5.99194 9.29657 5.83333 10.0003 5.83333C12.5317 5.83333 14.5837 7.88536 14.5837 10.4167C14.5837 11.7083 14.0493 12.8752 13.1897 13.7082L11.4587 10.5H12.9158C12.9166 10.4723 12.917 10.4445 12.917 10.4167C12.917 8.80583 11.6112 7.5 10.0003 7.5C9.57632 7.5 9.17349 7.59047 8.80999 7.75315L8.03401 6.27537ZM11.9316 14.5745C11.3447 14.8475 10.6903 15 10.0003 15C7.46902 15 5.41699 12.948 5.41699 10.4167C5.41699 9.13983 5.93911 7.98494 6.78147 7.15385L8.54199 10.4167H7.08366C7.08366 12.0275 8.38949 13.3333 10.0003 13.3333C10.4106 13.3333 10.801 13.2487 11.1551 13.0958L11.9316 14.5745Z" fill="#E3E3E3"/>
</svg>
