<svg width="20" height="20" viewBox="0 0 20 20" fill="none" xmlns="http://www.w3.org/2000/svg">
<path d="M5.83366 2.5C5.37343 2.5 5.00032 2.8731 5.00032 3.33333V5.83333H2.50033C2.04009 5.83333 1.66699 6.20643 1.66699 6.66667V16.6667C1.66699 17.1269 2.04009 17.5 2.50033 17.5H14.167C14.6272 17.5 15.0003 17.1269 15.0003 16.6667V14.1667H17.5003C17.9606 14.1667 18.3337 13.7936 18.3337 13.3333V3.33333C18.3337 2.8731 17.9606 2.5 17.5003 2.5H5.83366ZM14.167 5.83333H6.66699V4.16667H16.667V12.5H15.0003V6.66667C15.0003 6.20643 14.6272 5.83333 14.167 5.83333ZM13.3337 7.5V13.1162L9.57624 9.70033L3.33366 15.5267V7.5H13.3337ZM9.59107 11.9663L13.3337 15.3687V15.8333H5.44784L9.59107 11.9663ZM5.83366 11.25C6.52402 11.25 7.08366 10.6903 7.08366 10C7.08366 9.30967 6.52402 8.75 5.83366 8.75C5.1433 8.75 4.58366 9.30967 4.58366 10C4.58366 10.6903 5.1433 11.25 5.83366 11.25Z" fill="#E3E3E3"/>
</svg>
