<svg width="20" height="20" viewBox="0 0 20 20" fill="none" xmlns="http://www.w3.org/2000/svg">
<path d="M5.14258 15C5.48577 14.029 6.41181 13.3333 7.50032 13.3333C8.58882 13.3333 9.51491 14.029 9.85807 15H18.3337V16.6666H9.85807C9.51491 17.6376 8.58882 18.3333 7.50032 18.3333C6.41181 18.3333 5.48577 17.6376 5.14258 16.6666H1.66699V15H5.14258ZM10.1426 9.16662C10.4857 8.19563 11.4118 7.49996 12.5003 7.49996C13.5888 7.49996 14.5149 8.19563 14.8581 9.16662H18.3337V10.8333H14.8581C14.5149 11.8043 13.5888 12.5 12.5003 12.5C11.4118 12.5 10.4857 11.8043 10.1426 10.8333H1.66699V9.16662H10.1426ZM5.14258 3.33329C5.48577 2.3623 6.41181 1.66663 7.50032 1.66663C8.58882 1.66663 9.51491 2.3623 9.85807 3.33329H18.3337V4.99996H9.85807C9.51491 5.97095 8.58882 6.66663 7.50032 6.66663C6.41181 6.66663 5.48577 5.97095 5.14258 4.99996H1.66699V3.33329H5.14258ZM7.50032 4.99996C7.96056 4.99996 8.33366 4.62686 8.33366 4.16663C8.33366 3.70639 7.96056 3.33329 7.50032 3.33329C7.04009 3.33329 6.66699 3.70639 6.66699 4.16663C6.66699 4.62686 7.04009 4.99996 7.50032 4.99996ZM12.5003 10.8333C12.9606 10.8333 13.3337 10.4602 13.3337 9.99996C13.3337 9.53971 12.9606 9.16662 12.5003 9.16662C12.0401 9.16662 11.667 9.53971 11.667 9.99996C11.667 10.4602 12.0401 10.8333 12.5003 10.8333ZM7.50032 16.6666C7.96056 16.6666 8.33366 16.2935 8.33366 15.8333C8.33366 15.373 7.96056 15 7.50032 15C7.04009 15 6.66699 15.373 6.66699 15.8333C6.66699 16.2935 7.04009 16.6666 7.50032 16.6666Z" fill="#E3E3E3"/>
</svg>
