<svg width="20" height="20" viewBox="0 0 20 20" fill="none" xmlns="http://www.w3.org/2000/svg">
<path d="M1.66699 3.32783C1.66699 2.87063 2.04642 2.5 2.49349 2.5H17.5072C17.9637 2.5 18.3337 2.87079 18.3337 3.32783V16.6722C18.3337 17.1293 17.9542 17.5 17.5072 17.5H2.49349C2.03703 17.5 1.66699 17.1292 1.66699 16.6722V3.32783ZM3.33366 4.16667V15.8333H16.667V4.16667H3.33366ZM10.0003 10.1423V5H14.167V6.66667H11.667V12.5C11.667 13.8807 10.5477 15 9.16699 15C7.78628 15 6.66699 13.8807 6.66699 12.5C6.66699 11.1192 7.78628 10 9.16699 10C9.45916 10 9.73966 10.0502 10.0003 10.1423Z" fill="#E3E3E3"/>
</svg>
