<svg width="20" height="20" viewBox="0 0 20 20" fill="none" xmlns="http://www.w3.org/2000/svg">
<g clip-path="url(#clip0_1533_695)">
<path d="M17.056 7.24487L17.2615 6.77347C17.6277 5.93293 18.2874 5.26372 19.1106 4.89761L19.7436 4.61606C20.0859 4.46382 20.0859 3.96572 19.7436 3.81347L19.146 3.54766C18.3017 3.17213 17.6302 2.47815 17.2702 1.60907L17.0592 1.09965C16.9122 0.744615 16.4218 0.744615 16.2747 1.09965L16.0637 1.60907C15.7038 2.47815 15.0323 3.17213 14.188 3.54766L13.5903 3.81347C13.2481 3.96572 13.2481 4.46382 13.5903 4.61606L14.2234 4.89761C15.0466 5.26372 15.7062 5.93293 16.0725 6.77347L16.2779 7.24487C16.4283 7.58997 16.9057 7.58997 17.056 7.24487ZM16.667 9.16671C17.2249 9.16671 17.7615 9.07529 18.2626 8.90671C18.3095 9.26454 18.3337 9.62946 18.3337 10C18.3337 12.726 17.0247 15.1463 15.0012 16.6667H16.667V18.3334H10.0003C5.39795 18.3334 1.66699 14.6024 1.66699 10C1.66699 5.39767 5.39795 1.66671 10.0003 1.66671C10.755 1.66671 11.4862 1.76703 12.1815 1.95507C11.8521 2.62185 11.667 3.37267 11.667 4.16671C11.667 6.92813 13.9056 9.16671 16.667 9.16671ZM10.0003 8.33337C10.9208 8.33337 11.667 7.58718 11.667 6.66671C11.667 5.74623 10.9208 5.00004 10.0003 5.00004C9.07983 5.00004 8.33366 5.74623 8.33366 6.66671C8.33366 7.58718 9.07983 8.33337 10.0003 8.33337ZM6.66699 11.6667C7.58747 11.6667 8.33366 10.9205 8.33366 10C8.33366 9.07954 7.58747 8.33337 6.66699 8.33337C5.74652 8.33337 5.00033 9.07954 5.00033 10C5.00033 10.9205 5.74652 11.6667 6.66699 11.6667ZM13.3337 11.6667C14.2542 11.6667 15.0003 10.9205 15.0003 10C15.0003 9.07954 14.2542 8.33337 13.3337 8.33337C12.4132 8.33337 11.667 9.07954 11.667 10C11.667 10.9205 12.4132 11.6667 13.3337 11.6667ZM10.0003 15C10.9208 15 11.667 14.2539 11.667 13.3334C11.667 12.4129 10.9208 11.6667 10.0003 11.6667C9.07983 11.6667 8.33366 12.4129 8.33366 13.3334C8.33366 14.2539 9.07983 15 10.0003 15Z" fill="#E3E3E3"/>
</g>
<defs>
<clipPath id="clip0_1533_695">
<rect width="20" height="20" fill="white"/>
</clipPath>
</defs>
</svg>
