<svg width="20" height="20" viewBox="0 0 20 20" fill="none" xmlns="http://www.w3.org/2000/svg">
<path d="M10.0263 10L7.49967 8.21653V11.7835L10.0263 10ZM6.24967 14.6125C6.01956 14.6125 5.83301 14.426 5.83301 14.1958V5.80413C5.83301 5.71808 5.85965 5.63415 5.90927 5.56385C6.04197 5.37585 6.30196 5.33102 6.48996 5.46373L12.4341 9.65958C12.4729 9.687 12.5068 9.72083 12.5343 9.75975C12.6669 9.94775 12.6221 10.2077 12.4341 10.3404L6.48996 14.5363C6.41966 14.5859 6.33572 14.6125 6.24967 14.6125ZM13.333 5.83333C13.333 5.3731 13.7061 5 14.1663 5C14.6266 5 14.9997 5.3731 14.9997 5.83333V14.1667C14.9997 14.6269 14.6266 15 14.1663 15C13.7061 15 13.333 14.6269 13.333 14.1667V5.83333Z" fill="#E3E3E3"/>
</svg>
