<svg width="20" height="20" viewBox="0 0 20 20" fill="none" xmlns="http://www.w3.org/2000/svg">
<path d="M10.0003 16.6666C13.6822 16.6666 16.667 13.6819 16.667 9.99996C16.667 6.31806 13.6822 3.33329 10.0003 3.33329C6.31842 3.33329 3.33366 6.31806 3.33366 9.99996C3.33366 13.6819 6.31842 16.6666 10.0003 16.6666ZM10.0003 18.3333C5.39795 18.3333 1.66699 14.6023 1.66699 9.99996C1.66699 5.39758 5.39795 1.66663 10.0003 1.66663C14.6027 1.66663 18.3337 5.39758 18.3337 9.99996C18.3337 14.6023 14.6027 18.3333 10.0003 18.3333ZM10.0003 11.6666C10.9208 11.6666 11.667 10.9205 11.667 9.99996C11.667 9.07946 10.9208 8.33329 10.0003 8.33329C9.07982 8.33329 8.33366 9.07946 8.33366 9.99996C8.33366 10.9205 9.07982 11.6666 10.0003 11.6666ZM10.0003 13.3333C8.15937 13.3333 6.66699 11.8409 6.66699 9.99996C6.66699 8.15901 8.15937 6.66663 10.0003 6.66663C11.8412 6.66663 13.3337 8.15901 13.3337 9.99996C13.3337 11.8409 11.8412 13.3333 10.0003 13.3333Z" fill="#E3E3E3"/>
</svg>
