<svg width="20" height="20" viewBox="0 0 20 20" fill="none" xmlns="http://www.w3.org/2000/svg">
<path d="M10.0003 11.1112L2.31478 16.2349C2.12332 16.3625 1.86462 16.3108 1.73697 16.1194C1.69134 16.0509 1.66699 15.9705 1.66699 15.8882V4.11198C1.66699 3.88185 1.85354 3.69531 2.08366 3.69531C2.16592 3.69531 2.24634 3.71966 2.31478 3.76529L10.0003 8.88895V4.11198C10.0003 3.88185 10.1869 3.69531 10.417 3.69531C10.4992 3.69531 10.5797 3.71966 10.6482 3.76529L19.4803 9.65337C19.6717 9.78104 19.7235 10.0398 19.5958 10.2312C19.5653 10.277 19.5261 10.3163 19.4803 10.3468L10.6482 16.2349C10.4567 16.3625 10.198 16.3108 10.0703 16.1194C10.0247 16.0509 10.0003 15.9705 10.0003 15.8882V11.1112ZM8.66232 10.0001L3.33366 6.44762V13.5525L8.66232 10.0001ZM11.667 6.44762V13.5525L16.9957 10.0001L11.667 6.44762Z" fill="#E3E3E3"/>
</svg>
