<svg width="20" height="20" viewBox="0 0 20 20" fill="none" xmlns="http://www.w3.org/2000/svg">
<path d="M16.3214 17.4999H2.49997C2.03973 17.4999 1.66664 17.1269 1.66664 16.6666V4.99997C1.66664 4.53973 2.03973 4.16663 2.49997 4.16663H2.98812L1.16113 2.33965L2.33965 1.16113L18.8388 17.6603L17.6603 18.8388L16.3214 17.4999ZM4.65479 5.8333H3.33331V15.8333H14.6548L12.8376 14.0161C12.0572 14.6323 11.0715 14.9999 10 14.9999C7.46867 14.9999 5.41664 12.9479 5.41664 10.4166C5.41664 9.34511 5.78435 8.35944 6.40047 7.57898L4.65479 5.8333ZM7.59194 8.77044C7.27103 9.23894 7.08331 9.80586 7.08331 10.4166C7.08331 12.0274 8.38917 13.3333 10 13.3333C10.6108 13.3333 11.1777 13.1456 11.6462 12.8247L7.59194 8.77044ZM18.3333 14.8214L16.6667 13.1548V5.8333H13.4763L11.8096 4.16663H8.19032L7.9344 4.42257L6.75589 3.24405L7.49997 2.49997H12.5L14.1667 4.16663H17.5C17.9602 4.16663 18.3333 4.53973 18.3333 4.99997V14.8214ZM9.38592 5.87408C9.58676 5.84719 9.79176 5.8333 10 5.8333C12.5313 5.8333 14.5833 7.88533 14.5833 10.4166C14.5833 10.6249 14.5694 10.8299 14.5425 11.0307L12.5943 9.08244C12.316 8.54244 11.8742 8.10058 11.3342 7.82232L9.38592 5.87408Z" fill="#E3E3E3"/>
</svg>
