<svg width="20" height="20" viewBox="0 0 20 20" fill="none" xmlns="http://www.w3.org/2000/svg">
<path d="M17.5003 2.5C17.9606 2.5 18.3337 2.8731 18.3337 3.33333V16.6667C18.3337 17.1269 17.9606 17.5 17.5003 17.5H2.50033C2.04009 17.5 1.66699 17.1269 1.66699 16.6667V3.33333C1.66699 2.8731 2.04009 2.5 2.50033 2.5H17.5003ZM16.667 4.16667H3.33366V15.8333H16.667V4.16667ZM7.50032 6.66667C8.42074 6.66667 9.25441 7.04034 9.85782 7.64417L8.67974 8.82217C8.37816 8.52008 7.96115 8.33333 7.50032 8.33333C6.57949 8.33333 5.83366 9.07917 5.83366 10C5.83366 10.9208 6.57949 11.6667 7.50032 11.6667C7.96074 11.6667 8.37741 11.4802 8.67899 11.1787L9.85699 12.3567C9.25366 12.96 8.42032 13.3333 7.50032 13.3333C5.66032 13.3333 4.16699 11.84 4.16699 10C4.16699 8.16 5.66032 6.66667 7.50032 6.66667ZM13.3337 6.66667C14.2541 6.66667 15.0877 7.04034 15.6912 7.64417L14.5131 8.82217C14.2115 8.52008 13.7945 8.33333 13.3337 8.33333C12.4128 8.33333 11.667 9.07917 11.667 10C11.667 10.9208 12.4128 11.6667 13.3337 11.6667C13.7941 11.6667 14.2107 11.4802 14.5123 11.1787L15.6903 12.3567C15.087 12.96 14.2537 13.3333 13.3337 13.3333C11.4937 13.3333 10.0003 11.84 10.0003 10C10.0003 8.16 11.4937 6.66667 13.3337 6.66667Z" fill="#E3E3E3"/>
</svg>
