<svg width="20" height="20" viewBox="0 0 20 20" fill="none" xmlns="http://www.w3.org/2000/svg">
<path d="M6.66699 16.6667V18.2771C6.66699 18.5072 6.48044 18.6938 6.25032 18.6938C6.15285 18.6938 6.05847 18.6596 5.98358 18.5972L2.5511 15.7368C2.37432 15.5894 2.35043 15.3267 2.49775 15.1499C2.57692 15.0549 2.69419 15 2.81785 15H6.66699H15.0003C15.9208 15 16.667 14.2539 16.667 13.3334V6.66669H18.3337V13.3334C18.3337 15.1743 16.8412 16.6667 15.0003 16.6667H6.66699ZM13.3337 3.33336V1.72294C13.3337 1.49282 13.5202 1.30627 13.7503 1.30627C13.8478 1.30627 13.9422 1.34045 14.0171 1.40285L17.4496 4.26325C17.6263 4.41057 17.6502 4.67331 17.5029 4.85009C17.4237 4.94508 17.3065 5.00001 17.1828 5.00001H13.3337L5.00032 5.00002C4.07985 5.00002 3.33366 5.74622 3.33366 6.66669V13.3334H1.66699V6.66669C1.66699 4.82574 3.15938 3.33336 5.00032 3.33336H13.3337ZM9.16699 6.66669H10.8337V13.3334H9.16699V8.33336H7.50032V7.50002L9.16699 6.66669Z" fill="#E3E3E3"/>
</svg>
