<svg width="20" height="20" viewBox="0 0 20 20" fill="none" xmlns="http://www.w3.org/2000/svg">
<path d="M18.3337 9.99996C18.3337 5.39758 14.6027 1.66663 10.0003 1.66663C7.48707 1.66663 5.23367 2.7792 3.70579 4.53869L1.66699 2.49996V7.49996H6.66699L4.88776 5.72115C6.11068 4.26148 7.94711 3.33329 10.0003 3.33329C13.6822 3.33329 16.667 6.31806 16.667 9.99996C16.667 13.6819 13.6822 16.6666 10.0003 16.6666C6.31842 16.6666 3.33366 13.6819 3.33366 9.99996H1.66699C1.66699 14.6023 5.39795 18.3333 10.0003 18.3333C14.6027 18.3333 18.3337 14.6023 18.3337 9.99996ZM12.0837 8.33329V7.08329H7.91699V10.625H10.5212C10.8088 10.625 11.042 10.8581 11.042 11.1458C11.042 11.4335 10.8088 11.6666 10.5212 11.6666H7.91699V12.9166H10.5212C11.4992 12.9166 12.292 12.1238 12.292 11.1458C12.292 10.1678 11.4992 9.37496 10.5212 9.37496H9.16699V8.33329H12.0837Z" fill="#E3E3E3"/>
</svg>
