<svg width="20" height="20" viewBox="0 0 20 20" fill="none" xmlns="http://www.w3.org/2000/svg">
<g clip-path="url(#clip0_1533_584)">
<path d="M17.056 7.24487L17.2615 6.77347C17.6277 5.93293 18.2874 5.26372 19.1106 4.89761L19.7436 4.61606C20.0859 4.46382 20.0859 3.96572 19.7436 3.81347L19.146 3.54766C18.3017 3.17213 17.6302 2.47815 17.2702 1.60907L17.0592 1.09965C16.9122 0.744615 16.4218 0.744615 16.2747 1.09965L16.0637 1.60907C15.7038 2.47815 15.0323 3.17213 14.188 3.54766L13.5903 3.81347C13.2481 3.96572 13.2481 4.46382 13.5903 4.61606L14.2234 4.89761C15.0466 5.26372 15.7062 5.93293 16.0725 6.77347L16.2779 7.24487C16.4283 7.58997 16.9057 7.58997 17.056 7.24487ZM16.667 9.16671C17.2249 9.16671 17.7615 9.07529 18.2626 8.90671C18.3095 9.26454 18.3337 9.62946 18.3337 10C18.3337 14.6024 14.6027 18.3334 10.0003 18.3334C5.39795 18.3334 1.66699 14.6024 1.66699 10C1.66699 5.39767 5.39795 1.66671 10.0003 1.66671C10.755 1.66671 11.4862 1.76703 12.1815 1.95507C11.8521 2.62185 11.667 3.37267 11.667 4.16671C11.667 6.92813 13.9056 9.16671 16.667 9.16671ZM10.8337 9.16671V5.00004L6.66699 10.8334H9.16699V15L13.3337 9.16671H10.8337Z" fill="#E3E3E3"/>
</g>
<defs>
<clipPath id="clip0_1533_584">
<rect width="20" height="20" fill="white"/>
</clipPath>
</defs>
</svg>
