<svg width="20" height="20" viewBox="0 0 20 20" fill="none" xmlns="http://www.w3.org/2000/svg">
<path d="M3.33333 2.5H16.6667C17.1269 2.5 17.5 2.8731 17.5 3.33333V16.6667C17.5 17.1269 17.1269 17.5 16.6667 17.5H3.33333C2.8731 17.5 2.5 17.1269 2.5 16.6667V3.33333C2.5 2.8731 2.8731 2.5 3.33333 2.5ZM10 14.1667C7.69882 14.1667 5.83333 12.3012 5.83333 10C5.83333 7.69882 7.69882 5.83333 10 5.83333C12.3012 5.83333 14.1667 7.69882 14.1667 10C14.1667 12.3012 12.3012 14.1667 10 14.1667ZM10 15.8333C13.2217 15.8333 15.8333 13.2217 15.8333 10C15.8333 6.77834 13.2217 4.16667 10 4.16667C6.77834 4.16667 4.16667 6.77834 4.16667 10C4.16667 13.2217 6.77834 15.8333 10 15.8333ZM10 11.6667C10.9205 11.6667 11.6667 10.9205 11.6667 10C11.6667 9.0795 10.9205 8.33333 10 8.33333C9.0795 8.33333 8.33333 9.0795 8.33333 10C8.33333 10.9205 9.0795 11.6667 10 11.6667Z" fill="#E3E3E3"/>
</svg>
