<svg width="20" height="20" viewBox="0 0 20 20" fill="none" xmlns="http://www.w3.org/2000/svg">
<g clip-path="url(#clip0_1533_667)">
<path d="M17.2615 6.77347L17.056 7.24487C16.9057 7.58997 16.4283 7.58997 16.2779 7.24487L16.0725 6.77347C15.7062 5.93293 15.0466 5.26372 14.2234 4.89761L13.5903 4.61606C13.2481 4.46382 13.2481 3.96572 13.5903 3.81347L14.188 3.54766C15.0323 3.17213 15.7038 2.47815 16.0637 1.60907L16.2747 1.09965C16.4218 0.744615 16.9122 0.744615 17.0592 1.09965L17.2702 1.60907C17.6302 2.47815 18.3017 3.17213 19.146 3.54766L19.7436 3.81347C20.0859 3.96572 20.0859 4.46382 19.7436 4.61606L19.1106 4.89761C18.2874 5.26372 17.6277 5.93293 17.2615 6.77347ZM2.49349 2.50004H11.667V4.16671H3.33366V15.8334L11.667 7.50004L16.667 12.5V9.16671H18.3337V16.6722C18.3337 17.1294 17.9542 17.5 17.5072 17.5H2.49349C2.03703 17.5 1.66699 17.1293 1.66699 16.6722V3.32787C1.66699 2.87067 2.04642 2.50004 2.49349 2.50004ZM16.667 14.857L11.667 9.85704L5.69068 15.8334H16.667V14.857ZM6.66699 9.16671C5.74652 9.16671 5.00033 8.42054 5.00033 7.50004C5.00033 6.57957 5.74652 5.83337 6.66699 5.83337C7.58747 5.83337 8.33366 6.57957 8.33366 7.50004C8.33366 8.42054 7.58747 9.16671 6.66699 9.16671Z" fill="#E3E3E3"/>
</g>
<defs>
<clipPath id="clip0_1533_667">
<rect width="20" height="20" fill="white"/>
</clipPath>
</defs>
</svg>
