<svg width="20" height="20" viewBox="0 0 20 20" fill="none" xmlns="http://www.w3.org/2000/svg">
<path d="M1.66699 9.99996C1.66699 5.39758 5.39795 1.66663 10.0003 1.66663C12.5136 1.66663 14.767 2.7792 16.2948 4.53869L18.3337 2.49996V7.49996H13.9882C14.3565 7.87574 14.5837 8.39046 14.5837 8.95829V11.0416C14.5837 12.1922 13.6509 13.125 12.5003 13.125C11.3497 13.125 10.417 12.1922 10.417 11.0416V8.95829C10.417 7.8077 11.3497 6.87496 12.5003 6.87496C12.9157 6.87496 13.3027 6.99652 13.6277 7.20602L15.1129 5.72115C13.89 4.26148 12.0536 3.33329 10.0003 3.33329C6.31842 3.33329 3.33366 6.31806 3.33366 9.99996C3.33366 13.6819 6.31842 16.6666 10.0003 16.6666C13.6822 16.6666 16.667 13.6819 16.667 9.99996H18.3337C18.3337 14.6023 14.6027 18.3333 10.0003 18.3333C5.39795 18.3333 1.66699 14.6023 1.66699 9.99996ZM12.5003 8.12496C12.0401 8.12496 11.667 8.49804 11.667 8.95829V11.0416C11.667 11.5019 12.0401 11.875 12.5003 11.875C12.9606 11.875 13.3337 11.5019 13.3337 11.0416V8.95829C13.3337 8.49804 12.9606 8.12496 12.5003 8.12496ZM8.3335 11.1458C8.3335 10.8581 8.10032 10.625 7.81267 10.625H6.25032V9.37496H7.81267C8.10032 9.37496 8.3335 9.14179 8.3335 8.85412C8.3335 8.56646 8.10032 8.33329 7.81267 8.33329H5.62532V7.08329H7.81267C8.79066 7.08329 9.58349 7.87612 9.58349 8.85412C9.58349 9.29112 9.42524 9.69112 9.16291 9.99996C9.42524 10.3088 9.58349 10.7088 9.58349 11.1458C9.58349 12.1238 8.79066 12.9166 7.81267 12.9166H5.62532V11.6666H7.81267C8.10032 11.6666 8.3335 11.4335 8.3335 11.1458Z" fill="#E3E3E3"/>
</svg>
