<svg width="20" height="20" viewBox="0 0 20 20" fill="none" xmlns="http://www.w3.org/2000/svg">
<path fill-rule="evenodd" clip-rule="evenodd" d="M7.46953 14.9998C7.37047 15.6951 7.02388 16.3312 6.49343 16.7915C5.96298 17.2517 5.2843 17.5051 4.58203 17.5051C3.87977 17.5051 3.20108 17.2517 2.67063 16.7915C2.14019 16.3312 1.7936 15.6951 1.69453 14.9998H0.832031V4.99984C0.832031 4.77882 0.919829 4.56686 1.07611 4.41058C1.23239 4.2543 1.44435 4.1665 1.66536 4.1665H13.332C13.553 4.1665 13.765 4.2543 13.9213 4.41058C14.0776 4.56686 14.1654 4.77882 14.1654 4.99984V6.6665H16.6654L19.1654 10.0465V14.9998H17.4695C17.3705 15.6951 17.0239 16.3312 16.4934 16.7915C15.963 17.2517 15.2843 17.5051 14.582 17.5051C13.8798 17.5051 13.2011 17.2517 12.6706 16.7915C12.1402 16.3312 11.7936 15.6951 11.6945 14.9998H7.46953ZM14.1654 10.8332H17.4987V10.5957L15.8254 8.33317H14.1654V10.8332ZM14.8745 13.367C15.4321 13.499 15.847 14 15.847 14.5979C15.847 15.2964 15.2807 15.8627 14.5822 15.8627C13.8837 15.8627 13.3174 15.2964 13.3174 14.5979C13.3174 14.0064 13.7233 13.5098 14.2718 13.3714C14.3723 13.3457 14.4765 13.3323 14.582 13.3323C14.6814 13.3323 14.7795 13.3442 14.8745 13.367ZM5.84943 14.5979C5.84943 15.2964 5.28316 15.8627 4.58463 15.8627C3.8861 15.8627 3.31982 15.2964 3.31982 14.5979C3.31982 13.8993 3.8861 13.3331 4.58463 13.3331C5.28316 13.3331 5.84943 13.8993 5.84943 14.5979Z" fill="#E3E3E3"/>
</svg>
