<svg width="20" height="20" viewBox="0 0 20 20" fill="none" xmlns="http://www.w3.org/2000/svg">
<path fill-rule="evenodd" clip-rule="evenodd" d="M8.71989 1.28018C9.51739 0.820185 10.5369 1.09223 10.9969 1.88972L13.7052 6.58129C13.9352 6.97876 13.7983 7.48896 13.4001 7.71898L12.3169 8.34398L13.151 9.78767L11.7074 10.621L10.874 9.1765L9.79167 9.80232C9.39333 10.0323 8.88316 9.89548 8.65316 9.49714L7.12158 6.84577C5.41163 7.36414 4.16667 8.95427 4.16667 10.8334C4.16669 11.3541 4.26276 11.853 4.43685 12.3129C5.08346 11.903 5.84678 11.6667 6.66667 11.6667C8.06992 11.6667 9.31172 12.3605 10.0667 13.4237L16.473 9.72501L17.3063 11.1679L10.7414 14.9594C10.8013 15.241 10.8333 15.5343 10.8333 15.8334C10.8333 16.1192 10.8053 16.3976 10.7503 16.6667H17.5V18.3334L3.33333 18.3342C2.81004 17.6376 2.50004 16.7717 2.5 15.8334C2.5 14.9942 2.74799 14.2122 3.17464 13.558C2.74394 12.7456 2.50003 11.8182 2.5 10.8334C2.5 8.33757 4.06779 6.20773 6.27279 5.37523L5.94482 4.80639C5.48498 4.00892 5.75774 2.99015 6.55518 2.53018L8.71989 1.28018ZM4.17236 15.9897C4.18691 16.2253 4.23311 16.4529 4.30827 16.6667H4.31234C4.2348 16.4414 4.18897 16.2141 4.17236 15.9897Z" fill="#E3E3E3"/>
</svg>
