<svg width="20" height="20" viewBox="0 0 20 20" fill="none" xmlns="http://www.w3.org/2000/svg">
<path d="M16.7365 12.6666L17.7382 13.2675C17.8 13.3045 17.8511 13.3568 17.8867 13.4195C17.9222 13.4822 17.9408 13.553 17.9408 13.625C17.9408 13.697 17.9222 13.7678 17.8867 13.8304C17.8511 13.8931 17.8 13.9455 17.7382 13.9825L10.4299 18.3675C10.3003 18.4453 10.1519 18.4865 10.0007 18.4865C9.84949 18.4865 9.70114 18.4453 9.57153 18.3675L2.26319 13.9825C2.2014 13.9455 2.15025 13.8931 2.11473 13.8304C2.07922 13.7678 2.06055 13.697 2.06055 13.625C2.06055 13.553 2.07922 13.4822 2.11473 13.4195C2.15025 13.3568 2.2014 13.3045 2.26319 13.2675L3.26486 12.6666L10.0007 16.7083L16.7365 12.6666ZM16.7365 8.74998L17.7382 9.35081C17.8 9.3878 17.8511 9.44018 17.8867 9.50284C17.9222 9.5655 17.9408 9.63629 17.9408 9.70831C17.9408 9.78033 17.9222 9.85112 17.8867 9.91378C17.8511 9.97644 17.8 10.0288 17.7382 10.0658L10.0007 14.7083L2.26319 10.0658C2.2014 10.0288 2.15025 9.97644 2.11473 9.91378C2.07922 9.85112 2.06055 9.78033 2.06055 9.70831C2.06055 9.63629 2.07922 9.5655 2.11473 9.50284C2.15025 9.44018 2.2014 9.3878 2.26319 9.35081L3.26486 8.74998L10.0007 12.7916L16.7365 8.74998ZM10.429 1.09081L17.7382 5.47581C17.8 5.5128 17.8511 5.56518 17.8867 5.62784C17.9222 5.6905 17.9408 5.76129 17.9408 5.83331C17.9408 5.90533 17.9222 5.97612 17.8867 6.03878C17.8511 6.10144 17.8 6.15382 17.7382 6.19081L10.0007 10.8333L2.26319 6.19081C2.2014 6.15382 2.15025 6.10144 2.11473 6.03878C2.07922 5.97612 2.06055 5.90533 2.06055 5.83331C2.06055 5.76129 2.07922 5.6905 2.11473 5.62784C2.15025 5.56518 2.2014 5.5128 2.26319 5.47581L9.57153 1.09081C9.70114 1.01294 9.84949 0.971802 10.0007 0.971802C10.1519 0.971802 10.3003 1.01294 10.4299 1.09081H10.429ZM10.0007 2.77664L4.90653 5.83331L10.0007 8.88998L15.0949 5.83331L10.0007 2.77664Z" fill="#E3E3E3"/>
</svg>
