<svg width="20" height="20" viewBox="0 0 20 20" fill="none" xmlns="http://www.w3.org/2000/svg">
<path d="M13.3331 1.66663V3.33329H12.4998V6.03579C12.4998 7.00079 12.709 7.95329 13.1131 8.82912L16.6815 16.5591C16.9706 17.1866 16.6965 17.9291 16.0698 18.2175C15.9056 18.2941 15.7273 18.3333 15.5465 18.3333H4.45312C3.76312 18.3333 3.20312 17.7733 3.20312 17.0833C3.20312 16.9025 3.24229 16.7233 3.31813 16.5591L6.88646 8.82912C7.29063 7.95413 7.49979 7.00079 7.49979 6.03579V3.33329H6.66646V1.66663H13.3331ZM11.1565 8.33413H8.84313C8.75646 8.63663 8.65146 8.93496 8.53146 9.22662L8.39979 9.52746L5.10396 16.6666H14.8948L11.5998 9.52746C11.4215 9.14079 11.2731 8.74163 11.1565 8.33413ZM9.16646 6.03579C9.16646 6.24663 9.15813 6.45746 9.14229 6.66746H10.8573C10.849 6.56663 10.844 6.46579 10.8398 6.36413L10.8331 6.03579V3.33329H9.16646V6.03579Z" fill="#E3E3E3"/>
</svg>
