<svg width="20" height="20" viewBox="0 0 20 20" fill="none" xmlns="http://www.w3.org/2000/svg">
<path d="M17.7384 13.2674C17.8002 13.3044 17.8511 13.357 17.8866 13.4196C17.922 13.4822 17.941 13.5528 17.9411 13.6247C17.9411 13.6967 17.9221 13.7679 17.8866 13.8306C17.8511 13.8931 17.8002 13.9458 17.7384 13.9827L10.4297 18.3675C10.3001 18.4453 10.1519 18.4863 10.0008 18.4863C9.84961 18.4863 9.70074 18.4454 9.57113 18.3675L2.26318 13.9827C2.20147 13.9458 2.15058 13.8931 2.11507 13.8306C2.07956 13.7679 2.06055 13.6967 2.06055 13.6247C2.0606 13.5527 2.0796 13.4822 2.11507 13.4196C2.15059 13.357 2.20141 13.3044 2.26318 13.2674L3.26497 12.6668L10.0008 16.7082L16.7367 12.6668L17.7384 13.2674Z" fill="#E3E3E3"/>
<path d="M17.7384 9.35059C17.8002 9.38756 17.8511 9.44018 17.8866 9.50277C17.9221 9.56542 17.9411 9.63664 17.9411 9.70866C17.941 9.78055 17.922 9.85119 17.8866 9.91374C17.8511 9.97634 17.8002 10.0289 17.7384 10.0659L10.0008 14.7087L2.26318 10.0659C2.20143 10.0289 2.15058 9.97634 2.11507 9.91374C2.07962 9.85119 2.06061 9.78055 2.06055 9.70866C2.06055 9.63664 2.07956 9.56542 2.11507 9.50277C2.15058 9.44019 2.20145 9.38754 2.26318 9.35059L3.26497 8.75L10.0008 12.7913L16.7367 8.75L17.7384 9.35059Z" fill="#E3E3E3"/>
<path d="M10.0008 0.97168C10.1519 0.971702 10.3002 1.01275 10.4297 1.09049L17.7384 5.47607C17.8 5.51299 17.8511 5.56504 17.8866 5.62744C17.9221 5.6901 17.9411 5.76131 17.9411 5.83333C17.9411 5.90526 17.922 5.97582 17.8866 6.03841C17.8511 6.10098 17.8001 6.15361 17.7384 6.19059L10.0008 10.8333L2.26318 6.19059C2.20143 6.1536 2.15057 6.10104 2.11507 6.03841C2.07961 5.9758 2.06055 5.90529 2.06055 5.83333C2.06055 5.76131 2.07956 5.6901 2.11507 5.62744C2.15055 5.56502 2.20159 5.51298 2.26318 5.47607L9.57113 1.09049C9.70074 1.01263 9.84961 0.97168 10.0008 0.97168Z" fill="#E3E3E3"/>
</svg>
