<svg width="20" height="20" viewBox="0 0 20 20" fill="none" xmlns="http://www.w3.org/2000/svg">
<path fill-rule="evenodd" clip-rule="evenodd" d="M14.1667 3.33341V1.66675H5.83333V3.33341H3.32783C2.87079 3.33341 2.5 3.70405 2.5 4.16125V17.5056C2.5 17.9627 2.87063 18.3334 3.32783 18.3334H16.6722C17.1292 18.3334 17.5 17.9627 17.5 17.5056V4.16125C17.5 3.70421 17.1293 3.33341 16.6722 3.33341H14.1667ZM7.49919 15V13.3333H5.83252V15H7.49919ZM7.49919 12.5V10.8333H5.83252V12.5H7.49919ZM7.49919 9.99998V8.33331H5.83252V9.99998H7.49919ZM7.49919 3.33331H12.4992V4.99998H7.49919V3.33331Z" fill="#E3E3E3"/>
</svg>
