<svg width="20" height="20" viewBox="0 0 20 20" fill="none" xmlns="http://www.w3.org/2000/svg">
<path d="M10.832 1.66663V2.49996H16.6653V4.16663H10.832V15.8333H14.1653V17.5H5.83203V15.8333H9.16533V4.16663H3.33203V2.49996H9.16533V1.66663H10.832ZM4.16537 5.28592L6.52238 7.64293C7.1256 8.24615 7.4987 9.07946 7.4987 9.99996C7.4987 11.8409 6.00632 13.3333 4.16537 13.3333C2.32442 13.3333 0.832031 11.8409 0.832031 9.99996C0.832031 9.07946 1.20513 8.24615 1.80834 7.64293L4.16537 5.28592ZM15.832 5.28592L18.1891 7.64293C18.7922 8.24615 19.1653 9.07946 19.1653 9.99996C19.1653 11.8409 17.673 13.3333 15.832 13.3333C13.9911 13.3333 12.4987 11.8409 12.4987 9.99996C12.4987 9.07946 12.8718 8.24615 13.475 7.64293L15.832 5.28592ZM4.16537 7.64293L2.98685 8.82146C2.67523 9.13304 2.4987 9.55046 2.4987 9.99996C2.4987 10.9205 3.24489 11.6666 4.16537 11.6666C5.08584 11.6666 5.83203 10.9205 5.83203 9.99996C5.83203 9.55046 5.6555 9.13304 5.34388 8.82146L4.16537 7.64293ZM15.832 7.64293L14.6535 8.82146C14.3419 9.13304 14.1653 9.55046 14.1653 9.99996C14.1653 10.9205 14.9116 11.6666 15.832 11.6666C16.7525 11.6666 17.4987 10.9205 17.4987 9.99996C17.4987 9.55046 17.3222 9.13304 17.0106 8.82146L15.832 7.64293Z" fill="#E3E3E3"/>
</svg>
