<svg width="20" height="20" viewBox="0 0 20 20" fill="none" xmlns="http://www.w3.org/2000/svg">
<path d="M2.49967 9.99996C2.49967 11.6108 3.80551 12.9166 5.41634 12.9166C6.41926 12.9166 7.09933 12.5551 7.66563 11.9888C8.18418 11.4703 8.60076 10.789 9.04518 9.99996C8.60076 9.21096 8.18418 8.52963 7.66563 8.01109C7.09933 7.44479 6.41926 7.08329 5.41634 7.08329C3.80551 7.08329 2.49967 8.38913 2.49967 9.99996ZM5.41634 14.5833C2.88503 14.5833 0.833008 12.5313 0.833008 9.99996C0.833008 7.46865 2.88503 5.41663 5.41634 5.41663C6.91342 5.41663 8.00418 5.99263 8.84418 6.83258C9.29018 7.27863 9.66626 7.80127 9.99968 8.33471C10.3331 7.80127 10.7092 7.27863 11.1552 6.83258C11.9952 5.99263 13.0859 5.41663 14.583 5.41663C17.1143 5.41663 19.1663 7.46865 19.1663 9.99996C19.1663 12.5313 17.1143 14.5833 14.583 14.5833C13.0859 14.5833 11.9952 14.0073 11.1552 13.1674C10.7092 12.7213 10.3331 12.1986 9.99968 11.6652C9.66626 12.1986 9.29018 12.7213 8.84418 13.1674C8.00418 14.0073 6.91342 14.5833 5.41634 14.5833ZM10.9542 9.99996C11.3986 10.789 11.8152 11.4703 12.3338 11.9888C12.9 12.5551 13.5801 12.9166 14.583 12.9166C16.1938 12.9166 17.4997 11.6108 17.4997 9.99996C17.4997 8.38913 16.1938 7.08329 14.583 7.08329C13.5801 7.08329 12.9 7.44479 12.3338 8.01109C11.8152 8.52963 11.3986 9.21096 10.9542 9.99996Z" fill="#E3E3E3"/>
</svg>
