<svg width="20" height="20" viewBox="0 0 20 20" fill="none" xmlns="http://www.w3.org/2000/svg">
<path d="M4.16667 4.16667V15.8333H15.8333V4.16667H4.16667ZM2.5 4.16667C2.5 3.24619 3.24619 2.5 4.16667 2.5H15.8333C16.7538 2.5 17.5 3.24619 17.5 4.16667V15.8333C17.5 16.7538 16.7538 17.5 15.8333 17.5H4.16667C3.24619 17.5 2.5 16.7538 2.5 15.8333V4.16667ZM10 11.6667C10.9205 11.6667 11.6667 10.9205 11.6667 10C11.6667 9.0795 10.9205 8.33333 10 8.33333C9.0795 8.33333 8.33333 9.0795 8.33333 10C8.33333 10.9205 9.0795 11.6667 10 11.6667Z" fill="#E3E3E3"/>
</svg>
