<svg width="20" height="20" viewBox="0 0 20 20" fill="none" xmlns="http://www.w3.org/2000/svg">
<path d="M4.16667 4.16667V15.8333H15.8333V4.16667H4.16667ZM2.5 4.16667C2.5 3.24619 3.24619 2.5 4.16667 2.5H15.8333C16.7538 2.5 17.5 3.24619 17.5 4.16667V15.8333C17.5 16.7538 16.7538 17.5 15.8333 17.5H4.16667C3.24619 17.5 2.5 16.7538 2.5 15.8333V4.16667ZM12.9167 14.1667C13.607 14.1667 14.1667 13.607 14.1667 12.9167C14.1667 12.2263 13.607 11.6667 12.9167 11.6667C12.2263 11.6667 11.6667 12.2263 11.6667 12.9167C11.6667 13.607 12.2263 14.1667 12.9167 14.1667ZM8.33333 12.9167C8.33333 13.607 7.77369 14.1667 7.08333 14.1667C6.39297 14.1667 5.83333 13.607 5.83333 12.9167C5.83333 12.2263 6.39297 11.6667 7.08333 11.6667C7.77369 11.6667 8.33333 12.2263 8.33333 12.9167ZM7.08333 8.33333C7.77369 8.33333 8.33333 7.77369 8.33333 7.08333C8.33333 6.39297 7.77369 5.83333 7.08333 5.83333C6.39297 5.83333 5.83333 6.39297 5.83333 7.08333C5.83333 7.77369 6.39297 8.33333 7.08333 8.33333ZM14.1667 7.08333C14.1667 7.77369 13.607 8.33333 12.9167 8.33333C12.2263 8.33333 11.6667 7.77369 11.6667 7.08333C11.6667 6.39297 12.2263 5.83333 12.9167 5.83333C13.607 5.83333 14.1667 6.39297 14.1667 7.08333ZM10 11.25C10.6903 11.25 11.25 10.6903 11.25 10C11.25 9.30967 10.6903 8.75 10 8.75C9.30967 8.75 8.75 9.30967 8.75 10C8.75 10.6903 9.30967 11.25 10 11.25Z" fill="#E3E3E3"/>
</svg>
