<svg width="20" height="20" viewBox="0 0 20 20" fill="none" xmlns="http://www.w3.org/2000/svg">
<path d="M8.31057 15H9.16634V10.8333H10.833V15H11.6888C11.7988 13.9986 12.3098 13.172 13.1393 12.2688C13.2328 12.1671 13.832 11.547 13.9031 11.4584C14.6095 10.5775 14.9997 9.48746 14.9997 8.33329C14.9997 5.57187 12.7611 3.33329 9.99967 3.33329C7.23825 3.33329 4.99967 5.57187 4.99967 8.33329C4.99967 9.48688 5.38946 10.5764 6.09519 11.457C6.16637 11.5458 6.76702 12.1676 6.85929 12.2681C7.68939 13.172 8.20053 13.9986 8.31057 15ZM8.33301 16.6666V17.5H11.6663V16.6666H8.33301ZM4.79463 12.4993C3.88005 11.358 3.33301 9.90954 3.33301 8.33329C3.33301 4.65139 6.31777 1.66663 9.99967 1.66663C13.6816 1.66663 16.6663 4.65139 16.6663 8.33329C16.6663 9.91038 16.1187 11.3595 15.2033 12.5011C14.6863 13.1456 13.333 14.1666 13.333 15.4166V17.5C13.333 18.4205 12.5868 19.1666 11.6663 19.1666H8.33301C7.41253 19.1666 6.66634 18.4205 6.66634 17.5V15.4166C6.66634 14.1666 5.31182 13.1446 4.79463 12.4993Z" fill="#E3E3E3"/>
</svg>
