<svg width="20" height="20" viewBox="0 0 20 20" fill="none" xmlns="http://www.w3.org/2000/svg">
<path d="M9.99992 1.7301L10.3793 1.924C11.8507 2.6762 13.1107 3.78175 14.0477 5.12895C14.821 4.76169 15.649 4.49061 16.5161 4.33134L17.5 4.1506V10.8331C17.5 14.9752 14.1422 18.3333 10 18.3333C5.85787 18.3333 2.5 14.9755 2.5 10.8333V4.1506L3.48388 4.33134C4.35096 4.4906 5.17892 4.76166 5.95211 5.12889C6.88922 3.78172 8.14918 2.67619 9.62058 1.924L9.99992 1.7301ZM7.39797 5.97088C8.42275 6.68873 9.30658 7.59389 10 8.63704C10.6935 7.59395 11.5775 6.68869 12.6019 5.97097C11.9127 5.01329 11.0252 4.2077 9.99992 3.61452C8.97475 4.20768 8.08723 5.01324 7.39797 5.97088ZM9.08275 10.3615C8.3485 8.93354 7.21327 7.74434 5.82593 6.94355C5.30558 6.6432 4.74992 6.39757 4.16667 6.21441V10.8333C4.16667 13.575 6.05801 15.8748 8.60708 16.4993C8.42808 15.7503 8.33333 14.969 8.33333 14.1665C8.33333 12.8192 8.59983 11.5343 9.08275 10.3615ZM10.3776 16.6546C13.4233 16.46 15.8333 13.928 15.8333 10.8331V6.21441C15.25 6.39758 14.6943 6.64323 14.174 6.94362C11.6772 8.38479 10 11.0803 10 14.1665C10 15.0342 10.1323 15.8697 10.3776 16.6546Z" fill="#E3E3E3"/>
</svg>
