<svg width="20" height="20" viewBox="0 0 20 20" fill="none" xmlns="http://www.w3.org/2000/svg">
<path d="M17.498 2.5V4.16667C17.498 12.1895 13.0209 15.8333 7.49805 15.8333L4.36698 15.8333C4.23184 16.5933 4.16471 17.4225 4.16471 18.3333H2.49805C2.49805 17.1978 2.59447 16.1664 2.78618 15.2235C2.59409 14.1451 2.49805 12.6813 2.49805 10.8333C2.49805 6.23096 6.22901 2.5 10.8313 2.5C12.498 2.5 14.1647 3.33333 17.498 2.5ZM10.8313 4.16667C7.14948 4.16667 4.16471 7.15143 4.16471 10.8333C4.16471 11.1353 4.16738 11.4259 4.17266 11.7049C5.21799 10.057 6.74885 8.754 8.75125 7.6098L9.57817 9.05683C7.19909 10.4163 5.62095 11.9613 4.81075 14.1665L7.49805 14.1667C12.5107 14.1667 15.724 10.8558 15.8288 4.48972C14.6854 4.60094 13.6231 4.53 12.3125 4.33341C11.3533 4.18952 11.1653 4.16667 10.8313 4.16667Z" fill="#E3E3E3"/>
</svg>
