<svg width="20" height="20" viewBox="0 0 20 20" fill="none" xmlns="http://www.w3.org/2000/svg">
<path d="M10.3792 1.924L9.99983 1.7301L9.62058 1.924C8.66267 2.41368 7.79431 3.05313 7.04631 3.81158C8.14493 4.38349 9.14108 5.12511 10.0001 6.00169C10.859 5.12519 11.8551 4.38364 12.9536 3.81174C12.2055 3.05322 11.3371 2.41371 10.3792 1.924ZM8.91608 7.27857C7.49104 5.77915 5.60521 4.72114 3.48388 4.33149L2.5 4.15076V10.8335C2.5 14.0039 4.46721 16.7149 7.24759 17.8123C6.8706 16.6653 6.66667 15.4398 6.66667 14.1666C6.66667 11.5902 7.50179 9.20888 8.91608 7.27857ZM17.5 4.15076L16.5161 4.33149C11.8608 5.18659 8.33333 9.26396 8.33333 14.1668C8.33333 15.4468 8.57425 16.6725 9.01392 17.7998L9.21408 18.3128C9.47592 18.321 9.738 18.3335 10 18.3335C14.1422 18.3335 17.5 14.9756 17.5 10.8335V4.15076Z" fill="#E3E3E3"/>
</svg>
