<svg width="20" height="20" viewBox="0 0 20 20" fill="none" xmlns="http://www.w3.org/2000/svg">
<path d="M9.16459 1.31682C9.68118 1.01777 10.3182 1.01777 10.8348 1.31682L17.0848 4.93524C17.5994 5.23323 17.9163 5.78288 17.9163 6.37762V13.6224C17.9163 14.2172 17.5994 14.7668 17.0848 15.0648L10.8348 18.6833C10.3182 18.9823 9.68118 18.9823 9.16459 18.6833L2.91462 15.0648C2.39992 14.7668 2.08301 14.2172 2.08301 13.6224V6.37762C2.08301 5.78288 2.39992 5.23323 2.91462 4.93524L9.16459 1.31682ZM4.37511 6.74369C4.09732 6.58288 3.74967 6.78331 3.74967 7.10428V12.6615C3.74967 13.2563 4.06658 13.8059 4.58128 14.1039L9.37426 16.8788C9.65201 17.0396 9.99968 16.8392 9.99968 16.5182V10.9609C9.99968 10.3663 9.68276 9.81659 9.16809 9.51859L4.37511 6.74369ZM13.1398 4.59766C12.7412 4.36755 12.0949 4.36755 11.6963 4.59766C11.2978 4.82777 11.2978 5.20084 11.6963 5.43094C12.0949 5.66105 12.7412 5.66105 13.1398 5.43094C13.5383 5.20084 13.5383 4.82777 13.1398 4.59766ZM8.30655 4.59769C7.90797 4.36758 7.26173 4.36758 6.86315 4.59769C6.46457 4.82779 6.46457 5.20087 6.86315 5.43098C7.26173 5.66108 7.90797 5.66108 8.30655 5.43098C8.70518 5.20087 8.70518 4.82779 8.30655 4.59769ZM14.1601 13.2043C14.6583 12.9167 15.0621 12.2171 15.0622 11.6418C15.0622 11.0665 14.6583 10.8333 14.1602 11.121C13.662 11.4087 13.2581 12.1083 13.2581 12.6835C13.2581 13.2588 13.6619 13.492 14.1601 13.2043ZM5.30484 10.1669C5.70341 10.3971 6.02651 10.2105 6.02649 9.75025C6.02647 9.29 5.70336 8.73042 5.30479 8.50025C4.90622 8.27012 4.58312 8.45667 4.58314 8.91692C4.58316 9.37717 4.90627 9.93675 5.30484 10.1669ZM8.91226 14.7485C8.91226 15.2088 8.58918 15.3953 8.19058 15.1651C7.79202 14.935 7.4689 14.3753 7.46888 13.9151C7.46887 13.4548 7.79196 13.2683 8.19053 13.4984C8.58909 13.7286 8.91226 14.2883 8.91226 14.7485ZM6.02649 13.0828C6.02651 13.543 5.70341 13.7296 5.30484 13.4994C4.90627 13.2693 4.58316 12.7097 4.58314 12.2494C4.58312 11.7892 4.90622 11.6027 5.30479 11.8328C5.70336 12.0629 6.02647 12.6226 6.02649 13.0828ZM8.91184 11.4165C8.91184 11.8768 8.58876 12.0633 8.19018 11.8332C7.79161 11.603 7.46849 11.0434 7.46847 10.5832C7.46846 10.1229 7.79156 9.93642 8.19012 10.1665C8.58868 10.3967 8.91184 10.9563 8.91184 11.4165Z" fill="#E3E3E3"/>
</svg>
