<svg width="20" height="20" viewBox="0 0 20 20" fill="none" xmlns="http://www.w3.org/2000/svg">
<path d="M2.52566 9.14705C2.55818 7.91286 2.63136 6.92421 2.79603 6.10098C3.07238 4.71932 3.59096 3.88526 4.6288 3.19343L3.70437 1.80664C2.24197 2.78147 1.51043 4.03075 1.16173 5.77409C0.832932 7.41791 0.832965 9.56972 0.833009 12.4V12.4995C0.833009 12.4994 0.833009 12.4997 0.833009 12.4995C0.833009 14.8007 2.69849 16.6667 4.99968 16.6667C7.30087 16.6667 9.16634 14.8012 9.16634 12.5C9.16634 12.2718 9.14793 12.0474 9.11234 11.8285C9.38776 11.724 9.68651 11.6667 9.99968 11.6667C10.3128 11.6667 10.6117 11.724 10.887 11.8285C10.8514 12.0474 10.833 12.2718 10.833 12.5C10.833 14.8012 12.6985 16.6667 14.9997 16.6667C17.3008 16.6667 19.1663 14.8012 19.1663 12.5V12.4C19.1664 9.56972 19.1664 7.41792 18.8377 5.77412C18.4891 4.03082 17.7577 2.78154 16.2955 1.80668L15.371 3.19339C16.4086 3.88519 16.9271 4.71924 17.2034 6.10095C17.368 6.92418 17.4412 7.91286 17.4737 9.14705C16.7818 8.63572 15.9261 8.33337 14.9997 8.33337C13.5177 8.33337 12.2178 9.1068 11.4793 10.2706C11.019 10.0958 10.5201 10 9.99968 10C9.47926 10 8.98034 10.0958 8.52009 10.2706C7.78163 9.1068 6.48168 8.33337 4.99968 8.33337C4.0733 8.33337 3.21753 8.63572 2.52566 9.14705Z" fill="#E3E3E3"/>
</svg>
