<svg width="20" height="20" viewBox="0 0 20 20" fill="none" xmlns="http://www.w3.org/2000/svg">
<path d="M3.33333 9.44437L0 7.49996L10 1.66663L20 7.49996V14.5833H18.3333V8.47221L16.6667 9.44437V15.0094L16.4812 15.2386C14.9547 17.1249 12.6182 18.3333 10 18.3333C7.38181 18.3333 5.04524 17.1249 3.51886 15.2386L3.33333 15.0094V9.44437ZM5 10.4166V14.4097C6.22267 15.795 8.00927 16.6666 10 16.6666C11.9907 16.6666 13.7773 15.795 15 14.4097V10.4166L10 13.3333L5 10.4166ZM3.30772 7.49996L10 11.4038L16.6922 7.49996L10 3.59613L3.30772 7.49996Z" fill="#E3E3E3"/>
</svg>
