<svg width="20" height="20" viewBox="0 0 20 20" fill="none" xmlns="http://www.w3.org/2000/svg">
<path d="M10.0003 18.3333C14.6027 18.3333 18.3337 14.6023 18.3337 9.99996C18.3337 5.39758 14.6027 1.66663 10.0003 1.66663C5.39795 1.66663 1.66699 5.39758 1.66699 9.99996C1.66699 14.6023 5.39795 18.3333 10.0003 18.3333ZM11.2503 5.83329C11.2503 6.52365 10.6907 7.08329 10.0003 7.08329C9.30999 7.08329 8.75032 6.52365 8.75032 5.83329C8.75032 5.14293 9.30999 4.58329 10.0003 4.58329C10.6907 4.58329 11.2503 5.14293 11.2503 5.83329ZM5.52442 8.69037L6.14288 7.1427C7.35159 7.61917 8.70257 7.91652 10.0003 7.91652C11.2999 7.91652 12.6443 7.6158 13.8557 7.1435C13.8579 7.14261 14.4872 8.68604 14.4662 8.69429C13.5685 9.04446 12.6177 9.28921 11.6669 9.44171C11.6669 10.167 11.5961 10.9115 11.9308 11.5811L13.2456 14.2106L11.7549 14.956L10.4609 12.368C10.3737 12.1935 10.1953 12.0833 10.0002 12.0833C9.80516 12.0833 9.62682 12.1935 9.53957 12.368L8.24559 14.956L6.75488 14.2106L8.06964 11.5811C8.40441 10.9115 8.33357 10.167 8.33357 9.44171C7.38142 9.28896 6.42098 9.04821 5.52442 8.69037Z" fill="#E3E3E3"/>
</svg>
