<svg width="20" height="20" viewBox="0 0 20 20" fill="none" xmlns="http://www.w3.org/2000/svg">
<path d="M10.833 15V16.6666H15.833V18.3333H10.833C9.91251 18.3333 9.16634 17.5871 9.16634 16.6666V15H6.66634C4.82539 15 3.33301 13.5075 3.33301 11.6666V5.83329C3.33301 5.37306 3.70611 4.99996 4.16634 4.99996H6.66634V1.66663H8.33301V4.99996H11.6663V1.66663H13.333V4.99996H15.833C16.2933 4.99996 16.6663 5.37306 16.6663 5.83329V11.6666C16.6663 13.5075 15.1739 15 13.333 15H10.833ZM6.66634 13.3333H13.333C14.2535 13.3333 14.9997 12.5871 14.9997 11.6666V9.16662H4.99967V11.6666C4.99967 12.5871 5.74587 13.3333 6.66634 13.3333ZM14.9997 6.66663H4.99967V7.49996H14.9997V6.66663ZM9.99967 12.0833C9.53942 12.0833 9.16634 11.7102 9.16634 11.25C9.16634 10.7897 9.53942 10.4166 9.99967 10.4166C10.4599 10.4166 10.833 10.7897 10.833 11.25C10.833 11.7102 10.4599 12.0833 9.99967 12.0833Z" fill="#E3E3E3"/>
</svg>
