<svg width="20" height="20" viewBox="0 0 20 20" fill="none" xmlns="http://www.w3.org/2000/svg">
<path d="M10.5877 14.8274C11.2766 15.5164 11.9105 15.8333 12.4983 15.8333C12.8136 15.8333 13.0652 15.7772 13.5291 15.6033L13.8556 15.4763C14.7316 15.1258 15.1721 15 15.8317 15C16.8431 15 17.814 15.4538 18.737 16.3162L18.921 16.4941L17.7424 17.6726C17.0535 16.9836 16.4196 16.6667 15.8317 16.6667C15.5165 16.6667 15.2649 16.7228 14.801 16.8967L14.4745 17.0238C13.5985 17.3742 13.158 17.5 12.4983 17.5C11.487 17.5 10.5161 17.0462 9.59308 16.1838L9.40908 16.0059L10.5877 14.8274ZM7.49837 2.5C7.49837 3.88071 8.61766 5 9.99833 5C11.3791 5 12.4983 3.88071 12.4983 2.5H17.4983C17.9586 2.5 18.3317 2.8731 18.3317 3.33333V9.16667C18.3317 9.62692 17.9586 10 17.4983 10H14.1633L14.164 8.33333L16.665 8.3325V4.16583H13.8175L13.8035 4.20015C13.1762 5.60192 11.7972 6.59376 10.1791 6.66282L9.99833 6.66667C8.30275 6.66667 6.84371 5.65383 6.19321 4.20015L6.17837 4.16583H3.33171V8.3325L5.83066 8.33167L5.83087 15.8333H8.3317V17.5H4.99837C4.53813 17.5 4.16504 17.1269 4.16504 16.6667L4.16421 9.99917L2.49837 10C2.03813 10 1.66504 9.62692 1.66504 9.16667V3.33333C1.66504 2.8731 2.03813 2.5 2.49837 2.5H7.49837ZM10.5877 11.4941C11.2766 12.1831 11.9105 12.5 12.4983 12.5C12.8136 12.5 13.0652 12.4438 13.5291 12.27L13.8556 12.1429C14.7316 11.7925 15.1721 11.6667 15.8317 11.6667C16.8431 11.6667 17.814 12.1205 18.737 12.9828L18.921 13.1608L17.7424 14.3393C17.0535 13.6503 16.4196 13.3333 15.8317 13.3333C15.5165 13.3333 15.2649 13.3895 14.801 13.5633L14.4745 13.6904C13.5985 14.0408 13.158 14.1667 12.4983 14.1667C11.487 14.1667 10.5161 13.7128 9.59308 12.8505L9.40908 12.6726L10.5877 11.4941Z" fill="#E3E3E3"/>
</svg>
