<svg width="20" height="20" viewBox="0 0 20 20" fill="none" xmlns="http://www.w3.org/2000/svg">
<path d="M10.0003 18.3333C5.39795 18.3333 1.66699 14.6023 1.66699 9.99996C1.66699 5.39758 5.39795 1.66663 10.0003 1.66663C14.6027 1.66663 18.3337 5.39758 18.3337 9.99996C18.3337 14.6023 14.6027 18.3333 10.0003 18.3333ZM10.0003 16.6666C13.6822 16.6666 16.667 13.6819 16.667 9.99996C16.667 6.31806 13.6822 3.33329 10.0003 3.33329C6.31842 3.33329 3.33366 6.31806 3.33366 9.99996C3.33366 13.6819 6.31842 16.6666 10.0003 16.6666ZM9.16699 10.66C8.43116 10.3385 7.91699 9.60429 7.91699 8.74996C7.91699 7.59937 8.84974 6.66663 10.0003 6.66663C11.1509 6.66663 12.0837 7.59937 12.0837 8.74996C12.0837 9.60429 11.5695 10.3385 10.8337 10.66V13.3333H9.16699V10.66Z" fill="#E3E3E3"/>
</svg>
