<svg width="20" height="20" viewBox="0 0 20 20" fill="none" xmlns="http://www.w3.org/2000/svg">
<path d="M4.99837 2.5C7.90656 2.5 10.3177 4.62816 10.7593 7.41208C11.7386 6.43657 13.0897 5.83333 14.5817 5.83333H18.3317V7.91667C18.3317 10.9082 15.9066 13.3333 12.915 13.3333H10.8317V17.5H9.165V10.8333H7.49837C4.27671 10.8333 1.66504 8.22166 1.66504 5V2.5H4.99837ZM16.665 7.5H14.5817C12.5107 7.5 10.8317 9.17892 10.8317 11.25V11.6667H12.915C14.9861 11.6667 16.665 9.98775 16.665 7.91667V7.5ZM4.99837 4.16667H3.33171V5C3.33171 7.30118 5.19718 9.16667 7.49837 9.16667H9.165V8.33333C9.165 6.03215 7.29956 4.16667 4.99837 4.16667Z" fill="#E3E3E3"/>
</svg>
