<svg width="20" height="20" viewBox="0 0 20 20" fill="none" xmlns="http://www.w3.org/2000/svg">
<path d="M10.0003 16.6666C6.31842 16.6666 3.33366 13.6819 3.33366 9.99996C3.33366 6.31806 6.31842 3.33329 10.0003 3.33329C13.6822 3.33329 16.667 6.31806 16.667 9.99996C16.667 13.6819 13.6822 16.6666 10.0003 16.6666ZM10.0003 18.3333C14.6027 18.3333 18.3337 14.6023 18.3337 9.99996C18.3337 5.39758 14.6027 1.66663 10.0003 1.66663C5.39795 1.66663 1.66699 5.39758 1.66699 9.99996C1.66699 14.6023 5.39795 18.3333 10.0003 18.3333ZM11.667 5.83329C11.667 6.29353 11.2939 6.66663 10.8337 6.66663C10.3734 6.66663 10.0003 6.29353 10.0003 5.83329C10.0003 5.37306 10.3734 4.99996 10.8337 4.99996C11.2939 4.99996 11.667 5.37306 11.667 5.83329ZM10.8337 9.16662C11.2939 9.16662 11.667 8.79354 11.667 8.33329C11.667 7.87305 11.2939 7.49996 10.8337 7.49996C10.3734 7.49996 10.0003 7.87305 10.0003 8.33329C10.0003 8.79354 10.3734 9.16662 10.8337 9.16662ZM14.167 9.99996C14.167 10.4602 13.7939 10.8333 13.3337 10.8333C12.8734 10.8333 12.5003 10.4602 12.5003 9.99996C12.5003 9.53971 12.8734 9.16662 13.3337 9.16662C13.7939 9.16662 14.167 9.53971 14.167 9.99996ZM13.3337 8.33329C13.7939 8.33329 14.167 7.9602 14.167 7.49996C14.167 7.03972 13.7939 6.66663 13.3337 6.66663C12.8734 6.66663 12.5003 7.03972 12.5003 7.49996C12.5003 7.9602 12.8734 8.33329 13.3337 8.33329Z" fill="#E3E3E3"/>
</svg>
