<svg width="20" height="20" viewBox="0 0 20 20" fill="none" xmlns="http://www.w3.org/2000/svg">
<path d="M4.16667 2.5C3.24619 2.5 2.5 3.24619 2.5 4.16667V15.8333C2.5 16.7538 3.24619 17.5 4.16667 17.5H15.8333C16.7538 17.5 17.5 16.7538 17.5 15.8333V4.16667C17.5 3.24619 16.7538 2.5 15.8333 2.5H4.16667ZM7.5 7.91667C6.80964 7.91667 6.25 7.35702 6.25 6.66667C6.25 5.97631 6.80964 5.41667 7.5 5.41667C8.19036 5.41667 8.75 5.97631 8.75 6.66667C8.75 7.35702 8.19036 7.91667 7.5 7.91667ZM8.75 10C8.75 10.6903 8.19036 11.25 7.5 11.25C6.80964 11.25 6.25 10.6903 6.25 10C6.25 9.30967 6.80964 8.75 7.5 8.75C8.19036 8.75 8.75 9.30967 8.75 10ZM8.75 13.3333C8.75 14.0237 8.19036 14.5833 7.5 14.5833C6.80964 14.5833 6.25 14.0237 6.25 13.3333C6.25 12.643 6.80964 12.0833 7.5 12.0833C8.19036 12.0833 8.75 12.643 8.75 13.3333ZM12.5 7.91667C11.8097 7.91667 11.25 7.35702 11.25 6.66667C11.25 5.97631 11.8097 5.41667 12.5 5.41667C13.1903 5.41667 13.75 5.97631 13.75 6.66667C13.75 7.35702 13.1903 7.91667 12.5 7.91667ZM13.75 10C13.75 10.6903 13.1903 11.25 12.5 11.25C11.8097 11.25 11.25 10.6903 11.25 10C11.25 9.30967 11.8097 8.75 12.5 8.75C13.1903 8.75 13.75 9.30967 13.75 10ZM13.75 13.3333C13.75 14.0237 13.1903 14.5833 12.5 14.5833C11.8097 14.5833 11.25 14.0237 11.25 13.3333C11.25 12.643 11.8097 12.0833 12.5 12.0833C13.1903 12.0833 13.75 12.643 13.75 13.3333Z" fill="#E3E3E3"/>
</svg>
