<svg width="20" height="20" viewBox="0 0 20 20" fill="none" xmlns="http://www.w3.org/2000/svg">
<path d="M10.0003 1.66663C14.6027 1.66663 18.3337 5.39758 18.3337 9.99996C18.3337 14.6023 14.6027 18.3333 10.0003 18.3333C5.39795 18.3333 1.66699 14.6023 1.66699 9.99996C1.66699 5.39758 5.39795 1.66663 10.0003 1.66663ZM11.3916 13.3332H8.60824L7.4591 14.914L7.92066 16.3359C8.57507 16.5505 9.27416 16.6666 10.0003 16.6666C10.7265 16.6666 11.4256 16.5505 12.08 16.3359L12.5407 14.914L11.3916 13.3332ZM4.41161 9.05987L3.33551 9.84121L3.33366 9.99996C3.33366 11.4414 3.79111 12.776 4.56874 13.8664L6.16077 13.8665L7.26243 12.3499L6.40578 9.70821L4.41161 9.05987ZM15.5882 9.05987L13.5941 9.70821L12.7374 12.3499L13.8391 13.8665L15.4319 13.8664C16.2096 12.776 16.667 11.4414 16.667 9.99996L16.6645 9.84163L15.5882 9.05987ZM10.0003 7.94663L8.04699 9.36496L8.79366 11.6666H11.2062L11.9528 9.36496L10.0003 7.94663ZM11.9098 3.61078L10.8332 4.39407V6.49157L13.0782 8.1224L14.9441 7.51657L15.4059 6.09729C14.5562 4.92233 13.3327 4.03541 11.9098 3.61078ZM8.08997 3.61103C6.66717 4.03585 5.44379 4.92298 4.59417 6.09811L5.05577 7.51657L6.92161 8.1224L9.16657 6.49157V4.39407L8.08997 3.61103Z" fill="#E3E3E3"/>
</svg>
