<svg width="20" height="20" viewBox="0 0 20 20" fill="none" xmlns="http://www.w3.org/2000/svg">
<path d="M16.3012 10.082L17.5775 12.2917C18.3829 13.6867 17.9049 15.4705 16.5099 16.276C16.0665 16.532 15.5636 16.6667 15.0516 16.6667L13.3331 16.6662V18.3334L9.16641 15.4167L13.3331 12.5V14.1662L15.0516 14.1667C15.1247 14.1667 15.1966 14.1475 15.2599 14.1109C15.4371 14.0086 15.5107 13.7959 15.4441 13.61L15.4124 13.5417L14.1362 11.332L16.3012 10.082ZM6.44713 7.82002L6.88971 12.8868L5.44675 12.0537L4.58709 13.5417C4.55052 13.605 4.53127 13.6769 4.53127 13.75C4.53127 13.9546 4.67866 14.1247 4.87303 14.16L4.94793 14.1667L7.49965 14.1664V16.6663L4.94793 16.6667C3.3371 16.6667 2.03127 15.3609 2.03127 13.75C2.03127 13.238 2.16603 12.7351 2.42202 12.2917L3.28168 10.8037L1.83789 9.97012L6.44713 7.82002ZM11.4581 2.47413C11.9015 2.73013 12.2697 3.09832 12.5257 3.54171L13.3845 5.0302L14.8282 4.19662L14.3857 9.26337L9.77649 7.11328L11.2194 6.2802L10.3606 4.79171C10.324 4.72837 10.2714 4.67577 10.2081 4.63919C10.0309 4.53692 9.80991 4.57951 9.68216 4.7302L9.63891 4.79171L8.36332 7.0017L6.19832 5.75176L7.47384 3.54171C8.27926 2.14668 10.0631 1.66872 11.4581 2.47413Z" fill="#E3E3E3"/>
</svg>
