<svg width="20" height="20" viewBox="0 0 20 20" fill="none" xmlns="http://www.w3.org/2000/svg">
<path d="M10.0003 13.2631C9.90207 12.8892 9.67499 12.5545 9.34882 12.3245C8.85499 11.9763 8.21142 11.9226 7.66675 12.1842C7.25275 12.383 6.77172 12.5 6.25032 12.5C4.48645 12.5 3.33366 11.2348 3.33366 10C3.33366 9.11687 3.76277 8.23735 4.67815 7.25808C5.62226 6.2481 6.89006 5.33257 8.24897 4.35314C8.82649 3.93691 9.43316 3.49967 10.0004 3.04782C10.5677 3.49965 11.1743 3.93686 11.7517 4.35307C13.1107 5.33252 14.3784 6.24804 15.3225 7.25803C16.2379 8.2373 16.667 9.11687 16.667 10C16.667 11.2348 15.5142 12.5 13.7503 12.5C13.2289 12.5 12.7479 12.383 12.3339 12.1842C11.7892 11.9226 11.1457 11.9763 10.6518 12.3245C10.3257 12.5545 10.0986 12.8892 10.0003 13.2631ZM10.0004 0.833374C9.27441 1.55934 8.26737 2.28531 7.20369 3.05208C4.60438 4.92585 1.66699 7.04332 1.66699 10C1.66699 12.3012 3.71902 14.1667 6.25032 14.1667C7.02247 14.1667 7.75001 13.9931 8.38832 13.6865C8.31191 14.409 8.15685 15.0248 7.9417 15.6172C7.75877 16.1209 7.53242 16.6076 7.274 17.1287C6.99878 17.6837 7.39587 18.3334 8.01535 18.3334H11.9853C12.6047 18.3334 13.0018 17.6837 12.7267 17.1287C12.4682 16.6076 12.2419 16.1209 12.059 15.6172C11.8438 15.0248 11.6887 14.409 11.6123 13.6865C12.2507 13.9931 12.9782 14.1667 13.7503 14.1667C16.2817 14.1667 18.3337 12.3012 18.3337 10C18.3337 7.04329 15.3963 4.92581 12.7971 3.05202C11.7334 2.28527 10.7264 1.55932 10.0004 0.833374ZM10.0003 14.2282C10.1322 15.1536 10.3765 15.9344 10.6792 16.6667H9.32149C9.62416 15.9344 9.86841 15.1536 10.0003 14.2282Z" fill="#E3E3E3"/>
</svg>
