<svg width="20" height="20" viewBox="0 0 20 20" fill="none" xmlns="http://www.w3.org/2000/svg">
<path d="M15 5.83337C15 6.05204 14.986 6.26742 14.9587 6.47868C16.476 7.33718 17.5 8.96571 17.5 10.8334C17.5 13.5948 15.2614 15.8334 12.5 15.8334C11.9156 15.8334 11.3547 15.7331 10.8333 15.5489V18.3334H9.16667V15.3336C8.54158 15.6531 7.83352 15.8334 7.08333 15.8334C4.55202 15.8334 2.5 13.7814 2.5 11.25C2.5 10.0395 2.96927 8.93862 3.73581 8.11936C4.06438 9.01937 4.5812 9.82871 5.23813 10.4991L6.42853 9.33262C5.82559 8.71729 5.38087 7.9481 5.15883 7.08911C5.05506 6.68788 5 6.26704 5 5.83337C5 3.07195 7.23857 0.833374 10 0.833374C12.7614 0.833374 15 3.07195 15 5.83337Z" fill="#E3E3E3"/>
</svg>
