<svg width="20" height="20" viewBox="0 0 20 20" fill="none" xmlns="http://www.w3.org/2000/svg">
<path d="M4.12593 5.78536C5.90036 5.09848 8.12548 5 9.99968 5C11.8738 5 14.099 5.09848 15.8734 5.78536C16.7743 6.13412 17.6075 6.65212 18.2149 7.42968C18.8309 8.21813 19.1663 9.21175 19.1663 10.4167C19.1663 11.6418 18.7289 12.8612 18.0168 13.7853C17.3071 14.7063 16.2524 15.4167 14.9997 15.4167C13.8123 15.4167 12.7861 14.7578 12.0206 14.2663C11.4326 13.8888 10.7358 13.3333 9.99968 13.3333C9.26359 13.3333 8.56668 13.8888 7.97876 14.2663C7.21323 14.7578 6.18706 15.4167 4.99967 15.4167C3.7469 15.4167 2.69224 14.7063 1.98257 13.7853C1.27042 12.8612 0.833008 11.6418 0.833008 10.4167C0.833008 9.21175 1.16842 8.21813 1.78439 7.42968C2.39186 6.65212 3.22497 6.13412 4.12593 5.78536Z" fill="#E3E3E3"/>
</svg>
