<svg width="20" height="20" viewBox="0 0 20 20" fill="none" xmlns="http://www.w3.org/2000/svg">
<path d="M8.59417 9.63802L15.2108 3.02136L16.9787 4.78913L15.8002 5.96764L17.5679 7.7354L14.6216 10.6817L12.8538 8.91394L10.3619 11.4059C11.1818 12.9766 10.9322 14.9604 9.61292 16.2796C7.98576 17.9068 5.34758 17.9068 3.72039 16.2796C2.0932 14.6524 2.0932 12.0143 3.72039 10.387C5.03963 9.06785 7.02341 8.81819 8.59417 9.63802ZM7.84518 14.5119C8.49609 13.8609 8.49609 12.8057 7.84518 12.1549C7.1943 11.5039 6.13904 11.5039 5.48816 12.1549C4.83729 12.8057 4.83729 13.8609 5.48816 14.5119C6.13904 15.1627 7.1943 15.1627 7.84518 14.5119Z" fill="#E3E3E3"/>
</svg>
