<svg width="20" height="20" viewBox="0 0 20 20" fill="none" xmlns="http://www.w3.org/2000/svg">
<path d="M3.33333 2.5C2.8731 2.5 2.5 2.8731 2.5 3.33333V16.6667C2.5 17.1269 2.8731 17.5 3.33333 17.5H11.6667C12.1269 17.5 12.5 17.1269 12.5 16.6667V12.7478L13.3329 16.6663C13.4286 17.1165 13.8712 17.4039 14.3213 17.3082L17.5818 16.6152C18.032 16.5195 18.3193 16.077 18.2237 15.6268L15.798 4.21508C15.7023 3.7649 15.2598 3.47753 14.8097 3.57322L12.4939 4.06544C12.444 3.65294 12.0927 3.33333 11.6667 3.33333H8.33333C8.33333 2.8731 7.96023 2.5 7.5 2.5H3.33333ZM8.33333 5H10.8333V11.6667H8.33333V5ZM8.33333 15.8333V13.3333H10.8333V15.8333H8.33333ZM6.66667 4.16667V12.5H4.16667V4.16667H6.66667ZM6.66667 14.1667V15.8333H4.16667V14.1667H6.66667ZM14.4434 13.8747L16.0737 13.5282L16.4202 15.1582L14.7899 15.5047L14.4434 13.8747ZM14.0969 12.2444L12.7108 5.72324L14.341 5.37673L15.7272 11.8979L14.0969 12.2444Z" fill="#E3E3E3"/>
</svg>
