<svg width="20" height="20" viewBox="0 0 20 20" fill="none" xmlns="http://www.w3.org/2000/svg">
<path d="M15.8333 4.16667V15.8333H4.16667V4.16667H15.8333ZM4.16667 2.5C3.24619 2.5 2.5 3.24619 2.5 4.16667V15.8333C2.5 16.7538 3.24619 17.5 4.16667 17.5H15.8333C16.7538 17.5 17.5 16.7538 17.5 15.8333V4.16667C17.5 3.24619 16.7538 2.5 15.8333 2.5H4.16667ZM13.75 12.5C13.75 13.1903 13.1903 13.75 12.5 13.75C11.8097 13.75 11.25 13.1903 11.25 12.5C11.25 11.8097 11.8097 11.25 12.5 11.25C13.1903 11.25 13.75 11.8097 13.75 12.5ZM7.5 13.75C8.19036 13.75 8.75 13.1903 8.75 12.5C8.75 11.8097 8.19036 11.25 7.5 11.25C6.80964 11.25 6.25 11.8097 6.25 12.5C6.25 13.1903 6.80964 13.75 7.5 13.75ZM8.75 7.5C8.75 8.19036 8.19036 8.75 7.5 8.75C6.80964 8.75 6.25 8.19036 6.25 7.5C6.25 6.80964 6.80964 6.25 7.5 6.25C8.19036 6.25 8.75 6.80964 8.75 7.5ZM12.5 8.75C13.1903 8.75 13.75 8.19036 13.75 7.5C13.75 6.80964 13.1903 6.25 12.5 6.25C11.8097 6.25 11.25 6.80964 11.25 7.5C11.25 8.19036 11.8097 8.75 12.5 8.75Z" fill="#E3E3E3"/>
</svg>
