<svg width="20" height="20" viewBox="0 0 20 20" fill="none" xmlns="http://www.w3.org/2000/svg">
<path d="M6.86375 6.21703C7.14546 7.11706 7.68855 7.96017 8.21963 8.75304L8.34391 8.93821C8.47141 9.12804 8.59699 9.31487 8.71674 9.49896C8.71674 9.49896 8.25297 9.14154 8.04377 8.97779C7.10613 8.24405 6.43917 7.72212 5.59568 7.55623C5.40765 7.51925 5.21085 7.49996 5.00032 7.49996C3.15938 7.49996 1.66699 8.99237 1.66699 10.8333C1.66699 12.6742 3.15938 14.1666 5.00032 14.1666C5.5639 14.1666 6.12748 14.0141 6.69931 13.767C7.2688 13.5208 7.84647 13.1807 8.44049 12.8037C8.42724 13.6135 8.32961 14.2869 8.16576 14.9052C7.96057 15.6795 7.65148 16.3674 7.274 17.1286C6.99878 17.6836 7.39587 18.3333 8.01535 18.3333H11.9853C12.6047 18.3333 13.0018 17.6836 12.7267 17.1286C12.3492 16.3674 12.0401 15.6795 11.8349 14.9052C11.6711 14.2869 11.5734 13.6135 11.5602 12.8037C12.1542 13.1807 12.7318 13.5208 13.3013 13.767C13.8732 14.0142 14.4367 14.1666 15.0003 14.1666C16.8412 14.1666 18.3337 12.6742 18.3337 10.8333C18.3337 8.99237 16.8412 7.49996 15.0003 7.49996C14.778 7.49996 14.571 7.52147 14.3735 7.56261C13.5447 7.73519 12.8828 8.25322 11.9569 8.97779C11.7477 9.14154 11.2839 9.49896 11.2839 9.49896C11.3487 9.39921 11.4136 9.30004 11.478 9.20138L11.4792 9.19954C11.5788 9.04712 11.6779 8.89546 11.775 8.74538C12.3368 7.87661 12.8417 7.04505 13.1162 6.2259C13.2539 5.81517 13.3337 5.40757 13.3337 4.99996C13.3337 3.15901 11.8412 1.66663 10.0003 1.66663C8.15937 1.66663 6.66699 3.15901 6.66699 4.99996C6.66699 5.41697 6.74026 5.82247 6.86375 6.21703ZM11.2157 6.43391C10.9235 7.00168 10.542 7.5861 10.0855 8.28544L9.99999 8.41637C9.89066 8.25073 9.78524 8.09379 9.68332 7.94227C9.36607 7.47018 9.08407 7.05068 8.83216 6.58349C8.49107 5.95103 8.33366 5.44474 8.33366 4.99996C8.33366 4.07948 9.07982 3.33329 10.0003 3.33329C10.9208 3.33329 11.667 4.07948 11.667 4.99996C11.667 5.34481 11.5447 5.79458 11.2157 6.43391ZM8.74682 11.1654C9.14374 11.1582 9.53741 11.0097 9.84732 10.7235C9.90249 10.6726 9.95349 10.6188 10.0003 10.5623C10.0472 10.6188 10.0982 10.6726 10.1533 10.7235C10.4632 11.0097 10.8569 11.1582 11.2538 11.1654C11.0781 11.1982 10.9062 11.2596 10.7453 11.3498C10.3968 11.545 10.1366 11.8548 10.0003 12.2165C9.86407 11.8548 9.60382 11.545 9.25532 11.3498C9.09441 11.2596 8.92257 11.1982 8.74682 11.1654ZM9.32141 16.6666C9.62757 15.926 9.86924 15.1485 10.0003 14.2271C10.1314 15.1485 10.3731 15.926 10.6792 16.6666H9.32141ZM11.5909 11.1373C12.0447 11.0525 12.4187 10.7483 12.7757 10.4579C12.8457 10.4009 12.915 10.3445 12.9842 10.2904C14.2175 9.32529 14.5127 9.16662 15.0005 9.16662C15.921 9.16662 16.6672 9.91279 16.6672 10.8333C16.6672 11.7538 15.921 12.5 15.0005 12.5C14.4179 12.5 13.6721 12.17 12.4535 11.3965C12.1904 11.2295 11.8915 11.1428 11.5909 11.1373ZM5.00032 9.16662C5.48821 9.16662 5.78337 9.32529 7.01663 10.2904C7.08582 10.3445 7.15517 10.4009 7.22518 10.4579C7.58218 10.7483 7.95614 11.0525 8.40991 11.1373C8.10937 11.1428 7.81045 11.2295 7.54734 11.3965C6.32881 12.17 5.58292 12.5 5.00032 12.5C4.07985 12.5 3.33366 11.7538 3.33366 10.8333C3.33366 9.91279 4.07985 9.16662 5.00032 9.16662Z" fill="#E3E3E3"/>
</svg>
