<svg width="20" height="20" viewBox="0 0 20 20" fill="none" xmlns="http://www.w3.org/2000/svg">
<path d="M4.99837 1.66663C7.23944 1.66663 9.18533 2.9304 10.1622 4.78416C11.1433 3.40206 12.7572 2.49996 14.5817 2.49996H17.4983V4.58329C17.4983 7.57483 15.0732 9.99996 12.0817 9.99996H10.8317V10.8333H14.9983V16.6666C14.9983 17.5871 14.2522 18.3333 13.3317 18.3333H6.66504C5.74456 18.3333 4.99837 17.5871 4.99837 16.6666V10.8333H9.165V9.16662H7.49837C4.27671 9.16662 1.66504 6.55495 1.66504 3.33329V1.66663H4.99837ZM13.3317 12.5H6.66504V16.6666H13.3317V12.5ZM15.8317 4.16663H14.5817C12.5107 4.16663 10.8317 5.84556 10.8317 7.91663V8.33329H12.0817C14.1527 8.33329 15.8317 6.65436 15.8317 4.58329V4.16663ZM4.99837 3.33329H3.33171C3.33171 5.63448 5.19718 7.49996 7.49837 7.49996H9.165C9.165 5.19878 7.29956 3.33329 4.99837 3.33329Z" fill="#E3E3E3"/>
</svg>
