<svg width="20" height="20" viewBox="0 0 20 20" fill="none" xmlns="http://www.w3.org/2000/svg">
<path d="M12.0949 4.16674L14.2671 1.99457C14.5925 1.66913 15.1202 1.66913 15.4456 1.99457L18.9812 5.5301C19.3066 5.85554 19.3066 6.38318 18.9812 6.70861L15.8327 9.85709V17.5001C15.8327 17.9603 15.4596 18.3334 14.9993 18.3334H4.99933C4.53909 18.3334 4.16599 17.9603 4.16599 17.5001V9.85709L1.01752 6.70861C0.692078 6.38318 0.692078 5.85554 1.01752 5.5301L4.55305 1.99457C4.87848 1.66913 5.40613 1.66913 5.73156 1.99457L7.90373 4.16674H12.0949ZM12.7852 5.8334H7.21338L5.1423 3.76234L2.78528 6.11936L5.83266 9.16675V16.6667H14.166V9.16675L17.2134 6.11936L14.8563 3.76234L12.7852 5.8334Z" fill="#E3E3E3"/>
</svg>
