<svg width="20" height="20" viewBox="0 0 20 20" fill="none" xmlns="http://www.w3.org/2000/svg">
<path d="M10.8321 1.66663L10.8316 2.73163L14.9988 4.12155L18.0258 3.11253L18.5528 4.69368L16.0266 5.53579L18.606 12.629C17.6961 13.5767 16.4163 14.1666 14.9988 14.1666C13.5813 14.1666 12.3015 13.5767 11.3916 12.629L13.9699 5.53579L10.8316 4.48913V15.8333H14.1654V17.5H5.83212V15.8333H9.16492V4.48913L6.0266 5.53579L8.606 12.629C7.69607 13.5767 6.41631 14.1666 4.99879 14.1666C3.58125 14.1666 2.30149 13.5767 1.3916 12.629L3.96993 5.53579L1.44469 4.69368L1.97174 3.11253L4.99879 4.12155L9.16492 2.73163L9.16542 1.66663H10.8321ZM14.9988 7.58552L13.8174 10.8333H16.1799L14.9988 7.58552ZM4.99879 7.58552L3.81744 10.8333H6.17993L4.99879 7.58552Z" fill="#E3E3E3"/>
</svg>
