<svg width="20" height="20" viewBox="0 0 20 20" fill="none" xmlns="http://www.w3.org/2000/svg">
<path d="M5.87312 11.1718L8.81893 14.1184L7.64159 15.2965L8.82043 16.4759L7.64188 17.6544L5.5798 15.5917L3.22246 17.949L2.04395 16.7705L4.40128 14.4132L2.33858 12.3511L3.51709 11.1726L4.69532 12.3502L5.87312 11.1718ZM2.4989 2.5L5.45389 2.50279L15.3017 12.3506L16.4807 11.1726L17.6593 12.3511L15.5968 14.4135L17.9538 16.7705L16.7753 17.949L14.4183 15.592L12.3559 17.6544L11.1774 16.4759L12.3554 15.2968L2.50119 5.44265L2.4989 2.5ZM14.5466 2.50008L17.4989 2.50279L17.5005 5.43873L14.1231 8.81508L11.1764 5.86925L14.5466 2.50008Z" fill="#E3E3E3"/>
</svg>
