<svg width="20" height="20" viewBox="0 0 20 20" fill="none" xmlns="http://www.w3.org/2000/svg">
<path d="M4.99967 7.50004C3.61897 7.50004 2.49967 8.61929 2.49967 10C2.49967 11.3808 3.61897 12.5 4.99967 12.5C6.38038 12.5 7.49968 11.3808 7.49968 10C7.49968 9.46912 7.33509 8.97904 7.05416 8.57504C6.6012 7.92363 5.84983 7.50004 4.99967 7.50004ZM0.833008 10C0.833008 7.69886 2.69849 5.83337 4.99967 5.83337C6.01128 5.83337 6.93852 6.19427 7.6597 6.79296C8.26106 6.20007 9.08718 5.83337 9.99968 5.83337C10.9122 5.83337 11.7383 6.20007 12.3397 6.79296C13.0608 6.19427 13.9881 5.83337 14.9997 5.83337C17.3008 5.83337 19.1663 7.69886 19.1663 10C19.1663 12.3012 17.3008 14.1667 14.9997 14.1667C12.6985 14.1667 10.833 12.3012 10.833 10C10.833 9.31962 10.9967 8.67587 11.2868 8.10758C10.9805 7.73584 10.5171 7.50004 9.99968 7.50004C9.48226 7.50004 9.01884 7.73584 8.71259 8.10758C9.00268 8.67587 9.16634 9.31962 9.16634 10C9.16634 12.3012 7.30086 14.1667 4.99967 14.1667C2.69849 14.1667 0.833008 12.3012 0.833008 10ZM14.9997 7.50004C14.1495 7.50004 13.3982 7.92363 12.9452 8.57504C12.6643 8.97904 12.4997 9.46912 12.4997 10C12.4997 11.3808 13.6189 12.5 14.9997 12.5C16.3804 12.5 17.4997 11.3808 17.4997 10C17.4997 8.61929 16.3804 7.50004 14.9997 7.50004Z" fill="#E3E3E3"/>
</svg>
