<svg width="20" height="20" viewBox="0 0 20 20" fill="none" xmlns="http://www.w3.org/2000/svg">
<path d="M10.7638 10.8333C10.3672 13.1981 8.31051 15 5.83301 15C3.07158 15 0.833008 12.7614 0.833008 10C0.833008 7.23857 3.07158 5 5.83301 5C8.31051 5 10.3672 6.80191 10.7638 9.16667H19.1663V10.8333H17.4997V14.1667H15.833V10.8333H14.1663V14.1667H12.4997V10.8333H10.7638ZM5.83301 13.3333C7.67396 13.3333 9.16634 11.8409 9.16634 10C9.16634 8.15905 7.67396 6.66667 5.83301 6.66667C3.99206 6.66667 2.49967 8.15905 2.49967 10C2.49967 11.8409 3.99206 13.3333 5.83301 13.3333Z" fill="#E3E3E3"/>
</svg>
