<svg width="20" height="20" viewBox="0 0 20 20" fill="none" xmlns="http://www.w3.org/2000/svg">
<path d="M3.33366 9.99996C3.33366 6.31806 6.31842 3.33329 10.0003 3.33329C13.6822 3.33329 16.667 6.31806 16.667 9.99996C16.667 13.6819 13.6822 16.6666 10.0003 16.6666C6.31842 16.6666 3.33366 13.6819 3.33366 9.99996ZM10.0003 1.66663C5.39795 1.66663 1.66699 5.39758 1.66699 9.99996C1.66699 14.6023 5.39795 18.3333 10.0003 18.3333C14.6027 18.3333 18.3337 14.6023 18.3337 9.99996C18.3337 5.39758 14.6027 1.66663 10.0003 1.66663ZM10.0003 7.08329C10.6907 7.08329 11.2503 6.52365 11.2503 5.83329C11.2503 5.14293 10.6907 4.58329 10.0003 4.58329C9.30999 4.58329 8.75032 5.14293 8.75032 5.83329C8.75032 6.52365 9.30999 7.08329 10.0003 7.08329ZM10.0003 7.91652C8.70257 7.91652 7.35158 7.61917 6.14287 7.1427L5.52442 8.69037C6.42098 9.04821 7.38141 9.28896 8.33357 9.44171C8.33357 10.167 8.40441 10.9115 8.06963 11.5811L6.75487 14.2106L8.24559 14.956L9.53957 12.368C9.62682 12.1935 9.80516 12.0833 10.0002 12.0833C10.1953 12.0833 10.3737 12.1935 10.4609 12.368L11.7549 14.956L13.2456 14.2106L11.9308 11.5811C11.5961 10.9115 11.6669 10.167 11.6669 9.44171C12.6177 9.28921 13.5685 9.04446 14.4662 8.69429C14.4872 8.68604 13.8579 7.14261 13.8557 7.1435C12.6443 7.6158 11.2999 7.91652 10.0003 7.91652Z" fill="#E3E3E3"/>
</svg>
