<svg width="20" height="20" viewBox="0 0 20 20" fill="none" xmlns="http://www.w3.org/2000/svg">
<path d="M6.66563 8.61771L6.66526 10.446C5.66898 11.0223 4.9987 12.0995 4.9987 13.3333C4.9987 15.1742 6.49108 16.6666 8.33203 16.6666C9.56582 16.6666 10.643 15.9964 11.2193 15L13.0474 15.0003C12.3609 16.9421 10.5089 18.3333 8.33203 18.3333C5.57061 18.3333 3.33203 16.0947 3.33203 13.3333C3.33203 11.1561 4.72351 9.30404 6.66563 8.61771ZM9.99866 14.1666C8.61799 14.1666 7.4987 13.0474 7.4987 11.6666V8.33329C7.4987 7.46297 7.94342 6.69652 8.61799 6.2488C7.94342 5.8034 7.4987 5.03695 7.4987 4.16663C7.4987 2.78592 8.61799 1.66663 9.99866 1.66663C11.3794 1.66663 12.4987 2.78592 12.4987 4.16663C12.4987 5.03695 12.054 5.8034 11.3793 6.25112C12.054 6.69652 12.4987 7.46297 12.4987 8.33329V12.4991L13.6936 12.5C14.2339 12.5 14.7377 12.7617 15.049 13.1968L15.1227 13.3091L17.3799 17.0712L15.9508 17.9287L13.6936 14.1666L12.4987 14.1658L9.99866 14.1666ZM9.99866 7.49996C9.53849 7.49996 9.16532 7.87306 9.16532 8.33329V11.6666C9.16532 12.1269 9.53849 12.5 9.99866 12.5H10.8312L10.832 8.33329C10.832 7.87306 10.4589 7.49996 9.99866 7.49996ZM9.99866 3.33329C9.53849 3.33329 9.16532 3.70639 9.16532 4.16663C9.16532 4.62686 9.53849 4.99996 9.99866 4.99996C10.4589 4.99996 10.832 4.62686 10.832 4.16663C10.832 3.70639 10.4589 3.33329 9.99866 3.33329Z" fill="#E3E3E3"/>
</svg>
