<svg width="20" height="20" viewBox="0 0 20 20" fill="none" xmlns="http://www.w3.org/2000/svg">
<path d="M3.33333 2.5C2.8731 2.5 2.5 2.8731 2.5 3.33333V16.6667C2.5 17.1269 2.8731 17.5 3.33333 17.5H11.6667C12.1269 17.5 12.5 17.1269 12.5 16.6667V8.91442L14.1846 16.8397C14.2803 17.2899 14.7228 17.5772 15.1729 17.4816L17.6183 16.9617C18.0685 16.8661 18.3558 16.4236 18.2602 15.9734L15.8346 4.56168C15.7388 4.1115 15.2963 3.82413 14.8462 3.91982L12.5 4.41851V4.16667C12.5 3.70643 12.1269 3.33333 11.6667 3.33333H7.5C7.5 2.8731 7.1269 2.5 6.66667 2.5H3.33333ZM7.5 5H10.8333V11.6667H7.5V5ZM10.8333 13.3333V15.8333H7.5V13.3333H10.8333ZM5.83333 14.1667V15.8333H4.16667V14.1667H5.83333ZM15.6416 15.6781L15.2951 14.0481L16.1103 13.8748L16.4567 15.5048L15.6416 15.6781Z" fill="#E3E3E3"/>
</svg>
