<svg width="20" height="20" viewBox="0 0 20 20" fill="none" xmlns="http://www.w3.org/2000/svg">
<path d="M13.333 2.5H6.66634C4.82539 2.5 3.33301 3.99238 3.33301 5.83333V6.66667C5.63419 6.66667 7.49968 8.53217 7.49968 10.8333H12.4997C12.4997 8.53217 14.3652 6.66667 16.6663 6.66667V5.83333C16.6663 3.99238 15.1739 2.5 13.333 2.5ZM16.6663 8.33333C15.2856 8.33333 14.1663 9.45258 14.1663 10.8333V13.3333H12.4997V12.5H7.49968V13.3333H5.83301V10.8333C5.83301 9.45258 4.71372 8.33333 3.33301 8.33333C1.9523 8.33333 0.833008 9.45258 0.833008 10.8333C0.833008 11.9218 1.52868 12.8479 2.49967 13.1911V17.5H4.16634V16.6667H15.833V17.5H17.4997V13.1911C18.4707 12.8479 19.1663 11.9218 19.1663 10.8333C19.1663 9.45258 18.0471 8.33333 16.6663 8.33333Z" fill="#E3E3E3"/>
</svg>
