<svg width="20" height="20" viewBox="0 0 20 20" fill="none" xmlns="http://www.w3.org/2000/svg">
<path d="M9.99866 1.66663C11.8397 1.66663 13.332 3.15901 13.332 4.99996V12.5H14.1653C14.6233 12.5 14.9987 12.125 14.9987 11.6666V6.66663C14.9987 6.20639 15.3718 5.83329 15.832 5.83329C16.2922 5.83329 16.6653 6.20639 16.6653 6.66663V11.6666C16.6653 13.0474 15.5461 14.1666 14.1653 14.1666H13.332V16.6666H14.9987V18.3333H4.9987V16.6666H6.66536V11.6666H5.83203C4.45131 11.6666 3.33203 10.5474 3.33203 9.16662V7.49996C3.33203 7.03973 3.70512 6.66663 4.16536 6.66663C4.6256 6.66663 4.9987 7.03973 4.9987 7.49996V9.16662C4.9987 9.62496 5.3737 9.99996 5.83203 9.99996C6.13758 9.99996 6.41536 9.99996 6.66536 9.99996V4.99996C6.66536 3.15901 8.15775 1.66663 9.99866 1.66663Z" fill="#E3E3E3"/>
</svg>
