<svg width="20" height="20" viewBox="0 0 20 20" fill="none" xmlns="http://www.w3.org/2000/svg">
<path d="M11.7678 8.23223C15.3476 11.812 17.4581 15.5055 16.4818 16.4819C16.0859 16.8777 15.2432 16.766 14.1425 16.2546C11.455 18.0376 7.87264 17.9061 5.31813 15.86L5.28596 15.8925L4.10744 14.714L4.13945 14.6812C2.09385 12.1268 1.96253 8.54477 3.74547 5.8584C3.23396 4.75666 3.12232 3.91406 3.51819 3.51819C4.45799 2.57839 7.91554 4.4989 11.3658 7.8369L11.7678 8.23223ZM10.5893 9.41077C9.01917 7.84066 7.39136 6.53498 6.02984 5.72464L5.87521 5.87521C3.79743 7.953 3.61476 11.2083 5.32722 13.4931L6.86619 11.9552C6.71774 11.3992 6.8616 10.7814 7.2978 10.3452C7.94868 9.69427 9.00392 9.69427 9.65484 10.3452C10.3057 10.996 10.3057 12.0514 9.65484 12.7022C9.21884 13.1382 8.6015 13.2821 8.04573 13.134L6.50624 14.6723C8.79109 16.3853 12.0468 16.2028 14.1248 14.1248L14.2738 13.9686L14.23 13.8945C13.4168 12.5485 12.1303 10.9519 10.5893 9.41077ZM16.4818 3.51819C17.1327 4.16906 17.1327 5.22434 16.4818 5.87521C16.4378 5.91918 16.392 5.96019 16.3446 5.99821C17.6714 8.09589 17.8556 10.7102 16.8967 12.9522C16.5828 12.3387 16.1956 11.6931 15.7416 11.0307C16.0663 9.21636 15.5272 7.27759 14.1248 5.87521C12.7224 4.47283 10.7837 3.93376 8.96892 4.258C8.30638 3.80409 7.66093 3.41693 7.04776 3.10375C9.28984 2.14448 11.9041 2.32858 14.0033 3.65581C14.0398 3.60798 14.0808 3.56216 14.1248 3.51819C14.7757 2.86731 15.8309 2.86731 16.4818 3.51819Z" fill="#E3E3E3"/>
</svg>
