<svg width="20" height="20" viewBox="0 0 20 20" fill="none" xmlns="http://www.w3.org/2000/svg">
<path d="M10 0.833252L16.8474 2.3549C17.2287 2.43964 17.5 2.77781 17.5 3.16839V11.4907C17.5 13.1624 16.6645 14.7236 15.2735 15.6509L10 19.1666L4.7265 15.6509C3.33551 14.7236 2.5 13.1624 2.5 11.4907V3.16839C2.5 2.77781 2.77128 2.43964 3.15256 2.3549L10 0.833252ZM10 2.54058L4.16667 3.83687V11.4907C4.16667 12.6052 4.72367 13.6459 5.651 14.2642L10 17.1635L14.349 14.2642C15.2763 13.6459 15.8333 12.6052 15.8333 11.4907V3.83687L10 2.54058ZM13.7103 6.85144L14.8888 8.02995L9.5855 13.3333L6.04999 9.79775L7.22851 8.61917L9.58492 10.9757L13.7103 6.85144Z" fill="#E3E3E3"/>
</svg>
