<svg width="20" height="20" viewBox="0 0 20 20" fill="none" xmlns="http://www.w3.org/2000/svg">
<path d="M3.33268 6.66663H16.666V17.5C16.666 17.9602 16.2929 18.3333 15.8327 18.3333H4.16602C3.70578 18.3333 3.33268 17.9602 3.33268 17.5V6.66663ZM4.99935 8.33329V16.6666H14.9993V8.33329H4.99935ZM7.49935 9.99996H9.16601V15H7.49935V9.99996ZM10.8327 9.99996H12.4993V15H10.8327V9.99996ZM5.83268 4.16663V2.49996C5.83268 2.03973 6.20578 1.66663 6.66601 1.66663H13.3327C13.7929 1.66663 14.166 2.03973 14.166 2.49996V4.16663H18.3327V5.83329H1.66602V4.16663H5.83268ZM7.49935 3.33329V4.16663H12.4993V3.33329H7.49935Z" fill="#E3E3E3"/>
</svg>
