<svg width="20" height="20" viewBox="0 0 20 20" fill="none" xmlns="http://www.w3.org/2000/svg">
<path d="M5.91224 4.73337L15.2669 14.088C16.145 12.9588 16.667 11.5409 16.667 9.99996C16.667 6.31806 13.6822 3.33329 10.0003 3.33329C8.45941 3.33329 7.04148 3.85533 5.91224 4.73337ZM14.0884 15.2665L4.73373 5.91188C3.85569 7.04112 3.33366 8.45904 3.33366 9.99996C3.33366 13.6819 6.31842 16.6666 10.0003 16.6666C11.5412 16.6666 12.9592 16.1446 14.0884 15.2665ZM4.10777 4.1074C5.61489 2.60028 7.69937 1.66663 10.0003 1.66663C14.6027 1.66663 18.3337 5.39758 18.3337 9.99996C18.3337 12.3009 17.4 14.3854 15.8929 15.8925C14.3857 17.3996 12.3012 18.3333 10.0003 18.3333C5.39795 18.3333 1.66699 14.6023 1.66699 9.99996C1.66699 7.699 2.60064 5.61453 4.10777 4.1074Z" fill="#E3E3E3"/>
</svg>
