<svg width="20" height="20" viewBox="0 0 20 20" fill="none" xmlns="http://www.w3.org/2000/svg">
<path d="M5.62467 2.08337C7.58068 2.08337 9.16634 3.66903 9.16634 5.62504V9.16671H5.62467C3.66867 9.16671 2.08301 7.58105 2.08301 5.62504C2.08301 3.66903 3.66867 2.08337 5.62467 2.08337ZM5.62467 10.8334H9.16634V14.375C9.16634 16.331 7.58068 17.9167 5.62467 17.9167C3.66867 17.9167 2.08301 16.331 2.08301 14.375C2.08301 12.419 3.66867 10.8334 5.62467 10.8334ZM14.3747 2.08337C16.3307 2.08337 17.9163 3.66903 17.9163 5.62504C17.9163 7.58105 16.3307 9.16671 14.3747 9.16671H10.833V5.62504C10.833 3.66903 12.4187 2.08337 14.3747 2.08337ZM10.833 10.8334H14.3747C16.3307 10.8334 17.9163 12.419 17.9163 14.375C17.9163 16.331 16.3307 17.9167 14.3747 17.9167C12.4187 17.9167 10.833 16.331 10.833 14.375V10.8334Z" fill="#E3E3E3"/>
</svg>
