<svg width="20" height="20" viewBox="0 0 20 20" fill="none" xmlns="http://www.w3.org/2000/svg">
<path d="M5.83348 5.83329V2.49996C5.83348 2.03973 6.20658 1.66663 6.66682 1.66663H17.5002C17.9604 1.66663 18.3335 2.03973 18.3335 2.49996V13.3333C18.3335 13.7935 17.9604 14.1666 17.5002 14.1666H14.167V17.4937C14.167 17.9574 13.7928 18.3333 13.3274 18.3333H2.50639C2.04271 18.3333 1.66699 17.9592 1.66699 17.4937L1.66929 6.67286C1.66939 6.20918 2.04349 5.83329 2.50887 5.83329H5.83348ZM7.50015 5.83329H13.3276C13.7912 5.83329 14.167 6.20739 14.167 6.67286V12.5H16.6668V3.33329H7.50015V5.83329ZM7.08568 15L11.7997 10.2859L10.6212 9.10737L7.08568 12.643L5.31791 10.8752L4.1394 12.0537L7.08568 15Z" fill="#E3E3E3"/>
</svg>
