<svg width="20" height="20" viewBox="0 0 20 20" fill="none" xmlns="http://www.w3.org/2000/svg">
<path d="M10.0007 10.4882L13.5362 14.0237L12.3577 15.2022L10.834 13.6792V18.3334H9.16732V13.6776L7.64363 15.2022L6.46512 14.0237L10.0007 10.4882ZM10.0007 1.66675C12.9952 1.66675 15.4627 3.92309 15.7957 6.82837C17.7388 7.3597 19.1673 9.13808 19.1673 11.2501C19.1673 13.6407 17.337 15.6039 15.0012 15.8147L15.0007 14.1667C15.0007 11.4053 12.7621 9.16675 10.0007 9.16675C7.30199 9.16675 5.10268 11.3047 5.0041 13.9793L5.00065 14.1667L5.00098 15.8147C2.66478 15.6044 0.833984 13.6411 0.833984 11.2501C0.833984 9.13808 2.26252 7.3597 4.20605 6.82851C4.53866 3.92309 7.00616 1.66675 10.0007 1.66675Z" fill="#E3E3E3"/>
</svg>
