<svg width="20" height="20" viewBox="0 0 20 20" fill="none" xmlns="http://www.w3.org/2000/svg">
<path d="M6.66732 5.83341C4.36613 5.83341 2.50065 7.6989 2.50065 10.0001C2.50065 12.3012 4.36613 14.1667 6.66732 14.1667H13.334C15.6352 14.1667 17.5007 12.3012 17.5007 10.0001C17.5007 7.6989 15.6352 5.83341 13.334 5.83341H6.66732ZM6.66732 4.16675H13.334C16.5557 4.16675 19.1673 6.77842 19.1673 10.0001C19.1673 13.2217 16.5557 15.8334 13.334 15.8334H6.66732C3.44566 15.8334 0.833984 13.2217 0.833984 10.0001C0.833984 6.77842 3.44566 4.16675 6.66732 4.16675ZM6.66732 12.5001C5.28661 12.5001 4.16732 11.3808 4.16732 10.0001C4.16732 8.61933 5.28661 7.50008 6.66732 7.50008C8.04803 7.50008 9.16732 8.61933 9.16732 10.0001C9.16732 11.3808 8.04803 12.5001 6.66732 12.5001Z" fill="#E3E3E3"/>
</svg>
