<svg width="20" height="20" viewBox="0 0 20 20" fill="none" xmlns="http://www.w3.org/2000/svg">
<path d="M1.66634 7.49997H4.16634V17.5H1.66634C1.20611 17.5 0.833008 17.1269 0.833008 16.6667V8.33331C0.833008 7.87307 1.20611 7.49997 1.66634 7.49997ZM6.07708 6.42257L11.4108 1.08884C11.5574 0.942216 11.7896 0.925724 11.9554 1.05013L12.6659 1.583C13.0698 1.88593 13.2518 2.40211 13.1273 2.89138L12.1662 6.66664H17.4997C18.4202 6.66664 19.1663 7.41283 19.1663 8.33331V10.0869C19.1663 10.3047 19.1237 10.5202 19.0408 10.7215L16.4622 16.9839C16.3336 17.2962 16.0293 17.5 15.6916 17.5H6.66634C6.20611 17.5 5.83301 17.1269 5.83301 16.6667V7.01182C5.83301 6.79081 5.92081 6.57885 6.07708 6.42257Z" fill="#E3E3E3"/>
</svg>
