<svg width="20" height="20" viewBox="0 0 20 20" fill="none" xmlns="http://www.w3.org/2000/svg">
<path d="M1.66602 9.99983C1.66602 9.27941 1.75743 8.58033 1.92931 7.91359C2.83787 7.96069 3.73975 7.50846 4.22585 6.66651C4.71157 5.82521 4.65273 4.81892 4.15869 4.05584C5.1523 3.07941 6.38961 2.35018 7.77104 1.96777C8.18451 2.77821 9.0271 3.33318 9.99935 3.33318C10.9716 3.33318 11.8142 2.77821 12.2277 1.96777C13.6091 2.35018 14.8464 3.07941 15.84 4.05584C15.3459 4.81892 15.2871 5.82521 15.7728 6.66651C16.2589 7.50846 17.1608 7.96069 18.0694 7.91359C18.2413 8.58033 18.3327 9.27941 18.3327 9.99983C18.3327 10.7202 18.2413 11.4193 18.0694 12.0861C17.1608 12.039 16.2589 12.4912 15.7728 13.3332C15.2871 14.1745 15.3459 15.1807 15.84 15.9438C14.8464 16.9202 13.6091 17.6495 12.2277 18.0319C11.8142 17.2215 10.9716 16.6665 9.99935 16.6665C9.0271 16.6665 8.18451 17.2215 7.77104 18.0319C6.38961 17.6495 5.1523 16.9202 4.15869 15.9438C4.65273 15.1807 4.71157 14.1745 4.22585 13.3332C3.73975 12.4912 2.83787 12.039 1.92931 12.0861C1.75743 11.4193 1.66602 10.7202 1.66602 9.99983ZM5.66922 12.4998C6.19431 13.4093 6.34483 14.4549 6.1395 15.4363C6.47932 15.6782 6.84106 15.8877 7.22009 16.0617C7.96748 15.3927 8.94868 14.9998 9.99935 14.9998C11.05 14.9998 12.0312 15.3927 12.7786 16.0617C13.1576 15.8877 13.5193 15.6782 13.8592 15.4363C13.6538 14.4549 13.8043 13.4093 14.3295 12.4998C14.8545 11.5904 15.6848 10.9373 16.6373 10.6244C16.6563 10.4179 16.666 10.2097 16.666 9.99983C16.666 9.79008 16.6563 9.58175 16.6373 9.37533C15.6848 9.06241 14.8545 8.40933 14.3295 7.49985C13.8043 6.59037 13.6538 5.54481 13.8592 4.56337C13.5193 4.32156 13.1576 4.11206 12.7786 3.93793C12.0312 4.60703 11.05 4.99985 9.99935 4.99985C8.94868 4.99985 7.96748 4.60703 7.22009 3.93793C6.84106 4.11206 6.47932 4.32156 6.1395 4.56337C6.34483 5.54481 6.19431 6.59037 5.66922 7.49985C5.14415 8.40933 4.31397 9.06241 3.36144 9.37533C3.34232 9.58175 3.33268 9.79008 3.33268 9.99983C3.33268 10.2097 3.34232 10.4179 3.36144 10.6244C4.31397 10.9373 5.14415 11.5904 5.66922 12.4998ZM9.99935 12.4998C8.6186 12.4998 7.49935 11.3806 7.49935 9.99983C7.49935 8.61916 8.6186 7.49985 9.99935 7.49985C11.3801 7.49985 12.4993 8.61916 12.4993 9.99983C12.4993 11.3806 11.3801 12.4998 9.99935 12.4998ZM9.99935 10.8332C10.4596 10.8332 10.8327 10.4601 10.8327 9.99983C10.8327 9.53958 10.4596 9.1665 9.99935 9.1665C9.5391 9.1665 9.16601 9.53958 9.16601 9.99983C9.16601 10.4601 9.5391 10.8332 9.99935 10.8332Z" fill="#E3E3E3"/>
</svg>
