<svg width="20" height="20" viewBox="0 0 20 20" fill="none" xmlns="http://www.w3.org/2000/svg">
<g clip-path="url(#clip0_1534_596)">
<path d="M7.23848 3.33336L9.41068 1.1612C9.73609 0.835754 10.2638 0.835754 10.5892 1.1612L12.7613 3.33336H15.8333C16.2935 3.33336 16.6666 3.70646 16.6666 4.1667V7.2386L18.8388 9.4108C19.1642 9.73621 19.1642 10.2639 18.8388 10.5893L16.6666 12.7615V15.8334C16.6666 16.2936 16.2935 16.6667 15.8333 16.6667H12.7613L10.5892 18.8389C10.2638 19.1643 9.73609 19.1643 9.41068 18.8389L7.23848 16.6667H4.16657C3.70634 16.6667 3.33324 16.2936 3.33324 15.8334V12.7615L1.16107 10.5893C0.835632 10.2639 0.835632 9.73621 1.16107 9.4108L3.33324 7.2386V4.1667C3.33324 3.70646 3.70634 3.33336 4.16657 3.33336H7.23848ZM4.99991 5.00003V7.92896L2.92884 10L4.99991 12.0711V15H7.92884L9.99992 17.0711L12.071 15H14.9999V12.0711L17.071 10L14.9999 7.92896V5.00003H12.071L9.99992 2.92896L7.92884 5.00003H4.99991ZM9.99992 13.3334C8.15896 13.3334 6.66657 11.841 6.66657 10C6.66657 8.15908 8.15896 6.6667 9.99992 6.6667C11.8408 6.6667 13.3333 8.15908 13.3333 10C13.3333 11.841 11.8408 13.3334 9.99992 13.3334ZM9.99992 11.6667C10.9204 11.6667 11.6666 10.9205 11.6666 10C11.6666 9.07955 10.9204 8.33338 9.99992 8.33338C9.07942 8.33338 8.33326 9.07955 8.33326 10C8.33326 10.9205 9.07942 11.6667 9.99992 11.6667Z" fill="#E3E3E3"/>
</g>
<defs>
<clipPath id="clip0_1534_596">
<rect width="20" height="20" fill="white"/>
</clipPath>
</defs>
</svg>
