<svg width="20" height="20" viewBox="0 0 20 20" fill="none" xmlns="http://www.w3.org/2000/svg">
<path d="M1.66699 15H7.50033V16.6667H1.66699V15ZM1.66699 9.16671H9.16699V10.8334H1.66699V9.16671ZM1.66699 3.33337H18.3337V5.00004H1.66699V3.33337ZM17.2287 10.8543L18.1921 10.5284L19.0254 11.9717L18.262 12.6426C18.309 12.8655 18.3337 13.0965 18.3337 13.3334C18.3337 13.5702 18.309 13.8012 18.262 14.0241L19.0254 14.695L18.1921 16.1384L17.2287 15.8125C16.8866 16.1201 16.4806 16.358 16.0329 16.5037L15.8337 17.5H14.167L13.9677 16.5037C13.5201 16.358 13.1141 16.1201 12.772 15.8125L11.8086 16.1384L10.9752 14.695L11.7387 14.0241C11.6917 13.8012 11.667 13.5702 11.667 13.3334C11.667 13.0965 11.6917 12.8655 11.7387 12.6426L10.9752 11.9717L11.8086 10.5284L12.772 10.8543C13.1141 10.5466 13.5201 10.3088 13.9677 10.163L14.167 9.16671H15.8337L16.0329 10.163C16.4806 10.3088 16.8866 10.5466 17.2287 10.8543ZM15.0003 14.1667C15.4606 14.1667 15.8337 13.7936 15.8337 13.3334C15.8337 12.8731 15.4606 12.5 15.0003 12.5C14.5401 12.5 14.167 12.8731 14.167 13.3334C14.167 13.7936 14.5401 14.1667 15.0003 14.1667Z" fill="#E3E3E3"/>
</svg>
