<svg width="20" height="20" viewBox="0 0 20 20" fill="none" xmlns="http://www.w3.org/2000/svg">
<path d="M10.0003 18.3333C5.39795 18.3333 1.66699 14.6023 1.66699 9.99996C1.66699 5.39758 5.39795 1.66663 10.0003 1.66663C14.6027 1.66663 18.3337 5.39758 18.3337 9.99996C18.3337 14.6023 14.6027 18.3333 10.0003 18.3333ZM10.0003 16.6666C13.6822 16.6666 16.667 13.6819 16.667 9.99996C16.667 6.31806 13.6822 3.33329 10.0003 3.33329C6.31842 3.33329 3.33366 6.31806 3.33366 9.99996C3.33366 13.6819 6.31842 16.6666 10.0003 16.6666ZM7.10293 5.92405L14.0762 12.8974C13.9167 13.1211 13.7367 13.3347 13.5358 13.5355C13.3351 13.7363 13.1215 13.9164 12.8977 14.0759L5.92442 7.10257C6.0839 6.87878 6.26402 6.66519 6.46479 6.46443C6.66556 6.26366 6.87915 6.08353 7.10293 5.92405Z" fill="#E3E3E3"/>
</svg>
