<svg width="20" height="20" viewBox="0 0 20 20" fill="none" xmlns="http://www.w3.org/2000/svg">
<path d="M1.7759 11.359C1.62417 10.4458 1.62918 9.52837 1.77664 8.64129C2.69431 8.66362 3.51962 8.22336 3.84038 7.44896C4.16115 6.67457 3.88888 5.77968 3.22422 5.14655C3.74721 4.41502 4.39238 3.76277 5.14543 3.2243C5.77859 3.88934 6.67375 4.16184 7.44836 3.84099C8.22296 3.52014 8.66326 2.69447 8.64067 1.77651C9.55392 1.62478 10.4713 1.62979 11.3584 1.77725C11.3362 2.69491 11.7764 3.52022 12.5508 3.84099C13.3252 4.16176 14.2201 3.88948 14.8533 3.22483C15.5848 3.74782 16.237 4.39298 16.7755 5.14604C16.1104 5.7792 15.8379 6.67436 16.1588 7.44896C16.4796 8.22356 17.3053 8.66387 18.2233 8.64129C18.375 9.55454 18.37 10.472 18.2225 11.359C17.3048 11.3368 16.4795 11.777 16.1588 12.5514C15.838 13.3258 16.1103 14.2207 16.7749 14.8538C16.2519 15.5854 15.6068 16.2376 14.8538 16.776C14.2206 16.111 13.3254 15.8385 12.5508 16.1594C11.7762 16.4802 11.3359 17.3059 11.3584 18.2239C10.4452 18.3756 9.52775 18.3706 8.64075 18.2231C8.663 17.3055 8.22275 16.4801 7.44836 16.1594C6.67396 15.8386 5.77907 16.1109 5.14594 16.7755C4.41441 16.2525 3.76216 15.6074 3.22369 14.8544C3.88873 14.2212 4.16123 13.326 3.84038 12.5514C3.51953 11.7768 2.69387 11.3365 1.7759 11.359ZM9.99959 12.5002C11.3803 12.5002 12.4996 11.3809 12.4996 10.0002C12.4996 8.61946 11.3803 7.50019 9.99959 7.50019C8.61884 7.50019 7.49958 8.61946 7.49958 10.0002C7.49958 11.3809 8.61884 12.5002 9.99959 12.5002Z" fill="#E3E3E3"/>
</svg>
