<svg width="20" height="20" viewBox="0 0 20 20" fill="none" xmlns="http://www.w3.org/2000/svg">
<path d="M7.83315 13.3333H2.49967C1.5792 13.3333 0.833008 12.5872 0.833008 11.6667V9.91308C0.833008 9.69533 0.875658 9.47975 0.958541 9.2785L3.53718 3.01604C3.66576 2.70379 3.97007 2.5 4.30775 2.5H18.333C18.7933 2.5 19.1663 2.8731 19.1663 3.33333V11.6667C19.1663 12.1269 18.7933 12.5 18.333 12.5H15.4315C15.1607 12.5 14.9068 12.6316 14.7507 12.8527L10.2062 19.2908C10.0874 19.459 9.86359 19.5153 9.67943 19.4232L8.1677 18.6673C7.29133 18.2292 6.83873 17.2395 7.08046 16.29L7.83315 13.3333ZM14.1663 11.1771V4.16667H4.86583L2.49967 9.91308V11.6667H7.83315C8.92043 11.6667 9.71651 12.6908 9.44834 13.7445L8.69559 16.7012C8.64726 16.8911 8.73776 17.089 8.91309 17.1767L9.46401 17.4521L13.3891 11.8917C13.5973 11.5966 13.8635 11.3547 14.1663 11.1771ZM15.833 10.8333H17.4997V4.16667H15.833V10.8333Z" fill="#E3E3E3"/>
</svg>
