<svg width="20" height="20" viewBox="0 0 20 20" fill="none" xmlns="http://www.w3.org/2000/svg">
<path d="M10.7221 2.50018L18.6607 16.2502C18.8908 16.6488 18.7542 17.1585 18.3557 17.3885C18.229 17.4617 18.0852 17.5002 17.939 17.5002H2.06185C1.60162 17.5002 1.22852 17.1271 1.22852 16.6669C1.22852 16.5205 1.26702 16.3769 1.34017 16.2502L9.27874 2.50018C9.50882 2.1016 10.0185 1.96504 10.4171 2.19516C10.5437 2.2683 10.649 2.3735 10.7221 2.50018ZM3.50522 15.8335H16.4956L10.0004 4.58352L3.50522 15.8335ZM9.16707 13.3335H10.8337V15.0002H9.16707V13.3335ZM9.16707 7.50018H10.8337V11.6669H9.16707V7.50018Z" fill="#E3E3E3"/>
</svg>
