<svg width="20" height="20" viewBox="0 0 20 20" fill="none" xmlns="http://www.w3.org/2000/svg">
<path d="M5.31859 4.97334C6.60166 3.94698 8.22916 3.33325 10 3.33325C11.7708 3.33325 13.3983 3.94698 14.6814 4.97334L15.8926 3.76219L17.0711 4.94069L15.8599 6.15184C16.8863 7.43491 17.5 9.06242 17.5 10.8333C17.5 14.9754 14.1422 18.3333 10 18.3333C5.85787 18.3333 2.5 14.9754 2.5 10.8333C2.5 9.06242 3.11373 7.43491 4.14008 6.15184L2.92893 4.94069L4.10744 3.76219L5.31859 4.97334ZM10.8333 9.99992V6.24592L6.66667 11.6666H9.16667V15.4166L13.3333 9.99992H10.8333ZM6.66667 0.833252H13.3333V2.49992H6.66667V0.833252Z" fill="#E3E3E3"/>
</svg>
