<svg width="20" height="20" viewBox="0 0 20 20" fill="none" xmlns="http://www.w3.org/2000/svg">
<path d="M0.833008 12.0834C0.833008 10.1431 1.85325 8.441 3.38656 7.48442C3.80358 4.20342 6.60539 1.66675 9.99968 1.66675C13.3939 1.66675 16.1958 4.20342 16.6128 7.48442C18.1461 8.441 19.1663 10.1431 19.1663 12.0834C19.1663 14.9347 16.9632 17.2715 14.1663 17.4843L5.83301 17.5001C3.03616 17.2715 0.833008 14.9347 0.833008 12.0834ZM14.0399 15.8224C15.9844 15.6745 17.4997 14.0468 17.4997 12.0834C17.4997 10.7726 16.8233 9.58025 15.7306 8.8985L15.0592 8.47958L14.9594 7.69457C14.6443 5.21511 12.5237 3.33341 9.99968 3.33341C7.47564 3.33341 5.35507 5.21511 5.03992 7.69457L4.94014 8.47958L4.26874 8.8985C3.17597 9.58025 2.49967 10.7726 2.49967 12.0834C2.49967 14.0468 4.01495 15.6745 5.95942 15.8224L6.10384 15.8334H13.8955L14.0399 15.8224ZM10.833 10.8334V14.1667H9.16634V10.8334H6.66634L9.99968 6.66675L13.333 10.8334H10.833Z" fill="#E3E3E3"/>
</svg>
