<svg width="20" height="20" viewBox="0 0 20 20" fill="none" xmlns="http://www.w3.org/2000/svg">
<path d="M10.0003 18.3333C5.39795 18.3333 1.66699 14.6023 1.66699 9.99996C1.66699 5.39758 5.39795 1.66663 10.0003 1.66663C14.6027 1.66663 18.3337 5.39758 18.3337 9.99996C18.3337 14.6023 14.6027 18.3333 10.0003 18.3333ZM10.0003 16.6666C13.6822 16.6666 16.667 13.6819 16.667 9.99996C16.667 6.31806 13.6822 3.33329 10.0003 3.33329C6.31842 3.33329 3.33366 6.31806 3.33366 9.99996C3.33366 13.6819 6.31842 16.6666 10.0003 16.6666ZM10.8337 8.74996V12.5H11.667V14.1666H8.33366V12.5H9.16699V10.4166H8.33366V8.74996H10.8337ZM11.2503 6.66663C11.2503 7.35698 10.6907 7.91663 10.0003 7.91663C9.30999 7.91663 8.75032 7.35698 8.75032 6.66663C8.75032 5.97627 9.30999 5.41663 10.0003 5.41663C10.6907 5.41663 11.2503 5.97627 11.2503 6.66663Z" fill="#E3E3E3"/>
</svg>
