<svg width="20" height="20" viewBox="0 0 20 20" fill="none" xmlns="http://www.w3.org/2000/svg">
<path d="M1.66699 9.99996C1.66699 14.6023 5.39795 18.3333 10.0003 18.3333C14.6027 18.3333 18.3337 14.6023 18.3337 9.99996C18.3337 5.39758 14.6027 1.66663 10.0003 1.66663C5.39795 1.66663 1.66699 5.39758 1.66699 9.99996ZM16.667 9.99996C16.667 13.6819 13.6822 16.6666 10.0003 16.6666C6.31842 16.6666 3.33366 13.6819 3.33366 9.99996C3.33366 6.31806 6.31842 3.33329 10.0003 3.33329C13.6822 3.33329 16.667 6.31806 16.667 9.99996ZM10.0003 15C12.7617 15 15.0003 12.7614 15.0003 9.99996C15.0003 7.23853 12.7617 4.99996 10.0003 4.99996C7.2389 4.99996 5.00032 7.23853 5.00032 9.99996C5.00032 12.7614 7.2389 15 10.0003 15Z" fill="#E3E3E3"/>
</svg>
