<svg width="20" height="20" viewBox="0 0 20 20" fill="none" xmlns="http://www.w3.org/2000/svg">
<path d="M0.833008 12.0833C0.833008 10.143 1.85325 8.44088 3.38656 7.48429C3.80358 4.20329 6.60539 1.66663 9.99968 1.66663C13.3939 1.66663 16.1958 4.20329 16.6128 7.48429C18.1461 8.44088 19.1663 10.143 19.1663 12.0833C19.1663 14.9346 16.9632 17.2714 14.1663 17.4842L5.83301 17.5C3.03616 17.2714 0.833008 14.9346 0.833008 12.0833ZM14.0399 15.8223C15.9844 15.6744 17.4997 14.0467 17.4997 12.0833C17.4997 10.7725 16.8233 9.58013 15.7306 8.89838L15.0592 8.47946L14.9594 7.69444C14.6443 5.21499 12.5237 3.33329 9.99968 3.33329C7.47564 3.33329 5.35507 5.21499 5.03992 7.69444L4.94014 8.47946L4.26874 8.89838C3.17597 9.58013 2.49967 10.7725 2.49967 12.0833C2.49967 14.0467 4.01495 15.6744 5.95942 15.8223L6.10384 15.8333H13.8955L14.0399 15.8223ZM10.833 9.99996H13.333L9.99968 14.1666L6.66634 9.99996H9.16634V6.66663H10.833V9.99996Z" fill="#E3E3E3"/>
</svg>
