<svg width="20" height="20" viewBox="0 0 20 20" fill="none" xmlns="http://www.w3.org/2000/svg">
<path d="M10.0003 1.66663C14.6027 1.66663 18.3337 5.39758 18.3337 9.99996C18.3337 14.6023 14.6027 18.3333 10.0003 18.3333C5.39795 18.3333 1.66699 14.6023 1.66699 9.99996C1.66699 5.39758 5.39795 1.66663 10.0003 1.66663ZM10.0003 5.83329C9.57299 5.83329 9.16074 5.89762 8.77274 6.01658C9.49649 6.34308 10.0003 7.07102 10.0003 7.91663C10.0003 9.06721 9.06757 9.99996 7.91699 9.99996C7.07138 9.99996 6.34345 9.49612 6.01747 8.77229C5.89798 9.16037 5.83366 9.57262 5.83366 9.99996C5.83366 12.3011 7.69914 14.1666 10.0003 14.1666C12.3015 14.1666 14.167 12.3011 14.167 9.99996C14.167 7.69877 12.3015 5.83329 10.0003 5.83329Z" fill="#E3E3E3"/>
</svg>
