<svg width="20" height="20" viewBox="0 0 20 20" fill="none" xmlns="http://www.w3.org/2000/svg">
<path d="M10 0.833374C7.23858 0.833374 5 3.07195 5 5.83337V6.66671H3.33333C2.8731 6.66671 2.5 7.03981 2.5 7.50004V17.5C2.5 17.9603 2.8731 18.3334 3.33333 18.3334H10.87C10.5789 17.6991 10.4167 16.9935 10.4167 16.25C10.4167 13.4886 12.6553 11.25 15.4167 11.25C16.1602 11.25 16.8658 11.4123 17.5 11.7034V7.50004C17.5 7.03981 17.1269 6.66671 16.6667 6.66671H15V5.83337C15 3.07195 12.7614 0.833374 10 0.833374ZM13.3333 6.66671H6.66667V5.83337C6.66667 3.99242 8.15905 2.50004 10 2.50004C11.8409 2.50004 13.3333 3.99242 13.3333 5.83337V6.66671ZM17.6208 19.2839L17.1999 16.8295L18.9832 15.0912L16.5188 14.7331L15.4167 12.5L14.3146 14.7331L11.8502 15.0912L13.6334 16.8295L13.2125 19.2839L15.4167 18.125L17.6208 19.2839Z" fill="#E3E3E3"/>
</svg>
