<svg width="20" height="20" viewBox="0 0 20 20" fill="none" xmlns="http://www.w3.org/2000/svg">
<path d="M10.0003 3.33329C7.70986 3.33329 5.68789 4.48851 4.48735 6.24996H6.66699V7.91663H1.66699V2.91663H3.33366V4.99943C4.8535 2.97634 7.27336 1.66663 10.0003 1.66663C14.6027 1.66663 18.3337 5.39758 18.3337 9.99996H16.667C16.667 6.31806 13.6822 3.33329 10.0003 3.33329ZM3.33366 9.99996C3.33366 13.6819 6.31842 16.6666 10.0003 16.6666C12.2908 16.6666 14.3127 15.5114 15.5133 13.75H13.3337V12.0833H18.3337V17.0833H16.667V15.0005C15.1472 17.0235 12.7273 18.3333 10.0003 18.3333C5.39795 18.3333 1.66699 14.6023 1.66699 9.99996H3.33366Z" fill="#E3E3E3"/>
</svg>
