<svg width="20" height="20" viewBox="0 0 20 20" fill="none" xmlns="http://www.w3.org/2000/svg">
<path d="M18.3327 9.99996C18.3327 14.6023 14.6018 18.3333 9.99935 18.3333C5.39702 18.3333 1.66602 14.6023 1.66602 9.99996C1.66602 5.39758 5.39702 1.66663 9.99935 1.66663V3.33329C6.31743 3.33329 3.33268 6.31806 3.33268 9.99996C3.33268 13.6819 6.31743 16.6666 9.99935 16.6666C13.6813 16.6666 16.666 13.6819 16.666 9.99996C16.666 7.70848 15.5099 5.68702 13.7492 4.48705L13.7493 6.66663H12.0827V1.66663H17.0827V3.33329L15 3.3332C17.0238 4.85358 18.3327 7.2739 18.3327 9.99996Z" fill="#E3E3E3"/>
</svg>
