<svg width="20" height="20" viewBox="0 0 20 20" fill="none" xmlns="http://www.w3.org/2000/svg">
<path d="M1.66699 9.99996C1.66699 14.6023 5.39795 18.3333 10.0003 18.3333C14.6027 18.3333 18.3337 14.6023 18.3337 9.99996C18.3337 5.39758 14.6027 1.66663 10.0003 1.66663V3.33329C13.6822 3.33329 16.667 6.31806 16.667 9.99996C16.667 13.6819 13.6822 16.6666 10.0003 16.6666C6.31842 16.6666 3.33366 13.6819 3.33366 9.99996C3.33366 7.70848 4.48977 5.68702 6.25052 4.48705L6.25032 6.66663H7.91699V1.66663H2.91699V3.33329L4.99964 3.3332C2.97595 4.85358 1.66699 7.2739 1.66699 9.99996Z" fill="#E3E3E3"/>
</svg>
