<svg width="20" height="20" viewBox="0 0 20 20" fill="none" xmlns="http://www.w3.org/2000/svg">
<path d="M15.0265 13.8486L18.5941 17.4162L17.4156 18.5947L13.848 15.0271C12.5651 16.0532 10.9375 16.6666 9.16601 16.6666C6.21982 16.6666 3.67172 14.97 2.44497 12.5H4.99935H7.49935L6.41266 14.3111C7.23266 14.7507 8.17009 15 9.16601 15C10.7457 15 12.1782 14.3729 13.2283 13.3539L13.3533 13.229C14.3723 12.1788 14.9993 10.7463 14.9993 9.16663C14.9993 8.58746 14.915 8.028 14.758 7.49996H16.4803C16.6018 8.03594 16.666 8.59379 16.666 9.16663C16.666 10.9381 16.0526 12.5657 15.0265 13.8486ZM15.887 5.83329H10.8327L11.9193 4.02214C11.0993 3.58256 10.1619 3.33329 9.16601 3.33329C5.9431 3.33329 3.33268 5.94371 3.33268 9.16663C3.33268 9.74579 3.41699 10.3052 3.57402 10.8333H1.85167C1.73017 10.2973 1.66602 9.73946 1.66602 9.16663C1.66602 5.02288 5.02227 1.66663 9.16601 1.66663C12.1122 1.66663 14.6603 3.36327 15.887 5.83329Z" fill="#E3E3E3"/>
</svg>
