<svg width="20" height="20" viewBox="0 0 20 20" fill="none" xmlns="http://www.w3.org/2000/svg">
<path d="M15.0262 13.8473L18.5951 17.4162L17.4166 18.5947L13.8477 15.0258C12.5644 16.0525 10.937 16.6666 9.16699 16.6666C5.02699 16.6666 1.66699 13.3066 1.66699 9.16663C1.66699 5.02663 5.02699 1.66663 9.16699 1.66663C13.307 1.66663 16.667 5.02663 16.667 9.16663C16.667 10.9366 16.0528 12.564 15.0262 13.8473ZM10.1486 5.98016C9.83824 5.88468 9.50866 5.83329 9.16699 5.83329C7.32604 5.83329 5.83366 7.32568 5.83366 9.16663C5.83366 11.0075 7.32604 12.5 9.16699 12.5C11.0079 12.5 12.5003 11.0075 12.5003 9.16663C12.5003 8.82496 12.4489 8.49538 12.3535 8.18506C12.0922 8.76379 11.5099 9.16663 10.8337 9.16663C9.91316 9.16663 9.16699 8.42046 9.16699 7.49996C9.16699 6.82368 9.56983 6.24148 10.1486 5.98016Z" fill="#E3E3E3"/>
</svg>
