<svg width="20" height="20" viewBox="0 0 20 20" fill="none" xmlns="http://www.w3.org/2000/svg">
<path d="M2.08301 5.83338C2.08301 7.90444 3.76194 9.58338 5.83301 9.58338C7.90408 9.58338 9.58301 7.90444 9.58301 5.83338C9.58301 3.76231 7.90408 2.08338 5.83301 2.08338C3.76194 2.08338 2.08301 3.76231 2.08301 5.83338ZM2.08301 14.1667C2.08301 16.2378 3.76194 17.9167 5.83301 17.9167C7.90408 17.9167 9.58301 16.2378 9.58301 14.1667C9.58301 12.0956 7.90408 10.4167 5.83301 10.4167C3.76194 10.4167 2.08301 12.0956 2.08301 14.1667ZM10.4163 14.1667C10.4163 16.2378 12.0953 17.9167 14.1663 17.9167C16.2374 17.9167 17.9163 16.2378 17.9163 14.1667C17.9163 12.0956 16.2374 10.4167 14.1663 10.4167C12.0953 10.4167 10.4163 12.0956 10.4163 14.1667ZM14.604 9.29588L14.8352 8.76554C15.2472 7.82003 15.9893 7.0672 16.9153 6.65536L17.6275 6.33863C18.0126 6.16738 18.0126 5.60704 17.6275 5.43578L16.9553 5.13676C16.0053 4.71432 15.2498 3.93363 14.8449 2.95598L14.6076 2.38292C14.4421 1.98353 13.8905 1.98353 13.7251 2.38292L13.4877 2.95598C13.0828 3.93363 12.3273 4.71432 11.3775 5.13676L10.7052 5.43578C10.3201 5.60704 10.3201 6.16738 10.7052 6.33863L11.4173 6.65536C12.3433 7.0672 13.0854 7.82003 13.4975 8.76554L13.7287 9.29588C13.8978 9.68413 14.4348 9.68413 14.604 9.29588Z" fill="#E3E3E3"/>
</svg>
