<svg width="20" height="20" viewBox="0 0 20 20" fill="none" xmlns="http://www.w3.org/2000/svg">
<path d="M5.83301 9.58337C3.76194 9.58337 2.08301 7.90444 2.08301 5.83337C2.08301 3.76231 3.76194 2.08337 5.83301 2.08337C7.90408 2.08337 9.58301 3.76231 9.58301 5.83337C9.58301 7.90444 7.90408 9.58337 5.83301 9.58337ZM5.83301 17.9167C3.76194 17.9167 2.08301 16.2378 2.08301 14.1667C2.08301 12.0956 3.76194 10.4167 5.83301 10.4167C7.90408 10.4167 9.58301 12.0956 9.58301 14.1667C9.58301 16.2378 7.90408 17.9167 5.83301 17.9167ZM14.1663 9.58337C12.0953 9.58337 10.4163 7.90444 10.4163 5.83337C10.4163 3.76231 12.0953 2.08337 14.1663 2.08337C16.2374 2.08337 17.9163 3.76231 17.9163 5.83337C17.9163 7.90444 16.2374 9.58337 14.1663 9.58337ZM14.1663 17.9167C12.0953 17.9167 10.4163 16.2378 10.4163 14.1667C10.4163 12.0956 12.0953 10.4167 14.1663 10.4167C16.2374 10.4167 17.9163 12.0956 17.9163 14.1667C17.9163 16.2378 16.2374 17.9167 14.1663 17.9167ZM5.83301 7.91671C6.9836 7.91671 7.91634 6.98397 7.91634 5.83337C7.91634 4.68278 6.9836 3.75004 5.83301 3.75004C4.68242 3.75004 3.74967 4.68278 3.74967 5.83337C3.74967 6.98397 4.68242 7.91671 5.83301 7.91671ZM5.83301 16.25C6.9836 16.25 7.91634 15.3173 7.91634 14.1667C7.91634 13.0161 6.9836 12.0834 5.83301 12.0834C4.68242 12.0834 3.74967 13.0161 3.74967 14.1667C3.74967 15.3173 4.68242 16.25 5.83301 16.25ZM14.1663 7.91671C15.3169 7.91671 16.2497 6.98397 16.2497 5.83337C16.2497 4.68278 15.3169 3.75004 14.1663 3.75004C13.0158 3.75004 12.083 4.68278 12.083 5.83337C12.083 6.98397 13.0158 7.91671 14.1663 7.91671ZM14.1663 16.25C15.3169 16.25 16.2497 15.3173 16.2497 14.1667C16.2497 13.0161 15.3169 12.0834 14.1663 12.0834C13.0158 12.0834 12.083 13.0161 12.083 14.1667C12.083 15.3173 13.0158 16.25 14.1663 16.25Z" fill="#E3E3E3"/>
</svg>
