<svg width="20" height="20" viewBox="0 0 20 20" fill="none" xmlns="http://www.w3.org/2000/svg">
<path d="M2.49929 10.8334C2.49929 14.9755 5.85715 18.3334 9.99927 18.3334C14.1414 18.3334 17.4993 14.9755 17.4993 10.8334C17.4993 6.69126 14.1414 3.33339 9.99927 3.33339C5.85715 3.33339 2.49929 6.69126 2.49929 10.8334ZM4.40135 2.28918L1.45508 5.23546L2.63359 6.41398L5.57987 3.46769L4.40135 2.28918ZM18.5435 5.23546L15.5972 2.28918L14.4187 3.46769L17.365 6.41398L18.5435 5.23546ZM7.49919 9.16663V7.49996H12.4992V9.51179L9.51102 12.5H12.4992V14.1666H7.49919V12.1548L10.4874 9.16663H7.49919Z" fill="#E3E3E3"/>
</svg>
