<svg width="20" height="20" viewBox="0 0 20 20" fill="none" xmlns="http://www.w3.org/2000/svg">
<path d="M11.3129 14.3928L7.05447 12.0699C6.52727 12.5933 5.80123 12.9166 4.99967 12.9166C3.38884 12.9166 2.08301 11.6108 2.08301 9.99992C2.08301 8.38909 3.38884 7.08325 4.99967 7.08325C5.80118 7.08325 6.52718 7.40655 7.05437 7.92986L11.3129 5.60704C11.2715 5.4112 11.2497 5.20811 11.2497 4.99992C11.2497 3.38909 12.5555 2.08325 14.1663 2.08325C15.7772 2.08325 17.083 3.38909 17.083 4.99992C17.083 6.61075 15.7772 7.91659 14.1663 7.91659C13.3648 7.91659 12.6388 7.59326 12.1116 7.06991L7.85304 9.39267C7.89452 9.58859 7.91634 9.79167 7.91634 9.99992C7.91634 10.2081 7.89453 10.4112 7.85307 10.607L12.1116 12.9299C12.6388 12.4066 13.3648 12.0833 14.1663 12.0833C15.7772 12.0833 17.083 13.3891 17.083 14.9999C17.083 16.6108 15.7772 17.9166 14.1663 17.9166C12.5555 17.9166 11.2497 16.6108 11.2497 14.9999C11.2497 14.7918 11.2715 14.5886 11.3129 14.3928Z" fill="#E3E3E3"/>
</svg>
