<svg width="20" height="20" viewBox="0 0 20 20" fill="none" xmlns="http://www.w3.org/2000/svg">
<path d="M14.167 4.99996H18.3337V6.66663H16.667V17.5C16.667 17.9602 16.2939 18.3333 15.8337 18.3333H4.16699C3.70676 18.3333 3.33366 17.9602 3.33366 17.5V6.66663H1.66699V4.99996H5.83366V2.49996C5.83366 2.03973 6.20676 1.66663 6.66699 1.66663H13.3337C13.7939 1.66663 14.167 2.03973 14.167 2.49996V4.99996ZM15.0003 6.66663H5.00032V16.6666H15.0003V6.66663ZM11.1788 11.6664L12.652 13.1395L11.4735 14.318L10.0003 12.8449L8.52716 14.318L7.34867 13.1395L8.82182 11.6664L7.34867 10.1933L8.52716 9.01479L10.0003 10.4879L11.4735 9.01479L12.652 10.1933L11.1788 11.6664ZM7.50032 3.33329V4.99996H12.5003V3.33329H7.50032Z" fill="#E3E3E3"/>
</svg>
