<svg width="20" height="20" viewBox="0 0 20 20" fill="none" xmlns="http://www.w3.org/2000/svg">
<path d="M9.99927 18.3334C5.85715 18.3334 2.49929 14.9755 2.49929 10.8334C2.49929 6.69126 5.85715 3.33339 9.99927 3.33339C14.1414 3.33339 17.4993 6.69126 17.4993 10.8334C17.4993 14.9755 14.1414 18.3334 9.99927 18.3334ZM9.99927 16.6667C13.2209 16.6667 15.8326 14.055 15.8326 10.8334C15.8326 7.61173 13.2209 5.00006 9.99927 5.00006C6.77762 5.00006 4.16595 7.61173 4.16595 10.8334C4.16595 14.055 6.77762 16.6667 9.99927 16.6667ZM10.8326 10.8334H13.3326V12.5H9.16594V6.66673H10.8326V10.8334ZM1.45508 5.23546L4.40135 2.28918L5.57987 3.46769L2.63359 6.41398L1.45508 5.23546ZM15.5972 2.28918L18.5435 5.23546L17.365 6.41398L14.4187 3.46769L15.5972 2.28918Z" fill="#E3E3E3"/>
</svg>
