<svg width="20" height="20" viewBox="0 0 20 20" fill="none" xmlns="http://www.w3.org/2000/svg">
<path d="M10.833 10.8333V15.4875L12.3567 13.9645L13.5352 15.143L9.99968 18.6785L6.46414 15.143L7.64265 13.9645L9.16634 15.4875V10.8333H10.833ZM9.99968 1.66663C12.9942 1.66663 15.4617 3.92297 15.7948 6.82825C17.7378 7.35958 19.1663 9.13796 19.1663 11.25C19.1663 13.6406 17.336 15.6038 15.0002 15.8146L15.0004 14.137C16.4135 13.9345 17.4997 12.719 17.4997 11.25C17.4997 9.63913 16.1938 8.33329 14.583 8.33329C14.409 8.33329 14.2386 8.34854 14.0736 8.37829C14.1343 8.09513 14.1663 7.80128 14.1663 7.49996C14.1663 5.19878 12.3008 3.33329 9.99968 3.33329C7.69849 3.33329 5.83301 5.19878 5.83301 7.49996C5.83301 7.80128 5.86499 8.09513 5.92638 8.37771C5.76077 8.34854 5.59033 8.33329 5.41634 8.33329C3.80551 8.33329 2.49967 9.63913 2.49967 11.25C2.49967 12.6669 3.51002 13.8478 4.84956 14.1116L4.99972 14.1371L5 15.8146C2.66381 15.6043 0.833008 13.641 0.833008 11.25C0.833008 9.13796 2.26154 7.35958 4.20508 6.82838C4.53768 3.92297 7.00518 1.66663 9.99968 1.66663Z" fill="#E3E3E3"/>
</svg>
