<svg width="20" height="20" viewBox="0 0 20 20" fill="none" xmlns="http://www.w3.org/2000/svg">
<path d="M16.4527 15.2739C17.6283 13.8374 18.3337 12.001 18.3337 9.99996C18.3337 5.39758 14.6027 1.66663 10.0003 1.66663C7.99927 1.66663 6.16294 2.37193 4.72638 3.5475L9.92882 8.74996H10.8337V9.65479L16.4527 15.2739ZM8.33366 9.51179L3.54787 4.72602C2.3723 6.16258 1.66699 7.9989 1.66699 9.99996C1.66699 14.6023 5.39795 18.3333 10.0003 18.3333C12.0014 18.3333 13.8377 17.628 15.2742 16.4524L11.667 12.8451V14.1666H8.33366V12.5H9.16699V10.4166H8.33366V9.51179ZM11.3218 12.5H10.8337V12.0118L11.3218 12.5ZM11.2503 6.66663C11.2503 7.35698 10.6907 7.91663 10.0003 7.91663C9.30999 7.91663 8.75032 7.35698 8.75032 6.66663C8.75032 5.97627 9.30999 5.41663 10.0003 5.41663C10.6907 5.41663 11.2503 5.97627 11.2503 6.66663Z" fill="#E3E3E3"/>
</svg>
