<svg width="20" height="20" viewBox="0 0 20 20" fill="none" xmlns="http://www.w3.org/2000/svg">
<path d="M18.333 12.5H15.833V2.5H18.333C18.7933 2.5 19.1663 2.8731 19.1663 3.33333V11.6667C19.1663 12.1269 18.7933 12.5 18.333 12.5ZM13.9223 13.5774L8.58851 18.9112C8.44193 19.0578 8.20979 19.0743 8.04391 18.9498L7.33343 18.417C6.92951 18.1141 6.7475 17.5978 6.87206 17.1086L7.83315 13.3333H2.49967C1.5792 13.3333 0.833008 12.5872 0.833008 11.6667V9.91308C0.833008 9.69533 0.875658 9.47975 0.958541 9.2785L3.53718 3.01604C3.66576 2.70379 3.97007 2.5 4.30775 2.5H13.333C13.7933 2.5 14.1663 2.8731 14.1663 3.33333V12.9882C14.1663 13.2092 14.0785 13.4212 13.9223 13.5774Z" fill="#E3E3E3"/>
</svg>
