<svg width="20" height="20" viewBox="0 0 20 20" fill="none" xmlns="http://www.w3.org/2000/svg">
<path d="M10.0003 18.3333C5.39795 18.3333 1.66699 14.6023 1.66699 9.99996C1.66699 5.39758 5.39795 1.66663 10.0003 1.66663C14.6027 1.66663 18.3337 5.39758 18.3337 9.99996C18.3337 14.6023 14.6027 18.3333 10.0003 18.3333ZM10.0003 16.6666C13.6822 16.6666 16.667 13.6819 16.667 9.99996C16.667 6.31806 13.6822 3.33329 10.0003 3.33329C6.31842 3.33329 3.33366 6.31806 3.33366 9.99996C3.33366 13.6819 6.31842 16.6666 10.0003 16.6666ZM10.0003 8.82146L12.3573 6.46443L13.5358 7.64293L11.1788 9.99996L13.5358 12.357L12.3573 13.5355L10.0003 11.1785L7.6433 13.5355L6.46479 12.357L8.82182 9.99996L6.46479 7.64293L7.6433 6.46443L10.0003 8.82146Z" fill="#E3E3E3"/>
</svg>
