<svg width="20" height="20" viewBox="0 0 20 20" fill="none" xmlns="http://www.w3.org/2000/svg">
<path d="M15.0262 13.8473L18.5951 17.4162L17.4166 18.5947L13.8477 15.0258C12.5644 16.0525 10.937 16.6666 9.16699 16.6666C5.02699 16.6666 1.66699 13.3066 1.66699 9.16663C1.66699 5.02663 5.02699 1.66663 9.16699 1.66663C13.307 1.66663 16.667 5.02663 16.667 9.16663C16.667 10.9366 16.0528 12.564 15.0262 13.8473ZM13.3542 13.229C14.3732 12.1788 15.0003 10.7463 15.0003 9.16663C15.0003 5.94371 12.3899 3.33329 9.16699 3.33329C5.94408 3.33329 3.33366 5.94371 3.33366 9.16663C3.33366 12.3895 5.94408 15 9.16699 15C10.7467 15 12.1792 14.3729 13.2293 13.3539L13.3542 13.229ZM10.1486 5.98016C9.56983 6.24148 9.16699 6.82368 9.16699 7.49996C9.16699 8.42046 9.91316 9.16663 10.8337 9.16663C11.5099 9.16663 12.0922 8.76379 12.3535 8.18506C12.4489 8.49538 12.5003 8.82496 12.5003 9.16663C12.5003 11.0075 11.0079 12.5 9.16699 12.5C7.32604 12.5 5.83366 11.0075 5.83366 9.16663C5.83366 7.32568 7.32604 5.83329 9.16699 5.83329C9.50866 5.83329 9.83824 5.88468 10.1486 5.98016Z" fill="#E3E3E3"/>
</svg>
