<svg width="20" height="20" viewBox="0 0 20 20" fill="none" xmlns="http://www.w3.org/2000/svg">
<path d="M10.0003 1.66675C14.6003 1.66675 18.3337 5.40008 18.3337 10.0001C18.3337 14.6001 14.6003 18.3334 10.0003 18.3334C5.40032 18.3334 1.66699 14.6001 1.66699 10.0001C1.66699 5.40008 5.40032 1.66675 10.0003 1.66675ZM10.0003 16.6667C13.6837 16.6667 16.667 13.6834 16.667 10.0001C16.667 6.31675 13.6837 3.33341 10.0003 3.33341C6.31699 3.33341 3.33366 6.31675 3.33366 10.0001C3.33366 13.6834 6.31699 16.6667 10.0003 16.6667ZM12.9466 5.87529L14.1251 7.05381L10.0003 11.1786L8.82182 10.0001L12.9466 5.87529Z" fill="#E3E3E3"/>
</svg>
