<svg width="20" height="20" viewBox="0 0 20 20" fill="none" xmlns="http://www.w3.org/2000/svg">
<path d="M10.0007 11.6667V18.3334H3.33398C3.33398 14.6515 6.31875 11.6667 10.0007 11.6667ZM10.0007 10.8334C7.23815 10.8334 5.00065 8.59587 5.00065 5.83337C5.00065 3.07087 7.23815 0.833374 10.0007 0.833374C12.7632 0.833374 15.0007 3.07087 15.0007 5.83337C15.0007 8.59587 12.7632 10.8334 10.0007 10.8334ZM12.1628 15.6763C12.1112 15.4593 12.084 15.2329 12.084 15C12.084 14.7673 12.1112 14.5409 12.1627 14.3239L11.3364 13.8468L12.1697 12.4034L12.9967 12.8808C13.3242 12.571 13.7237 12.3362 14.1673 12.2041V11.25H15.834V12.2041C16.2777 12.3362 16.677 12.571 17.0046 12.8808L17.8316 12.4033L18.665 13.8467L17.8386 14.3238C17.8901 14.5409 17.9173 14.7673 17.9173 15C17.9173 15.2328 17.8901 15.4592 17.8386 15.6762L18.665 16.1533L17.8317 17.5967L17.0047 17.1192C16.6771 17.4291 16.2777 17.6639 15.8341 17.7959V18.75H14.1674V17.796C13.7237 17.664 13.3243 17.4292 12.9967 17.1193L12.1698 17.5968L11.3364 16.1534L12.1628 15.6763ZM15.0007 14.1667C14.5404 14.1667 14.1673 14.5398 14.1673 15C14.1673 15.4603 14.5404 15.8334 15.0007 15.8334C15.4609 15.8334 15.834 15.4603 15.834 15C15.834 14.5398 15.4609 14.1667 15.0007 14.1667Z" fill="#E3E3E3"/>
</svg>
