<svg width="20" height="20" viewBox="0 0 20 20" fill="none" xmlns="http://www.w3.org/2000/svg">
<path d="M9.99935 1.66663C14.6017 1.66663 18.3327 5.39758 18.3327 9.99996C18.3327 14.6023 14.6017 18.3333 9.99935 18.3333C5.39697 18.3333 1.66602 14.6023 1.66602 9.99996C1.66602 5.39758 5.39697 1.66663 9.99935 1.66663ZM9.99935 3.33329C6.31745 3.33329 3.33268 6.31806 3.33268 9.99996C3.33268 13.6819 6.31745 16.6666 9.99935 16.6666C13.6813 16.6666 16.666 13.6819 16.666 9.99996C16.666 6.31806 13.6813 3.33329 9.99935 3.33329ZM9.99935 9.16662C11.666 9.16662 13.0549 9.44437 14.166 9.99996C14.166 12.3011 12.3005 14.1666 9.99935 14.1666C7.69816 14.1666 5.83268 12.3011 5.83268 9.99996C6.94379 9.44437 8.33268 9.16662 9.99935 9.16662ZM7.08268 5.83329C8.09075 5.83329 8.9316 6.54927 9.12443 7.50043H5.04092C5.23377 6.54927 6.07462 5.83329 7.08268 5.83329ZM12.916 5.83329C13.9241 5.83329 14.7649 6.54927 14.9578 7.50043H10.8743C11.0671 6.54927 11.9079 5.83329 12.916 5.83329Z" fill="#E3E3E3"/>
</svg>
