<svg width="20" height="20" viewBox="0 0 20 20" fill="none" xmlns="http://www.w3.org/2000/svg">
<path d="M14.166 10.8333C16.0069 10.8333 17.4993 12.3257 17.4993 14.1667C17.4993 16.0076 16.0069 17.5 14.166 17.5C12.3251 17.5 10.8327 16.0076 10.8327 14.1667H9.16601C9.16601 16.0076 7.67363 17.5 5.83268 17.5C3.99173 17.5 2.49935 16.0076 2.49935 14.1667C2.49935 12.3257 3.99173 10.8333 5.83268 10.8333C7.06645 10.8333 8.14366 11.5036 8.72001 12.4999H11.2787C11.855 11.5036 12.9323 10.8333 14.166 10.8333ZM5.83268 12.5C4.91221 12.5 4.16602 13.2462 4.16602 14.1667C4.16602 15.0872 4.91221 15.8333 5.83268 15.8333C6.75316 15.8333 7.49935 15.0872 7.49935 14.1667C7.49935 13.2462 6.75316 12.5 5.83268 12.5ZM14.166 12.5C13.2455 12.5 12.4993 13.2462 12.4993 14.1667C12.4993 15.0872 13.2455 15.8333 14.166 15.8333C15.0865 15.8333 15.8327 15.0872 15.8327 14.1667C15.8327 13.2462 15.0865 12.5 14.166 12.5ZM13.3327 2.5C15.1736 2.5 16.666 3.99238 16.666 5.83333V8.33333H18.3327V10H1.66602V8.33333H3.33268V5.83333C3.33268 3.99238 4.82507 2.5 6.66601 2.5H13.3327ZM13.3327 4.16667H6.66601C5.78738 4.16667 4.99935 4.95833 4.99935 5.83333V8.33333H14.9993V5.83333C14.9993 4.9547 14.2077 4.16667 13.3327 4.16667Z" fill="#E3E3E3"/>
</svg>
