<svg width="20" height="20" viewBox="0 0 20 20" fill="none" xmlns="http://www.w3.org/2000/svg">
<path d="M10.0007 11.6667V13.3334C7.23923 13.3334 5.00065 15.572 5.00065 18.3334H3.33398C3.33398 14.6515 6.31875 11.6667 10.0007 11.6667ZM10.0007 10.8334C7.23815 10.8334 5.00065 8.59587 5.00065 5.83337C5.00065 3.07087 7.23815 0.833374 10.0007 0.833374C12.7632 0.833374 15.0007 3.07087 15.0007 5.83337C15.0007 8.59587 12.7632 10.8334 10.0007 10.8334ZM10.0007 9.16671C11.8423 9.16671 13.334 7.67504 13.334 5.83337C13.334 3.99171 11.8423 2.50004 10.0007 2.50004C8.15898 2.50004 6.66732 3.99171 6.66732 5.83337C6.66732 7.67504 8.15898 9.16671 10.0007 9.16671ZM17.8725 16.6934L19.1254 17.9463L17.9469 19.1248L16.694 17.8719C16.1977 18.1651 15.6188 18.3334 15.0007 18.3334C13.1597 18.3334 11.6673 16.841 11.6673 15C11.6673 13.1591 13.1597 11.6667 15.0007 11.6667C16.8416 11.6667 18.334 13.1591 18.334 15C18.334 15.6182 18.1657 16.1971 17.8725 16.6934ZM15.0007 16.6667C15.9212 16.6667 16.6673 15.9205 16.6673 15C16.6673 14.0795 15.9212 13.3334 15.0007 13.3334C14.0801 13.3334 13.334 14.0795 13.334 15C13.334 15.9205 14.0801 16.6667 15.0007 16.6667Z" fill="#E3E3E3"/>
</svg>
