<svg width="20" height="20" viewBox="0 0 20 20" fill="none" xmlns="http://www.w3.org/2000/svg">
<path d="M11.6673 11.8767V13.6179C11.146 13.4336 10.5851 13.3334 10.0007 13.3334C7.23923 13.3334 5.00065 15.572 5.00065 18.3334H3.33398C3.33398 14.6515 6.31875 11.6667 10.0007 11.6667C10.5762 11.6667 11.1347 11.7396 11.6673 11.8767ZM10.0007 10.8334C7.23815 10.8334 5.00065 8.59587 5.00065 5.83337C5.00065 3.07087 7.23815 0.833374 10.0007 0.833374C12.7632 0.833374 15.0007 3.07087 15.0007 5.83337C15.0007 8.59587 12.7632 10.8334 10.0007 10.8334ZM10.0007 9.16671C11.8423 9.16671 13.334 7.67504 13.334 5.83337C13.334 3.99171 11.8423 2.50004 10.0007 2.50004C8.15898 2.50004 6.66732 3.99171 6.66732 5.83337C6.66732 7.67504 8.15898 9.16671 10.0007 9.16671ZM15.834 14.6549L17.6017 12.8871L18.7802 14.0656L17.0125 15.8334L18.7802 17.6011L17.6017 18.7796L15.834 17.0119L14.0662 18.7796L12.8877 17.6011L14.6555 15.8334L12.8877 14.0656L14.0662 12.8871L15.834 14.6549Z" fill="#E3E3E3"/>
</svg>
