<svg width="20" height="20" viewBox="0 0 20 20" fill="none" xmlns="http://www.w3.org/2000/svg">
<path d="M10.0007 1.66663C12.9173 1.66663 15.0007 4.16663 15.834 6.66663C18.334 7.49996 19.1673 9.77496 19.1673 11.6666L16.8551 12.3273C16.4973 12.4295 16.2507 12.7565 16.2507 13.1285V14.375C16.2507 15.1804 15.5977 15.8333 14.7923 15.8333H14.2953C13.7361 15.8333 13.2142 16.1138 12.9055 16.5801C12.132 17.7489 11.1637 18.3333 10.0007 18.3333C8.83757 18.3333 7.8693 17.7489 7.09582 16.5801C6.78718 16.1138 6.2652 15.8333 5.70595 15.8333H5.20898C4.40357 15.8333 3.75065 15.1804 3.75065 14.375V13.1285C3.75065 12.7565 3.504 12.4295 3.14625 12.3273L0.833984 11.6666C0.833984 9.77804 1.66732 7.49996 4.16732 6.66663C5.00065 4.16663 7.08399 1.66663 10.0007 1.66663ZM10.0007 9.99996C9.31032 9.99996 8.75065 10.9327 8.75065 12.0833C8.75065 13.2339 9.31032 14.1666 10.0007 14.1666C10.691 14.1666 11.2507 13.2339 11.2507 12.0833C11.2507 10.9327 10.691 9.99996 10.0007 9.99996ZM7.91732 6.66663C7.22696 6.66663 6.66732 7.22627 6.66732 7.91663C6.66732 8.60696 7.22696 9.16662 7.91732 9.16662C8.60765 9.16662 9.16732 8.60696 9.16732 7.91663C9.16732 7.22627 8.60765 6.66663 7.91732 6.66663ZM12.084 6.66663C11.3937 6.66663 10.834 7.22627 10.834 7.91663C10.834 8.60696 11.3937 9.16662 12.084 9.16662C12.7743 9.16662 13.334 8.60696 13.334 7.91663C13.334 7.22627 12.7743 6.66663 12.084 6.66663Z" fill="#E3E3E3"/>
</svg>
