<svg width="20" height="20" viewBox="0 0 20 20" fill="none" xmlns="http://www.w3.org/2000/svg">
<path d="M9.16732 0.833374V1.66671H5.83398C4.45328 1.66671 3.33398 2.786 3.33398 4.16671V6.66671C3.33398 8.96787 5.19947 10.8334 7.50065 10.8334H12.5007C14.8018 10.8334 16.6673 8.96787 16.6673 6.66671V4.16671C16.6673 2.786 15.5481 1.66671 14.1673 1.66671H10.834V0.833374H9.16732ZM5.00065 4.16671C5.00065 3.70647 5.37375 3.33337 5.83398 3.33337H14.1673C14.6276 3.33337 15.0007 3.70647 15.0007 4.16671V6.66671C15.0007 8.04742 13.8814 9.16671 12.5007 9.16671H7.50065C6.11994 9.16671 5.00065 8.04742 5.00065 6.66671V4.16671ZM7.91732 7.50004C8.60765 7.50004 9.16732 6.9404 9.16732 6.25004C9.16732 5.55968 8.60765 5.00004 7.91732 5.00004C7.22696 5.00004 6.66732 5.55968 6.66732 6.25004C6.66732 6.9404 7.22696 7.50004 7.91732 7.50004ZM12.084 7.50004C12.7743 7.50004 13.334 6.9404 13.334 6.25004C13.334 5.55968 12.7743 5.00004 12.084 5.00004C11.3937 5.00004 10.834 5.55968 10.834 6.25004C10.834 6.9404 11.3937 7.50004 12.084 7.50004ZM5.00065 18.3334C5.00065 15.572 7.23923 13.3334 10.0007 13.3334C12.7621 13.3334 15.0007 15.572 15.0007 18.3334H16.6673C16.6673 14.6515 13.6826 11.6667 10.0007 11.6667C6.31875 11.6667 3.33398 14.6515 3.33398 18.3334H5.00065Z" fill="#E3E3E3"/>
</svg>
