<svg width="20" height="20" viewBox="0 0 20 20" fill="none" xmlns="http://www.w3.org/2000/svg">
<path d="M15.0011 14.1666V18.3333H13.3345V14.1666C13.3345 10.4572 15.5378 7.26244 18.7071 5.81956L19.3969 7.33721C16.8039 8.51771 15.0011 11.1317 15.0011 14.1666ZM6.66786 14.1666V18.3333H5.00119V14.1666C5.00119 11.1317 3.19851 8.51771 0.605469 7.33721L1.29531 5.81956C4.46457 7.26244 6.66786 10.4572 6.66786 14.1666ZM10.0011 9.99996C7.7 9.99996 5.83452 8.13447 5.83452 5.83329C5.83452 3.53211 7.7 1.66663 10.0011 1.66663C12.3024 1.66663 14.1678 3.53211 14.1678 5.83329C14.1678 8.13447 12.3024 9.99996 10.0011 9.99996ZM10.0011 8.33329C11.3819 8.33329 12.5011 7.214 12.5011 5.83329C12.5011 4.45258 11.3819 3.33329 10.0011 3.33329C8.62048 3.33329 7.50119 4.45258 7.50119 5.83329C7.50119 7.214 8.62048 8.33329 10.0011 8.33329Z" fill="#E3E3E3"/>
</svg>
