<svg width="20" height="20" viewBox="0 0 20 20" fill="none" xmlns="http://www.w3.org/2000/svg">
<path d="M4.36149 6.44153C5.54419 4.57183 7.62785 3.33329 10.0002 3.33329C12.3725 3.33329 14.4562 4.57183 15.6389 6.44153L17.0474 5.55055C15.5721 3.21828 12.9677 1.66663 10.0002 1.66663C7.03273 1.66663 4.42828 3.21828 2.95297 5.55055L4.36149 6.44153ZM10.0002 16.6666C7.62785 16.6666 5.54419 15.4281 4.36149 13.5584L2.95297 14.4494C4.42828 16.7816 7.03273 18.3333 10.0002 18.3333C12.9677 18.3333 15.5721 16.7816 17.0474 14.4494L15.6389 13.5584C14.4562 15.4281 12.3725 16.6666 10.0002 16.6666ZM10 9.99996C11.3807 9.99996 12.5 8.88071 12.5 7.49996C12.5 6.11925 11.3807 4.99996 10 4.99996C8.61925 4.99996 7.5 6.11925 7.5 7.49996C7.5 8.88071 8.61925 9.99996 10 9.99996ZM10 10.8333C11.8409 10.8333 13.3333 12.3257 13.3333 14.1666H6.66667C6.66667 12.3257 8.15905 10.8333 10 10.8333ZM5 9.99996C5 11.3807 3.88071 12.5 2.5 12.5C1.11929 12.5 0 11.3807 0 9.99996C0 8.61921 1.11929 7.49996 2.5 7.49996C3.88071 7.49996 5 8.61921 5 9.99996ZM17.5 12.5C18.8807 12.5 20 11.3807 20 9.99996C20 8.61921 18.8807 7.49996 17.5 7.49996C16.1192 7.49996 15 8.61921 15 9.99996C15 11.3807 16.1192 12.5 17.5 12.5Z" fill="#E3E3E3"/>
</svg>
