<svg width="20" height="20" viewBox="0 0 20 20" fill="none" xmlns="http://www.w3.org/2000/svg">
<path d="M10.0007 11.6667V18.3334H3.33398C3.33398 14.6515 6.31875 11.6667 10.0007 11.6667ZM10.0007 10.8334C7.23815 10.8334 5.00065 8.59587 5.00065 5.83337C5.00065 3.07087 7.23815 0.833374 10.0007 0.833374C12.7632 0.833374 15.0007 3.07087 15.0007 5.83337C15.0007 8.59587 12.7632 10.8334 10.0007 10.8334ZM17.3577 17.357L15.0007 19.7141L12.6437 17.357C11.3419 16.0553 11.3419 13.9448 12.6437 12.643C13.9454 11.3413 16.0559 11.3413 17.3577 12.643C18.6594 13.9448 18.6594 16.0553 17.3577 17.357ZM15.0007 14.1667C14.5404 14.1667 14.1673 14.5398 14.1673 15C14.1673 15.4603 14.5404 15.8334 15.0007 15.8334C15.4609 15.8334 15.834 15.4603 15.834 15C15.834 14.5398 15.4609 14.1667 15.0007 14.1667Z" fill="#E3E3E3"/>
</svg>
