<svg width="20" height="20" viewBox="0 0 20 20" fill="none" xmlns="http://www.w3.org/2000/svg">
<path d="M10 1.66663C14.1422 1.66663 17.5 5.02449 17.5 9.16662C17.5 11.0025 16.8403 12.6844 15.7451 13.9881C16.7909 14.6796 17.4396 15.5628 17.496 16.5291L17.5 16.6666L10 18.3333L2.5 16.6666L2.50401 16.5291C2.56042 15.5629 3.20897 14.6798 4.25462 13.9882C3.15995 12.6851 2.5 11.003 2.5 9.16662C2.5 5.02449 5.85787 1.66663 10 1.66663ZM10 10.8333C8.84942 10.8333 7.91667 11.393 7.91667 12.0833C7.91667 12.7736 8.84942 13.3333 10 13.3333C11.1506 13.3333 12.0833 12.7736 12.0833 12.0833C12.0833 11.393 11.1506 10.8333 10 10.8333ZM7.5 6.66663C6.57952 6.66663 5.83333 7.22627 5.83333 7.91663C5.83333 8.60696 6.57952 9.16662 7.5 9.16662C8.4205 9.16662 9.16667 8.60696 9.16667 7.91663C9.16667 7.22627 8.4205 6.66663 7.5 6.66663ZM12.5 6.66663C11.5795 6.66663 10.8333 7.22627 10.8333 7.91663C10.8333 8.60696 11.5795 9.16662 12.5 9.16662C13.4205 9.16662 14.1667 8.60696 14.1667 7.91663C14.1667 7.22627 13.4205 6.66663 12.5 6.66663Z" fill="#E3E3E3"/>
</svg>
