<svg width="20" height="20" viewBox="0 0 20 20" fill="none" xmlns="http://www.w3.org/2000/svg">
<path d="M11.8792 18.1201L9.99935 20L8.11948 18.1201C4.42386 17.267 1.66602 13.9535 1.66602 9.99996C1.66602 5.39996 5.39935 1.66663 9.99935 1.66663C14.5993 1.66663 18.3327 5.39996 18.3327 9.99996C18.3327 13.9535 15.5748 17.267 11.8792 18.1201ZM5.01878 12.8469C6.24171 14.6724 8.07861 15.8333 10.1324 15.8333C12.1863 15.8333 14.0232 14.6724 15.2461 12.8469C13.9064 11.5976 12.1087 10.8333 10.1324 10.8333C8.15619 10.8333 6.35847 11.5976 5.01878 12.8469ZM9.99935 9.16663C11.3801 9.16663 12.4993 8.04734 12.4993 6.66663C12.4993 5.28592 11.3801 4.16663 9.99935 4.16663C8.6186 4.16663 7.49935 5.28592 7.49935 6.66663C7.49935 8.04734 8.6186 9.16663 9.99935 9.16663Z" fill="#E3E3E3"/>
</svg>
