<svg width="20" height="20" viewBox="0 0 20 20" fill="none" xmlns="http://www.w3.org/2000/svg">
<path d="M3.84828 9.09446C2.12948 8.75254 0.833984 7.23589 0.833984 5.41663C0.833984 3.34556 2.51292 1.66663 4.58398 1.66663C6.5862 1.66663 8.22192 3.23578 8.32847 5.21142C8.86282 5.07338 9.42315 4.99996 10.0007 4.99996C10.5782 4.99996 11.1385 5.07338 11.6728 5.21142C11.7794 3.23578 13.4151 1.66663 15.4173 1.66663C17.4884 1.66663 19.1673 3.34556 19.1673 5.41663C19.1673 7.23589 17.8718 8.75254 16.153 9.09446C16.4843 9.88596 16.6673 10.755 16.6673 11.6666C16.6673 15.3485 13.6826 18.3333 10.0007 18.3333C6.31875 18.3333 3.33398 15.3485 3.33398 11.6666C3.33398 10.755 3.51699 9.88596 3.84828 9.09446ZM2.50065 5.41663C2.50065 6.56722 3.43339 7.49996 4.58398 7.49996C4.65882 7.49996 4.73273 7.49602 4.80553 7.48832C5.3056 6.86734 5.91473 6.33788 6.60384 5.92903C6.64529 5.76511 6.66732 5.59343 6.66732 5.41663C6.66732 4.26603 5.73458 3.33329 4.58398 3.33329C3.43339 3.33329 2.50065 4.26603 2.50065 5.41663ZM15.1957 7.48832C15.2686 7.49602 15.3425 7.49996 15.4173 7.49996C16.5679 7.49996 17.5007 6.56722 17.5007 5.41663C17.5007 4.26603 16.5679 3.33329 15.4173 3.33329C14.2667 3.33329 13.334 4.26603 13.334 5.41663C13.334 5.59343 13.356 5.76511 13.3975 5.92903C14.0866 6.33788 14.6957 6.86734 15.1957 7.48832ZM5.00065 11.6666C5.00065 14.428 7.23923 16.6666 10.0007 16.6666C12.7621 16.6666 15.0007 14.428 15.0007 11.6666C15.0007 8.90521 12.7621 6.66663 10.0007 6.66663C7.23923 6.66663 5.00065 8.90521 5.00065 11.6666Z" fill="#E3E3E3"/>
</svg>
