<svg width="20" height="20" viewBox="0 0 20 20" fill="none" xmlns="http://www.w3.org/2000/svg">
<path d="M16.666 9.99996C16.666 6.31806 13.6813 3.33329 9.99935 3.33329C6.31745 3.33329 3.33268 6.31806 3.33268 9.99996V13.3333H5.83268C6.29291 13.3333 6.66601 13.7064 6.66601 14.1666V16.6666H13.3327V14.1666C13.3327 13.7064 13.7058 13.3333 14.166 13.3333H16.666V9.99996ZM14.9993 15V17.5C14.9993 17.9602 14.6263 18.3333 14.166 18.3333H5.83268C5.37245 18.3333 4.99935 17.9602 4.99935 17.5V15H2.49935C2.03912 15 1.66602 14.6269 1.66602 14.1666V9.99996C1.66602 5.39758 5.39697 1.66663 9.99935 1.66663C14.6017 1.66663 18.3327 5.39758 18.3327 9.99996V14.1666C18.3327 14.6269 17.9596 15 17.4993 15H14.9993ZM6.24935 11.6666C5.55899 11.6666 4.99935 11.107 4.99935 10.4166C4.99935 9.72629 5.55899 9.16662 6.24935 9.16662C6.93971 9.16662 7.49935 9.72629 7.49935 10.4166C7.49935 11.107 6.93971 11.6666 6.24935 11.6666ZM13.7493 11.6666C13.059 11.6666 12.4993 11.107 12.4993 10.4166C12.4993 9.72629 13.059 9.16662 13.7493 9.16662C14.4397 9.16662 14.9993 9.72629 14.9993 10.4166C14.9993 11.107 14.4397 11.6666 13.7493 11.6666Z" fill="#E3E3E3"/>
</svg>
