<svg width="20" height="20" viewBox="0 0 20 20" fill="none" xmlns="http://www.w3.org/2000/svg">
<path d="M5.83268 9.16663C3.76162 9.16663 2.08268 7.48769 2.08268 5.41663C2.08268 3.34556 3.76162 1.66663 5.83268 1.66663C7.90375 1.66663 9.58268 3.34556 9.58268 5.41663C9.58268 7.48769 7.90375 9.16663 5.83268 9.16663ZM14.5827 12.5C12.7418 12.5 11.2493 11.0075 11.2493 9.16663C11.2493 7.32568 12.7418 5.83329 14.5827 5.83329C16.4236 5.83329 17.916 7.32568 17.916 9.16663C17.916 11.0075 16.4236 12.5 14.5827 12.5ZM14.5827 13.3333C16.6538 13.3333 18.3327 15.0122 18.3327 17.0833V17.5H10.8327V17.0833C10.8327 15.0122 12.5116 13.3333 14.5827 13.3333ZM5.83268 9.99996C8.13386 9.99996 9.99935 11.8655 9.99935 14.1666V17.5H1.66602V14.1666C1.66602 11.8655 3.5315 9.99996 5.83268 9.99996Z" fill="#E3E3E3"/>
</svg>
