<svg width="20" height="20" viewBox="0 0 20 20" fill="none" xmlns="http://www.w3.org/2000/svg">
<path d="M16.6673 18.3334H15.0007V16.6667C15.0007 15.286 13.8814 14.1667 12.5007 14.1667H7.50065C6.11994 14.1667 5.00065 15.286 5.00065 16.6667V18.3334H3.33398V16.6667C3.33398 14.3655 5.19947 12.5 7.50065 12.5H12.5007C14.8018 12.5 16.6673 14.3655 16.6673 16.6667V18.3334ZM10.0007 10.8334C7.23923 10.8334 5.00065 8.59479 5.00065 5.83337C5.00065 3.07195 7.23923 0.833374 10.0007 0.833374C12.7621 0.833374 15.0007 3.07195 15.0007 5.83337C15.0007 8.59479 12.7621 10.8334 10.0007 10.8334ZM10.0007 9.16671C11.8416 9.16671 13.334 7.67432 13.334 5.83337C13.334 3.99242 11.8416 2.50004 10.0007 2.50004C8.1597 2.50004 6.66732 3.99242 6.66732 5.83337C6.66732 7.67432 8.1597 9.16671 10.0007 9.16671Z" fill="#E3E3E3"/>
</svg>
