<svg width="20" height="20" viewBox="0 0 20 20" fill="none" xmlns="http://www.w3.org/2000/svg">
<path d="M9.99935 1.66663C13.9113 1.66663 17.0827 4.83794 17.0827 8.74996C17.0827 14.1666 12.4993 18.75 9.99935 18.75C7.49935 18.75 2.91602 14.1666 2.91602 8.74996C2.91602 4.83794 6.08733 1.66663 9.99935 1.66663ZM14.5827 9.99996C12.5116 9.99996 10.8327 11.6789 10.8327 13.75C10.8327 13.8835 10.8397 14.0155 10.8537 14.146C10.9837 14.1596 11.1157 14.1666 11.2493 14.1666C13.3204 14.1666 14.9993 12.4877 14.9993 10.4166C14.9993 10.283 14.9923 10.151 14.9782 10.0205C14.8482 10.007 14.7163 9.99996 14.5827 9.99996ZM5.41602 9.99996C5.28237 9.99996 5.15036 10.007 5.01997 10.021C5.00634 10.151 4.99935 10.283 4.99935 10.4166C4.99935 12.4877 6.67828 14.1666 8.74935 14.1666C8.88293 14.1666 9.01485 14.1596 9.14543 14.1455C9.15902 14.0155 9.16602 13.8835 9.16602 13.75C9.16602 11.6789 7.48708 9.99996 5.41602 9.99996Z" fill="#E3E3E3"/>
</svg>
