<svg width="20" height="20" viewBox="0 0 20 20" fill="none" xmlns="http://www.w3.org/2000/svg">
<path d="M9.99935 9.16662C12.3005 9.16662 14.166 11.0321 14.166 13.3333V18.3333H12.4993V13.3333C12.4993 12.0019 11.4586 10.9135 10.1463 10.8375L9.99935 10.8333C8.66793 10.8333 7.57963 11.874 7.50359 13.1864L7.49935 13.3333V18.3333H5.83268V13.3333C5.83268 11.0321 7.69816 9.16662 9.99935 9.16662ZM4.58268 11.6666C4.81506 11.6666 5.04109 11.6938 5.25777 11.7451C5.1177 12.1616 5.03162 12.6016 5.00681 13.0577L4.99935 13.3333L4.99993 13.4046C4.90566 13.3713 4.80619 13.3489 4.70307 13.339L4.58268 13.3333C3.93293 13.3333 3.39897 13.829 3.33841 14.4629L3.33268 14.5833V18.3333H1.66602V14.5833C1.66602 12.9725 2.97185 11.6666 4.58268 11.6666ZM15.416 11.6666C17.0268 11.6666 18.3327 12.9725 18.3327 14.5833V18.3333H16.666V14.5833C16.666 13.9335 16.1703 13.3996 15.5364 13.339L15.416 13.3333C15.27 13.3333 15.1298 13.3583 14.9996 13.4043L14.9993 13.3333C14.9993 12.7785 14.909 12.245 14.7423 11.7463C14.9576 11.6938 15.1836 11.6666 15.416 11.6666ZM4.58268 6.66663C5.73327 6.66663 6.66601 7.59937 6.66601 8.74996C6.66601 9.90054 5.73327 10.8333 4.58268 10.8333C3.43209 10.8333 2.49935 9.90054 2.49935 8.74996C2.49935 7.59937 3.43209 6.66663 4.58268 6.66663ZM15.416 6.66663C16.5666 6.66663 17.4993 7.59937 17.4993 8.74996C17.4993 9.90054 16.5666 10.8333 15.416 10.8333C14.2654 10.8333 13.3327 9.90054 13.3327 8.74996C13.3327 7.59937 14.2654 6.66663 15.416 6.66663ZM4.58268 8.33329C4.35257 8.33329 4.16602 8.51988 4.16602 8.74996C4.16602 8.98004 4.35257 9.16662 4.58268 9.16662C4.8128 9.16662 4.99935 8.98004 4.99935 8.74996C4.99935 8.51988 4.8128 8.33329 4.58268 8.33329ZM15.416 8.33329C15.1859 8.33329 14.9993 8.51988 14.9993 8.74996C14.9993 8.98004 15.1859 9.16662 15.416 9.16662C15.6461 9.16662 15.8327 8.98004 15.8327 8.74996C15.8327 8.51988 15.6461 8.33329 15.416 8.33329ZM9.99935 1.66663C11.8403 1.66663 13.3327 3.15901 13.3327 4.99996C13.3327 6.84091 11.8403 8.33329 9.99935 8.33329C8.1584 8.33329 6.66601 6.84091 6.66601 4.99996C6.66601 3.15901 8.1584 1.66663 9.99935 1.66663ZM9.99935 3.33329C9.07885 3.33329 8.33268 4.07948 8.33268 4.99996C8.33268 5.92043 9.07885 6.66663 9.99935 6.66663C10.9198 6.66663 11.666 5.92043 11.666 4.99996C11.666 4.07948 10.9198 3.33329 9.99935 3.33329Z" fill="#E3E3E3"/>
</svg>
