<svg width="20" height="20" viewBox="0 0 20 20" fill="none" xmlns="http://www.w3.org/2000/svg">
<path d="M12.5409 7.11388L15.4882 4.16667H11.6667V2.5H18.3333V9.16667H16.6667V5.34518L13.7194 8.2924C14.5228 9.34392 15 10.6579 15 12.0833C15 15.5351 12.2018 18.3333 8.75 18.3333C5.29822 18.3333 2.5 15.5351 2.5 12.0833C2.5 8.63158 5.29822 5.83333 8.75 5.83333C10.1754 5.83333 11.4894 6.31053 12.5409 7.11388ZM8.75 16.6667C11.2813 16.6667 13.3333 14.6147 13.3333 12.0833C13.3333 9.552 11.2813 7.5 8.75 7.5C6.21869 7.5 4.16667 9.552 4.16667 12.0833C4.16667 14.6147 6.21869 16.6667 8.75 16.6667Z" fill="#E3E3E3"/>
</svg>
