<svg width="20" height="20" viewBox="0 0 20 20" fill="none" xmlns="http://www.w3.org/2000/svg">
<path d="M10 1.66663C14.1422 1.66663 17.5 5.02449 17.5 9.16662V15.4166C17.5 17.0275 16.1942 18.3333 14.5833 18.3333C13.5834 18.3333 12.7011 17.8301 12.1756 17.0633C11.748 17.8214 10.9338 18.3333 10 18.3333C9.06625 18.3333 8.252 17.8214 7.82273 17.0628C7.29891 17.8301 6.41654 18.3333 5.41667 18.3333C3.85953 18.3333 2.58739 17.113 2.50432 15.5766L2.5 15.4166V9.16662C2.5 5.02449 5.85787 1.66663 10 1.66663ZM13.3333 10.8333H11.6667C11.6667 11.7538 10.9205 12.5 10 12.5C9.12133 12.5 8.4015 11.82 8.33792 10.9577L8.33333 10.8333H6.66667L6.67075 10.9996C6.75743 12.7633 8.21483 14.1666 10 14.1666C11.7852 14.1666 13.2426 12.7633 13.3292 10.9996L13.3333 10.8333ZM10 5.83329C9.0795 5.83329 8.33333 6.57948 8.33333 7.49996C8.33333 8.42046 9.0795 9.16662 10 9.16662C10.9205 9.16662 11.6667 8.42046 11.6667 7.49996C11.6667 6.57948 10.9205 5.83329 10 5.83329Z" fill="#E3E3E3"/>
</svg>
