<svg width="20" height="20" viewBox="0 0 20 20" fill="none" xmlns="http://www.w3.org/2000/svg">
<path d="M9.99935 1.66663C13.9113 1.66663 17.0827 4.83794 17.0827 8.74996C17.0827 14.1666 12.4993 18.75 9.99935 18.75C7.49935 18.75 2.91602 14.1666 2.91602 8.74996C2.91602 4.83794 6.08733 1.66663 9.99935 1.66663ZM9.99935 3.33329C7.00781 3.33329 4.58268 5.75842 4.58268 8.74996C4.58268 12.7448 8.05352 17.0833 9.99935 17.0833C11.9452 17.0833 15.416 12.7448 15.416 8.74996C15.416 5.75842 12.9909 3.33329 9.99935 3.33329ZM14.5827 9.16663C14.7163 9.16663 14.8482 9.17363 14.9782 9.18721C14.9923 9.31763 14.9993 9.44963 14.9993 9.58329C14.9993 11.6544 13.3204 13.3333 11.2493 13.3333C11.1157 13.3333 10.9837 13.3263 10.8537 13.3126C10.8397 13.1821 10.8327 13.0502 10.8327 12.9166C10.8327 10.8455 12.5116 9.16663 14.5827 9.16663ZM5.41602 9.16663C7.48708 9.16663 9.16602 10.8455 9.16602 12.9166C9.16602 13.0502 9.15902 13.1821 9.14543 13.3121C9.01485 13.3263 8.88293 13.3333 8.74935 13.3333C6.67828 13.3333 4.99935 11.6544 4.99935 9.58329C4.99935 9.44963 5.00634 9.31763 5.01997 9.18763C5.15036 9.17363 5.28237 9.16663 5.41602 9.16663Z" fill="#E3E3E3"/>
</svg>
