<svg width="20" height="20" viewBox="0 0 20 20" fill="none" xmlns="http://www.w3.org/2000/svg">
<path d="M11.6673 11.8767V13.6179C11.146 13.4336 10.5851 13.3334 10.0007 13.3334C7.23923 13.3334 5.00065 15.572 5.00065 18.3334H3.33398C3.33398 14.6515 6.31875 11.6667 10.0007 11.6667C10.5762 11.6667 11.1347 11.7396 11.6673 11.8767ZM10.0007 10.8334C7.23815 10.8334 5.00065 8.59587 5.00065 5.83337C5.00065 3.07087 7.23815 0.833374 10.0007 0.833374C12.7632 0.833374 15.0007 3.07087 15.0007 5.83337C15.0007 8.59587 12.7632 10.8334 10.0007 10.8334ZM10.0007 9.16671C11.8423 9.16671 13.334 7.67504 13.334 5.83337C13.334 3.99171 11.8423 2.50004 10.0007 2.50004C8.15899 2.50004 6.66732 3.99171 6.66732 5.83337C6.66732 7.67504 8.15899 9.16671 10.0007 9.16671ZM14.8281 16.5952L17.7743 13.649L18.9528 14.8275L14.8281 18.9522L11.8818 16.006L13.0603 14.8275L14.8281 16.5952Z" fill="#E3E3E3"/>
</svg>
