<svg width="20" height="20" viewBox="0 0 20 20" fill="none" xmlns="http://www.w3.org/2000/svg">
<path d="M9.99935 1.66663C14.6017 1.66663 18.3327 5.39758 18.3327 9.99996V13.1365C18.3327 13.7679 17.976 14.345 17.4113 14.6273L14.9993 15.8333V16.6666C14.9993 17.998 13.9586 19.0864 12.6463 19.1624L12.4576 19.167C12.4758 19.0771 12.4883 18.9852 12.4946 18.8916L12.4993 18.75V18.3333C12.4993 17.4546 11.8194 16.7348 10.9571 16.6712L10.8327 16.6666H9.16601C8.28738 16.6666 7.56754 17.3465 7.50392 18.2089L7.49935 18.3333V18.75C7.49935 18.8928 7.51372 19.0322 7.5411 19.167L7.49935 19.1666C6.11864 19.1666 4.99935 18.0474 4.99935 16.6666V15.8333L2.58732 14.6273C2.02268 14.345 1.66602 13.7679 1.66602 13.1365V9.99996C1.66602 5.39758 5.39697 1.66663 9.99935 1.66663ZM6.66601 9.16663C5.74554 9.16663 4.99935 9.91279 4.99935 10.8333C4.99935 11.7538 5.74554 12.5 6.66601 12.5C7.58649 12.5 8.33268 11.7538 8.33268 10.8333C8.33268 9.91279 7.58649 9.16663 6.66601 9.16663ZM13.3327 9.16663C12.4122 9.16663 11.666 9.91279 11.666 10.8333C11.666 11.7538 12.4122 12.5 13.3327 12.5C14.2532 12.5 14.9993 11.7538 14.9993 10.8333C14.9993 9.91279 14.2532 9.16663 13.3327 9.16663Z" fill="#E3E3E3"/>
</svg>
