<svg width="20" height="20" viewBox="0 0 20 20" fill="none" xmlns="http://www.w3.org/2000/svg">
<path d="M7.4602 7.11384C8.51173 6.31048 9.82565 5.83329 11.2511 5.83329C14.7029 5.83329 17.5011 8.63153 17.5011 12.0833C17.5011 15.5351 14.7029 18.3333 11.2511 18.3333C7.79936 18.3333 5.00113 15.5351 5.00113 12.0833C5.00113 10.6579 5.47833 9.34386 6.28169 8.29235L3.88544 5.89611L1.82304 7.9585L0.644531 6.77999L5.94783 1.47668L7.12635 2.6552L5.06395 4.71759L7.4602 7.11384ZM11.2511 16.6666C13.7824 16.6666 15.8345 14.6146 15.8345 12.0833C15.8345 9.55203 13.7824 7.49996 11.2511 7.49996C8.71981 7.49996 6.6678 9.55203 6.6678 12.0833C6.6678 14.6146 8.71981 16.6666 11.2511 16.6666Z" fill="#E3E3E3"/>
</svg>
