<svg width="20" height="20" viewBox="0 0 20 20" fill="none" xmlns="http://www.w3.org/2000/svg">
<g clip-path="url(#clip0_1534_163)">
<path d="M10.0007 11.6667V13.3334C7.23923 13.3334 5.00065 15.572 5.00065 18.3334H3.33398C3.33398 14.6515 6.31875 11.6667 10.0007 11.6667ZM10.0007 10.8334C7.23815 10.8334 5.00065 8.59587 5.00065 5.83337C5.00065 3.07087 7.23815 0.833374 10.0007 0.833374C12.7632 0.833374 15.0007 3.07087 15.0007 5.83337C15.0007 8.59587 12.7632 10.8334 10.0007 10.8334ZM10.0007 9.16671C11.8423 9.16671 13.334 7.67504 13.334 5.83337C13.334 3.99171 11.8423 2.50004 10.0007 2.50004C8.15899 2.50004 6.66732 3.99171 6.66732 5.83337C6.66732 7.67504 8.15899 9.16671 10.0007 9.16671ZM17.3577 17.5593L15.0007 20L12.6437 17.5593C11.3419 16.2113 11.3419 14.0257 12.6437 12.6777C13.9454 11.3297 16.0559 11.3297 17.3577 12.6777C18.6594 14.0257 18.6594 16.2113 17.3577 17.5593ZM16.1587 16.4015C16.8368 15.6994 16.8368 14.5376 16.1587 13.8355C15.5123 13.166 14.489 13.166 13.8426 13.8355C13.1645 14.5376 13.1645 15.6994 13.8426 16.4015L15.0007 17.6008L16.1587 16.4015Z" fill="#E3E3E3"/>
</g>
<defs>
<clipPath id="clip0_1534_163">
<rect width="20" height="20" fill="white"/>
</clipPath>
</defs>
</svg>
