<svg width="20" height="20" viewBox="0 0 20 20" fill="none" xmlns="http://www.w3.org/2000/svg">
<path d="M1.66602 18.3334C1.66602 14.6515 4.65078 11.6667 8.33268 11.6667C12.0146 11.6667 14.9993 14.6515 14.9993 18.3334H13.3327C13.3327 15.572 11.0941 13.3334 8.33268 13.3334C5.57126 13.3334 3.33268 15.572 3.33268 18.3334H1.66602ZM8.33268 10.8334C5.57018 10.8334 3.33268 8.59587 3.33268 5.83337C3.33268 3.07087 5.57018 0.833374 8.33268 0.833374C11.0952 0.833374 13.3327 3.07087 13.3327 5.83337C13.3327 8.59587 11.0952 10.8334 8.33268 10.8334ZM8.33268 9.16671C10.1743 9.16671 11.666 7.67504 11.666 5.83337C11.666 3.99171 10.1743 2.50004 8.33268 2.50004C6.49102 2.50004 4.99935 3.99171 4.99935 5.83337C4.99935 7.67504 6.49102 9.16671 8.33268 9.16671ZM15.2358 12.2524C17.553 13.2968 19.166 15.6267 19.166 18.3334H17.4993C17.4993 16.3034 16.2896 14.556 14.5517 13.7726L15.2358 12.2524ZM14.6628 2.84438C16.328 3.5309 17.4993 5.16972 17.4993 7.08337C17.4993 9.47521 15.6695 11.4377 13.3327 11.648V9.97054C14.7466 9.76854 15.8327 8.55337 15.8327 7.08337C15.8327 5.93283 15.1673 4.9384 14.2002 4.46367L14.6628 2.84438Z" fill="#E3E3E3"/>
</svg>
