<svg width="20" height="20" viewBox="0 0 20 20" fill="none" xmlns="http://www.w3.org/2000/svg">
<path d="M9.99935 18.3333C5.39697 18.3333 1.66602 14.6023 1.66602 9.99996C1.66602 5.39758 5.39697 1.66663 9.99935 1.66663C14.6017 1.66663 18.3327 5.39758 18.3327 9.99996C18.3327 14.6023 14.6017 18.3333 9.99935 18.3333ZM5.83268 14.1666H7.49935C7.49935 12.7859 8.6186 11.6666 9.99935 11.6666C11.3801 11.6666 12.4993 12.7859 12.4993 14.1666H14.166C14.166 11.8655 12.3005 9.99996 9.99935 9.99996C7.69816 9.99996 5.83268 11.8655 5.83268 14.1666ZM6.66601 9.16662C7.35637 9.16662 7.91601 8.60696 7.91601 7.91663C7.91601 7.22627 7.35637 6.66663 6.66601 6.66663C5.97566 6.66663 5.41601 7.22627 5.41601 7.91663C5.41601 8.60696 5.97566 9.16662 6.66601 9.16662ZM13.3327 9.16662C14.023 9.16662 14.5827 8.60696 14.5827 7.91663C14.5827 7.22627 14.023 6.66663 13.3327 6.66663C12.6423 6.66663 12.0827 7.22627 12.0827 7.91663C12.0827 8.60696 12.6423 9.16662 13.3327 9.16662Z" fill="#E3E3E3"/>
</svg>
