<svg width="20" height="20" viewBox="0 0 20 20" fill="none" xmlns="http://www.w3.org/2000/svg">
<path d="M1.66602 18.3334C1.66602 14.6515 4.65078 11.6667 8.33268 11.6667C12.0146 11.6667 14.9994 14.6515 14.9994 18.3334H1.66602ZM8.33268 10.8334C5.57018 10.8334 3.33268 8.59587 3.33268 5.83337C3.33268 3.07087 5.57018 0.833374 8.33268 0.833374C11.0952 0.833374 13.3327 3.07087 13.3327 5.83337C13.3327 8.59587 11.0952 10.8334 8.33268 10.8334ZM16.666 14.1667H19.9994V15.8334H16.666V14.1667ZM14.166 10H19.9994V11.6667H14.166V10ZM15.8327 5.83337H19.9994V7.50004H15.8327V5.83337Z" fill="#E3E3E3"/>
</svg>
