<svg width="20" height="20" viewBox="0 0 20 20" fill="none" xmlns="http://www.w3.org/2000/svg">
<path d="M3.33398 18.3334C3.33398 14.6515 6.31875 11.6667 10.0007 11.6667C13.6826 11.6667 16.6673 14.6515 16.6673 18.3334H3.33398ZM10.834 13.4025V16.6667H14.7162C14.1192 14.978 12.641 13.7056 10.834 13.4025ZM9.16732 16.6667V13.4025C7.36036 13.7056 5.88203 14.978 5.28516 16.6667H9.16732ZM10.0007 10.8334C7.23815 10.8334 5.00065 8.59587 5.00065 5.83337C5.00065 3.07087 7.23815 0.833374 10.0007 0.833374C12.7632 0.833374 15.0007 3.07087 15.0007 5.83337C15.0007 8.59587 12.7632 10.8334 10.0007 10.8334ZM10.0007 9.16671C11.8427 9.16671 13.334 7.6754 13.334 5.83337C13.334 3.99135 11.8427 2.50004 10.0007 2.50004C8.15863 2.50004 6.66732 3.99135 6.66732 5.83337C6.66732 7.6754 8.15863 9.16671 10.0007 9.16671Z" fill="#E3E3E3"/>
</svg>
