<svg width="20" height="20" viewBox="0 0 20 20" fill="none" xmlns="http://www.w3.org/2000/svg">
<path d="M6.15847 13.7821C4.44977 12.575 3.33398 10.5845 3.33398 8.33329C3.33398 4.65139 6.31875 1.66663 10.0007 1.66663C13.6826 1.66663 16.6673 4.65139 16.6673 8.33329C16.6673 10.5845 15.5516 12.575 13.8428 13.7821L15.5786 17.7496C15.6709 17.9605 15.5747 18.2061 15.3639 18.2984C15.3112 18.3214 15.2544 18.3333 15.1969 18.3333H4.80441C4.57429 18.3333 4.38774 18.1467 4.38774 17.9166C4.38774 17.8591 4.39963 17.8023 4.42268 17.7496L6.15847 13.7821ZM11.7712 13.205L12.8812 12.4208C14.2015 11.4881 15.0007 9.97929 15.0007 8.33329C15.0007 5.57187 12.7621 3.33329 10.0007 3.33329C7.23923 3.33329 5.00065 5.57187 5.00065 8.33329C5.00065 9.97929 5.79983 11.4881 7.12011 12.4208L8.23014 13.205L6.71568 16.6666H13.2857L11.7712 13.205ZM6.76608 9.14196L8.3834 8.73762C8.56407 9.46271 9.21965 9.99996 10.0007 9.99996C10.7817 9.99996 11.4372 9.46271 11.6179 8.73762L13.2352 9.14196C12.8738 10.5921 11.5627 11.6666 10.0007 11.6666C8.43857 11.6666 7.12746 10.5921 6.76608 9.14196Z" fill="#E3E3E3"/>
</svg>
