<svg width="20" height="20" viewBox="0 0 20 20" fill="none" xmlns="http://www.w3.org/2000/svg">
<path d="M0.833984 18.3333C0.833984 14.6514 3.81875 11.6666 7.50065 11.6666C11.1826 11.6666 14.1673 14.6514 14.1673 18.3333H0.833984ZM7.50065 10.8333C4.73815 10.8333 2.50065 8.59581 2.50065 5.83333C2.50065 3.07083 4.73815 0.83333 7.50065 0.83333C10.2632 0.83333 12.5007 3.07083 12.5007 5.83333C12.5007 8.59581 10.2632 10.8333 7.50065 10.8333ZM15.2059 2.65374C15.6107 3.63353 15.834 4.70735 15.834 5.83333C15.834 6.9593 15.6107 8.03312 15.2059 9.0129L13.8085 7.9966C14.0411 7.31826 14.1673 6.59054 14.1673 5.83333C14.1673 5.07611 14.0411 4.34839 13.8085 3.67005L15.2059 2.65374ZM17.957 0.652954C18.7317 2.21374 19.1673 3.97267 19.1673 5.83333C19.1673 7.69399 18.7317 9.4529 17.957 11.0137L16.5862 10.0167C17.1732 8.74398 17.5007 7.3269 17.5007 5.83333C17.5007 4.33975 17.1732 2.92265 16.5862 1.6499L17.957 0.652954Z" fill="#E3E3E3"/>
</svg>
