<svg width="20" height="20" viewBox="0 0 20 20" fill="none" xmlns="http://www.w3.org/2000/svg">
<path d="M15.4173 1.66663C17.4884 1.66663 19.1673 3.34556 19.1673 5.41663C19.1673 7.23591 17.8718 8.75262 16.153 9.09446C16.4842 9.88521 16.6673 10.7545 16.6673 11.6666C16.6673 15.3485 13.6826 18.3333 10.0007 18.3333C6.31875 18.3333 3.33398 15.3485 3.33398 11.6666C3.33398 10.7545 3.51716 9.88521 3.84873 9.09337C2.12951 8.75262 0.833984 7.23591 0.833984 5.41663C0.833984 3.34556 2.51292 1.66663 4.58398 1.66663C6.5863 1.66663 8.22208 3.23593 8.32849 5.21171C8.86298 5.07337 9.42323 4.99996 10.0007 4.99996C10.5781 4.99996 11.1383 5.07337 11.6727 5.21136C11.7792 3.23593 13.415 1.66663 15.4173 1.66663Z" fill="#E3E3E3"/>
</svg>
