<svg width="20" height="20" viewBox="0 0 20 20" fill="none" xmlns="http://www.w3.org/2000/svg">
<path d="M4.16732 16.6666H15.834V18.3333H4.16732V16.6666ZM10.0007 15C6.31875 15 3.33398 12.0152 3.33398 8.33329C3.33398 4.65139 6.31875 1.66663 10.0007 1.66663C13.6826 1.66663 16.6673 4.65139 16.6673 8.33329C16.6673 12.0152 13.6826 15 10.0007 15ZM10.0007 13.3333C12.7621 13.3333 15.0007 11.0947 15.0007 8.33329C15.0007 5.57187 12.7621 3.33329 10.0007 3.33329C7.23923 3.33329 5.00065 5.57187 5.00065 8.33329C5.00065 11.0947 7.23923 13.3333 10.0007 13.3333Z" fill="#E3E3E3"/>
</svg>
