<svg width="20" height="20" viewBox="0 0 20 20" fill="none" xmlns="http://www.w3.org/2000/svg">
<path d="M8.33268 16.4566V13.6666C8.33268 12.5978 9.16168 11.7563 10.3883 11.2767C9.6186 10.99 8.7856 10.8333 7.91601 10.8333C6.34112 10.8333 4.88628 11.3473 3.71007 12.2166C4.44267 14.2953 6.17662 15.9016 8.33268 16.4566ZM15.7322 13.4049C15.4045 12.9605 14.3083 12.5 12.916 12.5C11.2443 12.5 9.99935 13.1639 9.99935 13.6666V16.6666C12.4373 16.6666 14.5696 15.358 15.7322 13.4049ZM7.95768 9.58329C8.99318 9.58329 9.83268 8.74379 9.83268 7.70829C9.83268 6.67276 8.99318 5.83329 7.95768 5.83329C6.92215 5.83329 6.08268 6.67276 6.08268 7.70829C6.08268 8.74379 6.92215 9.58329 7.95768 9.58329ZM12.916 10.4166C13.8365 10.4166 14.5827 9.67046 14.5827 8.74996C14.5827 7.82948 13.8365 7.08329 12.916 7.08329C11.9955 7.08329 11.2493 7.82948 11.2493 8.74996C11.2493 9.67046 11.9955 10.4166 12.916 10.4166ZM9.99935 18.3333C5.39697 18.3333 1.66602 14.6023 1.66602 9.99996C1.66602 5.39758 5.39697 1.66663 9.99935 1.66663C14.6017 1.66663 18.3327 5.39758 18.3327 9.99996C18.3327 14.6023 14.6017 18.3333 9.99935 18.3333Z" fill="#E3E3E3"/>
</svg>
