<svg width="20" height="20" viewBox="0 0 20 20" fill="none" xmlns="http://www.w3.org/2000/svg">
<path d="M9.99935 14.1666C11.8403 14.1666 13.3327 12.6742 13.3327 10.8333H11.666C11.666 11.7538 10.9198 12.5 9.99935 12.5C9.07885 12.5 8.33268 11.7538 8.33268 10.8333H6.66601C6.66601 12.6742 8.1584 14.1666 9.99935 14.1666ZM5.41601 1.66663C3.34495 1.66663 1.66602 3.34556 1.66602 5.41663C1.66602 6.5477 2.16702 7.56106 2.95713 8.24788C2.66088 9.05462 2.49935 9.92579 2.49935 10.8333C2.49935 14.9755 5.85721 18.3333 9.99935 18.3333C14.1415 18.3333 17.4993 14.9755 17.4993 10.8333C17.4993 9.92579 17.3378 9.05462 17.0416 8.24788C17.8317 7.56106 18.3327 6.5477 18.3327 5.41663C18.3327 3.34556 16.6538 1.66663 14.5827 1.66663C13.2274 1.66663 12.0414 2.38529 11.3828 3.46077C10.9339 3.37701 10.4714 3.33329 9.99935 3.33329C9.52726 3.33329 9.06476 3.37701 8.61593 3.46077C7.95726 2.38529 6.77131 1.66663 5.41601 1.66663ZM3.33268 5.41663C3.33268 4.26603 4.26542 3.33329 5.41601 3.33329C6.31629 3.33329 7.08521 3.90477 7.37576 4.70743L7.64068 5.43928L8.38893 5.22488C8.89943 5.07858 9.43951 4.99996 9.99935 4.99996C10.5592 4.99996 11.0993 5.07858 11.6098 5.22488L12.358 5.43928L12.6229 4.70743C12.9135 3.90477 13.6824 3.33329 14.5827 3.33329C15.7333 3.33329 16.666 4.26603 16.666 5.41663C16.666 6.19413 16.2405 6.87332 15.6056 7.23212L14.9278 7.61522L15.264 8.31752C15.6283 9.07821 15.8327 9.93071 15.8327 10.8333C15.8327 14.055 13.221 16.6666 9.99935 16.6666C6.77769 16.6666 4.16602 14.055 4.16602 10.8333C4.16602 9.93071 4.37042 9.07821 4.73468 8.31752L5.07097 7.61522L4.39308 7.23213C3.75822 6.87333 3.33268 6.19413 3.33268 5.41663Z" fill="#E3E3E3"/>
</svg>
