<svg width="20" height="20" viewBox="0 0 20 20" fill="none" xmlns="http://www.w3.org/2000/svg">
<path d="M14.1673 1.66671H10.834V0.833374H9.16732V1.66671H5.83398C4.45328 1.66671 3.33398 2.786 3.33398 4.16671V6.66671C3.33398 8.96787 5.19947 10.8334 7.50065 10.8334H12.5007C14.8018 10.8334 16.6673 8.96787 16.6673 6.66671V4.16671C16.6673 2.786 15.5481 1.66671 14.1673 1.66671ZM9.16732 6.25004C9.16732 6.9404 8.60765 7.50004 7.91732 7.50004C7.22696 7.50004 6.66732 6.9404 6.66732 6.25004C6.66732 5.55968 7.22696 5.00004 7.91732 5.00004C8.60765 5.00004 9.16732 5.55968 9.16732 6.25004ZM13.334 6.25004C13.334 6.9404 12.7743 7.50004 12.084 7.50004C11.3937 7.50004 10.834 6.9404 10.834 6.25004C10.834 5.55968 11.3937 5.00004 12.084 5.00004C12.7743 5.00004 13.334 5.55968 13.334 6.25004ZM3.33398 18.3334C3.33398 14.6515 6.31875 11.6667 10.0007 11.6667C13.6826 11.6667 16.6673 14.6515 16.6673 18.3334H3.33398Z" fill="#E3E3E3"/>
</svg>
