<svg width="20" height="20" viewBox="0 0 20 20" fill="none" xmlns="http://www.w3.org/2000/svg">
<path d="M10 1.66663C14.1422 1.66663 17.5 5.02449 17.5 9.16662V15.4166C17.5 17.0275 16.1942 18.3333 14.5833 18.3333C13.5834 18.3333 12.7011 17.8301 12.1756 17.0633C11.748 17.8214 10.9338 18.3333 10 18.3333C9.06625 18.3333 8.252 17.8214 7.82273 17.0628C7.29891 17.8301 6.41654 18.3333 5.41667 18.3333C3.85953 18.3333 2.58739 17.113 2.50432 15.5766L2.5 15.4166V9.16662C2.5 5.02449 5.85787 1.66663 10 1.66663ZM10 9.99996C9.0795 9.99996 8.33333 10.9327 8.33333 12.0833C8.33333 13.2339 9.0795 14.1666 10 14.1666C10.9205 14.1666 11.6667 13.2339 11.6667 12.0833C11.6667 10.9327 10.9205 9.99996 10 9.99996ZM7.91667 6.66663C7.22631 6.66663 6.66667 7.22627 6.66667 7.91663C6.66667 8.60696 7.22631 9.16662 7.91667 9.16662C8.607 9.16662 9.16667 8.60696 9.16667 7.91663C9.16667 7.22627 8.607 6.66663 7.91667 6.66663ZM12.0833 6.66663C11.393 6.66663 10.8333 7.22627 10.8333 7.91663C10.8333 8.60696 11.393 9.16662 12.0833 9.16662C12.7737 9.16662 13.3333 8.60696 13.3333 7.91663C13.3333 7.22627 12.7737 6.66663 12.0833 6.66663Z" fill="#E3E3E3"/>
</svg>
