<svg width="20" height="20" viewBox="0 0 20 20" fill="none" xmlns="http://www.w3.org/2000/svg">
<path d="M8.11986 18.1205C4.42267 17.2682 1.66602 13.956 1.66602 9.99996C1.66602 5.39758 5.39697 1.66663 9.99935 1.66663C14.6017 1.66663 18.3327 5.39758 18.3327 9.99996C18.3327 13.956 15.576 17.2682 11.8788 18.1205L9.99935 20L8.11986 18.1205ZM5.84246 15.2139C6.60307 15.8216 7.50296 16.2679 8.49426 16.4964L8.96026 16.6038L9.99935 17.643L11.0384 16.6038L11.5044 16.4964C12.5614 16.2527 13.5146 15.7615 14.3057 15.0909C13.2464 14.0065 11.7681 13.3333 10.1324 13.3333C8.43585 13.3333 6.90837 14.0576 5.84246 15.2139ZM4.67903 14.0178C6.04638 12.57 7.9839 11.6666 10.1324 11.6666C12.2027 11.6666 14.0769 12.5054 15.434 13.8616C16.2129 12.7654 16.666 11.4284 16.666 9.99996C16.666 6.31806 13.6813 3.33329 9.99935 3.33329C6.31745 3.33329 3.33268 6.31806 3.33268 9.99996C3.33268 11.497 3.83025 12.8935 4.67903 14.0178ZM9.99935 10.8333C8.1584 10.8333 6.66601 9.34088 6.66601 7.49996C6.66601 5.65901 8.1584 4.16663 9.99935 4.16663C11.8403 4.16663 13.3327 5.65901 13.3327 7.49996C13.3327 9.34088 11.8403 10.8333 9.99935 10.8333ZM9.99935 9.16663C10.9198 9.16663 11.666 8.42046 11.666 7.49996C11.666 6.57948 10.9198 5.83329 9.99935 5.83329C9.07885 5.83329 8.33268 6.57948 8.33268 7.49996C8.33268 8.42046 9.07885 9.16663 9.99935 9.16663Z" fill="#E3E3E3"/>
</svg>
