<svg width="20" height="20" viewBox="0 0 20 20" fill="none" xmlns="http://www.w3.org/2000/svg">
<path d="M10.0007 11.6667V18.3334H3.33398C3.33398 14.6515 6.31875 11.6667 10.0007 11.6667ZM15.0007 17.9167L12.5516 19.2043L13.0193 16.4771L11.0379 14.5458L13.7761 14.148L15.0007 11.6667L16.2252 14.148L18.9634 14.5458L16.982 16.4771L17.4497 19.2043L15.0007 17.9167ZM10.0007 10.8334C7.23815 10.8334 5.00065 8.59587 5.00065 5.83337C5.00065 3.07087 7.23815 0.833374 10.0007 0.833374C12.7632 0.833374 15.0007 3.07087 15.0007 5.83337C15.0007 8.59587 12.7632 10.8334 10.0007 10.8334Z" fill="#E3E3E3"/>
</svg>
