<svg width="20" height="20" viewBox="0 0 20 20" fill="none" xmlns="http://www.w3.org/2000/svg">
<path d="M14.8682 13.0492L15.0148 13.1967L15.1627 13.0492C15.895 12.317 17.0822 12.317 17.8144 13.0492C18.5467 13.7815 18.5467 14.9686 17.8144 15.7009L15.0155 18.4998L12.2165 15.7009C11.4842 14.9686 11.4842 13.7815 12.2165 13.0492C12.9487 12.317 14.1359 12.317 14.8682 13.0492ZM10.0007 11.6667V18.3334H3.33398C3.33398 14.721 6.20718 11.7796 9.79298 11.6699L10.0007 11.6667ZM10.0007 0.833374C12.7632 0.833374 15.0007 3.07087 15.0007 5.83337C15.0007 8.59587 12.7632 10.8334 10.0007 10.8334C7.23815 10.8334 5.00065 8.59587 5.00065 5.83337C5.00065 3.07087 7.23815 0.833374 10.0007 0.833374Z" fill="#E3E3E3"/>
</svg>
