<svg width="20" height="20" viewBox="0 0 20 20" fill="none" xmlns="http://www.w3.org/2000/svg">
<path d="M7.95768 9.58329C6.92215 9.58329 6.08268 8.74379 6.08268 7.70829C6.08268 6.67276 6.92215 5.83329 7.95768 5.83329C8.99318 5.83329 9.83268 6.67276 9.83268 7.70829C9.83268 8.74379 8.99318 9.58329 7.95768 9.58329ZM8.33268 16.4566V13.6666C8.33268 13.2596 8.45285 12.8855 8.66943 12.552C8.42326 12.5177 8.17169 12.5 7.91601 12.5C6.60936 12.5 5.41076 12.9626 4.47511 13.733C5.37359 15.06 6.73762 16.046 8.33268 16.4566ZM3.71007 12.2166C4.88628 11.3473 6.34112 10.8333 7.91601 10.8333C8.7856 10.8333 9.6186 10.99 10.3883 11.2767C11.1199 10.9906 11.993 10.8333 12.916 10.8333C14.2991 10.8333 15.5701 11.1865 16.421 11.7969C16.5807 11.2252 16.666 10.6225 16.666 9.99996C16.666 6.31806 13.6813 3.33329 9.99935 3.33329C6.31745 3.33329 3.33268 6.31806 3.33268 9.99996C3.33268 10.777 3.46565 11.5231 3.71007 12.2166ZM15.7322 13.4049C15.4045 12.9605 14.3083 12.5 12.916 12.5C11.2443 12.5 9.99935 13.1639 9.99935 13.6666V16.6666C12.4373 16.6666 14.5696 15.358 15.7322 13.4049ZM9.99935 18.3333C5.39697 18.3333 1.66602 14.6023 1.66602 9.99996C1.66602 5.39758 5.39697 1.66663 9.99935 1.66663C14.6017 1.66663 18.3327 5.39758 18.3327 9.99996C18.3327 14.6023 14.6017 18.3333 9.99935 18.3333ZM12.916 10.4166C11.9955 10.4166 11.2493 9.67046 11.2493 8.74996C11.2493 7.82948 11.9955 7.08329 12.916 7.08329C13.8365 7.08329 14.5827 7.82948 14.5827 8.74996C14.5827 9.67046 13.8365 10.4166 12.916 10.4166Z" fill="#E3E3E3"/>
</svg>
