<svg width="20" height="20" viewBox="0 0 20 20" fill="none" xmlns="http://www.w3.org/2000/svg">
<path d="M10.0007 1.66663C12.9173 1.66663 15.0007 4.16663 15.834 6.66663C18.334 7.49996 19.1673 9.77496 19.1673 11.6666L16.8551 12.3273C16.4973 12.4295 16.2507 12.7565 16.2507 13.1285V14.375C16.2507 15.1804 15.5977 15.8333 14.7923 15.8333H14.2953C13.7361 15.8333 13.2142 16.1138 12.9055 16.5801C12.132 17.7489 11.1637 18.3333 10.0007 18.3333C8.83757 18.3333 7.8693 17.7489 7.09582 16.5801C6.78718 16.1138 6.2652 15.8333 5.70595 15.8333H5.20898C4.40357 15.8333 3.75065 15.1804 3.75065 14.375V13.1285C3.75065 12.7565 3.504 12.4295 3.14625 12.3273L0.833984 11.6666C0.833984 9.77804 1.66732 7.49996 4.16732 6.66663C5.00065 4.16663 7.08399 1.66663 10.0007 1.66663ZM10.0007 3.33329C8.24282 3.33329 6.61343 4.82319 5.82452 6.97619L5.74846 7.19367L5.48493 7.98424L4.69437 8.24777C3.64833 8.59646 2.97136 9.36496 2.67427 10.3803L2.65482 10.4525L3.60412 10.7247C4.62859 11.0175 5.34936 11.9245 5.41277 12.9772L5.41732 13.1285V14.1666H5.70595C6.75865 14.1666 7.74531 14.6635 8.3724 15.4996L8.48565 15.6604C8.96599 16.3861 9.43082 16.6666 10.0007 16.6666C10.5325 16.6666 10.9729 16.4223 11.4197 15.7996L11.5157 15.6604C12.0966 14.7825 13.0555 14.2339 14.0988 14.1724L14.2953 14.1666H14.584V13.1285C14.584 12.063 15.2582 11.1209 16.2529 10.7707L16.3972 10.7247L17.3465 10.4525L17.3272 10.3795C17.0468 9.42054 16.4277 8.68271 15.478 8.30976L15.3069 8.24777L14.5164 7.98424L14.2528 7.19367C13.4963 4.92418 11.8171 3.33329 10.0007 3.33329ZM10.0007 9.99996C10.691 9.99996 11.2507 10.9327 11.2507 12.0833C11.2507 13.2339 10.691 14.1666 10.0007 14.1666C9.31032 14.1666 8.75065 13.2339 8.75065 12.0833C8.75065 10.9327 9.31032 9.99996 10.0007 9.99996ZM7.91732 6.66663C8.60765 6.66663 9.16732 7.22627 9.16732 7.91663C9.16732 8.60696 8.60765 9.16662 7.91732 9.16662C7.22696 9.16662 6.66732 8.60696 6.66732 7.91663C6.66732 7.22627 7.22696 6.66663 7.91732 6.66663ZM12.084 6.66663C12.7743 6.66663 13.334 7.22627 13.334 7.91663C13.334 8.60696 12.7743 9.16662 12.084 9.16662C11.3937 9.16662 10.834 8.60696 10.834 7.91663C10.834 7.22627 11.3937 6.66663 12.084 6.66663Z" fill="#E3E3E3"/>
</svg>
