<svg width="20" height="20" viewBox="0 0 20 20" fill="none" xmlns="http://www.w3.org/2000/svg">
<path d="M10 1.66663C14.1422 1.66663 17.5 5.02449 17.5 9.16662V15.4166C17.5 17.0275 16.1942 18.3333 14.5833 18.3333C13.5834 18.3333 12.7011 17.8301 12.1756 17.0633C11.748 17.8214 10.9338 18.3333 10 18.3333C9.06625 18.3333 8.252 17.8214 7.82273 17.0628C7.29891 17.8301 6.41654 18.3333 5.41667 18.3333C3.85953 18.3333 2.58739 17.113 2.50432 15.5766L2.5 15.4166V9.16662C2.5 5.02449 5.85787 1.66663 10 1.66663ZM10 3.33329C6.84546 3.33329 4.27575 5.83728 4.17005 8.96604L4.16667 9.16662L4.16606 15.3717L4.16855 15.4866C4.2042 16.1459 4.75209 16.6666 5.41667 16.6666C5.79316 16.6666 6.13877 16.5005 6.37253 16.2206L6.44621 16.1231C7.14194 15.104 8.66542 15.168 9.27325 16.242C9.42108 16.5031 9.69542 16.6666 10 16.6666C10.3042 16.6666 10.5778 16.5036 10.7239 16.2445C11.3077 15.2096 12.7415 15.1097 13.4697 16.0125L13.5505 16.1212C13.7834 16.4611 14.1647 16.6666 14.5833 16.6666C15.2331 16.6666 15.767 16.1709 15.8276 15.537L15.8333 15.4166V9.16662C15.8333 5.94497 13.2217 3.33329 10 3.33329ZM13.3333 10.8333C13.3333 12.6742 11.8409 14.1666 10 14.1666C8.21483 14.1666 6.75743 12.7633 6.67075 10.9996L6.66667 10.8333H8.33333C8.33333 11.7538 9.0795 12.5 10 12.5C10.9205 12.5 11.6667 11.7538 11.6667 10.8333H13.3333ZM10 5.83329C10.9205 5.83329 11.6667 6.57948 11.6667 7.49996C11.6667 8.42046 10.9205 9.16662 10 9.16662C9.0795 9.16662 8.33333 8.42046 8.33333 7.49996C8.33333 6.57948 9.0795 5.83329 10 5.83329Z" fill="#E3E3E3"/>
</svg>
