<svg width="20" height="20" viewBox="0 0 20 20" fill="none" xmlns="http://www.w3.org/2000/svg">
<path d="M3.33268 3.33337H6.66601V5.00004H3.33268V3.33337ZM13.3327 15.8334H16.666V17.5H13.3327V15.8334ZM1.66602 7.50004H5.83268V9.16671H1.66602V7.50004ZM7.49935 7.50004H9.99935V9.16671H7.49935V7.50004ZM11.666 7.50004H16.666V9.16671H11.666V7.50004ZM3.33268 11.6667H8.33268V13.3334H3.33268V11.6667ZM9.99935 11.6667H12.4993V13.3334H9.99935V11.6667ZM14.166 11.6667H18.3327V13.3334H14.166V11.6667ZM8.33268 3.33337H18.3327V5.00004H8.33268V3.33337ZM1.66602 15.8334H11.666V17.5H1.66602V15.8334Z" fill="#E3E3E3"/>
</svg>
