<svg width="20" height="20" viewBox="0 0 20 20" fill="none" xmlns="http://www.w3.org/2000/svg">
<path d="M8.33268 5C8.33268 8.68192 11.3174 11.6667 14.9994 11.6667C16.1982 11.6667 17.3231 11.3503 18.2951 10.7963C17.8942 15.0252 14.3331 18.3333 9.99935 18.3333C5.39697 18.3333 1.66602 14.6023 1.66602 10C1.66602 5.66623 4.97418 2.10513 9.20302 1.70423C8.6491 2.67627 8.33268 3.80118 8.33268 5ZM3.33268 10C3.33268 13.6819 6.31745 16.6667 9.99935 16.6667C12.4705 16.6667 14.6458 15.3157 15.7969 13.2955C15.5333 13.3207 15.2672 13.3333 14.9994 13.3333C10.397 13.3333 6.66602 9.60233 6.66602 5C6.66602 4.73219 6.67872 4.46611 6.70382 4.20244C4.68367 5.35355 3.33268 7.52882 3.33268 10ZM15.1362 1.9092L15.8327 2.08333V2.91667L15.1362 3.0908C14.539 3.24008 14.0728 3.70633 13.9235 4.30348L13.7494 5H12.916L12.7419 4.30348C12.5926 3.70633 12.1264 3.24008 11.5292 3.0908L10.8327 2.91667V2.08333L11.5292 1.9092C12.1264 1.75992 12.5926 1.29367 12.7419 0.696524L12.916 0H13.7494L13.9235 0.696524C14.0728 1.29367 14.539 1.75992 15.1362 1.9092ZM19.3029 6.07587L19.9994 6.25V7.08333L19.3029 7.25747C18.7057 7.40675 18.2394 7.873 18.0902 8.47017L17.916 9.16667H17.0827L16.9085 8.47017C16.7593 7.873 16.293 7.40675 15.6959 7.25747L14.9994 7.08333V6.25L15.6959 6.07587C16.293 5.92658 16.7593 5.46033 16.9085 4.86319L17.0827 4.16667H17.916L18.0902 4.86319C18.2394 5.46033 18.7057 5.92658 19.3029 6.07587Z" fill="#E3E3E3"/>
</svg>
