<svg width="20" height="20" viewBox="0 0 20 20" fill="none" xmlns="http://www.w3.org/2000/svg">
<path d="M10.0007 3.33337C15.0632 3.33337 19.1673 7.43743 19.1673 12.5V16.6667H17.5007V12.5C17.5007 8.43187 14.2617 5.12022 10.2218 5.00324L10.0007 5.00004C5.93248 5.00004 2.62083 8.23905 2.50385 12.2789L2.50065 12.5V16.6667H0.833984V12.5C0.833984 7.43743 4.93804 3.33337 10.0007 3.33337ZM10.0007 6.66671C13.2223 6.66671 15.834 9.27837 15.834 12.5V16.6667H14.1673V12.5C14.1673 10.2594 12.3987 8.43187 10.1814 8.33721L10.0007 8.33337C7.76002 8.33337 5.93247 10.102 5.83783 12.3193L5.83398 12.5V16.6667H4.16732V12.5C4.16732 9.27837 6.77899 6.66671 10.0007 6.66671ZM10.0007 10C11.3814 10 12.5007 11.1193 12.5007 12.5V16.6667H10.834V12.5C10.834 12.0727 10.5123 11.7205 10.0978 11.6723L10.0007 11.6667C9.57332 11.6667 9.22107 11.9884 9.1729 12.4029L9.16732 12.5V16.6667H7.50065V12.5C7.50065 11.1193 8.6199 10 10.0007 10Z" fill="#E3E3E3"/>
</svg>
