<svg width="20" height="20" viewBox="0 0 20 20" fill="none" xmlns="http://www.w3.org/2000/svg">
<path d="M15.8327 7.50004C16.3883 8.38387 16.666 9.49496 16.666 10.8334C16.666 13.3334 13.7493 14.1667 12.4993 18.3334C11.9438 17.8545 11.666 17.1601 11.666 16.25C11.666 13.3485 15.8327 11.8418 15.8327 7.50004ZM12.0827 4.16671C12.6383 5.19872 12.916 6.30983 12.916 7.50004C12.916 11.6667 7.91602 12.5 9.58268 18.3334C8.19379 17.366 7.49935 15.9772 7.49935 14.1667C7.49935 11.3959 12.0827 9.16671 12.0827 4.16671ZM8.33268 0.833374C8.88827 1.94448 9.16602 3.19448 9.16602 4.58337C9.16602 9.58337 1.66602 10.8334 6.66602 18.3334C4.58268 17.9167 2.91602 15.8334 2.91602 13.3334C2.91602 7.91671 8.33268 7.08337 8.33268 0.833374Z" fill="#E3E3E3"/>
</svg>
