<svg width="20" height="20" viewBox="0 0 20 20" fill="none" xmlns="http://www.w3.org/2000/svg">
<path d="M7.22604 4.17226C8.16113 2.19847 10.1715 0.833374 12.5007 0.833374C12.8475 0.833374 13.1872 0.863641 13.5174 0.921674C13.3983 1.28744 13.334 1.67789 13.334 2.08337C13.334 4.15444 15.0129 5.83337 17.084 5.83337C17.4895 5.83337 17.8799 5.76901 18.2457 5.64996C18.3037 5.98014 18.334 6.31989 18.334 6.66671C18.334 7.68571 18.0727 8.64371 17.6135 9.47729C18.5662 10.3172 19.1673 11.5467 19.1673 12.9167C19.1673 15.448 17.1153 17.5 14.584 17.5H7.50065C3.81875 17.5 0.833984 14.5153 0.833984 10.8334C0.833984 7.24346 3.67148 4.31627 7.22604 4.17226ZM9.04007 4.34532C11.1844 4.85218 12.9286 6.39463 13.7153 8.41554C13.9966 8.36162 14.287 8.33337 14.584 8.33337C15.1461 8.33337 15.6846 8.43454 16.1822 8.61971C16.3701 8.26624 16.5086 7.88249 16.5885 7.47767C13.9923 7.24222 11.9252 5.17501 11.6897 2.57892C10.5891 2.79603 9.64415 3.44656 9.04007 4.34532ZM14.584 15.8334C16.1948 15.8334 17.5007 14.5275 17.5007 12.9167C17.5007 11.3059 16.1948 10 14.584 10C13.7677 10 13.0299 10.3353 12.5005 10.8756C12.5006 10.8615 12.5007 10.8475 12.5007 10.8334C12.5007 8.07195 10.2621 5.83337 7.50065 5.83337C4.73923 5.83337 2.50065 8.07195 2.50065 10.8334C2.50065 13.5948 4.73923 15.8334 7.50065 15.8334H14.584Z" fill="#E3E3E3"/>
</svg>
