<svg width="20" height="20" viewBox="0 0 20 20" fill="none" xmlns="http://www.w3.org/2000/svg">
<path d="M5.06979 10.8334C5.02432 10.5624 5.00065 10.284 5.00065 10C5.00065 7.23861 7.23923 5.00004 10.0007 5.00004C12.7621 5.00004 15.0007 7.23861 15.0007 10C15.0007 10.284 14.977 10.5624 14.9315 10.8334H13.229C13.2975 10.567 13.334 10.2878 13.334 10C13.334 8.15909 11.8416 6.66671 10.0007 6.66671C8.1597 6.66671 6.66732 8.15909 6.66732 10C6.66732 10.2878 6.70378 10.567 6.77234 10.8334H5.06979ZM1.66732 12.5H10.0007V14.1667H1.66732V12.5ZM11.6673 12.5H18.334V14.1667H11.6673V12.5ZM13.334 15.8334H16.6673V17.5H13.334V15.8334ZM3.33398 15.8334H11.6673V17.5H3.33398V15.8334ZM9.16732 0.833374H10.834V3.33337H9.16732V0.833374ZM2.92958 4.10748L4.10809 2.92897L5.87586 4.69674L4.69735 5.87525L2.92958 4.10748ZM15.8932 2.92897L17.0717 4.10748L15.304 5.87525L14.1254 4.69674L15.8932 2.92897ZM19.1673 9.16671V10.8334H16.6673V9.16671H19.1673ZM3.33398 9.16671V10.8334H0.833984V9.16671H3.33398Z" fill="#E3E3E3"/>
</svg>
