<svg width="20" height="20" viewBox="0 0 20 20" fill="none" xmlns="http://www.w3.org/2000/svg">
<path d="M6.66602 10H8.33268V11.6667H3.33268V10H4.99935C4.99935 7.23862 7.23792 5.00004 9.99935 5.00004C12.7608 5.00004 14.9993 7.23862 14.9993 10C14.9993 12.7615 12.7608 15 9.99935 15V13.3334C11.8403 13.3334 13.3327 11.841 13.3327 10C13.3327 8.15909 11.8403 6.66671 9.99935 6.66671C8.1584 6.66671 6.66602 8.15909 6.66602 10ZM4.99935 16.6667H12.4993V18.3334H4.99935V16.6667ZM1.66602 13.3334H8.33268V15H1.66602V13.3334ZM9.16602 0.833374H10.8327V3.33337H9.16602V0.833374ZM2.92828 4.10748L4.10679 2.92897L5.87456 4.69674L4.69605 5.87525L2.92828 4.10748ZM14.1241 15.3034L15.3027 14.1248L17.0704 15.8926L15.8919 17.0711L14.1241 15.3034ZM15.8919 2.92897L17.0704 4.10748L15.3027 5.87525L14.1241 4.69674L15.8919 2.92897ZM19.166 9.16671V10.8334H16.666V9.16671H19.166Z" fill="#E3E3E3"/>
</svg>
