<svg width="20" height="20" viewBox="0 0 20 20" fill="none" xmlns="http://www.w3.org/2000/svg">
<path d="M4.16732 17.5C3.73995 17.5 3.38773 17.1783 3.33959 16.7639L3.33398 16.6667V9.16669H0.833984L9.44007 1.34294C9.73149 1.07806 10.1637 1.05599 10.4785 1.27672L10.5612 1.34294L19.1673 9.16669H16.6673V16.6667C16.6673 17.094 16.3457 17.4463 15.9312 17.4944L15.834 17.5H4.16732ZM10.0007 3.085L5.00065 7.63V15.8334L8.63149 15.8329L9.79232 14.5834L6.66732 11.6667L10.834 9.16669L8.75065 7.5L11.2507 5L10.834 7.5L12.9173 9.16669L9.58399 11.6667L12.5007 14.1667L11.459 15.8329L15.0007 15.8334V7.63084L10.0007 3.085Z" fill="#E3E3E3"/>
</svg>
