<svg width="20" height="20" viewBox="0 0 20 20" fill="none" xmlns="http://www.w3.org/2000/svg">
<path d="M13.3341 14.5603C14.2187 15.3519 15.3868 15.8334 16.6673 15.8334H18.334V17.5H16.6673C15.453 17.5 14.3145 17.1754 13.3338 16.608C12.3542 17.1751 11.2153 17.5 10.0007 17.5C8.78632 17.5 7.64779 17.1754 6.66718 16.608C5.68748 17.1751 4.54868 17.5 3.33398 17.5H1.66732V15.8334H3.33398C4.61493 15.8334 5.78336 15.3517 6.66743 14.5603C7.55201 15.3519 8.72015 15.8334 10.0007 15.8334C11.2816 15.8334 12.4501 15.3517 13.3341 14.5603ZM10.4785 1.27672L10.5612 1.34294L19.1673 9.16669H16.6673V14.1667C15.3042 14.1667 14.094 13.5121 13.3338 12.5002C12.574 13.5121 11.3637 14.1667 10.0007 14.1667C8.63757 14.1667 7.42731 13.5121 6.66714 12.5002C5.90733 13.5121 4.69709 14.1667 3.33398 14.1667L3.33315 9.16619L0.833984 9.16669L9.44007 1.34294C9.70499 1.10214 10.0862 1.06201 10.3899 1.22254L10.4785 1.27672Z" fill="#E3E3E3"/>
</svg>
