<svg width="20" height="20" viewBox="0 0 20 20" fill="none" xmlns="http://www.w3.org/2000/svg">
<path d="M14.1577 15L15.171 13.6828C15.3391 13.4643 15.4302 13.1963 15.4302 12.9206C15.4302 12.2303 14.8706 11.6706 14.1802 11.6706H12.5007V8.35754C12.5007 7.96929 12.3202 7.60308 12.0124 7.36648C11.4651 6.94575 10.6803 7.0484 10.2596 7.59574L4.95507 14.4967C2.53605 13.4965 0.833984 11.1137 0.833984 8.33329C0.833984 4.65139 3.81875 1.66663 7.50065 1.66663C10.3297 1.66663 12.7472 3.42884 13.7153 5.91549C13.9966 5.86154 14.287 5.83329 14.584 5.83329C17.1153 5.83329 19.1673 7.88532 19.1673 10.4166C19.1673 12.948 17.1153 15 14.584 15H14.1577ZM10.834 13.3373H13.334L9.16732 18.754V15.004H6.66732L10.834 9.58329V13.3373Z" fill="#E3E3E3"/>
</svg>
