<svg width="20" height="20" viewBox="0 0 20 20" fill="none" xmlns="http://www.w3.org/2000/svg">
<path d="M13.2173 15L10.5899 12.3725C10.2645 12.0471 9.73682 12.0471 9.4114 12.3725L6.81846 14.9655C3.45703 14.6238 0.833984 11.7849 0.833984 8.33329C0.833984 4.65139 3.81875 1.66663 7.50065 1.66663C9.9979 1.66663 12.1745 3.03969 13.3166 5.07205C13.5931 5.02465 13.8773 4.99996 14.1673 4.99996C16.9287 4.99996 19.1673 7.23853 19.1673 9.99996C19.1673 12.7614 16.9287 15 14.1673 15H13.2173ZM8.52748 15.6101L10.0007 14.137L11.4738 15.6101C12.2874 16.4237 12.2874 17.7429 11.4738 18.5565C10.6602 19.37 9.34107 19.37 8.52748 18.5565C7.71392 17.7429 7.71392 16.4237 8.52748 15.6101Z" fill="#E3E3E3"/>
</svg>
