<svg width="20" height="20" viewBox="0 0 20 20" fill="none" xmlns="http://www.w3.org/2000/svg">
<path d="M1.3209 10.839C1.00693 10.0655 0.833984 9.21954 0.833984 8.33329C0.833984 4.65139 3.81875 1.66663 7.50065 1.66663C10.3297 1.66663 12.7472 3.42884 13.7153 5.91549C13.9966 5.86154 14.287 5.83329 14.584 5.83329C17.1153 5.83329 19.1673 7.88532 19.1673 10.4166C19.1673 10.559 19.1608 10.6999 19.1482 10.839H17.4703C17.4903 10.7011 17.5007 10.56 17.5007 10.4166C17.5007 8.80579 16.1948 7.49996 14.584 7.49996C13.7677 7.49996 13.0299 7.83523 12.5005 8.37554C12.5006 8.36146 12.5007 8.34738 12.5007 8.33329C12.5007 5.57187 10.2621 3.33329 7.50065 3.33329C4.73923 3.33329 2.50065 5.57187 2.50065 8.33329C2.50065 9.24638 2.7454 10.1023 3.17287 10.839H1.3209ZM3.33398 15.8333H17.5007V17.5H3.33398V15.8333ZM1.66732 12.5H19.1673V14.1666H1.66732V12.5Z" fill="#E3E3E3"/>
</svg>
