<svg width="20" height="20" viewBox="0 0 20 20" fill="none" xmlns="http://www.w3.org/2000/svg">
<path d="M9.99935 15.8333C10.6897 15.8333 11.2493 16.393 11.2493 17.0833C11.2493 17.7736 10.6897 18.3333 9.99935 18.3333C9.30901 18.3333 8.74935 17.7736 8.74935 17.0833C8.74935 16.393 9.30901 15.8333 9.99935 15.8333ZM16.2493 15.8333C16.9397 15.8333 17.4993 16.393 17.4993 17.0833C17.4993 17.7736 16.9397 18.3333 16.2493 18.3333C15.559 18.3333 14.9993 17.7736 14.9993 17.0833C14.9993 16.393 15.559 15.8333 16.2493 15.8333ZM3.74935 15.8333C4.43971 15.8333 4.99935 16.393 4.99935 17.0833C4.99935 17.7736 4.43971 18.3333 3.74935 18.3333C3.05899 18.3333 2.49935 17.7736 2.49935 17.0833C2.49935 16.393 3.05899 15.8333 3.74935 15.8333ZM14.166 5.83329C16.4672 5.83329 18.3327 7.69877 18.3327 9.99996C18.3327 12.3011 16.4672 14.1666 14.166 14.1666C12.6297 14.1666 11.2407 13.2995 9.9991 11.5654C8.75801 13.2995 7.36905 14.1666 5.83268 14.1666C3.5315 14.1666 1.66602 12.3011 1.66602 9.99996C1.66602 7.69877 3.5315 5.83329 5.83268 5.83329C7.36905 5.83329 8.75801 6.70039 9.9996 8.43454C11.2407 6.70039 12.6297 5.83329 14.166 5.83329ZM5.83268 7.49996C4.45197 7.49996 3.33268 8.61921 3.33268 9.99996C3.33268 11.3807 4.45197 12.5 5.83268 12.5C6.87741 12.5 7.92371 11.7706 8.96493 10.1215L9.03935 9.99912L8.96493 9.87838C7.96709 8.29798 6.9646 7.56233 5.96328 7.50377L5.83268 7.49996ZM14.166 7.49996C13.1213 7.49996 12.075 8.22927 11.0338 9.87838L10.9585 9.99996L11.0338 10.1215C12.0316 11.702 13.0341 12.4376 14.0354 12.4961L14.166 12.5C15.5468 12.5 16.666 11.3807 16.666 9.99996C16.666 8.61921 15.5468 7.49996 14.166 7.49996ZM9.99935 1.66663C10.6897 1.66663 11.2493 2.22627 11.2493 2.91663C11.2493 3.60698 10.6897 4.16663 9.99935 4.16663C9.30901 4.16663 8.74935 3.60698 8.74935 2.91663C8.74935 2.22627 9.30901 1.66663 9.99935 1.66663ZM3.74935 1.66663C4.43971 1.66663 4.99935 2.22627 4.99935 2.91663C4.99935 3.60698 4.43971 4.16663 3.74935 4.16663C3.05899 4.16663 2.49935 3.60698 2.49935 2.91663C2.49935 2.22627 3.05899 1.66663 3.74935 1.66663ZM16.2493 1.66663C16.9397 1.66663 17.4993 2.22627 17.4993 2.91663C17.4993 3.60698 16.9397 4.16663 16.2493 4.16663C15.559 4.16663 14.9993 3.60698 14.9993 2.91663C14.9993 2.22627 15.559 1.66663 16.2493 1.66663Z" fill="#E3E3E3"/>
</svg>
