<svg width="20" height="20" viewBox="0 0 20 20" fill="none" xmlns="http://www.w3.org/2000/svg">
<path d="M8.32059 4.21655C9.27757 2.68526 10.9785 1.66663 12.9173 1.66663C15.9089 1.66663 18.334 4.09175 18.334 7.08329C18.334 7.98355 18.1144 8.83254 17.7257 9.57954C18.6132 10.4154 19.1673 11.6013 19.1673 12.9166C19.1673 15.448 17.1153 17.5 14.584 17.5H7.50065C3.81875 17.5 0.833984 14.5152 0.833984 10.8333C0.833984 7.15139 3.81875 4.16663 7.50065 4.16663C7.77825 4.16663 8.05189 4.18359 8.32059 4.21655ZM10.0468 4.67012C11.7236 5.3636 13.0558 6.72144 13.7153 8.41546C13.9966 8.36154 14.287 8.33329 14.584 8.33329C15.1966 8.33329 15.7812 8.45346 16.3153 8.67154C16.5412 8.18929 16.6673 7.65103 16.6673 7.08329C16.6673 5.01223 14.9884 3.33329 12.9173 3.33329C11.7654 3.33329 10.7347 3.85271 10.0468 4.67012Z" fill="#E3E3E3"/>
</svg>
