<svg width="20" height="20" viewBox="0 0 20 20" fill="none" xmlns="http://www.w3.org/2000/svg">
<path d="M10.0007 3.33337C15.0632 3.33337 19.1673 7.43743 19.1673 12.5V16.6667H16.6673V12.5C16.6673 8.88762 13.7942 5.94626 10.2083 5.83655L10.0007 5.83337C6.38823 5.83337 3.44687 8.70654 3.33716 12.2924L3.33398 12.5V16.6667H0.833984V12.5C0.833984 7.43743 4.93804 3.33337 10.0007 3.33337ZM10.0007 6.66671C13.2223 6.66671 15.834 9.27837 15.834 12.5V16.6667H13.334V12.5C13.334 10.7149 11.9307 9.25746 10.167 9.17079L10.0007 9.16671C8.21549 9.16671 6.75809 10.57 6.6714 12.3337L6.66732 12.5V16.6667H4.16732V12.5C4.16732 9.27837 6.77899 6.66671 10.0007 6.66671ZM10.0007 10C11.3814 10 12.5007 11.1193 12.5007 12.5V16.6667H7.50065V12.5C7.50065 11.1193 8.6199 10 10.0007 10Z" fill="#E3E3E3"/>
</svg>
