<svg width="20" height="20" viewBox="0 0 20 20" fill="none" xmlns="http://www.w3.org/2000/svg">
<path d="M11.6673 3.69788C12.7892 3.69788 13.6986 2.78845 13.6986 1.66663H14.6361C14.6361 2.78845 15.5455 3.69788 16.6673 3.69788V4.63538C15.5455 4.63538 14.6361 5.5448 14.6361 6.66663H13.6986C13.6986 5.5448 12.7892 4.63538 11.6673 4.63538V3.69788ZM0.833984 9.16662C3.59541 9.16662 5.83398 6.92805 5.83398 4.16663H7.50065C7.50065 6.92805 9.73923 9.16662 12.5007 9.16662V10.8333C9.73923 10.8333 7.50065 13.0719 7.50065 15.8333H5.83398C5.83398 13.0719 3.59541 10.8333 0.833984 10.8333V9.16662ZM4.06399 9.99996C5.15663 10.6063 6.06101 11.5106 6.66732 12.6033C7.27363 11.5106 8.17801 10.6063 9.27065 9.99996C8.17801 9.39362 7.27363 8.48929 6.66732 7.39663C6.06101 8.48929 5.15663 9.39362 4.06399 9.99996ZM14.3757 11.6666C14.3757 13.1624 13.1631 14.375 11.6673 14.375V15.625C13.1631 15.625 14.3757 16.8375 14.3757 18.3333H15.6257C15.6257 16.8375 16.8382 15.625 18.334 15.625V14.375C16.8382 14.375 15.6257 13.1624 15.6257 11.6666H14.3757Z" fill="#E3E3E3"/>
</svg>
