<svg width="20" height="20" viewBox="0 0 20 20" fill="none" xmlns="http://www.w3.org/2000/svg">
<path d="M13.334 15V13.3333H14.1673C16.0082 13.3333 17.5007 11.8409 17.5007 9.99996C17.5007 8.15901 16.0082 6.66663 14.1673 6.66663C13.5054 6.66663 12.8885 6.85957 12.3699 7.19228C11.8537 4.98067 9.86957 3.33329 7.50065 3.33329C4.73923 3.33329 2.50065 5.57187 2.50065 8.33329C2.50065 10.8108 4.30256 12.8675 6.66732 13.2641V14.9484C3.37873 14.5383 0.833984 11.733 0.833984 8.33329C0.833984 4.65139 3.81875 1.66663 7.50065 1.66663C9.9979 1.66663 12.1745 3.03969 13.3166 5.07205C13.5931 5.02465 13.8773 4.99996 14.1673 4.99996C16.9287 4.99996 19.1673 7.23853 19.1673 9.99996C19.1673 12.7614 16.9287 15 14.1673 15H13.334ZM8.52748 15.6101L10.0007 14.137L11.4738 15.6101C12.2874 16.4237 12.2874 17.7429 11.4738 18.5565C10.6602 19.37 9.34107 19.37 8.52748 18.5565C7.71392 17.7429 7.71392 16.4237 8.52748 15.6101Z" fill="#E3E3E3"/>
</svg>
