<svg width="20" height="20" viewBox="0 0 20 20" fill="none" xmlns="http://www.w3.org/2000/svg">
<path d="M15.8297 14.8286C15.7405 13.0673 14.2842 11.6666 12.5007 11.6666C12.1857 11.6666 11.8808 11.7103 11.592 11.792C11.2674 10.2911 9.93199 9.16663 8.33399 9.16663C6.49303 9.16663 5.00065 10.659 5.00065 12.5C5.00065 13.3995 5.35692 14.2157 5.93603 14.8153C3.00902 14.1114 0.833984 11.4763 0.833984 8.33329C0.833984 4.65139 3.81875 1.66663 7.50065 1.66663C10.3297 1.66663 12.7472 3.42884 13.7153 5.91549C13.9966 5.86154 14.287 5.83329 14.584 5.83329C17.1153 5.83329 19.1673 7.88532 19.1673 10.4166C19.1673 12.5161 17.7557 14.286 15.8297 14.8286ZM8.33399 14.1666C7.41351 14.1666 6.66732 13.4205 6.66732 12.5C6.66732 11.5795 7.41351 10.8333 8.33399 10.8333C9.25449 10.8333 10.0007 11.5795 10.0007 12.5C10.0007 13.4205 9.25449 14.1666 8.33399 14.1666ZM12.5007 16.6666C11.5802 16.6666 10.834 15.9205 10.834 15C10.834 14.0795 11.5802 13.3333 12.5007 13.3333C13.4212 13.3333 14.1673 14.0795 14.1673 15C14.1673 15.9205 13.4212 16.6666 12.5007 16.6666ZM8.33399 19.1666C7.41351 19.1666 6.66732 18.4205 6.66732 17.5C6.66732 16.5795 7.41351 15.8333 8.33399 15.8333C9.25449 15.8333 10.0007 16.5795 10.0007 17.5C10.0007 18.4205 9.25449 19.1666 8.33399 19.1666Z" fill="#E3E3E3"/>
</svg>
