<svg width="20" height="20" viewBox="0 0 20 20" fill="none" xmlns="http://www.w3.org/2000/svg">
<path d="M10.0006 10H15.834V11.6667H10.0006V17.5H8.33398V6.66667C8.33398 4.82572 9.8264 3.33333 11.6673 3.33333H17.5006V5H11.6673C10.7468 5 10.0006 5.74619 10.0006 6.66667V10ZM3.75065 8.33333C2.13982 8.33333 0.833984 7.0275 0.833984 5.41667C0.833984 3.80583 2.13982 2.5 3.75065 2.5C5.36148 2.5 6.66732 3.80583 6.66732 5.41667C6.66732 7.0275 5.36148 8.33333 3.75065 8.33333ZM3.75065 6.66667C4.44101 6.66667 5.00065 6.10702 5.00065 5.41667C5.00065 4.72631 4.44101 4.16667 3.75065 4.16667C3.06029 4.16667 2.50065 4.72631 2.50065 5.41667C2.50065 6.10702 3.06029 6.66667 3.75065 6.66667Z" fill="#E3E3E3"/>
</svg>
