<svg width="20" height="20" viewBox="0 0 20 20" fill="none" xmlns="http://www.w3.org/2000/svg">
<path d="M14.1673 15V13.3333H14.584C16.1948 13.3333 17.5007 12.0275 17.5007 10.4166C17.5007 8.80579 16.1948 7.49996 14.584 7.49996C13.7677 7.49996 13.0299 7.83523 12.5005 8.37554C12.5006 8.36146 12.5007 8.34738 12.5007 8.33329C12.5007 5.57187 10.2621 3.33329 7.50065 3.33329C4.73923 3.33329 2.50065 5.57187 2.50065 8.33329C2.50065 10.5103 3.892 12.3624 5.83398 13.0488V14.79C2.95861 14.0499 0.833984 11.4397 0.833984 8.33329C0.833984 4.65139 3.81875 1.66663 7.50065 1.66663C10.3297 1.66663 12.7472 3.42884 13.7153 5.91549C13.9966 5.86154 14.287 5.83329 14.584 5.83329C17.1153 5.83329 19.1673 7.88532 19.1673 10.4166C19.1673 12.948 17.1153 15 14.584 15H14.1673ZM10.834 13.3373H13.334L9.16732 18.754V15.004H6.66732L10.834 9.58329V13.3373Z" fill="#E3E3E3"/>
</svg>
