<svg width="20" height="20" viewBox="0 0 20 20" fill="none" xmlns="http://www.w3.org/2000/svg">
<g clip-path="url(#clip0_1518_1350)">
<path d="M10.0007 15C7.23923 15 5.00065 12.7615 5.00065 10C5.00065 7.23862 7.23923 5.00004 10.0007 5.00004C12.7621 5.00004 15.0007 7.23862 15.0007 10C15.0007 12.7615 12.7621 15 10.0007 15ZM9.16732 0.833374H10.834V3.33337H9.16732V0.833374ZM9.16732 16.6667H10.834V19.1667H9.16732V16.6667ZM2.92958 4.10748L4.10809 2.92897L5.87586 4.69674L4.69735 5.87525L2.92958 4.10748ZM14.1254 15.3034L15.304 14.1248L17.0717 15.8926L15.8932 17.0711L14.1254 15.3034ZM15.8932 2.92897L17.0717 4.10748L15.304 5.87525L14.1254 4.69674L15.8932 2.92897ZM4.69735 14.1248L5.87586 15.3034L4.10809 17.0711L2.92958 15.8926L4.69735 14.1248ZM19.1673 9.16671V10.8334H16.6673V9.16671H19.1673ZM3.33398 9.16671V10.8334H0.833984V9.16671H3.33398Z" fill="#E3E3E3"/>
</g>
<defs>
<clipPath id="clip0_1518_1350">
<rect width="20" height="20" fill="white"/>
</clipPath>
</defs>
</svg>
