<svg width="20" height="20" viewBox="0 0 20 20" fill="none" xmlns="http://www.w3.org/2000/svg">
<path d="M5.02298 14.5244C2.56797 13.541 0.833984 11.1396 0.833984 8.33329C0.833984 4.65139 3.81875 1.66663 7.50065 1.66663C10.3297 1.66663 12.7472 3.42884 13.7153 5.91549C13.9966 5.86154 14.287 5.83329 14.584 5.83329C17.1153 5.83329 19.1673 7.88532 19.1673 10.4166C19.1673 12.8075 17.3367 14.7708 15.0007 14.9813C14.9906 12.2285 12.7558 9.99996 10.0007 9.99996C7.39964 9.99996 5.26249 11.986 5.02298 14.5244ZM10.834 13.5566L12.4707 12.6116L13.3041 14.055L11.6673 15L13.3041 15.945L12.4707 17.3883L10.834 16.4433V18.3333H9.16732V16.4433L7.53057 17.3883L6.69724 15.945L8.33399 15L6.69724 14.055L7.53057 12.6116L9.16732 13.5566V11.6666H10.834V13.5566Z" fill="#E3E3E3"/>
</svg>
