<svg width="932" height="433" viewBox="0 0 932 433" fill="none" xmlns="http://www.w3.org/2000/svg">
<rect x="0.5" y="0.5" width="931" height="432" rx="4.5" stroke="#9747FF" stroke-dasharray="10 5"/>
<path fill-rule="evenodd" clip-rule="evenodd" d="M395.973 71.9263C395.016 72.5738 392.906 73.1111 391.285 73.1215C386.248 73.1517 374.832 76.511 367.274 80.1883C358.677 84.3715 349.378 92.5198 345.342 99.4055C336.606 114.311 335.367 125.227 335.846 183.016C336.201 225.851 336.293 227.412 338.643 230.578C341.818 234.858 347.116 236.609 357.1 236.682C366.876 236.753 372.816 235.261 375.782 231.986C377.857 229.695 378.021 226.58 378.568 178.905C379.105 132.334 379.325 127.93 381.319 124.196C386.258 114.94 394.345 112.017 412.901 112.781C427.343 113.377 432.448 115.586 436.587 123.036L439.488 128.257L440.068 179.127L440.648 229.996L443.817 232.72C447.626 235.994 454.922 237.26 465.416 236.466C483.112 235.129 483.009 235.474 482.982 177.073C482.961 132.858 481.971 118.325 478.282 108.09C471.562 89.4459 455.963 77.8037 431.365 73.0751C421.747 71.2266 398.141 70.4596 395.973 71.9263ZM560.749 71.9785C559.791 72.597 557.338 73.1111 555.297 73.1215C553.256 73.1308 547.512 74.4258 542.533 75.9993C520.286 83.0266 506.965 96.1866 499.618 118.394C497.78 123.952 497.511 128.897 497.534 156.687C497.56 186.846 497.709 189.06 500.255 197.001C509.711 226.494 533.203 240.134 574.673 240.212C601.312 240.262 623.337 232.172 635.653 217.814C641.614 210.866 647.321 198.08 649.434 186.941C651.93 173.782 651.937 137.361 649.445 124.034C647.031 111.114 640.36 97.4038 633.067 90.3707C623.954 81.5842 614.421 77.4753 590.612 72.0725C583.763 70.5188 563.109 70.4538 560.749 71.9785ZM668.826 76.6189C661.995 78.233 661.096 80.0722 661.339 91.9419C661.459 97.7578 662.347 107.524 663.312 113.646C664.279 119.768 665.909 131.042 666.937 138.701C668.751 152.22 669.766 159.445 673.952 188.598C678.087 217.396 683.676 228.509 697.54 235.5C709.919 241.741 738.82 241.761 751.132 235.534C756.312 232.915 763.173 225.415 765.65 219.664C768.146 213.868 771.908 198.759 771.926 194.46C771.942 190.519 773.719 176.004 776.096 160.383C777.001 154.437 777.78 147.388 777.828 144.718C777.986 135.82 781.758 116.202 783.679 114.281C785.353 112.606 785.708 112.601 787.33 114.224C789.252 116.145 790.348 122.288 793.359 147.984C794.406 156.919 796.02 169.297 796.946 175.491C797.871 181.684 798.629 188.734 798.63 191.156C798.631 197.734 801.781 211.577 804.862 218.544C811.763 234.148 822.997 240.235 844.889 240.235C857.38 240.235 866.483 238.344 874.517 234.078C886.165 227.894 891.691 217.815 895.317 196.14C898.592 176.563 905.967 124.683 907.854 107.951C908.465 102.526 909.466 97.181 910.076 96.0729C910.686 94.9647 911.187 91.704 911.187 88.8286C911.187 79.195 905.048 75.3994 889.719 75.5548C878.808 75.6662 872.937 77.5728 869.978 81.9648C867.284 85.9601 864.916 101.05 858.34 156.107C854.471 188.498 852.462 198.685 849.485 200.973C845.965 203.683 841.266 203.66 838.789 200.921C836.145 198 834.112 185.243 826.929 126.517C822.794 92.7008 820.098 85.7918 808.769 79.9643C801.712 76.3346 787.243 74.796 775.772 76.4542C755.967 79.318 749.57 87.0798 745.989 112.592C744.958 119.932 743.287 132.464 742.275 140.442C741.264 148.419 739.713 160.168 738.83 166.55C737.948 172.932 736.892 181.548 736.484 185.697C735.551 195.171 732.874 200.968 728.762 202.413C724.783 203.812 720.061 201.825 718.67 198.166C717.708 195.633 714.753 175.381 711.013 145.663C710.049 138.005 708.732 127.822 708.087 123.036C707.442 118.249 706.431 109.894 705.843 104.469C703.553 83.3712 701.548 79.217 692.453 76.7373C687.192 75.3042 674.66 75.2404 668.826 76.6189ZM594.98 116.08C599.625 118.398 601.476 120.246 604.263 125.356L607.744 131.739L607.733 156.107C607.721 180.274 607.695 180.524 604.614 186.386C599.491 196.132 591.945 199.485 574.637 199.707C555.498 199.952 545.378 194.453 541.702 181.808C539.129 172.957 539.105 138.768 541.666 130.145C543.945 122.471 550.529 115.768 557.519 114.007C560.253 113.319 568.494 112.852 575.834 112.97C587.478 113.158 589.917 113.554 594.98 116.08Z" fill="#2078BE"/>
<path fill-rule="evenodd" clip-rule="evenodd" d="M620.444 260.691L617.595 263.539V307.631C617.595 354.512 617.872 357.079 623.085 358.387C627.223 359.426 636.306 358.113 637.447 356.312C637.997 355.445 638.454 345.246 638.465 333.647C638.482 312.699 638.502 312.535 641.468 309.011C644.731 305.133 652.114 302.503 656.235 303.751C657.64 304.177 659.964 305.601 661.4 306.914C663.935 309.235 664.011 309.956 664.011 331.729C664.011 352.608 664.171 354.315 666.331 356.476C668.008 358.153 670.183 358.792 674.164 358.779C684.41 358.746 684.901 357.411 684.885 329.573C684.869 300.037 682.829 292.955 672.826 287.704C666.092 284.17 651.57 284.225 644.62 287.812C641.933 289.199 639.453 290.334 639.109 290.334C638.764 290.334 638.482 284.067 638.482 276.409C638.482 264.031 638.224 262.227 636.161 260.163C632.671 256.673 624.176 256.958 620.444 260.691ZM336.961 268.308C331.712 272.684 330.979 278.595 330.979 316.572C330.979 354.018 331.385 357.112 336.468 358.387C340.606 359.426 349.69 358.113 350.83 356.312C351.381 355.445 351.838 349.153 351.848 342.329C351.86 333.989 352.319 329.643 353.25 329.069C354.011 328.597 361.541 328.076 369.98 327.912C387.307 327.572 391.612 326.181 398.051 318.848C407.961 307.561 407.5 283.676 397.171 273.273C390.86 266.917 386.228 265.962 361.923 266.004C341.595 266.04 339.447 266.238 336.961 268.308ZM378.921 285.881C382.995 288.052 384.28 290.556 384.319 296.407C384.35 300.82 383.715 302.619 381.096 305.551C377.957 309.063 377.413 309.222 366.608 309.787C352.103 310.546 351.866 310.353 351.866 297.817C351.866 285.031 352.394 284.532 365.949 284.532C371.69 284.532 377.526 285.14 378.921 285.881ZM521.863 285.553C513.406 287.1 506.934 292.051 503.736 299.423C501.823 303.836 501.556 307.55 501.556 329.817C501.556 354.714 501.603 355.217 504.135 356.99C507.229 359.157 516.591 359.378 519.274 357.346C520.923 356.098 521.236 352.626 521.526 332.427C521.921 304.915 521.988 304.75 533.395 303.202C537.066 302.703 540.566 301.563 541.17 300.666C542.735 298.348 541.602 289.269 539.484 287.151C537.438 285.105 528.663 284.309 521.863 285.553ZM576.888 285.704C566.46 287.469 559.678 292.409 555.065 301.601C552.919 305.875 552.613 308.513 552.613 322.682C552.613 335.93 553.009 339.8 554.785 343.945C557.505 350.291 563.842 355.946 570.289 357.779C573.013 358.554 575.737 359.622 576.343 360.153C577.831 361.455 597.868 361.39 597.868 360.082C597.868 359.514 599.192 358.715 600.81 358.309C605.917 357.028 608.019 345.907 603.868 342.148C602.127 340.574 600.188 340.351 593.134 340.916C582.794 341.743 576.034 339.882 573.786 335.589C572.746 333.603 572.369 328.901 572.593 320.699C572.876 310.333 573.23 308.483 575.205 307.04C579.628 303.809 585.87 302.903 593.441 304.393C600.278 305.738 600.645 305.689 602.696 303.157C605.44 299.768 605.472 292.544 602.758 289.192C599.481 285.144 588.745 283.697 576.888 285.704ZM713.536 285.543C706.946 286.548 705.826 287.936 705.802 295.124C705.777 302.785 706.865 303.311 721.042 302.494C734.503 301.719 738.068 302.757 739.906 307.985C741.772 313.287 739.4 314.697 728.561 314.73C708.242 314.791 699.202 320.331 697.005 334.065C695.384 344.205 701.815 355.259 710.824 357.817C713.477 358.571 716.145 359.622 716.75 360.153C718.215 361.434 739.125 361.399 739.92 360.114C740.261 359.561 742.386 358.811 744.64 358.444C750.213 357.54 755.271 353.708 758.029 348.302C760.056 344.326 760.323 341.436 760.323 323.405C760.323 297.45 758.806 293.638 746.274 288.095C740.355 285.477 722.898 284.116 713.536 285.543ZM791.394 285.728C785.268 286.76 780.158 289.936 776.615 294.91C774.785 297.479 774.248 300.043 774.248 306.198C774.248 317.292 776.963 321.086 788.964 326.757C805.886 334.754 810.613 337.327 810.529 338.49C810.32 341.371 802.732 342.23 789.913 340.823C782.893 340.053 776.304 339.846 775.271 340.365C772.622 341.696 771.733 347.577 773.406 352.702C774.634 356.463 775.487 357.215 779.671 358.225C782.336 358.867 784.902 359.782 785.377 360.255C786.689 361.569 811.134 361.294 811.96 359.957C812.355 359.319 813.482 358.797 814.465 358.797C818.229 358.797 824.472 354.771 827.274 350.537C829.906 346.559 830.154 345.201 829.775 336.851C829.38 328.149 829.114 327.335 825.437 323.54C823.282 321.317 819.891 318.863 817.9 318.087C815.909 317.31 812.715 316.033 810.8 315.249C808.885 314.466 804.708 312.757 801.517 311.454C797.58 309.844 795.598 308.32 795.349 306.711C794.718 302.614 798.805 302.305 819.014 304.93C824.751 305.675 824.948 305.602 826.347 302.222C828.113 297.96 827.022 291.197 824.149 288.598C820.42 285.222 803.302 283.722 791.394 285.728ZM867.079 285.656C855.14 287.93 847.693 295.266 844.593 307.814C841.222 321.456 843.204 340.649 848.816 348.707C851.562 352.651 858.914 357.454 863.656 358.402C865.565 358.784 867.409 359.551 867.752 360.107C868.575 361.438 894.605 361.42 895.427 360.088C895.777 359.523 897.846 358.726 900.025 358.316C905.248 357.337 907.928 353.207 907.466 346.855C907.003 340.484 904.049 338.999 894.348 340.257C890.519 340.754 883.219 340.994 878.125 340.791C869.732 340.455 868.611 340.127 866.172 337.291C864.691 335.569 863.643 333.307 863.844 332.264C864.162 330.608 866.787 330.33 884.5 330.073C903.53 329.797 904.918 329.627 906.822 327.334C907.939 325.989 908.853 323.745 908.853 322.348C908.853 320.95 909.998 319.342 910.163 317.32C910.242 316.363 910.305 316.646 910.163 314.861C909.917 311.743 908.692 308.614 908.28 306.138C907.008 298.493 902.118 292.088 894.241 287.752C889.966 285.4 874.639 284.217 867.079 285.656ZM424.7 286.707C423.891 286.953 422.315 287.951 421.199 288.924C419.388 290.503 419.169 293.27 419.18 314.591C419.19 337.261 419.332 338.793 421.931 344.374C425.087 351.153 431.912 357.309 437.414 358.342C439.505 358.734 441.216 359.519 441.216 360.086C441.216 361.42 462.927 361.44 463.75 360.107C464.094 359.551 466.04 358.763 468.074 358.357C472.928 357.386 478.625 352.949 482.009 347.507C484.612 343.322 484.748 342.016 485.131 317.443C485.404 299.843 485.118 290.981 484.22 289.303C483.094 287.2 481.851 286.852 475.475 286.852C470.802 286.852 467.693 287.391 467.103 288.303C466.586 289.101 465.903 300.248 465.584 313.076C465.16 330.08 464.585 336.901 463.458 338.258C461.578 340.52 453.142 341.927 447.643 340.895C440.19 339.497 440.055 339.024 440.055 314.297C440.055 288.353 439.736 287.337 431.389 286.674C428.52 286.445 425.51 286.46 424.7 286.707ZM887.602 305.621C889.078 307.008 890.287 309.358 890.287 310.842C890.287 313.511 890.136 313.541 876.942 313.541C864.272 313.541 863.598 313.422 863.598 311.168C863.598 309.863 864.88 307.513 866.447 305.947C868.905 303.487 870.359 303.098 877.105 303.098C883.528 303.098 885.392 303.546 887.602 305.621ZM739.204 331.179C741.462 333.437 740.805 337.806 737.748 340.863C735.431 343.18 733.752 343.707 728.755 343.686C720.947 343.653 717.021 340.994 717.581 336.117C717.834 333.915 718.978 332.234 720.87 331.281C724.578 329.414 737.368 329.344 739.204 331.179Z" fill="#1A1A1A"/>
<path d="M20 287.865V160.802L62.9344 186.331V313.393L20 287.865Z" fill="#4AC0EE"/>
<path d="M102.968 243.19V195.034L143.582 217.661V265.817L102.968 243.19Z" fill="#4AC0EE"/>
<path d="M102.968 336.021V287.865L143.582 313.393V360.969L102.968 336.021Z" fill="#4AC0EE"/>
<path d="M185.942 195.614L143.588 217.661V265.818L185.942 243.77V195.614Z" fill="#3F96D2"/>
<path d="M143.588 362.13V312.813L225.395 263.497V170.665L267.75 144.557V287.285L143.588 362.13Z" fill="#3F96D2"/>
<path d="M143.583 72.023L43.209 132.363L84.983 157.892L143.583 122.5L225.39 170.656L267.745 144.547L143.583 72.023Z" fill="#2078BD"/>
<path d="M143.583 172.977L102.969 195.024L143.583 218.232L185.937 195.605L143.583 172.977Z" fill="#2078BD"/>
</svg>
